<?xml version="1.0" encoding="utf-8"?>
<!-- Generator: Adobe Illustrator 21.1.0, SVG Export Plug-In . SVG Version: 6.00 Build 0)  -->
<svg version="1.1" id="Layer_1" xmlns="http://www.w3.org/2000/svg" xmlns:xlink="http://www.w3.org/1999/xlink" x="0px" y="0px"
	 viewBox="0 0 12.6 12.7" style="enable-background:new 0 0 12.6 12.7;" xml:space="preserve">
<style type="text/css">
	.st0{fill:#8F8FD1;}
	.st1{fill:#F15379;}
</style>
<g>
	<g id="Behance_1_">
		<path class="st0" d="M-105.2,13.6h-8.1V-4.3h8.7c2.2,0,3.8,0.7,4.7,2c0.6,0.8,0.9,1.7,0.9,2.8s-0.3,2.1-0.9,2.8
			c-0.2,0.3-0.5,0.5-0.8,0.7c0.6,0.3,1.1,0.8,1.5,1.4c0.5,0.7,0.7,1.7,0.7,2.7c0,1.1-0.3,2.1-0.8,2.9c-0.3,0.6-0.8,1.1-1.3,1.4
			c-0.6,0.4-1.3,0.8-2.1,0.9C-103.5,13.5-104.3,13.6-105.2,13.6z M-112.6,12.9h7.4c0.8,0,1.6-0.1,2.4-0.2c0.7-0.1,1.3-0.4,1.8-0.8
			c0.4-0.3,0.8-0.8,1.1-1.3c0.5-0.7,0.7-1.6,0.7-2.6c0-0.9-0.2-1.7-0.6-2.3l0,0c-0.4-0.6-1-1.1-1.8-1.4l-0.8-0.2l0.7-0.4
			c0.5-0.3,0.9-0.6,1.2-0.9c0.5-0.6,0.7-1.3,0.7-2.3c0-0.9-0.2-1.8-0.7-2.4c-0.8-1.1-2.2-1.7-4.2-1.7h-8v16.5H-112.6z M-91.3,13.5
			c-1.7,0-3.2-0.5-4.6-1.6c-1.3-1.1-2-2.8-2-5.2c0-2.2,0.6-4,1.8-5.2c1.2-1.2,2.8-1.8,4.7-1.8c1.1,0,2.1,0.2,3,0.6s1.7,1.1,2.3,1.9
			c0.5,0.8,0.9,1.7,1,2.7l0,0C-85,5.5-85,6.3-85,7.4v0.3h-8.9c0.1,0.9,0.5,1.6,1.1,1.9c0.4,0.3,1,0.4,1.6,0.4c0.7,0,1.2-0.2,1.6-0.5
			c0.2-0.2,0.4-0.4,0.6-0.7l0.1-0.2h3.9V9c-0.1,0.8-0.5,1.6-1.3,2.4C-87.6,12.9-89.2,13.5-91.3,13.5z M-91.4,0.4
			c-1.7,0-3.1,0.5-4.2,1.6s-1.6,2.6-1.6,4.7c0,2.2,0.6,3.7,1.8,4.7c1.2,1,2.6,1.4,4.1,1.4c1.9,0,3.3-0.6,4.4-1.7
			c0.5-0.6,0.9-1.1,1-1.6h-2.7c-0.2,0.3-0.4,0.6-0.6,0.8c-0.5,0.4-1.2,0.6-2,0.6s-1.4-0.2-2-0.5c-0.9-0.6-1.4-1.5-1.5-2.9V7.1h9
			c0-0.9,0-1.5-0.1-2c-0.1-0.9-0.5-1.7-0.9-2.4c-0.5-0.8-1.2-1.3-2-1.7C-89.5,0.6-90.4,0.4-91.4,0.4z M-105.4,10.6h-4V5.3h4
			c0.8,0,1.4,0.1,1.9,0.3c0.8,0.4,1.3,1.1,1.3,2.2c0,1.2-0.4,2-1.3,2.5C-103.9,10.5-104.6,10.6-105.4,10.6z M-108.7,9.9h3.3
			c0.7,0,1.2-0.1,1.6-0.3c0.6-0.3,0.9-0.9,0.9-1.8c0-0.8-0.3-1.3-0.9-1.5c-0.3-0.2-0.8-0.2-1.5-0.3h-3.3L-108.7,9.9L-108.7,9.9z
			 M-88.3,5.7h-6.3l0.1-0.4c0.1-0.9,0.4-1.6,1-2.1c0.5-0.5,1.3-0.8,2.2-0.8c0.8,0,1.6,0.3,2.1,0.8c0.6,0.5,0.9,1.2,1,2.2L-88.3,5.7z
			 M-93.8,5h4.7c-0.1-0.6-0.3-1-0.7-1.3c-0.5-0.4-1-0.6-1.7-0.6s-1.3,0.2-1.7,0.6C-93.4,4-93.7,4.5-93.8,5z M-105.4,3.2h-4v-4.5h3.6
			c0.9,0,1.6,0.1,2.1,0.3s1.2,0.7,1.2,1.9c0,0.9-0.3,1.5-0.9,1.8C-103.9,3-104.6,3.2-105.4,3.2z M-108.7,2.5h3.3
			c0.7,0,1.2-0.1,1.6-0.4c0.4-0.2,0.5-0.6,0.5-1.2c0-0.9-0.4-1.1-0.7-1.3c-0.5-0.2-1.1-0.2-1.9-0.2h-2.9L-108.7,2.5L-108.7,2.5z
			 M-87.6-1.1h-7.6v-2.5h7.6V-1.1z M-94.6-1.8h6.2v-1.1h-6.2V-1.8z"/>
	</g>
</g>
<g>
	<g id="XMLID_14_">
		<path class="st0" d="M-66.5,13.6c-2.2,0-4.4-0.6-6.3-1.7c-0.3-0.2-0.4-0.5-0.3-0.8s0.4-0.5,0.7-0.5h0.5c1.3,0,2.6-0.3,3.7-0.9
			c-1.4-0.5-2.5-1.6-3-3.1c-0.1-0.2,0-0.4,0.1-0.6l0.1-0.1c-1.1-0.9-1.8-2.3-1.8-3.8c0-0.2,0.1-0.4,0.3-0.5c0.1-0.1,0.3-0.1,0.4-0.1
			c-0.4-0.7-0.6-1.5-0.6-2.4c0-0.8,0.2-1.7,0.7-2.4c0.1-0.2,0.3-0.3,0.5-0.3s0.4,0.1,0.5,0.2c1.9,2.3,4.6,3.8,7.6,4.1
			c0-0.5,0-1,0.1-1.5c0.4-1.6,1.6-2.9,3.1-3.4c1.7-0.5,3.4-0.1,4.7,1c0,0,0.1,0.1,0.2,0.1c0.8-0.2,1.5-0.5,2.1-0.9
			c0.2-0.1,0.5-0.1,0.7,0c0.2,0.2,0.3,0.4,0.2,0.6c-0.1,0.4-0.3,0.7-0.5,1.1c0.1,0,0.2-0.1,0.3-0.1l0,0c0.2-0.1,0.5,0,0.7,0.2
			s0.2,0.5,0,0.7c-0.5,0.8-1.1,1.4-1.8,2c-0.1,0.1-0.2,0.2-0.2,0.3c0,1.5-0.3,3.1-0.8,4.5c-0.6,1.5-1.4,2.9-2.4,4
			c-1.1,1.3-2.5,2.3-4,3C-62.7,13.2-64.5,13.6-66.5,13.6z M-72.4,11.3c1.8,1,3.9,1.6,6,1.6c1.8,0,3.6-0.4,5.1-1.1
			c1.4-0.7,2.7-1.6,3.7-2.8c1-1.1,1.8-2.4,2.3-3.8s0.8-2.8,0.8-4.2c0-0.4,0.2-0.7,0.4-0.9c0.6-0.4,1-1,1.5-1.5
			c-0.4,0.1-0.7,0.3-1.1,0.3L-55-0.8l0.9-0.9c0.4-0.4,0.8-0.9,1-1.4c-0.6,0.3-1.3,0.6-2,0.8c-0.3,0.1-0.6,0-0.8-0.2
			c-1.1-0.9-2.6-1.3-4-0.8c-1.3,0.4-2.4,1.5-2.7,2.9c-0.1,0.5-0.2,1-0.1,1.5c0,0.1,0,0.3-0.1,0.4s-0.2,0.2-0.4,0.2
			c-3.2-0.3-6.1-1.8-8.2-4.3c-0.3,0.6-0.5,1.2-0.5,1.9c0,1.1,0.4,2.1,1.2,2.9l0.9,0.9L-71,2.8c-0.3-0.1-0.6-0.2-0.9-0.3
			c0.1,1.5,1,2.9,2.4,3.6l1.4,0.6h-1.7c-0.2,0-0.4,0-0.6,0c0.5,1.4,1.7,2.4,3.2,2.6l0.9,0.1L-67,9.9c-1.4,1-3.1,1.5-4.8,1.5h-0.6
			V11.3z M-71.6-2.8L-71.6-2.8L-71.6-2.8z"/>
	</g>
</g>
<g>
	<g id="XMLID_9_">
		<path class="st0" d="M-135.2,13.6c-4.9,0-8.9-4-8.9-8.9s4-8.9,8.9-8.9c4.9,0,8.9,4,8.9,8.9C-126.3,9.6-130.3,13.6-135.2,13.6z
			 M-135.2-3.6c-4.5,0-8.2,3.7-8.2,8.2s3.7,8.2,8.2,8.2s8.2-3.7,8.2-8.2S-130.7-3.6-135.2-3.6z"/>
	</g>
	<g id="XMLID_7_">
		<path class="st0" d="M-132.7,13.3l-0.7-0.1c0.9-9.2-6.3-15.5-6.4-15.6l0.5-0.5C-139.3-2.8-131.8,3.7-132.7,13.3z"/>
	</g>
	<g id="XMLID_6_">
		<path class="st0" d="M-140,11.7l-0.6-0.3c0-0.1,3.7-7.7,14-7.1V5C-136.5,4.4-140,11.6-140,11.7z"/>
	</g>
	<g id="XMLID_5_">
		<path class="st0" d="M-142.6,4.5c-0.7,0-1.2,0-1.2,0l0.1-0.7c0.1,0,8.5,0.8,14.3-5.3l0.5,0.5C-133.6,3.9-140,4.5-142.6,4.5z"/>
	</g>
</g>
<g>
	<g id="XMLID_298_">
		<path class="st0" d="M-157.8,13.6h-11.6c-1.7,0-3.1-1.4-3.1-3.1V-1.2c0-1.7,1.4-3.1,3.1-3.1h11.6c1.7,0,3.1,1.4,3.1,3.1v11.7
			C-154.7,12.2-156.1,13.6-157.8,13.6z M-169.4-3.6c-1.3,0-2.4,1.1-2.4,2.4v11.7c0,1.3,1.1,2.4,2.4,2.4h11.6c1.3,0,2.4-1.1,2.4-2.4
			V-1.2c0-1.3-1.1-2.4-2.4-2.4H-169.4z"/>
	</g>
	<g id="XMLID_296_">
		<path class="st0" d="M-161.9,8.8h-3.3c-1.3,0-2.4-1.1-2.4-2.4V3c0-1.3,1.1-2.4,2.4-2.4h3.3c1.3,0,2.4,1.1,2.4,2.4v3.4
			C-159.5,7.7-160.6,8.8-161.9,8.8z M-165.2,1.2c-1,0-1.7,0.8-1.7,1.7v3.4c0,1,0.8,1.7,1.7,1.7h3.3c1,0,1.7-0.8,1.7-1.7V3
			c0-1-0.8-1.7-1.7-1.7L-165.2,1.2L-165.2,1.2z"/>
	</g>
	<g id="XMLID_229_">
		<path class="st0" d="M-161.9,8.8h-3.3c-1.3,0-2.4-1.1-2.4-2.4V3c0-1.3,1.1-2.4,2.4-2.4h3.3c1.3,0,2.4,1.1,2.4,2.4v3.4
			C-159.5,7.7-160.6,8.8-161.9,8.8z M-165.2,1.2c-1,0-1.7,0.8-1.7,1.7v3.4c0,1,0.8,1.7,1.7,1.7h3.3c1,0,1.7-0.8,1.7-1.7V3
			c0-1-0.8-1.7-1.7-1.7L-165.2,1.2L-165.2,1.2z"/>
	</g>
	<g id="XMLID_15_">
		<path class="st0" d="M-158.3,0.6c-0.6,0-1.1-0.5-1.1-1.1s0.5-1.1,1.1-1.1c0.6,0,1.1,0.5,1.1,1.1S-157.7,0.6-158.3,0.6z M-158.3-1
			c-0.2,0-0.4,0.2-0.4,0.4c0,0.2,0.2,0.4,0.4,0.4s0.4-0.2,0.4-0.4S-158.1-1-158.3-1z"/>
	</g>
</g>
<g>
	<g id="Behance_2_">
		<path class="st1" d="M-105.2,41.6h-8.1V23.7h8.7c2.2,0,3.8,0.7,4.7,2c0.6,0.8,0.9,1.7,0.9,2.8c0,1.1-0.3,2.1-0.9,2.8
			c-0.2,0.3-0.5,0.5-0.8,0.7c0.6,0.3,1.1,0.8,1.5,1.4c0.5,0.7,0.7,1.7,0.7,2.7c0,1.1-0.3,2.1-0.8,2.9c-0.3,0.6-0.8,1.1-1.3,1.4
			c-0.6,0.4-1.3,0.8-2.1,0.9C-103.5,41.5-104.3,41.6-105.2,41.6z M-112.6,40.9h7.4c0.8,0,1.6-0.1,2.4-0.2c0.7-0.1,1.3-0.4,1.8-0.8
			c0.4-0.3,0.8-0.8,1.1-1.3c0.5-0.7,0.7-1.6,0.7-2.6c0-0.9-0.2-1.7-0.6-2.3l0,0c-0.4-0.6-1-1.1-1.8-1.4l-0.8-0.2l0.7-0.4
			c0.5-0.3,0.9-0.6,1.2-0.9c0.5-0.6,0.7-1.3,0.7-2.3c0-0.9-0.2-1.8-0.7-2.4c-0.8-1.1-2.2-1.7-4.2-1.7h-8v16.5H-112.6z M-91.3,41.5
			c-1.7,0-3.2-0.5-4.6-1.6c-1.3-1.1-2-2.8-2-5.2c0-2.2,0.6-4,1.8-5.2c1.2-1.2,2.8-1.8,4.7-1.8c1.1,0,2.1,0.2,3,0.6
			c0.9,0.4,1.7,1.1,2.3,1.9c0.5,0.8,0.9,1.7,1,2.7l0,0c0.1,0.6,0.1,1.4,0.1,2.5v0.3h-8.9c0.1,0.9,0.5,1.6,1.1,1.9
			c0.4,0.3,1,0.4,1.6,0.4c0.7,0,1.2-0.2,1.6-0.5c0.2-0.2,0.4-0.4,0.6-0.7l0.1-0.2h3.9V37c-0.1,0.8-0.5,1.6-1.3,2.4
			C-87.6,40.9-89.2,41.5-91.3,41.5z M-91.4,28.4c-1.7,0-3.1,0.5-4.2,1.6s-1.6,2.6-1.6,4.7c0,2.2,0.6,3.7,1.8,4.7
			c1.2,1,2.6,1.4,4.1,1.4c1.9,0,3.3-0.6,4.4-1.7c0.5-0.6,0.9-1.1,1-1.6h-2.7c-0.2,0.3-0.4,0.6-0.6,0.8c-0.5,0.4-1.2,0.6-2,0.6
			s-1.4-0.2-2-0.5c-0.9-0.6-1.4-1.5-1.5-2.9v-0.4h9c0-0.9,0-1.5-0.1-2c-0.1-0.9-0.5-1.7-0.9-2.4c-0.5-0.8-1.2-1.3-2-1.7
			C-89.5,28.6-90.4,28.4-91.4,28.4z M-105.4,38.6h-4v-5.3h4c0.8,0,1.4,0.1,1.9,0.3c0.8,0.4,1.3,1.1,1.3,2.2c0,1.2-0.4,2-1.3,2.5
			C-103.9,38.5-104.6,38.6-105.4,38.6z M-108.7,37.9h3.3c0.7,0,1.2-0.1,1.6-0.3c0.6-0.3,0.9-0.9,0.9-1.8c0-0.8-0.3-1.3-0.9-1.5
			c-0.3-0.2-0.8-0.2-1.5-0.3h-3.3L-108.7,37.9L-108.7,37.9z M-88.3,33.7h-6.3l0.1-0.4c0.1-0.9,0.4-1.6,1-2.1
			c0.5-0.5,1.3-0.8,2.2-0.8c0.8,0,1.6,0.3,2.1,0.8c0.6,0.5,0.9,1.2,1,2.2L-88.3,33.7z M-93.8,33h4.7c-0.1-0.6-0.3-1-0.7-1.3
			c-0.5-0.4-1-0.6-1.7-0.6s-1.3,0.2-1.7,0.6C-93.4,32-93.7,32.5-93.8,33z M-105.4,31.2h-4v-4.5h3.6c0.9,0,1.6,0.1,2.1,0.3
			c0.5,0.2,1.2,0.7,1.2,1.9c0,0.9-0.3,1.5-0.9,1.8C-103.9,31-104.6,31.2-105.4,31.2z M-108.7,30.5h3.3c0.7,0,1.2-0.1,1.6-0.4
			c0.4-0.2,0.5-0.6,0.5-1.2c0-0.9-0.4-1.1-0.7-1.3c-0.5-0.2-1.1-0.2-1.9-0.2h-2.9L-108.7,30.5L-108.7,30.5z M-87.6,26.9h-7.6v-2.4
			h7.6V26.9z M-94.6,26.2h6.2v-1h-6.2V26.2z"/>
	</g>
</g>
<g>
	<g id="XMLID_16_">
		<path class="st1" d="M-66.5,41.6c-2.2,0-4.4-0.6-6.3-1.7c-0.3-0.2-0.4-0.5-0.3-0.8s0.4-0.5,0.7-0.5h0.5c1.3,0,2.6-0.3,3.7-0.9
			c-1.4-0.5-2.5-1.6-3-3.1c-0.1-0.2,0-0.4,0.1-0.6l0.1-0.1c-1.1-0.9-1.8-2.3-1.8-3.8c0-0.2,0.1-0.4,0.3-0.5c0.1-0.1,0.3-0.1,0.4-0.1
			c-0.4-0.7-0.6-1.5-0.6-2.4c0-0.8,0.2-1.7,0.7-2.4c0.1-0.2,0.3-0.3,0.5-0.3s0.4,0.1,0.5,0.2c1.9,2.3,4.6,3.8,7.6,4.1
			c0-0.5,0-1,0.1-1.5c0.4-1.6,1.6-2.9,3.1-3.4c1.7-0.5,3.4-0.1,4.7,1c0,0,0.1,0.1,0.2,0.1c0.8-0.2,1.5-0.5,2.1-0.9
			c0.2-0.1,0.5-0.1,0.7,0c0.2,0.2,0.3,0.4,0.2,0.6c-0.1,0.4-0.3,0.7-0.5,1.1c0.1,0,0.2-0.1,0.3-0.1l0,0c0.2-0.1,0.5,0,0.7,0.2
			s0.2,0.5,0,0.7c-0.5,0.8-1.1,1.4-1.8,2c-0.1,0.1-0.2,0.2-0.2,0.3c0,1.5-0.3,3.1-0.8,4.5c-0.6,1.5-1.4,2.9-2.4,4
			c-1.1,1.3-2.5,2.3-4,3C-62.7,41.2-64.5,41.6-66.5,41.6z M-72.4,39.3c1.8,1,3.9,1.6,6,1.6c1.8,0,3.6-0.4,5.1-1.1
			c1.4-0.7,2.7-1.6,3.7-2.8c1-1.1,1.8-2.4,2.3-3.8c0.5-1.4,0.8-2.8,0.8-4.2c0-0.4,0.2-0.7,0.4-0.9c0.6-0.4,1-1,1.5-1.5
			c-0.4,0.1-0.7,0.3-1.1,0.3l-1.3,0.3l0.9-0.9c0.4-0.4,0.8-0.9,1-1.4c-0.6,0.3-1.3,0.6-2,0.8c-0.3,0.1-0.6,0-0.8-0.2
			c-1.1-0.9-2.6-1.3-4-0.8c-1.3,0.4-2.4,1.5-2.7,2.9c-0.1,0.5-0.2,1-0.1,1.5c0,0.1,0,0.3-0.1,0.4c-0.1,0.1-0.2,0.2-0.4,0.2
			c-3.2-0.3-6.1-1.8-8.2-4.3c-0.3,0.6-0.5,1.2-0.5,1.9c0,1.1,0.4,2.1,1.2,2.9l0.9,0.9l-1.2-0.3c-0.3-0.1-0.6-0.2-0.9-0.3
			c0.1,1.5,1,2.9,2.4,3.6l1.4,0.6h-1.7c-0.2,0-0.4,0-0.6,0c0.5,1.4,1.7,2.4,3.2,2.6l0.9,0.1l-0.7,0.5c-1.4,1-3.1,1.5-4.8,1.5h-0.6
			V39.3z M-71.6,25.2L-71.6,25.2L-71.6,25.2z"/>
	</g>
</g>
<g>
	<g id="XMLID_13_">
		<path class="st1" d="M-135.2,41.6c-4.9,0-8.9-4-8.9-8.9s4-8.9,8.9-8.9c4.9,0,8.9,4,8.9,8.9C-126.3,37.6-130.3,41.6-135.2,41.6z
			 M-135.2,24.4c-4.5,0-8.2,3.7-8.2,8.2s3.7,8.2,8.2,8.2s8.2-3.7,8.2-8.2S-130.7,24.4-135.2,24.4z"/>
	</g>
	<g id="XMLID_12_">
		<path class="st1" d="M-132.7,41.3l-0.7-0.1c0.9-9.2-6.3-15.5-6.4-15.6l0.5-0.5C-139.3,25.2-131.8,31.7-132.7,41.3z"/>
	</g>
	<g id="XMLID_11_">
		<path class="st1" d="M-140,39.7l-0.6-0.3c0-0.1,3.7-7.7,14-7.1V33C-136.5,32.4-140,39.6-140,39.7z"/>
	</g>
	<g id="XMLID_10_">
		<path class="st1" d="M-142.6,32.5c-0.7,0-1.2,0-1.2,0l0.1-0.7c0.1,0,8.5,0.8,14.3-5.3l0.5,0.5C-133.6,31.9-140,32.5-142.6,32.5z"
			/>
	</g>
</g>
<g>
	<g id="XMLID_4_">
		<path class="st1" d="M-157.8,41.6h-11.6c-1.7,0-3.1-1.4-3.1-3.1V26.8c0-1.7,1.4-3.1,3.1-3.1h11.6c1.7,0,3.1,1.4,3.1,3.1v11.7
			C-154.7,40.2-156.1,41.6-157.8,41.6z M-169.4,24.4c-1.3,0-2.4,1.1-2.4,2.4v11.7c0,1.3,1.1,2.4,2.4,2.4h11.6c1.3,0,2.4-1.1,2.4-2.4
			V26.8c0-1.3-1.1-2.4-2.4-2.4C-157.8,24.4-169.4,24.4-169.4,24.4z"/>
	</g>
	<g id="XMLID_3_">
		<path class="st1" d="M-161.9,36.8h-3.3c-1.3,0-2.4-1.1-2.4-2.4V31c0-1.3,1.1-2.4,2.4-2.4h3.3c1.3,0,2.4,1.1,2.4,2.4v3.4
			C-159.5,35.7-160.6,36.8-161.9,36.8z M-165.2,29.2c-1,0-1.7,0.8-1.7,1.7v3.4c0,1,0.8,1.7,1.7,1.7h3.3c1,0,1.7-0.8,1.7-1.7v-3.4
			c0-1-0.8-1.7-1.7-1.7H-165.2z"/>
	</g>
	<g id="XMLID_2_">
		<path class="st1" d="M-161.9,36.8h-3.3c-1.3,0-2.4-1.1-2.4-2.4V31c0-1.3,1.1-2.4,2.4-2.4h3.3c1.3,0,2.4,1.1,2.4,2.4v3.4
			C-159.5,35.7-160.6,36.8-161.9,36.8z M-165.2,29.2c-1,0-1.7,0.8-1.7,1.7v3.4c0,1,0.8,1.7,1.7,1.7h3.3c1,0,1.7-0.8,1.7-1.7v-3.4
			c0-1-0.8-1.7-1.7-1.7H-165.2z"/>
	</g>
	<g id="XMLID_1_">
		<path class="st1" d="M-158.3,28.6c-0.6,0-1.1-0.5-1.1-1.1c0-0.6,0.5-1.1,1.1-1.1c0.6,0,1.1,0.5,1.1,1.1
			C-157.2,28-157.7,28.6-158.3,28.6z M-158.3,27c-0.2,0-0.4,0.2-0.4,0.4s0.2,0.4,0.4,0.4s0.4-0.2,0.4-0.4S-158.1,27-158.3,27z"/>
	</g>
</g>
<g>
	<path class="st0" d="M-19.9,13.2h-4V5h-1.6V1h1.6v-1.1c0-1.8,1-3.8,3.8-3.8l2.9,0v3.5h-2.2c-0.2,0-0.4,0.1-0.4,0.4V1h2.6l-0.4,4
		h-2.4V13.2z M-23.2,12.4h2.5V4.3h2.5l0.2-2.5h-2.6V0.1c0-0.9,0.6-1.2,1.1-1.2h1.5v-2.1l-2.2,0c-2.8,0-3.1,2.3-3.1,3.1v1.9h-1.6v2.5
		h1.6V12.4z"/>
</g>
<g>
	<path class="st1" d="M-19.9,35.5h-4v-8.2h-1.6v-4h1.6v-1.1c0-1.8,1-3.8,3.8-3.8l2.9,0V22h-2.2c-0.2,0-0.4,0.1-0.4,0.4v0.9h2.6
		l-0.4,4h-2.4V35.5z M-23.2,34.8h2.5v-8.2h2.5l0.2-2.5h-2.6v-1.7c0-0.9,0.6-1.2,1.1-1.2h1.5v-2.1l-2.2,0c-2.8,0-3.1,2.3-3.1,3.1v1.9
		h-1.6v2.5h1.6V34.8z"/>
</g>
<g>
	<path class="st1" d="M7.3,12.2H4.5V6.6H3.4V3.9h1.1V3.1c0-1.3,0.7-2.6,2.6-2.6l2,0v2.4H7.6C7.4,2.9,7.4,3,7.4,3.2v0.6h1.8L8.9,6.6
		H7.3V12.2z M5.1,11.7h1.7V6.1h1.7l0.2-1.7H6.9V3.2c0-0.6,0.4-0.8,0.8-0.8h1V1L7.1,1C5.2,1,5,2.6,5,3.1v1.3H3.9v1.7h1.1V11.7z"/>
</g>
</svg>
