<svg xmlns="http://www.w3.org/2000/svg" viewBox="0 0 30 19"><defs><style>.cls-1{fill:#8f8fd1;}.cls-2{fill:none;}</style></defs><title>Asset 20</title><g id="Layer_2" data-name="Layer 2"><g id="Layer_1-2" data-name="Layer 1"><g id="Behance"><path class="cls-1" d="M9,18.45H.85V.55h8.7c2.2,0,3.8.7,4.7,2a4.47,4.47,0,0,1,.9,2.8,4.28,4.28,0,0,1-.9,2.8,2.7,2.7,0,0,1-.8.7,4,4,0,0,1,1.5,1.4,4.73,4.73,0,0,1,.7,2.7,5.47,5.47,0,0,1-.8,2.9,3.53,3.53,0,0,1-1.3,1.4,5,5,0,0,1-2.1.9A10.07,10.07,0,0,1,9,18.45Zm-7.4-.7H9a19.42,19.42,0,0,0,2.4-.2,3.7,3.7,0,0,0,1.8-.8,4.73,4.73,0,0,0,1.1-1.3,4.41,4.41,0,0,0,.7-2.6,4.14,4.14,0,0,0-.6-2.3h0a3.68,3.68,0,0,0-1.8-1.4l-.8-.2.7-.4a6.23,6.23,0,0,0,1.2-.9,3.33,3.33,0,0,0,.7-2.3,3.79,3.79,0,0,0-.7-2.4c-.8-1.1-2.2-1.7-4.2-1.7h-8v16.5Zm21.3.6a7.16,7.16,0,0,1-4.6-1.6c-1.3-1.1-2-2.8-2-5.2A7.15,7.15,0,0,1,18,6.35a6.41,6.41,0,0,1,4.7-1.8,7.31,7.31,0,0,1,3,.6A6,6,0,0,1,28,7a6.3,6.3,0,0,1,1,2.7h0a17,17,0,0,1,.1,2.5v.3h-8.9a2.31,2.31,0,0,0,1.1,1.9,2.73,2.73,0,0,0,1.6.4,2.54,2.54,0,0,0,1.6-.5,4.35,4.35,0,0,0,.6-.7l.1-.2h3.9v.4a4.12,4.12,0,0,1-1.3,2.4A6.11,6.11,0,0,1,22.85,18.35Zm-.1-13.1a5.65,5.65,0,0,0-4.2,1.6,6.24,6.24,0,0,0-1.6,4.7c0,2.2.6,3.7,1.8,4.7a6.19,6.19,0,0,0,4.1,1.4,5.87,5.87,0,0,0,4.4-1.7,4.14,4.14,0,0,0,1-1.6h-2.7a5.55,5.55,0,0,1-.6.8,3.17,3.17,0,0,1-2,.6,4.23,4.23,0,0,1-2-.5,3.48,3.48,0,0,1-1.5-2.9v-.4h9a10.93,10.93,0,0,0-.1-2,6.3,6.3,0,0,0-.9-2.4,4.7,4.7,0,0,0-2-1.7A6,6,0,0,0,22.75,5.25Zm-14,10.2h-4v-5.3h4a5,5,0,0,1,1.9.3,2.27,2.27,0,0,1,1.3,2.2,2.56,2.56,0,0,1-1.3,2.5A4.7,4.7,0,0,1,8.75,15.45Zm-3.3-.7h3.3a3.51,3.51,0,0,0,1.6-.3,1.81,1.81,0,0,0,.9-1.8,1.39,1.39,0,0,0-.9-1.5,4.31,4.31,0,0,0-1.5-.3H5.55l-.1,3.9Zm20.4-4.2h-6.3l.1-.4a3,3,0,0,1,1-2.1,3.11,3.11,0,0,1,2.2-.8,3.07,3.07,0,0,1,3.1,3Zm-5.5-.7H25a1.86,1.86,0,0,0-.7-1.3,2.52,2.52,0,0,0-1.7-.6,2.35,2.35,0,0,0-1.7.6A3.93,3.93,0,0,0,20.35,9.85ZM8.75,8h-4V3.55h3.6a5.84,5.84,0,0,1,2.1.3,1.89,1.89,0,0,1,1.2,1.9,1.81,1.81,0,0,1-.9,1.8A3.94,3.94,0,0,1,8.75,8Zm-3.3-.7h3.3a2.54,2.54,0,0,0,1.6-.4c.4-.2.5-.6.5-1.2a1.27,1.27,0,0,0-.7-1.3,5.26,5.26,0,0,0-1.9-.2H5.35l.1,3.1Zm21.1-3.6H19V1.25h7.6Zm-7-.7h6.2V1.95h-6.2Z"/></g><rect class="cls-2" width="30" height="19"/></g></g></svg>