<svg xmlns="http://www.w3.org/2000/svg" viewBox="0 0 30 19"><defs><style>.cls-1{fill:none;}.cls-2{fill:#8f8fd1;}</style></defs><title>Asset 19</title><g id="Layer_2" data-name="Layer 2"><g id="Layer_1-2" data-name="Layer 1"><rect class="cls-1" width="30" height="19"/><g id="_Group_" data-name="&lt;Group&gt;"><path class="cls-2" d="M15,18.4a8.9,8.9,0,1,1,8.9-8.9A8.92,8.92,0,0,1,15,18.4ZM15,1.2a8.2,8.2,0,1,0,8.2,8.2A8.24,8.24,0,0,0,15,1.2Z"/></g><g id="_Group_2" data-name="&lt;Group&gt;"><path class="cls-2" d="M17.5,18.1l-.7-.1c.9-9.2-6.3-15.5-6.4-15.6l.5-.5C10.9,2,18.4,8.5,17.5,18.1Z"/></g><g id="_Group_3" data-name="&lt;Group&gt;"><path class="cls-2" d="M10.2,16.5l-.6-.3c0-.1,3.7-7.7,14-7.1v.7C13.7,9.2,10.2,16.4,10.2,16.5Z"/></g><g id="_Group_4" data-name="&lt;Group&gt;"><path class="cls-2" d="M7.6,9.3H6.4l.1-.7c.1,0,8.5.8,14.3-5.3l.5.5C16.6,8.7,10.2,9.3,7.6,9.3Z"/></g></g></g></svg>