<svg xmlns="http://www.w3.org/2000/svg" viewBox="0 0 161.63 61"><defs><style>.cls-1{fill:#8f8fd1;}.cls-2{fill:#f15379;}</style></defs><title>Asset 25</title><g id="Layer_2" data-name="Layer 2"><g id="Layer_1-2" data-name="Layer 1"><g id="_Group_" data-name="&lt;Group&gt;"><path class="cls-1" d="M24.64,30H5.2A5.22,5.22,0,0,1,0,24.8V5.2A5.22,5.22,0,0,1,5.2,0H24.64a5.22,5.22,0,0,1,5.2,5.2V24.8A5.22,5.22,0,0,1,24.64,30ZM5.2,1.17a4.08,4.08,0,0,0-4,4V24.8a4.08,4.08,0,0,0,4,4H24.64a4.08,4.08,0,0,0,4-4V5.2a4.08,4.08,0,0,0-4-4Z"/></g><g id="_Group_2" data-name="&lt;Group&gt;"><path class="cls-1" d="M17.77,22H12.23a4.08,4.08,0,0,1-4-4v-5.7a4.08,4.08,0,0,1,4-4h5.53a4.08,4.08,0,0,1,4,4v5.7A4.08,4.08,0,0,1,17.77,22ZM12.23,9.22a2.82,2.82,0,0,0-2.85,2.85v5.7a2.82,2.82,0,0,0,2.85,2.85h5.53a2.82,2.82,0,0,0,2.85-2.85V12.23a2.82,2.82,0,0,0-2.85-2.85l-5.53-.17Z"/></g><g id="_Group_3" data-name="&lt;Group&gt;"><path class="cls-1" d="M17.77,22H12.23a4.08,4.08,0,0,1-4-4v-5.7a4.08,4.08,0,0,1,4-4h5.53a4.08,4.08,0,0,1,4,4v5.7A4.08,4.08,0,0,1,17.77,22ZM12.23,9.22a2.82,2.82,0,0,0-2.85,2.85v5.7a2.82,2.82,0,0,0,2.85,2.85h5.53a2.82,2.82,0,0,0,2.85-2.85V12.23a2.82,2.82,0,0,0-2.85-2.85l-5.53-.17Z"/></g><g id="_Group_4" data-name="&lt;Group&gt;"><path class="cls-1" d="M23.8,8.21a1.84,1.84,0,1,1,1.84-1.84A1.86,1.86,0,0,1,23.8,8.21Zm0-2.68a.72.72,0,0,0-.67.67.67.67,0,1,0,1.34,0A.72.72,0,0,0,23.8,5.53Z"/></g><g id="Behance"><path class="cls-1" d="M75.41,30H61.83V0H76.42c3.69,0,6.37,1.17,7.88,3.35A7.49,7.49,0,0,1,85.8,8a7.17,7.17,0,0,1-1.51,4.69A4.52,4.52,0,0,1,83,13.91a6.72,6.72,0,0,1,2.51,2.35,7.93,7.93,0,0,1,1.17,4.53,9.16,9.16,0,0,1-1.34,4.86A5.92,5.92,0,0,1,83.12,28,8.33,8.33,0,0,1,79.6,29.5,16.88,16.88,0,0,1,75.41,30ZM63,28.83h12.4a32.55,32.55,0,0,0,4-.34,6.21,6.21,0,0,0,3-1.34A7.94,7.94,0,0,0,84.29,25a7.38,7.38,0,0,0,1.17-4.36,6.94,6.94,0,0,0-1-3.85h0a6.16,6.16,0,0,0-3-2.35l-1.34-.34,1.17-.67a10.45,10.45,0,0,0,2-1.51A5.59,5.59,0,0,0,84.46,8a6.36,6.36,0,0,0-1.17-4c-1.34-1.84-3.69-2.85-7-2.85H62.84V28.83Zm35.7,1A12,12,0,0,1,91,27.15c-2.18-1.84-3.35-4.69-3.35-8.72,0-3.69,1-6.7,3-8.72a10.74,10.74,0,0,1,7.88-3,12.25,12.25,0,0,1,5,1,10.11,10.11,0,0,1,3.85,3.18,10.56,10.56,0,0,1,1.68,4.53h0a28.56,28.56,0,0,1,.17,4.19v.5H94.35a3.88,3.88,0,0,0,1.84,3.18,4.57,4.57,0,0,0,2.68.67,4.26,4.26,0,0,0,2.68-.84,7.29,7.29,0,0,0,1-1.17l.17-.34h6.54v.67a6.9,6.9,0,0,1-2.18,4C104.91,28.83,102.23,29.83,98.71,29.83Zm-.17-22a9.47,9.47,0,0,0-7,2.68c-1.84,1.84-2.68,4.36-2.68,7.88,0,3.69,1,6.2,3,7.88a10.38,10.38,0,0,0,6.87,2.35,9.84,9.84,0,0,0,7.37-2.85,6.94,6.94,0,0,0,1.68-2.68h-4.53a9.3,9.3,0,0,1-1,1.34,5.32,5.32,0,0,1-3.35,1,7.09,7.09,0,0,1-3.35-.84A5.83,5.83,0,0,1,93,19.78v-.67h15.08a18.32,18.32,0,0,0-.17-3.35,10.56,10.56,0,0,0-1.51-4,7.87,7.87,0,0,0-3.35-2.85A10,10,0,0,0,98.54,7.88ZM75.08,25h-6.7V16.09h6.7a8.45,8.45,0,0,1,3.18.5,3.81,3.81,0,0,1,2.18,3.69,4.3,4.3,0,0,1-2.18,4.19A7.88,7.88,0,0,1,75.08,25ZM69.54,23.8h5.53a5.88,5.88,0,0,0,2.68-.5,3,3,0,0,0,1.51-3,2.32,2.32,0,0,0-1.51-2.51,7.22,7.22,0,0,0-2.51-.5H69.71l-.17,6.54Zm34.19-7H93.18l.17-.67A5,5,0,0,1,95,12.57a5.22,5.22,0,0,1,3.69-1.34,5.14,5.14,0,0,1,5.2,5Zm-9.22-1.17h7.88a3.11,3.11,0,0,0-1.17-2.18,4.23,4.23,0,0,0-2.85-1,3.94,3.94,0,0,0-2.85,1A6.58,6.58,0,0,0,94.52,15.59Zm-19.44-3h-6.7V5h6a9.79,9.79,0,0,1,3.52.5,3.16,3.16,0,0,1,2,3.18,3,3,0,0,1-1.51,3A6.6,6.6,0,0,1,75.08,12.57ZM69.54,11.4h5.53a4.25,4.25,0,0,0,2.68-.67c.67-.34.84-1,.84-2a2.13,2.13,0,0,0-1.17-2.18,8.82,8.82,0,0,0-3.18-.34H69.38l.17,5.2Zm35.36-6H92.17V1.17h12.74ZM93.18,4.19h10.39V2.35H93.18Z"/></g><g id="_Group_5" data-name="&lt;Group&gt;"><path class="cls-1" d="M121.22,30a21.09,21.09,0,0,1-10.49-2.83,1.12,1.12,0,0,1-.5-1.33A1.25,1.25,0,0,1,111.4,25h.83a13,13,0,0,0,6.16-1.5,8.11,8.11,0,0,1-5-5.16,1.1,1.1,0,0,1,.17-1l.17-.17a8.24,8.24,0,0,1-3-6.33.92.92,0,0,1,.5-.83,1,1,0,0,1,.67-.17,7.91,7.91,0,0,1-1-4,7,7,0,0,1,1.17-4,.92.92,0,0,1,.83-.5,1.27,1.27,0,0,1,.83.33,18.85,18.85,0,0,0,12.66,6.83,12.61,12.61,0,0,1,.17-2.5A8,8,0,0,1,131.72.35,8.29,8.29,0,0,1,139.54,2a.58.58,0,0,0,.33.17,11.1,11.1,0,0,0,3.5-1.5,1.42,1.42,0,0,1,1.17,0c.33.33.5.67.33,1A8.93,8.93,0,0,1,144,3.52c.17,0,.33-.17.5-.17h0a1.1,1.1,0,0,1,1.17.33.8.8,0,0,1,0,1.17,14.32,14.32,0,0,1-3,3.33c-.17.17-.33.33-.33.5A22.91,22.91,0,0,1,141,16.18a22.17,22.17,0,0,1-4,6.66,19.5,19.5,0,0,1-6.66,5A19.06,19.06,0,0,1,121.22,30Zm-9.83-3.83a20.84,20.84,0,0,0,10,2.66A20.44,20.44,0,0,0,129.88,27,18.87,18.87,0,0,0,136,22.34,19,19,0,0,0,139.88,16a20.81,20.81,0,0,0,1.33-7,2.11,2.11,0,0,1,.67-1.5,17.71,17.71,0,0,0,2.5-2.5,7.51,7.51,0,0,1-1.83.5l-2.17.5,1.5-1.5a7.51,7.51,0,0,0,1.67-2.33,19.85,19.85,0,0,1-3.33,1.33,1.3,1.3,0,0,1-1.33-.33,6.9,6.9,0,0,0-6.66-1.33,6.61,6.61,0,0,0-4.5,4.83,6.35,6.35,0,0,0-.17,2.5,1,1,0,0,1-.17.67.87.87,0,0,1-.67.33A20.12,20.12,0,0,1,113.06,3a6.89,6.89,0,0,0-.83,3.16,6.67,6.67,0,0,0,2,4.83l1.5,1.5-2-.5-1.5-.5a7.29,7.29,0,0,0,4,6l2.33,1h-3.83a6.53,6.53,0,0,0,5.33,4.33l1.5.17-1.17.83a13.77,13.77,0,0,1-8,2.5h-1Zm1.33-23.48Z"/></g><g id="_Group_6" data-name="&lt;Group&gt;"><path class="cls-1" d="M45.92,30a15,15,0,1,1,15-15A15,15,0,0,1,45.92,30Zm0-29A13.82,13.82,0,1,0,59.74,14.83,13.88,13.88,0,0,0,45.92,1Z"/></g><g id="_Group_7" data-name="&lt;Group&gt;"><path class="cls-1" d="M50.13,29.49l-1.18-.17C50.47,13.82,38.33,3.2,38.16,3L39,2.19C39,2.36,51.65,13.31,50.13,29.49Z"/></g><g id="_Group_8" data-name="&lt;Group&gt;"><path class="cls-1" d="M37.83,26.8l-1-.51c0-.17,6.24-13,23.6-12v1.18C43.73,14.49,37.83,26.63,37.83,26.8Z"/></g><g id="_Group_9" data-name="&lt;Group&gt;"><path class="cls-1" d="M33.44,14.66h-2l.17-1.18c.17,0,14.33,1.35,24.1-8.93l.84.84C48.61,13.65,37.83,14.66,33.44,14.66Z"/></g><path class="cls-1" d="M156.89,30h-7V15.61h-2.81v-7h2.81V6.67c0-3.16,1.75-6.67,6.67-6.67h5.09V6.14h-3.86a.64.64,0,0,0-.7.7V8.6h4.56l-.7,7h-4.21V30Zm-5.79-1.4h4.39V14.39h4.39l.35-4.39h-4.56V7a1.88,1.88,0,0,1,1.93-2.11h2.63V1.23h-3.86c-4.91,0-5.44,4-5.44,5.44V10h-2.81v4.39h2.81V28.6Z"/><g id="_Group_10" data-name="&lt;Group&gt;"><path class="cls-2" d="M24.64,61H5.2A5.22,5.22,0,0,1,0,55.8V36.2A5.22,5.22,0,0,1,5.2,31H24.64a5.22,5.22,0,0,1,5.2,5.2V55.8A5.22,5.22,0,0,1,24.64,61ZM5.2,32.17a4.08,4.08,0,0,0-4,4V55.8a4.08,4.08,0,0,0,4,4H24.64a4.08,4.08,0,0,0,4-4V36.2a4.08,4.08,0,0,0-4-4Z"/></g><g id="_Group_11" data-name="&lt;Group&gt;"><path class="cls-2" d="M17.77,53H12.23a4.08,4.08,0,0,1-4-4v-5.7a4.08,4.08,0,0,1,4-4h5.53a4.08,4.08,0,0,1,4,4v5.7A4.08,4.08,0,0,1,17.77,53ZM12.23,40.22a2.82,2.82,0,0,0-2.85,2.85v5.7a2.82,2.82,0,0,0,2.85,2.85h5.53a2.82,2.82,0,0,0,2.85-2.85V43.23a2.82,2.82,0,0,0-2.85-2.85l-5.53-.17Z"/></g><g id="_Group_12" data-name="&lt;Group&gt;"><path class="cls-2" d="M17.77,53H12.23a4.08,4.08,0,0,1-4-4v-5.7a4.08,4.08,0,0,1,4-4h5.53a4.08,4.08,0,0,1,4,4v5.7A4.08,4.08,0,0,1,17.77,53ZM12.23,40.22a2.82,2.82,0,0,0-2.85,2.85v5.7a2.82,2.82,0,0,0,2.85,2.85h5.53a2.82,2.82,0,0,0,2.85-2.85V43.23a2.82,2.82,0,0,0-2.85-2.85l-5.53-.17Z"/></g><g id="_Group_13" data-name="&lt;Group&gt;"><path class="cls-2" d="M23.8,39.21a1.84,1.84,0,1,1,1.84-1.84A1.86,1.86,0,0,1,23.8,39.21Zm0-2.68a.67.67,0,1,0,.67.67A.72.72,0,0,0,23.8,36.53Z"/></g><g id="Behance-2" data-name="Behance"><path class="cls-2" d="M75.41,61H61.83V31H76.42c3.69,0,6.37,1.17,7.88,3.35A7.49,7.49,0,0,1,85.8,39a7.17,7.17,0,0,1-1.51,4.69A4.52,4.52,0,0,1,83,44.91a6.72,6.72,0,0,1,2.51,2.35,7.93,7.93,0,0,1,1.17,4.53,9.16,9.16,0,0,1-1.34,4.86A5.92,5.92,0,0,1,83.12,59,8.33,8.33,0,0,1,79.6,60.5,16.88,16.88,0,0,1,75.41,61ZM63,59.83h12.4a32.55,32.55,0,0,0,4-.34,6.21,6.21,0,0,0,3-1.34A7.94,7.94,0,0,0,84.29,56a7.38,7.38,0,0,0,1.17-4.36,6.94,6.94,0,0,0-1-3.85h0a6.16,6.16,0,0,0-3-2.35l-1.34-.34,1.17-.67a10.45,10.45,0,0,0,2-1.51A5.59,5.59,0,0,0,84.46,39a6.36,6.36,0,0,0-1.17-4c-1.34-1.84-3.69-2.85-7-2.85H62.84V59.83Zm35.7,1A12,12,0,0,1,91,58.15c-2.18-1.84-3.35-4.69-3.35-8.72,0-3.69,1-6.7,3-8.72a10.74,10.74,0,0,1,7.88-3,12.25,12.25,0,0,1,5,1,10.11,10.11,0,0,1,3.85,3.18,10.56,10.56,0,0,1,1.68,4.53h0a28.56,28.56,0,0,1,.17,4.19v.5H94.35a3.88,3.88,0,0,0,1.84,3.18,4.57,4.57,0,0,0,2.68.67,4.26,4.26,0,0,0,2.68-.84,7.29,7.29,0,0,0,1-1.17l.17-.34h6.54v.67a6.9,6.9,0,0,1-2.18,4C104.91,59.83,102.23,60.83,98.71,60.83Zm-.17-22a9.47,9.47,0,0,0-7,2.68c-1.84,1.84-2.68,4.36-2.68,7.88,0,3.69,1,6.2,3,7.88a10.38,10.38,0,0,0,6.87,2.35,9.84,9.84,0,0,0,7.37-2.85,6.94,6.94,0,0,0,1.68-2.68h-4.53a9.3,9.3,0,0,1-1,1.34,5.32,5.32,0,0,1-3.35,1,7.09,7.09,0,0,1-3.35-.84A5.83,5.83,0,0,1,93,50.78v-.67h15.08a18.32,18.32,0,0,0-.17-3.35,10.56,10.56,0,0,0-1.51-4,7.87,7.87,0,0,0-3.35-2.85A10,10,0,0,0,98.54,38.88ZM75.08,56h-6.7V47.09h6.7a8.45,8.45,0,0,1,3.18.5,3.81,3.81,0,0,1,2.18,3.69,4.3,4.3,0,0,1-2.18,4.19A7.88,7.88,0,0,1,75.08,56ZM69.54,54.8h5.53a5.88,5.88,0,0,0,2.68-.5,3,3,0,0,0,1.51-3,2.32,2.32,0,0,0-1.51-2.51,7.22,7.22,0,0,0-2.51-.5H69.71l-.17,6.54Zm34.19-7H93.18l.17-.67A5,5,0,0,1,95,43.57a5.22,5.22,0,0,1,3.69-1.34,5.14,5.14,0,0,1,5.2,5Zm-9.22-1.17h7.88a3.11,3.11,0,0,0-1.17-2.18,4.23,4.23,0,0,0-2.85-1,3.94,3.94,0,0,0-2.85,1A6.58,6.58,0,0,0,94.52,46.59Zm-19.44-3h-6.7V36h6a9.79,9.79,0,0,1,3.52.5,3.16,3.16,0,0,1,2,3.18,3,3,0,0,1-1.51,3A6.6,6.6,0,0,1,75.08,43.57ZM69.54,42.4h5.53a4.25,4.25,0,0,0,2.68-.67c.67-.34.84-1,.84-2a2.13,2.13,0,0,0-1.17-2.18,8.82,8.82,0,0,0-3.18-.34H69.38l.17,5.2Zm35.36-6H92.17V32.17h12.74ZM93.18,35.19h10.39V33.35H93.18Z"/></g><g id="_Group_14" data-name="&lt;Group&gt;"><path class="cls-2" d="M121.22,61a21.09,21.09,0,0,1-10.49-2.83,1.12,1.12,0,0,1-.5-1.33A1.25,1.25,0,0,1,111.4,56h.83a13,13,0,0,0,6.16-1.5,8.11,8.11,0,0,1-5-5.16,1.1,1.1,0,0,1,.17-1l.17-.17a8.24,8.24,0,0,1-3-6.33.92.92,0,0,1,.5-.83,1,1,0,0,1,.67-.17,7.91,7.91,0,0,1-1-4,7,7,0,0,1,1.17-4,.92.92,0,0,1,.83-.5,1.27,1.27,0,0,1,.83.33,18.85,18.85,0,0,0,12.66,6.83,12.61,12.61,0,0,1,.17-2.5,8,8,0,0,1,5.16-5.66A8.29,8.29,0,0,1,139.54,33a.58.58,0,0,0,.33.17,11.1,11.1,0,0,0,3.5-1.5,1.42,1.42,0,0,1,1.17,0c.33.33.5.67.33,1a8.93,8.93,0,0,1-.83,1.83c.17,0,.33-.17.5-.17h0a1.1,1.1,0,0,1,1.17.33.8.8,0,0,1,0,1.17,14.32,14.32,0,0,1-3,3.33c-.17.17-.33.33-.33.5A22.91,22.91,0,0,1,141,47.18a22.17,22.17,0,0,1-4,6.66,19.5,19.5,0,0,1-6.66,5A19.06,19.06,0,0,1,121.22,61Zm-9.83-3.83a20.84,20.84,0,0,0,10,2.66A20.44,20.44,0,0,0,129.88,58a20.09,20.09,0,0,0,10-11,20.81,20.81,0,0,0,1.33-7,2.11,2.11,0,0,1,.67-1.5,17.71,17.71,0,0,0,2.5-2.5,7.51,7.51,0,0,1-1.83.5l-2.17.5,1.5-1.5a7.51,7.51,0,0,0,1.67-2.33,19.85,19.85,0,0,1-3.33,1.33,1.3,1.3,0,0,1-1.33-.33,6.9,6.9,0,0,0-6.66-1.33,6.61,6.61,0,0,0-4.5,4.83,6.35,6.35,0,0,0-.17,2.5,1,1,0,0,1-.17.67.87.87,0,0,1-.67.33A20.12,20.12,0,0,1,113.06,34a6.89,6.89,0,0,0-.83,3.16,6.67,6.67,0,0,0,2,4.83l1.5,1.5-2-.5-1.5-.5a7.29,7.29,0,0,0,4,6l2.33,1h-3.83a6.53,6.53,0,0,0,5.33,4.33l1.5.17-1.17.83a13.77,13.77,0,0,1-8,2.5h-1Zm1.33-23.48Z"/></g><g id="_Group_15" data-name="&lt;Group&gt;"><path class="cls-2" d="M45.92,61a15,15,0,1,1,15-15A15,15,0,0,1,45.92,61Zm0-29A13.82,13.82,0,1,0,59.74,45.83,13.88,13.88,0,0,0,45.92,32Z"/></g><g id="_Group_16" data-name="&lt;Group&gt;"><path class="cls-2" d="M50.13,60.49l-1.18-.17C50.47,44.82,38.33,34.2,38.16,34l.84-.84C39,33.36,51.65,44.31,50.13,60.49Z"/></g><g id="_Group_17" data-name="&lt;Group&gt;"><path class="cls-2" d="M37.83,57.8l-1-.51c0-.17,6.24-13,23.6-12v1.18C43.73,45.49,37.83,57.63,37.83,57.8Z"/></g><g id="_Group_18" data-name="&lt;Group&gt;"><path class="cls-2" d="M33.44,45.66h-2l.17-1.18c.17,0,14.33,1.35,24.1-8.93l.84.84C48.61,44.65,37.83,45.66,33.44,45.66Z"/></g><path class="cls-2" d="M156.89,61h-7V46.61h-2.81v-7h2.81V37.67c0-3.16,1.75-6.67,6.67-6.67h5.09v6.14h-3.86a.64.64,0,0,0-.7.7V39.6h4.56l-.7,7h-4.21V61Zm-5.79-1.4h4.39V45.39h4.39l.35-4.39h-4.56V38a1.88,1.88,0,0,1,1.93-2.11h2.63V32.23h-3.86c-4.91,0-5.44,4-5.44,5.44V41h-2.81v4.39h2.81V59.6Z"/></g></g></svg>