<?xml version="1.0" encoding="utf-8"?>
<!-- Generator: Adobe Illustrator 21.1.0, SVG Export Plug-In . SVG Version: 6.00 Build 0)  -->
<svg version="1.1" id="Layer_1" xmlns="http://www.w3.org/2000/svg" xmlns:xlink="http://www.w3.org/1999/xlink" x="0px" y="0px"
	 viewBox="0 0 169 66" style="enable-background:new 0 0 169 66;" xml:space="preserve">
<style type="text/css">
	.st0{fill:#8F8FD1;}
	.st1{fill:#F15379;}
</style>
<g>
	<g>
		<g>
			<g id="XMLID_64_">
				<path class="st0" d="M26.3,32H6.9c-2.8,0-5.2-2.3-5.2-5.2V7.2C1.7,4.3,4,2,6.9,2h19.4c2.8,0,5.2,2.3,5.2,5.2v19.6
					C31.5,29.7,29.2,32,26.3,32z M6.9,3.2c-2.2,0-4,1.8-4,4v19.6c0,2.2,1.8,4,4,4h19.4c2.2,0,4-1.8,4-4V7.2c0-2.2-1.8-4-4-4L6.9,3.2
					z"/>
			</g>
			<g id="XMLID_63_">
				<path class="st0" d="M19.5,24h-5.5c-2.2,0-4-1.8-4-4v-5.7c0-2.2,1.8-4,4-4h5.5c2.2,0,4,1.8,4,4v5.7C23.5,22.1,21.6,24,19.5,24z
					 M13.9,11.2c-1.7,0-2.8,1.3-2.8,2.8v5.7c0,1.7,1.3,2.8,2.8,2.8h5.5c1.7,0,2.8-1.3,2.8-2.8v-5.5c0-1.7-1.3-2.8-2.8-2.8L13.9,11.2
					L13.9,11.2z"/>
			</g>
			<g id="XMLID_62_">
				<path class="st0" d="M19.5,24h-5.5c-2.2,0-4-1.8-4-4v-5.7c0-2.2,1.8-4,4-4h5.5c2.2,0,4,1.8,4,4v5.7C23.5,22.1,21.6,24,19.5,24z
					 M13.9,11.2c-1.7,0-2.8,1.3-2.8,2.8v5.7c0,1.7,1.3,2.8,2.8,2.8h5.5c1.7,0,2.8-1.3,2.8-2.8v-5.5c0-1.7-1.3-2.8-2.8-2.8L13.9,11.2
					L13.9,11.2z"/>
			</g>
			<g id="XMLID_61_">
				<path class="st0" d="M25.5,10.2c-1,0-1.8-0.8-1.8-1.8s0.8-1.8,1.8-1.8s1.8,0.8,1.8,1.8S26.5,10.2,25.5,10.2z M25.5,7.5
					c-0.3,0-0.7,0.3-0.7,0.7s0.3,0.7,0.7,0.7s0.7-0.3,0.7-0.7S25.8,7.5,25.5,7.5z"/>
			</g>
		</g>
	</g>
	<g id="Behance_7_">
		<path class="st0" d="M79.1,32H65.5V2h14.6c3.7,0,6.4,1.2,7.9,3.4c1,1.3,1.5,2.8,1.5,4.7S89,13.6,88,14.7c-0.3,0.5-0.8,0.8-1.3,1.2
			c1,0.5,1.8,1.3,2.5,2.3c0.8,1.2,1.2,2.8,1.2,4.5c0,1.8-0.5,3.5-1.3,4.9c-0.5,1-1.3,1.8-2.2,2.3c-1,0.7-2.2,1.3-3.5,1.5
			C81.9,31.8,80.6,32,79.1,32z M66.7,30.8h12.4c1.3,0,2.7-0.2,4-0.3c1.2-0.2,2.2-0.7,3-1.3c0.7-0.5,1.3-1.3,1.8-2.2
			c0.8-1.2,1.2-2.7,1.2-4.4c0-1.5-0.3-2.8-1-3.9l0,0c-0.7-1-1.7-1.8-3-2.3l-1.3-0.3l1.2-0.7c0.8-0.5,1.5-1,2-1.5
			c0.8-1,1.2-2.2,1.2-3.9c0-1.5-0.3-3-1.2-4c-1.3-1.8-3.7-2.8-7-2.8H66.5v27.7H66.7z M102.4,31.8c-2.8,0-5.4-0.8-7.7-2.7
			c-2.2-1.8-3.4-4.7-3.4-8.7c0-3.7,1-6.7,3-8.7c2-2,4.7-3,7.9-3c1.8,0,3.5,0.3,5,1c1.5,0.7,2.8,1.8,3.9,3.2c0.8,1.3,1.5,2.8,1.7,4.5
			l0,0c0.2,1,0.2,2.3,0.2,4.2v0.5H98c0.2,1.5,0.8,2.7,1.8,3.2c0.7,0.5,1.7,0.7,2.7,0.7c1.2,0,2-0.3,2.7-0.8c0.3-0.3,0.7-0.7,1-1.2
			l0.2-0.3h6.5v0.7c-0.2,1.3-0.8,2.7-2.2,4C108.6,30.8,105.9,31.8,102.4,31.8z M102.2,9.9c-2.8,0-5.2,0.8-7,2.7s-2.7,4.4-2.7,7.9
			c0,3.7,1,6.2,3,7.9c2,1.7,4.4,2.3,6.9,2.3c3.2,0,5.5-1,7.4-2.8c0.8-1,1.5-1.8,1.7-2.7h-4.5c-0.3,0.5-0.7,1-1,1.3
			c-0.8,0.7-2,1-3.4,1c-1.3,0-2.3-0.3-3.4-0.8c-1.5-1-2.3-2.5-2.5-4.9v-0.7h15.1c0-1.5,0-2.5-0.2-3.4c-0.2-1.5-0.8-2.8-1.5-4
			c-0.8-1.3-2-2.2-3.4-2.8C105.4,10.2,103.9,9.9,102.2,9.9z M78.8,27h-6.7v-8.9h6.7c1.3,0,2.3,0.2,3.2,0.5c1.3,0.7,2.2,1.8,2.2,3.7
			c0,2-0.7,3.4-2.2,4.2C81.3,26.8,80.1,27,78.8,27z M73.2,25.8h5.5c1.2,0,2-0.2,2.7-0.5c1-0.5,1.5-1.5,1.5-3c0-1.3-0.5-2.2-1.5-2.5
			c-0.5-0.3-1.3-0.3-2.5-0.5h-5.5L73.2,25.8L73.2,25.8z M107.4,18.8H96.9l0.2-0.7c0.2-1.5,0.7-2.7,1.7-3.5c0.8-0.8,2.2-1.3,3.7-1.3
			c1.3,0,2.7,0.5,3.5,1.3c1,0.8,1.5,2,1.7,3.7L107.4,18.8z M98.2,17.6h7.9c-0.2-1-0.5-1.7-1.2-2.2c-0.8-0.7-1.7-1-2.8-1
			s-2.2,0.3-2.8,1C98.9,15.9,98.4,16.7,98.2,17.6z M78.8,14.6h-6.7V7h6c1.5,0,2.7,0.2,3.5,0.5c0.8,0.3,2,1.2,2,3.2
			c0,1.5-0.5,2.5-1.5,3C81.3,14.2,80.1,14.6,78.8,14.6z M73.2,13.4h5.5c1.2,0,2-0.2,2.7-0.7c0.7-0.3,0.8-1,0.8-2
			c0-1.5-0.7-1.8-1.2-2.2c-0.8-0.3-1.8-0.3-3.2-0.3h-4.9L73.2,13.4L73.2,13.4z M108.6,7.4H95.9V3.2h12.7V7.4z M96.9,6.2h10.4V4.3
			H96.9V6.2z"/>
	</g>
	<g id="XMLID_56_">
		<path class="st0" d="M125.9,32c-3.7,0-7.3-1-10.5-2.8c-0.5-0.3-0.7-0.8-0.5-1.3c0.2-0.5,0.7-0.8,1.2-0.8h0.8
			c2.2,0,4.3-0.5,6.2-1.5c-2.3-0.8-4.2-2.7-5-5.2c-0.2-0.3,0-0.7,0.2-1l0.2-0.2c-1.8-1.5-3-3.8-3-6.3c0-0.3,0.2-0.7,0.5-0.8
			c0.2-0.2,0.5-0.2,0.7-0.2c-0.7-1.2-1-2.5-1-4c0-1.3,0.3-2.8,1.2-4c0.2-0.3,0.5-0.5,0.8-0.5c0.3,0,0.7,0.2,0.8,0.3
			c3.2,3.8,7.7,6.3,12.7,6.8c0-0.8,0-1.7,0.2-2.5c0.7-2.7,2.7-4.8,5.2-5.7c2.8-0.8,5.7-0.2,7.8,1.7c0,0,0.2,0.2,0.3,0.2
			c1.3-0.3,2.5-0.8,3.5-1.5c0.3-0.2,0.8-0.2,1.2,0c0.3,0.3,0.5,0.7,0.3,1c-0.2,0.7-0.5,1.2-0.8,1.8c0.2,0,0.3-0.2,0.5-0.2l0,0
			c0.3-0.2,0.8,0,1.2,0.3c0.3,0.3,0.3,0.8,0,1.2c-0.8,1.3-1.8,2.3-3,3.3c-0.2,0.2-0.3,0.3-0.3,0.5c0,2.5-0.5,5.2-1.3,7.5
			c-1,2.5-2.3,4.8-4,6.7c-1.8,2.2-4.2,3.8-6.7,5C132.2,31.3,129.2,32,125.9,32z M116.1,28.2c3,1.7,6.5,2.7,10,2.7c3,0,6-0.7,8.5-1.8
			c2.3-1.2,4.5-2.7,6.2-4.7c1.7-1.8,3-4,3.8-6.3s1.3-4.7,1.3-7c0-0.7,0.3-1.2,0.7-1.5c1-0.7,1.7-1.7,2.5-2.5
			c-0.7,0.2-1.2,0.5-1.8,0.5L145.1,8l1.5-1.5c0.7-0.7,1.3-1.5,1.7-2.3c-1,0.5-2.2,1-3.3,1.3c-0.5,0.2-1,0-1.3-0.3
			c-1.8-1.5-4.3-2.2-6.7-1.3c-2.2,0.7-4,2.5-4.5,4.8c-0.2,0.8-0.3,1.7-0.2,2.5c0,0.2,0,0.5-0.2,0.7c-0.2,0.2-0.3,0.3-0.7,0.3
			c-5.3-0.5-10.2-3-13.7-7.2c-0.5,1-0.8,2-0.8,3.2c0,1.8,0.7,3.5,2,4.8l1.5,1.5l-2-0.5c-0.5-0.2-1-0.3-1.5-0.5c0.2,2.5,1.7,4.8,4,6
			l2.3,1h-2.8c-0.3,0-0.7,0-1,0c0.8,2.3,2.8,4,5.3,4.3l1.5,0.2l-1.2,0.8c-2.3,1.7-5.2,2.5-8,2.5h-1V28.2z M117.4,4.7L117.4,4.7
			L117.4,4.7z"/>
	</g>
	<g>
		<g id="XMLID_55_">
			<path class="st0" d="M48.6,32c-8.3,0-15-6.7-15-15s6.7-15,15-15s15,6.7,15,15C63.6,25.3,56.9,32,48.6,32z M48.6,3
				C41,3,34.8,9.2,34.8,16.8S41,30.7,48.6,30.7s13.8-6.2,13.8-13.8S56.2,3,48.6,3z"/>
		</g>
		<g id="XMLID_54_">
			<path class="st0" d="M52.8,31.5l-1.2-0.2C53.2,15.8,41,5.2,40.8,5l0.8-0.8C41.7,4.4,54.3,15.3,52.8,31.5z"/>
		</g>
		<g id="XMLID_53_">
			<path class="st0" d="M40.5,28.8l-1-0.5c0-0.2,6.2-13,23.6-12v1.2C46.4,16.5,40.5,28.6,40.5,28.8z"/>
		</g>
		<g id="XMLID_52_">
			<path class="st0" d="M36.1,16.7c-1.2,0-2,0-2,0l0.2-1.2c0.2,0,14.3,1.3,24.1-8.9l0.8,0.8C51.3,15.7,40.5,16.7,36.1,16.7z"/>
		</g>
	</g>
	<path class="st0" d="M162.6,32h-7V17.6h-2.8v-7h2.8V8.7c0-3.2,1.8-6.7,6.7-6.7h5.1v6.1h-3.9c-0.4,0-0.7,0.2-0.7,0.7v1.8h4.6l-0.7,7
		h-4.2V32H162.6z M156.8,30.6h4.4V16.4h4.4l0.4-4.4h-4.6V9c0-1.6,1.1-2.1,1.9-2.1h2.6V3.2h-3.9c-4.9,0-5.4,4-5.4,5.4V12h-2.8v4.4
		h2.8v14.2H156.8z"/>
	<g>
		<g>
			<g id="XMLID_69_">
				<path class="st1" d="M26.3,64H6.9c-2.8,0-5.2-2.3-5.2-5.2V39.2C1.7,36.3,4,34,6.9,34h19.4c2.8,0,5.2,2.3,5.2,5.2v19.6
					C31.5,61.7,29.2,64,26.3,64z M6.9,35.2c-2.2,0-4,1.8-4,4v19.6c0,2.2,1.8,4,4,4h19.4c2.2,0,4-1.8,4-4V39.2c0-2.2-1.8-4-4-4H6.9z"
					/>
			</g>
			<g id="XMLID_68_">
				<path class="st1" d="M19.5,56h-5.5c-2.2,0-4-1.8-4-4v-5.7c0-2.2,1.8-4,4-4h5.5c2.2,0,4,1.8,4,4v5.7C23.5,54.1,21.6,56,19.5,56z
					 M13.9,43.2c-1.7,0-2.8,1.3-2.8,2.8v5.7c0,1.7,1.3,2.8,2.8,2.8h5.5c1.7,0,2.8-1.3,2.8-2.8v-5.5c0-1.7-1.3-2.8-2.8-2.8L13.9,43.2
					L13.9,43.2z"/>
			</g>
			<g id="XMLID_67_">
				<path class="st1" d="M19.5,56h-5.5c-2.2,0-4-1.8-4-4v-5.7c0-2.2,1.8-4,4-4h5.5c2.2,0,4,1.8,4,4v5.7C23.5,54.1,21.6,56,19.5,56z
					 M13.9,43.2c-1.7,0-2.8,1.3-2.8,2.8v5.7c0,1.7,1.3,2.8,2.8,2.8h5.5c1.7,0,2.8-1.3,2.8-2.8v-5.5c0-1.7-1.3-2.8-2.8-2.8L13.9,43.2
					L13.9,43.2z"/>
			</g>
			<g id="XMLID_66_">
				<path class="st1" d="M25.5,42.2c-1,0-1.8-0.8-1.8-1.8c0-1,0.8-1.8,1.8-1.8s1.8,0.8,1.8,1.8C27.3,41.4,26.5,42.2,25.5,42.2z
					 M25.5,39.5c-0.3,0-0.7,0.3-0.7,0.7c0,0.3,0.3,0.7,0.7,0.7s0.7-0.3,0.7-0.7C26.2,39.9,25.8,39.5,25.5,39.5z"/>
			</g>
		</g>
	</g>
	<g id="Behance_8_">
		<path class="st1" d="M79.1,64H65.5V34h14.6c3.7,0,6.4,1.2,7.9,3.4c1,1.3,1.5,2.8,1.5,4.7S89,45.6,88,46.7
			c-0.3,0.5-0.8,0.8-1.3,1.2c1,0.5,1.8,1.3,2.5,2.3c0.8,1.2,1.2,2.8,1.2,4.5c0,1.8-0.5,3.5-1.3,4.9c-0.5,1-1.3,1.8-2.2,2.3
			c-1,0.7-2.2,1.3-3.5,1.5C81.9,63.8,80.6,64,79.1,64z M66.7,62.8h12.4c1.3,0,2.7-0.2,4-0.3c1.2-0.2,2.2-0.7,3-1.3
			c0.7-0.5,1.3-1.3,1.8-2.2c0.8-1.2,1.2-2.7,1.2-4.4c0-1.5-0.3-2.8-1-3.9l0,0c-0.7-1-1.7-1.8-3-2.3l-1.3-0.3l1.2-0.7
			c0.8-0.5,1.5-1,2-1.5c0.8-1,1.2-2.2,1.2-3.9c0-1.5-0.3-3-1.2-4c-1.3-1.8-3.7-2.8-7-2.8H66.5v27.7H66.7z M102.4,63.8
			c-2.8,0-5.4-0.8-7.7-2.7c-2.2-1.8-3.4-4.7-3.4-8.7c0-3.7,1-6.7,3-8.7c2-2,4.7-3,7.9-3c1.8,0,3.5,0.3,5,1c1.5,0.7,2.8,1.8,3.9,3.2
			c0.8,1.3,1.5,2.8,1.7,4.5l0,0c0.2,1,0.2,2.3,0.2,4.2v0.5H98c0.2,1.5,0.8,2.7,1.8,3.2c0.7,0.5,1.7,0.7,2.7,0.7c1.2,0,2-0.3,2.7-0.8
			c0.3-0.3,0.7-0.7,1-1.2l0.2-0.3h6.5v0.7c-0.2,1.3-0.8,2.7-2.2,4C108.6,62.8,105.9,63.8,102.4,63.8z M102.2,41.9
			c-2.8,0-5.2,0.8-7,2.7s-2.7,4.4-2.7,7.9c0,3.7,1,6.2,3,7.9c2,1.7,4.4,2.3,6.9,2.3c3.2,0,5.5-1,7.4-2.8c0.8-1,1.5-1.8,1.7-2.7h-4.5
			c-0.3,0.5-0.7,1-1,1.3c-0.8,0.7-2,1-3.4,1c-1.3,0-2.3-0.3-3.4-0.8c-1.5-1-2.3-2.5-2.5-4.9v-0.7h15.1c0-1.5,0-2.5-0.2-3.4
			c-0.2-1.5-0.8-2.8-1.5-4c-0.8-1.3-2-2.2-3.4-2.8C105.4,42.2,103.9,41.9,102.2,41.9z M78.8,59h-6.7v-8.9h6.7c1.3,0,2.3,0.2,3.2,0.5
			c1.3,0.7,2.2,1.8,2.2,3.7c0,2-0.7,3.4-2.2,4.2C81.3,58.8,80.1,59,78.8,59z M73.2,57.8h5.5c1.2,0,2-0.2,2.7-0.5
			c1-0.5,1.5-1.5,1.5-3c0-1.3-0.5-2.2-1.5-2.5c-0.5-0.3-1.3-0.3-2.5-0.5h-5.5L73.2,57.8L73.2,57.8z M107.4,50.8H96.9l0.2-0.7
			c0.2-1.5,0.7-2.7,1.7-3.5c0.8-0.8,2.2-1.3,3.7-1.3c1.3,0,2.7,0.5,3.5,1.3c1,0.8,1.5,2,1.7,3.7L107.4,50.8z M98.2,49.6h7.9
			c-0.2-1-0.5-1.7-1.2-2.2c-0.8-0.7-1.7-1-2.8-1s-2.2,0.3-2.8,1C98.9,47.9,98.4,48.7,98.2,49.6z M78.8,46.6h-6.7V39h6
			c1.5,0,2.7,0.2,3.5,0.5c0.8,0.3,2,1.2,2,3.2c0,1.5-0.5,2.5-1.5,3C81.3,46.2,80.1,46.6,78.8,46.6z M73.2,45.4h5.5
			c1.2,0,2-0.2,2.7-0.7c0.7-0.3,0.8-1,0.8-2c0-1.5-0.7-1.8-1.2-2.2c-0.8-0.3-1.8-0.3-3.2-0.3h-4.9L73.2,45.4L73.2,45.4z M108.6,39.4
			H95.9v-4.2h12.7V39.4z M96.9,38.2h10.4v-1.8H96.9V38.2z"/>
	</g>
	<g id="XMLID_65_">
		<path class="st1" d="M125.9,64c-3.7,0-7.3-1-10.5-2.8c-0.5-0.3-0.7-0.8-0.5-1.3c0.2-0.5,0.7-0.8,1.2-0.8h0.8
			c2.2,0,4.3-0.5,6.2-1.5c-2.3-0.8-4.2-2.7-5-5.2c-0.2-0.3,0-0.7,0.2-1l0.2-0.2c-1.8-1.5-3-3.8-3-6.3c0-0.3,0.2-0.7,0.5-0.8
			c0.2-0.2,0.5-0.2,0.7-0.2c-0.7-1.2-1-2.5-1-4c0-1.3,0.3-2.8,1.2-4c0.2-0.3,0.5-0.5,0.8-0.5c0.3,0,0.7,0.2,0.8,0.3
			c3.2,3.8,7.7,6.3,12.7,6.8c0-0.8,0-1.7,0.2-2.5c0.7-2.7,2.7-4.8,5.2-5.7c2.8-0.8,5.7-0.2,7.8,1.7c0,0,0.2,0.2,0.3,0.2
			c1.3-0.3,2.5-0.8,3.5-1.5c0.3-0.2,0.8-0.2,1.2,0c0.3,0.3,0.5,0.7,0.3,1c-0.2,0.7-0.5,1.2-0.8,1.8c0.2,0,0.3-0.2,0.5-0.2l0,0
			c0.3-0.2,0.8,0,1.2,0.3c0.3,0.3,0.3,0.8,0,1.2c-0.8,1.3-1.8,2.3-3,3.3c-0.2,0.2-0.3,0.3-0.3,0.5c0,2.5-0.5,5.2-1.3,7.5
			c-1,2.5-2.3,4.8-4,6.7c-1.8,2.2-4.2,3.8-6.7,5C132.2,63.3,129.2,64,125.9,64z M116.1,60.2c3,1.7,6.5,2.7,10,2.7c3,0,6-0.7,8.5-1.8
			c2.3-1.2,4.5-2.7,6.2-4.7c1.7-1.8,3-4,3.8-6.3s1.3-4.7,1.3-7c0-0.7,0.3-1.2,0.7-1.5c1-0.7,1.7-1.7,2.5-2.5
			c-0.7,0.2-1.2,0.5-1.8,0.5l-2.2,0.5l1.5-1.5c0.7-0.7,1.3-1.5,1.7-2.3c-1,0.5-2.2,1-3.3,1.3c-0.5,0.2-1,0-1.3-0.3
			c-1.8-1.5-4.3-2.2-6.7-1.3c-2.2,0.7-4,2.5-4.5,4.8c-0.2,0.8-0.3,1.7-0.2,2.5c0,0.2,0,0.5-0.2,0.7c-0.2,0.2-0.3,0.3-0.7,0.3
			c-5.3-0.5-10.2-3-13.7-7.2c-0.5,1-0.8,2-0.8,3.2c0,1.8,0.7,3.5,2,4.8l1.5,1.5l-2-0.5c-0.5-0.2-1-0.3-1.5-0.5c0.2,2.5,1.7,4.8,4,6
			l2.3,1h-2.8c-0.3,0-0.7,0-1,0c0.8,2.3,2.8,4,5.3,4.3l1.5,0.2l-1.2,0.8c-2.3,1.7-5.2,2.5-8,2.5h-1V60.2z M117.4,36.7L117.4,36.7
			L117.4,36.7z"/>
	</g>
	<g>
		<g id="XMLID_60_">
			<path class="st1" d="M48.6,64c-8.3,0-15-6.7-15-15s6.7-15,15-15s15,6.7,15,15C63.6,57.3,56.9,64,48.6,64z M48.6,35
				c-7.6,0-13.8,6.2-13.8,13.8S41,62.7,48.6,62.7s13.8-6.2,13.8-13.8S56.2,35,48.6,35z"/>
		</g>
		<g id="XMLID_59_">
			<path class="st1" d="M52.8,63.5l-1.2-0.2C53.2,47.8,41,37.2,40.8,37l0.8-0.8C41.7,36.4,54.3,47.3,52.8,63.5z"/>
		</g>
		<g id="XMLID_58_">
			<path class="st1" d="M40.5,60.8l-1-0.5c0-0.2,6.2-13,23.6-12v1.2C46.4,48.5,40.5,60.6,40.5,60.8z"/>
		</g>
		<g id="XMLID_57_">
			<path class="st1" d="M36.1,48.7c-1.2,0-2,0-2,0l0.2-1.2c0.2,0,14.3,1.3,24.1-8.9l0.8,0.8C51.3,47.7,40.5,48.7,36.1,48.7z"/>
		</g>
	</g>
	<path class="st1" d="M162.6,64h-7V49.6h-2.8v-7h2.8v-1.9c0-3.2,1.8-6.7,6.7-6.7h5.1v6.1h-3.9c-0.4,0-0.7,0.2-0.7,0.7v1.8h4.6
		l-0.7,7h-4.2V64H162.6z M156.8,62.6h4.4V48.4h4.4l0.4-4.4h-4.6v-3c0-1.6,1.1-2.1,1.9-2.1h2.6v-3.7h-3.9c-4.9,0-5.4,4-5.4,5.4V44
		h-2.8v4.4h2.8v14.2H156.8z"/>
</g>
</svg>
