<svg xmlns="http://www.w3.org/2000/svg" viewBox="0 0 88.09 33.22"><defs><style>.cls-1{fill:#8f8fd1;}.cls-2{fill:#f15379;}</style></defs><title>Asset 23</title><g id="Layer_2" data-name="Layer 2"><g id="Layer_1-2" data-name="Layer 1"><g id="Behance"><path class="cls-1" d="M41,16.06H33.76V.06h7.78a4.8,4.8,0,0,1,4.2,1.79,4,4,0,0,1,.8,2.5,3.82,3.82,0,0,1-.8,2.5,2.41,2.41,0,0,1-.72.63,3.58,3.58,0,0,1,1.34,1.25A4.23,4.23,0,0,1,47,11.14a4.89,4.89,0,0,1-.72,2.59A3.16,3.16,0,0,1,45.11,15a4.44,4.44,0,0,1-1.88.8A9,9,0,0,1,41,16.06Zm-6.61-.63H41a17.36,17.36,0,0,0,2.15-.18,3.31,3.31,0,0,0,1.61-.72,4.23,4.23,0,0,0,1-1.16,3.94,3.94,0,0,0,.63-2.32A3.7,3.7,0,0,0,45.82,9h0a3.29,3.29,0,0,0-1.61-1.25l-.72-.18.63-.36a5.57,5.57,0,0,0,1.07-.8,3,3,0,0,0,.63-2.06A3.39,3.39,0,0,0,45.2,2.2,4.36,4.36,0,0,0,41.44.68H34.29V15.43Zm19,.54a6.4,6.4,0,0,1-4.11-1.43,5.74,5.74,0,0,1-1.79-4.65,6.39,6.39,0,0,1,1.61-4.65,5.73,5.73,0,0,1,4.2-1.61A6.53,6.53,0,0,1,56,4.17a5.39,5.39,0,0,1,2.06,1.7A5.63,5.63,0,0,1,59,8.28h0a15.23,15.23,0,0,1,.09,2.23v.27h-8a2.07,2.07,0,0,0,1,1.7,2.44,2.44,0,0,0,1.43.36,2.27,2.27,0,0,0,1.43-.45,3.89,3.89,0,0,0,.54-.63l.09-.18h3.49v.36a3.68,3.68,0,0,1-1.16,2.15A5.46,5.46,0,0,1,53.42,16ZM53.33,4.26a5.05,5.05,0,0,0-3.75,1.43,5.58,5.58,0,0,0-1.43,4.2,5.08,5.08,0,0,0,1.61,4.2,5.54,5.54,0,0,0,3.66,1.25,5.25,5.25,0,0,0,3.93-1.52,3.7,3.7,0,0,0,.89-1.43H55.84a5,5,0,0,1-.54.72,2.84,2.84,0,0,1-1.79.54,3.78,3.78,0,0,1-1.79-.45,3.11,3.11,0,0,1-1.34-2.59v-.36h8a9.77,9.77,0,0,0-.09-1.79,5.63,5.63,0,0,0-.8-2.15,4.2,4.2,0,0,0-1.79-1.52A5.32,5.32,0,0,0,53.33,4.26ZM40.82,13.37H37.24V8.64h3.58a4.51,4.51,0,0,1,1.7.27,2,2,0,0,1,1.16,2,2.29,2.29,0,0,1-1.16,2.23A4.2,4.2,0,0,1,40.82,13.37Zm-2.95-.63h2.95a3.13,3.13,0,0,0,1.43-.27,1.62,1.62,0,0,0,.8-1.61,1.24,1.24,0,0,0-.8-1.34,3.85,3.85,0,0,0-1.34-.27H38l-.09,3.49ZM56.1,9H50.47l.09-.36a2.68,2.68,0,0,1,.89-1.88,2.78,2.78,0,0,1,2-.72,2.74,2.74,0,0,1,2.77,2.68Zm-4.92-.63h4.2a1.66,1.66,0,0,0-.63-1.16,2.26,2.26,0,0,0-1.52-.54,2.1,2.1,0,0,0-1.52.54A3.51,3.51,0,0,0,51.19,8.37ZM40.82,6.76H37.24v-4h3.22A5.22,5.22,0,0,1,42.34,3a1.69,1.69,0,0,1,1.07,1.7,1.62,1.62,0,0,1-.8,1.61A3.52,3.52,0,0,1,40.82,6.76Zm-2.95-.63h2.95a2.27,2.27,0,0,0,1.43-.36c.36-.18.45-.54.45-1.07a1.14,1.14,0,0,0-.63-1.16,4.71,4.71,0,0,0-1.7-.18H37.78l.09,2.77ZM56.73,2.92H49.94V.68h6.79Zm-6.26-.63H56v-1H50.47Z"/></g><g id="_Group_" data-name="&lt;Group&gt;"><path class="cls-1" d="M66.27,16a11.25,11.25,0,0,1-5.6-1.51.6.6,0,0,1-.27-.71.67.67,0,0,1,.62-.44h.44a6.92,6.92,0,0,0,3.29-.8A4.33,4.33,0,0,1,62.1,9.78a.59.59,0,0,1,.09-.53l.09-.09a4.39,4.39,0,0,1-1.6-3.38.49.49,0,0,1,.27-.44.53.53,0,0,1,.36-.09,4.22,4.22,0,0,1-.53-2.13A3.73,3.73,0,0,1,61.39,1a.49.49,0,0,1,.44-.27.68.68,0,0,1,.44.18A10.05,10.05,0,0,0,69,4.54a6.72,6.72,0,0,1,.09-1.33,4.29,4.29,0,0,1,2.75-3A4.42,4.42,0,0,1,76,1.08a.31.31,0,0,0,.18.09,5.92,5.92,0,0,0,1.87-.8.76.76,0,0,1,.62,0c.18.18.27.36.18.53a4.76,4.76,0,0,1-.44,1c.09,0,.18-.09.27-.09h0a.59.59,0,0,1,.62.18.43.43,0,0,1,0,.62,7.64,7.64,0,0,1-1.6,1.78c-.09.09-.18.18-.18.27a12.22,12.22,0,0,1-.71,4,11.83,11.83,0,0,1-2.13,3.55,10.4,10.4,0,0,1-3.55,2.66A10.16,10.16,0,0,1,66.27,16ZM61,14a11.11,11.11,0,0,0,5.33,1.42,10.9,10.9,0,0,0,4.53-1,10.07,10.07,0,0,0,3.29-2.49,10.12,10.12,0,0,0,2-3.38,11.1,11.1,0,0,0,.71-3.73,1.13,1.13,0,0,1,.36-.8,9.44,9.44,0,0,0,1.33-1.33,4,4,0,0,1-1,.27l-1.15.27.8-.8a4,4,0,0,0,.89-1.24,10.59,10.59,0,0,1-1.78.71.69.69,0,0,1-.71-.18A3.68,3.68,0,0,0,72.13,1a3.52,3.52,0,0,0-2.4,2.58,3.39,3.39,0,0,0-.09,1.33.53.53,0,0,1-.09.36.46.46,0,0,1-.36.18,10.73,10.73,0,0,1-7.28-3.82,3.67,3.67,0,0,0-.44,1.69,3.56,3.56,0,0,0,1.07,2.58l.8.8-1.07-.27-.8-.27a3.89,3.89,0,0,0,2.13,3.2l1.24.53h-2a3.48,3.48,0,0,0,2.84,2.31l.8.09-.62.44A7.35,7.35,0,0,1,61.56,14H61Zm.71-12.52Z"/></g><g id="_Group_2" data-name="&lt;Group&gt;"><path class="cls-1" d="M24.77,16.11a8,8,0,1,1,8-8A8,8,0,0,1,24.77,16.11Zm0-15.46A7.37,7.37,0,1,0,32.14,8,7.4,7.4,0,0,0,24.77.65Z"/></g><g id="_Group_3" data-name="&lt;Group&gt;"><path class="cls-1" d="M27,15.84l-.63-.09c.81-8.27-5.66-13.93-5.75-14l.45-.45C21.09,1.36,27.83,7.21,27,15.84Z"/></g><g id="_Group_4" data-name="&lt;Group&gt;"><path class="cls-1" d="M20.46,14.4l-.54-.27c0-.09,3.33-6.92,12.58-6.38v.63C23.6,7.84,20.46,14.31,20.46,14.4Z"/></g><g id="_Group_5" data-name="&lt;Group&gt;"><path class="cls-1" d="M18.12,7.93H17l.09-.63c.09,0,7.64.72,12.85-4.76l.45.45C26.21,7.39,20.46,7.93,18.12,7.93Z"/></g><g id="_Group_6" data-name="&lt;Group&gt;"><path class="cls-1" d="M13.14,16.06H2.77A2.78,2.78,0,0,1,0,13.29V2.83A2.78,2.78,0,0,1,2.77.06H13.14a2.78,2.78,0,0,1,2.77,2.77V13.29A2.78,2.78,0,0,1,13.14,16.06ZM2.77.68A2.18,2.18,0,0,0,.63,2.83V13.29a2.18,2.18,0,0,0,2.15,2.15H13.14a2.18,2.18,0,0,0,2.15-2.15V2.83A2.18,2.18,0,0,0,13.14.68Z"/></g><g id="_Group_7" data-name="&lt;Group&gt;"><path class="cls-1" d="M9.47,11.77H6.53A2.18,2.18,0,0,1,4.38,9.62v-3A2.18,2.18,0,0,1,6.53,4.44H9.47a2.18,2.18,0,0,1,2.15,2.15v3A2.18,2.18,0,0,1,9.47,11.77ZM6.53,5A1.51,1.51,0,0,0,5,6.49v3a1.51,1.51,0,0,0,1.52,1.52H9.47A1.51,1.51,0,0,0,11,9.53V6.58A1.51,1.51,0,0,0,9.47,5.06L6.53,5Z"/></g><g id="_Group_8" data-name="&lt;Group&gt;"><path class="cls-1" d="M9.47,11.77H6.53A2.18,2.18,0,0,1,4.38,9.62v-3A2.18,2.18,0,0,1,6.53,4.44H9.47a2.18,2.18,0,0,1,2.15,2.15v3A2.18,2.18,0,0,1,9.47,11.77ZM6.53,5A1.51,1.51,0,0,0,5,6.49v3a1.51,1.51,0,0,0,1.52,1.52H9.47A1.51,1.51,0,0,0,11,9.53V6.58A1.51,1.51,0,0,0,9.47,5.06L6.53,5Z"/></g><g id="_Group_9" data-name="&lt;Group&gt;"><path class="cls-1" d="M12.69,4.44a1,1,0,1,1,1-1A1,1,0,0,1,12.69,4.44Zm0-1.43a.38.38,0,0,0-.36.36.36.36,0,1,0,.72,0A.38.38,0,0,0,12.69,3Z"/></g><path class="cls-1" d="M85.56,16.06H81.82V8.38h-1.5V4.64h1.5v-1A3.32,3.32,0,0,1,85.37.06h2.71V3.33H86a.34.34,0,0,0-.37.37v.94h2.43l-.37,3.74H85.47v7.67Zm-3.09-.75h2.34V7.73h2.34l.19-2.34H84.91V3.8a1,1,0,0,1,1-1.12h1.4v-2H85.28a2.71,2.71,0,0,0-2.9,2.9V5.39h-1.5V7.73h1.5v7.58Z"/><g id="Behance-2" data-name="Behance"><path class="cls-2" d="M41,33.17H33.76v-16h7.78A4.8,4.8,0,0,1,45.73,19a4,4,0,0,1,.8,2.5,3.82,3.82,0,0,1-.8,2.5,2.41,2.41,0,0,1-.72.63,3.58,3.58,0,0,1,1.34,1.25A4.23,4.23,0,0,1,47,28.26a4.89,4.89,0,0,1-.72,2.59,3.16,3.16,0,0,1-1.16,1.25,4.44,4.44,0,0,1-1.88.8A9,9,0,0,1,41,33.17Zm-6.61-.63H41a17.36,17.36,0,0,0,2.15-.18,3.31,3.31,0,0,0,1.61-.72,4.23,4.23,0,0,0,1-1.16,3.94,3.94,0,0,0,.63-2.32,3.7,3.7,0,0,0-.54-2.06h0a3.29,3.29,0,0,0-1.61-1.25l-.72-.18.63-.36a5.57,5.57,0,0,0,1.07-.8,3,3,0,0,0,.63-2.06,3.39,3.39,0,0,0-.63-2.15,4.36,4.36,0,0,0-3.75-1.52H34.29V32.55Zm19,.54a6.4,6.4,0,0,1-4.11-1.43A5.74,5.74,0,0,1,47.52,27a6.39,6.39,0,0,1,1.61-4.65,5.73,5.73,0,0,1,4.2-1.61,6.53,6.53,0,0,1,2.68.54A5.39,5.39,0,0,1,58.07,23,5.63,5.63,0,0,1,59,25.4h0a15.23,15.23,0,0,1,.09,2.23v.27h-8a2.07,2.07,0,0,0,1,1.7,2.44,2.44,0,0,0,1.43.36,2.27,2.27,0,0,0,1.43-.45,3.89,3.89,0,0,0,.54-.63l.09-.18h3.49v.36a3.68,3.68,0,0,1-1.16,2.15A5.46,5.46,0,0,1,53.42,33.09Zm-.09-11.71a5.05,5.05,0,0,0-3.75,1.43A5.58,5.58,0,0,0,48.15,27a5.08,5.08,0,0,0,1.61,4.2,5.54,5.54,0,0,0,3.66,1.25,5.25,5.25,0,0,0,3.93-1.52,3.7,3.7,0,0,0,.89-1.43H55.84a5,5,0,0,1-.54.72,2.84,2.84,0,0,1-1.79.54,3.78,3.78,0,0,1-1.79-.45,3.11,3.11,0,0,1-1.34-2.59v-.36h8a9.77,9.77,0,0,0-.09-1.79,5.63,5.63,0,0,0-.8-2.15,4.2,4.2,0,0,0-1.79-1.52A5.32,5.32,0,0,0,53.33,21.38ZM40.82,30.49H37.24V25.76h3.58a4.51,4.51,0,0,1,1.7.27,2,2,0,0,1,1.16,2,2.29,2.29,0,0,1-1.16,2.23A4.2,4.2,0,0,1,40.82,30.49Zm-2.95-.63h2.95a3.13,3.13,0,0,0,1.43-.27,1.62,1.62,0,0,0,.8-1.61,1.24,1.24,0,0,0-.8-1.34,3.85,3.85,0,0,0-1.34-.27H38l-.09,3.49ZM56.1,26.11H50.47l.09-.36a2.68,2.68,0,0,1,.89-1.88,2.78,2.78,0,0,1,2-.72,2.74,2.74,0,0,1,2.77,2.68Zm-4.92-.63h4.2a1.66,1.66,0,0,0-.63-1.16,2.26,2.26,0,0,0-1.52-.54,2.1,2.1,0,0,0-1.52.54A3.51,3.51,0,0,0,51.19,25.49ZM40.82,23.88H37.24v-4h3.22a5.22,5.22,0,0,1,1.88.27,1.69,1.69,0,0,1,1.07,1.7,1.62,1.62,0,0,1-.8,1.61A3.52,3.52,0,0,1,40.82,23.88Zm-2.95-.63h2.95a2.27,2.27,0,0,0,1.43-.36c.36-.18.45-.54.45-1.07a1.14,1.14,0,0,0-.63-1.16,4.71,4.71,0,0,0-1.7-.18H37.78l.09,2.77ZM56.73,20H49.94V17.8h6.79Zm-6.26-.63H56v-1H50.47Z"/></g><g id="_Group_10" data-name="&lt;Group&gt;"><path class="cls-2" d="M66.27,33.12a11.25,11.25,0,0,1-5.6-1.51.6.6,0,0,1-.27-.71.67.67,0,0,1,.62-.44h.44a6.92,6.92,0,0,0,3.29-.8A4.33,4.33,0,0,1,62.1,26.9a.59.59,0,0,1,.09-.53l.09-.09a4.39,4.39,0,0,1-1.6-3.38.49.49,0,0,1,.27-.44.53.53,0,0,1,.36-.09,4.22,4.22,0,0,1-.53-2.13,3.73,3.73,0,0,1,.62-2.13.49.49,0,0,1,.44-.27.68.68,0,0,1,.44.18A10.05,10.05,0,0,0,69,21.66a6.72,6.72,0,0,1,.09-1.33,4.29,4.29,0,0,1,2.75-3A4.42,4.42,0,0,1,76,18.2a.31.31,0,0,0,.18.09,5.92,5.92,0,0,0,1.87-.8.76.76,0,0,1,.62,0c.18.18.27.36.18.53a4.76,4.76,0,0,1-.44,1c.09,0,.18-.09.27-.09h0a.59.59,0,0,1,.62.18.43.43,0,0,1,0,.62,7.64,7.64,0,0,1-1.6,1.78c-.09.09-.18.18-.18.27a12.22,12.22,0,0,1-.71,4,11.83,11.83,0,0,1-2.13,3.55A10.4,10.4,0,0,1,71.16,32,10.16,10.16,0,0,1,66.27,33.12Zm-5.24-2a11.11,11.11,0,0,0,5.33,1.42,10.9,10.9,0,0,0,4.53-1,10.71,10.71,0,0,0,5.33-5.86,11.1,11.1,0,0,0,.71-3.73,1.13,1.13,0,0,1,.36-.8,9.45,9.45,0,0,0,1.33-1.33,4,4,0,0,1-1,.27l-1.15.27.8-.8a4,4,0,0,0,.89-1.24A10.59,10.59,0,0,1,76.4,19a.69.69,0,0,1-.71-.18,3.68,3.68,0,0,0-3.55-.71,3.52,3.52,0,0,0-2.4,2.58A3.39,3.39,0,0,0,69.65,22a.53.53,0,0,1-.09.36.46.46,0,0,1-.36.18,10.73,10.73,0,0,1-7.28-3.82,3.67,3.67,0,0,0-.44,1.69A3.56,3.56,0,0,0,62.54,23l.8.8-1.07-.27-.8-.27a3.89,3.89,0,0,0,2.13,3.2l1.24.53h-2a3.48,3.48,0,0,0,2.84,2.31l.8.09-.62.44a7.35,7.35,0,0,1-4.26,1.33H61Zm.71-12.52Z"/></g><g id="_Group_11" data-name="&lt;Group&gt;"><path class="cls-2" d="M24.77,33.22a8,8,0,1,1,8-8A8,8,0,0,1,24.77,33.22Zm0-15.46a7.37,7.37,0,1,0,7.37,7.37A7.4,7.4,0,0,0,24.77,17.76Z"/></g><g id="_Group_12" data-name="&lt;Group&gt;"><path class="cls-2" d="M27,33l-.63-.09c.81-8.27-5.66-13.93-5.75-14l.45-.45C21.09,18.48,27.83,24.33,27,33Z"/></g><g id="_Group_13" data-name="&lt;Group&gt;"><path class="cls-2" d="M20.46,31.52l-.54-.27c0-.09,3.33-6.92,12.58-6.38v.63C23.6,25,20.46,31.43,20.46,31.52Z"/></g><g id="_Group_14" data-name="&lt;Group&gt;"><path class="cls-2" d="M18.12,25H17l.09-.63c.09,0,7.64.72,12.85-4.76l.45.45C26.21,24.51,20.46,25,18.12,25Z"/></g><g id="_Group_15" data-name="&lt;Group&gt;"><path class="cls-2" d="M13.14,33.17H2.77A2.78,2.78,0,0,1,0,30.4V19.95a2.78,2.78,0,0,1,2.77-2.77H13.14a2.78,2.78,0,0,1,2.77,2.77V30.4A2.78,2.78,0,0,1,13.14,33.17ZM2.77,17.8A2.18,2.18,0,0,0,.63,19.95V30.4a2.18,2.18,0,0,0,2.15,2.15H13.14a2.18,2.18,0,0,0,2.15-2.15V19.95a2.18,2.18,0,0,0-2.15-2.15Z"/></g><g id="_Group_16" data-name="&lt;Group&gt;"><path class="cls-2" d="M9.47,28.88H6.53a2.18,2.18,0,0,1-2.15-2.15v-3a2.18,2.18,0,0,1,2.15-2.15H9.47a2.18,2.18,0,0,1,2.15,2.15v3A2.18,2.18,0,0,1,9.47,28.88ZM6.53,22.09A1.51,1.51,0,0,0,5,23.61v3a1.51,1.51,0,0,0,1.52,1.52H9.47A1.51,1.51,0,0,0,11,26.65V23.7a1.51,1.51,0,0,0-1.52-1.52l-2.95-.09Z"/></g><g id="_Group_17" data-name="&lt;Group&gt;"><path class="cls-2" d="M9.47,28.88H6.53a2.18,2.18,0,0,1-2.15-2.15v-3a2.18,2.18,0,0,1,2.15-2.15H9.47a2.18,2.18,0,0,1,2.15,2.15v3A2.18,2.18,0,0,1,9.47,28.88ZM6.53,22.09A1.51,1.51,0,0,0,5,23.61v3a1.51,1.51,0,0,0,1.52,1.52H9.47A1.51,1.51,0,0,0,11,26.65V23.7a1.51,1.51,0,0,0-1.52-1.52l-2.95-.09Z"/></g><g id="_Group_18" data-name="&lt;Group&gt;"><path class="cls-2" d="M12.69,21.55a1,1,0,1,1,1-1A1,1,0,0,1,12.69,21.55Zm0-1.43a.36.36,0,1,0,.36.36A.38.38,0,0,0,12.69,20.12Z"/></g><path class="cls-2" d="M85.56,33.17H81.82V25.5h-1.5V21.76h1.5v-1a3.32,3.32,0,0,1,3.56-3.56h2.71v3.27H86a.34.34,0,0,0-.37.37v.94h2.43l-.37,3.74H85.47v7.67Zm-3.09-.75h2.34V24.85h2.34l.19-2.34H84.91V20.92a1,1,0,0,1,1-1.12h1.4v-2H85.28a2.71,2.71,0,0,0-2.9,2.9v1.78h-1.5v2.34h1.5v7.58Z"/></g></g></svg>