<?xml version="1.0" encoding="utf-8"?>
<!-- Generator: Adobe Illustrator 21.1.0, SVG Export Plug-In . SVG Version: 6.00 Build 0)  -->
<svg version="1.1" id="Layer_1" xmlns="http://www.w3.org/2000/svg" xmlns:xlink="http://www.w3.org/1999/xlink" x="0px" y="0px"
	 viewBox="0 0 59 59" style="enable-background:new 0 0 59 59;" xml:space="preserve">
<style type="text/css">
	.st0{fill:#6D6E71;}
	.st1{fill:none;}
	.st2{fill:#7AC4EA;}
	.st3{fill:#0A6093;}
	.st4{fill:url(#XMLID_164_);}
	.st5{fill:#648678;}
	.st6{fill:#5785BF;}
	.st7{fill:#E57121;}
	.st8{fill:none;stroke:#6D6E71;stroke-width:3.74;stroke-miterlimit:10;}
	.st9{fill:#057DB7;}
	.st10{fill:none;stroke:#057DB7;stroke-width:3.74;stroke-miterlimit:10;}
	.st11{fill:none;stroke:#648678;stroke-width:40;stroke-linecap:round;stroke-linejoin:round;stroke-miterlimit:10;}
	.st12{fill:none;stroke:#5785BF;stroke-width:40;stroke-linecap:round;stroke-linejoin:round;stroke-miterlimit:10;}
	.st13{fill:none;stroke:#E57121;stroke-width:40;stroke-linecap:round;stroke-linejoin:round;stroke-miterlimit:10;}
	.st14{fill:#31B6F4;}
	.st15{fill:#FFFFFF;}
	.st16{fill:#E3F1FB;}
</style>
<g>
	<g>
		<g>
			<g>
				<g id="XMLID_84_">
					<g>
						<g id="XMLID_163_">
							<path class="st0" d="M-467.2,22l-0.7-2.6l-7.1,1.2c-0.6,1.6-1,3.2-1.2,4.9L-467.2,22z"/>
						</g>
						<g id="XMLID_162_">
							<polygon class="st0" points="-458.5,19.5 -464.1,21.7 -463.1,26.5 -458,24.7 							"/>
						</g>
						<g id="XMLID_161_">
							<path class="st0" d="M-468.1,18.7l-1.7-6.1c-2,2.1-3.6,4.5-4.8,7.2L-468.1,18.7z"/>
						</g>
						<g id="XMLID_160_">
							<polygon class="st0" points="-469.6,35.3 -464.5,34.3 -465.2,29.5 -470.1,31.2 							"/>
						</g>
						<g id="XMLID_159_">
							<polygon class="st0" points="-471,24.4 -470.2,30.3 -465.3,28.7 -465.5,27.4 -463.9,26.8 -464.9,22 							"/>
						</g>
						<g id="XMLID_158_">
							<path class="st0" d="M-458.4,11.1l9.5-4.9c-1.4-0.3-2.9-0.4-4.4-0.4c-1.9,0-3.7,0.2-5.5,0.7L-458.4,11.1z"/>
						</g>
						<g id="XMLID_157_">
							<path class="st0" d="M-469.4,43.1l-0.9-6.9l-5.1,1c0.4,2.2,1.1,4.7,2,7.4l4.4-1.6L-469.4,43.1z"/>
						</g>
						<g id="XMLID_156_">
							<path class="st0" d="M-438.1,11.5l-1.7,0.7l1.9,5.2l3.7-1.4C-435.2,14.3-436.6,12.8-438.1,11.5z"/>
						</g>
						<g id="XMLID_137_">
							<g id="XMLID_155_">
								<polygon class="st0" points="-434.6,22.2 -437.8,22.8 -439.8,26.8 -435,27.6 								"/>
							</g>
							<g id="XMLID_154_">
								<polygon class="st0" points="-441,27.4 -444.6,26.7 -446.8,31.7 -442.9,31.3 								"/>
							</g>
							<g id="XMLID_153_">
								<polygon class="st0" points="-437.7,20.8 -443.2,22.8 -439.7,24.8 -438.4,22.1 -438.4,22.1 -438.4,22.1 								"/>
							</g>
							<g id="XMLID_152_">
								<polygon class="st0" points="-448.9,31.8 -447.7,31.7 -445.5,26.6 -447.9,26.2 								"/>
							</g>
							<g id="XMLID_151_">
								<polygon class="st0" points="-435.3,31.6 -442.7,32.7 -444,35.4 -437.6,34.6 -438,35.4 -435.5,34.9 								"/>
							</g>
							<g id="XMLID_150_">
								<path class="st0" d="M-432.3,32.5l1.7,0.7c0.1-0.6,0.1-1.1,0.2-1.7c0.1-0.5,0.1-1.1,0.1-1.6L-432.3,32.5z"/>
							</g>
							<g id="XMLID_149_">
								<polygon class="st0" points="-436,41.2 -439.3,43.2 -439.4,43.1 -439.2,47.7 -436.5,47.8 								"/>
							</g>
							<g id="XMLID_148_">
								<polygon class="st0" points="-438.4,36.3 -439.6,39.4 -439.6,39.4 -439.4,42.4 -435.9,40.2 -435.6,35.7 								"/>
							</g>
							<g id="XMLID_147_">
								<polygon class="st0" points="-435,28.5 -440.2,27.5 -442.3,31.8 -435.2,30.7 								"/>
							</g>
							<g id="XMLID_146_">
								<polygon class="st0" points="-440.3,41.1 -443,47.7 -440,47.7 								"/>
							</g>
							<g id="XMLID_145_">
								<polygon class="st0" points="-443.4,32.2 -449.1,32.7 -449.7,36.1 -445,35.5 								"/>
							</g>
							<g id="XMLID_144_">
								<polygon class="st0" points="-440.6,26.6 -440.1,25.5 -444.2,23.2 -447.6,24.4 -447.8,25.3 								"/>
							</g>
							<g id="XMLID_143_">
								<path class="st0" d="M-435.3,43.3l-0.3,4.5h1.1c0.6-1.4,1.2-2.9,1.7-4.5H-435.3z"/>
							</g>
							<g id="XMLID_142_">
								<path class="st0" d="M-434.5,32.4l-0.2,2.6l0.1,0.5h-0.1l-0.2,2.6l3.7-1.1c0.2-1,0.4-2,0.5-3L-434.5,32.4z"/>
							</g>
							<g id="XMLID_141_">
								<path class="st0" d="M-431.4,37.9l-3.6,1l-0.3,3.5h2.6C-432.1,41-431.7,39.5-431.4,37.9z"/>
							</g>
							<g id="XMLID_140_">
								<path class="st0" d="M-437.3,21.9l5.6-1.2c-0.2-0.6-0.5-1.2-0.8-1.8l-4.2,1.5L-437.3,21.9z"/>
							</g>
							<g id="XMLID_139_">
								<path class="st0" d="M-434.4,31.6l1.4,0.6l2.8-3.7c0-0.9-0.1-1.9-0.2-2.8l-3.5,0.3L-434.4,31.6z"/>
							</g>
							<g id="XMLID_138_">
								<path class="st0" d="M-433.7,22l-0.2,3.1l3.3-0.3c-0.2-1.1-0.5-2.2-0.8-3.3L-433.7,22z"/>
							</g>
						</g>
						<g id="XMLID_134_">
							<g id="XMLID_136_">
								<path class="st0" d="M-471.1,29.7l-0.7-4.9l-4.5,1.8c-0.1,0.7-0.1,1.5-0.1,2.2c0,0,0,0.2,0,0.5L-471.1,29.7z"/>
							</g>
							<g id="XMLID_135_">
								<path class="st0" d="M-471,30.5l-5.3-0.5v0.1c0.1,1.3,0.3,3.5,0.8,6.3l5.2-1L-471,30.5z"/>
							</g>
						</g>
						<g id="XMLID_131_">
							<g id="XMLID_133_">
								<polygon class="st0" points="-464.8,35.2 -469.5,36.1 -468.6,42.5 								"/>
							</g>
							<g id="XMLID_132_">
								<polygon class="st0" points="-463.5,41.1 -464.3,35.8 -467.8,42.6 								"/>
							</g>
						</g>
						<g id="XMLID_128_">
							<g id="XMLID_130_">
								<path class="st0" d="M-462.9,11.8l3.5-3l-0.2-2.2c-1.7,0.5-3.3,1.2-4.8,2L-462.9,11.8z"/>
							</g>
							<g id="XMLID_129_">
								<path class="st0" d="M-465.1,9c-1.4,0.9-2.8,1.9-4,3l1.2,4.1l4.4-3.8L-465.1,9z"/>
							</g>
						</g>
						<g id="XMLID_125_">
							<g id="XMLID_127_">
								<path class="st0" d="M-442.7,8.3l-4.6,2.5l3.6,2l4.8-1.9C-440,9.9-441.3,9-442.7,8.3z"/>
							</g>
							<g id="XMLID_126_">
								<path class="st0" d="M-443.6,7.9c-1.3-0.6-2.7-1.1-4.1-1.5l-3.9,2l3.5,1.9L-443.6,7.9z"/>
							</g>
						</g>
						<g id="XMLID_122_">
							<g id="XMLID_124_">
								<polygon class="st0" points="-454.2,16.9 -444.6,13.2 -452.4,8.9 -453.6,9.5 								"/>
							</g>
							<g id="XMLID_123_">
								<polygon class="st0" points="-454.6,10 -458.3,11.9 -457.8,18.3 -455.1,17.3 								"/>
							</g>
						</g>
						<g id="XMLID_94_">
							<g id="XMLID_121_">
								<polygon class="st0" points="-456.5,61.2 -456.2,56 -459.5,55.9 -460.2,60.4 								"/>
							</g>
							<g id="XMLID_120_">
								<polygon class="st0" points="-459.4,55.1 -454.2,55.3 -453.3,50.9 -458.8,50.8 								"/>
							</g>
							<g id="XMLID_119_">
								<polygon class="st0" points="-467.8,54.7 -460.2,55 -460,53.4 -466.3,51.8 								"/>
							</g>
							<g id="XMLID_118_">
								<polygon class="st0" points="-460.4,55.8 -463.6,55.7 -464.2,58 -460.8,58.6 								"/>
							</g>
							<g id="XMLID_117_">
								<polygon class="st0" points="-454.2,62.5 -460.3,61.2 -460.7,63.5 -455.1,65.2 								"/>
							</g>
							<g id="XMLID_116_">
								<path class="st0" d="M-468.7,54.7L-468.7,54.7l1.6-3.1l-3.8-0.9C-470.2,52-469.5,53.3-468.7,54.7z"/>
							</g>
							<g id="XMLID_115_">
								<polygon class="st0" points="-452.4,65 -451.6,63.1 -453.3,62.7 -453.9,64.2 								"/>
							</g>
							<g id="XMLID_114_">
								<path class="st0" d="M-464.9,60.3c1,1.3,2.1,2.6,3.3,3.9l0.7-4.8l-3.6-0.7L-464.9,60.3z"/>
							</g>
							<g id="XMLID_113_">
								<polygon class="st0" points="-447.5,50.9 -443.2,53.5 -439.8,51 								"/>
							</g>
							<g id="XMLID_112_">
								<polygon class="st0" points="-455.3,56 -455.7,61.4 -452.5,62.1 -452.6,56.1 								"/>
							</g>
							<g id="XMLID_111_">
								<path class="st0" d="M-454.2,65l-1.6,4.5l-0.4-0.1c0.2,0.2,0.4,0.4,0.7,0.5l4.2-3.3L-454.2,65z"/>
							</g>
							<g id="XMLID_110_">
								<polygon class="st0" points="-440.9,55.7 -445.3,53.1 -446.4,55.5 								"/>
							</g>
							<g id="XMLID_109_">
								<polygon class="st0" points="-453.3,55.3 -447.3,55.5 -446,52.7 -449,50.9 -452.4,50.9 								"/>
							</g>
							<g id="XMLID_108_">
								<path class="st0" d="M-464.4,55.7l-3.7-0.1c0.8,1.3,1.7,2.6,2.7,3.9L-464.4,55.7z"/>
							</g>
							<g id="XMLID_107_">
								<path class="st0" d="M-466.7,50.8l3.2-6.2l-8.6,3.1c0.3,0.7,0.6,1.3,0.9,2L-466.7,50.8z"/>
							</g>
							<g id="XMLID_106_">
								<path class="st0" d="M-463,44.4L-463,44.4L-463,44.4z"/>
							</g>
							<g id="XMLID_105_">
								<polygon class="st0" points="-465.9,51 -459.9,52.5 -459.6,50.8 -462.1,50.8 -462.9,45.1 								"/>
							</g>
							<g id="XMLID_104_">
								<path class="st0" d="M-438.4,51l-4,3l3,1.8h0.6c0.9-1.5,1.9-3.1,2.7-4.7L-438.4,51z"/>
							</g>
							<g id="XMLID_103_">
								<path class="st0" d="M-455.4,66l-5.4-1.6l-0.1,0.6c1.3,1.4,2.8,2.8,4.4,4.1L-455.4,66z"/>
							</g>
							<g id="XMLID_102_">
								<path class="st0" d="M-446.9,64.1l-2.9,2.3l1.6,0.8c0.9-0.8,1.8-1.8,2.8-2.8L-446.9,64.1z"/>
							</g>
							<g id="XMLID_101_">
								<polygon class="st0" points="-446.9,61.2 -449.7,56.2 -451.7,56.2 -451.6,62.3 -447.6,63.1 								"/>
							</g>
							<g id="XMLID_100_">
								<polygon class="st0" points="-450.8,63.3 -451.7,65.4 -450.6,66 -448,63.9 								"/>
							</g>
							<g id="XMLID_99_">
								<path class="st0" d="M-453.6,69.4l-1.2,1c0.4,0.3,0.7,0.6,1.1,0.9L-453.6,69.4z"/>
							</g>
							<g id="XMLID_98_">
								<path class="st0" d="M-448.9,67.8l-1.6-0.9l-2.4,1.9h0.1l-0.1,2.3C-452.1,70.6-450.7,69.5-448.9,67.8z"/>
							</g>
							<g id="XMLID_97_">
								<path class="st0" d="M-444.2,56.4l-0.8,2l2.6,2.4c1-1.3,2.1-2.7,3.1-4.2L-444.2,56.4z"/>
							</g>
							<g id="XMLID_96_">
								<path class="st0" d="M-442.9,61.5l-2.4-2.3l-1.6,4l2,0.4C-444.2,63-443.6,62.3-442.9,61.5z"/>
							</g>
							<g id="XMLID_95_">
								<polygon class="st0" points="-445.1,56.4 -448.7,56.3 -446.5,60.2 								"/>
							</g>
						</g>
						<g id="XMLID_91_">
							<g id="XMLID_93_">
								<polygon class="st0" points="-443.9,19.6 -438.6,17.6 -440.6,12.5 -445,14.2 								"/>
							</g>
							<g id="XMLID_92_">
								<polygon class="st0" points="-445.8,14.5 -450,16.2 -446.3,20.4 -444.7,19.8 								"/>
							</g>
						</g>
						<g id="XMLID_88_">
							<g id="XMLID_90_">
								<polygon class="st0" points="-449.2,21.5 -447.2,20.7 -450.8,16.5 -455.1,18.2 								"/>
							</g>
							<g id="XMLID_89_">
								<polygon class="st0" points="-456.1,18.6 -457.7,19.2 -457.2,24.4 -450.2,21.8 								"/>
							</g>
						</g>
						<g id="XMLID_85_">
							<g id="XMLID_87_">
								<polygon class="st0" points="-461,19.6 -465,14.6 -467.7,16.9 -467.7,16.9 -466.4,21.7 -465,21.2 -465,21.1 -464.6,21 
																	"/>
							</g>
							<g id="XMLID_86_">
								<polygon class="st0" points="-460.2,19.3 -458.6,18.6 -459.3,9.8 -464.4,14.1 								"/>
							</g>
						</g>
					</g>
				</g>
				<polygon id="XMLID_83_" class="st0" points="-462.7,29.6 -460.1,47.5 -447.6,47.6 -443.9,38.9 -454.2,40 -452.3,25.8 				"/>
			</g>
		</g>
		<rect x="-489" y="3" class="st1" width="70" height="70"/>
	</g>
	<g>
		<g>
			<g>
				<g id="XMLID_3_">
					<g>
						<g id="XMLID_82_">
							<path class="st2" d="M-468,103.7l-0.7-2.6l-7.1,1.2c-0.6,1.6-1,3.2-1.2,4.9L-468,103.7z"/>
						</g>
						<g id="XMLID_81_">
							<polygon class="st2" points="-459.3,101.2 -465,103.4 -464,108.2 -458.9,106.4 							"/>
						</g>
						<g id="XMLID_80_">
							<path class="st2" d="M-469,100.4l-1.7-6.1c-2,2.1-3.6,4.5-4.8,7.2L-469,100.4z"/>
						</g>
						<g id="XMLID_79_">
							<polygon class="st2" points="-470.4,116.9 -465.3,116 -466.1,111.2 -471,112.8 							"/>
						</g>
						<g id="XMLID_78_">
							<polygon class="st2" points="-471.9,106.1 -471.1,112 -466.2,110.3 -466.4,109.1 -464.8,108.5 -465.7,103.7 							"/>
						</g>
						<g id="XMLID_77_">
							<path class="st2" d="M-459.2,92.7l9.5-4.9c-1.4-0.3-2.9-0.4-4.4-0.4c-1.9,0-3.7,0.2-5.5,0.7L-459.2,92.7z"/>
						</g>
						<g id="XMLID_76_">
							<path class="st2" d="M-470.2,124.8l-0.9-6.9l-5.1,1c0.4,2.2,1.1,4.7,2,7.4l4.4-1.6L-470.2,124.8z"/>
						</g>
						<g id="XMLID_75_">
							<path class="st2" d="M-438.9,93.2l-1.7,0.7l1.9,5.2l3.7-1.4C-436.1,96-437.4,94.5-438.9,93.2z"/>
						</g>
						<g id="XMLID_56_">
							<g id="XMLID_74_">
								<polygon class="st2" points="-435.4,103.9 -438.7,104.5 -440.6,108.5 -435.8,109.3 								"/>
							</g>
							<g id="XMLID_73_">
								<polygon class="st2" points="-441.9,109.1 -445.5,108.4 -447.7,113.3 -443.8,113 								"/>
							</g>
							<g id="XMLID_72_">
								<polygon class="st2" points="-438.6,102.5 -444.1,104.5 -440.6,106.5 -439.2,103.8 -439.3,103.8 -439.2,103.8 								"/>
							</g>
							<g id="XMLID_71_">
								<polygon class="st2" points="-449.8,113.5 -448.6,113.4 -446.3,108.3 -448.8,107.8 								"/>
							</g>
							<g id="XMLID_70_">
								<polygon class="st2" points="-436.1,113.2 -443.6,114.4 -444.9,117.1 -438.5,116.2 -438.8,117.1 -436.4,116.6 								"/>
							</g>
							<g id="XMLID_69_">
								<path class="st2" d="M-433.2,114.2l1.7,0.7c0.1-0.6,0.1-1.1,0.2-1.7c0.1-0.5,0.1-1.1,0.1-1.6L-433.2,114.2z"/>
							</g>
							<g id="XMLID_68_">
								<polygon class="st2" points="-436.8,122.9 -440.2,124.9 -440.3,124.8 -440.1,129.4 -437.3,129.4 								"/>
							</g>
							<g id="XMLID_67_">
								<polygon class="st2" points="-439.2,118 -440.5,121 -440.4,121 -440.3,124 -436.8,121.9 -436.4,117.4 								"/>
							</g>
							<g id="XMLID_66_">
								<polygon class="st2" points="-435.9,110.1 -441,109.2 -443.1,113.5 -436.1,112.4 								"/>
							</g>
							<g id="XMLID_65_">
								<polygon class="st2" points="-441.2,122.7 -443.9,129.4 -440.9,129.4 								"/>
							</g>
							<g id="XMLID_64_">
								<polygon class="st2" points="-444.2,113.9 -449.9,114.4 -450.5,117.8 -445.9,117.2 								"/>
							</g>
							<g id="XMLID_63_">
								<polygon class="st2" points="-441.5,108.3 -440.9,107.2 -445.1,104.9 -448.5,106.1 -448.7,107 								"/>
							</g>
							<g id="XMLID_62_">
								<path class="st2" d="M-436.2,125l-0.3,4.5h1.1c0.6-1.4,1.2-2.9,1.7-4.5H-436.2z"/>
							</g>
							<g id="XMLID_61_">
								<path class="st2" d="M-435.4,114.1l-0.2,2.6l0.1,0.5h-0.1l-0.2,2.6l3.7-1.1c0.2-1,0.4-2,0.5-3L-435.4,114.1z"/>
							</g>
							<g id="XMLID_60_">
								<path class="st2" d="M-432.3,119.6l-3.6,1l-0.3,3.5h2.6C-433,122.7-432.6,121.2-432.3,119.6z"/>
							</g>
							<g id="XMLID_59_">
								<path class="st2" d="M-438.2,103.6l5.6-1.2c-0.2-0.6-0.5-1.2-0.8-1.8l-4.2,1.5L-438.2,103.6z"/>
							</g>
							<g id="XMLID_58_">
								<path class="st2" d="M-435.3,113.3l1.4,0.6l2.8-3.7c0-0.9-0.1-1.9-0.2-2.8l-3.5,0.3L-435.3,113.3z"/>
							</g>
							<g id="XMLID_57_">
								<path class="st2" d="M-434.6,103.7l-0.2,3.1l3.3-0.3c-0.2-1.1-0.5-2.2-0.8-3.3L-434.6,103.7z"/>
							</g>
						</g>
						<g id="XMLID_53_">
							<g id="XMLID_55_">
								<path class="st2" d="M-472,111.4l-0.7-4.9l-4.5,1.8c-0.1,0.7-0.1,1.5-0.1,2.2c0,0,0,0.2,0,0.5L-472,111.4z"/>
							</g>
							<g id="XMLID_54_">
								<path class="st2" d="M-471.9,112.2l-5.3-0.5v0.1c0.1,1.3,0.3,3.5,0.8,6.3l5.2-1L-471.9,112.2z"/>
							</g>
						</g>
						<g id="XMLID_50_">
							<g id="XMLID_52_">
								<polygon class="st2" points="-465.7,116.9 -470.3,117.8 -469.5,124.2 								"/>
							</g>
							<g id="XMLID_51_">
								<polygon class="st2" points="-464.3,122.8 -465.1,117.5 -468.6,124.3 								"/>
							</g>
						</g>
						<g id="XMLID_47_">
							<g id="XMLID_49_">
								<path class="st2" d="M-463.8,93.4l3.5-3l-0.2-2.2c-1.7,0.5-3.3,1.2-4.8,2L-463.8,93.4z"/>
							</g>
							<g id="XMLID_48_">
								<path class="st2" d="M-466,90.6c-1.4,0.9-2.8,1.9-4,3l1.2,4.1l4.4-3.8L-466,90.6z"/>
							</g>
						</g>
						<g id="XMLID_44_">
							<g id="XMLID_46_">
								<path class="st2" d="M-443.5,90l-4.6,2.5l3.6,2l4.8-1.9C-440.8,91.6-442.1,90.7-443.5,90z"/>
							</g>
							<g id="XMLID_45_">
								<path class="st2" d="M-444.4,89.5c-1.3-0.6-2.7-1.1-4.1-1.5l-3.9,2l3.4,2L-444.4,89.5z"/>
							</g>
						</g>
						<g id="XMLID_41_">
							<g id="XMLID_43_">
								<polygon class="st2" points="-455,98.6 -445.5,94.9 -453.3,90.6 -454.5,91.2 								"/>
							</g>
							<g id="XMLID_42_">
								<polygon class="st2" points="-455.5,91.7 -459.2,93.6 -458.6,100 -456,99 								"/>
							</g>
						</g>
						<g id="XMLID_13_">
							<g id="XMLID_40_">
								<polygon class="st2" points="-457.4,142.9 -457,137.7 -460.4,137.6 -461.1,142.1 								"/>
							</g>
							<g id="XMLID_39_">
								<polygon class="st2" points="-460.3,136.7 -455,136.9 -454.1,132.6 -459.6,132.5 								"/>
							</g>
							<g id="XMLID_38_">
								<polygon class="st2" points="-468.6,136.4 -461.1,136.7 -460.8,135 -467.1,133.5 								"/>
							</g>
							<g id="XMLID_37_">
								<polygon class="st2" points="-461.2,137.5 -464.5,137.4 -465.1,139.6 -461.6,140.3 								"/>
							</g>
							<g id="XMLID_36_">
								<polygon class="st2" points="-455,144.2 -461.2,142.9 -461.5,145.2 -456,146.9 								"/>
							</g>
							<g id="XMLID_35_">
								<path class="st2" d="M-469.5,136.4L-469.5,136.4l1.6-3.1l-3.8-0.9C-471.1,133.7-470.3,135-469.5,136.4z"/>
							</g>
							<g id="XMLID_34_">
								<polygon class="st2" points="-453.3,146.7 -452.5,144.8 -454.2,144.4 -454.7,145.9 								"/>
							</g>
							<g id="XMLID_33_">
								<path class="st2" d="M-465.8,142c1,1.3,2.1,2.6,3.3,3.9l0.7-4.8l-3.6-0.7L-465.8,142z"/>
							</g>
							<g id="XMLID_32_">
								<polygon class="st2" points="-448.4,132.6 -444,135.2 -440.6,132.7 								"/>
							</g>
							<g id="XMLID_31_">
								<polygon class="st2" points="-456.2,137.7 -456.6,143.1 -453.3,143.8 -453.4,137.8 								"/>
							</g>
							<g id="XMLID_30_">
								<path class="st2" d="M-455,146.7l-1.6,4.5l-0.4-0.2c0.2,0.2,0.4,0.4,0.7,0.5l4.2-3.3L-455,146.7z"/>
							</g>
							<g id="XMLID_29_">
								<polygon class="st2" points="-441.8,137.4 -446.1,134.8 -447.3,137.2 								"/>
							</g>
							<g id="XMLID_28_">
								<polygon class="st2" points="-454.2,137 -448.2,137.2 -446.8,134.4 -449.9,132.6 -453.3,132.6 								"/>
							</g>
							<g id="XMLID_27_">
								<path class="st2" d="M-465.3,137.4l-3.7-0.1c0.8,1.3,1.7,2.6,2.7,3.9L-465.3,137.4z"/>
							</g>
							<g id="XMLID_26_">
								<path class="st2" d="M-467.6,132.5l3.2-6.2l-8.6,3.1c0.3,0.7,0.6,1.3,0.9,2L-467.6,132.5z"/>
							</g>
							<g id="XMLID_25_">
								<path class="st2" d="M-463.9,126.1L-463.9,126.1L-463.9,126.1z"/>
							</g>
							<g id="XMLID_24_">
								<polygon class="st2" points="-466.8,132.7 -460.7,134.2 -460.5,132.5 -462.9,132.4 -463.7,126.8 								"/>
							</g>
							<g id="XMLID_23_">
								<path class="st2" d="M-439.3,132.7l-4,3l3,1.8h0.6c0.9-1.5,1.9-3.1,2.7-4.7L-439.3,132.7z"/>
							</g>
							<g id="XMLID_22_">
								<path class="st2" d="M-456.2,147.7l-5.4-1.6l-0.1,0.6c1.3,1.4,2.8,2.8,4.4,4.1L-456.2,147.7z"/>
							</g>
							<g id="XMLID_21_">
								<path class="st2" d="M-447.8,145.8l-2.9,2.3l1.6,0.8c0.9-0.8,1.8-1.8,2.8-2.8L-447.8,145.8z"/>
							</g>
							<g id="XMLID_20_">
								<polygon class="st2" points="-447.8,142.9 -450.5,137.9 -452.6,137.8 -452.5,143.9 -448.5,144.8 								"/>
							</g>
							<g id="XMLID_19_">
								<polygon class="st2" points="-451.7,145 -452.6,147.1 -451.5,147.7 -448.8,145.6 								"/>
							</g>
							<g id="XMLID_18_">
								<path class="st2" d="M-454.5,151.1l-1.2,1c0.4,0.3,0.7,0.6,1.1,0.9L-454.5,151.1z"/>
							</g>
							<g id="XMLID_17_">
								<path class="st2" d="M-449.7,149.5l-1.6-0.9l-2.4,1.9h0.1l-0.1,2.3C-453,152.3-451.6,151.2-449.7,149.5z"/>
							</g>
							<g id="XMLID_16_">
								<path class="st2" d="M-445.1,138.1l-0.8,2l2.6,2.4c1-1.3,2.1-2.7,3.1-4.2L-445.1,138.1z"/>
							</g>
							<g id="XMLID_15_">
								<path class="st2" d="M-443.8,143.2l-2.4-2.3l-1.6,4l2,0.4C-445.1,144.7-444.4,144-443.8,143.2z"/>
							</g>
							<g id="XMLID_14_">
								<polygon class="st2" points="-445.9,138.1 -449.6,138 -447.4,141.9 								"/>
							</g>
						</g>
						<g id="XMLID_10_">
							<g id="XMLID_12_">
								<polygon class="st2" points="-444.8,101.2 -439.5,99.3 -441.4,94.2 -445.9,95.9 								"/>
							</g>
							<g id="XMLID_11_">
								<polygon class="st2" points="-446.7,96.2 -450.9,97.9 -447.2,102.1 -445.5,101.5 								"/>
							</g>
						</g>
						<g id="XMLID_7_">
							<g id="XMLID_9_">
								<polygon class="st2" points="-450,103.1 -448,102.4 -451.7,98.2 -456,99.9 								"/>
							</g>
							<g id="XMLID_8_">
								<polygon class="st2" points="-457,100.2 -458.5,100.9 -458.1,106.1 -451.1,103.5 								"/>
							</g>
						</g>
						<g id="XMLID_4_">
							<g id="XMLID_6_">
								<polygon class="st2" points="-461.8,101.3 -465.9,96.3 -468.5,98.6 -468.6,98.5 -467.3,103.4 -465.9,102.9 -465.9,102.8 
									-465.5,102.7 								"/>
							</g>
							<g id="XMLID_5_">
								<polygon class="st2" points="-461,101 -459.4,100.3 -460.2,91.4 -465.2,95.8 								"/>
							</g>
						</g>
					</g>
				</g>
				<polygon id="XMLID_2_" class="st3" points="-463.6,111.3 -461,129.2 -448.4,129.3 -444.8,120.6 -455.1,121.6 -453.2,107.5 				
					"/>
			</g>
		</g>
		<rect x="-489" y="85" class="st1" width="70" height="70"/>
	</g>
</g>
<g>
	<g>
		<g>
			<g>
				
					<linearGradient id="XMLID_164_" gradientUnits="userSpaceOnUse" x1="-283.0365" y1="251.1145" x2="-241.9704" y2="292.1806" gradientTransform="matrix(1 0 0 -1 0 392)">
					<stop  offset="0" style="stop-color:#F05A44"/>
					<stop  offset="1" style="stop-color:#613E97"/>
				</linearGradient>
				<path id="XMLID_5189_" class="st4" d="M-258.3,128c2.2,2.2,2.2,5.8,0,8.1c-1.1,1.1-2.6,1.7-4.1,1.7h-2.2c-1,0-2.2,0.6-2.8,1.2
					c-0.6,0.6-1.2,1.6-1.2,2.8v1.6c0.2,1.6-0.4,3.3-1.6,4.6c-2.2,2.2-5.8,2.2-8.1,0c-2.2-2.2-2.2-5.8,0-8.1c1.3-1.3,2.9-1.8,4.6-1.6
					h1.6c1.2,0,2.2-0.6,2.8-1.2c0.6-0.6,1.2-1.7,1.2-2.8v-2.2c0-1.5,0.5-3,1.7-4.1C-264.1,125.7-260.5,125.7-258.3,128z
					 M-280.4,129.8c0-1.2,0.7-2.2,1.2-2.8c0.6-0.6,1.7-1.2,2.8-1.2h1.5c1.7,0.2,3.4-0.3,4.7-1.6c2.2-2.2,2.2-5.8,0-8.1
					c-1.1-1.1-2.6-1.7-4.1-1.7h-2.1c-1.1,0-2.2-0.6-2.8-1.2c-0.6-0.6-1.2-1.6-1.2-2.8v-1.6c0.2-1.6-0.4-3.3-1.6-4.6
					c-2.2-2.2-5.8-2.2-8.1,0c-2.2,2.2-2.2,5.8,0,8.1c1.3,1.3,2.9,1.8,4.6,1.6h1.6c1.2,0,2.2,0.7,2.8,1.2c0.6,0.6,1.2,1.7,1.2,2.8
					v1.9c0,0.2,0,0.3,0,0.5v2c0,1.1-0.6,2.2-1.2,2.8s-1.6,1.2-2.8,1.2h-2.2l0,0c-1.5,0-2.9,0.6-4,1.7c-2.2,2.2-2.2,5.8,0,8.1
					c2.2,2.2,5.8,2.2,8.1,0c1.2-1.2,1.7-2.9,1.6-4.4V129.8z M-238.6,126.3L-238.6,126.3h-2.2c-1.1,0-2.2-0.6-2.8-1.2
					c-0.6-0.6-1.2-1.6-1.2-2.8v-1.7c0-0.4,0-0.7,0-1.1V118c0-1.2,0.7-2.2,1.2-2.8c0.6-0.6,1.7-1.2,2.8-1.2h2.2l0,0
					c1.5,0,2.9-0.5,4.1-1.7c2.2-2.2,2.2-5.8,0-8.1c-2.2-2.2-5.8-2.2-8.1,0c-1.1,1.1-1.7,2.6-1.7,4.1l0,0v2.2c0,1.1-0.6,2.2-1.2,2.8
					c-0.6,0.6-1.6,1.2-2.8,1.2h-1.5c-1.7-0.2-3.4,0.3-4.6,1.6c-2.2,2.2-2.2,5.8,0,8.1c1.3,1.3,3,1.8,4.7,1.6h1.5
					c1.2,0,2.2,0.7,2.8,1.2c0.6,0.6,1.2,1.7,1.2,2.8v2.1c0,1.5,0.5,3,1.7,4.2c2.2,2.2,5.8,2.2,8.1,0c2.2-2.2,2.2-5.8,0-8.1
					C-235.7,126.8-237.2,126.3-238.6,126.3z M-254.5,139.9c-2.2,2.2-2.2,5.8,0,8.1c2.2,2.2,5.8,2.2,8.1,0c2.2-2.2,2.2-5.8,0-8.1
					C-248.7,137.6-252.3,137.6-254.5,139.9z M-270.2,100.4c2.2-2.2,2.2-5.8,0-8.1c-2.2-2.3-5.8-2.2-8.1,0c-2.3,2.2-2.2,5.8,0,8.1
					C-276,102.7-272.4,102.7-270.2,100.4z M-258.3,112.3c1.3-1.3,1.8-3,1.6-4.6v-1.6c0-1.2,0.7-2.2,1.2-2.8c0.6-0.6,1.7-1.2,2.8-1.2
					h2.1c1.5,0,3-0.5,4.2-1.7c2.2-2.2,2.2-5.8,0-8.1c-2.2-2.2-5.8-2.2-8.1,0c-1.1,1.1-1.7,2.6-1.7,4l0,0v2.2c0,1.1-0.6,2.2-1.2,2.8
					c-0.6,0.6-1.6,1.2-2.8,1.2h-1.8c-1.6-0.1-3.2,0.4-4.4,1.6c-2.2,2.2-2.2,5.8,0,8.1S-260.6,114.5-258.3,112.3z"/>
			</g>
		</g>
		<rect x="-298" y="85" class="st1" width="70" height="70"/>
	</g>
	<g>
		<g>
			<g>
				<path id="XMLID_8469_" class="st0" d="M-258.4,46.3c2.2,2.2,2.2,5.8,0,8.1c-1.1,1.1-2.6,1.7-4.1,1.7h-2.2c-1,0-2.2,0.6-2.8,1.2
					s-1.2,1.6-1.2,2.8v1.6c0.2,1.6-0.4,3.3-1.6,4.6c-2.2,2.2-5.8,2.2-8.1,0c-2.2-2.2-2.2-5.8,0-8.1c1.3-1.3,2.9-1.8,4.6-1.6h1.6
					c1.2,0,2.2-0.6,2.8-1.2s1.2-1.7,1.2-2.8v-2.2c0-1.5,0.5-3,1.7-4.1C-264.3,44.1-260.7,44.1-258.4,46.3z M-280.6,48.1
					c0-1.2,0.7-2.2,1.2-2.8c0.6-0.6,1.7-1.2,2.8-1.2h1.5c1.7,0.2,3.4-0.3,4.7-1.6c2.2-2.2,2.2-5.8,0-8.1c-1.1-1.1-2.6-1.7-4.1-1.7
					h-2.1c-1.1,0-2.2-0.6-2.8-1.2c-0.6-0.6-1.2-1.6-1.2-2.8v-1.6c0.2-1.6-0.4-3.3-1.6-4.6c-2.2-2.2-5.8-2.2-8.1,0
					c-2.2,2.2-2.2,5.8,0,8.1c1.3,1.3,2.9,1.8,4.6,1.6h1.6c1.2,0,2.2,0.7,2.8,1.2c0.6,0.6,1.2,1.7,1.2,2.8v1.9c0,0.2,0,0.3,0,0.5v2
					c0,1.1-0.6,2.2-1.2,2.8c-0.6,0.6-1.6,1.2-2.8,1.2h-2.2l0,0c-1.5,0-2.9,0.6-4,1.7c-2.2,2.2-2.2,5.8,0,8.1c2.2,2.2,5.8,2.2,8.1,0
					c1.2-1.2,1.7-2.9,1.6-4.4V48.1z M-238.8,44.6L-238.8,44.6h-2.2c-1.1,0-2.2-0.6-2.8-1.2s-1.2-1.6-1.2-2.8v-1.7c0-0.4,0-0.7,0-1.1
					v-1.5c0-1.2,0.7-2.2,1.2-2.8c0.6-0.6,1.7-1.2,2.8-1.2h2.2l0,0c1.5,0,2.9-0.5,4.1-1.7c2.2-2.2,2.2-5.8,0-8.1
					c-2.2-2.2-5.8-2.2-8.1,0c-1.1,1.1-1.7,2.6-1.7,4.1l0,0v2.2c0,1.1-0.6,2.2-1.2,2.8c-0.6,0.6-1.6,1.2-2.8,1.2h-1.5
					c-1.7-0.2-3.4,0.3-4.6,1.6c-2.2,2.2-2.2,5.8,0,8.1c1.3,1.3,3,1.8,4.7,1.6h1.5c1.2,0,2.2,0.7,2.8,1.2c0.6,0.6,1.2,1.7,1.2,2.8
					v2.1c0,1.5,0.5,3,1.7,4.2c2.2,2.2,5.8,2.2,8.1,0c2.2-2.2,2.2-5.8,0-8.1C-235.8,45.2-237.3,44.6-238.8,44.6z M-254.7,58.2
					c-2.2,2.2-2.2,5.8,0,8.1c2.2,2.2,5.8,2.2,8.1,0c2.2-2.2,2.2-5.8,0-8.1C-248.8,55.9-252.4,55.9-254.7,58.2z M-270.3,18.8
					c2.2-2.2,2.2-5.8,0-8.1c-2.2-2.3-5.8-2.2-8.1,0c-2.2,2.2-2.2,5.8,0,8.1C-276.2,21-272.6,21-270.3,18.8z M-258.5,30.6
					c1.3-1.3,1.8-3,1.6-4.6v-1.6c0-1.2,0.7-2.2,1.2-2.8c0.6-0.6,1.7-1.2,2.8-1.2h2.1c1.5,0,3-0.5,4.2-1.7c2.2-2.2,2.2-5.8,0-8.1
					c-2.2-2.2-5.8-2.2-8.1,0c-1.1,1.1-1.7,2.6-1.7,4l0,0v2.2c0,1.1-0.6,2.2-1.2,2.8c-0.6,0.6-1.6,1.2-2.8,1.2h-1.8
					c-1.6-0.1-3.2,0.4-4.4,1.6c-2.2,2.2-2.2,5.8,0,8.1C-264.3,32.8-260.7,32.8-258.5,30.6z"/>
			</g>
		</g>
		<rect x="-298" y="3" class="st1" width="70" height="70"/>
	</g>
</g>
<g>
	<rect x="-119" y="85" class="st1" width="70" height="70"/>
	<g>
		<g>
			<path class="st5" d="M-72.9,115.2c-1.6,0-3.2-0.6-4.5-1.9c-2.4-2.5-2.3-6.4,0.1-8.8l11.5-11.1c2.5-2.4,6.4-2.3,8.8,0.1
				c2.4,2.5,2.3,6.4-0.1,8.8l-11.5,11.1C-69.8,114.6-71.4,115.2-72.9,115.2z"/>
		</g>
		<g>
			<path class="st6" d="M-62.1,148.8c-1.6,0-3.1-0.6-4.3-1.8l-11.5-11.1c-2.5-2.4-2.5-6.3-0.1-8.8s6.3-2.5,8.8-0.1l11.5,11.1
				c2.5,2.4,2.5,6.3,0.1,8.8C-58.9,148.1-60.5,148.8-62.1,148.8z"/>
		</g>
		<g>
			<path class="st7" d="M-105,148.9c-1.5,0-3-0.5-4.2-1.6c-2.6-2.3-2.8-6.2-0.4-8.8l16.5-18.3l-16.5-18.3c-2.3-2.6-2.1-6.5,0.4-8.8
				c2.6-2.3,6.5-2.1,8.8,0.4l20.3,22.5c2.1,2.4,2.1,6,0,8.4l-20.3,22.5C-101.6,148.2-103.3,148.9-105,148.9z"/>
		</g>
	</g>
</g>
<g>
	<rect x="-119" y="3" class="st1" width="70" height="70"/>
	<g>
		<g>
			<path class="st0" d="M-72.9,33.2c-1.6,0-3.2-0.6-4.5-1.9c-2.4-2.5-2.3-6.4,0.1-8.8l11.5-11.1c2.5-2.4,6.4-2.3,8.8,0.1
				c2.4,2.5,2.3,6.4-0.1,8.8l-11.5,11.1C-69.8,32.6-71.4,33.2-72.9,33.2z"/>
		</g>
		<g>
			<path class="st0" d="M-62.1,66.8c-1.6,0-3.1-0.6-4.3-1.8l-11.5-11.1c-2.5-2.4-2.5-6.3-0.1-8.8s6.3-2.5,8.8-0.1l11.5,11.1
				c2.5,2.4,2.5,6.3,0.1,8.8C-58.9,66.1-60.5,66.8-62.1,66.8z"/>
		</g>
		<g>
			<path class="st0" d="M-105,66.9c-1.5,0-3-0.5-4.2-1.6c-2.6-2.3-2.8-6.2-0.4-8.8l16.5-18.3l-16.5-18.3c-2.3-2.6-2.1-6.5,0.4-8.8
				c2.6-2.3,6.5-2.1,8.8,0.4L-80.1,34c2.1,2.4,2.1,6,0,8.4l-20.3,22.5C-101.6,66.2-103.3,66.9-105,66.9z"/>
		</g>
	</g>
</g>
<g>
	<g>
		<g>
			<g>
				<g>
					<g>
						<polygon class="st0" points="-334.8,31.3 -339.8,31.3 -339.8,44.8 -330.5,44.8 -330.5,40.5 -334.8,40.5 						"/>
						<path class="st0" d="M-345.2,40.5v-9.2h-4.9V36l-7,4.4l-1.4-0.8l7-4.4l-3.1-2l-7,4.4l-1.2-0.8l7-4.4l-3.1-2l-7.9,5
							c-1.1-2.9-4-4.1-7.5-4.1h-5.4v13.6h6.6c3.1,0,5.5-1.6,6.4-4.2l7.9,5l8.8-5.5V45h9.3v-4.4L-345.2,40.5L-345.2,40.5z
							 M-374.3,40.8h-0.7v-5.3h0.7c1.8,0,2.9,0.8,2.9,2.7C-371.4,40-372.7,40.8-374.3,40.8L-374.3,40.8z"/>
					</g>
				</g>
				<circle class="st8" cx="-355" cy="38" r="31"/>
			</g>
		</g>
		<rect x="-390" y="3" class="st1" width="70" height="70"/>
	</g>
	<g>
		<g>
			<g>
				<g>
					<g>
						<polygon class="st9" points="-334.8,113.2 -339.7,113.2 -339.7,126.8 -330.4,126.8 -330.4,122.5 -334.8,122.5 						"/>
						<path class="st9" d="M-345.2,122.5v-9.2h-4.9v4.7l-7,4.4l-1.4-0.8l7-4.4l-3.1-2l-7,4.4l-1.2-0.9l7-4.4l-3.1-2l-7.9,5
							c-1.1-2.9-4-4.1-7.5-4.1h-5.4v13.6h6.6c3.1,0,5.5-1.6,6.4-4.2l7.9,5l8.8-5.5v4.8h9.3v-4.4H-345.2L-345.2,122.5z M-374.3,122.7
							h-0.7v-5.3h0.7c1.8,0,2.9,0.8,2.9,2.7C-371.4,122-372.6,122.7-374.3,122.7L-374.3,122.7z"/>
					</g>
				</g>
				<circle class="st10" cx="-355" cy="120" r="31"/>
			</g>
		</g>
		<rect x="-390" y="85" class="st1" width="70" height="70"/>
	</g>
</g>
<g>
	<line class="st11" x1="761.8" y1="-301" x2="798.5" y2="-336.8"/>
	<line class="st12" x1="759.8" y1="-229" x2="796.5" y2="-193.3"/>
	<polyline class="st13" points="658.9,-337.3 724,-265.2 658.9,-193 	"/>
</g>
<g>
	<g>
		<path class="st5" d="M996.8-281c-5.2,0-10.4-2-14.3-6.1c-7.7-7.9-7.5-20.6,0.4-28.3l36.7-35.7c7.9-7.7,20.6-7.5,28.3,0.4
			s7.5,20.6-0.4,28.3l-36.7,35.7C1006.8-282.9,1001.8-281,996.8-281z"/>
	</g>
	<g>
		<path class="st6" d="M1031.5-173.3c-5,0-10.1-1.9-13.9-5.7l-36.7-35.7c-7.9-7.7-8.1-20.4-0.4-28.3s20.4-8.1,28.3-0.4l36.7,35.7
			c7.9,7.7,8.1,20.4,0.4,28.3C1041.9-175.3,1036.7-173.3,1031.5-173.3z"/>
	</g>
	<g>
		<path class="st7" d="M893.8-173c-4.8,0-9.6-1.7-13.4-5.2c-8.2-7.4-8.8-20-1.4-28.2l53.1-58.8L879-323.9
			c-7.4-8.2-6.8-20.8,1.4-28.2c8.2-7.4,20.8-6.8,28.2,1.4l65.2,72.2c6.9,7.6,6.9,19.2,0,26.8l-65.2,72.2
			C904.7-175.2,899.3-173,893.8-173z"/>
	</g>
</g>
<g>
	<rect x="-205" y="3" class="st1" width="70" height="70"/>
	<g>
		<g>
			<path class="st0" d="M-158.9,33.2c-1.6,0-3.2-0.6-4.5-1.9c-2.4-2.5-2.3-6.4,0.1-8.8l11.5-11.1c2.5-2.4,6.4-2.3,8.8,0.1
				s2.3,6.4-0.1,8.8l-11.5,11.1C-155.8,32.6-157.4,33.2-158.9,33.2z"/>
		</g>
		<g>
			<path class="st0" d="M-148.1,66.8c-1.6,0-3.1-0.6-4.3-1.8l-11.5-11.1c-2.5-2.4-2.5-6.3-0.1-8.8c2.4-2.5,6.3-2.5,8.8-0.1
				l11.5,11.1c2.5,2.4,2.5,6.3,0.1,8.8C-144.9,66.1-146.5,66.8-148.1,66.8z"/>
		</g>
		<g>
			<path class="st0" d="M-191,66.9c-1.5,0-3-0.5-4.2-1.6c-2.6-2.3-2.8-6.2-0.4-8.8l16.5-18.3l-16.5-18.3c-2.3-2.6-2.1-6.5,0.4-8.8
				c2.6-2.3,6.5-2.1,8.8,0.4l20.3,22.5c2.1,2.4,2.1,6,0,8.4l-20.3,22.5C-187.6,66.2-189.3,66.9-191,66.9z"/>
		</g>
	</g>
</g>
<g>
	<rect x="-205" y="85" class="st1" width="70" height="70"/>
	<g>
		<g>
			<path class="st5" d="M-158.9,115.2c-1.6,0-3.2-0.6-4.5-1.9c-2.4-2.5-2.3-6.4,0.1-8.8l11.5-11.1c2.5-2.4,6.4-2.3,8.8,0.1
				c2.4,2.5,2.3,6.4-0.1,8.8l-11.5,11.1C-155.8,114.6-157.4,115.2-158.9,115.2z"/>
		</g>
		<g>
			<path class="st6" d="M-148.1,148.8c-1.6,0-3.1-0.6-4.3-1.8l-11.5-11.1c-2.5-2.4-2.5-6.3-0.1-8.8c2.4-2.5,6.3-2.5,8.8-0.1
				l11.5,11.1c2.5,2.4,2.5,6.3,0.1,8.8C-144.9,148.1-146.5,148.8-148.1,148.8z"/>
		</g>
		<g>
			<path class="st7" d="M-191,148.9c-1.5,0-3-0.5-4.2-1.6c-2.6-2.3-2.8-6.2-0.4-8.8l16.5-18.3l-16.5-18.3c-2.3-2.6-2.1-6.5,0.4-8.8
				c2.6-2.3,6.5-2.1,8.8,0.4l20.3,22.5c2.1,2.4,2.1,6,0,8.4l-20.3,22.5C-187.6,148.2-189.3,148.9-191,148.9z"/>
		</g>
	</g>
</g>
<g id="XMLID_1650_">
	<circle id="XMLID_1659_" class="st14" cx="29.5" cy="29.5" r="26.5"/>
	<g id="XMLID_1651_">
		<g id="XMLID_1652_">
			<path id="XMLID_1656_" class="st15" d="M36.7,17.4l2-2c0.5-0.5,0.5-1.4,0-2l-0.1-0.1c-0.5-0.5-1.4-0.5-2,0l-2.1,2.1
				c-1.6-1.1-3.6-1.7-5.7-1.7c-5.7,0-10.4,4.7-10.4,10.4s4.7,10.4,10.4,10.4s10.4-4.7,10.4-10.4C39.2,21.6,38.3,19.2,36.7,17.4z
				 M28.9,31.6c-4.1,0-7.4-3.3-7.4-7.4s3.3-7.4,7.4-7.4s7.4,3.3,7.4,7.4S33,31.6,28.9,31.6z"/>
			<g id="XMLID_1653_">
				<g id="XMLID_1654_">
					<path id="XMLID_1655_" class="st16" d="M39.2,48.5L39.2,48.5c-0.8,0-1.4-0.6-1.4-1.4v0c0-4.2-2.7-8-6.8-8.9
						c-3.3-0.8-6.6,0.3-8.8,2.7c-0.5,0.5-1.3,0.7-1.9,0.3h0c-0.7-0.5-0.8-1.5-0.2-2.2c2.6-2.9,6.5-4.4,10.5-3.8
						c5.8,0.9,10,6.1,10,12v0C40.6,47.9,40,48.5,39.2,48.5z"/>
				</g>
			</g>
		</g>
	</g>
</g>
</svg>
