<?xml version="1.0" encoding="utf-8"?>
<!-- Generator: Adobe Illustrator 21.1.0, SVG Export Plug-In . SVG Version: 6.00 Build 0)  -->
<svg version="1.1" id="Layer_1" xmlns="http://www.w3.org/2000/svg" xmlns:xlink="http://www.w3.org/1999/xlink" x="0px" y="0px"
	 viewBox="0 0 177.6 68.3" style="enable-background:new 0 0 177.6 68.3;" xml:space="preserve">
<style type="text/css">
	.st0{fill:#6D6E71;}
	.st1{opacity:0.5;fill:none;}
	.st2{fill-rule:evenodd;clip-rule:evenodd;fill:#6D6E71;}
	.st3{fill:none;stroke:#6D6E71;stroke-width:3.74;stroke-miterlimit:10;}
	.st4{fill:url(#XMLID_4_);}
	.st5{fill-rule:evenodd;clip-rule:evenodd;fill:#057DB7;}
	.st6{fill:none;stroke:#057DB7;stroke-width:3.74;stroke-miterlimit:10;}
	.st7{fill:#7AC4EA;}
	.st8{fill:#0A6093;}
</style>
<g>
	<g>
		<path id="XMLID_8469_" class="st0" d="M-144.4-123.7c2.2,2.2,2.2,5.8,0,8.1c-1.1,1.1-2.6,1.7-4.1,1.7h-2.2c-1,0-2.2,0.6-2.8,1.2
			c-0.6,0.6-1.2,1.6-1.2,2.8v1.6c0.2,1.6-0.4,3.3-1.6,4.6c-2.2,2.2-5.8,2.2-8.1,0c-2.2-2.2-2.2-5.8,0-8.1c1.3-1.3,2.9-1.8,4.6-1.6
			h1.6c1.2,0,2.2-0.6,2.8-1.2c0.6-0.6,1.2-1.7,1.2-2.8v-2.2c0-1.5,0.5-3,1.7-4.1C-150.3-125.9-146.7-125.9-144.4-123.7z
			 M-166.6-121.9c0-1.2,0.7-2.2,1.2-2.8c0.6-0.6,1.7-1.2,2.8-1.2h1.5c1.7,0.2,3.4-0.3,4.7-1.6c2.2-2.2,2.2-5.8,0-8.1
			c-1.1-1.1-2.6-1.7-4.1-1.7h-2.1c-1.1,0-2.2-0.6-2.8-1.2c-0.6-0.6-1.2-1.6-1.2-2.8v-1.6c0.2-1.6-0.4-3.3-1.6-4.6
			c-2.2-2.2-5.8-2.2-8.1,0c-2.2,2.2-2.2,5.8,0,8.1c1.3,1.3,2.9,1.8,4.6,1.6h1.6c1.2,0,2.2,0.7,2.8,1.2c0.6,0.6,1.2,1.7,1.2,2.8v1.9
			c0,0.2,0,0.3,0,0.5v2c0,1.1-0.6,2.2-1.2,2.8c-0.6,0.6-1.6,1.2-2.8,1.2h-2.2l0,0c-1.5,0-2.9,0.6-4,1.7c-2.2,2.2-2.2,5.8,0,8.1
			c2.2,2.2,5.8,2.2,8.1,0c1.2-1.2,1.7-2.9,1.6-4.4V-121.9z M-124.8-125.4L-124.8-125.4l-2.2,0c-1.1,0-2.2-0.6-2.8-1.2
			c-0.6-0.6-1.2-1.6-1.2-2.8v-1.7c0-0.4,0-0.7,0-1.1v-1.5c0-1.2,0.7-2.2,1.2-2.8c0.6-0.6,1.7-1.2,2.8-1.2h2.2l0,0
			c1.5,0,2.9-0.5,4.1-1.7c2.2-2.2,2.2-5.8,0-8.1c-2.2-2.2-5.8-2.2-8.1,0c-1.1,1.1-1.7,2.6-1.7,4.1l0,0v2.2c0,1.1-0.6,2.2-1.2,2.8
			c-0.6,0.6-1.6,1.2-2.8,1.2h-1.5c-1.7-0.2-3.4,0.3-4.6,1.6c-2.2,2.2-2.2,5.8,0,8.1c1.3,1.3,3,1.8,4.7,1.6h1.5
			c1.2,0,2.2,0.7,2.8,1.2c0.6,0.6,1.2,1.7,1.2,2.8v2.1c0,1.5,0.5,3,1.7,4.2c2.2,2.2,5.8,2.2,8.1,0c2.2-2.2,2.2-5.8,0-8.1
			C-121.8-124.8-123.3-125.4-124.8-125.4z M-140.7-111.8c-2.2,2.2-2.2,5.8,0,8.1c2.2,2.2,5.8,2.2,8.1,0c2.2-2.2,2.2-5.8,0-8.1
			C-134.8-114.1-138.4-114.1-140.7-111.8z M-156.3-151.2c2.2-2.2,2.2-5.8,0-8.1s-5.8-2.2-8.1,0c-2.2,2.2-2.2,5.8,0,8.1
			C-162.2-149-158.6-149-156.3-151.2z M-144.5-139.4c1.3-1.3,1.8-3,1.6-4.6v-1.6c0-1.2,0.7-2.2,1.2-2.8c0.6-0.6,1.7-1.2,2.8-1.2h2.1
			c1.5,0,3-0.5,4.2-1.7c2.2-2.2,2.2-5.8,0-8.1c-2.2-2.2-5.8-2.2-8.1,0c-1.1,1.1-1.7,2.6-1.7,4l0,0v2.2c0,1.1-0.6,2.2-1.2,2.8
			c-0.6,0.6-1.6,1.2-2.8,1.2h-1.8c-1.6-0.1-3.2,0.4-4.4,1.6c-2.2,2.2-2.2,5.8,0,8.1C-150.3-137.2-146.7-137.2-144.5-139.4z"/>
	</g>
	<rect id="XMLID_8468_" x="-237.3" y="-165.7" class="st1" width="177.6" height="68.3"/>
</g>
<g>
	<rect id="XMLID_8467_" x="-0.1" y="-165.7" class="st1" width="177.6" height="68.3"/>
	<g>
		<g>
			<g>
				<polygon class="st2" points="108.9,-138.2 103.9,-138.2 103.9,-124.7 113.2,-124.7 113.2,-129 108.9,-129 108.9,-138.2 				"/>
				<path class="st2" d="M98.5-129v-9.2h-4.9l0,4.7l-7,4.4l-1.4-0.8l7-4.4l-3.1-2l-7,4.4l-1.2-0.8l7-4.4l-3.1-2l-7.9,5
					c-1.1-2.9-4-4.1-7.5-4.1h-5.4v13.6h6.6c3.1,0,5.5-1.6,6.4-4.2l7.9,5l8.8-5.5l0,4.8h9.3v-4.4H98.5L98.5-129z M69.4-128.7h-0.7
					v-5.3h0.7c1.8,0,2.9,0.8,2.9,2.7C72.3-129.5,71-128.7,69.4-128.7L69.4-128.7z"/>
			</g>
		</g>
		<circle class="st3" cx="88.7" cy="-131.5" r="31"/>
	</g>
</g>
<g>
	<rect id="XMLID_8466_" x="245.9" y="-165.7" class="st1" width="177.6" height="68.3"/>
	<g>
		<g id="XMLID_8079_">
			<g>
				<g id="XMLID_669_">
					<path class="st0" d="M320.8-148l-0.7-2.6l-7.1,1.2c-0.6,1.6-1,3.2-1.2,4.9L320.8-148z"/>
				</g>
				<g id="XMLID_668_">
					<polygon class="st0" points="329.5,-150.5 323.9,-148.3 324.9,-143.5 330,-145.3 					"/>
				</g>
				<g id="XMLID_667_">
					<path class="st0" d="M319.9-151.3l-1.7-6.1c-2,2.1-3.6,4.5-4.8,7.2L319.9-151.3z"/>
				</g>
				<g id="XMLID_666_">
					<polygon class="st0" points="318.4,-134.7 323.5,-135.7 322.8,-140.5 317.9,-138.8 					"/>
				</g>
				<g id="XMLID_665_">
					<polygon class="st0" points="317,-145.6 317.8,-139.7 322.7,-141.3 322.5,-142.6 324.1,-143.2 323.1,-148 					"/>
				</g>
				<g id="XMLID_664_">
					<path class="st0" d="M329.6-158.9l9.5-4.9c-1.4-0.3-2.9-0.4-4.4-0.4c-1.9,0-3.7,0.2-5.5,0.7L329.6-158.9z"/>
				</g>
				<g id="XMLID_663_">
					<path class="st0" d="M318.6-126.9l-0.9-6.9l-5.1,1c0.4,2.2,1.1,4.7,2,7.4l4.4-1.6L318.6-126.9z"/>
				</g>
				<g id="XMLID_662_">
					<path class="st0" d="M349.9-158.5l-1.7,0.7l1.9,5.2l3.7-1.4C352.8-155.7,351.4-157.2,349.9-158.5z"/>
				</g>
				<g id="XMLID_643_">
					<g id="XMLID_661_">
						<polygon class="st0" points="353.4,-147.8 350.2,-147.2 348.2,-143.2 353,-142.4 						"/>
					</g>
					<g id="XMLID_660_">
						<polygon class="st0" points="347,-142.6 343.4,-143.3 341.2,-138.3 345.1,-138.7 						"/>
					</g>
					<g id="XMLID_659_">
						<polygon class="st0" points="350.3,-149.2 344.8,-147.2 348.3,-145.2 349.6,-147.9 349.6,-147.9 349.6,-147.9 						"/>
					</g>
					<g id="XMLID_658_">
						<polygon class="st0" points="339.1,-138.2 340.3,-138.3 342.5,-143.4 340.1,-143.8 						"/>
					</g>
					<g id="XMLID_657_">
						<polygon class="st0" points="352.7,-138.4 345.3,-137.3 344,-134.6 350.4,-135.4 350,-134.6 352.5,-135.1 						"/>
					</g>
					<g id="XMLID_656_">
						<path class="st0" d="M355.7-137.5l1.7,0.7c0.1-0.6,0.1-1.1,0.2-1.7c0.1-0.5,0.1-1.1,0.1-1.6L355.7-137.5z"/>
					</g>
					<g id="XMLID_655_">
						<polygon class="st0" points="352,-128.8 348.7,-126.8 348.6,-126.9 348.8,-122.3 351.5,-122.2 						"/>
					</g>
					<g id="XMLID_654_">
						<polygon class="st0" points="349.6,-133.7 348.4,-130.6 348.4,-130.6 348.6,-127.6 352.1,-129.8 352.4,-134.3 						"/>
					</g>
					<g id="XMLID_653_">
						<polygon class="st0" points="353,-141.5 347.8,-142.5 345.7,-138.2 352.8,-139.3 						"/>
					</g>
					<g id="XMLID_652_">
						<polygon class="st0" points="347.7,-128.9 345,-122.3 348,-122.3 						"/>
					</g>
					<g id="XMLID_651_">
						<polygon class="st0" points="344.6,-137.8 338.9,-137.3 338.3,-133.9 343,-134.5 						"/>
					</g>
					<g id="XMLID_650_">
						<polygon class="st0" points="347.4,-143.4 347.9,-144.5 343.8,-146.8 340.4,-145.6 340.2,-144.7 						"/>
					</g>
					<g id="XMLID_649_">
						<path class="st0" d="M352.7-126.7l-0.3,4.5l1.1,0c0.6-1.4,1.2-2.9,1.7-4.5H352.7z"/>
					</g>
					<g id="XMLID_648_">
						<path class="st0" d="M353.5-137.6l-0.2,2.6l0.1,0.5l-0.1,0l-0.2,2.6l3.7-1.1c0.2-1,0.4-2,0.5-3L353.5-137.6z"/>
					</g>
					<g id="XMLID_647_">
						<path class="st0" d="M356.6-132.1l-3.6,1l-0.3,3.5h2.6C355.9-129,356.3-130.5,356.6-132.1z"/>
					</g>
					<g id="XMLID_646_">
						<path class="st0" d="M350.7-148.1l5.6-1.2c-0.2-0.6-0.5-1.2-0.8-1.8l-4.2,1.5L350.7-148.1z"/>
					</g>
					<g id="XMLID_645_">
						<path class="st0" d="M353.6-138.4l1.4,0.6l2.8-3.7c0-0.9-0.1-1.9-0.2-2.8l-3.5,0.3L353.6-138.4z"/>
					</g>
					<g id="XMLID_644_">
						<path class="st0" d="M354.3-148l-0.2,3.1l3.3-0.3c-0.2-1.1-0.5-2.2-0.8-3.3L354.3-148z"/>
					</g>
				</g>
				<g id="XMLID_640_">
					<g id="XMLID_642_">
						<path class="st0" d="M316.9-140.3l-0.7-4.9l-4.5,1.8c-0.1,0.7-0.1,1.5-0.1,2.2c0,0,0,0.2,0,0.5L316.9-140.3z"/>
					</g>
					<g id="XMLID_641_">
						<path class="st0" d="M317-139.5l-5.3-0.5c0,0,0,0.1,0,0.1c0.1,1.3,0.3,3.5,0.8,6.3l5.2-1L317-139.5z"/>
					</g>
				</g>
				<g id="XMLID_637_">
					<g id="XMLID_639_">
						<polygon class="st0" points="323.2,-134.8 318.5,-133.9 319.4,-127.5 						"/>
					</g>
					<g id="XMLID_638_">
						<polygon class="st0" points="324.5,-128.9 323.7,-134.2 320.2,-127.4 						"/>
					</g>
				</g>
				<g id="XMLID_634_">
					<g id="XMLID_636_">
						<path class="st0" d="M325.1-158.2l3.5-3l-0.2-2.2c-1.7,0.5-3.3,1.2-4.8,2L325.1-158.2z"/>
					</g>
					<g id="XMLID_635_">
						<path class="st0" d="M322.9-161c-1.4,0.9-2.8,1.9-4,3l1.2,4.1l4.4-3.8L322.9-161z"/>
					</g>
				</g>
				<g id="XMLID_631_">
					<g id="XMLID_633_">
						<path class="st0" d="M345.3-161.7l-4.6,2.5l3.6,2l4.8-1.9C348-160.1,346.7-161,345.3-161.7z"/>
					</g>
					<g id="XMLID_632_">
						<path class="st0" d="M344.4-162.1c-1.3-0.6-2.7-1.1-4.1-1.5l-3.9,2l3.5,1.9L344.4-162.1z"/>
					</g>
				</g>
				<g id="XMLID_628_">
					<g id="XMLID_630_">
						<polygon class="st0" points="333.8,-153.1 343.4,-156.8 335.6,-161.1 334.4,-160.5 						"/>
					</g>
					<g id="XMLID_629_">
						<polygon class="st0" points="333.4,-160 329.7,-158.1 330.2,-151.7 332.9,-152.7 						"/>
					</g>
				</g>
				<g id="XMLID_600_">
					<g id="XMLID_627_">
						<polygon class="st0" points="331.5,-108.8 331.8,-114 328.5,-114.1 327.8,-109.6 						"/>
					</g>
					<g id="XMLID_626_">
						<polygon class="st0" points="328.6,-114.9 333.8,-114.7 334.7,-119.1 329.2,-119.2 						"/>
					</g>
					<g id="XMLID_625_">
						<polygon class="st0" points="320.2,-115.3 327.8,-115 328,-116.6 321.7,-118.2 						"/>
					</g>
					<g id="XMLID_624_">
						<polygon class="st0" points="327.6,-114.2 324.4,-114.3 323.8,-112 327.2,-111.4 						"/>
					</g>
					<g id="XMLID_623_">
						<polygon class="st0" points="333.8,-107.5 327.7,-108.8 327.3,-106.5 332.9,-104.8 						"/>
					</g>
					<g id="XMLID_622_">
						<path class="st0" d="M319.3-115.3L319.3-115.3l1.6-3.1l-3.8-0.9C317.8-118,318.5-116.7,319.3-115.3z"/>
					</g>
					<g id="XMLID_621_">
						<polygon class="st0" points="335.6,-105 336.4,-106.9 334.7,-107.3 334.1,-105.8 						"/>
					</g>
					<g id="XMLID_620_">
						<path class="st0" d="M323.1-109.7c1,1.3,2.1,2.6,3.3,3.9l0.7-4.8l-3.6-0.7L323.1-109.7z"/>
					</g>
					<g id="XMLID_619_">
						<polygon class="st0" points="340.5,-119.1 344.8,-116.5 348.2,-119 						"/>
					</g>
					<g id="XMLID_618_">
						<polygon class="st0" points="332.7,-114 332.3,-108.6 335.5,-107.9 335.4,-113.9 						"/>
					</g>
					<g id="XMLID_617_">
						<path class="st0" d="M333.8-105l-1.6,4.5l-0.4-0.1c0.2,0.2,0.4,0.4,0.7,0.5l4.2-3.3L333.8-105z"/>
					</g>
					<g id="XMLID_616_">
						<polygon class="st0" points="347.1,-114.3 342.7,-116.9 341.6,-114.5 						"/>
					</g>
					<g id="XMLID_615_">
						<polygon class="st0" points="334.7,-114.7 340.7,-114.5 342,-117.3 339,-119.1 335.6,-119.1 						"/>
					</g>
					<g id="XMLID_614_">
						<path class="st0" d="M323.6-114.3l-3.7-0.1c0.8,1.3,1.7,2.6,2.7,3.9L323.6-114.3z"/>
					</g>
					<g id="XMLID_613_">
						<path class="st0" d="M321.3-119.2l3.2-6.2l-8.6,3.1c0.3,0.7,0.6,1.3,0.9,2L321.3-119.2z"/>
					</g>
					<g id="XMLID_612_">
						<polygon class="st0" points="325,-125.6 325,-125.6 325,-125.6 						"/>
					</g>
					<g id="XMLID_611_">
						<polygon class="st0" points="322.1,-119 328.1,-117.5 328.4,-119.2 325.9,-119.2 325.1,-124.9 						"/>
					</g>
					<g id="XMLID_610_">
						<path class="st0" d="M349.6-119l-4,3l3,1.8l0.6,0c0.9-1.5,1.9-3.1,2.7-4.7L349.6-119z"/>
					</g>
					<g id="XMLID_609_">
						<path class="st0" d="M332.6-104l-5.4-1.6l-0.1,0.6c1.3,1.4,2.8,2.8,4.4,4.1L332.6-104z"/>
					</g>
					<g id="XMLID_608_">
						<path class="st0" d="M341.1-105.9l-2.9,2.3l1.6,0.8c0.9-0.8,1.8-1.8,2.8-2.8L341.1-105.9z"/>
					</g>
					<g id="XMLID_607_">
						<polygon class="st0" points="341.1,-108.8 338.3,-113.8 336.3,-113.8 336.4,-107.7 340.4,-106.9 						"/>
					</g>
					<g id="XMLID_606_">
						<polygon class="st0" points="337.2,-106.7 336.3,-104.6 337.4,-104 340,-106.1 						"/>
					</g>
					<g id="XMLID_605_">
						<path class="st0" d="M334.4-100.6l-1.2,1c0.4,0.3,0.7,0.6,1.1,0.9L334.4-100.6z"/>
					</g>
					<g id="XMLID_604_">
						<path class="st0" d="M339.1-102.2l-1.6-0.9l-2.4,1.9l0.1,0l-0.1,2.3C335.9-99.4,337.3-100.5,339.1-102.2z"/>
					</g>
					<g id="XMLID_603_">
						<path class="st0" d="M343.8-113.6l-0.8,2l2.6,2.4c1-1.3,2.1-2.7,3.1-4.2L343.8-113.6z"/>
					</g>
					<g id="XMLID_602_">
						<path class="st0" d="M345.1-108.5l-2.4-2.3l-1.6,4l2,0.4C343.8-107,344.4-107.7,345.1-108.5z"/>
					</g>
					<g id="XMLID_601_">
						<polygon class="st0" points="342.9,-113.6 339.3,-113.7 341.5,-109.8 						"/>
					</g>
				</g>
				<g id="XMLID_597_">
					<g id="XMLID_599_">
						<polygon class="st0" points="344.1,-150.4 349.4,-152.4 347.4,-157.5 343,-155.8 						"/>
					</g>
					<g id="XMLID_598_">
						<polygon class="st0" points="342.2,-155.5 338,-153.8 341.7,-149.6 343.3,-150.2 						"/>
					</g>
				</g>
				<g id="XMLID_594_">
					<g id="XMLID_596_">
						<polygon class="st0" points="338.8,-148.5 340.8,-149.3 337.2,-153.5 332.9,-151.8 						"/>
					</g>
					<g id="XMLID_595_">
						<polygon class="st0" points="331.9,-151.4 330.3,-150.8 330.8,-145.6 337.8,-148.2 						"/>
					</g>
				</g>
				<g id="XMLID_591_">
					<g id="XMLID_593_">
						<polygon class="st0" points="327,-150.4 323,-155.4 320.3,-153.1 320.3,-153.1 321.6,-148.3 323,-148.8 323,-148.9 
							323.4,-149 						"/>
					</g>
					<g id="XMLID_592_">
						<polygon class="st0" points="327.8,-150.7 329.4,-151.4 328.7,-160.2 323.6,-155.9 						"/>
					</g>
				</g>
			</g>
		</g>
		<polygon id="XMLID_8077_" class="st0" points="325.3,-140.4 327.9,-122.5 340.4,-122.4 344.1,-131.1 333.8,-130 335.7,-144.2 		
			"/>
	</g>
</g>
<g>
	<g>
		<linearGradient id="XMLID_4_" gradientUnits="userSpaceOnUse" x1="-169.0721" y1="54.8499" x2="-128.006" y2="13.7838">
			<stop  offset="0" style="stop-color:#F05A44"/>
			<stop  offset="1" style="stop-color:#613E97"/>
		</linearGradient>
		<path id="XMLID_5189_" class="st4" d="M-144.3,42c2.2,2.2,2.2,5.8,0,8.1c-1.1,1.1-2.6,1.7-4.1,1.7h-2.2c-1,0-2.2,0.6-2.8,1.2
			c-0.6,0.6-1.2,1.6-1.2,2.8v1.6c0.2,1.6-0.4,3.3-1.6,4.6c-2.2,2.2-5.8,2.2-8.1,0c-2.2-2.2-2.2-5.8,0-8.1c1.3-1.3,2.9-1.8,4.6-1.6
			h1.6c1.2,0,2.2-0.6,2.8-1.2c0.6-0.6,1.2-1.7,1.2-2.8v-2.2c0-1.5,0.5-3,1.7-4.1C-150.1,39.7-146.5,39.7-144.3,42z M-166.4,43.8
			c0-1.2,0.7-2.2,1.2-2.8c0.6-0.6,1.7-1.2,2.8-1.2h1.5c1.7,0.2,3.4-0.3,4.7-1.6c2.2-2.2,2.2-5.8,0-8.1c-1.1-1.1-2.6-1.7-4.1-1.7
			h-2.1c-1.1,0-2.2-0.6-2.8-1.2c-0.6-0.6-1.2-1.6-1.2-2.8v-1.6c0.2-1.6-0.4-3.3-1.6-4.6c-2.2-2.2-5.8-2.2-8.1,0
			c-2.2,2.2-2.2,5.8,0,8.1c1.3,1.3,2.9,1.8,4.6,1.6h1.6c1.2,0,2.2,0.7,2.8,1.2c0.6,0.6,1.2,1.7,1.2,2.8v1.9c0,0.2,0,0.3,0,0.5v2
			c0,1.1-0.6,2.2-1.2,2.8c-0.6,0.6-1.6,1.2-2.8,1.2h-2.2l0,0c-1.5,0-2.9,0.6-4,1.7c-2.2,2.2-2.2,5.8,0,8.1c2.2,2.2,5.8,2.2,8.1,0
			c1.2-1.2,1.7-2.9,1.6-4.4V43.8z M-124.6,40.3L-124.6,40.3l-2.2,0c-1.1,0-2.2-0.6-2.8-1.2c-0.6-0.6-1.2-1.6-1.2-2.8v-1.7
			c0-0.4,0-0.7,0-1.1V32c0-1.2,0.7-2.2,1.2-2.8c0.6-0.6,1.7-1.2,2.8-1.2h2.2l0,0c1.5,0,2.9-0.5,4.1-1.7c2.2-2.2,2.2-5.8,0-8.1
			c-2.2-2.2-5.8-2.2-8.1,0c-1.1,1.1-1.7,2.6-1.7,4.1l0,0v2.2c0,1.1-0.6,2.2-1.2,2.8c-0.6,0.6-1.6,1.2-2.8,1.2h-1.5
			c-1.7-0.2-3.4,0.3-4.6,1.6c-2.2,2.2-2.2,5.8,0,8.1c1.3,1.3,3,1.8,4.7,1.6h1.5c1.2,0,2.2,0.7,2.8,1.2c0.6,0.6,1.2,1.7,1.2,2.8v2.1
			c0,1.5,0.5,3,1.7,4.2c2.2,2.2,5.8,2.2,8.1,0c2.2-2.2,2.2-5.8,0-8.1C-121.7,40.8-123.2,40.3-124.6,40.3z M-140.5,53.9
			c-2.2,2.2-2.2,5.8,0,8.1c2.2,2.2,5.8,2.2,8.1,0c2.2-2.2,2.2-5.8,0-8.1C-134.7,51.6-138.3,51.6-140.5,53.9z M-156.2,14.4
			c2.2-2.2,2.2-5.8,0-8.1s-5.8-2.2-8.1,0s-2.2,5.8,0,8.1C-162,16.7-158.4,16.7-156.2,14.4z M-144.3,26.3c1.3-1.3,1.8-3,1.6-4.6v-1.6
			c0-1.2,0.7-2.2,1.2-2.8c0.6-0.6,1.7-1.2,2.8-1.2h2.1c1.5,0,3-0.5,4.2-1.7c2.2-2.2,2.2-5.8,0-8.1c-2.2-2.2-5.8-2.2-8.1,0
			c-1.1,1.1-1.7,2.6-1.7,4l0,0v2.2c0,1.1-0.6,2.2-1.2,2.8c-0.6,0.6-1.6,1.2-2.8,1.2h-1.8c-1.6-0.1-3.2,0.4-4.4,1.6
			c-2.2,2.2-2.2,5.8,0,8.1C-150.2,28.5-146.6,28.5-144.3,26.3z"/>
	</g>
	<rect id="XMLID_5188_" x="-237.2" class="st1" width="177.6" height="68.3"/>
</g>
<g>
	<rect id="XMLID_5184_" class="st1" width="177.6" height="68.3"/>
	<g>
		<g>
			<g>
				<polygon class="st5" points="109,27.4 104.1,27.4 104.1,41 113.4,41 113.4,36.7 109,36.7 109,27.4 				"/>
				<path class="st5" d="M98.6,36.7v-9.2h-4.9l0,4.7l-7,4.4l-1.4-0.8l7-4.4l-3.1-2l-7,4.4L81,32.9l7-4.4l-3.1-2l-7.9,5
					c-1.1-2.9-4-4.1-7.5-4.1h-5.4V41h6.6c3.1,0,5.5-1.6,6.4-4.2l7.9,5l8.8-5.5l0,4.8h9.3v-4.4H98.6L98.6,36.7z M69.5,36.9h-0.7v-5.3
					h0.7c1.8,0,2.9,0.8,2.9,2.7C72.4,36.2,71.2,36.9,69.5,36.9L69.5,36.9z"/>
			</g>
		</g>
		<circle class="st6" cx="88.8" cy="34.2" r="31"/>
	</g>
</g>
<g>
	<rect id="XMLID_5181_" x="245" class="st1" width="177.6" height="68.3"/>
	<g>
		<g id="XMLID_678_">
			<g>
				<g id="XMLID_753_">
					<path class="st7" d="M320,17.7l-0.7-2.6l-7.1,1.2c-0.6,1.6-1,3.2-1.2,4.9L320,17.7z"/>
				</g>
				<g id="XMLID_752_">
					<polygon class="st7" points="328.7,15.2 323,17.4 324,22.2 329.1,20.4 					"/>
				</g>
				<g id="XMLID_751_">
					<path class="st7" d="M319,14.4l-1.7-6.1c-2,2.1-3.6,4.5-4.8,7.2L319,14.4z"/>
				</g>
				<g id="XMLID_750_">
					<polygon class="st7" points="317.6,30.9 322.7,30 321.9,25.2 317,26.8 					"/>
				</g>
				<g id="XMLID_748_">
					<polygon class="st7" points="316.1,20.1 316.9,26 321.8,24.3 321.6,23.1 323.2,22.5 322.3,17.7 					"/>
				</g>
				<g id="XMLID_747_">
					<path class="st7" d="M328.8,6.7l9.5-4.9c-1.4-0.3-2.9-0.4-4.4-0.4c-1.9,0-3.7,0.2-5.5,0.7L328.8,6.7z"/>
				</g>
				<g id="XMLID_746_">
					<path class="st7" d="M317.8,38.8l-0.9-6.9l-5.1,1c0.4,2.2,1.1,4.7,2,7.4l4.4-1.6L317.8,38.8z"/>
				</g>
				<g id="XMLID_745_">
					<path class="st7" d="M349.1,7.2l-1.7,0.7l1.9,5.2l3.7-1.4C351.9,10,350.6,8.5,349.1,7.2z"/>
				</g>
				<g id="XMLID_726_">
					<g id="XMLID_744_">
						<polygon class="st7" points="352.6,17.9 349.3,18.5 347.4,22.5 352.2,23.3 						"/>
					</g>
					<g id="XMLID_743_">
						<polygon class="st7" points="346.1,23.1 342.5,22.4 340.3,27.3 344.2,27 						"/>
					</g>
					<g id="XMLID_742_">
						<polygon class="st7" points="349.4,16.5 343.9,18.5 347.4,20.5 348.8,17.8 348.7,17.8 348.8,17.8 						"/>
					</g>
					<g id="XMLID_741_">
						<polygon class="st7" points="338.2,27.5 339.4,27.4 341.7,22.3 339.2,21.8 						"/>
					</g>
					<g id="XMLID_740_">
						<polygon class="st7" points="351.9,27.2 344.4,28.4 343.1,31.1 349.5,30.2 349.2,31.1 351.6,30.6 						"/>
					</g>
					<g id="XMLID_739_">
						<path class="st7" d="M354.8,28.2l1.7,0.7c0.1-0.6,0.1-1.1,0.2-1.7c0.1-0.5,0.1-1.1,0.1-1.6L354.8,28.2z"/>
					</g>
					<g id="XMLID_738_">
						<polygon class="st7" points="351.2,36.9 347.8,38.9 347.7,38.8 347.9,43.4 350.7,43.4 						"/>
					</g>
					<g id="XMLID_737_">
						<polygon class="st7" points="348.8,32 347.5,35 347.6,35 347.7,38 351.2,35.9 351.6,31.4 						"/>
					</g>
					<g id="XMLID_736_">
						<polygon class="st7" points="352.1,24.1 347,23.2 344.9,27.5 351.9,26.4 						"/>
					</g>
					<g id="XMLID_735_">
						<polygon class="st7" points="346.8,36.7 344.1,43.4 347.1,43.4 						"/>
					</g>
					<g id="XMLID_734_">
						<polygon class="st7" points="343.8,27.9 338.1,28.4 337.5,31.8 342.1,31.2 						"/>
					</g>
					<g id="XMLID_733_">
						<polygon class="st7" points="346.5,22.3 347.1,21.2 342.9,18.9 339.5,20.1 339.3,21 						"/>
					</g>
					<g id="XMLID_732_">
						<path class="st7" d="M351.8,39l-0.3,4.5l1.1,0c0.6-1.4,1.2-2.9,1.7-4.5H351.8z"/>
					</g>
					<g id="XMLID_731_">
						<path class="st7" d="M352.6,28.1l-0.2,2.6l0.1,0.5l-0.1,0l-0.2,2.6l3.7-1.1c0.2-1,0.4-2,0.5-3L352.6,28.1z"/>
					</g>
					<g id="XMLID_730_">
						<path class="st7" d="M355.7,33.6l-3.6,1l-0.3,3.5h2.6C355,36.7,355.4,35.2,355.7,33.6z"/>
					</g>
					<g id="XMLID_729_">
						<path class="st7" d="M349.8,17.6l5.6-1.2c-0.2-0.6-0.5-1.2-0.8-1.8l-4.2,1.5L349.8,17.6z"/>
					</g>
					<g id="XMLID_728_">
						<path class="st7" d="M352.7,27.3l1.4,0.6l2.8-3.7c0-0.9-0.1-1.9-0.2-2.8l-3.5,0.3L352.7,27.3z"/>
					</g>
					<g id="XMLID_727_">
						<path class="st7" d="M353.4,17.7l-0.2,3.1l3.3-0.3c-0.2-1.1-0.5-2.2-0.8-3.3L353.4,17.7z"/>
					</g>
				</g>
				<g id="XMLID_723_">
					<g id="XMLID_725_">
						<path class="st7" d="M316,25.4l-0.7-4.9l-4.5,1.8c-0.1,0.7-0.1,1.5-0.1,2.2c0,0,0,0.2,0,0.5L316,25.4z"/>
					</g>
					<g id="XMLID_724_">
						<path class="st7" d="M316.1,26.2l-5.3-0.5c0,0,0,0.1,0,0.1c0.1,1.3,0.3,3.5,0.8,6.3l5.2-1L316.1,26.2z"/>
					</g>
				</g>
				<g id="XMLID_720_">
					<g id="XMLID_722_">
						<polygon class="st7" points="322.3,30.9 317.7,31.8 318.5,38.2 						"/>
					</g>
					<g id="XMLID_721_">
						<polygon class="st7" points="323.7,36.8 322.9,31.5 319.4,38.3 						"/>
					</g>
				</g>
				<g id="XMLID_717_">
					<g id="XMLID_719_">
						<path class="st7" d="M324.2,7.4l3.5-3l-0.2-2.2c-1.7,0.5-3.3,1.2-4.8,2L324.2,7.4z"/>
					</g>
					<g id="XMLID_718_">
						<path class="st7" d="M322,4.6c-1.4,0.9-2.8,1.9-4,3l1.2,4.1l4.4-3.8L322,4.6z"/>
					</g>
				</g>
				<g id="XMLID_714_">
					<g id="XMLID_716_">
						<path class="st7" d="M344.5,4l-4.6,2.5l3.6,2l4.8-1.9C347.2,5.6,345.9,4.7,344.5,4z"/>
					</g>
					<g id="XMLID_715_">
						<path class="st7" d="M343.6,3.5c-1.3-0.6-2.7-1.1-4.1-1.5l-3.9,2L339,6L343.6,3.5z"/>
					</g>
				</g>
				<g id="XMLID_711_">
					<g id="XMLID_713_">
						<polygon class="st7" points="333,12.6 342.5,8.9 334.7,4.6 333.5,5.2 						"/>
					</g>
					<g id="XMLID_712_">
						<polygon class="st7" points="332.5,5.7 328.8,7.6 329.4,14 332,13 						"/>
					</g>
				</g>
				<g id="XMLID_683_">
					<g id="XMLID_710_">
						<polygon class="st7" points="330.6,56.9 331,51.7 327.6,51.6 326.9,56.1 						"/>
					</g>
					<g id="XMLID_709_">
						<polygon class="st7" points="327.7,50.7 333,50.9 333.9,46.6 328.4,46.5 						"/>
					</g>
					<g id="XMLID_708_">
						<polygon class="st7" points="319.4,50.4 326.9,50.7 327.2,49 320.9,47.5 						"/>
					</g>
					<g id="XMLID_707_">
						<polygon class="st7" points="326.8,51.5 323.5,51.4 322.9,53.6 326.4,54.3 						"/>
					</g>
					<g id="XMLID_706_">
						<polygon class="st7" points="333,58.2 326.8,56.9 326.5,59.2 332,60.9 						"/>
					</g>
					<g id="XMLID_705_">
						<path class="st7" d="M318.5,50.4L318.5,50.4l1.6-3.1l-3.8-0.9C316.9,47.7,317.7,49,318.5,50.4z"/>
					</g>
					<g id="XMLID_704_">
						<polygon class="st7" points="334.7,60.7 335.5,58.8 333.8,58.4 333.3,59.9 						"/>
					</g>
					<g id="XMLID_703_">
						<path class="st7" d="M322.2,56c1,1.3,2.1,2.6,3.3,3.9l0.7-4.8l-3.6-0.7L322.2,56z"/>
					</g>
					<g id="XMLID_702_">
						<polygon class="st7" points="339.6,46.6 344,49.2 347.4,46.7 						"/>
					</g>
					<g id="XMLID_701_">
						<polygon class="st7" points="331.8,51.7 331.4,57.1 334.7,57.8 334.6,51.8 						"/>
					</g>
					<g id="XMLID_700_">
						<path class="st7" d="M333,60.7l-1.6,4.5L331,65c0.2,0.2,0.4,0.4,0.7,0.5l4.2-3.3L333,60.7z"/>
					</g>
					<g id="XMLID_699_">
						<polygon class="st7" points="346.2,51.4 341.9,48.8 340.7,51.2 						"/>
					</g>
					<g id="XMLID_698_">
						<polygon class="st7" points="333.8,51 339.8,51.2 341.2,48.4 338.1,46.6 334.7,46.6 						"/>
					</g>
					<g id="XMLID_697_">
						<path class="st7" d="M322.7,51.4l-3.7-0.1c0.8,1.3,1.7,2.6,2.7,3.9L322.7,51.4z"/>
					</g>
					<g id="XMLID_696_">
						<path class="st7" d="M320.4,46.5l3.2-6.2l-8.6,3.1c0.3,0.7,0.6,1.3,0.9,2L320.4,46.5z"/>
					</g>
					<g id="XMLID_695_">
						<polygon class="st7" points="324.1,40.1 324.1,40.1 324.1,40.1 						"/>
					</g>
					<g id="XMLID_694_">
						<polygon class="st7" points="321.2,46.7 327.3,48.2 327.5,46.5 325.1,46.4 324.3,40.8 						"/>
					</g>
					<g id="XMLID_693_">
						<path class="st7" d="M348.7,46.7l-4,3l3,1.8l0.6,0c0.9-1.5,1.9-3.1,2.7-4.7L348.7,46.7z"/>
					</g>
					<g id="XMLID_692_">
						<path class="st7" d="M331.8,61.7l-5.4-1.6l-0.1,0.6c1.3,1.4,2.8,2.8,4.4,4.1L331.8,61.7z"/>
					</g>
					<g id="XMLID_691_">
						<path class="st7" d="M340.2,59.8l-2.9,2.3l1.6,0.8c0.9-0.8,1.8-1.8,2.8-2.8L340.2,59.8z"/>
					</g>
					<g id="XMLID_690_">
						<polygon class="st7" points="340.2,56.9 337.5,51.9 335.4,51.8 335.5,57.9 339.5,58.8 						"/>
					</g>
					<g id="XMLID_689_">
						<polygon class="st7" points="336.3,59 335.4,61.1 336.5,61.7 339.2,59.6 						"/>
					</g>
					<g id="XMLID_688_">
						<path class="st7" d="M333.5,65.1l-1.2,1c0.4,0.3,0.7,0.6,1.1,0.9L333.5,65.1z"/>
					</g>
					<g id="XMLID_687_">
						<path class="st7" d="M338.3,63.5l-1.6-0.9l-2.4,1.9l0.1,0l-0.1,2.3C335,66.3,336.4,65.2,338.3,63.5z"/>
					</g>
					<g id="XMLID_686_">
						<path class="st7" d="M342.9,52.1l-0.8,2l2.6,2.4c1-1.3,2.1-2.7,3.1-4.2L342.9,52.1z"/>
					</g>
					<g id="XMLID_685_">
						<path class="st7" d="M344.2,57.2l-2.4-2.3l-1.6,4l2,0.4C342.9,58.7,343.6,58,344.2,57.2z"/>
					</g>
					<g id="XMLID_684_">
						<polygon class="st7" points="342.1,52.1 338.4,52 340.6,55.9 						"/>
					</g>
				</g>
				<g id="XMLID_680_">
					<g id="XMLID_682_">
						<polygon class="st7" points="343.2,15.2 348.5,13.3 346.6,8.2 342.1,9.9 						"/>
					</g>
					<g id="XMLID_681_">
						<polygon class="st7" points="341.3,10.2 337.1,11.9 340.8,16.1 342.5,15.5 						"/>
					</g>
				</g>
				<g id="XMLID_676_">
					<g id="XMLID_679_">
						<polygon class="st7" points="338,17.1 340,16.4 336.3,12.2 332,13.9 						"/>
					</g>
					<g id="XMLID_677_">
						<polygon class="st7" points="331,14.2 329.5,14.9 329.9,20.1 336.9,17.5 						"/>
					</g>
				</g>
				<g id="XMLID_673_">
					<g id="XMLID_675_">
						<polygon class="st7" points="326.2,15.3 322.1,10.3 319.5,12.6 319.4,12.5 320.7,17.4 322.1,16.9 322.1,16.8 322.5,16.7 
													"/>
					</g>
					<g id="XMLID_674_">
						<polygon class="st7" points="327,15 328.6,14.3 327.8,5.4 322.8,9.8 						"/>
					</g>
				</g>
			</g>
		</g>
		<polygon id="XMLID_1_" class="st8" points="324.4,25.3 327,43.2 339.6,43.3 343.2,34.6 332.9,35.6 334.8,21.5 		"/>
	</g>
</g>
</svg>
