<?xml version="1.0" encoding="utf-8"?>
<!-- Generator: Adobe Illustrator 21.1.0, SVG Export Plug-In . SVG Version: 6.00 Build 0)  -->
<svg version="1.1" id="Layer_1" xmlns="http://www.w3.org/2000/svg" xmlns:xlink="http://www.w3.org/1999/xlink" x="0px" y="0px"
	 viewBox="0 0 70 70" style="enable-background:new 0 0 70 70;" xml:space="preserve">
<style type="text/css">
	.st0{fill:#6D6E71;}
	.st1{fill:none;}
	.st2{fill:#7AC4EA;}
	.st3{fill:#0A6093;}
	.st4{fill:url(#XMLID_164_);}
	.st5{fill:#648678;}
	.st6{fill:#5785BF;}
	.st7{fill:#E57121;}
	.st8{fill:none;stroke:#6D6E71;stroke-width:3.74;stroke-miterlimit:10;}
	.st9{fill:#057DB7;}
	.st10{fill:none;stroke:#057DB7;stroke-width:3.74;stroke-miterlimit:10;}
	.st11{fill:none;stroke:#648678;stroke-width:40;stroke-linecap:round;stroke-linejoin:round;stroke-miterlimit:10;}
	.st12{fill:none;stroke:#5785BF;stroke-width:40;stroke-linecap:round;stroke-linejoin:round;stroke-miterlimit:10;}
	.st13{fill:none;stroke:#E57121;stroke-width:40;stroke-linecap:round;stroke-linejoin:round;stroke-miterlimit:10;}
</style>
<g>
	<g>
		<g>
			<g>
				<g id="XMLID_84_">
					<g>
						<g id="XMLID_163_">
							<path class="st0" d="M-348.2-63l-0.7-2.6l-7.1,1.2c-0.6,1.6-1,3.2-1.2,4.9L-348.2-63z"/>
						</g>
						<g id="XMLID_162_">
							<polygon class="st0" points="-339.5,-65.5 -345.1,-63.3 -344.1,-58.5 -339,-60.3 							"/>
						</g>
						<g id="XMLID_161_">
							<path class="st0" d="M-349.1-66.3l-1.7-6.1c-2,2.1-3.6,4.5-4.8,7.2L-349.1-66.3z"/>
						</g>
						<g id="XMLID_160_">
							<polygon class="st0" points="-350.6,-49.7 -345.5,-50.7 -346.2,-55.5 -351.1,-53.8 							"/>
						</g>
						<g id="XMLID_159_">
							<polygon class="st0" points="-352,-60.6 -351.2,-54.7 -346.3,-56.3 -346.5,-57.6 -344.9,-58.2 -345.9,-63 							"/>
						</g>
						<g id="XMLID_158_">
							<path class="st0" d="M-339.4-73.9l9.5-4.9c-1.4-0.3-2.9-0.4-4.4-0.4c-1.9,0-3.7,0.2-5.5,0.7L-339.4-73.9z"/>
						</g>
						<g id="XMLID_157_">
							<path class="st0" d="M-350.4-41.9l-0.9-6.9l-5.1,1c0.4,2.2,1.1,4.7,2,7.4l4.4-1.6L-350.4-41.9z"/>
						</g>
						<g id="XMLID_156_">
							<path class="st0" d="M-319.1-73.5l-1.7,0.7l1.9,5.2l3.7-1.4C-316.2-70.7-317.6-72.2-319.1-73.5z"/>
						</g>
						<g id="XMLID_137_">
							<g id="XMLID_155_">
								<polygon class="st0" points="-315.6,-62.8 -318.8,-62.2 -320.8,-58.2 -316,-57.4 								"/>
							</g>
							<g id="XMLID_154_">
								<polygon class="st0" points="-322,-57.6 -325.6,-58.3 -327.8,-53.3 -323.9,-53.7 								"/>
							</g>
							<g id="XMLID_153_">
								<polygon class="st0" points="-318.7,-64.2 -324.2,-62.2 -320.7,-60.2 -319.4,-62.9 -319.4,-62.9 -319.4,-62.9 								"/>
							</g>
							<g id="XMLID_152_">
								<polygon class="st0" points="-329.9,-53.2 -328.7,-53.3 -326.5,-58.4 -328.9,-58.8 								"/>
							</g>
							<g id="XMLID_151_">
								<polygon class="st0" points="-316.3,-53.4 -323.7,-52.3 -325,-49.6 -318.6,-50.4 -319,-49.6 -316.5,-50.1 								"/>
							</g>
							<g id="XMLID_150_">
								<path class="st0" d="M-313.3-52.5l1.7,0.7c0.1-0.6,0.1-1.1,0.2-1.7c0.1-0.5,0.1-1.1,0.1-1.6L-313.3-52.5z"/>
							</g>
							<g id="XMLID_149_">
								<polygon class="st0" points="-317,-43.8 -320.3,-41.8 -320.4,-41.9 -320.2,-37.3 -317.5,-37.2 								"/>
							</g>
							<g id="XMLID_148_">
								<polygon class="st0" points="-319.4,-48.7 -320.6,-45.6 -320.6,-45.6 -320.4,-42.6 -316.9,-44.8 -316.6,-49.3 								"/>
							</g>
							<g id="XMLID_147_">
								<polygon class="st0" points="-316,-56.5 -321.2,-57.5 -323.3,-53.2 -316.2,-54.3 								"/>
							</g>
							<g id="XMLID_146_">
								<polygon class="st0" points="-321.3,-43.9 -324,-37.3 -321,-37.3 								"/>
							</g>
							<g id="XMLID_145_">
								<polygon class="st0" points="-324.4,-52.8 -330.1,-52.3 -330.7,-48.9 -326,-49.5 								"/>
							</g>
							<g id="XMLID_144_">
								<polygon class="st0" points="-321.6,-58.4 -321.1,-59.5 -325.2,-61.8 -328.6,-60.6 -328.8,-59.7 								"/>
							</g>
							<g id="XMLID_143_">
								<path class="st0" d="M-316.3-41.7l-0.3,4.5h1.1c0.6-1.4,1.2-2.9,1.7-4.5H-316.3z"/>
							</g>
							<g id="XMLID_142_">
								<path class="st0" d="M-315.5-52.6l-0.2,2.6l0.1,0.5h-0.1l-0.2,2.6l3.7-1.1c0.2-1,0.4-2,0.5-3L-315.5-52.6z"/>
							</g>
							<g id="XMLID_141_">
								<path class="st0" d="M-312.4-47.1l-3.6,1l-0.3,3.5h2.6C-313.1-44-312.7-45.5-312.4-47.1z"/>
							</g>
							<g id="XMLID_140_">
								<path class="st0" d="M-318.3-63.1l5.6-1.2c-0.2-0.6-0.5-1.2-0.8-1.8l-4.2,1.5L-318.3-63.1z"/>
							</g>
							<g id="XMLID_139_">
								<path class="st0" d="M-315.4-53.4l1.4,0.6l2.8-3.7c0-0.9-0.1-1.9-0.2-2.8l-3.5,0.3L-315.4-53.4z"/>
							</g>
							<g id="XMLID_138_">
								<path class="st0" d="M-314.7-63l-0.2,3.1l3.3-0.3c-0.2-1.1-0.5-2.2-0.8-3.3L-314.7-63z"/>
							</g>
						</g>
						<g id="XMLID_134_">
							<g id="XMLID_136_">
								<path class="st0" d="M-352.1-55.3l-0.7-4.9l-4.5,1.8c-0.1,0.7-0.1,1.5-0.1,2.2c0,0,0,0.2,0,0.5L-352.1-55.3z"/>
							</g>
							<g id="XMLID_135_">
								<path class="st0" d="M-352-54.5l-5.3-0.5v0.1c0.1,1.3,0.3,3.5,0.8,6.3l5.2-1L-352-54.5z"/>
							</g>
						</g>
						<g id="XMLID_131_">
							<g id="XMLID_133_">
								<polygon class="st0" points="-345.8,-49.8 -350.5,-48.9 -349.6,-42.5 								"/>
							</g>
							<g id="XMLID_132_">
								<polygon class="st0" points="-344.5,-43.9 -345.3,-49.2 -348.8,-42.4 								"/>
							</g>
						</g>
						<g id="XMLID_128_">
							<g id="XMLID_130_">
								<path class="st0" d="M-343.9-73.2l3.5-3l-0.2-2.2c-1.7,0.5-3.3,1.2-4.8,2L-343.9-73.2z"/>
							</g>
							<g id="XMLID_129_">
								<path class="st0" d="M-346.1-76c-1.4,0.9-2.8,1.9-4,3l1.2,4.1l4.4-3.8L-346.1-76z"/>
							</g>
						</g>
						<g id="XMLID_125_">
							<g id="XMLID_127_">
								<path class="st0" d="M-323.7-76.7l-4.6,2.5l3.6,2l4.8-1.9C-321-75.1-322.3-76-323.7-76.7z"/>
							</g>
							<g id="XMLID_126_">
								<path class="st0" d="M-324.6-77.1c-1.3-0.6-2.7-1.1-4.1-1.5l-3.9,2l3.5,1.9L-324.6-77.1z"/>
							</g>
						</g>
						<g id="XMLID_122_">
							<g id="XMLID_124_">
								<polygon class="st0" points="-335.2,-68.1 -325.6,-71.8 -333.4,-76.1 -334.6,-75.5 								"/>
							</g>
							<g id="XMLID_123_">
								<polygon class="st0" points="-335.6,-75 -339.3,-73.1 -338.8,-66.7 -336.1,-67.7 								"/>
							</g>
						</g>
						<g id="XMLID_94_">
							<g id="XMLID_121_">
								<polygon class="st0" points="-337.5,-23.8 -337.2,-29 -340.5,-29.1 -341.2,-24.6 								"/>
							</g>
							<g id="XMLID_120_">
								<polygon class="st0" points="-340.4,-29.9 -335.2,-29.7 -334.3,-34.1 -339.8,-34.2 								"/>
							</g>
							<g id="XMLID_119_">
								<polygon class="st0" points="-348.8,-30.3 -341.2,-30 -341,-31.6 -347.3,-33.2 								"/>
							</g>
							<g id="XMLID_118_">
								<polygon class="st0" points="-341.4,-29.2 -344.6,-29.3 -345.2,-27 -341.8,-26.4 								"/>
							</g>
							<g id="XMLID_117_">
								<polygon class="st0" points="-335.2,-22.5 -341.3,-23.8 -341.7,-21.5 -336.1,-19.8 								"/>
							</g>
							<g id="XMLID_116_">
								<path class="st0" d="M-349.7-30.3L-349.7-30.3l1.6-3.1l-3.8-0.9C-351.2-33-350.5-31.7-349.7-30.3z"/>
							</g>
							<g id="XMLID_115_">
								<polygon class="st0" points="-333.4,-20 -332.6,-21.9 -334.3,-22.3 -334.9,-20.8 								"/>
							</g>
							<g id="XMLID_114_">
								<path class="st0" d="M-345.9-24.7c1,1.3,2.1,2.6,3.3,3.9l0.7-4.8l-3.6-0.7L-345.9-24.7z"/>
							</g>
							<g id="XMLID_113_">
								<polygon class="st0" points="-328.5,-34.1 -324.2,-31.5 -320.8,-34 								"/>
							</g>
							<g id="XMLID_112_">
								<polygon class="st0" points="-336.3,-29 -336.7,-23.6 -333.5,-22.9 -333.6,-28.9 								"/>
							</g>
							<g id="XMLID_111_">
								<path class="st0" d="M-335.2-20l-1.6,4.5l-0.4-0.1c0.2,0.2,0.4,0.4,0.7,0.5l4.2-3.3L-335.2-20z"/>
							</g>
							<g id="XMLID_110_">
								<polygon class="st0" points="-321.9,-29.3 -326.3,-31.9 -327.4,-29.5 								"/>
							</g>
							<g id="XMLID_109_">
								<polygon class="st0" points="-334.3,-29.7 -328.3,-29.5 -327,-32.3 -330,-34.1 -333.4,-34.1 								"/>
							</g>
							<g id="XMLID_108_">
								<path class="st0" d="M-345.4-29.3l-3.7-0.1c0.8,1.3,1.7,2.6,2.7,3.9L-345.4-29.3z"/>
							</g>
							<g id="XMLID_107_">
								<path class="st0" d="M-347.7-34.2l3.2-6.2l-8.6,3.1c0.3,0.7,0.6,1.3,0.9,2L-347.7-34.2z"/>
							</g>
							<g id="XMLID_106_">
								<path class="st0" d="M-344-40.6L-344-40.6L-344-40.6z"/>
							</g>
							<g id="XMLID_105_">
								<polygon class="st0" points="-346.9,-34 -340.9,-32.5 -340.6,-34.2 -343.1,-34.2 -343.9,-39.9 								"/>
							</g>
							<g id="XMLID_104_">
								<path class="st0" d="M-319.4-34l-4,3l3,1.8h0.6c0.9-1.5,1.9-3.1,2.7-4.7L-319.4-34z"/>
							</g>
							<g id="XMLID_103_">
								<path class="st0" d="M-336.4-19l-5.4-1.6l-0.1,0.6c1.3,1.4,2.8,2.8,4.4,4.1L-336.4-19z"/>
							</g>
							<g id="XMLID_102_">
								<path class="st0" d="M-327.9-20.9l-2.9,2.3l1.6,0.8c0.9-0.8,1.8-1.8,2.8-2.8L-327.9-20.9z"/>
							</g>
							<g id="XMLID_101_">
								<polygon class="st0" points="-327.9,-23.8 -330.7,-28.8 -332.7,-28.8 -332.6,-22.7 -328.6,-21.9 								"/>
							</g>
							<g id="XMLID_100_">
								<polygon class="st0" points="-331.8,-21.7 -332.7,-19.6 -331.6,-19 -329,-21.1 								"/>
							</g>
							<g id="XMLID_99_">
								<path class="st0" d="M-334.6-15.6l-1.2,1c0.4,0.3,0.7,0.6,1.1,0.9L-334.6-15.6z"/>
							</g>
							<g id="XMLID_98_">
								<path class="st0" d="M-329.9-17.2l-1.6-0.9l-2.4,1.9h0.1l-0.1,2.3C-333.1-14.4-331.7-15.5-329.9-17.2z"/>
							</g>
							<g id="XMLID_97_">
								<path class="st0" d="M-325.2-28.6l-0.8,2l2.6,2.4c1-1.3,2.1-2.7,3.1-4.2L-325.2-28.6z"/>
							</g>
							<g id="XMLID_96_">
								<path class="st0" d="M-323.9-23.5l-2.4-2.3l-1.6,4l2,0.4C-325.2-22-324.6-22.7-323.9-23.5z"/>
							</g>
							<g id="XMLID_95_">
								<polygon class="st0" points="-326.1,-28.6 -329.7,-28.7 -327.5,-24.8 								"/>
							</g>
						</g>
						<g id="XMLID_91_">
							<g id="XMLID_93_">
								<polygon class="st0" points="-324.9,-65.4 -319.6,-67.4 -321.6,-72.5 -326,-70.8 								"/>
							</g>
							<g id="XMLID_92_">
								<polygon class="st0" points="-326.8,-70.5 -331,-68.8 -327.3,-64.6 -325.7,-65.2 								"/>
							</g>
						</g>
						<g id="XMLID_88_">
							<g id="XMLID_90_">
								<polygon class="st0" points="-330.2,-63.5 -328.2,-64.3 -331.8,-68.5 -336.1,-66.8 								"/>
							</g>
							<g id="XMLID_89_">
								<polygon class="st0" points="-337.1,-66.4 -338.7,-65.8 -338.2,-60.6 -331.2,-63.2 								"/>
							</g>
						</g>
						<g id="XMLID_85_">
							<g id="XMLID_87_">
								<polygon class="st0" points="-342,-65.4 -346,-70.4 -348.7,-68.1 -348.7,-68.1 -347.4,-63.3 -346,-63.8 -346,-63.9 
									-345.6,-64 								"/>
							</g>
							<g id="XMLID_86_">
								<polygon class="st0" points="-341.2,-65.7 -339.6,-66.4 -340.3,-75.2 -345.4,-70.9 								"/>
							</g>
						</g>
					</g>
				</g>
				<polygon id="XMLID_83_" class="st0" points="-343.7,-55.4 -341.1,-37.5 -328.6,-37.4 -324.9,-46.1 -335.2,-45 -333.3,-59.2 				
					"/>
			</g>
		</g>
		<rect x="-370" y="-82" class="st1" width="70" height="70"/>
	</g>
	<g>
		<g>
			<g>
				<g id="XMLID_3_">
					<g>
						<g id="XMLID_82_">
							<path class="st2" d="M-349,18.7l-0.7-2.6l-7.1,1.2c-0.6,1.6-1,3.2-1.2,4.9L-349,18.7z"/>
						</g>
						<g id="XMLID_81_">
							<polygon class="st2" points="-340.3,16.2 -346,18.4 -345,23.2 -339.9,21.4 							"/>
						</g>
						<g id="XMLID_80_">
							<path class="st2" d="M-350,15.4l-1.7-6.1c-2,2.1-3.6,4.5-4.8,7.2L-350,15.4z"/>
						</g>
						<g id="XMLID_79_">
							<polygon class="st2" points="-351.4,31.9 -346.3,31 -347.1,26.2 -352,27.8 							"/>
						</g>
						<g id="XMLID_78_">
							<polygon class="st2" points="-352.9,21.1 -352.1,27 -347.2,25.3 -347.4,24.1 -345.8,23.5 -346.7,18.7 							"/>
						</g>
						<g id="XMLID_77_">
							<path class="st2" d="M-340.2,7.7l9.5-4.9c-1.4-0.3-2.9-0.4-4.4-0.4c-1.9,0-3.7,0.2-5.5,0.7L-340.2,7.7z"/>
						</g>
						<g id="XMLID_76_">
							<path class="st2" d="M-351.2,39.8l-0.9-6.9l-5.1,1c0.4,2.2,1.1,4.7,2,7.4l4.4-1.6L-351.2,39.8z"/>
						</g>
						<g id="XMLID_75_">
							<path class="st2" d="M-319.9,8.2l-1.7,0.7l1.9,5.2l3.7-1.4C-317.1,11-318.4,9.5-319.9,8.2z"/>
						</g>
						<g id="XMLID_56_">
							<g id="XMLID_74_">
								<polygon class="st2" points="-316.4,18.9 -319.7,19.5 -321.6,23.5 -316.8,24.3 								"/>
							</g>
							<g id="XMLID_73_">
								<polygon class="st2" points="-322.9,24.1 -326.5,23.4 -328.7,28.3 -324.8,28 								"/>
							</g>
							<g id="XMLID_72_">
								<polygon class="st2" points="-319.6,17.5 -325.1,19.5 -321.6,21.5 -320.2,18.8 -320.3,18.8 -320.2,18.8 								"/>
							</g>
							<g id="XMLID_71_">
								<polygon class="st2" points="-330.8,28.5 -329.6,28.4 -327.3,23.3 -329.8,22.8 								"/>
							</g>
							<g id="XMLID_70_">
								<polygon class="st2" points="-317.1,28.2 -324.6,29.4 -325.9,32.1 -319.5,31.2 -319.8,32.1 -317.4,31.6 								"/>
							</g>
							<g id="XMLID_69_">
								<path class="st2" d="M-314.2,29.2l1.7,0.7c0.1-0.6,0.1-1.1,0.2-1.7c0.1-0.5,0.1-1.1,0.1-1.6L-314.2,29.2z"/>
							</g>
							<g id="XMLID_68_">
								<polygon class="st2" points="-317.8,37.9 -321.2,39.9 -321.3,39.8 -321.1,44.4 -318.3,44.4 								"/>
							</g>
							<g id="XMLID_67_">
								<polygon class="st2" points="-320.2,33 -321.5,36 -321.4,36 -321.3,39 -317.8,36.9 -317.4,32.4 								"/>
							</g>
							<g id="XMLID_66_">
								<polygon class="st2" points="-316.9,25.1 -322,24.2 -324.1,28.5 -317.1,27.4 								"/>
							</g>
							<g id="XMLID_65_">
								<polygon class="st2" points="-322.2,37.7 -324.9,44.4 -321.9,44.4 								"/>
							</g>
							<g id="XMLID_64_">
								<polygon class="st2" points="-325.2,28.9 -330.9,29.4 -331.5,32.8 -326.9,32.2 								"/>
							</g>
							<g id="XMLID_63_">
								<polygon class="st2" points="-322.5,23.3 -321.9,22.2 -326.1,19.9 -329.5,21.1 -329.7,22 								"/>
							</g>
							<g id="XMLID_62_">
								<path class="st2" d="M-317.2,40l-0.3,4.5h1.1c0.6-1.4,1.2-2.9,1.7-4.5H-317.2z"/>
							</g>
							<g id="XMLID_61_">
								<path class="st2" d="M-316.4,29.1l-0.2,2.6l0.1,0.5h-0.1l-0.2,2.6l3.7-1.1c0.2-1,0.4-2,0.5-3L-316.4,29.1z"/>
							</g>
							<g id="XMLID_60_">
								<path class="st2" d="M-313.3,34.6l-3.6,1l-0.3,3.5h2.6C-314,37.7-313.6,36.2-313.3,34.6z"/>
							</g>
							<g id="XMLID_59_">
								<path class="st2" d="M-319.2,18.6l5.6-1.2c-0.2-0.6-0.5-1.2-0.8-1.8l-4.2,1.5L-319.2,18.6z"/>
							</g>
							<g id="XMLID_58_">
								<path class="st2" d="M-316.3,28.3l1.4,0.6l2.8-3.7c0-0.9-0.1-1.9-0.2-2.8l-3.5,0.3L-316.3,28.3z"/>
							</g>
							<g id="XMLID_57_">
								<path class="st2" d="M-315.6,18.7l-0.2,3.1l3.3-0.3c-0.2-1.1-0.5-2.2-0.8-3.3L-315.6,18.7z"/>
							</g>
						</g>
						<g id="XMLID_53_">
							<g id="XMLID_55_">
								<path class="st2" d="M-353,26.4l-0.7-4.9l-4.5,1.8c-0.1,0.7-0.1,1.5-0.1,2.2c0,0,0,0.2,0,0.5L-353,26.4z"/>
							</g>
							<g id="XMLID_54_">
								<path class="st2" d="M-352.9,27.2l-5.3-0.5v0.1c0.1,1.3,0.3,3.5,0.8,6.3l5.2-1L-352.9,27.2z"/>
							</g>
						</g>
						<g id="XMLID_50_">
							<g id="XMLID_52_">
								<polygon class="st2" points="-346.7,31.9 -351.3,32.8 -350.5,39.2 								"/>
							</g>
							<g id="XMLID_51_">
								<polygon class="st2" points="-345.3,37.8 -346.1,32.5 -349.6,39.3 								"/>
							</g>
						</g>
						<g id="XMLID_47_">
							<g id="XMLID_49_">
								<path class="st2" d="M-344.8,8.4l3.5-3l-0.2-2.2c-1.7,0.5-3.3,1.2-4.8,2L-344.8,8.4z"/>
							</g>
							<g id="XMLID_48_">
								<path class="st2" d="M-347,5.6c-1.4,0.9-2.8,1.9-4,3l1.2,4.1l4.4-3.8L-347,5.6z"/>
							</g>
						</g>
						<g id="XMLID_44_">
							<g id="XMLID_46_">
								<path class="st2" d="M-324.5,5l-4.6,2.5l3.6,2l4.8-1.9C-321.8,6.6-323.1,5.7-324.5,5z"/>
							</g>
							<g id="XMLID_45_">
								<path class="st2" d="M-325.4,4.5c-1.3-0.6-2.7-1.1-4.1-1.5l-3.9,2l3.4,2L-325.4,4.5z"/>
							</g>
						</g>
						<g id="XMLID_41_">
							<g id="XMLID_43_">
								<polygon class="st2" points="-336,13.6 -326.5,9.9 -334.3,5.6 -335.5,6.2 								"/>
							</g>
							<g id="XMLID_42_">
								<polygon class="st2" points="-336.5,6.7 -340.2,8.6 -339.6,15 -337,14 								"/>
							</g>
						</g>
						<g id="XMLID_13_">
							<g id="XMLID_40_">
								<polygon class="st2" points="-338.4,57.9 -338,52.7 -341.4,52.6 -342.1,57.1 								"/>
							</g>
							<g id="XMLID_39_">
								<polygon class="st2" points="-341.3,51.7 -336,51.9 -335.1,47.6 -340.6,47.5 								"/>
							</g>
							<g id="XMLID_38_">
								<polygon class="st2" points="-349.6,51.4 -342.1,51.7 -341.8,50 -348.1,48.5 								"/>
							</g>
							<g id="XMLID_37_">
								<polygon class="st2" points="-342.2,52.5 -345.5,52.4 -346.1,54.6 -342.6,55.3 								"/>
							</g>
							<g id="XMLID_36_">
								<polygon class="st2" points="-336,59.2 -342.2,57.9 -342.5,60.2 -337,61.9 								"/>
							</g>
							<g id="XMLID_35_">
								<path class="st2" d="M-350.5,51.4L-350.5,51.4l1.6-3.1l-3.8-0.9C-352.1,48.7-351.3,50-350.5,51.4z"/>
							</g>
							<g id="XMLID_34_">
								<polygon class="st2" points="-334.3,61.7 -333.5,59.8 -335.2,59.4 -335.7,60.9 								"/>
							</g>
							<g id="XMLID_33_">
								<path class="st2" d="M-346.8,57c1,1.3,2.1,2.6,3.3,3.9l0.7-4.8l-3.6-0.7L-346.8,57z"/>
							</g>
							<g id="XMLID_32_">
								<polygon class="st2" points="-329.4,47.6 -325,50.2 -321.6,47.7 								"/>
							</g>
							<g id="XMLID_31_">
								<polygon class="st2" points="-337.2,52.7 -337.6,58.1 -334.3,58.8 -334.4,52.8 								"/>
							</g>
							<g id="XMLID_30_">
								<path class="st2" d="M-336,61.7l-1.6,4.5L-338,66c0.2,0.2,0.4,0.4,0.7,0.5l4.2-3.3L-336,61.7z"/>
							</g>
							<g id="XMLID_29_">
								<polygon class="st2" points="-322.8,52.4 -327.1,49.8 -328.3,52.2 								"/>
							</g>
							<g id="XMLID_28_">
								<polygon class="st2" points="-335.2,52 -329.2,52.2 -327.8,49.4 -330.9,47.6 -334.3,47.6 								"/>
							</g>
							<g id="XMLID_27_">
								<path class="st2" d="M-346.3,52.4l-3.7-0.1c0.8,1.3,1.7,2.6,2.7,3.9L-346.3,52.4z"/>
							</g>
							<g id="XMLID_26_">
								<path class="st2" d="M-348.6,47.5l3.2-6.2l-8.6,3.1c0.3,0.7,0.6,1.3,0.9,2L-348.6,47.5z"/>
							</g>
							<g id="XMLID_25_">
								<path class="st2" d="M-344.9,41.1L-344.9,41.1L-344.9,41.1z"/>
							</g>
							<g id="XMLID_24_">
								<polygon class="st2" points="-347.8,47.7 -341.7,49.2 -341.5,47.5 -343.9,47.4 -344.7,41.8 								"/>
							</g>
							<g id="XMLID_23_">
								<path class="st2" d="M-320.3,47.7l-4,3l3,1.8h0.6c0.9-1.5,1.9-3.1,2.7-4.7L-320.3,47.7z"/>
							</g>
							<g id="XMLID_22_">
								<path class="st2" d="M-337.2,62.7l-5.4-1.6l-0.1,0.6c1.3,1.4,2.8,2.8,4.4,4.1L-337.2,62.7z"/>
							</g>
							<g id="XMLID_21_">
								<path class="st2" d="M-328.8,60.8l-2.9,2.3l1.6,0.8c0.9-0.8,1.8-1.8,2.8-2.8L-328.8,60.8z"/>
							</g>
							<g id="XMLID_20_">
								<polygon class="st2" points="-328.8,57.9 -331.5,52.9 -333.6,52.8 -333.5,58.9 -329.5,59.8 								"/>
							</g>
							<g id="XMLID_19_">
								<polygon class="st2" points="-332.7,60 -333.6,62.1 -332.5,62.7 -329.8,60.6 								"/>
							</g>
							<g id="XMLID_18_">
								<path class="st2" d="M-335.5,66.1l-1.2,1c0.4,0.3,0.7,0.6,1.1,0.9L-335.5,66.1z"/>
							</g>
							<g id="XMLID_17_">
								<path class="st2" d="M-330.7,64.5l-1.6-0.9l-2.4,1.9h0.1l-0.1,2.3C-334,67.3-332.6,66.2-330.7,64.5z"/>
							</g>
							<g id="XMLID_16_">
								<path class="st2" d="M-326.1,53.1l-0.8,2l2.6,2.4c1-1.3,2.1-2.7,3.1-4.2L-326.1,53.1z"/>
							</g>
							<g id="XMLID_15_">
								<path class="st2" d="M-324.8,58.2l-2.4-2.3l-1.6,4l2,0.4C-326.1,59.7-325.4,59-324.8,58.2z"/>
							</g>
							<g id="XMLID_14_">
								<polygon class="st2" points="-326.9,53.1 -330.6,53 -328.4,56.9 								"/>
							</g>
						</g>
						<g id="XMLID_10_">
							<g id="XMLID_12_">
								<polygon class="st2" points="-325.8,16.2 -320.5,14.3 -322.4,9.2 -326.9,10.9 								"/>
							</g>
							<g id="XMLID_11_">
								<polygon class="st2" points="-327.7,11.2 -331.9,12.9 -328.2,17.1 -326.5,16.5 								"/>
							</g>
						</g>
						<g id="XMLID_7_">
							<g id="XMLID_9_">
								<polygon class="st2" points="-331,18.1 -329,17.4 -332.7,13.2 -337,14.9 								"/>
							</g>
							<g id="XMLID_8_">
								<polygon class="st2" points="-338,15.2 -339.5,15.9 -339.1,21.1 -332.1,18.5 								"/>
							</g>
						</g>
						<g id="XMLID_4_">
							<g id="XMLID_6_">
								<polygon class="st2" points="-342.8,16.3 -346.9,11.3 -349.5,13.6 -349.6,13.5 -348.3,18.4 -346.9,17.9 -346.9,17.8 
									-346.5,17.7 								"/>
							</g>
							<g id="XMLID_5_">
								<polygon class="st2" points="-342,16 -340.4,15.3 -341.2,6.4 -346.2,10.8 								"/>
							</g>
						</g>
					</g>
				</g>
				<polygon id="XMLID_2_" class="st3" points="-344.6,26.3 -342,44.2 -329.4,44.3 -325.8,35.6 -336.1,36.6 -334.2,22.5 				"/>
			</g>
		</g>
		<rect x="-370" class="st1" width="70" height="70"/>
	</g>
</g>
<g>
	<g>
		<g>
			<g>
				
					<linearGradient id="XMLID_164_" gradientUnits="userSpaceOnUse" x1="-164.0365" y1="166.1145" x2="-122.9704" y2="207.1806" gradientTransform="matrix(1 0 0 -1 0 222)">
					<stop  offset="0" style="stop-color:#F05A44"/>
					<stop  offset="1" style="stop-color:#613E97"/>
				</linearGradient>
				<path id="XMLID_5189_" class="st4" d="M-139.3,43c2.2,2.2,2.2,5.8,0,8.1c-1.1,1.1-2.6,1.7-4.1,1.7h-2.2c-1,0-2.2,0.6-2.8,1.2
					c-0.6,0.6-1.2,1.6-1.2,2.8v1.6c0.2,1.6-0.4,3.3-1.6,4.6c-2.2,2.2-5.8,2.2-8.1,0c-2.2-2.2-2.2-5.8,0-8.1c1.3-1.3,2.9-1.8,4.6-1.6
					h1.6c1.2,0,2.2-0.6,2.8-1.2c0.6-0.6,1.2-1.7,1.2-2.8v-2.2c0-1.5,0.5-3,1.7-4.1C-145.1,40.7-141.5,40.7-139.3,43z M-161.4,44.8
					c0-1.2,0.7-2.2,1.2-2.8c0.6-0.6,1.7-1.2,2.8-1.2h1.5c1.7,0.2,3.4-0.3,4.7-1.6c2.2-2.2,2.2-5.8,0-8.1c-1.1-1.1-2.6-1.7-4.1-1.7
					h-2.1c-1.1,0-2.2-0.6-2.8-1.2s-1.2-1.6-1.2-2.8v-1.6c0.2-1.6-0.4-3.3-1.6-4.6c-2.2-2.2-5.8-2.2-8.1,0c-2.2,2.2-2.2,5.8,0,8.1
					c1.3,1.3,2.9,1.8,4.6,1.6h1.6c1.2,0,2.2,0.7,2.8,1.2c0.6,0.6,1.2,1.7,1.2,2.8v1.9c0,0.2,0,0.3,0,0.5v2c0,1.1-0.6,2.2-1.2,2.8
					c-0.6,0.6-1.6,1.2-2.8,1.2h-2.2l0,0c-1.5,0-2.9,0.6-4,1.7c-2.2,2.2-2.2,5.8,0,8.1c2.2,2.2,5.8,2.2,8.1,0
					c1.2-1.2,1.7-2.9,1.6-4.4V44.8z M-119.6,41.3L-119.6,41.3h-2.2c-1.1,0-2.2-0.6-2.8-1.2c-0.6-0.6-1.2-1.6-1.2-2.8v-1.7
					c0-0.4,0-0.7,0-1.1V33c0-1.2,0.7-2.2,1.2-2.8c0.6-0.6,1.7-1.2,2.8-1.2h2.2l0,0c1.5,0,2.9-0.5,4.1-1.7c2.2-2.2,2.2-5.8,0-8.1
					c-2.2-2.2-5.8-2.2-8.1,0c-1.1,1.1-1.7,2.6-1.7,4.1l0,0v2.2c0,1.1-0.6,2.2-1.2,2.8c-0.6,0.6-1.6,1.2-2.8,1.2h-1.5
					c-1.7-0.2-3.4,0.3-4.6,1.6c-2.2,2.2-2.2,5.8,0,8.1c1.3,1.3,3,1.8,4.7,1.6h1.5c1.2,0,2.2,0.7,2.8,1.2c0.6,0.6,1.2,1.7,1.2,2.8
					v2.1c0,1.5,0.5,3,1.7,4.2c2.2,2.2,5.8,2.2,8.1,0c2.2-2.2,2.2-5.8,0-8.1C-116.7,41.8-118.2,41.3-119.6,41.3z M-135.5,54.9
					c-2.2,2.2-2.2,5.8,0,8.1c2.2,2.2,5.8,2.2,8.1,0c2.2-2.2,2.2-5.8,0-8.1C-129.7,52.6-133.3,52.6-135.5,54.9z M-151.2,15.4
					c2.2-2.2,2.2-5.8,0-8.1s-5.8-2.2-8.1,0s-2.2,5.8,0,8.1C-157,17.7-153.4,17.7-151.2,15.4z M-139.3,27.3c1.3-1.3,1.8-3,1.6-4.6
					v-1.6c0-1.2,0.7-2.2,1.2-2.8c0.6-0.6,1.7-1.2,2.8-1.2h2.1c1.5,0,3-0.5,4.2-1.7c2.2-2.2,2.2-5.8,0-8.1c-2.2-2.2-5.8-2.2-8.1,0
					c-1.1,1.1-1.7,2.6-1.7,4l0,0v2.2c0,1.1-0.6,2.2-1.2,2.8c-0.6,0.6-1.6,1.2-2.8,1.2h-1.8c-1.6-0.1-3.2,0.4-4.4,1.6
					c-2.2,2.2-2.2,5.8,0,8.1S-141.6,29.5-139.3,27.3z"/>
			</g>
		</g>
		<rect x="-179" class="st1" width="70" height="70"/>
	</g>
	<g>
		<g>
			<g>
				<path id="XMLID_8469_" class="st0" d="M-139.4-38.7c2.2,2.2,2.2,5.8,0,8.1c-1.1,1.1-2.6,1.7-4.1,1.7h-2.2c-1,0-2.2,0.6-2.8,1.2
					s-1.2,1.6-1.2,2.8v1.6c0.2,1.6-0.4,3.3-1.6,4.6c-2.2,2.2-5.8,2.2-8.1,0c-2.2-2.2-2.2-5.8,0-8.1c1.3-1.3,2.9-1.8,4.6-1.6h1.6
					c1.2,0,2.2-0.6,2.8-1.2s1.2-1.7,1.2-2.8v-2.2c0-1.5,0.5-3,1.7-4.1C-145.3-40.9-141.7-40.9-139.4-38.7z M-161.6-36.9
					c0-1.2,0.7-2.2,1.2-2.8c0.6-0.6,1.7-1.2,2.8-1.2h1.5c1.7,0.2,3.4-0.3,4.7-1.6c2.2-2.2,2.2-5.8,0-8.1c-1.1-1.1-2.6-1.7-4.1-1.7
					h-2.1c-1.1,0-2.2-0.6-2.8-1.2c-0.6-0.6-1.2-1.6-1.2-2.8v-1.6c0.2-1.6-0.4-3.3-1.6-4.6c-2.2-2.2-5.8-2.2-8.1,0
					c-2.2,2.2-2.2,5.8,0,8.1c1.3,1.3,2.9,1.8,4.6,1.6h1.6c1.2,0,2.2,0.7,2.8,1.2c0.6,0.6,1.2,1.7,1.2,2.8v1.9c0,0.2,0,0.3,0,0.5v2
					c0,1.1-0.6,2.2-1.2,2.8c-0.6,0.6-1.6,1.2-2.8,1.2h-2.2l0,0c-1.5,0-2.9,0.6-4,1.7c-2.2,2.2-2.2,5.8,0,8.1c2.2,2.2,5.8,2.2,8.1,0
					c1.2-1.2,1.7-2.9,1.6-4.4V-36.9z M-119.8-40.4L-119.8-40.4h-2.2c-1.1,0-2.2-0.6-2.8-1.2s-1.2-1.6-1.2-2.8v-1.7
					c0-0.4,0-0.7,0-1.1v-1.5c0-1.2,0.7-2.2,1.2-2.8c0.6-0.6,1.7-1.2,2.8-1.2h2.2l0,0c1.5,0,2.9-0.5,4.1-1.7c2.2-2.2,2.2-5.8,0-8.1
					c-2.2-2.2-5.8-2.2-8.1,0c-1.1,1.1-1.7,2.6-1.7,4.1l0,0v2.2c0,1.1-0.6,2.2-1.2,2.8c-0.6,0.6-1.6,1.2-2.8,1.2h-1.5
					c-1.7-0.2-3.4,0.3-4.6,1.6c-2.2,2.2-2.2,5.8,0,8.1c1.3,1.3,3,1.8,4.7,1.6h1.5c1.2,0,2.2,0.7,2.8,1.2c0.6,0.6,1.2,1.7,1.2,2.8
					v2.1c0,1.5,0.5,3,1.7,4.2c2.2,2.2,5.8,2.2,8.1,0c2.2-2.2,2.2-5.8,0-8.1C-116.8-39.8-118.3-40.4-119.8-40.4z M-135.7-26.8
					c-2.2,2.2-2.2,5.8,0,8.1c2.2,2.2,5.8,2.2,8.1,0c2.2-2.2,2.2-5.8,0-8.1C-129.8-29.1-133.4-29.1-135.7-26.8z M-151.3-66.2
					c2.2-2.2,2.2-5.8,0-8.1s-5.8-2.2-8.1,0c-2.2,2.2-2.2,5.8,0,8.1C-157.2-64-153.6-64-151.3-66.2z M-139.5-54.4
					c1.3-1.3,1.8-3,1.6-4.6v-1.6c0-1.2,0.7-2.2,1.2-2.8c0.6-0.6,1.7-1.2,2.8-1.2h2.1c1.5,0,3-0.5,4.2-1.7c2.2-2.2,2.2-5.8,0-8.1
					c-2.2-2.2-5.8-2.2-8.1,0c-1.1,1.1-1.7,2.6-1.7,4l0,0v2.2c0,1.1-0.6,2.2-1.2,2.8c-0.6,0.6-1.6,1.2-2.8,1.2h-1.8
					c-1.6-0.1-3.2,0.4-4.4,1.6c-2.2,2.2-2.2,5.8,0,8.1C-145.3-52.2-141.7-52.2-139.5-54.4z"/>
			</g>
		</g>
		<rect x="-179" y="-82" class="st1" width="70" height="70"/>
	</g>
</g>
<g>
	<rect class="st1" width="70" height="70"/>
	<g>
		<g>
			<path class="st5" d="M46.1,30.2c-1.6,0-3.2-0.6-4.5-1.9c-2.4-2.5-2.3-6.4,0.1-8.8L53.2,8.3C55.6,5.9,59.6,6,62,8.5
				c2.4,2.5,2.3,6.4-0.1,8.8L50.4,28.4C49.2,29.6,47.6,30.2,46.1,30.2z"/>
		</g>
		<g>
			<path class="st6" d="M56.9,63.8c-1.6,0-3.1-0.6-4.3-1.8L41.1,50.9c-2.5-2.4-2.5-6.3-0.1-8.8c2.4-2.5,6.3-2.5,8.8-0.1l11.5,11.1
				c2.5,2.4,2.5,6.3,0.1,8.8C60.1,63.1,58.5,63.8,56.9,63.8z"/>
		</g>
		<g>
			<path class="st7" d="M14,63.9c-1.5,0-3-0.5-4.2-1.6C7.3,59.9,7,56,9.4,53.5l16.5-18.3L9.4,16.8C7,14.3,7.3,10.3,9.8,8
				c2.6-2.3,6.5-2.1,8.8,0.4L38.9,31c2.1,2.4,2.1,6,0,8.4L18.6,61.8C17.4,63.2,15.7,63.9,14,63.9z"/>
		</g>
	</g>
</g>
<g>
	<rect y="-82" class="st1" width="70" height="70"/>
	<g>
		<g>
			<path class="st0" d="M46.1-51.8c-1.6,0-3.2-0.6-4.5-1.9c-2.4-2.5-2.3-6.4,0.1-8.8l11.5-11.1c2.5-2.4,6.4-2.3,8.8,0.1
				c2.4,2.5,2.3,6.4-0.1,8.8L50.4-53.6C49.2-52.4,47.6-51.8,46.1-51.8z"/>
		</g>
		<g>
			<path class="st0" d="M56.9-18.2c-1.6,0-3.1-0.6-4.3-1.8L41.1-31.1c-2.5-2.4-2.5-6.3-0.1-8.8c2.4-2.5,6.3-2.5,8.8-0.1l11.5,11.1
				c2.5,2.4,2.5,6.3,0.1,8.8C60.1-18.9,58.5-18.2,56.9-18.2z"/>
		</g>
		<g>
			<path class="st0" d="M14-18.1c-1.5,0-3-0.5-4.2-1.6C7.3-22.1,7-26,9.4-28.5l16.5-18.3L9.4-65.2C7-67.7,7.3-71.7,9.8-74
				c2.6-2.3,6.5-2.1,8.8,0.4L38.9-51c2.1,2.4,2.1,6,0,8.4L18.6-20.2C17.4-18.8,15.7-18.1,14-18.1z"/>
		</g>
	</g>
</g>
<g>
	<g>
		<g>
			<g>
				<g>
					<g>
						<polygon class="st0" points="-215.8,-53.7 -220.8,-53.7 -220.8,-40.2 -211.5,-40.2 -211.5,-44.5 -215.8,-44.5 						"/>
						<path class="st0" d="M-226.2-44.5v-9.2h-4.9v4.7l-7,4.4l-1.4-0.8l7-4.4l-3.1-2l-7,4.4l-1.2-0.8l7-4.4l-3.1-2l-7.9,5
							c-1.1-2.9-4-4.1-7.5-4.1h-5.4v13.6h6.6c3.1,0,5.5-1.6,6.4-4.2l7.9,5l8.8-5.5v4.8h9.3v-4.4L-226.2-44.5L-226.2-44.5z
							 M-255.3-44.2h-0.7v-5.3h0.7c1.8,0,2.9,0.8,2.9,2.7C-252.4-45-253.7-44.2-255.3-44.2L-255.3-44.2z"/>
					</g>
				</g>
				<circle class="st8" cx="-236" cy="-47" r="31"/>
			</g>
		</g>
		<rect x="-271" y="-82" class="st1" width="70" height="70"/>
	</g>
	<g>
		<g>
			<g>
				<g>
					<g>
						<polygon class="st9" points="-215.8,28.2 -220.7,28.2 -220.7,41.8 -211.4,41.8 -211.4,37.5 -215.8,37.5 						"/>
						<path class="st9" d="M-226.2,37.5v-9.2h-4.9V33l-7,4.4l-1.4-0.8l7-4.4l-3.1-2l-7,4.4l-1.2-0.9l7-4.4l-3.1-2l-7.9,5
							c-1.1-2.9-4-4.1-7.5-4.1h-5.4v13.6h6.6c3.1,0,5.5-1.6,6.4-4.2l7.9,5l8.8-5.5v4.8h9.3v-4.4H-226.2L-226.2,37.5z M-255.3,37.7
							h-0.7v-5.3h0.7c1.8,0,2.9,0.8,2.9,2.7C-252.4,37-253.6,37.7-255.3,37.7L-255.3,37.7z"/>
					</g>
				</g>
				<circle class="st10" cx="-236" cy="35" r="31"/>
			</g>
		</g>
		<rect x="-271" class="st1" width="70" height="70"/>
	</g>
</g>
<g>
	<line class="st11" x1="880.8" y1="-386" x2="917.5" y2="-421.8"/>
	<line class="st12" x1="878.8" y1="-314" x2="915.5" y2="-278.3"/>
	<polyline class="st13" points="777.9,-422.3 843,-350.2 777.9,-278 	"/>
</g>
<g>
	<g>
		<path class="st5" d="M1115.8-366c-5.2,0-10.4-2-14.3-6.1c-7.7-7.9-7.5-20.6,0.4-28.3l36.7-35.7c7.9-7.7,20.6-7.5,28.3,0.4
			s7.5,20.6-0.4,28.3l-36.7,35.7C1125.8-367.9,1120.8-366,1115.8-366z"/>
	</g>
	<g>
		<path class="st6" d="M1150.5-258.3c-5,0-10.1-1.9-13.9-5.7l-36.7-35.7c-7.9-7.7-8.1-20.4-0.4-28.3s20.4-8.1,28.3-0.4l36.7,35.7
			c7.9,7.7,8.1,20.4,0.4,28.3C1160.9-260.3,1155.7-258.3,1150.5-258.3z"/>
	</g>
	<g>
		<path class="st7" d="M1012.8-258c-4.8,0-9.6-1.7-13.4-5.2c-8.2-7.4-8.8-20-1.4-28.2l53.1-58.8L998-408.9
			c-7.4-8.2-6.8-20.8,1.4-28.2c8.2-7.4,20.8-6.8,28.2,1.4l65.2,72.2c6.9,7.6,6.9,19.2,0,26.8l-65.2,72.2
			C1023.7-260.2,1018.3-258,1012.8-258z"/>
	</g>
</g>
</svg>
