<?xml version="1.0" encoding="utf-8"?>
<!-- Generator: Adobe Illustrator 21.1.0, SVG Export Plug-In . SVG Version: 6.00 Build 0)  -->
<svg version="1.1" id="Layer_1" xmlns="http://www.w3.org/2000/svg" xmlns:xlink="http://www.w3.org/1999/xlink" x="0px" y="0px"
	 viewBox="0 0 59 59" style="enable-background:new 0 0 59 59;" xml:space="preserve">
<style type="text/css">
	.st0{fill:#FFFFFF;}
</style>
<g id="XMLID_1650_">
	<g id="XMLID_1651_">
		<g id="XMLID_1652_">
			<path id="XMLID_1656_" class="st0" d="M36.7,17.4l2-2c0.5-0.5,0.5-1.4,0-2l-0.1-0.1c-0.5-0.5-1.4-0.5-2,0l-2.1,2.1
				c-1.6-1.1-3.6-1.7-5.7-1.7c-5.7,0-10.4,4.7-10.4,10.4s4.7,10.4,10.4,10.4s10.4-4.7,10.4-10.4C39.2,21.6,38.3,19.2,36.7,17.4z
				 M28.9,31.6c-4.1,0-7.4-3.3-7.4-7.4s3.3-7.4,7.4-7.4s7.4,3.3,7.4,7.4S33,31.6,28.9,31.6z"/>
			<g id="XMLID_1653_">
				<g id="XMLID_1654_">
					<path id="XMLID_1655_" class="st0" d="M39.2,48.5L39.2,48.5c-0.8,0-1.4-0.6-1.4-1.4l0,0c0-4.2-2.7-8-6.8-8.9
						c-3.3-0.8-6.6,0.3-8.8,2.7c-0.5,0.5-1.3,0.7-1.9,0.3l0,0c-0.7-0.5-0.8-1.5-0.2-2.2c2.6-2.9,6.5-4.4,10.5-3.8
						c5.8,0.9,10,6.1,10,12l0,0C40.6,47.9,40,48.5,39.2,48.5z"/>
				</g>
			</g>
		</g>
	</g>
</g>
</svg>
