<?xml version="1.0" encoding="utf-8"?>
<!-- Generator: Adobe Illustrator 21.1.0, SVG Export Plug-In . SVG Version: 6.00 Build 0)  -->
<svg version="1.1" id="Layer_1" xmlns="http://www.w3.org/2000/svg" xmlns:xlink="http://www.w3.org/1999/xlink" x="0px" y="0px"
	 viewBox="0 0 22 27" style="enable-background:new 0 0 22 27;" xml:space="preserve">
<style type="text/css">
	.st0{fill:#AD0C00;}
	.st1{fill:#FFFFFF;}
</style>
<g>
	<path class="st0" d="M-21.5,12.5c0-3.2,2.6-4.7,2.7-4.8c-1.5-2.2-3.8-2.5-4.6-2.5c-2-0.2-3.8,1.2-4.8,1.2c-1,0-2.5-1.1-4.2-1.1
		c-2.1,0-4.1,1.2-5.2,3.2c-2.2,3.9-0.6,9.6,1.6,12.7c1.1,1.5,2.3,3.3,4,3.2c1.6-0.1,2.2-1,4.1-1s2.5,1,4.2,1c1.7,0,2.8-1.6,3.9-3.1
		c1.2-1.8,1.7-3.5,1.7-3.6C-18.2,17.6-21.5,16.4-21.5,12.5z"/>
	<path class="st0" d="M-24.7,3.2c0.9-1.1,1.5-2.5,1.3-4c-1.3,0.1-2.8,0.8-3.7,1.9C-27.9,2-28.6,3.5-28.4,5
		C-27,5.1-25.6,4.2-24.7,3.2z"/>
</g>
<g>
	<path class="st1" d="M14.4,3l0.3-0.4l0.3-0.4l0.6-0.9c0.1-0.1,0-0.3-0.1-0.3c-0.1-0.1-0.3,0-0.3,0.1l-0.7,1l-0.3,0.4l-0.3,0.4
		C13,2.5,12,2.3,11,2.3c-1,0-2,0.2-2.9,0.5L7.8,2.4L7.5,2L6.9,1C6.8,0.9,6.7,0.9,6.6,0.9C6.4,1,6.4,1.2,6.5,1.3l0.6,0.9l0.3,0.4
		L7.6,3C5.6,4,4.2,5.8,4.2,7.9h13.7C17.8,5.8,16.4,4,14.4,3z M8.1,5.9c-0.4,0-0.7-0.3-0.7-0.7s0.3-0.7,0.7-0.7
		c0.4,0,0.7,0.3,0.7,0.7S8.5,5.9,8.1,5.9z M13.9,5.9c-0.4,0-0.7-0.3-0.7-0.7s0.3-0.7,0.7-0.7c0.4,0,0.7,0.3,0.7,0.7
		S14.3,5.9,13.9,5.9z"/>
	<path class="st1" d="M4.3,8.9H4.2v1.2v1v8.5c0,0.9,0.7,1.5,1.5,1.5h1.1c0,0.1-0.1,0.3-0.1,0.4v0.1v0.5v2.5c0,0.8,0.7,1.5,1.5,1.5
		s1.5-0.7,1.5-1.5v-2.5v-0.5v-0.1c0-0.1,0-0.3-0.1-0.4h2.7c0,0.1-0.1,0.3-0.1,0.4v0.1v0.5v2.5c0,0.8,0.7,1.5,1.5,1.5
		s1.5-0.7,1.5-1.5v-2.5v-0.5v-0.1c0-0.1,0-0.3-0.1-0.4h1.1c0.9,0,1.5-0.7,1.5-1.5v-8.5v-1V8.9h-0.1L4.3,8.9z"/>
	<path class="st1" d="M1.7,8.9c-0.8,0-1.5,0.7-1.5,1.5v6.3c0,0.8,0.7,1.5,1.5,1.5c0.8,0,1.5-0.7,1.5-1.5v-6.3
		C3.2,9.5,2.5,8.9,1.7,8.9z"/>
	<path class="st1" d="M20.3,8.9c-0.8,0-1.5,0.7-1.5,1.5v6.3c0,0.8,0.7,1.5,1.5,1.5c0.8,0,1.5-0.7,1.5-1.5v-6.3
		C21.7,9.5,21.1,8.9,20.3,8.9z"/>
</g>
</svg>
