<?xml version="1.0" encoding="utf-8"?>
<!-- Generator: Adobe Illustrator 21.1.0, SVG Export Plug-In . SVG Version: 6.00 Build 0)  -->
<svg version="1.1" id="Layer_1" xmlns="http://www.w3.org/2000/svg" xmlns:xlink="http://www.w3.org/1999/xlink" x="0px" y="0px"
	 viewBox="0 0 22 27" style="enable-background:new 0 0 22 27;" xml:space="preserve">
<style type="text/css">
	.st0{fill:#FFFFFF;}
</style>
<g>
	<path class="st0" d="M17.9,14.3c0-3.2,2.6-4.7,2.7-4.8C19.1,7.3,16.8,7,16,7c-2-0.2-3.8,1.2-4.8,1.2c-1,0-2.5-1.1-4.2-1.1
		c-2.1,0-4.1,1.2-5.2,3.2c-2.2,3.9-0.6,9.6,1.6,12.7c1.1,1.5,2.3,3.3,4,3.2c1.6-0.1,2.2-1,4.1-1s2.5,1,4.2,1c1.7,0,2.8-1.6,3.9-3.1
		c1.2-1.8,1.7-3.5,1.7-3.6C21.2,19.4,17.9,18.1,17.9,14.3z"/>
	<path class="st0" d="M14.7,4.9c0.9-1.1,1.5-2.5,1.3-4c-1.3,0.1-2.8,0.8-3.7,1.9c-0.8,0.9-1.5,2.5-1.3,3.9C12.4,6.8,13.8,6,14.7,4.9
		z"/>
</g>
<g>
	<path class="st0" d="M73.4,3l0.3-0.4l0.3-0.4l0.6-0.9c0.1-0.1,0-0.3-0.1-0.3c-0.1-0.1-0.3,0-0.3,0.1l-0.7,1l-0.3,0.4l-0.3,0.4
		C72,2.4,71,2.2,70,2.2c-1,0-2,0.2-2.9,0.5l-0.3-0.4l-0.3-0.4l-0.7-1c-0.1-0.1-0.2-0.1-0.3-0.1c-0.1,0.1-0.1,0.2-0.1,0.3l0.6,0.9
		l0.3,0.4L66.6,3c-2.1,1-3.5,2.8-3.5,4.9h13.7C76.8,5.8,75.4,3.9,73.4,3z M67.1,5.9c-0.4,0-0.7-0.3-0.7-0.7c0-0.4,0.3-0.7,0.7-0.7
		c0.4,0,0.7,0.3,0.7,0.7C67.8,5.6,67.5,5.9,67.1,5.9z M72.9,5.9c-0.4,0-0.7-0.3-0.7-0.7c0-0.4,0.3-0.7,0.7-0.7
		c0.4,0,0.7,0.3,0.7,0.7C73.7,5.6,73.3,5.9,72.9,5.9z"/>
	<path class="st0" d="M63.3,8.8h-0.1V10v1v8.5c0,0.9,0.7,1.5,1.5,1.5h1.1c0,0.1-0.1,0.3-0.1,0.4v0.1v0.5v2.5c0,0.8,0.7,1.5,1.5,1.5
		s1.5-0.7,1.5-1.5v-2.5v-0.5v-0.1c0-0.1,0-0.3-0.1-0.4h2.7c0,0.1-0.1,0.3-0.1,0.4v0.1v0.5v2.5c0,0.8,0.7,1.5,1.5,1.5
		s1.5-0.7,1.5-1.5v-2.5v-0.5v-0.1c0-0.1,0-0.3-0.1-0.4h1.1c0.9,0,1.5-0.7,1.5-1.5V11v-1V8.8h-0.1L63.3,8.8z"/>
	<path class="st0" d="M60.7,8.8c-0.8,0-1.5,0.7-1.5,1.5v6.3c0,0.8,0.7,1.5,1.5,1.5c0.8,0,1.5-0.7,1.5-1.5v-6.3
		C62.2,9.5,61.5,8.8,60.7,8.8z"/>
	<path class="st0" d="M79.3,8.8c-0.8,0-1.5,0.7-1.5,1.5v6.3c0,0.8,0.7,1.5,1.5,1.5c0.8,0,1.5-0.7,1.5-1.5v-6.3
		C80.7,9.5,80.1,8.8,79.3,8.8z"/>
</g>
</svg>
