<?xml version="1.0" encoding="utf-8"?>
<!-- Generator: Adobe Illustrator 21.1.0, SVG Export Plug-In . SVG Version: 6.00 Build 0)  -->
<svg version="1.1" id="Layer_1" xmlns="http://www.w3.org/2000/svg" xmlns:xlink="http://www.w3.org/1999/xlink" x="0px" y="0px"
	 viewBox="0 0 1384 677" style="enable-background:new 0 0 1384 677;" xml:space="preserve">
<style type="text/css">
	.st0{fill:#FFFFFF;}
	.st1{fill:#414042;}
	.st2{fill:url(#XMLID_2_);}
	.st3{fill:none;stroke:#6D6E70;stroke-width:7;stroke-miterlimit:10;}
	.st4{fill:none;}
	.st5{fill:#4D4D4D;}
	.st6{font-family:'Raleway-Medium';}
	.st7{font-size:17.5275px;}
</style>
<g>
	<rect y="0" class="st0" width="1384" height="677"/>
	<g>
		<g>
			<g>
				<ellipse id="XMLID_2468_" class="st1" cx="635.3" cy="287.6" rx="15.8" ry="15.8"/>
				<linearGradient id="XMLID_2_" gradientUnits="userSpaceOnUse" x1="936.4547" y1="365.6602" x2="1095.1418" y2="206.9731">
					<stop  offset="0.1344" style="stop-color:#F05844"/>
					<stop  offset="1" style="stop-color:#603D97"/>
				</linearGradient>
				<path id="XMLID_2440_" class="st2" d="M1025.8,309.4c6.2,6.2,6.2,16.3,0,22.5c-3.1,3.1-7.3,4.7-11.4,4.6h-6
					c-2.9,0-6,1.7-7.7,3.4c-1.6,1.6-3.3,4.4-3.4,7.7v4.5c0.4,4.6-1,9.3-4.5,12.8c-6.2,6.2-16.3,6.2-22.5,0c-6.2-6.2-6.2-16.3,0-22.5
					c3.5-3.5,8.2-5,12.8-4.5h4.5c3.4,0,6.1-1.7,7.8-3.4c1.7-1.7,3.2-4.6,3.4-7.8v-6c0-4.1,1.5-8.2,4.6-11.4
					C1009.5,303.2,1019.6,303.2,1025.8,309.4z M964.1,314.6c0.1-3.3,1.8-6.2,3.4-7.7c1.7-1.7,4.8-3.4,7.7-3.4h4.3
					c4.7,0.5,9.5-0.9,13.1-4.5c6.2-6.2,6.2-16.3,0-22.5c-3.2-3.2-7.4-4.7-11.5-4.6h-5.8c-3.2-0.1-6.1-1.7-7.8-3.4
					c-1.7-1.7-3.3-4.4-3.4-7.8v-4.5c0.4-4.6-1-9.3-4.5-12.8c-6.2-6.2-16.3-6.2-22.5,0c-6.2,6.2-6.2,16.3,0,22.5
					c3.5,3.5,8.2,5,12.8,4.5h4.5c3.3,0.1,6.2,1.8,7.7,3.4c1.7,1.7,3.4,4.8,3.4,7.7v5.3c0,0.4,0,0.9,0,1.3v5.5
					c-0.1,3.2-1.7,6.1-3.4,7.8c-1.7,1.7-4.4,3.3-7.8,3.4h-6.1l0,0c-4.1,0-8.1,1.6-11.2,4.7c-6.2,6.2-6.2,16.3,0,22.5
					c6.2,6.2,16.3,6.2,22.5,0c3.4-3.4,4.9-8,4.6-12.4V314.6z M1080.7,304.8L1080.7,304.8l-6.1,0c-3.2-0.1-6.1-1.7-7.8-3.4
					c-1.7-1.7-3.3-4.4-3.4-7.8V289c0.1-1,0.1-2.1,0-3.1v-4.3c0.1-3.3,1.8-6.2,3.4-7.7c1.7-1.7,4.8-3.4,7.7-3.4h6.1l0,0
					c4.1,0,8.2-1.5,11.3-4.7c6.2-6.2,6.2-16.3,0-22.5c-6.2-6.2-16.3-6.2-22.5,0c-3.1,3.1-4.7,7.2-4.7,11.3l0,0v6.1
					c-0.1,3.2-1.7,6.1-3.4,7.8c-1.7,1.7-4.3,3.3-7.8,3.4h-4.3c-4.6-0.5-9.4,1-12.9,4.5c-6.2,6.2-6.2,16.3,0,22.5
					c3.6,3.6,8.4,5,13.1,4.5h4.2c3.3,0.1,6.2,1.8,7.7,3.4c1.7,1.7,3.4,4.8,3.4,7.7v5.7c-0.1,4.2,1.4,8.5,4.6,11.7
					c6.2,6.2,16.3,6.2,22.5,0c6.2-6.2,6.2-16.3,0-22.5C1088.9,306.3,1084.8,304.7,1080.7,304.8z M1036.3,342.6
					c-6.2,6.2-6.2,16.3,0,22.5c6.2,6.2,16.3,6.2,22.5,0c6.2-6.2,6.2-16.3,0-22.5C1052.6,336.4,1042.6,336.4,1036.3,342.6z
					 M992.6,232.6c6.2-6.2,6.2-16.3,0-22.5c-6.2-6.2-16.3-6.2-22.5,0c-6.2,6.2-6.2,16.3,0,22.5C976.3,238.9,986.4,238.9,992.6,232.6
					z M1025.7,265.7c3.5-3.5,5-8.3,4.5-12.9v-4.4c0.1-3.3,1.8-6.2,3.4-7.7c1.7-1.7,4.8-3.4,7.7-3.4h5.7c4.2,0.1,8.5-1.4,11.7-4.6
					c6.2-6.2,6.2-16.3,0-22.5c-6.2-6.2-16.3-6.2-22.5,0c-3.1,3.1-4.7,7.2-4.7,11.3l0,0v6.1c-0.1,3.2-1.7,6.1-3.4,7.8
					c-1.7,1.7-4.4,3.3-7.8,3.4h-5c-4.4-0.3-8.9,1.2-12.3,4.6c-6.2,6.2-6.2,16.3,0,22.5C1009.4,271.9,1019.5,271.9,1025.7,265.7z"/>
				<g>
					<g>
						<line class="st3" x1="479.8" y1="272.4" x2="479.8" y2="304"/>
						<line class="st3" x1="479.8" y1="271.3" x2="479.8" y2="302.9"/>
					</g>
					<line class="st3" x1="495.5" y1="288.2" x2="464" y2="288.2"/>
				</g>
				<g>
					<line class="st3" x1="815.4" y1="281.1" x2="783.9" y2="281.1"/>
					<line class="st3" x1="815.4" y1="294.2" x2="783.9" y2="294.2"/>
				</g>
			</g>
			<g id="XMLID_2435_">
				<rect id="XMLID_13_" x="232.9" y="413.6" class="st4" width="174.4" height="24"/>
				<text transform="matrix(0.9997 0 0 1 271.7202 426.4004)" class="st5 st6 st7">Work style</text>
			</g>
			<g id="XMLID_2431_">
				<rect id="XMLID_12_" x="548.1" y="413.6" class="st4" width="174.4" height="24"/>
				<text transform="matrix(0.9997 0 0 1 588.2905 426.4004)" class="st5 st6 st7">Induvidual</text>
			</g>
			<g id="XMLID_2427_">
				<rect id="XMLID_11_" x="877.9" y="413.6" class="st4" width="273.2" height="57.9"/>
				<text transform="matrix(0.9997 0 0 1 882.2241 426.4004)"><tspan x="0" y="0" class="st5 st6 st7">Collaboration of induaviduals </tspan><tspan x="47.6" y="30.7" class="st5 st6 st7">for a common goal</tspan></text>
			</g>
		</g>
		<path id="XMLID_2425_" class="st1" d="M324.2,304.8L324.2,304.8l-6.1,0c-3.2-0.1-6.1-1.7-7.8-3.4c-1.7-1.7-3.3-4.4-3.4-7.8V289
			c0.1-1,0.1-2.1,0-3.1v-4.3c0.1-3.3,1.8-6.2,3.4-7.7c1.7-1.7,4.8-3.4,7.7-3.4h6.1l0,0c4.1,0,8.2-1.5,11.3-4.7
			c6.2-6.2,6.2-16.3,0-22.5c-6.2-6.2-16.3-6.2-22.5,0c-3.1,3.1-4.7,7.2-4.7,11.3l0,0v6.1c-0.1,3.2-1.7,6.1-3.4,7.8
			c-1.7,1.7-4.3,3.3-7.8,3.4h-4.3c-4.6-0.5-9.4,1-12.9,4.5c-6.2,6.2-6.2,16.3,0,22.5c3.6,3.6,8.4,5,13.1,4.5h4.2
			c3.3,0.1,6.2,1.8,7.7,3.4c1.7,1.7,3.4,4.8,3.4,7.7v5.7c-0.1,4.2,1.4,8.5,4.6,11.7c6.2,6.2,16.3,6.2,22.5,0
			c6.2-6.2,6.2-16.3,0-22.5C332.4,306.3,328.3,304.8,324.2,304.8z"/>
	</g>
</g>
</svg>
