<?xml version="1.0" encoding="utf-8"?>
<!-- Generator: Adobe Illustrator 21.1.0, SVG Export Plug-In . SVG Version: 6.00 Build 0)  -->
<svg version="1.1" id="Layer_1" xmlns="http://www.w3.org/2000/svg" xmlns:xlink="http://www.w3.org/1999/xlink" x="0px" y="0px"
	 viewBox="0 0 542 327" style="enable-background:new 0 0 542 327;" xml:space="preserve">
<style type="text/css">
	.st0{clip-path:url(#SVGID_2_);fill:#F05844;}
	.st1{clip-path:url(#SVGID_2_);}
	.st2{fill:#FFFFFF;}
</style>
<g>
	<defs>
		<rect id="SVGID_1_" x="0" y="0" width="542" height="327"/>
	</defs>
	<clipPath id="SVGID_2_">
		<use xlink:href="#SVGID_1_"  style="overflow:visible;"/>
	</clipPath>
	<rect x="-49" y="-13.4" class="st0" width="616.4" height="353.9"/>
	<g id="XMLID_1994_" class="st1">
		<g id="XMLID_1995_">
			<g id="XMLID_2282_">
				<path id="XMLID_2326_" class="st2" d="M221.3,179.3c4.6,4.5,4.6,11.8,0,16.3c-2.3,2.3-5.4,3.4-8.4,3.4h-4.5
					c-2.1,0-4.5,1.2-5.7,2.5c-1.2,1.1-2.5,3.2-2.5,5.6v3.3c0.3,3.3-0.8,6.7-3.3,9.2c-4.6,4.5-12.1,4.5-16.7,0s-4.6-11.8,0-16.3
					c2.6-2.5,6.1-3.6,9.5-3.3h3.3c2.5,0,4.5-1.2,5.8-2.4c1.3-1.2,2.4-3.3,2.5-5.6v-4.4c0-3,1.1-6,3.4-8.2
					C209.2,174.8,216.7,174.8,221.3,179.3z M175.5,183c0-2.4,1.4-4.5,2.5-5.6c1.3-1.3,3.6-2.4,5.7-2.5h3.2c3.4,0.4,7-0.7,9.7-3.2
					c4.6-4.5,4.6-11.8,0-16.3c-2.4-2.3-5.5-3.4-8.5-3.4h-4.3c-2.3-0.1-4.5-1.2-5.8-2.4c-1.2-1.2-2.5-3.1-2.5-5.6v-3.3
					c0.3-3.3-0.8-6.7-3.3-9.2c-4.6-4.5-12.1-4.5-16.7,0c-4.6,4.5-4.6,11.8,0,16.3c2.6,2.5,6.1,3.6,9.5,3.3h3.3
					c2.4,0,4.6,1.3,5.7,2.5c1.3,1.3,2.5,3.5,2.5,5.6v3.9c0,0.3,0,0.6,0,0.9v4c-0.1,2.3-1.2,4.4-2.5,5.6c-1.2,1.2-3.2,2.4-5.8,2.4
					h-4.5l0,0c-3,0-6,1.1-8.3,3.4c-4.6,4.5-4.6,11.8,0,16.3s12.1,4.5,16.7,0c2.5-2.5,3.6-5.8,3.4-9V183z M262,175.9L262,175.9
					l-4.5,0c-2.3-0.1-4.5-1.2-5.8-2.4c-1.2-1.2-2.5-3.1-2.5-5.6v-3.3c0.1-0.7,0.1-1.5,0-2.2v-3.1c0-2.4,1.4-4.5,2.5-5.6
					c1.3-1.3,3.6-2.4,5.7-2.5h4.5l0,0c3,0,6.1-1.1,8.4-3.4c4.6-4.5,4.6-11.8,0-16.3c-4.6-4.5-12.1-4.5-16.7,0
					c-2.3,2.3-3.5,5.2-3.4,8.2l0,0v4.4c-0.1,2.3-1.2,4.4-2.5,5.6c-1.2,1.2-3.2,2.4-5.8,2.4h-3.2c-3.4-0.4-7,0.7-9.6,3.3
					c-4.6,4.5-4.6,11.8,0,16.3c2.6,2.6,6.2,3.6,9.7,3.2h3.1c2.4,0,4.6,1.3,5.7,2.5c1.3,1.3,2.5,3.5,2.5,5.6v4.1
					c-0.1,3.1,1,6.1,3.4,8.5c4.6,4.5,12.1,4.5,16.7,0c4.6-4.5,4.6-11.8,0-16.3C268,177,265,175.9,262,175.9z M229.1,203.3
					c-4.6,4.5-4.6,11.8,0,16.3c4.6,4.5,12.1,4.5,16.7,0c4.6-4.5,4.6-11.8,0-16.3C241.2,198.8,233.7,198.8,229.1,203.3z M196.7,123.7
					c4.6-4.5,4.6-11.8,0-16.3c-4.6-4.5-12.1-4.5-16.7,0c-4.6,4.5-4.6,11.8,0,16.3C184.6,128.2,192.1,128.2,196.7,123.7z
					 M221.2,147.7c2.6-2.6,3.7-6,3.3-9.3v-3.2c0-2.4,1.4-4.5,2.5-5.6c1.3-1.3,3.6-2.4,5.7-2.5h4.2c3.1,0.1,6.3-1,8.7-3.3
					c4.6-4.5,4.6-11.8,0-16.3c-4.6-4.5-12.1-4.5-16.7,0c-2.3,2.3-3.5,5.2-3.5,8.2l0,0v4.4c-0.1,2.3-1.2,4.4-2.5,5.6
					c-1.2,1.2-3.2,2.4-5.8,2.4h-3.7c-3.3-0.2-6.6,0.9-9.1,3.3c-4.6,4.5-4.6,11.8,0,16.3C209.1,152.2,216.6,152.2,221.2,147.7z"/>
			</g>
			<g id="XMLID_1996_">
				<path id="XMLID_2280_" class="st2" d="M317.2,112.6h-5.7v20.2h-6.9v-20.2H299v-5.6h18.2V112.6z"/>
				<path id="XMLID_2272_" class="st2" d="M344.9,132.9H338v-10.7h-9.9v10.7h-6.9v-25.8h6.9v10h9.9v-10h6.9V132.9z"/>
				<path id="XMLID_2262_" class="st2" d="M358.3,132.9h-6.9v-25.8h6.9V132.9z"/>
				<path id="XMLID_2217_" class="st2" d="M391.3,132.9h-6.9l-12.7-15.8v15.8h-6.9v-25.8h6.9l12.7,15.8v-15.8h6.9V132.9z"/>
				<path id="XMLID_2215_" class="st2" d="M422.6,132.9h-8.9l-8.9-11.2v11.2h-6.9v-25.8h6.9v10.6l8.4-10.6h8.5l-10.5,12.2
					L422.6,132.9z"/>
				<path id="XMLID_2210_" class="st2" d="M321.6,157.9c0,2.3-0.6,4.3-1.7,5.8c-1.5,2-3.9,3-7.3,3h-4.3v8.6h-6.9v-25.8h11
					c3.1,0,5.5,0.9,7.1,2.7C320.9,153.6,321.6,155.5,321.6,157.9z M314.5,158c0-1-0.3-1.7-0.9-2.3c-0.6-0.6-1.6-0.9-2.9-0.9h-2.3
					v6.4h2.3c1.5,0,2.5-0.3,3.1-0.9C314.2,159.7,314.5,158.9,314.5,158z"/>
				<path id="XMLID_2205_" class="st2" d="M341.4,175.2h-15.1v-25.8h6.9v20.2h8.3V175.2z"/>
				<path id="XMLID_2041_" class="st2" d="M371.1,175.2h-7.3l-1.7-4.5h-9.5l-1.8,4.5h-7.3l10.2-25.8h7.5L371.1,175.2z M360.2,165.6
					l-2.9-8.2l-2.9,8.2H360.2z"/>
				<path id="XMLID_2003_" class="st2" d="M398.2,149.4l-9.9,13.4v12.4h-6.9v-12.4l-9.6-13.4h8.2l5,7l4.8-7H398.2z"/>
				<path id="XMLID_2001_" class="st2" d="M339,191.7l-8.5,25.8h-7l-4.8-15l-5.1,15h-7l-7.9-25.8h7.2l4.6,16.7l5.6-16.7h5.5
					l5.2,16.7l5-16.7H339z"/>
				<path id="XMLID_1999_" class="st2" d="M349.6,217.5h-6.9v-25.8h6.9V217.5z"/>
				<path id="XMLID_1997_" class="st2" d="M382.6,217.5h-6.9L363,201.7v15.8h-6.9v-25.8h6.9l12.7,15.8v-15.8h6.9V217.5z"/>
			</g>
		</g>
	</g>
</g>
</svg>
