<?xml version="1.0" encoding="utf-8"?>
<!-- Generator: Adobe Illustrator 21.1.0, SVG Export Plug-In . SVG Version: 6.00 Build 0)  -->
<svg version="1.1" id="Layer_1" xmlns="http://www.w3.org/2000/svg" xmlns:xlink="http://www.w3.org/1999/xlink" x="0px" y="0px"
	 viewBox="0 0 817 682" style="enable-background:new 0 0 817 682;" xml:space="preserve">
<style type="text/css">
	.st0{clip-path:url(#SVGID_2_);}
	.st1{fill:url(#XMLID_2_);}
	.st2{fill:#FFFFFF;}
</style>
<g>
	<defs>
		<rect id="SVGID_1_" x="0.9" y="0.6" width="815.3" height="680.9"/>
	</defs>
	<clipPath id="SVGID_2_">
		<use xlink:href="#SVGID_1_"  style="overflow:visible;"/>
	</clipPath>
	<g id="XMLID_2389_" class="st0">
		<linearGradient id="XMLID_2_" gradientUnits="userSpaceOnUse" x1="1090.7686" y1="113.2891" x2="-30.9197" y2="492.2378">
			<stop  offset="0.1344" style="stop-color:#F05844"/>
			<stop  offset="1" style="stop-color:#603D97"/>
		</linearGradient>
		<rect id="XMLID_2424_" x="-5.7" y="-7.5" class="st1" width="834.9" height="700.4"/>
		<g id="XMLID_2390_">
			<g id="XMLID_2398_">
				<g id="XMLID_2400_">
					<path id="XMLID_2422_" class="st2" d="M273.9,364.2h-4.4c-3.8,0-6.9-3-6.9-6.7v-13h-18.2v13c0,3.7-3.1,6.7-6.9,6.7h-4.4
						c-0.8,0-1.4-0.6-1.4-1.4v-44.6c0-0.8,0.6-1.4,1.4-1.4h4.4c3.8,0,6.9,3,6.9,6.7v11.6h18.2v-11.6c0-3.7,3.1-6.7,6.9-6.7h4.4
						c0.8,0,1.4,0.6,1.4,1.4v44.6C275.3,363.6,274.7,364.2,273.9,364.2z"/>
					<path id="XMLID_2419_" class="st2" d="M333.3,364.2h-6.6c-2.9,0-5.4-1.7-6.4-4.4l-1.5-3.9h-17.4l-1.6,4c-1,2.6-3.6,4.2-6.4,4.2
						h-6.6c-1,0-1.7-1-1.3-1.9l17.6-44.6c0.2-0.5,0.7-0.9,1.3-0.9h11.8c0.6,0,1.1,0.4,1.3,0.9l17.2,44.6
						C335,363.2,334.3,364.2,333.3,364.2z M315.3,346.5l-5.2-15.1l-5.3,15.1H315.3z"/>
					<path id="XMLID_2417_" class="st2" d="M378.2,348.5c0,8-3.6,13.2-10.8,15.7c-2.5,0.9-5.2,1.3-8.1,1.3c-5.7,0-10.9-1.6-15.8-4.7
						c-0.6-0.4-0.8-1.2-0.5-1.8l1.2-2.3c1.7-3.1,5.7-4.5,8.9-2.9c2,0.9,3.9,1.4,5.8,1.4c1.6,0,3-0.4,4.2-1.1c1.3-0.8,2-2,2-3.6
						c0-1.4-0.7-2.6-2.2-3.5c-1.1-0.7-2.9-1.4-5.5-2.1c-3.1-0.9-5.1-1.5-5.9-1.9c-1.3-0.5-2.4-1.2-3.3-1.9c-2.6-2.1-3.9-5.2-3.9-9.4
						c0-4.4,1.3-8,4-10.9c3.1-3.4,7.3-5.1,12.5-5.1c4.8,0,9.5,1.1,14.1,3.2c0.7,0.3,1,1.2,0.6,1.9l-1.2,2.4c-1.5,2.9-5,4.2-8.2,3.3
						c-1.1-0.3-2.2-0.5-3.3-0.5c-1.4,0-2.6,0.3-3.6,1c-1.2,0.8-1.8,1.8-1.8,3.1c0,1.3,0.8,2.3,2.4,3.2c0.7,0.4,2.9,1.1,6.4,2.2
						c4.5,1.3,7.7,3.1,9.6,5.4C377.4,342.8,378.2,345.4,378.2,348.5z"/>
					<path id="XMLID_2413_" class="st2" d="M431.9,364.2h-4.4c-3.8,0-6.9-3-6.9-6.7v-13h-18.2v13c0,3.7-3.1,6.7-6.9,6.7h-4.4
						c-0.8,0-1.4-0.6-1.4-1.4v-44.6c0-0.8,0.6-1.4,1.4-1.4h4.4c3.8,0,6.9,3,6.9,6.7v11.6h18.2v-11.6c0-3.7,3.1-6.7,6.9-6.7h4.4
						c0.8,0,1.4,0.6,1.4,1.4v44.6C433.4,363.6,432.7,364.2,431.9,364.2z"/>
					<path id="XMLID_2411_" class="st2" d="M515.4,318.6l-14.6,44.6c-0.2,0.6-0.7,1-1.4,1h-6.8c-3,0-5.6-1.9-6.5-4.7l-7.4-22.8
						l-7.7,22.9c-0.9,2.7-3.5,4.6-6.5,4.6h-6.8c-0.6,0-1.2-0.4-1.4-1l-13.6-44.6c-0.3-0.9,0.4-1.8,1.4-1.8h6.1c3.1,0,5.8,2,6.6,4.9
						l7.1,25.7l8.7-26c0.9-2.7,3.5-4.6,6.5-4.6h0c3,0,5.7,1.9,6.6,4.7l8.1,25.9l7.7-25.8c0.9-2.8,3.5-4.8,6.6-4.8h6.1
						C515,316.8,515.7,317.7,515.4,318.6z"/>
					<path id="XMLID_2408_" class="st2" d="M576.4,340.6c0,6.4-2.2,12.1-6.6,16.9c-5,5.5-11.8,8.3-20.3,8.3
						c-8.5,0-15.3-2.8-20.3-8.3c-4.4-4.9-6.6-10.5-6.6-16.9c0-2.9,0.6-6,1.8-9c1.2-3.1,2.8-5.7,4.8-7.9c5-5.5,11.8-8.3,20.3-8.3
						s15.3,2.8,20.3,8.3C574.2,328.5,576.4,334.2,576.4,340.6z M563.3,340.6c0-3.3-1.1-6.2-3.3-8.7c-2.8-3.1-6.3-4.7-10.5-4.7
						c-2.9,0-5.5,0.8-7.9,2.4c-2.4,1.6-4,3.7-5,6.4c-0.6,1.5-0.9,3-0.9,4.6c0,3.2,1.1,6.1,3.3,8.6c2.7,3.1,6.2,4.7,10.5,4.7
						c4.3,0,7.8-1.6,10.5-4.7C562.2,346.8,563.3,343.9,563.3,340.6z"/>
					<path id="XMLID_2405_" class="st2" d="M625.5,364.2h-9.1c-2.3,0-4.5-1.1-5.8-3.1l-10-15.1v11.5c0,3.7-3.1,6.7-6.9,6.7h-4.4
						c-0.8,0-1.4-0.6-1.4-1.4v-44.6c0-0.8,0.6-1.4,1.4-1.4h18.2c5.7,0,10,1.7,12.7,5c2.2,2.7,3.3,5.9,3.3,9.5c0,4.2-1.3,7.5-3.8,10
						c-1.6,1.6-3.9,2.7-6.8,3.3l13.5,17.2C627.4,362.9,626.7,364.2,625.5,364.2z M610.6,332.1c0-1.7-0.6-3.1-1.9-4.3
						c-1.2-1.1-3.1-1.6-5.8-1.6h-2.4V338h2.4c2.7,0,4.6-0.5,5.8-1.6C610,335.2,610.6,333.7,610.6,332.1z"/>
					<path id="XMLID_2403_" class="st2" d="M679.7,364.2h-10c-2.1,0-4.1-1-5.4-2.6l-14.3-18v13.9c0,3.7-3.1,6.7-6.9,6.7h-4.4
						c-0.8,0-1.4-0.6-1.4-1.4v-44.6c0-0.8,0.6-1.4,1.4-1.4h4.4c3.8,0,6.9,3,6.9,6.7v12.9l13.4-16.9c1.3-1.6,3.3-2.6,5.4-2.6h9.1
						c1.2,0,1.9,1.4,1.1,2.3l-17.3,20.2l19.1,22.7C681.6,362.8,680.9,364.2,679.7,364.2z"/>
					<path id="XMLID_2401_" class="st2" d="M725.7,348.5c0,8-3.6,13.2-10.8,15.7c-2.5,0.9-5.2,1.3-8.1,1.3c-5.7,0-10.9-1.6-15.8-4.7
						c-0.6-0.4-0.8-1.2-0.5-1.8l1.2-2.3c1.7-3.1,5.7-4.5,8.9-2.9c2,0.9,3.9,1.4,5.8,1.4c1.6,0,3-0.4,4.2-1.1c1.3-0.8,2-2,2-3.6
						c0-1.4-0.7-2.6-2.2-3.5c-1.1-0.7-2.9-1.4-5.5-2.1c-3.1-0.9-5.1-1.5-5.9-1.9c-1.3-0.5-2.4-1.2-3.3-1.9c-2.6-2.1-3.9-5.2-3.9-9.4
						c0-4.4,1.3-8,4-10.9c3.1-3.4,7.3-5.1,12.5-5.1c4.8,0,9.5,1.1,14.1,3.2c0.7,0.3,1,1.2,0.6,1.9l-1.2,2.4c-1.5,2.9-5,4.2-8.2,3.3
						c-1.1-0.3-2.2-0.5-3.3-0.5c-1.4,0-2.6,0.3-3.6,1c-1.2,0.8-1.8,1.8-1.8,3.1c0,1.3,0.8,2.3,2.4,3.2c0.7,0.4,2.9,1.1,6.4,2.2
						c4.5,1.3,7.7,3.1,9.6,5.4C724.8,342.8,725.7,345.4,725.7,348.5z"/>
				</g>
			</g>
			<path id="XMLID_2391_" class="st2" d="M161.2,357.2c4.2,4.1,4.2,10.8,0,14.9c-2.1,2.1-4.9,3.1-7.7,3.1h-4.1c-2,0-4.1,1.1-5.3,2.2
				c-1.1,1-2.3,2.9-2.3,5.1v3c0.3,3-0.7,6.2-3.1,8.5c-4.2,4.1-11.1,4.1-15.3,0c-4.2-4.1-4.2-10.8,0-14.9c2.4-2.3,5.6-3.3,8.7-3h3.1
				c2.3,0,4.2-1.1,5.3-2.2c1.1-1.1,2.2-3.1,2.3-5.2v-4c0-2.7,1-5.5,3.2-7.6C150.1,353.1,157,353.1,161.2,357.2z M119.3,360.6
				c0-2.2,1.2-4.1,2.3-5.1c1.2-1.2,3.3-2.2,5.3-2.2h2.9c3.2,0.4,6.5-0.6,8.9-3c4.2-4.1,4.2-10.8,0-14.9c-2.2-2.1-5-3.1-7.8-3.1h-4
				c-2.2-0.1-4.1-1.1-5.3-2.2c-1.1-1.1-2.3-2.9-2.3-5.2v-3c0.3-3-0.7-6.2-3.1-8.5c-4.2-4.1-11.1-4.1-15.3,0
				c-4.2,4.1-4.2,10.8,0,14.9c2.4,2.3,5.6,3.3,8.7,3h3.1c2.2,0,4.2,1.2,5.3,2.2c1.2,1.2,2.3,3.2,2.3,5.1v3.5c0,0.3,0,0.6,0,0.9v3.6
				c-0.1,2.1-1.1,4-2.3,5.2c-1.1,1.1-3,2.2-5.3,2.2h-4.2l0,0c-2.8,0-5.5,1-7.6,3.1c-4.2,4.1-4.2,10.8,0,14.9
				c4.2,4.1,11.1,4.1,15.3,0c2.3-2.3,3.3-5.3,3.1-8.2V360.6z M198.5,354.1L198.5,354.1l-4.2,0c-2.2-0.1-4.1-1.1-5.3-2.2
				c-1.1-1.1-2.3-2.9-2.3-5.2v-3.1c0.1-0.7,0.1-1.4,0-2v-2.9c0-2.2,1.2-4.1,2.3-5.1c1.2-1.2,3.3-2.2,5.3-2.2h4.2l0,0
				c2.8,0,5.6-1,7.7-3.1c4.2-4.1,4.2-10.8,0-14.9c-4.2-4.1-11.1-4.1-15.3,0c-2.1,2.1-3.2,4.8-3.2,7.5l0,0v4.1
				c-0.1,2.1-1.1,4-2.3,5.2c-1.1,1.1-3,2.2-5.3,2.2h-2.9c-3.1-0.3-6.4,0.6-8.8,3c-4.2,4.1-4.2,10.8,0,14.9c2.4,2.4,5.7,3.3,8.9,3
				h2.9c2.2,0,4.2,1.2,5.3,2.2c1.2,1.2,2.3,3.2,2.3,5.1v3.8c-0.1,2.8,0.9,5.6,3.1,7.8c4.2,4.1,11.1,4.1,15.3,0
				c4.2-4.1,4.2-10.8,0-14.9C204.1,355.1,201.3,354.1,198.5,354.1z M168.4,379.2c-4.2,4.1-4.2,10.8,0,14.9c4.2,4.1,11.1,4.1,15.3,0
				c4.2-4.1,4.2-10.8,0-14.9C179.4,375,172.6,375,168.4,379.2z M138.7,306.3c4.2-4.1,4.2-10.8,0-14.9s-11.1-4.1-15.3,0
				c-4.2,4.1-4.2,10.8,0,14.9C127.6,310.4,134.4,310.4,138.7,306.3z M161.2,328.2c2.4-2.3,3.4-5.5,3.1-8.6v-2.9
				c0-2.2,1.2-4.1,2.3-5.1c1.2-1.2,3.3-2.2,5.3-2.2h3.9c2.9,0.1,5.8-0.9,8-3.1c4.2-4.1,4.2-10.8,0-14.9c-4.2-4.1-11.1-4.1-15.3,0
				c-2.1,2.1-3.2,4.8-3.2,7.5l0,0v4.1c-0.1,2.1-1.1,4-2.3,5.2c-1.1,1.1-3,2.2-5.3,2.2h-3.4c-3-0.2-6.1,0.8-8.4,3
				c-4.2,4.1-4.2,10.8,0,14.9C150.1,332.3,156.9,332.3,161.2,328.2z"/>
		</g>
	</g>
</g>
</svg>
