<?xml version="1.0" encoding="utf-8"?>
<!-- Generator: Adobe Illustrator 21.1.0, SVG Export Plug-In . SVG Version: 6.00 Build 0)  -->
<svg version="1.1" id="Layer_1" xmlns="http://www.w3.org/2000/svg" xmlns:xlink="http://www.w3.org/1999/xlink" x="0px" y="0px"
	 viewBox="0 0 1384 677" style="enable-background:new 0 0 1384 677;" xml:space="preserve">
<style type="text/css">
	.st0{fill:#F1F1F2;}
	.st1{fill:#603C96;}
	.st2{clip-path:url(#SVGID_2_);fill:#B44D67;}
	.st3{clip-path:url(#SVGID_2_);fill:#B34C67;}
	.st4{clip-path:url(#SVGID_2_);fill:#B24C68;}
	.st5{clip-path:url(#SVGID_2_);fill:#B14C69;}
	.st6{clip-path:url(#SVGID_2_);fill:#B04C69;}
	.st7{clip-path:url(#SVGID_2_);fill:#AF4C6A;}
	.st8{clip-path:url(#SVGID_2_);fill:#AE4C6A;}
	.st9{clip-path:url(#SVGID_2_);fill:#AD4B6B;}
	.st10{clip-path:url(#SVGID_2_);fill:#AC4B6B;}
	.st11{clip-path:url(#SVGID_2_);fill:#AB4B6C;}
	.st12{clip-path:url(#SVGID_2_);fill:#AA4B6D;}
	.st13{clip-path:url(#SVGID_2_);fill:#A94B6D;}
	.st14{clip-path:url(#SVGID_2_);fill:#A74A6E;}
	.st15{clip-path:url(#SVGID_2_);fill:#A64A6E;}
	.st16{clip-path:url(#SVGID_2_);fill:#A54A6F;}
	.st17{clip-path:url(#SVGID_2_);fill:#A44A70;}
	.st18{clip-path:url(#SVGID_2_);fill:#A34A70;}
	.st19{clip-path:url(#SVGID_2_);fill:#A24971;}
	.st20{clip-path:url(#SVGID_2_);fill:#A14971;}
	.st21{clip-path:url(#SVGID_2_);fill:#A04972;}
	.st22{clip-path:url(#SVGID_2_);fill:#9F4972;}
	.st23{clip-path:url(#SVGID_2_);fill:#9E4973;}
	.st24{clip-path:url(#SVGID_2_);fill:#9D4974;}
	.st25{clip-path:url(#SVGID_2_);fill:#9C4874;}
	.st26{clip-path:url(#SVGID_2_);fill:#9B4875;}
	.st27{clip-path:url(#SVGID_2_);fill:#9A4875;}
	.st28{clip-path:url(#SVGID_2_);fill:#994876;}
	.st29{clip-path:url(#SVGID_2_);fill:#984876;}
	.st30{clip-path:url(#SVGID_2_);fill:#974777;}
	.st31{clip-path:url(#SVGID_2_);fill:#964778;}
	.st32{clip-path:url(#SVGID_2_);fill:#954778;}
	.st33{clip-path:url(#SVGID_2_);fill:#944779;}
	.st34{clip-path:url(#SVGID_2_);fill:#934779;}
	.st35{clip-path:url(#SVGID_2_);fill:#92467A;}
	.st36{clip-path:url(#SVGID_2_);fill:#91467B;}
	.st37{clip-path:url(#SVGID_2_);fill:#90467B;}
	.st38{clip-path:url(#SVGID_2_);fill:#8F467C;}
	.st39{clip-path:url(#SVGID_2_);fill:#8E467C;}
	.st40{clip-path:url(#SVGID_2_);fill:#8D457D;}
	.st41{clip-path:url(#SVGID_2_);fill:#8C457D;}
	.st42{clip-path:url(#SVGID_2_);fill:#8B457E;}
	.st43{clip-path:url(#SVGID_2_);fill:#8A457F;}
	.st44{clip-path:url(#SVGID_2_);fill:#89457F;}
	.st45{clip-path:url(#SVGID_2_);fill:#884580;}
	.st46{clip-path:url(#SVGID_2_);fill:#874480;}
	.st47{clip-path:url(#SVGID_2_);fill:#864481;}
	.st48{clip-path:url(#SVGID_2_);fill:#854482;}
	.st49{clip-path:url(#SVGID_2_);fill:#844482;}
	.st50{clip-path:url(#SVGID_2_);fill:#834483;}
	.st51{clip-path:url(#SVGID_2_);fill:#824383;}
	.st52{clip-path:url(#SVGID_2_);fill:#814384;}
	.st53{clip-path:url(#SVGID_2_);fill:#804384;}
	.st54{clip-path:url(#SVGID_2_);fill:#7F4385;}
	.st55{clip-path:url(#SVGID_2_);fill:#7E4386;}
	.st56{clip-path:url(#SVGID_2_);fill:#7D4286;}
	.st57{clip-path:url(#SVGID_2_);fill:#7C4287;}
	.st58{clip-path:url(#SVGID_2_);fill:#7B4287;}
	.st59{clip-path:url(#SVGID_2_);fill:#7A4288;}
	.st60{clip-path:url(#SVGID_2_);fill:#794288;}
	.st61{clip-path:url(#SVGID_2_);fill:#784289;}
	.st62{clip-path:url(#SVGID_2_);fill:#77418A;}
	.st63{clip-path:url(#SVGID_2_);fill:#76418A;}
	.st64{clip-path:url(#SVGID_2_);fill:#75418B;}
	.st65{clip-path:url(#SVGID_2_);fill:#74418B;}
	.st66{clip-path:url(#SVGID_2_);fill:#73418C;}
	.st67{clip-path:url(#SVGID_2_);fill:#72408D;}
	.st68{clip-path:url(#SVGID_2_);fill:#71408D;}
	.st69{clip-path:url(#SVGID_2_);fill:#70408E;}
	.st70{clip-path:url(#SVGID_2_);fill:#6F408E;}
	.st71{clip-path:url(#SVGID_2_);fill:#6E408F;}
	.st72{clip-path:url(#SVGID_2_);fill:#6D3F8F;}
	.st73{clip-path:url(#SVGID_2_);fill:#6C3F90;}
	.st74{clip-path:url(#SVGID_2_);fill:#6B3F91;}
	.st75{clip-path:url(#SVGID_2_);fill:#6A3F91;}
	.st76{clip-path:url(#SVGID_2_);fill:#693F92;}
	.st77{clip-path:url(#SVGID_2_);fill:#683F92;}
	.st78{clip-path:url(#SVGID_2_);fill:#673E93;}
	.st79{clip-path:url(#SVGID_2_);fill:#663E94;}
	.st80{clip-path:url(#SVGID_2_);fill:#653E94;}
	.st81{clip-path:url(#SVGID_2_);fill:#643E95;}
	.st82{clip-path:url(#SVGID_2_);fill:#633E95;}
	.st83{clip-path:url(#SVGID_2_);fill:#623D96;}
	.st84{clip-path:url(#SVGID_2_);fill:#613D96;}
	.st85{clip-path:url(#SVGID_2_);fill:#603D97;}
	.st86{clip-path:url(#SVGID_2_);fill:#E4564B;}
	.st87{clip-path:url(#SVGID_2_);fill:#E3564C;}
	.st88{clip-path:url(#SVGID_2_);fill:#E2554C;}
	.st89{clip-path:url(#SVGID_2_);fill:#E1554D;}
	.st90{clip-path:url(#SVGID_2_);fill:#E0554D;}
	.st91{clip-path:url(#SVGID_2_);fill:#DF554E;}
	.st92{clip-path:url(#SVGID_2_);fill:#DE554E;}
	.st93{clip-path:url(#SVGID_2_);fill:#DD544F;}
	.st94{clip-path:url(#SVGID_2_);fill:#DC5450;}
	.st95{clip-path:url(#SVGID_2_);fill:#DB5450;}
	.st96{clip-path:url(#SVGID_2_);fill:#DA5451;}
	.st97{clip-path:url(#SVGID_2_);fill:#D95451;}
	.st98{clip-path:url(#SVGID_2_);fill:#D85352;}
	.st99{clip-path:url(#SVGID_2_);fill:#D75353;}
	.st100{clip-path:url(#SVGID_2_);fill:#D65353;}
	.st101{clip-path:url(#SVGID_2_);fill:#D55354;}
	.st102{clip-path:url(#SVGID_2_);fill:#D45354;}
	.st103{clip-path:url(#SVGID_2_);fill:#D35355;}
	.st104{clip-path:url(#SVGID_2_);fill:#D25255;}
	.st105{clip-path:url(#SVGID_2_);fill:#D15256;}
	.st106{clip-path:url(#SVGID_2_);fill:#D05257;}
	.st107{clip-path:url(#SVGID_2_);fill:#CF5257;}
	.st108{clip-path:url(#SVGID_2_);fill:#CE5258;}
	.st109{clip-path:url(#SVGID_2_);fill:#CD5158;}
	.st110{clip-path:url(#SVGID_2_);fill:#CC5159;}
	.st111{clip-path:url(#SVGID_2_);fill:#CB5159;}
	.st112{clip-path:url(#SVGID_2_);fill:#CA515A;}
	.st113{clip-path:url(#SVGID_2_);fill:#C9515B;}
	.st114{clip-path:url(#SVGID_2_);fill:#C8505B;}
	.st115{clip-path:url(#SVGID_2_);fill:#C7505C;}
	.st116{clip-path:url(#SVGID_2_);fill:#C6505C;}
	.st117{clip-path:url(#SVGID_2_);fill:#C5505D;}
	.st118{clip-path:url(#SVGID_2_);fill:#C4505E;}
	.st119{clip-path:url(#SVGID_2_);fill:#C3505E;}
	.st120{clip-path:url(#SVGID_2_);fill:#C24F5F;}
	.st121{clip-path:url(#SVGID_2_);fill:#C14F5F;}
	.st122{clip-path:url(#SVGID_2_);fill:#C04F60;}
	.st123{clip-path:url(#SVGID_2_);fill:#BF4F60;}
	.st124{clip-path:url(#SVGID_2_);fill:#BE4F61;}
	.st125{clip-path:url(#SVGID_2_);fill:#BD4E62;}
	.st126{clip-path:url(#SVGID_2_);fill:#BC4E62;}
	.st127{clip-path:url(#SVGID_2_);fill:#BB4E63;}
	.st128{clip-path:url(#SVGID_2_);fill:#BA4E63;}
	.st129{clip-path:url(#SVGID_2_);fill:#B94E64;}
	.st130{clip-path:url(#SVGID_2_);fill:#B84D65;}
	.st131{clip-path:url(#SVGID_2_);fill:#B74D65;}
	.st132{clip-path:url(#SVGID_2_);fill:#B64D66;}
	.st133{clip-path:url(#SVGID_2_);fill:#B54D66;}
	.st134{clip-path:url(#SVGID_2_);fill:#F05844;}
	.st135{clip-path:url(#SVGID_2_);fill:#EF5845;}
	.st136{clip-path:url(#SVGID_2_);fill:#EE5845;}
	.st137{clip-path:url(#SVGID_2_);fill:#ED5746;}
	.st138{clip-path:url(#SVGID_2_);fill:#EC5746;}
	.st139{clip-path:url(#SVGID_2_);fill:#EB5747;}
	.st140{clip-path:url(#SVGID_2_);fill:#EA5747;}
	.st141{clip-path:url(#SVGID_2_);fill:#E95748;}
	.st142{clip-path:url(#SVGID_2_);fill:#E85649;}
	.st143{clip-path:url(#SVGID_2_);fill:#E75649;}
	.st144{clip-path:url(#SVGID_2_);fill:#E6564A;}
	.st145{clip-path:url(#SVGID_2_);fill:#E5564A;}
	.st146{fill:#F05944;}
</style>
<g>
	<g>
		<rect y="1.7" class="st0" width="1384" height="677"/>
	</g>
	<g id="XMLID_2469_">
		<g id="XMLID_2751_">
			<g id="XMLID_2752_">
				<g id="XMLID_2883_">
					<path class="st1" d="M590.1,356.5h-3.2c-2.8,0-5.1-2.3-5.1-5.1v-9.9h-13.5v9.9c0,2.8-2.3,5.1-5.1,5.1h-3.2c-0.6,0-1-0.5-1-1
						v-33.8c0-0.6,0.5-1,1-1h3.2c2.8,0,5.1,2.3,5.1,5.1v8.8h13.5v-8.8c0-2.8,2.3-5.1,5.1-5.1h3.2c0.6,0,1,0.5,1,1v33.8
						C591.2,356,590.7,356.5,590.1,356.5z"/>
				</g>
				<g id="XMLID_2880_">
					<path class="st1" d="M634,356.5h-4.9c-2.1,0-4-1.3-4.8-3.3l-1.1-3h-12.9l-1.2,3.1c-0.8,1.9-2.6,3.2-4.7,3.2h-4.9
						c-0.7,0-1.3-0.7-1-1.4l13-33.8c0.2-0.4,0.5-0.7,1-0.7h8.7c0.4,0,0.8,0.3,1,0.7l12.7,33.8C635.3,355.8,634.8,356.5,634,356.5z
						 M620.7,343.1l-3.9-11.4l-3.9,11.4H620.7z"/>
				</g>
				<g id="XMLID_2878_">
					<path class="st1" d="M667.3,344.6c0,6.1-2.7,10-8,11.9c-1.9,0.6-3.9,1-6,1c-4.2,0-8.1-1.2-11.7-3.5c-0.5-0.3-0.6-0.9-0.3-1.4
						l0.9-1.7c1.3-2.4,4.2-3.4,6.6-2.2c1.4,0.7,2.9,1.1,4.3,1.1c1.2,0,2.2-0.3,3.1-0.8c1-0.6,1.5-1.5,1.5-2.7c0-1.1-0.5-1.9-1.6-2.7
						c-0.8-0.5-2.2-1.1-4.1-1.6c-2.3-0.7-3.8-1.2-4.4-1.4c-0.9-0.4-1.8-0.9-2.4-1.4c-1.9-1.6-2.9-4-2.9-7.1c0-3.3,1-6.1,3-8.3
						c2.3-2.6,5.4-3.9,9.3-3.9c3.5,0,7,0.8,10.4,2.4c0.5,0.3,0.7,0.9,0.5,1.4l-0.9,1.8c-1.1,2.2-3.7,3.2-6.1,2.5
						c-0.8-0.2-1.6-0.4-2.4-0.4c-1,0-1.9,0.3-2.7,0.8c-0.9,0.6-1.3,1.4-1.3,2.3c0,1,0.6,1.8,1.8,2.5c0.5,0.3,2.1,0.9,4.7,1.6
						c3.3,1,5.7,2.3,7.1,4.1C666.7,340.3,667.3,342.3,667.3,344.6z"/>
				</g>
				<g id="XMLID_2876_">
					<path class="st1" d="M707,356.5h-3.2c-2.8,0-5.1-2.3-5.1-5.1v-9.9h-13.5v9.9c0,2.8-2.3,5.1-5.1,5.1h-3.2c-0.6,0-1-0.5-1-1
						v-33.8c0-0.6,0.5-1,1-1h3.2c2.8,0,5.1,2.3,5.1,5.1v8.8h13.5v-8.8c0-2.8,2.3-5.1,5.1-5.1h3.2c0.6,0,1,0.5,1,1v33.8
						C708,356,707.6,356.5,707,356.5z"/>
				</g>
				<g id="XMLID_2874_">
					<path class="st1" d="M768.7,322l-10.8,33.8c-0.1,0.4-0.5,0.7-1,0.7h-5c-2.2,0-4.2-1.4-4.8-3.5l-5.4-17.3l-5.7,17.3
						c-0.7,2.1-2.6,3.5-4.8,3.5H726c-0.5,0-0.9-0.3-1-0.7l-10.1-33.8c-0.2-0.7,0.3-1.3,1-1.3h4.5c2.3,0,4.3,1.5,4.9,3.8l5.2,19.5
						l6.5-19.7c0.7-2.1,2.6-3.5,4.8-3.5l0,0c2.2,0,4.2,1.5,4.8,3.6l6,19.6l5.7-19.6c0.6-2.2,2.6-3.6,4.9-3.6h4.5
						C768.4,320.6,768.9,321.3,768.7,322z"/>
				</g>
				<g id="XMLID_2790_">
					<path class="st1" d="M813.7,338.7c0,4.9-1.6,9.2-4.9,12.8c-3.7,4.2-8.7,6.3-15,6.3c-6.3,0-11.3-2.1-15-6.3
						c-3.2-3.7-4.9-8-4.9-12.8c0-2.2,0.4-4.5,1.3-6.9c0.9-2.3,2.1-4.3,3.5-6c3.7-4.2,8.7-6.3,15-6.3s11.3,2.1,15,6.3
						C812.1,329.5,813.7,333.8,813.7,338.7z M804.1,338.7c0-2.5-0.8-4.7-2.4-6.6c-2.1-2.4-4.7-3.5-7.8-3.5c-2.1,0-4.1,0.6-5.8,1.8
						c-1.7,1.2-3,2.8-3.7,4.8c-0.4,1.1-0.6,2.3-0.6,3.5c0,2.4,0.8,4.6,2.4,6.5c2,2.4,4.6,3.6,7.8,3.6c3.2,0,5.8-1.2,7.8-3.5
						C803.3,343.3,804.1,341.1,804.1,338.7z"/>
				</g>
				<g id="XMLID_2760_">
					<path class="st1" d="M850.1,356.5h-6.7c-1.7,0-3.3-0.9-4.3-2.3l-7.4-11.5v8.7c0,2.8-2.3,5.1-5.1,5.1h-3.2c-0.6,0-1-0.5-1-1
						v-33.8c0-0.6,0.5-1,1-1h13.5c4.2,0,7.4,1.3,9.4,3.8c1.6,2.1,2.5,4.5,2.5,7.2c0,3.2-0.9,5.7-2.8,7.6c-1.2,1.2-2.9,2.1-5,2.5
						l10,13C851.5,355.5,851,356.5,850.1,356.5z M839.1,332.2c0-1.3-0.5-2.4-1.4-3.2c-0.9-0.8-2.3-1.2-4.3-1.2h-1.7v8.9h1.7
						c2,0,3.4-0.4,4.3-1.2C838.6,334.5,839.1,333.4,839.1,332.2z"/>
				</g>
				<g id="XMLID_2756_">
					<path class="st1" d="M890.2,356.5h-7.4c-1.6,0-3-0.7-4-2l-10.6-13.6v10.5c0,2.8-2.3,5.1-5.1,5.1h-3.2c-0.6,0-1-0.5-1-1v-33.8
						c0-0.6,0.5-1,1-1h3.2c2.8,0,5.1,2.3,5.1,5.1v9.7l9.9-12.8c1-1.2,2.4-2,4-2h6.8c0.9,0,1.4,1,0.8,1.7l-12.8,15.3l14.1,17.2
						C891.5,355.5,891.1,356.5,890.2,356.5z"/>
				</g>
				<g id="XMLID_2754_">
					<path class="st1" d="M924.1,344.6c0,6.1-2.7,10-8,11.9c-1.9,0.6-3.9,1-6,1c-4.2,0-8.1-1.2-11.7-3.5c-0.5-0.3-0.6-0.9-0.3-1.4
						l0.9-1.7c1.3-2.4,4.2-3.4,6.6-2.2c1.4,0.7,2.9,1.1,4.3,1.1c1.2,0,2.2-0.3,3.1-0.8c1-0.6,1.5-1.5,1.5-2.7c0-1.1-0.5-1.9-1.6-2.7
						c-0.8-0.5-2.2-1.1-4.1-1.6c-2.3-0.7-3.8-1.2-4.4-1.4c-0.9-0.4-1.8-0.9-2.4-1.4c-1.9-1.6-2.9-4-2.9-7.1c0-3.3,1-6.1,3-8.3
						c2.3-2.6,5.4-3.9,9.3-3.9c3.5,0,7,0.8,10.4,2.4c0.5,0.3,0.7,0.9,0.5,1.4l-0.9,1.8c-1.1,2.2-3.7,3.2-6.1,2.5
						c-0.8-0.2-1.6-0.4-2.4-0.4c-1,0-1.9,0.3-2.7,0.8c-0.9,0.6-1.3,1.4-1.3,2.3c0,1,0.6,1.8,1.8,2.5c0.5,0.3,2.1,0.9,4.7,1.6
						c3.3,1,5.7,2.3,7.1,4.1C923.5,340.3,924.1,342.3,924.1,344.6z"/>
				</g>
			</g>
		</g>
		<g id="XMLID_2477_">
			<g>
				<defs>
					<path id="SVGID_1_" d="M506.8,351.2c3.1,3.1,3.1,8.2,0,11.3c-1.6,1.6-3.7,2.4-5.7,2.3h-3c-1.5,0-3,0.8-3.9,1.7
						c-0.8,0.8-1.7,2.2-1.7,3.9v2.3c0.2,2.3-0.5,4.7-2.3,6.4c-3.1,3.1-8.2,3.1-11.3,0c-3.1-3.1-3.1-8.2,0-11.3
						c1.8-1.8,4.1-2.5,6.4-2.3h2.3c1.7,0,3.1-0.9,3.9-1.7c0.8-0.8,1.6-2.3,1.7-3.9v-3c0-2.1,0.8-4.1,2.3-5.7
						C498.6,348.1,503.7,348.1,506.8,351.2z M475.8,353.8c0-1.7,0.9-3.1,1.7-3.9c0.9-0.9,2.4-1.7,3.9-1.7h2.2
						c2.3,0.3,4.8-0.5,6.6-2.3c3.1-3.1,3.1-8.2,0-11.3c-1.6-1.6-3.7-2.4-5.8-2.3h-2.9c-1.6-0.1-3.1-0.8-3.9-1.7
						c-0.8-0.8-1.7-2.2-1.7-3.9v-2.3c0.2-2.3-0.5-4.7-2.3-6.4c-3.1-3.1-8.2-3.1-11.3,0c-3.1,3.1-3.1,8.2,0,11.3
						c1.8,1.8,4.1,2.5,6.4,2.3h2.3c1.7,0,3.1,0.9,3.9,1.7c0.9,0.9,1.7,2.4,1.7,3.9v2.7c0,0.2,0,0.4,0,0.7v2.8
						c-0.1,1.6-0.8,3.1-1.7,3.9c-0.8,0.8-2.2,1.7-3.9,1.7h-3.1l0,0c-2,0-4.1,0.8-5.6,2.3c-3.1,3.1-3.1,8.2,0,11.3
						c3.1,3.1,8.2,3.1,11.3,0c1.7-1.7,2.4-4,2.3-6.2V353.8z M534.4,348.8L534.4,348.8l-3.1,0c-1.6-0.1-3.1-0.8-3.9-1.7
						c-0.8-0.8-1.7-2.2-1.7-3.9v-2.3c0-0.5,0-1,0-1.5v-2.2c0-1.7,0.9-3.1,1.7-3.9c0.9-0.9,2.4-1.7,3.9-1.7h3.1l0,0
						c2.1,0,4.1-0.8,5.7-2.3c3.1-3.1,3.1-8.2,0-11.3c-3.1-3.1-8.2-3.1-11.3,0c-1.6,1.6-2.3,3.6-2.3,5.7l0,0v3.1
						c-0.1,1.6-0.8,3.1-1.7,3.9c-0.8,0.8-2.2,1.7-3.9,1.7h-2.2c-2.3-0.2-4.7,0.5-6.5,2.3c-3.1,3.1-3.1,8.2,0,11.3
						c1.8,1.8,4.2,2.5,6.6,2.3h2.1c1.7,0,3.1,0.9,3.9,1.7c0.9,0.9,1.7,2.4,1.7,3.9v2.9c-0.1,2.1,0.7,4.3,2.3,5.9
						c3.1,3.1,8.2,3.1,11.3,0c3.1-3.1,3.1-8.2,0-11.3C538.5,349.6,536.4,348.8,534.4,348.8z M512.1,367.9c-3.1,3.1-3.1,8.2,0,11.3
						c3.1,3.1,8.2,3.1,11.3,0c3.1-3.1,3.1-8.2,0-11.3C520.3,364.7,515.2,364.7,512.1,367.9z M490.1,312.6c3.1-3.1,3.1-8.2,0-11.3
						c-3.1-3.1-8.2-3.1-11.3,0s-3.1,8.2,0,11.3C482,315.7,487,315.7,490.1,312.6z M506.8,329.2c1.8-1.8,2.5-4.2,2.3-6.5v-2.2
						c0-1.7,0.9-3.1,1.7-3.9c0.9-0.9,2.4-1.7,3.9-1.7h2.9c2.1,0.1,4.3-0.7,5.9-2.3c3.1-3.1,3.1-8.2,0-11.3c-3.1-3.1-8.2-3.1-11.3,0
						c-1.6,1.6-2.3,3.6-2.3,5.7l0,0v3.1c-0.1,1.6-0.8,3.1-1.7,3.9c-0.8,0.8-2.2,1.7-3.9,1.7h-2.5c-2.2-0.1-4.5,0.6-6.2,2.3
						c-3.1,3.1-3.1,8.2,0,11.3C498.6,332.4,503.7,332.4,506.8,329.2z"/>
				</defs>
				<clipPath id="SVGID_2_">
					<use xlink:href="#SVGID_1_"  style="overflow:visible;"/>
				</clipPath>
				<polygon class="st2" points="492.3,331.8 492.9,332.4 492.3,332.4 				"/>
				<polygon class="st3" points="492.3,331.1 493.6,332.4 492.9,332.4 492.3,331.8 				"/>
				<polygon class="st4" points="492.3,330.4 494.3,332.4 493.6,332.4 492.3,331.1 				"/>
				<polygon class="st5" points="492.3,329.7 495,332.4 494.3,332.4 492.3,330.4 				"/>
				<polygon class="st6" points="492.3,329 495.7,332.4 495,332.4 492.3,329.7 				"/>
				<polygon class="st7" points="492.3,328.3 496.4,332.4 495.7,332.4 492.3,329 				"/>
				<polygon class="st8" points="492.3,327.6 497.1,332.4 496.4,332.4 492.3,328.3 				"/>
				<polygon class="st9" points="492.3,326.9 497.7,332.4 497.1,332.4 492.3,327.6 				"/>
				<polygon class="st10" points="492.3,326.3 498.4,332.4 497.7,332.4 492.3,326.9 				"/>
				<polygon class="st11" points="492.3,325.6 499.1,332.4 498.4,332.4 492.3,326.3 				"/>
				<polygon class="st12" points="492.3,324.9 499.8,332.4 499.1,332.4 492.3,325.6 				"/>
				<polygon class="st13" points="492.3,324.2 500.5,332.4 499.8,332.4 492.3,324.9 				"/>
				<polygon class="st14" points="492.3,323.5 501.2,332.4 500.5,332.4 492.3,324.2 				"/>
				<polygon class="st15" points="492.3,322.8 501.9,332.4 501.2,332.4 492.3,323.5 				"/>
				<polygon class="st16" points="492.3,322.1 502.6,332.4 501.9,332.4 492.3,322.8 				"/>
				<polygon class="st17" points="492.3,321.4 503.3,332.4 502.6,332.4 492.3,322.1 				"/>
				<polygon class="st18" points="492.3,320.7 504,332.4 503.3,332.4 492.3,321.4 				"/>
				<polygon class="st19" points="492.3,320 504.7,332.4 504,332.4 492.3,320.7 				"/>
				<polygon class="st20" points="492.3,319.3 505.4,332.4 504.7,332.4 492.3,320 				"/>
				<polygon class="st21" points="492.3,318.6 506.1,332.4 505.4,332.4 492.3,319.3 				"/>
				<polygon class="st22" points="492.3,318.2 492.5,318.1 506.6,332.2 506.5,332.4 506.1,332.4 492.3,318.6 				"/>
				
					<rect x="499.5" y="315" transform="matrix(0.7071 -0.7071 0.7071 0.7071 -83.4294 448.5352)" class="st23" width="0.5" height="20"/>
				
					<rect x="499.8" y="314.6" transform="matrix(0.7071 -0.7071 0.7071 0.7071 -83.0834 448.6786)" class="st24" width="0.5" height="20"/>
				
					<rect x="500.2" y="314.3" transform="matrix(0.7071 -0.7071 0.7071 0.7071 -82.7374 448.8219)" class="st25" width="0.5" height="20"/>
				
					<rect x="500.5" y="313.9" transform="matrix(0.7071 -0.7071 0.7071 0.7071 -82.3913 448.9652)" class="st26" width="0.5" height="20"/>
				
					<rect x="500.9" y="313.6" transform="matrix(0.7071 -0.7071 0.7071 0.7071 -82.0453 449.1086)" class="st27" width="0.5" height="20"/>
				
					<rect x="501.2" y="313.2" transform="matrix(0.7071 -0.7071 0.7071 0.7071 -81.6993 449.2519)" class="st28" width="0.5" height="20"/>
				
					<rect x="501.5" y="312.9" transform="matrix(0.7071 -0.7071 0.7071 0.7071 -81.3533 449.3952)" class="st29" width="0.5" height="20"/>
				
					<rect x="501.9" y="312.6" transform="matrix(0.7071 -0.7071 0.7071 0.7071 -81.0073 449.5385)" class="st30" width="0.5" height="20"/>
				
					<rect x="502.2" y="312.2" transform="matrix(0.7071 -0.7071 0.7071 0.7071 -80.6613 449.6819)" class="st31" width="0.5" height="20"/>
				
					<rect x="502.6" y="311.9" transform="matrix(0.7071 -0.7071 0.7071 0.7071 -80.3152 449.8252)" class="st32" width="0.5" height="20"/>
				
					<rect x="502.9" y="311.5" transform="matrix(0.7071 -0.7071 0.7071 0.7071 -79.9692 449.9685)" class="st33" width="0.5" height="20"/>
				
					<rect x="503.3" y="311.2" transform="matrix(0.7071 -0.7071 0.7071 0.7071 -79.6232 450.1118)" class="st34" width="0.5" height="20"/>
				
					<rect x="503.6" y="310.8" transform="matrix(0.7071 -0.7071 0.7071 0.7071 -79.2772 450.2552)" class="st35" width="0.5" height="20"/>
				
					<rect x="504" y="310.5" transform="matrix(0.7071 -0.7071 0.7071 0.7071 -78.9312 450.3985)" class="st36" width="0.5" height="20"/>
				
					<rect x="504.3" y="310.1" transform="matrix(0.7071 -0.7071 0.7071 0.7071 -78.5852 450.5418)" class="st37" width="0.5" height="20"/>
				
					<rect x="504.7" y="309.8" transform="matrix(0.7071 -0.7071 0.7071 0.7071 -78.2391 450.6851)" class="st38" width="0.5" height="20"/>
				
					<rect x="505" y="309.4" transform="matrix(0.7071 -0.7071 0.7071 0.7071 -77.8931 450.8285)" class="st39" width="0.5" height="20"/>
				
					<rect x="505.4" y="309.1" transform="matrix(0.7071 -0.7071 0.7071 0.7071 -77.5471 450.9718)" class="st40" width="0.5" height="20"/>
				
					<rect x="505.7" y="308.7" transform="matrix(0.7071 -0.7071 0.7071 0.7071 -77.2011 451.1151)" class="st41" width="0.5" height="20"/>
				
					<rect x="506" y="308.4" transform="matrix(0.7071 -0.7071 0.7071 0.7071 -76.8551 451.2584)" class="st42" width="0.5" height="20"/>
				
					<rect x="506.4" y="308.1" transform="matrix(0.7071 -0.7071 0.7071 0.7071 -76.5091 451.4017)" class="st43" width="0.5" height="20"/>
				
					<rect x="506.7" y="307.7" transform="matrix(0.7071 -0.7071 0.7071 0.7071 -76.163 451.5451)" class="st44" width="0.5" height="20"/>
				
					<rect x="507.1" y="307.4" transform="matrix(0.7071 -0.7071 0.7071 0.7071 -75.817 451.6884)" class="st45" width="0.5" height="20"/>
				
					<rect x="507.4" y="307" transform="matrix(0.7071 -0.7071 0.7071 0.7071 -75.471 451.8317)" class="st46" width="0.5" height="20"/>
				
					<rect x="507.8" y="306.7" transform="matrix(0.7071 -0.7071 0.7071 0.7071 -75.125 451.975)" class="st47" width="0.5" height="20"/>
				
					<rect x="508.1" y="306.3" transform="matrix(0.7071 -0.7071 0.7071 0.7071 -74.779 452.1184)" class="st48" width="0.5" height="20"/>
				
					<rect x="508.5" y="306" transform="matrix(0.7071 -0.7071 0.7071 0.7071 -74.433 452.2617)" class="st49" width="0.5" height="20"/>
				
					<rect x="508.8" y="305.6" transform="matrix(0.7071 -0.7071 0.7071 0.7071 -74.0869 452.405)" class="st50" width="0.5" height="20"/>
				
					<rect x="509.2" y="305.3" transform="matrix(0.7071 -0.7071 0.7071 0.7071 -73.7409 452.5483)" class="st51" width="0.5" height="20"/>
				
					<rect x="509.5" y="304.9" transform="matrix(0.7071 -0.7071 0.7071 0.7071 -73.3949 452.6917)" class="st52" width="0.5" height="20"/>
				
					<rect x="509.9" y="304.6" transform="matrix(0.7071 -0.7071 0.7071 0.7071 -73.0489 452.835)" class="st53" width="0.5" height="20"/>
				
					<rect x="510.2" y="304.3" transform="matrix(0.7071 -0.7071 0.7071 0.7071 -72.7029 452.9783)" class="st54" width="0.5" height="20"/>
				
					<rect x="510.5" y="303.9" transform="matrix(0.7071 -0.7071 0.7071 0.7071 -72.3569 453.1216)" class="st55" width="0.5" height="20"/>
				
					<rect x="510.9" y="303.6" transform="matrix(0.7071 -0.7071 0.7071 0.7071 -72.0108 453.265)" class="st56" width="0.5" height="20"/>
				
					<rect x="511.2" y="303.2" transform="matrix(0.7071 -0.7071 0.7071 0.7071 -71.6648 453.4083)" class="st57" width="0.5" height="20"/>
				
					<rect x="511.6" y="302.9" transform="matrix(0.7071 -0.7071 0.7071 0.7071 -71.3188 453.5516)" class="st58" width="0.5" height="20"/>
				
					<rect x="511.9" y="302.5" transform="matrix(0.7071 -0.7071 0.7071 0.7071 -70.9728 453.6949)" class="st59" width="0.5" height="20"/>
				
					<rect x="512.3" y="302.2" transform="matrix(0.7071 -0.7071 0.7071 0.7071 -70.6268 453.8383)" class="st60" width="0.5" height="20"/>
				
					<rect x="512.6" y="301.8" transform="matrix(0.7071 -0.7071 0.7071 0.7071 -70.2808 453.9816)" class="st61" width="0.5" height="20"/>
				
					<rect x="513" y="301.5" transform="matrix(0.7071 -0.7071 0.7071 0.7071 -69.9348 454.1249)" class="st62" width="0.5" height="20"/>
				
					<rect x="513.3" y="301.1" transform="matrix(0.7071 -0.7071 0.7071 0.7071 -69.5887 454.2682)" class="st63" width="0.5" height="20"/>
				
					<rect x="513.7" y="300.8" transform="matrix(0.7071 -0.7071 0.7071 0.7071 -69.2427 454.4116)" class="st64" width="0.5" height="20"/>
				
					<rect x="514" y="300.4" transform="matrix(0.7071 -0.7071 0.7071 0.7071 -68.8967 454.5549)" class="st65" width="0.5" height="20"/>
				
					<rect x="514.3" y="300.1" transform="matrix(0.7071 -0.7071 0.7071 0.7071 -68.5507 454.6982)" class="st66" width="0.5" height="20"/>
				
					<rect x="514.7" y="299.8" transform="matrix(0.7071 -0.7071 0.7071 0.7071 -68.2047 454.8415)" class="st67" width="0.5" height="20"/>
				
					<rect x="515" y="299.4" transform="matrix(0.7071 -0.7071 0.7071 0.7071 -67.8587 454.9849)" class="st68" width="0.5" height="20"/>
				
					<rect x="515.4" y="299.1" transform="matrix(0.7071 -0.7071 0.7071 0.7071 -67.5126 455.1282)" class="st69" width="0.5" height="20"/>
				
					<rect x="515.7" y="298.7" transform="matrix(0.7071 -0.7071 0.7071 0.7071 -67.1666 455.2715)" class="st70" width="0.5" height="20"/>
				
					<rect x="516.1" y="298.4" transform="matrix(0.7071 -0.7071 0.7071 0.7071 -66.8206 455.4148)" class="st71" width="0.5" height="20"/>
				
					<rect x="516.4" y="298" transform="matrix(0.7071 -0.7071 0.7071 0.7071 -66.4746 455.5582)" class="st72" width="0.5" height="20"/>
				
					<rect x="516.8" y="297.7" transform="matrix(0.7071 -0.7071 0.7071 0.7071 -66.1286 455.7015)" class="st73" width="0.5" height="20"/>
				
					<rect x="517.1" y="297.3" transform="matrix(0.7071 -0.7071 0.7071 0.7071 -65.7826 455.8448)" class="st74" width="0.5" height="20"/>
				
					<rect x="517.5" y="297" transform="matrix(0.7071 -0.7071 0.7071 0.7071 -65.4365 455.9881)" class="st75" width="0.5" height="20"/>
				
					<rect x="517.8" y="296.6" transform="matrix(0.7071 -0.7071 0.7071 0.7071 -65.0905 456.1315)" class="st76" width="0.5" height="20"/>
				
					<rect x="518.2" y="296.3" transform="matrix(0.7071 -0.7071 0.7071 0.7071 -64.7445 456.2748)" class="st77" width="0.5" height="20"/>
				
					<rect x="518.5" y="295.9" transform="matrix(0.7071 -0.7071 0.7071 0.7071 -64.3985 456.4181)" class="st78" width="0.5" height="20"/>
				
					<rect x="518.8" y="295.6" transform="matrix(0.7071 -0.7071 0.7071 0.7071 -64.0525 456.5614)" class="st79" width="0.5" height="20"/>
				<polygon class="st80" points="512.2,298.4 512.4,298.2 512.7,298.2 526.5,312 526.5,312.3 526.3,312.5 				"/>
				<polygon class="st81" points="513.4,298.2 526.5,311.3 526.5,312 512.7,298.2 				"/>
				<polygon class="st82" points="514.1,298.2 526.5,310.6 526.5,311.3 513.4,298.2 				"/>
				<polygon class="st83" points="514.8,298.2 526.5,309.9 526.5,310.6 514.1,298.2 				"/>
				<polygon class="st84" points="515.5,298.2 526.5,309.2 526.5,309.9 514.8,298.2 				"/>
				<polygon class="st85" points="516.2,298.2 526.5,308.5 526.5,309.2 515.5,298.2 				"/>
				<polygon class="st85" points="526.5,308.5 516.2,298.2 526.5,298.2 				"/>
				<polygon class="st2" points="475.7,315.2 476.3,315.7 475.7,315.7 				"/>
				<polygon class="st3" points="475.7,314.5 477,315.7 476.3,315.7 475.7,315.2 				"/>
				<polygon class="st4" points="475.7,313.8 477.7,315.7 477,315.7 475.7,314.5 				"/>
				<polygon class="st5" points="475.7,313.1 478.4,315.7 477.7,315.7 475.7,313.8 				"/>
				<polygon class="st6" points="475.7,312.4 479.1,315.7 478.4,315.7 475.7,313.1 				"/>
				<polygon class="st7" points="475.7,311.7 479.7,315.7 479.1,315.7 475.7,312.4 				"/>
				<polygon class="st8" points="475.7,311 480.4,315.7 479.7,315.7 475.7,311.7 				"/>
				<polygon class="st9" points="475.7,310.3 481.1,315.7 480.4,315.7 475.7,311 				"/>
				<polygon class="st10" points="475.7,309.6 481.8,315.7 481.1,315.7 475.7,310.3 				"/>
				<polygon class="st11" points="475.7,308.9 482.5,315.7 481.8,315.7 475.7,309.6 				"/>
				<polygon class="st12" points="475.7,308.2 483.2,315.7 482.5,315.7 475.7,308.9 				"/>
				<polygon class="st13" points="475.7,307.5 483.9,315.7 483.2,315.7 475.7,308.2 				"/>
				<polygon class="st14" points="475.7,306.9 484.6,315.7 483.9,315.7 475.7,307.5 				"/>
				<polygon class="st15" points="475.7,306.2 485.3,315.7 484.6,315.7 475.7,306.9 				"/>
				<polygon class="st16" points="475.7,305.5 486,315.7 485.3,315.7 475.7,306.2 				"/>
				<polygon class="st17" points="475.7,304.8 486.7,315.7 486,315.7 475.7,305.5 				"/>
				<polygon class="st18" points="475.7,304.1 487.4,315.7 486.7,315.7 475.7,304.8 				"/>
				<polygon class="st19" points="475.7,303.4 488,315.7 487.4,315.7 475.7,304.1 				"/>
				<polygon class="st20" points="475.7,302.7 488.7,315.7 488,315.7 475.7,303.4 				"/>
				<polygon class="st21" points="475.7,302 489.4,315.7 488.7,315.7 475.7,302.7 				"/>
				<polygon class="st22" points="475.7,301.6 475.8,301.5 490,315.6 489.8,315.7 489.4,315.7 475.7,302 				"/>
				
					<rect x="482.8" y="298.4" transform="matrix(0.7071 -0.7071 0.7071 0.7071 -76.543 431.9101)" class="st23" width="0.5" height="20"/>
				
					<rect x="483.2" y="298" transform="matrix(0.7071 -0.7071 0.7071 0.7071 -76.197 432.0534)" class="st24" width="0.5" height="20"/>
				
					<rect x="483.5" y="297.7" transform="matrix(0.7071 -0.7071 0.7071 0.7071 -75.851 432.1967)" class="st25" width="0.5" height="20"/>
				
					<rect x="483.9" y="297.3" transform="matrix(0.7071 -0.7071 0.7071 0.7071 -75.505 432.3401)" class="st26" width="0.5" height="20"/>
				
					<rect x="484.2" y="297" transform="matrix(0.7071 -0.7071 0.7071 0.7071 -75.159 432.4834)" class="st27" width="0.5" height="20"/>
				
					<rect x="484.6" y="296.6" transform="matrix(0.7071 -0.7071 0.7071 0.7071 -74.8129 432.6267)" class="st28" width="0.5" height="20"/>
				
					<rect x="484.9" y="296.3" transform="matrix(0.7071 -0.7071 0.7071 0.7071 -74.4669 432.7701)" class="st29" width="0.5" height="20"/>
				
					<rect x="485.3" y="295.9" transform="matrix(0.7071 -0.7071 0.7071 0.7071 -74.1209 432.9134)" class="st30" width="0.5" height="20"/>
				
					<rect x="485.6" y="295.6" transform="matrix(0.7071 -0.7071 0.7071 0.7071 -73.7749 433.0567)" class="st31" width="0.5" height="20"/>
				<polygon class="st32" points="479,298.3 479.1,298.2 479.5,298.2 493.3,312 493.3,312.3 493.1,312.5 				"/>
				<polygon class="st33" points="480.2,298.2 493.3,311.3 493.3,312 479.5,298.2 				"/>
				<polygon class="st34" points="480.9,298.2 493.3,310.6 493.3,311.3 480.2,298.2 				"/>
				<polygon class="st35" points="481.6,298.2 493.3,309.9 493.3,310.6 480.9,298.2 				"/>
				<polygon class="st36" points="482.3,298.2 493.3,309.2 493.3,309.9 481.6,298.2 				"/>
				<polygon class="st37" points="482.9,298.2 493.3,308.5 493.3,309.2 482.3,298.2 				"/>
				<polygon class="st38" points="483.6,298.2 493.3,307.8 493.3,308.5 482.9,298.2 				"/>
				<polygon class="st39" points="484.3,298.2 493.3,307.1 493.3,307.8 483.6,298.2 				"/>
				<polygon class="st40" points="485,298.2 493.3,306.4 493.3,307.1 484.3,298.2 				"/>
				<polygon class="st41" points="485.7,298.2 493.3,305.7 493.3,306.4 485,298.2 				"/>
				<polygon class="st42" points="486.4,298.2 493.3,305 493.3,305.7 485.7,298.2 				"/>
				<polygon class="st43" points="487.1,298.2 493.3,304.3 493.3,305 486.4,298.2 				"/>
				<polygon class="st44" points="487.8,298.2 493.3,303.6 493.3,304.3 487.1,298.2 				"/>
				<polygon class="st45" points="488.5,298.2 493.3,303 493.3,303.6 487.8,298.2 				"/>
				<polygon class="st46" points="489.2,298.2 493.3,302.3 493.3,303 488.5,298.2 				"/>
				<polygon class="st47" points="489.9,298.2 493.3,301.6 493.3,302.3 489.2,298.2 				"/>
				<polygon class="st48" points="490.6,298.2 493.3,300.9 493.3,301.6 489.9,298.2 				"/>
				<polygon class="st49" points="491.3,298.2 493.3,300.2 493.3,300.9 490.6,298.2 				"/>
				<polygon class="st50" points="491.9,298.2 493.3,299.5 493.3,300.2 491.3,298.2 				"/>
				<polygon class="st51" points="492.6,298.2 493.3,298.8 493.3,299.5 491.9,298.2 				"/>
				<polygon class="st52" points="493.3,298.8 492.6,298.2 493.3,298.2 				"/>
				<polygon class="st86" points="509,381.6 509.6,382.3 509,382.3 				"/>
				<polygon class="st87" points="509,381 510.3,382.3 509.6,382.3 509,381.6 				"/>
				<polygon class="st88" points="509,380.3 511,382.3 510.3,382.3 509,381 				"/>
				<polygon class="st89" points="509,379.6 511.7,382.3 511,382.3 509,380.3 				"/>
				<polygon class="st90" points="509,378.9 512.4,382.3 511.7,382.3 509,379.6 				"/>
				<polygon class="st91" points="509,378.2 513.1,382.3 512.4,382.3 509,378.9 				"/>
				<polygon class="st92" points="509,377.5 513.8,382.3 513.1,382.3 509,378.2 				"/>
				<polygon class="st93" points="509,376.8 514.5,382.3 513.8,382.3 509,377.5 				"/>
				<polygon class="st94" points="509,376.1 515.2,382.3 514.5,382.3 509,376.8 				"/>
				<polygon class="st95" points="509,375.4 515.8,382.3 515.2,382.3 509,376.1 				"/>
				<polygon class="st96" points="509,374.7 516.5,382.3 515.8,382.3 509,375.4 				"/>
				<polygon class="st97" points="509,374 517.2,382.3 516.5,382.3 509,374.7 				"/>
				<polygon class="st98" points="509,373.3 517.9,382.3 517.2,382.3 509,374 				"/>
				<polygon class="st99" points="509,372.6 518.6,382.3 517.9,382.3 509,373.3 				"/>
				<polygon class="st100" points="509,372 519.3,382.3 518.6,382.3 509,372.6 				"/>
				<polygon class="st101" points="509,371.3 520,382.3 519.3,382.3 509,372 				"/>
				<polygon class="st102" points="509,370.6 520.7,382.3 520,382.3 509,371.3 				"/>
				<polygon class="st103" points="509,369.9 521.4,382.3 520.7,382.3 509,370.6 				"/>
				<polygon class="st104" points="509,369.2 522.1,382.3 521.4,382.3 509,369.9 				"/>
				<polygon class="st105" points="509,368.5 522.8,382.3 522.1,382.3 509,369.2 				"/>
				<polygon class="st106" points="509,368.1 509.2,368 523.3,382.1 523.1,382.3 522.8,382.3 509,368.5 				"/>
				
					<rect x="516.1" y="364.9" transform="matrix(0.7071 -0.7071 0.7071 0.7071 -113.8257 474.9417)" class="st107" width="0.5" height="20"/>
				
					<rect x="516.5" y="364.5" transform="matrix(0.7071 -0.7071 0.7071 0.7071 -113.4797 475.0851)" class="st108" width="0.5" height="20"/>
				
					<rect x="516.8" y="364.2" transform="matrix(0.7071 -0.7071 0.7071 0.7071 -113.1337 475.2284)" class="st109" width="0.5" height="20"/>
				
					<rect x="517.2" y="363.8" transform="matrix(0.7071 -0.7071 0.7071 0.7071 -112.7876 475.3717)" class="st110" width="0.5" height="20"/>
				
					<rect x="517.5" y="363.5" transform="matrix(0.7071 -0.7071 0.7071 0.7071 -112.4416 475.515)" class="st111" width="0.5" height="20"/>
				
					<rect x="517.9" y="363.1" transform="matrix(0.7071 -0.7071 0.7071 0.7071 -112.0956 475.6584)" class="st112" width="0.5" height="20"/>
				
					<rect x="518.2" y="362.8" transform="matrix(0.7071 -0.7071 0.7071 0.7071 -111.7496 475.8017)" class="st113" width="0.5" height="20"/>
				
					<rect x="518.6" y="362.5" transform="matrix(0.7071 -0.7071 0.7071 0.7071 -111.4036 475.945)" class="st114" width="0.5" height="20"/>
				
					<rect x="518.9" y="362.1" transform="matrix(0.7071 -0.7071 0.7071 0.7071 -111.0576 476.0883)" class="st115" width="0.5" height="20"/>
				<polygon class="st116" points="512.3,364.9 512.4,364.7 512.8,364.7 526.5,378.4 526.5,378.9 526.4,379 				"/>
				<polygon class="st117" points="513.5,364.7 526.5,377.7 526.5,378.4 512.8,364.7 				"/>
				<polygon class="st118" points="514.2,364.7 526.5,377.1 526.5,377.7 513.5,364.7 				"/>
				<polygon class="st119" points="514.9,364.7 526.5,376.4 526.5,377.1 514.2,364.7 				"/>
				<polygon class="st120" points="515.6,364.7 526.5,375.7 526.5,376.4 514.9,364.7 				"/>
				<polygon class="st121" points="516.3,364.7 526.5,375 526.5,375.7 515.6,364.7 				"/>
				<polygon class="st122" points="517,364.7 526.5,374.3 526.5,375 516.3,364.7 				"/>
				<polygon class="st123" points="517.7,364.7 526.5,373.6 526.5,374.3 517,364.7 				"/>
				<polygon class="st124" points="518.4,364.7 526.5,372.9 526.5,373.6 517.7,364.7 				"/>
				<polygon class="st125" points="519.1,364.7 526.5,372.2 526.5,372.9 518.4,364.7 				"/>
				<polygon class="st126" points="519.7,364.7 526.5,371.5 526.5,372.2 519.1,364.7 				"/>
				<polygon class="st127" points="520.4,364.7 526.5,370.8 526.5,371.5 519.7,364.7 				"/>
				<polygon class="st128" points="521.1,364.7 526.5,370.1 526.5,370.8 520.4,364.7 				"/>
				<polygon class="st129" points="521.8,364.7 526.5,369.4 526.5,370.1 521.1,364.7 				"/>
				<polygon class="st130" points="522.5,364.7 526.5,368.8 526.5,369.4 521.8,364.7 				"/>
				<polygon class="st131" points="523.2,364.7 526.5,368.1 526.5,368.8 522.5,364.7 				"/>
				<polygon class="st132" points="523.9,364.7 526.5,367.4 526.5,368.1 523.2,364.7 				"/>
				<polygon class="st133" points="524.6,364.7 526.5,366.7 526.5,367.4 523.9,364.7 				"/>
				<polygon class="st2" points="525.3,364.7 526.5,366 526.5,366.7 524.6,364.7 				"/>
				<polygon class="st3" points="526,364.7 526.5,365.3 526.5,366 525.3,364.7 				"/>
				<polygon class="st4" points="526.5,365.3 526,364.7 526.5,364.7 				"/>
				<polygon class="st110" points="509,365.1 509.6,365.6 509,365.6 				"/>
				<polygon class="st111" points="509,364.4 510.2,365.6 509.6,365.6 509,365.1 				"/>
				<polygon class="st112" points="509,363.7 510.9,365.6 510.2,365.6 509,364.4 				"/>
				<polygon class="st113" points="509,363 511.6,365.6 510.9,365.6 509,363.7 				"/>
				<polygon class="st114" points="509,362.3 512.3,365.6 511.6,365.6 509,363 				"/>
				<polygon class="st115" points="509,361.6 513,365.6 512.3,365.6 509,362.3 				"/>
				<polygon class="st116" points="509,360.9 513.7,365.6 513,365.6 509,361.6 				"/>
				<polygon class="st117" points="509,360.2 514.4,365.6 513.7,365.6 509,360.9 				"/>
				<polygon class="st118" points="509,359.5 515.1,365.6 514.4,365.6 509,360.2 				"/>
				<polygon class="st119" points="509,358.8 515.8,365.6 515.1,365.6 509,359.5 				"/>
				<polygon class="st120" points="509,358.2 516.5,365.6 515.8,365.6 509,358.8 				"/>
				<polygon class="st121" points="509,357.5 517.2,365.6 516.5,365.6 509,358.2 				"/>
				<polygon class="st122" points="509,356.8 517.9,365.6 517.2,365.6 509,357.5 				"/>
				<polygon class="st123" points="509,356.1 518.5,365.6 517.9,365.6 509,356.8 				"/>
				<polygon class="st124" points="509,355.4 519.2,365.6 518.5,365.6 509,356.1 				"/>
				<polygon class="st125" points="509,354.7 519.9,365.6 519.2,365.6 509,355.4 				"/>
				<polygon class="st126" points="509,354 520.6,365.6 519.9,365.6 509,354.7 				"/>
				<polygon class="st127" points="509,353.3 521.3,365.6 520.6,365.6 509,354 				"/>
				<polygon class="st128" points="509,352.6 522,365.6 521.3,365.6 509,353.3 				"/>
				<polygon class="st129" points="509,351.9 522.7,365.6 522,365.6 509,352.6 				"/>
				<polygon class="st130" points="509,351.2 523.4,365.6 522.7,365.6 509,351.9 				"/>
				<polygon class="st131" points="509,350.5 524.1,365.6 523.4,365.6 509,351.2 				"/>
				<polygon class="st132" points="509,349.8 524.8,365.6 524.1,365.6 509,350.5 				"/>
				<polygon class="st133" points="509,349.2 525.5,365.6 524.8,365.6 509,349.8 				"/>
				<polygon class="st2" points="509,348.5 526.2,365.6 525.5,365.6 509,349.2 				"/>
				<polygon class="st3" points="509,347.8 526.9,365.6 526.2,365.6 509,348.5 				"/>
				<polygon class="st4" points="509,347.1 527.5,365.6 526.9,365.6 509,347.8 				"/>
				<polygon class="st5" points="509,346.4 528.2,365.6 527.5,365.6 509,347.1 				"/>
				<polygon class="st6" points="509,345.7 528.9,365.6 528.2,365.6 509,346.4 				"/>
				<polygon class="st7" points="509,345 529.6,365.6 528.9,365.6 509,345.7 				"/>
				<polygon class="st8" points="509,344.3 530.3,365.6 529.6,365.6 509,345 				"/>
				<polygon class="st9" points="509,343.6 531,365.6 530.3,365.6 509,344.3 				"/>
				<polygon class="st10" points="509,342.9 531.7,365.6 531,365.6 509,343.6 				"/>
				<polygon class="st11" points="509,342.2 532.4,365.6 531.7,365.6 509,342.9 				"/>
				<polygon class="st12" points="509,341.5 533.1,365.6 532.4,365.6 509,342.2 				"/>
				<polygon class="st13" points="509,340.9 533.8,365.6 533.1,365.6 509,341.5 				"/>
				<polygon class="st14" points="509,340.2 534.5,365.6 533.8,365.6 509,340.9 				"/>
				<polygon class="st15" points="509,339.5 535.2,365.6 534.5,365.6 509,340.2 				"/>
				<polygon class="st16" points="509,338.8 535.8,365.6 535.2,365.6 509,339.5 				"/>
				<polygon class="st17" points="509,338.1 536.5,365.6 535.8,365.6 509,338.8 				"/>
				<polygon class="st18" points="509,337.4 537.2,365.6 536.5,365.6 509,338.1 				"/>
				<polygon class="st19" points="509,336.7 537.9,365.6 537.2,365.6 509,337.4 				"/>
				<polygon class="st20" points="509,336 538.6,365.6 537.9,365.6 509,336.7 				"/>
				<polygon class="st21" points="509,335.3 539.3,365.6 538.6,365.6 509,336 				"/>
				<polygon class="st22" points="509,334.9 509.1,334.7 539.9,365.5 539.8,365.6 539.3,365.6 509,335.3 				"/>
				
					<rect x="524.4" y="328.2" transform="matrix(0.7071 -0.7071 0.7071 0.7071 -93.7702 473.5002)" class="st23" width="0.5" height="43.5"/>
				
					<rect x="524.8" y="327.9" transform="matrix(0.7071 -0.7071 0.7071 0.7071 -93.4242 473.6435)" class="st24" width="0.5" height="43.5"/>
				
					<rect x="525.1" y="327.5" transform="matrix(0.7071 -0.7071 0.7071 0.7071 -93.0782 473.7869)" class="st25" width="0.5" height="43.5"/>
				
					<rect x="525.5" y="327.2" transform="matrix(0.7071 -0.7071 0.7071 0.7071 -92.7322 473.9302)" class="st26" width="0.5" height="43.5"/>
				
					<rect x="525.8" y="326.8" transform="matrix(0.7071 -0.7071 0.7071 0.7071 -92.3861 474.0735)" class="st27" width="0.5" height="43.5"/>
				
					<rect x="526.2" y="326.5" transform="matrix(0.7071 -0.7071 0.7071 0.7071 -92.0401 474.2168)" class="st28" width="0.5" height="43.5"/>
				
					<rect x="526.5" y="326.1" transform="matrix(0.7071 -0.7071 0.7071 0.7071 -91.6941 474.3602)" class="st29" width="0.5" height="43.5"/>
				
					<rect x="526.9" y="325.8" transform="matrix(0.7071 -0.7071 0.7071 0.7071 -91.3481 474.5035)" class="st30" width="0.5" height="43.5"/>
				
					<rect x="527.2" y="325.4" transform="matrix(0.7071 -0.7071 0.7071 0.7071 -91.0021 474.6468)" class="st31" width="0.5" height="43.5"/>
				<polygon class="st32" points="512.2,331.6 512.6,331.3 543.2,361.9 543.2,362.2 543,362.4 				"/>
				<polygon class="st33" points="512.6,331.3 512.9,330.9 543.2,361.2 543.2,361.9 				"/>
				<polygon class="st34" points="512.9,330.9 513.3,330.6 543.2,360.5 543.2,361.2 				"/>
				<polygon class="st35" points="513.3,330.6 513.6,330.2 543.2,359.8 543.2,360.5 				"/>
				<polygon class="st36" points="513.6,330.2 514,329.9 543.2,359.1 543.2,359.8 				"/>
				<polygon class="st37" points="514,329.9 514.3,329.6 543.2,358.4 543.2,359.1 				"/>
				<polygon class="st38" points="514.3,329.6 514.7,329.2 543.2,357.7 543.2,358.4 				"/>
				<polygon class="st39" points="514.7,329.2 515,328.9 543.2,357 543.2,357.7 				"/>
				<polygon class="st40" points="515,328.9 515.4,328.5 543.2,356.3 543.2,357 				"/>
				<polygon class="st41" points="515.4,328.5 515.7,328.2 543.2,355.7 543.2,356.3 				"/>
				<polygon class="st42" points="515.7,328.2 516.1,327.8 543.2,355 543.2,355.7 				"/>
				<polygon class="st43" points="516.1,327.8 516.4,327.5 543.2,354.3 543.2,355 				"/>
				<polygon class="st44" points="516.4,327.5 516.7,327.1 543.2,353.6 543.2,354.3 				"/>
				<polygon class="st45" points="516.7,327.1 517.1,326.8 543.2,352.9 543.2,353.6 				"/>
				<polygon class="st46" points="517.1,326.8 517.4,326.4 543.2,352.2 543.2,352.9 				"/>
				<polygon class="st47" points="517.4,326.4 517.8,326.1 543.2,351.5 543.2,352.2 				"/>
				<polygon class="st48" points="517.8,326.1 518.1,325.7 543.2,350.8 543.2,351.5 				"/>
				<polygon class="st49" points="518.1,325.7 518.5,325.4 543.2,350.1 543.2,350.8 				"/>
				<polygon class="st50" points="518.5,325.4 518.8,325.1 543.2,349.4 543.2,350.1 				"/>
				<polygon class="st51" points="518.8,325.1 519.2,324.7 543.2,348.7 543.2,349.4 				"/>
				<polygon class="st52" points="519.2,324.7 519.5,324.4 543.2,348 543.2,348.7 				"/>
				<polygon class="st53" points="519.5,324.4 519.9,324 543.2,347.3 543.2,348 				"/>
				<polygon class="st54" points="519.9,324 520.2,323.7 543.2,346.7 543.2,347.3 				"/>
				<polygon class="st55" points="520.2,323.7 520.6,323.3 543.2,346 543.2,346.7 				"/>
				<polygon class="st56" points="520.6,323.3 520.9,323 543.2,345.3 543.2,346 				"/>
				<polygon class="st57" points="520.9,323 521.2,322.6 543.2,344.6 543.2,345.3 				"/>
				<polygon class="st58" points="521.2,322.6 521.6,322.3 543.2,343.9 543.2,344.6 				"/>
				<polygon class="st59" points="521.6,322.3 521.9,321.9 543.2,343.2 543.2,343.9 				"/>
				<polygon class="st60" points="521.9,321.9 522.3,321.6 543.2,342.5 543.2,343.2 				"/>
				<polygon class="st61" points="522.3,321.6 522.6,321.2 543.2,341.8 543.2,342.5 				"/>
				<polygon class="st62" points="522.6,321.2 523,320.9 543.2,341.1 543.2,341.8 				"/>
				<polygon class="st63" points="523,320.9 523.3,320.6 543.2,340.4 543.2,341.1 				"/>
				<polygon class="st64" points="523.3,320.6 523.7,320.2 543.2,339.7 543.2,340.4 				"/>
				<polygon class="st65" points="523.7,320.2 524,319.9 543.2,339 543.2,339.7 				"/>
				<polygon class="st66" points="524,319.9 524.4,319.5 543.2,338.4 543.2,339 				"/>
				<polygon class="st67" points="524.4,319.5 524.7,319.2 543.2,337.7 543.2,338.4 				"/>
				<polygon class="st68" points="524.7,319.2 525.1,318.8 543.2,337 543.2,337.7 				"/>
				<polygon class="st69" points="525.1,318.8 525.4,318.5 543.2,336.3 543.2,337 				"/>
				<polygon class="st70" points="525.4,318.5 525.7,318.1 543.2,335.6 543.2,336.3 				"/>
				<polygon class="st71" points="525.7,318.1 526.1,317.8 543.2,334.9 543.2,335.6 				"/>
				<polygon class="st72" points="526.1,317.8 526.4,317.4 543.2,334.2 543.2,334.9 				"/>
				<polygon class="st73" points="526.4,317.4 526.8,317.1 543.2,333.5 543.2,334.2 				"/>
				<polygon class="st74" points="526.8,317.1 527.1,316.7 543.2,332.8 543.2,333.5 				"/>
				<polygon class="st75" points="527.1,316.7 527.5,316.4 543.2,332.1 543.2,332.8 				"/>
				<polygon class="st76" points="527.5,316.4 527.8,316.1 543.2,331.4 543.2,332.1 				"/>
				<polygon class="st77" points="527.8,316.1 528.2,315.7 543.2,330.7 543.2,331.4 				"/>
				<polygon class="st78" points="528.2,315.7 528.5,315.4 543.2,330 543.2,330.7 				"/>
				<polygon class="st79" points="528.5,315.4 528.9,315 543.2,329.4 543.2,330 				"/>
				<polygon class="st80" points="528.9,315 529.1,314.8 529.3,314.8 543.2,328.7 543.2,329.4 				"/>
				<polygon class="st81" points="530,314.8 543.2,328 543.2,328.7 529.3,314.8 				"/>
				<polygon class="st82" points="530.7,314.8 543.2,327.3 543.2,328 530,314.8 				"/>
				<polygon class="st83" points="531.4,314.8 543.2,326.6 543.2,327.3 530.7,314.8 				"/>
				<polygon class="st84" points="532.1,314.8 543.2,325.9 543.2,326.6 531.4,314.8 				"/>
				<polygon class="st85" points="532.8,314.8 543.2,325.2 543.2,325.9 532.1,314.8 				"/>
				<polygon class="st85" points="543.2,325.2 532.8,314.8 543.2,314.8 				"/>
				<polygon class="st134" points="459.1,340.7 478.6,360.3 473.2,365.6 459.1,365.6 				"/>
				<polygon class="st134" points="459.1,340.1 478.9,359.9 478.6,360.3 459.1,340.7 				"/>
				<polygon class="st135" points="459.1,339.4 479.3,359.6 478.9,359.9 459.1,340.1 				"/>
				<polygon class="st136" points="459.1,338.7 479.6,359.2 479.3,359.6 459.1,339.4 				"/>
				<polygon class="st137" points="459.1,338 480,358.9 479.6,359.2 459.1,338.7 				"/>
				<polygon class="st138" points="459.1,337.3 480.3,358.5 480,358.9 459.1,338 				"/>
				<polygon class="st139" points="459.1,336.6 480.7,358.2 480.3,358.5 459.1,337.3 				"/>
				<polygon class="st140" points="459.1,335.9 481,357.8 480.7,358.2 459.1,336.6 				"/>
				<polygon class="st141" points="459.1,335.2 481.4,357.5 481,357.8 459.1,335.9 				"/>
				<polygon class="st142" points="459.1,334.5 481.7,357.1 481.4,357.5 459.1,335.2 				"/>
				<polygon class="st143" points="459.1,333.8 482.1,356.8 481.7,357.1 459.1,334.5 				"/>
				<polygon class="st144" points="459.1,333.1 482.4,356.5 482.1,356.8 459.1,333.8 				"/>
				<polygon class="st145" points="459.1,332.4 482.8,356.1 482.4,356.5 459.1,333.1 				"/>
				<polygon class="st86" points="459.1,331.7 483.1,355.8 482.8,356.1 459.1,332.4 				"/>
				<polygon class="st87" points="459.1,331.1 483.4,355.4 483.1,355.8 459.1,331.7 				"/>
				<polygon class="st88" points="459.1,330.4 483.8,355.1 483.4,355.4 459.1,331.1 				"/>
				<polygon class="st89" points="459.1,329.7 484.1,354.7 483.8,355.1 459.1,330.4 				"/>
				<polygon class="st90" points="459.1,329 484.5,354.4 484.1,354.7 459.1,329.7 				"/>
				<polygon class="st91" points="459.1,328.3 484.8,354 484.5,354.4 459.1,329 				"/>
				<polygon class="st92" points="459.1,327.6 485.2,353.7 484.8,354 459.1,328.3 				"/>
				<polygon class="st93" points="459.1,326.9 485.5,353.3 485.2,353.7 459.1,327.6 				"/>
				<polygon class="st94" points="459.1,326.2 485.9,353 485.5,353.3 459.1,326.9 				"/>
				<polygon class="st95" points="459.1,325.5 486.2,352.7 485.9,353 459.1,326.2 				"/>
				<polygon class="st96" points="459.1,324.8 486.6,352.3 486.2,352.7 459.1,325.5 				"/>
				<polygon class="st97" points="459.1,324.1 486.9,352 486.6,352.3 459.1,324.8 				"/>
				<polygon class="st98" points="459.1,323.4 487.3,351.6 486.9,352 459.1,324.1 				"/>
				<polygon class="st99" points="459.1,322.8 487.6,351.3 487.3,351.6 459.1,323.4 				"/>
				<polygon class="st100" points="459.1,322.1 487.9,350.9 487.6,351.3 459.1,322.8 				"/>
				<polygon class="st101" points="459.1,321.4 488.3,350.6 487.9,350.9 459.1,322.1 				"/>
				<polygon class="st102" points="459.1,320.7 488.6,350.2 488.3,350.6 459.1,321.4 				"/>
				<polygon class="st103" points="459.1,320 489,349.9 488.6,350.2 459.1,320.7 				"/>
				<polygon class="st104" points="459.1,319.3 489.3,349.5 489,349.9 459.1,320 				"/>
				<polygon class="st105" points="459.1,318.6 489.7,349.2 489.3,349.5 459.1,319.3 				"/>
				<polygon class="st106" points="459.1,318.3 459.3,318.1 490,348.8 489.7,349.2 459.1,318.6 				"/>
				
					<rect x="474.6" y="311.6" transform="matrix(0.7071 -0.7071 0.7071 0.7071 -96.6087 433.3762)" class="st107" width="0.5" height="43.5"/>
				
					<rect x="474.9" y="311.2" transform="matrix(0.7071 -0.7071 0.7071 0.7071 -96.2626 433.5195)" class="st108" width="0.5" height="43.5"/>
				
					<rect x="475.3" y="310.9" transform="matrix(0.7071 -0.7071 0.7071 0.7071 -95.9166 433.6628)" class="st109" width="0.5" height="43.5"/>
				
					<rect x="475.6" y="310.5" transform="matrix(0.7071 -0.7071 0.7071 0.7071 -95.5706 433.8061)" class="st110" width="0.5" height="43.5"/>
				
					<rect x="476" y="310.2" transform="matrix(0.7071 -0.7071 0.7071 0.7071 -95.2246 433.9494)" class="st111" width="0.5" height="43.5"/>
				
					<rect x="476.3" y="309.8" transform="matrix(0.7071 -0.7071 0.7071 0.7071 -94.8786 434.0928)" class="st112" width="0.5" height="43.5"/>
				
					<rect x="476.7" y="309.5" transform="matrix(0.7071 -0.7071 0.7071 0.7071 -94.5326 434.2361)" class="st113" width="0.5" height="43.5"/>
				
					<rect x="477" y="309.2" transform="matrix(0.7071 -0.7071 0.7071 0.7071 -94.1865 434.3794)" class="st114" width="0.5" height="43.5"/>
				
					<rect x="477.4" y="308.8" transform="matrix(0.7071 -0.7071 0.7071 0.7071 -93.8405 434.5227)" class="st115" width="0.5" height="43.5"/>
				<polygon class="st116" points="462.4,315 462.5,314.9 463,314.9 493.3,345.2 493.3,345.6 493.1,345.7 				"/>
				<polygon class="st117" points="463.7,314.9 493.3,344.5 493.3,345.2 463,314.9 				"/>
				<polygon class="st118" points="464.3,314.9 493.3,343.8 493.3,344.5 463.7,314.9 				"/>
				<polygon class="st119" points="465,314.9 493.3,343.1 493.3,343.8 464.3,314.9 				"/>
				<polygon class="st120" points="465.7,314.9 493.3,342.4 493.3,343.1 465,314.9 				"/>
				<polygon class="st121" points="466.4,314.9 493.3,341.7 493.3,342.4 465.7,314.9 				"/>
				<polygon class="st122" points="467.1,314.9 493.3,341 493.3,341.7 466.4,314.9 				"/>
				<polygon class="st123" points="467.8,314.9 493.3,340.3 493.3,341 467.1,314.9 				"/>
				<polygon class="st124" points="468.5,314.9 493.3,339.6 493.3,340.3 467.8,314.9 				"/>
				<polygon class="st125" points="469.2,314.9 493.3,338.9 493.3,339.6 468.5,314.9 				"/>
				<polygon class="st126" points="469.9,314.9 493.3,338.2 493.3,338.9 469.2,314.9 				"/>
				<polygon class="st127" points="470.6,314.9 493.3,337.5 493.3,338.2 469.9,314.9 				"/>
				<polygon class="st128" points="471.3,314.9 493.3,336.9 493.3,337.5 470.6,314.9 				"/>
				<polygon class="st129" points="472,314.9 493.3,336.2 493.3,336.9 471.3,314.9 				"/>
				<polygon class="st130" points="472.7,314.9 493.3,335.5 493.3,336.2 472,314.9 				"/>
				<polygon class="st131" points="473.3,314.9 493.3,334.8 493.3,335.5 472.7,314.9 				"/>
				<polygon class="st132" points="474,314.9 493.3,334.1 493.3,334.8 473.3,314.9 				"/>
				<polygon class="st133" points="474.7,314.9 493.3,333.4 493.3,334.1 474,314.9 				"/>
				<polygon class="st2" points="475.4,314.9 493.3,332.7 493.3,333.4 474.7,314.9 				"/>
				<polygon class="st3" points="476.1,314.9 493.3,332 493.3,332.7 475.4,314.9 				"/>
				<polygon class="st4" points="476.8,314.9 493.3,331.3 493.3,332 476.1,314.9 				"/>
				<polygon class="st5" points="477.5,314.9 493.3,330.6 493.3,331.3 476.8,314.9 				"/>
				<polygon class="st6" points="478.2,314.9 493.3,329.9 493.3,330.6 477.5,314.9 				"/>
				<polygon class="st7" points="478.9,314.9 493.3,329.2 493.3,329.9 478.2,314.9 				"/>
				<polygon class="st8" points="479.6,314.9 493.3,328.5 493.3,329.2 478.9,314.9 				"/>
				<polygon class="st9" points="480.3,314.9 493.3,327.9 493.3,328.5 479.6,314.9 				"/>
				<polygon class="st10" points="481,314.9 493.3,327.2 493.3,327.9 480.3,314.9 				"/>
				<polygon class="st11" points="481.6,314.9 493.3,326.5 493.3,327.2 481,314.9 				"/>
				<polygon class="st12" points="482.3,314.9 493.3,325.8 493.3,326.5 481.6,314.9 				"/>
				<polygon class="st13" points="483,314.9 493.3,325.1 493.3,325.8 482.3,314.9 				"/>
				<polygon class="st14" points="483.7,314.9 493.3,324.4 493.3,325.1 483,314.9 				"/>
				<polygon class="st15" points="484.4,314.9 493.3,323.7 493.3,324.4 483.7,314.9 				"/>
				<polygon class="st16" points="485.1,314.9 493.3,323 493.3,323.7 484.4,314.9 				"/>
				<polygon class="st17" points="485.8,314.9 493.3,322.3 493.3,323 485.1,314.9 				"/>
				<polygon class="st18" points="486.5,314.9 493.3,321.6 493.3,322.3 485.8,314.9 				"/>
				<polygon class="st19" points="487.2,314.9 493.3,320.9 493.3,321.6 486.5,314.9 				"/>
				<polygon class="st20" points="487.9,314.9 493.3,320.2 493.3,320.9 487.2,314.9 				"/>
				<polygon class="st21" points="488.6,314.9 493.3,319.6 493.3,320.2 487.9,314.9 				"/>
				<polygon class="st22" points="489.3,314.9 493.3,318.9 493.3,319.6 488.6,314.9 				"/>
				<polygon class="st23" points="490,314.9 493.3,318.2 493.3,318.9 489.3,314.9 				"/>
				<polygon class="st24" points="490.6,314.9 493.3,317.5 493.3,318.2 490,314.9 				"/>
				<polygon class="st25" points="491.3,314.9 493.3,316.8 493.3,317.5 490.6,314.9 				"/>
				<polygon class="st26" points="492,314.9 493.3,316.1 493.3,316.8 491.3,314.9 				"/>
				<polygon class="st27" points="492.7,314.9 493.3,315.4 493.3,316.1 492,314.9 				"/>
				<polygon class="st28" points="493.3,315.4 492.7,314.9 493.3,314.9 				"/>
				<polygon class="st134" points="475.8,368.1 481.1,362.8 495.2,376.9 489.9,382.2 475.8,382.2 				"/>
				
					<rect x="488.1" y="359.7" transform="matrix(0.7071 -0.7071 0.7071 0.7071 -118.3578 453.5869)" class="st134" width="0.5" height="20"/>
				
					<rect x="488.5" y="359.3" transform="matrix(0.7071 -0.7071 0.7071 0.7071 -118.0118 453.7302)" class="st135" width="0.5" height="20"/>
				
					<rect x="488.8" y="359" transform="matrix(0.7071 -0.7071 0.7071 0.7071 -117.6658 453.8735)" class="st136" width="0.5" height="20"/>
				
					<rect x="489.1" y="358.6" transform="matrix(0.7071 -0.7071 0.7071 0.7071 -117.3198 454.0168)" class="st137" width="0.5" height="20"/>
				
					<rect x="489.5" y="358.3" transform="matrix(0.7071 -0.7071 0.7071 0.7071 -116.9738 454.1602)" class="st138" width="0.5" height="20"/>
				
					<rect x="489.8" y="357.9" transform="matrix(0.7071 -0.7071 0.7071 0.7071 -116.6278 454.3035)" class="st139" width="0.5" height="20"/>
				
					<rect x="490.2" y="357.6" transform="matrix(0.7071 -0.7071 0.7071 0.7071 -116.2817 454.4468)" class="st140" width="0.5" height="20"/>
				
					<rect x="490.5" y="357.2" transform="matrix(0.7071 -0.7071 0.7071 0.7071 -115.9357 454.5901)" class="st141" width="0.5" height="20"/>
				
					<rect x="490.9" y="356.9" transform="matrix(0.7071 -0.7071 0.7071 0.7071 -115.5897 454.7334)" class="st142" width="0.5" height="20"/>
				
					<rect x="491.2" y="356.6" transform="matrix(0.7071 -0.7071 0.7071 0.7071 -115.2437 454.8768)" class="st143" width="0.5" height="20"/>
				
					<rect x="491.6" y="356.2" transform="matrix(0.7071 -0.7071 0.7071 0.7071 -114.8977 455.0201)" class="st144" width="0.5" height="20"/>
				
					<rect x="491.9" y="355.9" transform="matrix(0.7071 -0.7071 0.7071 0.7071 -114.5517 455.1634)" class="st145" width="0.5" height="20"/>
				
					<rect x="492.3" y="355.5" transform="matrix(0.7071 -0.7071 0.7071 0.7071 -114.2057 455.3067)" class="st86" width="0.5" height="20"/>
				
					<rect x="492.6" y="355.2" transform="matrix(0.7071 -0.7071 0.7071 0.7071 -113.8596 455.4501)" class="st87" width="0.5" height="20"/>
				
					<rect x="492.9" y="354.8" transform="matrix(0.7071 -0.7071 0.7071 0.7071 -113.5136 455.5934)" class="st88" width="0.5" height="20"/>
				
					<rect x="493.3" y="354.5" transform="matrix(0.7071 -0.7071 0.7071 0.7071 -113.1676 455.7367)" class="st89" width="0.5" height="20"/>
				
					<rect x="493.6" y="354.1" transform="matrix(0.7071 -0.7071 0.7071 0.7071 -112.8216 455.88)" class="st90" width="0.5" height="20"/>
				
					<rect x="494" y="353.8" transform="matrix(0.7071 -0.7071 0.7071 0.7071 -112.4756 456.0234)" class="st91" width="0.5" height="20"/>
				
					<rect x="494.3" y="353.4" transform="matrix(0.7071 -0.7071 0.7071 0.7071 -112.1296 456.1667)" class="st92" width="0.5" height="20"/>
				
					<rect x="494.7" y="353.1" transform="matrix(0.7071 -0.7071 0.7071 0.7071 -111.7835 456.31)" class="st93" width="0.5" height="20"/>
				
					<rect x="495" y="352.7" transform="matrix(0.7071 -0.7071 0.7071 0.7071 -111.4375 456.4533)" class="st94" width="0.5" height="20"/>
				
					<rect x="495.4" y="352.4" transform="matrix(0.7071 -0.7071 0.7071 0.7071 -111.0915 456.5966)" class="st95" width="0.5" height="20"/>
				
					<rect x="495.7" y="352.1" transform="matrix(0.7071 -0.7071 0.7071 0.7071 -110.7455 456.74)" class="st96" width="0.5" height="20"/>
				
					<rect x="496.1" y="351.7" transform="matrix(0.7071 -0.7071 0.7071 0.7071 -110.3995 456.8833)" class="st97" width="0.5" height="20"/>
				
					<rect x="496.4" y="351.4" transform="matrix(0.7071 -0.7071 0.7071 0.7071 -110.0535 457.0266)" class="st98" width="0.5" height="20"/>
				
					<rect x="496.8" y="351" transform="matrix(0.7071 -0.7071 0.7071 0.7071 -109.7074 457.17)" class="st99" width="0.5" height="20"/>
				
					<rect x="497.1" y="350.7" transform="matrix(0.7071 -0.7071 0.7071 0.7071 -109.3614 457.3133)" class="st100" width="0.5" height="20"/>
				
					<rect x="497.4" y="350.3" transform="matrix(0.7071 -0.7071 0.7071 0.7071 -109.0154 457.4566)" class="st101" width="0.5" height="20"/>
				
					<rect x="497.8" y="350" transform="matrix(0.7071 -0.7071 0.7071 0.7071 -108.6694 457.5999)" class="st102" width="0.5" height="20"/>
				
					<rect x="498.1" y="349.6" transform="matrix(0.7071 -0.7071 0.7071 0.7071 -108.3234 457.7433)" class="st103" width="0.5" height="20"/>
				
					<rect x="498.5" y="349.3" transform="matrix(0.7071 -0.7071 0.7071 0.7071 -107.9774 457.8866)" class="st104" width="0.5" height="20"/>
				
					<rect x="498.8" y="348.9" transform="matrix(0.7071 -0.7071 0.7071 0.7071 -107.6313 458.0299)" class="st105" width="0.5" height="20"/>
				
					<rect x="499.2" y="348.6" transform="matrix(0.7071 -0.7071 0.7071 0.7071 -107.2853 458.1732)" class="st106" width="0.5" height="20"/>
				
					<rect x="499.5" y="348.2" transform="matrix(0.7071 -0.7071 0.7071 0.7071 -106.9393 458.3166)" class="st107" width="0.5" height="20"/>
				
					<rect x="499.9" y="347.9" transform="matrix(0.7071 -0.7071 0.7071 0.7071 -106.5933 458.4599)" class="st108" width="0.5" height="20"/>
				
					<rect x="500.2" y="347.6" transform="matrix(0.7071 -0.7071 0.7071 0.7071 -106.2473 458.6032)" class="st109" width="0.5" height="20"/>
				
					<rect x="500.6" y="347.2" transform="matrix(0.7071 -0.7071 0.7071 0.7071 -105.9013 458.7465)" class="st110" width="0.5" height="20"/>
				
					<rect x="500.9" y="346.9" transform="matrix(0.7071 -0.7071 0.7071 0.7071 -105.5552 458.8899)" class="st111" width="0.5" height="20"/>
				
					<rect x="501.3" y="346.5" transform="matrix(0.7071 -0.7071 0.7071 0.7071 -105.2092 459.0332)" class="st112" width="0.5" height="20"/>
				
					<rect x="501.6" y="346.2" transform="matrix(0.7071 -0.7071 0.7071 0.7071 -104.8632 459.1765)" class="st113" width="0.5" height="20"/>
				
					<rect x="501.9" y="345.8" transform="matrix(0.7071 -0.7071 0.7071 0.7071 -104.5172 459.3198)" class="st114" width="0.5" height="20"/>
				
					<rect x="502.3" y="345.5" transform="matrix(0.7071 -0.7071 0.7071 0.7071 -104.1712 459.4632)" class="st115" width="0.5" height="20"/>
				<polygon class="st116" points="495.6,348.2 495.8,348.1 496.2,348.1 509.9,361.8 509.9,362.2 509.8,362.4 				"/>
				<polygon class="st117" points="496.9,348.1 509.9,361.2 509.9,361.8 496.2,348.1 				"/>
				<polygon class="st118" points="497.5,348.1 509.9,360.5 509.9,361.2 496.9,348.1 				"/>
				<polygon class="st119" points="498.2,348.1 509.9,359.8 509.9,360.5 497.5,348.1 				"/>
				<polygon class="st120" points="498.9,348.1 509.9,359.1 509.9,359.8 498.2,348.1 				"/>
				<polygon class="st121" points="499.6,348.1 509.9,358.4 509.9,359.1 498.9,348.1 				"/>
				<polygon class="st122" points="500.3,348.1 509.9,357.7 509.9,358.4 499.6,348.1 				"/>
				<polygon class="st123" points="501,348.1 509.9,357 509.9,357.7 500.3,348.1 				"/>
				<polygon class="st124" points="501.7,348.1 509.9,356.3 509.9,357 501,348.1 				"/>
				<polygon class="st125" points="502.4,348.1 509.9,355.6 509.9,356.3 501.7,348.1 				"/>
				<polygon class="st126" points="503.1,348.1 509.9,354.9 509.9,355.6 502.4,348.1 				"/>
				<polygon class="st127" points="503.8,348.1 509.9,354.2 509.9,354.9 503.1,348.1 				"/>
				<polygon class="st128" points="504.5,348.1 509.9,353.5 509.9,354.2 503.8,348.1 				"/>
				<polygon class="st129" points="505.2,348.1 509.9,352.9 509.9,353.5 504.5,348.1 				"/>
				<polygon class="st130" points="505.9,348.1 509.9,352.2 509.9,352.9 505.2,348.1 				"/>
				<polygon class="st131" points="506.5,348.1 509.9,351.5 509.9,352.2 505.9,348.1 				"/>
				<polygon class="st132" points="507.2,348.1 509.9,350.8 509.9,351.5 506.5,348.1 				"/>
				<polygon class="st133" points="507.9,348.1 509.9,350.1 509.9,350.8 507.2,348.1 				"/>
				<polygon class="st2" points="508.6,348.1 509.9,349.4 509.9,350.1 507.9,348.1 				"/>
				<polygon class="st3" points="509.3,348.1 509.9,348.7 509.9,349.4 508.6,348.1 				"/>
				<polygon class="st4" points="509.9,348.7 509.3,348.1 509.9,348.1 				"/>
			</g>
		</g>
		<g id="XMLID_2473_">
			<path class="st146" d="M793.1,368.2h-3v-1.1h7.2v1.1h-3v8.7h-1.3V368.2z"/>
			<path class="st146" d="M798.6,366.6h1.3v4.4h0c0.2-0.4,0.5-0.7,0.9-0.9c0.4-0.2,0.8-0.4,1.3-0.4c0.9,0,2.4,0.6,2.4,3v4.2h-1.3v-4
				c0-1.1-0.4-2.1-1.6-2.1c-0.8,0-1.5,0.6-1.7,1.3c-0.1,0.2-0.1,0.4-0.1,0.6v4.2h-1.3V366.6z"/>
			<path class="st146" d="M808.4,367.9c0,0.4-0.3,0.8-0.8,0.8c-0.4,0-0.8-0.3-0.8-0.8c0-0.4,0.3-0.8,0.8-0.8
				C808.1,367.1,808.4,367.4,808.4,367.9z M807,376.8v-7h1.3v7H807z"/>
			<path class="st146" d="M810.7,371.8c0-0.7,0-1.3-0.1-1.9h1.1l0.1,1.2h0c0.3-0.7,1.2-1.3,2.3-1.3c1,0,2.5,0.6,2.5,3v4.2h-1.3v-4
				c0-1.1-0.4-2.1-1.6-2.1c-0.8,0-1.5,0.6-1.7,1.3c-0.1,0.2-0.1,0.4-0.1,0.6v4.2h-1.3V371.8z"/>
			<path class="st146" d="M820.4,373.1L820.4,373.1c0.2-0.2,0.4-0.5,0.7-0.8l2-2.4h1.5l-2.7,2.9l3.1,4.1h-1.5l-2.4-3.3l-0.7,0.7v2.6
				h-1.3v-10.2h1.3V373.1z"/>
			<path class="st146" d="M836.5,367.2c0.6-0.1,1.4-0.2,2.4-0.2c1.2,0,2.2,0.3,2.7,0.8c0.5,0.5,0.9,1.2,0.9,2c0,0.9-0.3,1.6-0.8,2.1
				c-0.7,0.7-1.7,1.1-3,1.1c-0.4,0-0.7,0-1-0.1v3.9h-1.3V367.2z M837.8,371.9c0.3,0.1,0.6,0.1,1,0.1c1.5,0,2.4-0.7,2.4-2.1
				c0-1.3-0.9-1.9-2.3-1.9c-0.5,0-1,0-1.2,0.1V371.9z"/>
			<path class="st146" d="M844.5,366.6h1.3v10.2h-1.3V366.6z"/>
			<path class="st146" d="M852.1,376.8L852,376h0c-0.4,0.5-1.1,1-2.1,1c-1.4,0-2.1-1-2.1-2c0-1.7,1.5-2.6,4.2-2.6v-0.1
				c0-0.6-0.2-1.6-1.6-1.6c-0.6,0-1.3,0.2-1.8,0.5l-0.3-0.8c0.6-0.4,1.4-0.6,2.3-0.6c2.1,0,2.7,1.5,2.7,2.9v2.6c0,0.6,0,1.2,0.1,1.7
				H852.1z M851.9,373.3c-1.4,0-3,0.2-3,1.6c0,0.8,0.5,1.2,1.2,1.2c0.9,0,1.5-0.6,1.7-1.2c0-0.1,0.1-0.3,0.1-0.4V373.3z"/>
			<path class="st146" d="M855.9,369.9l1.5,4.1c0.2,0.5,0.3,1,0.4,1.4h0c0.1-0.4,0.3-1,0.4-1.5l1.4-4.1h1.3l-1.9,5
				c-0.9,2.4-1.5,3.6-2.4,4.4c-0.6,0.5-1.2,0.8-1.6,0.8l-0.3-1.1c0.3-0.1,0.7-0.3,1.1-0.6c0.3-0.3,0.8-0.8,1.1-1.4
				c0.1-0.1,0.1-0.2,0.1-0.3s0-0.2-0.1-0.3l-2.6-6.4H855.9z"/>
			<path class="st146" d="M874,376.8l-2.5-9.7h1.3l1.2,4.9c0.3,1.2,0.5,2.4,0.7,3.4h0c0.2-1,0.5-2.1,0.8-3.4l1.3-4.9h1.3l1.2,4.9
				c0.3,1.2,0.5,2.3,0.7,3.3h0c0.2-1.1,0.5-2.2,0.8-3.4l1.3-4.9h1.3l-2.8,9.7h-1.3l-1.2-5.1c-0.3-1.2-0.5-2.2-0.6-3.2h0
				c-0.2,1-0.4,1.9-0.8,3.2l-1.4,5.1H874z"/>
			<path class="st146" d="M886.1,367.9c0,0.4-0.3,0.8-0.8,0.8c-0.4,0-0.8-0.3-0.8-0.8c0-0.4,0.3-0.8,0.8-0.8
				C885.8,367.1,886.1,367.4,886.1,367.9z M884.7,376.8v-7h1.3v7H884.7z"/>
			<path class="st146" d="M888.4,371.8c0-0.7,0-1.3-0.1-1.9h1.1l0.1,1.2h0c0.3-0.7,1.2-1.3,2.3-1.3c1,0,2.5,0.6,2.5,3v4.2h-1.3v-4
				c0-1.1-0.4-2.1-1.6-2.1c-0.8,0-1.5,0.6-1.7,1.3c-0.1,0.2-0.1,0.4-0.1,0.6v4.2h-1.3V371.8z"/>
		</g>
	</g>
</g>
</svg>
