<?xml version="1.0" encoding="utf-8"?>
<!-- Generator: Adobe Illustrator 21.1.0, SVG Export Plug-In . SVG Version: 6.00 Build 0)  -->
<svg version="1.1" id="Layer_1" xmlns="http://www.w3.org/2000/svg" xmlns:xlink="http://www.w3.org/1999/xlink" x="0px" y="0px"
	 viewBox="0 0 155 155" style="enable-background:new 0 0 155 155;" xml:space="preserve">
<style type="text/css">
	.st0{opacity:0.5;}
	.st1{fill:none;stroke:#F1F1F2;stroke-miterlimit:10;}
	.st2{fill:#FFFFFF;}
</style>
<g>
	<g class="st0">
		<g id="XMLID_1453_">
			<ellipse id="XMLID_1524_" class="st1" cx="73.4" cy="21" rx="12" ry="12"/>
			<ellipse id="XMLID_1462_" class="st1" cx="81.4" cy="21" rx="12" ry="12"/>
		</g>
		<ellipse id="XMLID_1449_" class="st1" cx="73.4" cy="81.3" rx="12" ry="12"/>
		<ellipse id="XMLID_1448_" class="st1" cx="81.4" cy="81.3" rx="12" ry="12"/>
		<g id="XMLID_1405_">
			<ellipse id="XMLID_1426_" class="st1" cx="81.4" cy="133.8" rx="12" ry="12"/>
			<ellipse id="XMLID_1425_" class="st1" cx="73.4" cy="133.8" rx="12" ry="12"/>
		</g>
		<ellipse id="XMLID_1393_" class="st1" cx="81.4" cy="73.5" rx="12" ry="12"/>
		<ellipse id="XMLID_1391_" class="st1" cx="73.4" cy="73.5" rx="12" ry="12"/>
		<ellipse id="XMLID_1389_" class="st1" cx="133.7" cy="81.3" rx="12" ry="12"/>
		<ellipse id="XMLID_1366_" class="st1" cx="133.7" cy="73.5" rx="12" ry="12"/>
		<ellipse id="XMLID_1365_" class="st1" cx="51.3" cy="111.5" rx="12" ry="12"/>
		<ellipse id="XMLID_1347_" class="st1" cx="51.3" cy="103.8" rx="12" ry="12"/>
		<ellipse id="XMLID_1342_" class="st1" cx="43.3" cy="103.8" rx="12" ry="12"/>
		<ellipse id="XMLID_1237_" class="st1" cx="103.6" cy="111.5" rx="12" ry="12"/>
		<ellipse id="XMLID_1229_" class="st1" cx="111.6" cy="103.8" rx="12" ry="12"/>
		<ellipse id="XMLID_1220_" class="st1" cx="103.6" cy="103.8" rx="12" ry="12"/>
		<ellipse id="XMLID_1215_" class="st1" cx="43.3" cy="50.7" rx="12" ry="12"/>
		<ellipse id="XMLID_1208_" class="st1" cx="51.3" cy="50.7" rx="12" ry="12"/>
		<ellipse id="XMLID_1206_" class="st1" cx="51.3" cy="42.9" rx="12" ry="12"/>
		<ellipse id="XMLID_1199_" class="st1" cx="103.6" cy="50.7" rx="12" ry="12"/>
		<ellipse id="XMLID_1161_" class="st1" cx="111.6" cy="50.7" rx="12" ry="12"/>
		<ellipse id="XMLID_1144_" class="st1" cx="103.6" cy="42.9" rx="12" ry="12"/>
		<ellipse id="XMLID_1126_" class="st1" cx="20.9" cy="81.3" rx="12" ry="12"/>
		<ellipse id="XMLID_1124_" class="st1" cx="20.9" cy="73.5" rx="12" ry="12"/>
	</g>
	<path id="XMLID_652_" class="st2" d="M87.8,97.4c5.7,5.7,5.7,14.9,0,20.6c-2.9,2.9-6.6,4.3-10.4,4.2h-5.5c-2.6,0-5.5,1.5-7.1,3.1
		c-1.4,1.4-3,4.1-3.1,7.1v4.1c0.4,4.2-0.9,8.5-4.1,11.7c-5.7,5.7-14.9,5.7-20.6,0c-5.7-5.7-5.7-14.9,0-20.6
		c3.2-3.2,7.5-4.5,11.7-4.1h4.1c3.1,0,5.6-1.6,7.1-3.1c1.5-1.5,3-4.2,3.1-7.1v-5.5c0-3.8,1.4-7.5,4.2-10.4
		C72.9,91.7,82.2,91.7,87.8,97.4z M31.5,102.1c0.1-3,1.7-5.6,3.1-7.1c1.6-1.6,4.4-3.1,7.1-3.1h3.9c4.2,0.5,8.7-0.8,11.9-4.1
		c5.7-5.7,5.7-14.9,0-20.6C54.6,64.4,50.8,63,47,63h-5.3c-2.9-0.1-5.6-1.5-7.1-3.1c-1.5-1.5-3-4-3.1-7.1v-4.1
		c0.4-4.2-0.9-8.5-4.1-11.7c-5.7-5.7-14.9-5.7-20.6,0c-5.7,5.7-5.7,14.9,0,20.6c3.2,3.2,7.5,4.5,11.7,4.1h4.1c3,0.1,5.6,1.7,7.1,3.1
		c1.6,1.6,3.1,4.4,3.1,7.1v4.9c0,0.4,0,0.8,0,1.2v5c-0.1,2.9-1.5,5.6-3.1,7.1c-1.5,1.5-4,3-7.1,3.1H17l0,0c-3.7,0-7.4,1.4-10.2,4.3
		c-5.7,5.7-5.7,14.9,0,20.6c5.7,5.7,14.9,5.7,20.6,0c3.1-3.1,4.5-7.3,4.2-11.3V102.1z M137.9,93.1L137.9,93.1l-5.6,0
		c-2.9-0.1-5.6-1.5-7.1-3.1c-1.5-1.5-3-4-3.1-7.1v-4.2c0.1-0.9,0.1-1.9,0-2.8V72c0.1-3,1.7-5.6,3.1-7.1c1.6-1.6,4.4-3.1,7.1-3.1h5.6
		l0,0c3.7,0,7.5-1.4,10.4-4.2c5.7-5.7,5.7-14.9,0-20.6c-5.7-5.7-14.9-5.7-20.6,0c-2.9,2.9-4.3,6.6-4.2,10.4l0,0v5.6
		c-0.1,2.9-1.5,5.6-3.1,7.1c-1.5,1.5-4,3-7.1,3.1h-3.9c-4.2-0.4-8.6,0.9-11.8,4.1c-5.7,5.7-5.7,14.9,0,20.6
		c3.3,3.3,7.7,4.6,11.9,4.1h3.9c3,0.1,5.6,1.7,7.1,3.1c1.6,1.6,3.1,4.4,3.1,7.1v5.2c-0.1,3.9,1.3,7.7,4.2,10.7
		c5.7,5.7,14.9,5.7,20.6,0c5.7-5.7,5.7-14.9,0-20.6C145.4,94.5,141.6,93.1,137.9,93.1z M97.4,127.7c-5.7,5.7-5.7,14.9,0,20.6
		c5.7,5.7,14.9,5.7,20.6,0c5.7-5.7,5.7-14.9,0-20.6C112.3,122,103.1,122,97.4,127.7z M57.5,27.3c5.7-5.7,5.7-14.9,0-20.6
		S42.6,1.1,37,6.8s-5.7,14.9,0,20.6C42.6,33,51.8,33,57.5,27.3z M87.7,57.5c3.2-3.2,4.5-7.6,4.1-11.8v-4c0.1-3,1.7-5.6,3.1-7.1
		c1.6-1.6,4.4-3.1,7.1-3.1h5.2c3.9,0.1,7.7-1.3,10.7-4.2c5.7-5.7,5.7-14.9,0-20.6c-5.7-5.7-14.9-5.7-20.6,0
		c-2.8,2.8-4.3,6.6-4.3,10.3l0,0v5.6c-0.1,2.9-1.5,5.6-3.1,7.1c-1.5,1.5-4,3-7.1,3.1h-4.5c-4-0.3-8.1,1.1-11.2,4.2
		c-5.7,5.7-5.7,14.9,0,20.6C72.9,63.2,82.1,63.2,87.7,57.5z"/>
</g>
</svg>
