<?xml version="1.0" encoding="utf-8"?>
<!-- Generator: Adobe Illustrator 21.1.0, SVG Export Plug-In . SVG Version: 6.00 Build 0)  -->
<svg version="1.1" id="Layer_1" xmlns="http://www.w3.org/2000/svg" xmlns:xlink="http://www.w3.org/1999/xlink" x="0px" y="0px"
	 viewBox="0 0 12 12" style="enable-background:new 0 0 12 12;" xml:space="preserve">
<style type="text/css">
	.st0{fill:#808285;}
</style>
<g id="XMLID_988_">
	<path id="XMLID_989_" class="st0" d="M6,12c-3.3,0-6-2.7-6-5.9C0,2.7,2.7,0,6,0s6,2.7,6,6.1C11.9,9.3,9.2,12,6,12z M6,0.6
		C3.1,0.6,0.7,3,0.7,5.9s2.4,5.3,5.3,5.3s5.3-2.4,5.3-5.3S8.9,0.6,6,0.6z"/>
</g>
<g>
	<path class="st0" d="M7.8,7.8c-0.1,0-0.2,0-0.2-0.1l-2-1.6V1.9c0-0.2,0.2-0.4,0.4-0.4s0.4,0.2,0.4,0.4v3.9L8,7.2
		c0.2,0.1,0.2,0.3,0.1,0.5C8,7.8,7.9,7.8,7.8,7.8z"/>
</g>
</svg>
