<?xml version="1.0" encoding="utf-8"?>
<!-- Generator: Adobe Illustrator 21.1.0, SVG Export Plug-In . SVG Version: 6.00 Build 0)  -->
<svg version="1.1" id="Layer_1" xmlns="http://www.w3.org/2000/svg" xmlns:xlink="http://www.w3.org/1999/xlink" x="0px" y="0px"
	 viewBox="0 0 29.5 24" style="enable-background:new 0 0 29.5 24;" xml:space="preserve">
<style type="text/css">
	.st0{fill:#B3B3B3;}
	.st1{fill:#999999;}
	.st2{fill:#27A9E0;}
	.st3{fill:#3B5998;}
	.st4{fill:#D34836;}
</style>
<g id="XMLID_587_">
	<path id="XMLID_636_" class="st0" d="M-102.6-151.9v3.3c0,0.5-0.4,0.8-0.8,0.8c-1.6,0-2.5,1.7-2.6,4.9h2.6c0.5,0,0.8,0.4,0.8,0.8v7
		c0,0.5-0.4,0.8-0.8,0.8h-7c-0.5,0-0.8-0.4-0.8-0.8v-7c0-1.6,0.2-3,0.5-4.3c0.3-1.3,0.8-2.4,1.5-3.4c0.7-1,1.5-1.7,2.5-2.3
		c1-0.5,2.1-0.8,3.4-0.8C-102.9-152.7-102.6-152.4-102.6-151.9z M-92-147.8c0.5,0,0.8-0.4,0.8-0.8v-3.3c0-0.5-0.4-0.8-0.8-0.8
		c-1.3,0-2.4,0.3-3.4,0.8c-1,0.5-1.8,1.3-2.5,2.3c-0.6,0.9-1.1,2.1-1.5,3.4c-0.3,1.3-0.5,2.7-0.5,4.3v7c0,0.5,0.4,0.8,0.8,0.8h7
		c0.5,0,0.8-0.4,0.8-0.8v-7c0-0.5-0.4-0.8-0.8-0.8h-2.6C-94.4-146.1-93.6-147.8-92-147.8z"/>
</g>
<g id="XMLID_384_">
	<g id="XMLID_387_">
		<path id="XMLID_401_" class="st1" d="M29.5,2.8c-1.1,0.5-2.3,0.8-3.5,1c1.3-0.7,2.2-1.9,2.7-3.4c-1.2,0.7-2.5,1.2-3.9,1.5
			C23.8,0.7,22.2,0,20.5,0c-3.3,0-6.1,2.7-6.1,6.1c0,0.5,0.1,0.9,0.2,1.4C9.5,7.2,5,4.8,2.1,1.1C1.5,2,1.2,3,1.2,4.2
			c0,2.1,1.1,4,2.7,5c-1,0-1.9-0.3-2.7-0.8v0.1c0,2.9,2.1,5.4,4.9,5.9c-0.5,0.1-1,0.2-1.6,0.2c-0.4,0-0.8,0-1.1-0.1
			c0.8,2.4,3,4.2,5.7,4.2c-2.1,1.6-4.7,2.6-7.5,2.6c-0.5,0-1,0-1.4-0.1C2.7,23,5.9,24,9.3,24c11.1,0,17.2-9.2,17.2-17.2l0-0.8
			C27.7,5.1,28.7,4.1,29.5,2.8z"/>
	</g>
</g>
<g id="XMLID_371_">
	<path id="Facebook_1_" class="st1" d="M-131,4.6c0,0.6,0,3.3,0,3.3h-2.4v4h2.4v12h5V12h3.3c0,0,0.3-1.9,0.5-4.1c-0.4,0-3.8,0-3.8,0
		s0-2.4,0-2.8c0-0.4,0.5-1,1.1-1c0.5,0,1.7,0,2.7,0c0-0.6,0-2.5,0-4.2c-1.4,0-3,0-3.7,0C-131.1,0-131,4-131,4.6z"/>
</g>
<g id="XMLID_300_">
	<g id="XMLID_301_">
		<g id="XMLID_313_">
			<path id="XMLID_346_" class="st1" d="M163.1,10.7h-11.2v3.7h6.8c-1,3.2-4.1,5.6-7.6,5.6c-4.4,0-8-3.6-8-8c0-4.4,3.6-8,8-8
				c2.2,0,4.2,0.9,5.7,2.4l2.7-2.9c-2.2-2.1-5.1-3.4-8.4-3.4c-6.6,0-12,5.4-12,12s5.4,12,12,12c5.8,0,10.9-4.1,12-9.6L163.1,10.7
				L163.1,10.7L163.1,10.7z"/>
			<polygon id="XMLID_314_" class="st1" points="170.3,10.7 168,10.7 168,8.4 166.1,8.4 166.1,10.7 163.8,10.7 163.8,12.6 
				166.1,12.6 166.1,14.9 168,14.9 168,12.6 170.3,12.6 			"/>
		</g>
	</g>
</g>
<g id="XMLID_342_">
	<g>
		<g id="XMLID_17_">
			<path id="XMLID_18_" class="st2" d="M29.5,106.8c-1.1,0.5-2.3,0.8-3.5,1c1.3-0.7,2.2-1.9,2.7-3.4c-1.2,0.7-2.5,1.2-3.9,1.5
				c-1.1-1.2-2.7-1.9-4.4-1.9c-3.3,0-6.1,2.7-6.1,6.1c0,0.5,0.1,0.9,0.2,1.4c-5-0.3-9.5-2.7-12.5-6.3c-0.5,0.9-0.8,1.9-0.8,3
				c0,2.1,1.1,4,2.7,5c-1,0-1.9-0.3-2.7-0.8v0.1c0,2.9,2.1,5.4,4.9,5.9c-0.5,0.1-1,0.2-1.6,0.2c-0.4,0-0.8,0-1.1-0.1
				c0.8,2.4,3,4.2,5.7,4.2c-2.1,1.6-4.7,2.6-7.5,2.6c-0.5,0-1,0-1.4-0.1c2.7,1.7,5.9,2.7,9.3,2.7c11.1,0,17.2-9.2,17.2-17.2l0-0.8
				C27.7,109.1,28.7,108.1,29.5,106.8z"/>
		</g>
	</g>
</g>
<g id="XMLID_337_">
	<g>
		<path id="Facebook_9_" class="st3" d="M-131,108.6c0,0.6,0,3.3,0,3.3h-2.4v4h2.4v12h5v-12h3.3c0,0,0.3-1.9,0.5-4.1
			c-0.4,0-3.8,0-3.8,0s0-2.4,0-2.8c0-0.4,0.5-1,1.1-1c0.5,0,1.7,0,2.7,0c0-0.6,0-2.5,0-4.2c-1.4,0-3,0-3.7,0
			C-131.1,104-131,108-131,108.6z"/>
	</g>
</g>
<g id="XMLID_428_">
	<g id="XMLID_296_">
		<g id="XMLID_297_">
			<path id="XMLID_305_" class="st4" d="M163.1,114.7h-11.2v3.7h6.8c-1,3.2-4.1,5.6-7.6,5.6c-4.4,0-8-3.6-8-8c0-4.4,3.6-8,8-8
				c2.2,0,4.2,0.9,5.7,2.4l2.7-2.9c-2.2-2.1-5.1-3.4-8.4-3.4c-6.6,0-12,5.4-12,12c0,6.6,5.4,12,12,12c5.8,0,10.9-4.1,12-9.6
				L163.1,114.7L163.1,114.7L163.1,114.7z"/>
			<polygon id="XMLID_1220_" class="st4" points="170.3,114.7 168,114.7 168,112.4 166.1,112.4 166.1,114.7 163.8,114.7 
				163.8,116.6 166.1,116.6 166.1,118.9 168,118.9 168,116.6 170.3,116.6 			"/>
		</g>
	</g>
</g>
</svg>
