<?xml version="1.0" encoding="utf-8"?>
<!-- Generator: Adobe Illustrator 21.1.0, SVG Export Plug-In . SVG Version: 6.00 Build 0)  -->
<svg version="1.1" id="Layer_1" xmlns="http://www.w3.org/2000/svg" xmlns:xlink="http://www.w3.org/1999/xlink" x="0px" y="0px"
	 viewBox="0 0 19 19" style="enable-background:new 0 0 19 19;" xml:space="preserve">
<style type="text/css">
	.st0{fill:none;stroke:#8F8FD1;stroke-width:0.7;stroke-miterlimit:10;}
</style>
<g>
	<g>
		<path id="Behance_9_" class="st0" d="M57.8,27.8h-6.9V26h6.9L57.8,27.8L57.8,27.8z M46.2,34.8c0.4,0.7,0.7,1.5,0.7,2.5
			c0,1-0.3,1.9-0.8,2.7c-0.3,0.5-0.7,1-1.2,1.3c-0.5,0.4-1.2,0.7-1.9,0.9c-0.7,0.2-1.6,0.2-2.4,0.2h-7.8V25.3h8.3
			c2.1,0,3.6,0.6,4.5,1.8c0.5,0.7,0.8,1.6,0.8,2.6c0,1.1-0.3,1.9-0.8,2.5c-0.3,0.4-0.7,0.7-1.3,1C45.1,33.6,45.8,34.1,46.2,34.8z
			 M36.8,32.1h3.6c0.7,0,1.4-0.1,1.8-0.4c0.5-0.3,0.7-0.8,0.7-1.5c0-0.8-0.3-1.3-0.9-1.6c-0.5-0.2-1.2-0.3-2-0.3h-3.2V32.1z
			 M43.3,37.1c0-0.9-0.4-1.5-1.1-1.8c-0.4-0.2-1-0.3-1.7-0.3h-3.7v4.6h3.6c0.7,0,1.3-0.1,1.7-0.3C42.9,38.8,43.3,38.1,43.3,37.1z
			 M60.3,34.3c0.1,0.6,0.1,1.4,0.1,2.4h-9c0,1.2,0.5,2.1,1.3,2.6c0.5,0.3,1.1,0.5,1.8,0.5c0.7,0,1.3-0.2,1.8-0.6
			c0.3-0.2,0.5-0.5,0.7-0.8h3.3c-0.1,0.7-0.5,1.5-1.2,2.2c-1.1,1.2-2.7,1.8-4.6,1.8c-1.6,0-3.1-0.5-4.3-1.5c-1.3-1-1.9-2.7-1.9-4.9
			c0-2.1,0.6-3.8,1.7-4.9c1.1-1.1,2.6-1.7,4.4-1.7c1.1,0,2,0.2,2.9,0.6c0.9,0.4,1.6,1,2.1,1.8C59.9,32.5,60.2,33.3,60.3,34.3z
			 M57.1,34.6c-0.1-0.9-0.3-1.5-0.9-1.9c-0.5-0.4-1.1-0.7-1.9-0.7c-0.8,0-1.5,0.2-1.9,0.7c-0.5,0.5-0.7,1.1-0.9,1.9L57.1,34.6
			L57.1,34.6z"/>
	</g>
</g>
<g>
	<g>
		<path id="XMLID_8_" class="st0" d="M93.3,27.3c-0.5,0.2-0.9,0.4-1.4,0.5c0.5-0.5,0.9-1.2,1.2-1.9l0,0c0.1-0.2-0.2-0.4-0.3-0.3l0,0
			c-0.7,0.4-1.4,0.7-2.2,0.9c0,0-0.1,0-0.1,0c-0.1,0-0.3-0.1-0.4-0.1c-0.8-0.7-1.9-1.1-3-1.1c-0.5,0-0.9,0.1-1.4,0.2
			c-1.4,0.4-2.6,1.6-2.9,3.1c-0.1,0.6-0.2,1.1-0.1,1.6c0,0.1,0,0.1,0,0.1c0,0-0.1,0.1-0.1,0.1c0,0,0,0,0,0c-3.2-0.3-6-1.8-8-4.3l0,0
			c-0.1-0.1-0.3-0.1-0.4,0l0,0c-0.4,0.7-0.6,1.5-0.6,2.2c0,1.2,0.5,2.3,1.3,3.2c-0.4-0.1-0.7-0.2-1-0.4l0,0c-0.2-0.1-0.3,0-0.3,0.2
			l0,0c0,1.8,1,3.4,2.6,4.1c0,0-0.1,0-0.1,0c-0.2,0-0.5,0-0.8-0.1l0,0c-0.2,0-0.3,0.1-0.3,0.3l0,0c0.5,1.6,1.9,2.8,3.5,3
			c-1.4,0.9-3,1.4-4.6,1.4l-0.5,0c-0.2,0-0.3,0.1-0.3,0.3c0,0.2,0,0.3,0.2,0.4c1.9,1.1,4,1.7,6.2,1.7c1.9,0,3.7-0.4,5.3-1.1
			c1.5-0.7,2.8-1.6,3.8-2.9c1-1.1,1.8-2.5,2.4-3.9c0.5-1.4,0.8-2.9,0.8-4.3v-0.1c0-0.2,0.1-0.4,0.3-0.6c0.7-0.6,1.3-1.2,1.8-1.9l0,0
			C93.8,27.5,93.6,27.2,93.3,27.3L93.3,27.3z"/>
	</g>
</g>
<g>
	<g>
		<ellipse id="XMLID_36_" class="st0" cx="10.5" cy="32.5" rx="8.5" ry="8.6"/>
		<path id="XMLID_35_" class="st0" d="M6.1,25.2c0,0,7.4,6.4,6.5,15.9"/>
		<path id="XMLID_34_" class="st0" d="M5.4,39.4c0,0,3.5-7.5,13.7-6.9"/>
		<path id="XMLID_33_" class="st0" d="M2,31.9c0,0,8.6,0.9,14.6-5.4"/>
	</g>
</g>
<g>
	<g>
		<path id="XMLID_37_" class="st0" d="M15.3,18.1H3.7c-1.5,0-2.7-1.2-2.7-2.7V3.7c0-1.5,1.2-2.7,2.7-2.7h11.6c1.5,0,2.7,1.2,2.7,2.7
			v11.7C18,16.9,16.8,18.1,15.3,18.1z"/>
		<path id="XMLID_32_" class="st0" d="M11.2,13.3H7.8c-1.2,0-2.1-0.9-2.1-2.1V7.8c0-1.2,0.9-2.1,2.1-2.1l3.3,0
			c1.2,0,2.1,0.9,2.1,2.1v3.4C13.2,12.3,12.3,13.3,11.2,13.3z"/>
		<path id="XMLID_31_" class="st0" d="M11.2,13.3H7.8c-1.2,0-2.1-0.9-2.1-2.1V7.8c0-1.2,0.9-2.1,2.1-2.1h3.3c1.2,0,2.1,0.9,2.1,2.1
			v3.4C13.2,12.3,12.3,13.3,11.2,13.3z"/>
		<ellipse id="XMLID_30_" class="st0" cx="14.8" cy="4.3" rx="0.8" ry="0.8"/>
	</g>
</g>
</svg>
