<svg xmlns="http://www.w3.org/2000/svg" viewBox="0 0 30 19"><defs><style>.cls-1{fill:none;}.cls-2{fill:#8f8fd1;}</style></defs><title>Asset 22</title><g id="Layer_2" data-name="Layer 2"><g id="Layer_1-2" data-name="Layer 1"><rect class="cls-1" width="30" height="19"/><path class="cls-2" d="M16.3,18.2h-4V10H10.7V6h1.6V4.9a3.55,3.55,0,0,1,3.8-3.8H19V4.6H16.8a.37.37,0,0,0-.4.4V6H19l-.4,4H16.2v8.2ZM13,17.4h2.5V9.3H18l.2-2.5H15.6V5.1a1.07,1.07,0,0,1,1.1-1.2h1.5V1.8H16a2.9,2.9,0,0,0-3.1,3.1V6.8H11.3V9.3h1.6v8.1Z"/></g></g></svg>