<svg xmlns="http://www.w3.org/2000/svg" viewBox="0 0 30 19"><defs><style>.cls-1{fill:none;}.cls-2{fill:#8f8fd1;}</style></defs><title>Asset 18</title><g id="Layer_2" data-name="Layer 2"><g id="Layer_1-2" data-name="Layer 1"><rect class="cls-1" width="30" height="19"/><g id="_Group_" data-name="&lt;Group&gt;"><path class="cls-2" d="M20.8,18.45H9.2a3.12,3.12,0,0,1-3.1-3.1V3.65A3.12,3.12,0,0,1,9.2.55H20.8a3.12,3.12,0,0,1,3.1,3.1v11.7A3.12,3.12,0,0,1,20.8,18.45ZM9.2,1.25a2.43,2.43,0,0,0-2.4,2.4v11.7a2.43,2.43,0,0,0,2.4,2.4H20.8a2.43,2.43,0,0,0,2.4-2.4V3.65a2.43,2.43,0,0,0-2.4-2.4Z"/></g><g id="_Group_2" data-name="&lt;Group&gt;"><path class="cls-2" d="M16.7,13.65H13.4a2.43,2.43,0,0,1-2.4-2.4V7.85a2.43,2.43,0,0,1,2.4-2.4h3.3a2.43,2.43,0,0,1,2.4,2.4v3.4A2.43,2.43,0,0,1,16.7,13.65ZM13.4,6a1.69,1.69,0,0,0-1.7,1.7v3.4a1.69,1.69,0,0,0,1.7,1.7h3.3a1.69,1.69,0,0,0,1.7-1.7V7.85a1.69,1.69,0,0,0-1.7-1.7L13.4,6Z"/></g><g id="_Group_3" data-name="&lt;Group&gt;"><path class="cls-2" d="M16.7,13.65H13.4a2.43,2.43,0,0,1-2.4-2.4V7.85a2.43,2.43,0,0,1,2.4-2.4h3.3a2.43,2.43,0,0,1,2.4,2.4v3.4A2.43,2.43,0,0,1,16.7,13.65ZM13.4,6a1.69,1.69,0,0,0-1.7,1.7v3.4a1.69,1.69,0,0,0,1.7,1.7h3.3a1.69,1.69,0,0,0,1.7-1.7V7.85a1.69,1.69,0,0,0-1.7-1.7L13.4,6Z"/></g><g id="_Group_4" data-name="&lt;Group&gt;"><path class="cls-2" d="M20.3,5.45a1.1,1.1,0,1,1,1.1-1.1A1.11,1.11,0,0,1,20.3,5.45Zm0-1.6a.43.43,0,0,0-.4.4.4.4,0,1,0,.8,0A.43.43,0,0,0,20.3,3.85Z"/></g></g></g></svg>