<svg xmlns="http://www.w3.org/2000/svg" viewBox="0 0 30 19"><defs><style>.cls-1{fill:none;}.cls-2{fill:#f15379;}</style></defs><title>Asset 16</title><g id="Layer_2" data-name="Layer 2"><g id="Layer_1-2" data-name="Layer 1"><rect class="cls-1" width="30" height="19"/><rect class="cls-1" width="30" height="19"/><g id="_Group_" data-name="&lt;Group&gt;"><path class="cls-2" d="M10.89,18.51a12.66,12.66,0,0,1-6.3-1.7.67.67,0,0,1-.3-.8.75.75,0,0,1,.7-.5h.5a7.79,7.79,0,0,0,3.7-.9,4.87,4.87,0,0,1-3-3.1.66.66,0,0,1,.1-.6l.1-.1A4.94,4.94,0,0,1,4.59,7a.55.55,0,0,1,.3-.5.6.6,0,0,1,.4-.1A4.75,4.75,0,0,1,4.69,4a4.2,4.2,0,0,1,.7-2.4.55.55,0,0,1,.5-.3.76.76,0,0,1,.5.2A11.32,11.32,0,0,0,14,5.61a7.57,7.57,0,0,1,.1-1.5,4.83,4.83,0,0,1,3.1-3.4,5,5,0,0,1,4.7,1,.35.35,0,0,0,.2.1,6.67,6.67,0,0,0,2.1-.9.85.85,0,0,1,.7,0c.2.2.3.4.2.6a5.36,5.36,0,0,1-.5,1.1c.1,0,.2-.1.3-.1h0a.66.66,0,0,1,.7.2.48.48,0,0,1,0,.7,8.6,8.6,0,0,1-1.8,2c-.1.1-.2.2-.2.3a13.75,13.75,0,0,1-.8,4.5,13.31,13.31,0,0,1-2.4,4,11.71,11.71,0,0,1-4,3A11.44,11.44,0,0,1,10.89,18.51ZM5,16.21a12.51,12.51,0,0,0,6,1.6,12.27,12.27,0,0,0,5.1-1.1,11.33,11.33,0,0,0,3.7-2.8,11.39,11.39,0,0,0,2.3-3.8,12.49,12.49,0,0,0,.8-4.2,1.27,1.27,0,0,1,.4-.9,10.63,10.63,0,0,0,1.5-1.5,4.51,4.51,0,0,1-1.1.3l-1.3.3.9-.9a4.51,4.51,0,0,0,1-1.4,11.92,11.92,0,0,1-2,.8.78.78,0,0,1-.8-.2,4.14,4.14,0,0,0-4-.8,4,4,0,0,0-2.7,2.9,3.81,3.81,0,0,0-.1,1.5.6.6,0,0,1-.1.4.52.52,0,0,1-.4.2A12.08,12.08,0,0,1,6,2.31a4.14,4.14,0,0,0-.5,1.9,4,4,0,0,0,1.2,2.9l.9.9-1.2-.3-.9-.3A4.38,4.38,0,0,0,7.89,11l1.4.6H7a3.92,3.92,0,0,0,3.2,2.6l.9.1-.7.5a8.27,8.27,0,0,1-4.8,1.5H5Zm.8-14.1Z"/></g></g></g></svg>