<?xml version="1.0" encoding="utf-8"?>
<!-- Generator: Adobe Illustrator 21.0.2, SVG Export Plug-In . SVG Version: 6.00 Build 0)  -->
<svg version="1.1" id="Layer_1" xmlns="http://www.w3.org/2000/svg" xmlns:xlink="http://www.w3.org/1999/xlink" x="0px" y="0px"
	 viewBox="0 0 210 211.2" style="enable-background:new 0 0 210 211.2;" xml:space="preserve">
<style type="text/css">
	.st0{fill:#FFF0CD;}
	.st1{fill:#FFFFE6;}
	.st2{fill:none;stroke:#F49782;stroke-width:3;stroke-linecap:round;stroke-linejoin:round;stroke-miterlimit:10;}
	.st3{fill:#F49782;}
	
		.st4{fill:none;stroke:#F49782;stroke-width:3;stroke-linecap:round;stroke-linejoin:round;stroke-miterlimit:10;stroke-dasharray:0.25,10;}
</style>
<g id="XMLID_2443_">
	<path id="XMLID_2484_" class="st0" d="M132.2,180c-0.3,9.1-7,13.2-13.5,16.3c-6.7,3.3-13.7,5.7-14,14.9c0.3-8.7-6.7-12.3-13-16.1
		c-5.9-3.6-12-7.3-12.1-15.6c0-0.4-0.3-1.4,0-1.2C104,189.8,132.2,180,132.2,180z"/>
	<path id="XMLID_2482_" class="st0" d="M81.8,33.1c-0.4,0.1,0-0.8,0-1.2c0.6-8.3,7-11.5,13.1-14.7c6.5-3.3,13.8-6.4,14.1-15.1
		c-0.4,9.1,6.5,12.1,12.9,15.8c6.3,3.6,12.7,8.1,12.4,17.2C134.4,35.1,107,23.4,81.8,33.1z"/>
	<path id="XMLID_2480_" class="st0" d="M135.9,36.2c-0.4-0.2,0.6-0.6,0.9-0.8c6.3-5.4,13.1-3.2,19.7-1.1c7,2.3,14.3,5.2,20.7-0.7
		c-6.7,6.2-4,13.1-2.1,20.3c1.9,7,3.2,14.7-3.5,20.9C171.6,74.9,160.5,47.2,135.9,36.2z"/>
	<path id="XMLID_2478_" class="st0" d="M178.6,79.6c-0.2-0.4,0.8,0,1.2,0c8.3,0.5,11.6,6.8,14.9,12.9c3.4,6.5,6.6,13.6,15.4,13.9
		c-9.1-0.2-12,6.6-15.7,13.1c-3.5,6.3-8,12.8-17.1,12.6C177.3,132.2,188.6,104.7,178.6,79.6z"/>
	<path id="XMLID_2476_" class="st0" d="M177,137.9c0.2-0.4,0.6,0.6,0.9,0.9c5.7,6.1,3.7,12.9,1.9,19.6c-2,7.1-4.6,14.4,1.6,20.6
		c-6.5-6.5-13.3-3.4-20.4-1.2c-6.9,2.1-14.6,3.8-21.1-2.6C139.9,175.2,167.1,163,177,137.9z"/>
	<path id="XMLID_2474_" class="st0" d="M38.4,75.3c-6.7-6.2-5.4-13.9-3.5-20.9c1.9-7.2,4.6-14.1-2.1-20.3c6.4,5.9,13.7,3,20.7,0.7
		c6.6-2.1,13.4-4.3,19.7,1.1c0.3,0.3,1.3,0.6,0.9,0.8C49.5,47.6,38.4,75.3,38.4,75.3z"/>
	<path id="XMLID_2472_" class="st0" d="M32.7,135.1c-9.1,0.2-13.5-6.3-17.1-12.6C12,116,9.1,109.1,0,109.3
		c8.7-0.2,11.9-7.4,15.4-13.9c3.2-6.1,6.6-12.4,14.9-12.9c0.4,0,1.4-0.4,1.2,0C21.4,107.5,32.7,135.1,32.7,135.1z"/>
	<path id="XMLID_2470_" class="st0" d="M73.5,178.9c-6.4,6.4-14.2,4.8-21.1,2.6c-7.2-2.2-13.9-5.2-20.4,1.2
		c6.2-6.2,3.6-13.5,1.6-20.6c-1.9-6.7-3.8-13.5,1.9-19.6c0.3-0.3,0.7-1.2,0.9-0.9C46.2,166.7,73.5,178.9,73.5,178.9z"/>
	<path id="XMLID_2469_" class="st1" d="M99.1,156.3c-31.2,0-56.5-25.3-56.5-56.5s25.3-56.5,56.5-56.5c0,0-38.5,17.3-36.3,57.7
		C65.1,142.4,99.1,156.3,99.1,156.3z"/>
	<g id="XMLID_2444_">
		<path id="XMLID_2468_" class="st2" d="M191.9,89.8c-3.7-6.5-7.4-13.2-16.8-12.9l-2-2.9c6.6-6.6,4.9-14.5,2.7-21.6
			c-2.3-7.3-5.4-14.3,1.3-20.9c-6.3,6.3-13.9,3.6-21.2,1.6c-7.2-2-14.6-4.1-21,2.8l0.2,0.2c-1.4-0.6-2.7-1.7-2.7-1.7
			c0-9.3-6.8-13.7-13.4-17.2c-6.8-3.6-13.9-6.3-13.9-15.7c0,9-7.3,12.4-13.9,16.1c-6.5,3.6-13.2,7.4-12.9,16.8c0,0-1.3,1-2.5,1.6
			l0.1-0.1c-6.4-6.8-13.9-4.8-21-2.8c-7.3,2-14.8,4.7-21.2-1.6c6.6,6.6,3.6,13.6,1.3,20.9c-2.2,7.1-3.9,14.9,2.6,21.5
			c-0.7,1.5-1.9,3-1.9,3c-9.4-0.3-13.2,6.4-16.8,12.9c-3.7,6.6-7.1,13.8-16.1,13.8c9.4,0,12.1,7.1,15.7,13.9
			c3.5,6.6,7.9,13.3,17.2,13.3c0,0,1.2,1.5,1.9,3c-6.7,6.4-4.7,13.8-2.7,20.9c2,7.2,4.7,14.8-1.6,21.2c6.6-6.6,13.6-3.6,21-1.3
			c7.1,2.2,15,3.9,21.6-2.7l-0.1-0.1c1.3,0.5,2.5,1.5,2.5,1.5c-0.3,9.4,6.4,13.1,12.9,16.8c6.6,3.7,13.9,7.1,13.9,16.1
			c0-9.4,7.1-12.1,13.9-15.7c6.6-3.5,13.4-7.8,13.4-17.2c0,0,1.5-1.2,3-1.9c6.6,6.5,14.5,4.8,21.5,2.6c7.3-2.3,14.3-5.3,21,1.3
			c-6.3-6.3-3.6-13.9-1.6-21.2c2-7.2,4.1-14.6-2.8-21l1.5-2.4c9.3,0,13.7-6.8,17.2-13.3c3.6-6.8,6.3-13.9,15.7-13.9
			C199.1,103.6,195.6,96.3,191.9,89.8z"/>
		<path id="XMLID_2466_" class="st2" d="M142.1,132c0,3.5,0.6,6.9,1.7,10.1c-3.2-1.1-6.6-1.7-10.1-1.7c-12.4,0-23.2,7.3-28.2,17.8
			c-5.1-10.5-15.8-17.8-28.2-17.8c-3.5,0-6.9,0.6-10.1,1.7c1.1-3.2,1.7-6.6,1.7-10.1c0-12.4-7.3-23.1-17.8-28.2
			c10.5-5.1,17.8-15.8,17.8-28.2c0-3.5-0.6-6.9-1.7-10.1c3.2,1.1,6.6,1.7,10.1,1.7c12.4,0,23.2-7.3,28.2-17.8
			c5.1,10.5,15.8,17.8,28.2,17.8c3.5,0,6.9-0.6,10.1-1.7c-1.1,3.2-1.7,6.6-1.7,10.1c0,12.4,7.3,23.1,17.8,28.2
			C149.4,108.9,142.1,119.7,142.1,132z"/>
		<g id="XMLID_2449_">
			<path id="XMLID_2464_" class="st2" d="M175.1,76.9c9.4-0.3,13.2,6.4,16.8,12.9c3.7,6.6,7.1,13.8,16.1,13.8
				c-9.4,0-12.1,7.1-15.7,13.9c-3.5,6.6-7.9,13.3-17.2,13.3"/>
			<path id="XMLID_2462_" class="st2" d="M35.9,130.8c-9.3,0-13.7-6.8-17.2-13.3c-3.6-6.8-6.3-13.9-15.7-13.9
				c9,0,12.4-7.3,16.1-13.8c3.7-6.5,7.4-13.2,16.8-12.9"/>
			<path id="XMLID_2460_" class="st2" d="M78.5,34.4c-0.3-9.4,6.4-13.1,12.9-16.8c6.6-3.7,13.9-7.1,13.9-16.1
				c0,9.4,7.1,12.1,13.9,15.7c6.6,3.5,13.4,7.8,13.4,17.2"/>
			<path id="XMLID_2458_" class="st2" d="M132.5,173.3c0,9.3-6.8,13.7-13.4,17.2c-6.8,3.6-13.9,6.3-13.9,15.7
				c0-9-7.3-12.4-13.9-16.1c-6.5-3.6-13.2-7.4-12.9-16.8"/>
			<path id="XMLID_2456_" class="st2" d="M134.9,35.9c6.4-6.8,13.9-4.8,21-2.8c7.3,2,14.8,4.7,21.2-1.6c-6.6,6.6-3.6,13.6-1.3,20.9
				c2.2,7.1,3.9,15-2.7,21.6"/>
			<path id="XMLID_2454_" class="st2" d="M76,171.9c-6.6,6.6-14.5,4.9-21.6,2.7c-7.3-2.3-14.3-5.3-21,1.3c6.3-6.3,3.6-13.9,1.6-21.2
				c-2-7.2-4.1-14.6,2.8-21"/>
			<path id="XMLID_2452_" class="st2" d="M37.8,74c-6.6-6.6-4.9-14.5-2.7-21.6c2.3-7.3,5.4-14.3-1.3-20.9c6.3,6.3,13.9,3.6,21.2,1.6
				c7.2-2,14.6-4.1,21,2.8"/>
			<path id="XMLID_2450_" class="st2" d="M173.6,133.2c6.9,6.4,4.8,13.8,2.8,21c-2,7.2-4.7,14.8,1.6,21.2c-6.6-6.6-13.6-3.6-21-1.3
				c-7.1,2.2-15,3.9-21.6-2.7"/>
		</g>
		<path id="XMLID_2448_" class="st3" d="M118.4,80.9C118.5,80.9,118.5,80.9,118.4,80.9c0.9,1.7,1.7,2.9,2.4,4.5h-10.4v9
			c-0.3,0-0.5,0-0.7,0c-4,0-7.9,0-11.9,0c-1.3,0-2.2,1.2-2.4,2.1c-0.1,0.9-0.1,1.8,0.5,2.5c0.5,0.7,1.1,1.1,1.9,1.1
			c1.1,0.1,2.2-0.1,3.3-0.3c1.3-0.2,2.5-0.4,3.8-0.5c2-0.2,3.8,0.3,5.5,1.4c1.8,1.2,2.8,3,3.1,5.1c0.2,1.7,0,3.5-0.7,5.1
			c-0.4,0.9-0.9,1.8-1.6,2.5c-0.7,0.6-1.3,1.4-2.1,1.9c-1.1,0.8-2.3,1.3-3.6,1.6c-1,0.2-1.9,0.2-2.9,0.4c-0.1,0-0.3,0.1-0.5,0.1
			c1.7,2.7,3.3,5.4,4.9,8.1c-0.4,0.3-0.8,0.5-1.2,0.8c-1.3,0.9-3.1,0.5-3.9-0.9c0,0,0,0,0,0c-1.3-2.4-2.7-4.8-4-7.2
			c-0.2-0.3-0.4-0.7-0.5-1c-0.1-0.3-0.3-0.4-0.5-0.4c-1.8-0.4-3.2-1.6-4.5-2.8c-0.4-0.4-0.7-0.8-1-1.2c-0.1-0.1-0.1-0.3,0-0.4
			c0.9-1,1.9-2,2.9-3c0.8,1,1.6,1.8,2.6,2.4c1,0.6,2.1,1.1,3.3,1.3c0.9,0.1,1.8,0,2.8-0.1c0.9-0.1,1.8-0.3,2.6-0.5
			c1.9-0.5,3.3-1.7,3.8-3.7c0.4-1.6,0.2-3.2-1.3-4.3c-0.8-0.6-1.7-0.9-2.7-0.7c-1.4,0.2-2.9,0.5-4.3,0.7c-2.1,0.3-4.2,0.2-6.2-0.9
			c-1.9-1-3-2.6-3.4-4.6c-0.4-2.1-0.2-4.1,1-6c0.8-1.3,2-2.1,3.4-2.5c0.4-0.1,1.2-0.2,1.6-0.2c2.7,0,5.4,0,8.1,0c0.2,0,0.3,0,0.5,0
			c0-1.6,0-3.1,0-4.7H92.5c0-0.4-2.4-4.5-2.4-4.5S118.3,80.9,118.4,80.9z"/>
		<ellipse id="XMLID_2447_" class="st2" cx="105.5" cy="103.9" rx="73.7" ry="73.8"/>
		<ellipse id="XMLID_2446_" class="st2" cx="105.5" cy="103.9" rx="60.2" ry="60.3"/>
		<ellipse id="XMLID_2445_" class="st4" cx="105.5" cy="103.9" rx="67.1" ry="67.2"/>
	</g>
</g>
</svg>
