<?xml version="1.0" encoding="utf-8"?>
<!-- Generator: Adobe Illustrator 21.1.0, SVG Export Plug-In . SVG Version: 6.00 Build 0)  -->
<svg version="1.1" id="Layer_1" xmlns="http://www.w3.org/2000/svg" xmlns:xlink="http://www.w3.org/1999/xlink" x="0px" y="0px"
	 viewBox="0 0 182 182" style="enable-background:new 0 0 182 182;" xml:space="preserve">
<style type="text/css">
	.st0{fill:#FFF0CD;}
	.st1{fill:#FFFFE6;}
	.st2{fill:none;stroke:#F49782;stroke-width:3;stroke-linecap:round;stroke-linejoin:round;stroke-miterlimit:10;}
	
		.st3{fill:none;stroke:#F49782;stroke-width:3;stroke-linecap:round;stroke-linejoin:round;stroke-miterlimit:10;stroke-dasharray:0.25,10;}
	.st4{fill:#F49782;}
</style>
<g id="XMLID_11_">
	<path id="XMLID_1508_" class="st0" d="M113.3,152.8c-0.3,7.6-5.9,11-11.4,13.7c-5.5,2.8-11.5,4.8-11.8,12.5
		c0.3-7.4-5.5-10.3-10.9-13.5c-4.9-3-10.2-6.1-10.2-13c0-0.3-0.3-1.1,0-1C89.6,161.1,113.3,152.8,113.3,152.8z"/>
	<path id="XMLID_1506_" class="st0" d="M71,29.4c-0.3,0.1,0-0.7,0-1c0.5-6.9,5.9-9.6,11.1-12.3c5.4-2.8,11.5-5.4,11.9-12.7
		c-0.3,7.6,5.4,10.2,10.9,13.3c5.3,3,10.7,6.9,10.4,14.5C115,31.2,92.1,21.2,71,29.4z"/>
	<path id="XMLID_1504_" class="st0" d="M116.4,31.9c-0.3-0.2,0.5-0.4,0.8-0.7c5.3-4.5,11-2.7,16.5-0.9c5.9,1.8,12,4.3,17.5-0.6
		c-5.5,5.2-3.4,11-1.7,17.1c1.6,5.9,2.7,12.4-3,17.5C146.5,64.5,137.1,41.3,116.4,31.9z"/>
	<path id="XMLID_1472_" class="st0" d="M152.3,68.5c-0.1-0.3,0.7,0,1,0c6.9,0.4,9.8,5.7,12.5,10.9c2.9,5.4,5.5,11.5,12.8,11.6
		c-7.7-0.2-10.1,5.5-13.2,11c-3,5.3-6.7,10.8-14.4,10.6C151.2,112.7,160.9,89.5,152.3,68.5z"/>
	<path id="XMLID_1470_" class="st0" d="M151,117.5c0.1-0.3,0.5,0.4,0.7,0.7c4.8,5.1,3.1,10.9,1.6,16.4c-1.6,5.9-3.9,12.2,1.3,17.4
		c-5.4-5.3-11.2-2.9-17.2-1c-5.8,1.8-12.3,3.2-17.7-2.2C119.8,148.7,142.8,138.6,151,117.5z"/>
	<path id="XMLID_1468_" class="st0" d="M34.5,64.8c-5.5-5.2-4.5-11.7-3-17.5c1.6-6.1,3.9-11.9-1.7-17.1c5.4,4.9,11.5,2.5,17.5,0.6
		c5.5-1.8,11.3-3.6,16.5,0.9c0.3,0.2,1,0.5,0.8,0.7C43.7,41.6,34.5,64.8,34.5,64.8z"/>
	<path id="XMLID_1466_" class="st0" d="M29.7,114.9c-7.6,0.2-11.4-5.3-14.4-10.6c-3-5.4-5.4-11.3-13.2-11
		c7.4-0.2,10.1-6.2,12.8-11.6c2.7-5.1,5.5-10.4,12.5-10.9c0.3,0,1.1-0.3,1,0C20.1,91.9,29.7,114.9,29.7,114.9z"/>
	<path id="XMLID_1464_" class="st0" d="M63.9,151.8c-5.4,5.3-11.9,4-17.7,2.2c-6-1.8-11.7-4.4-17.2,1c5.2-5.2,3-11.4,1.3-17.4
		c-1.6-5.5-3.2-11.4,1.6-16.4c0.3-0.3,0.6-1,0.7-0.7C41.1,141.7,63.9,151.8,63.9,151.8z"/>
	<path id="XMLID_1463_" class="st1" d="M85.6,132.8c-26.3,0-47.6-21.3-47.6-47.5S59.3,38,85.6,38c0,0-32.4,14.5-30.6,48.5
		C57,121.2,85.6,132.8,85.6,132.8z"/>
	<path id="XMLID_1462_" class="st2" d="M166.7,78.7c-3.2-5.5-6.5-11.5-14.8-11.3l-1.7-2.5c5.8-5.8,4.3-12.6,2.3-18.8
		c-2-6.4-4.7-12.5,1.1-18.3c-5.5,5.5-12.2,3.2-18.6,1.4c-6.3-1.7-12.7-3.6-18.4,2.4l0.2,0.2c-1.2-0.5-2.3-1.5-2.3-1.5
		c0-8.2-6-12-11.7-15c-6-3.1-12.2-5.5-12.2-13.7c0,7.8-6.4,10.9-12.2,14.1c-5.5,3.2-11.5,6.5-11.3,14.7c0,0-1.1,0.9-2.3,1.4l0.1-0.1
		c-5.5-6-12.2-4.2-18.4-2.4c-6.3,1.7-12.9,4.2-18.6-1.4c5.8,5.8,3.1,11.9,1.1,18.3c-1.8,6.2-3.4,12.9,2.3,18.8
		c-0.6,1.3-1.6,2.6-1.6,2.6c-8.2-0.3-11.5,5.5-14.8,11.3c-3,5.5-6,11.9-13.9,11.9c8.2,0,10.7,6.3,13.8,12.2
		c3,5.7,6.9,11.6,15.1,11.6c0,0,1,1.3,1.6,2.6c-5.9,5.5-4.1,12.1-2.3,18.2c1.7,6.3,4.2,12.8-1.4,18.5c5.8-5.8,11.9-3.1,18.4-1.1
		c6.3,1.8,13,3.4,18.9-2.3l-0.1-0.1c1.1,0.5,2.2,1.4,2.2,1.4c-0.3,8.2,5.5,11.5,11.3,14.7c5.7,3.2,12.2,6.3,12.2,14.1
		c0-8.2,6.3-10.6,12.2-13.7c5.7-3,11.7-6.9,11.7-15c0,0,1.3-1,2.6-1.6c5.7,5.5,12.6,4.2,18.8,2.3c6.4-2,12.5-4.7,18.4,1.1
		c-5.5-5.5-3.2-12.2-1.4-18.5c1.7-6.3,3.6-12.7-2.4-18.3l1.3-2.1c8.2,0,12.1-5.9,15.1-11.6c3.1-5.9,5.5-12.2,13.8-12.2
		C173,90.7,170,84.4,166.7,78.7z"/>
	<ellipse id="XMLID_1461_" class="st2" cx="91.1" cy="91" rx="64.5" ry="64.4"/>
	<g id="XMLID_1023_">
		<path id="XMLID_1459_" class="st2" d="M152,67.5c8.2-0.3,11.5,5.5,14.8,11.3c3.2,5.7,6.3,12.1,14.2,12.1
			c-8.2,0-10.7,6.3-13.8,12.2c-3,5.7-6.9,11.6-15.1,11.6"/>
		<path id="XMLID_1455_" class="st2" d="M30.2,114.5c-8.2,0-12.1-5.9-15.1-11.6c-3.2-5.9-5.5-12.2-13.9-12.2
			c7.9,0,10.9-6.3,14.2-12.1c3.2-5.5,6.5-11.5,14.8-11.3"/>
		<path id="XMLID_1453_" class="st2" d="M67.5,30.2C67.2,22,73,18.7,78.8,15.5C84.4,12.3,91,9.2,91,1.4c0,8.2,6.3,10.6,12.2,13.7
			c5.7,3,11.7,6.9,11.7,15"/>
		<path id="XMLID_1451_" class="st2" d="M114.7,151.7c0,8.2-6,12-11.7,15c-6,3.1-12.2,5.5-12.2,13.7c0-7.8-6.4-10.9-12.2-14.1
			c-5.5-3.2-11.5-6.5-11.3-14.7"/>
		<path id="XMLID_1449_" class="st2" d="M116.9,31.5c5.5-6,12.2-4.2,18.4-2.4c6.3,1.7,12.9,4.2,18.6-1.4c-5.8,5.8-3.1,11.9-1.1,18.3
			c1.8,6.2,3.4,13-2.3,18.8"/>
		<path id="XMLID_1445_" class="st2" d="M65.3,150.4c-5.8,5.8-12.7,4.3-18.9,2.3c-6.4-2-12.5-4.7-18.4,1.1
			c5.5-5.5,3.2-12.2,1.4-18.5c-1.7-6.3-3.6-12.7,2.4-18.3"/>
		<path id="XMLID_1197_" class="st2" d="M31.8,64.9C26.1,59,27.4,52.3,29.5,46c2-6.4,4.7-12.5-1.1-18.3c5.5,5.5,12.2,3.2,18.6,1.4
			c6.3-1.7,12.7-3.6,18.4,2.4"/>
		<path id="XMLID_1167_" class="st2" d="M150.6,116.7c6,5.5,4.2,12.1,2.4,18.3c-1.7,6.3-4.2,12.8,1.4,18.5
			c-5.8-5.8-11.9-3.1-18.4-1.1c-6.3,1.8-13,3.4-18.9-2.3"/>
	</g>
	<ellipse id="XMLID_1005_" class="st2" cx="91.1" cy="91" rx="52.7" ry="52.7"/>
	<ellipse id="XMLID_608_" class="st3" cx="91.1" cy="91" rx="58.8" ry="58.8"/>
	<polygon id="XMLID_501_" class="st2" points="89.7,38.6 45.8,117.4 136.4,117.4 	"/>
	<polygon id="XMLID_500_" class="st2" points="89.7,143.3 45.8,64.6 136.4,64.6 	"/>
	<path id="XMLID_88_" class="st4" d="M99.6,103.1c-1.6,0-2.8-1.2-2.8-2.8c0-2.2,0-4.8,0-6.2c0-0.2,0-0.3,0-0.4
		c-1.1,0.8-2.3,1.6-3.4,2.3c-0.1,0.7-0.1,1.6-0.3,2.3c-0.6,2.7-2.8,4.4-5.5,4.5c-2.2,0.1-4.1-0.7-5.8-2c-2.3-1.6-3.9-3.9-5.3-6.3
		c-0.4-0.8-0.9-1.6-1.3-2.3c-0.3-0.3-0.2-0.6,0.2-0.9c0.2-0.1,0.3-0.3,0.4-0.4c1.1,1,2.1,2.1,2.8,3.4c1.2,2.3,2.9,4,5.2,5.1
		c1.6,0.7,3.1,0.7,4.7,0.1c1-0.3,1.6-1.1,2-2.2c0.5-1.7,0.6-3.4-0.4-4.9c-0.5-0.9-1.4-1.1-2.3-1.3c-0.2,0-0.3,0.1-0.4,0.1
		c-0.2,0.1-0.3,0.1-0.5,0.2c-1,0.3-1.7,0.3-2.3-0.6c-0.3-0.4-0.8-0.7-1.1-1c0.4-0.6,0.9-1,1.5-1c2.1-0.3,5.1-3.5,3.7-6.3
		c-0.6-1.2-2-1.8-3.3-1.8c-0.4,0-0.9,0.1-1.4,0.1c-1,0.1-1.6,0.8-2.3,1.6c-0.3,0.3-0.6,0.7-1,1.1c-0.6-0.7-1.2-1.3-1.7-1.8
		c-0.1-0.2-0.1-0.6,0.1-0.9c0.5-1,1.3-1.6,2.3-2.1c3-1.6,6.2-0.5,8.4,1.8c0.9,1,1.6,2,1.8,3.3c0.5,2,0,3.7-1.2,5.3
		c-0.1,0.1-0.2,0.2-0.3,0.3v0.1c1.1,0.9,2.2,1.8,2.9,3.2c2-1.2,3.7-2.6,4.3-4.9c0.1-0.4,0.1-0.9,0.1-1.3c0-1.8,0-3.6,0-5.4h-4.7
		L91,78h13.5l1.8,2.8c-1.4-0.1-4.5,0-5.9,0c-0.4,0-0.5,0.1-0.5,0.5C99.6,88,99.6,96.4,99.6,103.1L99.6,103.1z"/>
</g>
</svg>
