<?xml version="1.0" encoding="utf-8"?>
<!-- Generator: Adobe Illustrator 21.1.0, SVG Export Plug-In . SVG Version: 6.00 Build 0)  -->
<svg version="1.1" id="Branding" xmlns="http://www.w3.org/2000/svg" xmlns:xlink="http://www.w3.org/1999/xlink" x="0px" y="0px"
	 viewBox="0 0 182 182" style="enable-background:new 0 0 182 182;" xml:space="preserve">
<style type="text/css">
	.st0{fill:#FFF0CD;}
	.st1{fill:#FFFFE6;}
	.st2{fill:none;stroke:#F49782;stroke-width:3;stroke-linecap:round;stroke-linejoin:round;stroke-miterlimit:10;}
	.st3{fill:#F49782;}
</style>
<g id="XMLID_2351_">
	<path id="XMLID_2428_" class="st0" d="M112.2,152.9c-0.3,8.2-6.3,11.8-12.1,14.7c-6.1,2.9-12.3,5.1-12.6,13.4
		c0.3-7.8-6-11-11.7-14.5c-5.3-3.2-10.8-6.5-10.8-14c0-0.3-0.3-1.2,0-1C87,161.6,112.2,152.9,112.2,152.9z"/>
	<path id="XMLID_2426_" class="st0" d="M70,29c-0.3,0.2,0-0.7,0.1-1c0.5-7.4,6.2-10.4,11.8-13.3c5.9-3,12.3-5.7,12.7-13.6
		c-0.3,8.2,5.8,10.8,11.6,14.2c5.6,3.2,11.5,7.3,11.1,15.4C117.3,30.8,92.7,20.3,70,29z"/>
	<path id="XMLID_2424_" class="st0" d="M118.6,31.8c-0.3-0.2,0.5-0.5,0.8-0.7c5.6-4.9,11.8-2.9,17.7-1c6.2,2,12.8,4.7,18.6-0.6
		c-6.1,5.6-3.6,11.8-1.9,18.2c1.6,6.2,2.9,13.3-3.1,18.7C150.7,66.5,140.7,41.7,118.6,31.8z"/>
	<path id="XMLID_2422_" class="st0" d="M152.5,68.6c-0.2-0.3,0.7,0,1,0c7.5,0.4,10.4,6.2,13.4,11.6c3.1,5.8,6,12.2,13.8,12.5
		c-8.2-0.2-10.8,6-14.1,11.8c-3.2,5.6-7.2,11.5-15.4,11.3C151.4,115.8,161.6,91.1,152.5,68.6z"/>
	<path id="XMLID_2420_" class="st0" d="M149.5,118.8c0.2-0.3,0.5,0.5,0.8,0.8c5.1,5.6,3.4,11.6,1.6,17.6c-1.7,6.3-4.2,13,1.4,18.5
		c-5.8-5.8-11.9-3.1-18.4-1.1c-6.2,1.9-13.1,3.4-18.9-2.3C116.2,152.2,140.6,141.2,149.5,118.8z"/>
	<path id="XMLID_2418_" class="st0" d="M31,66.9c-6-5.6-4.8-12.5-3.1-18.7c1.7-6.5,4.2-12.7-1.9-18.2c5.8,5.3,12.3,2.7,18.6,0.6
		c5.9-1.9,12.1-3.9,17.7,1c0.3,0.3,1.1,0.6,0.8,0.7C41,42.1,31,66.9,31,66.9z"/>
	<path id="XMLID_2416_" class="st0" d="M30.4,116.2c-8.2,0.2-12.1-5.6-15.4-11.3C11.7,99,9.2,92.7,1,93.1
		c7.9-0.2,10.7-6.6,13.8-12.5c2.9-5.6,5.9-11.2,13.4-11.6c0.3,0,1.2-0.3,1,0C20.1,91.4,30.4,116.2,30.4,116.2z"/>
	<path id="XMLID_2414_" class="st0" d="M63.9,148.8c-5.8,5.8-12.8,4.3-18.9,2.3c-6.4-2-12.5-4.7-18.4,1.1c5.6-5.6,3.2-12.1,1.4-18.5
		c-1.6-6-3.4-12.1,1.6-17.6c0.3-0.3,0.6-1.1,0.8-0.8C39.5,137.9,63.9,148.8,63.9,148.8z"/>
	<path id="XMLID_2413_" class="st1" d="M85.8,139.8c-28,0-50.8-22.7-50.8-50.7s22.7-50.7,50.8-50.7c0,0-34.6,15.5-32.6,51.9
		C55.3,127.2,85.8,139.8,85.8,139.8z"/>
	<path id="XMLID_2412_" class="st2" d="M166.8,78.4c-3.2-5.6-6.5-11.5-14.7-11.3l-1.7-2.5c5.8-5.8,4.3-12.7,2.3-18.9
		c-2-6.4-4.7-12.5,1.1-18.3c-5.6,5.6-12.2,3.2-18.6,1.4c-6.2-1.7-12.8-3.6-18.4,2.4l0.2,0.2c-1.2-0.5-2.3-1.5-2.3-1.5
		c0-8.2-6-12-11.7-15c-6-3.1-12.1-5.6-12.1-13.8c0,7.8-6.4,10.8-12.1,14.1c-5.6,3.2-11.5,6.5-11.3,14.7c0,0-1.1,0.9-2.3,1.4l0.1-0.1
		c-5.4-6-12-4.2-18.3-2.4c-6.3,1.7-13,4.2-18.6-1.4c5.8,5.8,3.1,11.9,1.1,18.3c-1.9,6.2-3.3,13.2,2.4,18.9c-0.6,1.2-1.6,2.5-1.6,2.5
		c-8.2-0.3-11.5,5.6-14.7,11.3C12.2,84,9.2,90.6,1.3,90.6c8.2,0,10.7,6.2,13.8,12.1c3,5.7,6.9,11.7,15.1,11.7c0,0,1,1.3,1.6,2.6
		c-5.9,5.6-4.1,12.1-2.3,18.3c1.7,6.3,4.2,13-1.4,18.6c5.8-5.8,11.9-3.1,18.4-1.1c6.2,1.9,13.1,3.4,18.9-2.3l-0.1-0.1
		c1.1,0.5,2.2,1.4,2.2,1.4c-0.3,8.2,5.6,11.5,11.3,14.7c5.8,3.2,12.1,6.2,12.1,14.1c0-8.2,6.2-10.6,12.1-13.8
		c5.7-3,11.7-6.9,11.7-15c0,0,1.3-1,2.6-1.6c5.7,5.6,12.7,4.2,18.8,2.3c6.4-2,12.6-4.7,18.4,1.1c-5.6-5.6-3.2-12.1-1.4-18.6
		c1.7-6.2,3.6-12.8-2.4-18.4l1.3-2.1c8.2,0,12.1-5.9,15.1-11.7c3.1-6,5.6-12.1,13.8-12.1C173.2,90.6,170,84.1,166.8,78.4z"/>
	<path id="XMLID_2410_" class="st2" d="M152.1,67.2c8.2-0.3,11.5,5.6,14.7,11.3c3.2,5.8,6.2,12.1,14.1,12.1
		c-8.2,0-10.7,6.2-13.8,12.1c-3,5.7-6.9,11.7-15.1,11.7"/>
	<path id="XMLID_2408_" class="st2" d="M30.3,114.3c-8.2,0-12.1-5.9-15.1-11.7c-3.1-6-5.6-12.1-13.8-12.1c7.9,0,10.8-6.3,14.1-12.1
		C18.7,72.7,22,66.7,30.3,67"/>
	<path id="XMLID_2406_" class="st2" d="M67.5,29.9c-0.3-8.2,5.6-11.5,11.3-14.6c5.7-3.2,12.1-6.2,12.1-14.1
		c0,8.2,6.2,10.6,12.1,13.8c5.7,3,11.7,6.9,11.7,15"/>
	<path id="XMLID_2404_" class="st2" d="M114.9,151.7c0,8.2-6,12-11.7,15c-6,3.1-12.1,5.6-12.1,13.8c0-7.8-6.4-10.8-12.1-14.1
		c-5.6-3.2-11.5-6.5-11.3-14.7"/>
	<path id="XMLID_2402_" class="st2" d="M117,31.2c5.6-6,12.1-4.2,18.4-2.4c6.3,1.7,13,4.2,18.6-1.4c-5.8,5.8-3.1,11.9-1.1,18.3
		c1.9,6.2,3.4,13.1-2.3,18.9"/>
	<path id="XMLID_2400_" class="st2" d="M65.5,150.3c-5.8,5.8-12.8,4.3-18.9,2.3c-6.4-2-12.6-4.7-18.4,1.1c5.6-5.6,3.2-12.1,1.4-18.6
		c-1.7-6.2-3.6-12.8,2.4-18.4"/>
	<path id="XMLID_2398_" class="st2" d="M31.9,64.6c-5.8-5.8-4.3-12.7-2.4-18.9c2-6.4,4.7-12.5-1.1-18.3c5.6,5.6,12.2,3.2,18.6,1.4
		c6.2-1.7,12.8-3.6,18.4,2.4"/>
	<path id="XMLID_2396_" class="st2" d="M150.9,116.5c6,5.6,4.2,12.1,2.4,18.4c-1.7,6.3-4.2,13,1.4,18.6c-5.8-5.8-11.9-3.1-18.4-1.1
		c-6.2,1.9-13.1,3.4-18.9-2.3"/>
	<path id="XMLID_2392_" class="st3" d="M103.8,73H76.7l1.9,3.6h17.9v4c0,0-9.5-1.6-13,2.9c-2.8,3.6-1.9,12.8,2.5,15.7
		c4.3,2.9,9.4,1.4,9.4,1.4c0.4,0,0.9,0,1.2,0v4.1c0,2.1,1.6,3.7,3.7,3.7l0,0V104V93.2v-0.3v-9.5c0-0.1,0-0.2,0-0.3v-6.5h5.7
		L103.8,73z M96.2,84.7V96l-8.3-10.3C90.9,83.5,96.2,84.7,96.2,84.7z M85.5,91.5c-0.3-2.1,0.2-3.6,0.9-4.6l8.1,10.2
		C91.8,97.9,86.3,98.3,85.5,91.5z"/>
	<path id="XMLID_2355_" class="st3" d="M91.3,32.4l0.5,1.5l1.6,0.1l-1.2,1l0.4,1.5l-1.3-1l-1.3,0.9l0.4-1.5l-1.2-1l1.6-0.1
		L91.3,32.4L91.3,32.4z M101.3,33.3l0.3,1.5l1.5,0.3l-1.4,0.7l0.2,1.6l-1.1-1L99.5,37l0.7-1.4l-1-1.1l1.6,0.3L101.3,33.3L101.3,33.3
		z M111.2,35.9v1.6l1.5,0.6l-1.5,0.4l-0.1,1.6l-0.9-1.2l-1.5,0.3l0.9-1.2l-0.8-1.3l1.5,0.4L111.2,35.9L111.2,35.9z M120.5,40.2
		l-0.3,1.5l1.3,0.9l-1.5,0.2l-0.3,1.5l-0.7-1.4l-1.6,0.1l1.1-1l-0.6-1.5l1.4,0.7L120.5,40.2L120.5,40.2z M128.8,46.1l-0.5,1.5l1.1,1
		l-1.6-0.1l-0.6,1.4l-0.4-1.5l-1.6-0.2l1.3-0.9l-0.3-1.5l1.2,1L128.8,46.1L128.8,46.1z M136,53.3l-0.8,1.3l1,1.2l-1.5-0.3l-0.9,1.3
		l-0.2-1.6l-1.5-0.4l1.4-0.6l-0.1-1.6l1,1.1L136,53.3L136,53.3z M141.8,61.6l-1,1.2l0.7,1.4l-1.4-0.6l-1,1.1l0.1-1.6l-1.4-0.7
		l1.5-0.3l0.3-1.6l0.8,1.3L141.8,61.6L141.8,61.6z M146.2,70.9l-1.2,1l0.4,1.5l-1.3-0.8l-1.2,0.9l0.4-1.5l-1.2-1l1.6-0.1l0.5-1.5
		l0.6,1.4L146.2,70.9L146.2,70.9z M148.8,80.6l-1.3,0.8l0.2,1.6l-1.1-1l-1.4,0.7l0.6-1.4l-1-1.1l1.6,0.2l0.7-1.4l0.3,1.5L148.8,80.6
		L148.8,80.6z M149.6,90.7l-1.5,0.5l-0.1,1.6l-1-1.2l-1.5,0.4l0.9-1.3l-0.9-1.3l1.5,0.4l1-1.2l0.1,1.6L149.6,90.7L149.6,90.7z
		 M148.8,100.9l-1.5,0.3l-0.3,1.5l-0.7-1.4l-1.6,0.2l1-1.1l-0.6-1.4l1.4,0.7l1.1-1l-0.2,1.5L148.8,100.9L148.8,100.9z M146.2,110.7
		h-1.6l-0.6,1.5l-0.4-1.5l-1.6-0.1l1.2-0.9l-0.3-1.5l1.2,0.9l1.3-0.8l-0.5,1.5L146.2,110.7L146.2,110.7z M141.8,120l-1.5-0.3
		l-0.9,1.3l-0.2-1.5l-1.5-0.3l1.4-0.7l-0.1-1.6l1,1.1l1.5-0.6l-0.7,1.4L141.8,120L141.8,120z M136,128.3l-1.5-0.5l-1,1.1l0.1-1.6
		l-1.4-0.6l1.5-0.4l0.2-1.6l0.9,1.3l1.6-0.3l-1,1.2L136,128.3L136,128.3z M128.8,135.5l-1.3-0.8l-1.2,1l0.3-1.5l-1.3-0.9l1.6-0.2
		l0.4-1.5l0.6,1.4l1.6-0.1l-1.1,1L128.8,135.5L128.8,135.5z M120.5,141.3l-1.2-1l-1.4,0.7l0.6-1.4l-1.1-1l1.6,0.1l0.7-1.4l0.3,1.5
		l1.6,0.3l-1.3,0.8L120.5,141.3L120.5,141.3z M111.2,145.7l-1-1.2l-1.5,0.4l0.8-1.3l-0.9-1.2l1.5,0.3l1-1.2l0.1,1.6l1.5,0.5
		l-1.4,0.6L111.2,145.7L111.2,145.7z M101.3,148.3l-0.8-1.3l-1.6,0.2l1-1.1l-0.7-1.4l1.4,0.6l1.1-1l-0.2,1.6l1.4,0.7l-1.5,0.3
		L101.3,148.3L101.3,148.3z M91.3,149.1l-0.5-1.5l-1.6-0.1l1.2-1l-0.4-1.5l1.3,0.9l1.3-0.9l-0.4,1.5l1.2,1l-1.6,0.1L91.3,149.1
		L91.3,149.1z M81.1,148.3l-0.3-1.5l-1.5-0.3l1.4-0.7l-0.2-1.6l1.1,1l1.4-0.6l-0.7,1.4l1,1.1l-1.6-0.3L81.1,148.3L81.1,148.3z
		 M71.1,145.7v-1.5l-1.5-0.6l1.5-0.4l0.1-1.6l0.9,1.2l1.5-0.3l-0.9,1.2l0.8,1.3l-1.5-0.5L71.1,145.7L71.1,145.7z M62,141.3l0.3-1.5
		l-1.3-0.9l1.5-0.2l0.3-1.5l0.7,1.4l1.6-0.1l-1.1,1l0.6,1.5l-1.4-0.7L62,141.3L62,141.3z M53.6,135.5l0.5-1.5l-1.1-1l1.6,0.1
		l0.6-1.4l0.4,1.5l1.6,0.2l-1.3,0.9l0.3,1.6l-1.2-1L53.6,135.5L53.6,135.5z M46.3,128.3l0.8-1.3l-1-1.2l1.5,0.3l0.9-1.3l0.2,1.6
		l1.5,0.4l-1.4,0.6v1.6l-1-1.1L46.3,128.3L46.3,128.3z M40.6,120l1-1.2l-0.7-1.3l1.4,0.6l1-1.1l-0.1,1.6l1.4,0.7l-1.5,0.3l-0.3,1.6
		l-0.8-1.3L40.6,120L40.6,120z M36.3,110.7l1.2-1l-0.4-1.5l1.3,0.8l1.3-0.9l-0.4,1.6l1.2,1l-1.6,0.1l-0.5,1.5l-0.6-1.4L36.3,110.7
		L36.3,110.7z M33.7,100.9L35,100l-0.3-1.5l1.1,1l1.4-0.7l-0.6,1.4l1,1.1l-1.6-0.2l-0.7,1.4l-0.3-1.5L33.7,100.9L33.7,100.9z
		 M32.8,90.7l1.5-0.5l0.1-1.6l1,1.2l1.5-0.4l-1,1.3l0.9,1.3l-1.5-0.4l-1,1.2v-1.5L32.8,90.7L32.8,90.7z M33.7,80.6l1.5-0.3l0.3-1.5
		l0.7,1.4l1.6-0.2l-1,1.1l0.6,1.4l-1.4-0.7l-1.1,1l0.2-1.5L33.7,80.6L33.7,80.6z M36.3,70.9h1.5l0.6-1.5l0.4,1.5l1.6,0.1l-1.2,1
		l0.3,1.5l-1.2-0.9L37,73.4l0.4-1.4L36.3,70.9L36.3,70.9z M40.6,61.6l1.5,0.3l0.9-1.3l0.2,1.6l1.5,0.3l-1.4,0.7v1.5l-1-1.1l-1.5,0.6
		l0.7-1.4L40.6,61.6L40.6,61.6z M46.3,53.3l1.5,0.5l1-1.1l-0.1,1.6l1.4,0.6l-1.5,0.4L48.5,57l-0.9-1.3l-1.6,0.3l1-1.2L46.3,53.3
		L46.3,53.3z M53.6,46.1l1.3,0.8l1.2-1l-0.3,1.5l1.3,0.9l-1.5,0.2l-0.4,1.3l-0.6-1.3L53,48.6l1.1-1L53.6,46.1L53.6,46.1z M62,40.2
		l1.2,1l1.4-0.7L64,42l1.1,1.1l-1.6-0.2l-0.7,1.4l-0.3-1.5l-1.6-0.3l1.4-0.8L62,40.2L62,40.2z M71.1,35.9l1,1.2l1.5-0.4l-0.8,1.3
		l0.9,1.2L72.2,39l-1,1.2v-1.6l-1.5-0.5l1.4-0.6V35.9L71.1,35.9z M81.1,33.3l0.8,1.3l1.6-0.2l-1,1.1l0.7,1.4l-1.5-0.8l-1.1,1
		l0.2-1.6L79.2,35l1.5-0.3L81.1,33.3z"/>
	<ellipse id="XMLID_2354_" class="st2" cx="91.3" cy="90.7" rx="46.2" ry="24.5"/>
	<ellipse id="XMLID_2353_" class="st2" cx="91.3" cy="90.7" rx="48" ry="48"/>
	<ellipse id="XMLID_2352_" class="st2" cx="91.3" cy="90.7" rx="64.5" ry="64.5"/>
</g>
</svg>
