<?xml version="1.0" encoding="utf-8"?>
<!-- Generator: Adobe Illustrator 21.1.0, SVG Export Plug-In . SVG Version: 6.00 Build 0)  -->
<svg version="1.1" id="Layer_1" xmlns="http://www.w3.org/2000/svg" xmlns:xlink="http://www.w3.org/1999/xlink" x="0px" y="0px"
	 viewBox="0 0 182 182" style="enable-background:new 0 0 182 182;" xml:space="preserve">
<style type="text/css">
	.st0{fill:#FFF0CD;}
	.st1{fill:#FFFFE6;}
	.st2{fill:none;stroke:#F49782;stroke-width:3;stroke-linecap:round;stroke-linejoin:round;stroke-miterlimit:10;}
	.st3{fill:#F49782;}
</style>
<g id="XMLID_2506_">
	<path id="XMLID_2745_" class="st0" d="M113.2,153c-0.3,7.6-5.9,11-11.4,13.7c-5.7,2.8-11.5,4.7-11.8,12.5
		c0.3-7.4-5.7-10.3-10.9-13.6c-4.9-3.1-10.2-6.1-10.2-13c0-0.3-0.3-1.1,0-1C89.5,161.1,113.2,153,113.2,153z"/>
	<path id="XMLID_2743_" class="st0" d="M70.8,29.6c-0.3,0.1,0-0.7,0-1c0.5-7,5.9-9.7,11.1-12.3c5.4-2.8,11.5-5.3,11.9-12.7
		c-0.3,7.6,5.4,10.2,10.9,13.3c5.2,3.1,10.7,6.9,10.4,14.5C115,31.2,91.9,21.3,70.8,29.6z"/>
	<path id="XMLID_2741_" class="st0" d="M121.2,32.8c-0.3-0.2,0.5-0.4,0.8-0.7c5.2-4.5,11-2.7,16.5-0.8c5.9,2,11.9,4.3,17.5-0.6
		c-5.7,5.2-3.4,11-1.7,17.1c1.5,5.9,2.7,12.4-3,17.6C151.2,65.2,142,42,121.2,32.8z"/>
	<path id="XMLID_2739_" class="st0" d="M152.1,68.6c-0.1-0.3,0.7,0,1,0c7,0.4,9.8,5.8,12.5,10.9c2.9,5.4,5.5,11.4,12.9,11.6
		c-7.7-0.2-10.1,5.5-13.2,11c-3,5.2-6.7,10.8-14.4,10.6C151.1,112.7,160.7,89.7,152.1,68.6z"/>
	<path id="XMLID_2737_" class="st0" d="M150.9,117.6c0.1-0.3,0.5,0.4,0.7,0.7c4.7,5.1,3.1,10.9,1.5,16.4c-1.6,5.9-3.9,12.1,1.3,17.4
		c-5.4-5.3-11.2-2.9-17.2-1c-5.9,1.8-12.3,3.2-17.7-2.2C119.7,148.7,142.6,138.7,150.9,117.6z"/>
	<path id="XMLID_2735_" class="st0" d="M34.3,64.9c-5.7-5.2-4.5-11.7-3-17.6c1.6-6.1,3.9-11.9-1.7-17.1c5.3,4.9,11.5,2.5,17.5,0.6
		c5.5-1.8,11.3-3.6,16.5,0.8c0.3,0.2,1,0.5,0.8,0.7C43.5,41.7,34.3,64.9,34.3,64.9z"/>
	<path id="XMLID_2733_" class="st0" d="M29.6,115.1c-7.6,0.2-11.4-5.2-14.4-10.6c-3.1-5.4-5.4-11.3-13.2-11
		C9.4,93.4,12.1,87.4,15,82c2.7-5.1,5.5-10.4,12.5-10.9c0.3,0,1.1-0.3,1,0C20,92,29.6,115.1,29.6,115.1z"/>
	<path id="XMLID_2731_" class="st0" d="M63.8,151.9c-5.4,5.3-11.9,4-17.7,2.2c-6-2-11.7-4.4-17.2,1c5.2-5.2,3-11.4,1.3-17.4
		c-1.5-5.5-3.2-11.4,1.5-16.4c0.3-0.3,0.6-1,0.7-0.7C40.9,141.7,63.8,151.9,63.8,151.9z"/>
	<path id="XMLID_2730_" class="st1" d="M85.3,133c-26.3,0-47.6-21.3-47.6-47.5S59,38.2,85.3,38.2c0,0-32.4,14.5-30.5,48.5
		C56.8,121.3,85.3,133,85.3,133z"/>
	<ellipse id="XMLID_2729_" class="st2" cx="91.1" cy="90.8" rx="45.4" ry="45.4"/>
	<path id="XMLID_2728_" class="st2" d="M166.7,78.6c-3.2-5.7-6.5-11.5-14.8-11.3l-1.7-2.5c5.9-5.9,4.3-12.6,2.4-18.9
		c-2-6.4-4.7-12.5,1.1-18.3c-5.5,5.5-12.2,3.2-18.6,1.4c-6.3-1.7-12.7-3.6-18.4,2.5l0.2,0.2c-1.2-0.5-2.4-1.4-2.4-1.4
		c0-8.1-6-11.9-11.7-15c-6-3.1-12.1-5.5-12.1-13.7c0,7.8-6.4,10.9-12.1,14.1c-5.7,3.2-11.5,6.5-11.3,14.7c0,0-1.1,0.8-2.3,1.4
		l0.1-0.1c-5.7-6-12.1-4.2-18.4-2.5c-6.4,1.7-13,4.2-18.6-1.4c5.9,5.9,3.1,11.9,1.1,18.3c-2,6.2-3.4,13,2.4,18.8
		C31,66.2,30,67.5,30,67.5c-8.2-0.3-11.5,5.7-14.8,11.3c-3.2,5.8-6.3,12-14.2,12c8.2,0,10.7,6.3,13.8,12.1
		c3.1,5.8,6.9,11.7,15.1,11.7c0,0,1,1.3,1.6,2.6c-5.9,5.7-4.1,12-2.4,18.3c1.7,6.4,4.2,12.9-1.4,18.5c5.9-5.9,11.9-3.1,18.4-1.1
		c6.3,2,13,3.4,18.9-2.4l-0.1-0.1c1.1,0.5,2.2,1.4,2.2,1.4c-0.3,8.2,5.7,11.5,11.3,14.7c5.8,3.2,12.1,6.3,12.1,14.1
		c0-8.2,6.3-10.6,12.1-13.7c5.8-3.1,11.7-6.9,11.7-15c0,0,1.3-1,2.6-1.6c5.8,5.7,12.6,4.2,18.8,2.3c6.4-2,12.5-4.7,18.4,1.1
		c-5.5-5.5-3.2-12.1-1.4-18.5c1.7-6.3,3.6-12.7-2.5-18.4l1.3-2.1c8.1,0,12-5.9,15.1-11.7c3.1-5.9,5.5-12.1,13.8-12.1
		C173,90.7,170,84.2,166.7,78.6z"/>
	<ellipse id="XMLID_2727_" class="st2" cx="91.1" cy="90.8" rx="64.5" ry="64.5"/>
	<g id="XMLID_2640_">
		<path id="XMLID_2725_" class="st2" d="M152,67.3c8.2-0.3,11.5,5.7,14.8,11.3c3.2,5.8,6.3,12,14.2,12c-8.2,0-10.7,6.3-13.8,12.1
			c-3.1,5.8-6.9,11.7-15.1,11.7"/>
		<path id="XMLID_2723_" class="st2" d="M30.1,114.4c-8.1,0-12-5.9-15.1-11.7c-3.1-5.9-5.5-12.1-13.8-12.1c7.9,0,10.9-6.4,14.2-12
			c3.2-5.7,6.5-11.5,14.8-11.3"/>
		<path id="XMLID_2651_" class="st2" d="M67.4,30.2C67.1,22,73,18.7,78.7,15.5c5.8-3.2,12.1-6.3,12.1-14.1c0,8.2,6.3,10.6,12.1,13.7
			c5.8,3.1,11.7,6.9,11.7,15"/>
		<path id="XMLID_2649_" class="st2" d="M114.7,151.6c0,8.1-6,11.9-11.7,15c-6,3.1-12.1,5.5-12.1,13.7c0-7.8-6.4-10.9-12.1-14.1
			c-5.7-3.2-11.5-6.5-11.3-14.7"/>
		<path id="XMLID_2647_" class="st2" d="M116.9,31.4c5.7-6,12.1-4.2,18.4-2.5c6.4,1.7,13,4.2,18.6-1.4c-5.9,5.9-3.1,11.9-1.1,18.3
			c2,6.2,3.4,13-2.4,18.9"/>
		<path id="XMLID_2645_" class="st2" d="M65.3,150.4c-5.9,5.9-12.7,4.2-18.9,2.4c-6.4-2-12.5-4.7-18.4,1.1
			c5.5-5.5,3.2-12.1,1.4-18.5c-1.7-6.3-3.6-12.7,2.5-18.4"/>
		<path id="XMLID_2643_" class="st2" d="M31.8,64.7c-5.8-5.7-4.3-12.6-2.4-18.8c2-6.4,4.7-12.5-1.1-18.3c5.5,5.5,12.2,3.2,18.6,1.4
			c6.3-1.7,12.7-3.6,18.4,2.5"/>
		<path id="XMLID_2641_" class="st2" d="M150.7,116.6c6,5.7,4.2,12,2.5,18.4s-4.2,12.9,1.4,18.5c-5.9-5.9-11.9-3.1-18.4-1.1
			c-6.3,2-13,3.4-18.9-2.4"/>
	</g>
	<path id="XMLID_2637_" class="st3" d="M105.9,72.4H74.2l2.2,4h6.6v13.9h-3.1c-0.6,0-0.8,0.8-0.4,1.1l6.8,5.8
		c0.4,0.3,1.1,0.1,1.1-0.5v-2.8c0-0.3,0.3-0.7,0.7-0.7h9.1c0.6,0,1.1,0.5,1.1,1.1l0.1,10.9c0,2.4,2,4.2,4.3,4.2l0,0V93.1V76.4h5.5
		L105.9,72.4z M96.9,90.3H88c-0.5,0-0.9-0.4-0.9-0.9V76.4h11.1v12.4C98.2,89.7,97.6,90.3,96.9,90.3z"/>
	<g id="XMLID_2508_">
		<path id="XMLID_2634_" class="st3" d="M91.1,30.7c-2.5,0-4.3,2-4.3,4.3c0,2.4,2,4.3,4.3,4.3s4.3-2,4.3-4.3
			C95.4,32.6,93.6,30.7,91.1,30.7z M91.1,37.3c-1.2,0-2.3-1-2.3-2.3c0-1.2,1-2.3,2.3-2.3s2.3,1,2.3,2.3
			C93.4,36.2,92.3,37.3,91.1,37.3z"/>
		<path id="XMLID_2631_" class="st3" d="M91.1,142.4c-2.5,0-4.3,2-4.3,4.3s2,4.3,4.3,4.3s4.3-2,4.3-4.3S93.6,142.4,91.1,142.4z
			 M91.1,148.9c-1.2,0-2.3-1-2.3-2.3c0-1.2,1-2.3,2.3-2.3s2.3,1,2.3,2.3C93.4,148,92.3,148.9,91.1,148.9z"/>
		<path id="XMLID_2628_" class="st3" d="M60.9,38.7c-2.1,1.2-2.8,3.8-1.6,5.9c1.2,2.1,3.9,2.8,6,1.5c2.1-1.2,2.8-3.9,1.5-6
			C65.7,38.2,63,37.5,60.9,38.7z M64.2,44.5c-1,0.6-2.5,0.3-3.1-0.8c-0.6-1-0.3-2.5,0.8-3.1c1-0.6,2.5-0.3,3.1,0.8
			C65.6,42.4,65.2,43.8,64.2,44.5z"/>
		<path id="XMLID_2625_" class="st3" d="M116.9,135.5c-2.1,1.2-2.8,3.9-1.5,6s3.9,2.8,6,1.5s2.8-3.9,1.5-6
			C121.6,135,119,134.3,116.9,135.5z M120.3,141.2c-1,0.6-2.5,0.3-3.1-0.8c-0.6-1-0.3-2.5,0.8-3.1c1-0.6,2.5-0.3,3.1,0.8
			C121.6,139.3,121.3,140.5,120.3,141.2z"/>
		<path id="XMLID_2622_" class="st3" d="M40.3,66.8c2.1,1.2,4.7,0.5,6-1.5c1.2-2.1,0.5-4.7-1.5-6c-2.1-1.2-4.7-0.5-6,1.5
			C37.6,62.8,38.3,65.5,40.3,66.8z M40.7,61.8c0.6-1,2-1.4,3.1-0.8c1,0.6,1.4,2,0.8,3.1c-0.6,1-2,1.4-3.1,0.8
			C40.3,64.2,40,63,40.7,61.8z"/>
		<path id="XMLID_2619_" class="st3" d="M141.9,115c-2.1-1.2-4.7-0.5-6,1.5c-1.2,2.1-0.5,4.7,1.5,6c2.1,1.2,4.7,0.5,6-1.5
			C144.6,118.9,143.9,116.3,141.9,115z M141.5,119.9c-0.6,1-2,1.4-3.1,0.8c-1-0.6-1.4-2-0.8-3.1c0.6-1,2-1.4,3.1-0.8
			C141.9,117.5,142.2,118.8,141.5,119.9z"/>
		<path id="XMLID_2616_" class="st3" d="M39.4,90.8c0-2.5-2-4.3-4.3-4.3c-2.5,0-4.3,2-4.3,4.3c0,2.5,2,4.3,4.3,4.3
			C37.5,95.3,39.4,93.3,39.4,90.8z M32.8,90.8c0-1.2,1-2.3,2.3-2.3c1.2,0,2.3,1,2.3,2.3c0,1.2-1,2.3-2.3,2.3
			C33.9,93.1,32.8,92.1,32.8,90.8z"/>
		<path id="XMLID_2613_" class="st3" d="M147.1,86.5c-2.5,0-4.3,2-4.3,4.3c0,2.5,2,4.3,4.3,4.3c2.5,0,4.3-2,4.3-4.3
			C151.4,88.5,149.6,86.5,147.1,86.5z M147.1,93.1c-1.2,0-2.3-1-2.3-2.3c0-1.2,1-2.3,2.3-2.3c1.2,0,2.3,1,2.3,2.3
			C149.4,92.1,148.3,93.1,147.1,93.1z"/>
		<path id="XMLID_2610_" class="st3" d="M46.3,116.6c-1.2-2.1-3.9-2.8-6-1.5c-2.1,1.2-2.8,3.9-1.5,6s3.9,2.8,6,1.5
			C46.8,121.4,47.5,118.6,46.3,116.6z M43.6,120.8c-1,0.6-2.5,0.3-3.1-0.8c-0.6-1-0.3-2.5,0.8-3.1c1-0.6,2.5-0.3,3.1,0.8
			C45.2,118.7,44.8,120.2,43.6,120.8z"/>
		<path id="XMLID_2564_" class="st3" d="M135.9,65.1c1.2,2.1,3.9,2.8,6,1.5c2.1-1.2,2.8-3.9,1.5-6c-1.2-2.1-3.9-2.8-6-1.5
			C135.3,60.4,134.7,63.1,135.9,65.1z M138.6,61c1-0.6,2.5-0.3,3.1,0.8c0.6,1,0.3,2.5-0.8,3.1c-1,0.6-2.5,0.3-3.1-0.8
			C137,63.1,137.4,61.6,138.6,61z"/>
		<path id="XMLID_2536_" class="st3" d="M65.2,135.5c-2.1-1.2-4.7-0.5-6,1.5c-1.2,2.1-0.5,4.7,1.5,6c2.1,1.2,4.7,0.5,6-1.5
			C68.1,139.3,67.4,136.7,65.2,135.5z M65,140.4c-0.6,1-2,1.4-3.1,0.8c-1-0.6-1.4-2-0.8-3.1c0.6-1,2-1.4,3.1-0.8
			C65.2,138,65.6,139.3,65,140.4z"/>
		<path id="XMLID_2533_" class="st3" d="M121.3,38.7c-2.1-1.2-4.7-0.5-6,1.5c-1.2,2.1-0.5,4.7,1.5,6s4.7,0.5,6-1.5
			C124.1,42.5,123.4,39.9,121.3,38.7z M121,43.5c-0.6,1-2,1.4-3.1,0.8c-1-0.6-1.4-2-0.8-3.1c0.6-1,2-1.4,3.1-0.8
			C121.3,41.2,121.6,42.5,121,43.5z"/>
		
			<ellipse id="XMLID_2532_" transform="matrix(0.9847 -0.1741 0.1741 0.9847 -4.9969 14.7083)" class="st3" cx="81.3" cy="35.8" rx="2.3" ry="2.3"/>
		
			<ellipse id="XMLID_2531_" transform="matrix(0.9847 -0.1741 0.1741 0.9847 -23.8751 19.7732)" class="st3" cx="100.8" cy="146" rx="2.3" ry="2.3"/>
		
			<ellipse id="XMLID_2530_" transform="matrix(0.9394 -0.3428 0.3428 0.9394 -8.8103 26.9748)" class="st3" cx="71.9" cy="38.4" rx="2.3" ry="2.3"/>
		
			<ellipse id="XMLID_2529_" transform="matrix(0.9394 -0.3428 0.3428 0.9394 -42.4674 46.5024)" class="st3" cx="110.3" cy="143.4" rx="2.3" ry="2.3"/>
		<path id="XMLID_2528_" class="st3" d="M53.6,46.3c-0.9,0.8-1,2.2-0.3,3.1c0.7,0.9,2.2,1,3.1,0.3c0.9-0.8,1-2.2,0.3-3.1
			C56,45.7,54.6,45.6,53.6,46.3z"/>
		<path id="XMLID_2527_" class="st3" d="M125.7,132c-0.9,0.8-1,2.2-0.3,3.1c0.8,0.9,2.2,1,3.1,0.3c0.9-0.8,1-2.2,0.3-3.1
			C128.1,131.3,126.7,131.2,125.7,132z"/>
		<path id="XMLID_2526_" class="st3" d="M46.4,53.5c-0.8,0.9-0.7,2.4,0.3,3.1c0.9,0.8,2.4,0.7,3.1-0.3c0.8-0.9,0.7-2.4-0.3-3.1
			C48.7,52.5,47.3,52.6,46.4,53.5z"/>
		<path id="XMLID_2525_" class="st3" d="M132.3,125.3c-0.8,0.9-0.7,2.4,0.3,3.1c0.9,0.8,2.4,0.7,3.1-0.3c0.8-0.9,0.7-2.4-0.3-3.1
			C134.6,124.3,133.1,124.4,132.3,125.3z"/>
		
			<ellipse id="XMLID_2524_" transform="matrix(0.3428 -0.9394 0.9394 0.3428 -42.0828 83.2975)" class="st3" cx="38.5" cy="71.7" rx="2.3" ry="2.3"/>
		
			<ellipse id="XMLID_2523_" transform="matrix(0.3428 -0.9394 0.9394 0.3428 -8.798 207.3445)" class="st3" cx="143.8" cy="110" rx="2.3" ry="2.3"/>
		
			<ellipse id="XMLID_2522_" transform="matrix(0.1741 -0.9847 0.9847 0.1741 -50.2352 102.3107)" class="st3" cx="35.9" cy="81.1" rx="2.3" ry="2.3"/>
		
			<ellipse id="XMLID_2521_" transform="matrix(0.1741 -0.9847 0.9847 0.1741 21.7306 227.0365)" class="st3" cx="146.2" cy="100.6" rx="2.3" ry="2.3"/>
		
			<ellipse id="XMLID_2520_" transform="matrix(0.9849 -0.1732 0.1732 0.9849 -16.873 7.7429)" class="st3" cx="35.9" cy="100.6" rx="2.3" ry="2.3"/>
		
			<ellipse id="XMLID_2519_" transform="matrix(0.9849 -0.1732 0.1732 0.9849 -11.8415 26.5608)" class="st3" cx="146.3" cy="81.1" rx="2.3" ry="2.3"/>
		
			<ellipse id="XMLID_2518_" transform="matrix(0.9394 -0.3428 0.3428 0.9394 -35.373 19.861)" class="st3" cx="38.5" cy="110" rx="2.3" ry="2.3"/>
		
			<ellipse id="XMLID_2517_" transform="matrix(0.9394 -0.3428 0.3428 0.9394 -15.9046 53.616)" class="st3" cx="143.7" cy="71.8" rx="2.3" ry="2.3"/>
		<path id="XMLID_2516_" class="st3" d="M46.8,125.1c-0.9,0.8-1,2.2-0.3,3.1c0.7,0.9,2.2,1,3.1,0.3c0.9-0.7,1-2.2,0.3-3.1
			C49.2,124.5,47.6,124.3,46.8,125.1z"/>
		<path id="XMLID_2515_" class="st3" d="M135.4,56.7c0.9-0.8,1-2.2,0.3-3.1c-0.7-0.9-2.2-1-3.1-0.3s-1,2.2-0.3,3.1
			C133.1,57.4,134.6,57.4,135.4,56.7z"/>
		<path id="XMLID_2514_" class="st3" d="M53.4,132.2c-0.8,0.9-0.7,2.4,0.3,3.1c0.9,0.8,2.4,0.7,3.1-0.3c0.8-0.9,0.7-2.4-0.3-3.1
			C55.6,131.2,54.1,131.3,53.4,132.2z"/>
		<path id="XMLID_2513_" class="st3" d="M125.3,46.6c-0.8,0.9-0.7,2.4,0.3,3.1c0.9,0.8,2.4,0.7,3.1-0.3c0.8-0.9,0.7-2.4-0.3-3.1
			C127.6,45.6,126.2,45.7,125.3,46.6z"/>
		
			<ellipse id="XMLID_2512_" transform="matrix(0.3428 -0.9394 0.9394 0.3428 -87.3755 161.8203)" class="st3" cx="72" cy="143.4" rx="2.3" ry="2.3"/>
		
			<ellipse id="XMLID_2511_" transform="matrix(0.3428 -0.9394 0.9394 0.3428 36.4922 128.8219)" class="st3" cx="110.3" cy="38.3" rx="2.3" ry="2.3"/>
		
			<ellipse id="XMLID_2510_" transform="matrix(0.1741 -0.9847 0.9847 0.1741 -76.5219 200.621)" class="st3" cx="81.3" cy="145.9" rx="2.3" ry="2.3"/>
		
			<ellipse id="XMLID_2509_" transform="matrix(0.1741 -0.9847 0.9847 0.1741 47.9696 128.8592)" class="st3" cx="100.8" cy="35.8" rx="2.3" ry="2.3"/>
	</g>
	<rect id="XMLID_2507_" x="60.2" y="60" class="st2" width="62" height="61.7"/>
</g>
</svg>
