<?xml version="1.0" encoding="utf-8"?>
<!-- Generator: Adobe Illustrator 21.1.0, SVG Export Plug-In . SVG Version: 6.00 Build 0)  -->
<svg version="1.1" id="Layer_1" xmlns="http://www.w3.org/2000/svg" xmlns:xlink="http://www.w3.org/1999/xlink" x="0px" y="0px"
	 viewBox="0 0 182 182" style="enable-background:new 0 0 182 182;" xml:space="preserve">
<style type="text/css">
	.st0{fill:#FFF0CD;}
	.st1{fill:#FFFFE6;}
	.st2{fill:none;stroke:#F49782;stroke-width:3;stroke-linecap:round;stroke-linejoin:round;stroke-miterlimit:10;}
	.st3{fill:#F49782;}
</style>
<g id="XMLID_1726_">
	<path id="XMLID_2264_" class="st0" d="M113.6,152.1c-0.3,7.6-5.9,11-11.4,13.7c-5.7,2.8-11.5,4.7-11.8,12.5
		c0.3-7.4-5.7-10.4-10.9-13.6c-4.9-3.1-10.2-6.1-10.2-13.2c0-0.3-0.3-1.1,0-1C89.8,160.3,113.6,152.1,113.6,152.1z"/>
	<path id="XMLID_2262_" class="st0" d="M71.1,28.5c-0.3,0.1,0-0.7,0-1c0.5-7,5.9-9.7,11.1-12.3c5.4-2.8,11.5-5.3,11.9-12.7
		C93.8,10,99.6,12.6,105,15.7c5.3,3.1,10.7,6.9,10.4,14.5C115.3,30.3,92.3,20.4,71.1,28.5z"/>
	<path id="XMLID_2217_" class="st0" d="M116.6,31.2c-0.3-0.2,0.5-0.4,0.8-0.7c5.3-4.5,11-2.7,16.6-0.8c5.9,2,12,4.3,17.5-0.6
		c-5.7,5.2-3.4,11-1.7,17.1c1.5,5.9,2.7,12.4-3,17.6C146.7,63.7,137.4,40.5,116.6,31.2z"/>
	<path id="XMLID_2215_" class="st0" d="M152.6,67.7c-0.1-0.3,0.7,0,1,0c7,0.4,9.8,5.8,12.5,10.9c2.9,5.4,5.6,11.4,13,11.6
		c-7.7-0.2-10.1,5.6-13.2,11c-3,5.3-6.7,10.8-14.4,10.6C151.5,111.9,161.1,88.8,152.6,67.7z"/>
	<path id="XMLID_2213_" class="st0" d="M151.3,116.8c0.1-0.3,0.5,0.4,0.7,0.7c4.7,5.1,3.1,10.9,1.5,16.4c-1.6,5.9-3.9,12.1,1.3,17.4
		c-5.4-5.3-11.2-2.9-17.2-1c-5.9,1.9-12.3,3.2-17.7-2.2C119.9,148,142.9,137.7,151.3,116.8z"/>
	<path id="XMLID_2211_" class="st0" d="M34.6,64c-5.7-5.2-4.5-11.7-3-17.6c1.6-6.1,3.9-11.9-1.7-17.1c5.3,4.9,11.5,2.5,17.5,0.6
		c5.6-1.9,11.3-3.6,16.6,0.8c0.3,0.2,1,0.5,0.8,0.7C43.9,40.8,34.6,64,34.6,64z"/>
	<path id="XMLID_2209_" class="st0" d="M29.8,114.3c-7.6,0.2-11.4-5.3-14.4-10.6c-3.1-5.4-5.4-11.3-13.2-11
		c7.4-0.2,10.1-6.2,13-11.6c2.7-5.1,5.6-10.4,12.5-10.9c0.3,0,1.1-0.3,1,0C20.2,91.2,29.8,114.3,29.8,114.3z"/>
	<path id="XMLID_2207_" class="st0" d="M64,151.1c-5.4,5.3-11.9,4-17.7,2.2c-6-2-11.7-4.4-17.2,1c5.2-5.2,3-11.4,1.3-17.4
		c-1.5-5.6-3.2-11.4,1.5-16.4c0.3-0.3,0.6-1,0.7-0.7C41.1,140.9,64,151.1,64,151.1z"/>
	<path id="XMLID_2206_" class="st1" d="M85.6,132.2c-26.3,0-47.6-21.3-47.6-47.5s21.3-47.5,47.6-47.5c0,0-32.4,14.5-30.5,48.5
		C57.1,120.5,85.6,132.2,85.6,132.2z"/>
	<ellipse id="XMLID_2198_" class="st2" cx="91.5" cy="92.5" rx="47.1" ry="47.1"/>
	<ellipse id="XMLID_2197_" class="st2" cx="90.9" cy="91.1" rx="64.6" ry="64.6"/>
	<g id="XMLID_2179_">
		<path id="XMLID_2195_" class="st2" d="M152,67.4c8.2-0.3,11.5,5.7,14.8,11.3c3.2,5.8,6.3,12,14.2,12c-8.2,0-10.7,6.3-13.8,12.1
			c-3.1,5.8-6.9,11.6-15.1,11.6"/>
		<path id="XMLID_2193_" class="st2" d="M29.9,114.7c-8.1,0-12-5.9-15.1-11.6C11.7,97.2,9.2,90.9,1,90.9c7.9,0,10.9-6.4,14.2-12
			c3.2-5.7,6.5-11.5,14.8-11.3"/>
		<path id="XMLID_2191_" class="st2" d="M67.2,30.2c-0.3-8.2,5.7-11.5,11.3-14.7c5.8-3.2,12.1-6.3,12.1-14.1
			c0,8.2,6.3,10.6,12.1,13.7c5.8,3.1,11.7,6.9,11.7,15"/>
		<path id="XMLID_2189_" class="st2" d="M114.7,151.9c0,8.1-6,12-11.7,15c-6,3.1-12.1,5.6-12.1,13.7c0-7.8-6.4-10.9-12.1-14.1
			c-5.7-3.2-11.5-6.5-11.3-14.7"/>
		<path id="XMLID_2187_" class="st2" d="M116.8,31.5c5.7-6,12.1-4.2,18.4-2.5c6.4,1.7,13.1,4.2,18.6-1.4c-5.9,5.9-3.1,11.9-1.1,18.3
			c2,6.2,3.4,13.2-2.4,18.9"/>
		<path id="XMLID_2185_" class="st2" d="M65.1,150.6c-5.9,5.9-12.7,4.2-18.9,2.4c-6.4-2-12.5-4.7-18.4,1.1
			c5.6-5.6,3.2-12.1,1.4-18.5c-1.7-6.3-3.6-12.7,2.5-18.4"/>
		<path id="XMLID_2183_" class="st2" d="M31.6,64.9c-5.9-5.9-4.3-12.6-2.4-18.9c2-6.4,4.7-12.5-1.1-18.3c5.6,5.6,12.2,3.2,18.6,1.4
			c6.3-1.7,12.7-3.6,18.4,2.5"/>
		<path id="XMLID_2180_" class="st2" d="M150.6,116.8c6,5.7,4.2,12,2.5,18.4c-1.7,6.4-4.2,13,1.4,18.5c-5.9-5.9-11.9-3.1-18.4-1.1
			c-6.3,2-13.2,3.4-18.9-2.4"/>
	</g>
	<path id="XMLID_2167_" class="st3" d="M101.3,77.3H79l1.5,2.9h14.5v3.3c0,0-7.7-1.3-10.7,2.5c-2.3,3-1.4,10.7,2,12.7
		c3.5,2.4,7.4,0.6,7.4,0.6c0.3,0,0.7,0,0.9,0l0.3,3.8c0,1.6,1.4,3.1,3.1,3.1v-3.8v-8.7v-0.3v-7.7c0-0.1,0-0.2,0-0.3v-5.3h4.7
		L101.3,77.3z M94.5,96.1c0,0-8.1,2.5-8.6-4.9c0.3-6.7,8.6-4.5,8.6-4.5V96.1z"/>
	<polygon id="XMLID_2166_" class="st2" points="90.9,138 51,69.4 130.9,69.4 	"/>
	<ellipse id="XMLID_2165_" class="st2" cx="90.8" cy="92.2" rx="22.8" ry="22.7"/>
	<g id="XMLID_1727_">
		<path id="XMLID_2162_" class="st3" d="M91.5,32.6c-2.5,0-4.3,2-4.3,4.3c0,2.4,2,4.3,4.3,4.3c2.5,0,4.3-2,4.3-4.3
			C95.8,34.5,93.8,32.6,91.5,32.6z M91.5,39.1c-1.2,0-2.3-1-2.3-2.3s1-2.3,2.3-2.3c1.2,0,2.3,1,2.3,2.3
			C93.6,38.1,92.7,39.1,91.5,39.1z"/>
		<path id="XMLID_2159_" class="st3" d="M91.5,144.4c-2.5,0-4.3,2-4.3,4.3s2,4.3,4.3,4.3c2.5,0,4.3-2,4.3-4.3S93.8,144.4,91.5,144.4
			z M91.5,151c-1.2,0-2.3-1-2.3-2.3c0-1.2,1-2.3,2.3-2.3c1.2,0,2.3,1,2.3,2.3C93.6,150,92.7,151,91.5,151z"/>
		<path id="XMLID_2153_" class="st3" d="M61.1,40.6c-2.1,1.2-2.8,3.9-1.5,6c1.2,2.1,3.9,2.8,6,1.5c2.1-1.2,2.8-3.9,1.5-6
			C66,40.1,63.3,39.3,61.1,40.6z M64.5,46.2c-1,0.6-2.5,0.3-3.1-0.8c-0.6-1-0.3-2.5,0.8-3.1c1-0.6,2.5-0.3,3.1,0.8
			C66,44.4,65.6,45.6,64.5,46.2z"/>
		<path id="XMLID_2146_" class="st3" d="M117.3,137.5c-2.1,1.2-2.8,3.9-1.5,6c1.2,2.1,3.9,2.8,6,1.5c2.1-1.2,2.8-3.9,1.5-6
			C122,137,119.3,136.3,117.3,137.5z M120.6,143.2c-1,0.6-2.5,0.3-3.1-0.8c-0.6-1-0.3-2.5,0.8-3.1c1-0.6,2.5-0.3,3.1,0.8
			C122,141.2,121.7,142.6,120.6,143.2z"/>
		<path id="XMLID_2134_" class="st3" d="M40.7,68.6c2.1,1.2,4.7,0.5,6-1.5s0.5-4.7-1.5-6s-4.7-0.5-6,1.5
			C37.9,64.7,38.6,67.4,40.7,68.6z M41,63.7c0.6-1,2-1.4,3.1-0.8c1,0.6,1.4,2,0.8,3.1c-0.7,1-2,1.4-3.1,0.8
			C40.7,66.2,40.4,64.7,41,63.7z"/>
		<path id="XMLID_2126_" class="st3" d="M142.1,117.1c-2.1-1.2-4.7-0.5-6,1.5s-0.5,4.7,1.5,6c2.1,1.2,4.7,0.5,6-1.5
			C145,120.9,144.3,118.2,142.1,117.1z M141.9,121.9c-0.6,1-2,1.4-3.1,0.8c-1-0.6-1.4-2-0.8-3.1c0.6-1,2-1.4,3.1-0.8
			C142.1,119.4,142.6,120.9,141.9,121.9z"/>
		<path id="XMLID_2117_" class="st3" d="M39.8,92.8c0-2.5-2-4.3-4.3-4.3c-2.5,0-4.3,2-4.3,4.3c0,2.5,2,4.3,4.3,4.3
			C37.7,97.1,39.8,95.3,39.8,92.8z M33.2,92.8c0-1.2,1-2.3,2.3-2.3s2.3,1,2.3,2.3c0,1.2-1,2.3-2.3,2.3C34.2,95.1,33.2,94,33.2,92.8z
			"/>
		<path id="XMLID_2108_" class="st3" d="M147.6,88.5c-2.5,0-4.3,2-4.3,4.3c0,2.5,2,4.3,4.3,4.3c2.5,0,4.3-2,4.3-4.3
			C151.9,90.3,149.9,88.5,147.6,88.5z M147.6,95.1c-1.2,0-2.3-1-2.3-2.3c0-1.2,1-2.3,2.3-2.3s2.3,1,2.3,2.3
			C149.7,94,148.7,95.1,147.6,95.1z"/>
		<path id="XMLID_2102_" class="st3" d="M46.6,118.6c-1.2-2.1-3.9-2.8-6-1.5c-2.1,1.2-2.8,3.9-1.5,6s3.9,2.8,6,1.5
			C47.1,123.3,47.9,120.7,46.6,118.6z M44,122.7c-1,0.6-2.5,0.3-3.1-0.8c-0.6-1.1-0.3-2.5,0.8-3.1c1-0.6,2.5-0.3,3.1,0.8
			C45.4,120.8,45,122.1,44,122.7z"/>
		<path id="XMLID_2089_" class="st3" d="M136.2,67c1.2,2.1,3.9,2.8,6,1.5c2.1-1.2,2.8-3.9,1.5-6c-1.2-2.1-3.9-2.8-6-1.5
			C135.8,62.3,134.9,64.9,136.2,67z M138.9,62.9c1-0.6,2.5-0.3,3.1,0.8c0.6,1,0.3,2.5-0.8,3.1c-1,0.6-2.5,0.3-3.1-0.8
			C137.5,64.9,137.8,63.5,138.9,62.9z"/>
		<path id="XMLID_2080_" class="st3" d="M65.6,137.5c-2.1-1.2-4.7-0.5-6,1.5s-0.5,4.7,1.5,6c2.1,1.2,4.7,0.5,6-1.5
			C68.3,141.3,67.7,138.6,65.6,137.5z M65.4,142.3c-0.6,1-2,1.4-3.1,0.8c-1-0.6-1.4-2-0.8-3.1c0.6-1,2-1.4,3.1-0.8
			C65.6,140,66,141.3,65.4,142.3z"/>
		<path id="XMLID_1990_" class="st3" d="M121.7,40.6c-2.1-1.2-4.7-0.5-6,1.5c-1.2,2.1-0.5,4.7,1.5,6c2.1,1.2,4.7,0.5,6-1.5
			C124.5,44.4,123.7,41.8,121.7,40.6z M121.4,45.5c-0.6,1-2,1.4-3.1,0.8c-1-0.6-1.4-2-0.8-3.1c0.6-1,2-1.4,3.1-0.8
			C121.7,43,122,44.4,121.4,45.5z"/>
		
			<ellipse id="XMLID_1989_" transform="matrix(0.9847 -0.1741 0.1741 0.9847 -5.315 14.7975)" class="st3" cx="81.7" cy="37.7" rx="2.3" ry="2.3"/>
		
			<ellipse id="XMLID_1954_" transform="matrix(0.9847 -0.1741 0.1741 0.9847 -24.2024 19.882)" class="st3" cx="101.2" cy="147.9" rx="2.3" ry="2.3"/>
		
			<ellipse id="XMLID_1928_" transform="matrix(0.9394 -0.3428 0.3428 0.9394 -9.4317 27.2079)" class="st3" cx="72.2" cy="40.3" rx="2.3" ry="2.3"/>
		
			<ellipse id="XMLID_1911_" transform="matrix(0.9394 -0.3428 0.3428 0.9394 -43.1433 46.7595)" class="st3" cx="110.7" cy="145.4" rx="2.3" ry="2.3"/>
		<path id="XMLID_1910_" class="st3" d="M53.9,48.3c-0.9,0.8-1,2.2-0.3,3.1c0.8,0.9,2.2,1,3.1,0.3c0.9-0.8,1-2.2,0.3-3.1
			C56.3,47.6,54.9,47.5,53.9,48.3z"/>
		<path id="XMLID_1909_" class="st3" d="M126,133.9c-0.9,0.8-1,2.2-0.3,3.1c0.8,0.9,2.2,1,3.1,0.3c0.9-0.8,1-2.2,0.3-3.1
			C128.4,133.3,127,133.2,126,133.9z"/>
		<path id="XMLID_1908_" class="st3" d="M46.7,55.4c-0.8,0.9-0.7,2.4,0.3,3.1c0.9,0.8,2.4,0.7,3.1-0.3c0.8-0.9,0.7-2.4-0.3-3.1
			C48.9,54.4,47.6,54.5,46.7,55.4z"/>
		<path id="XMLID_1890_" class="st3" d="M132.7,127.3c-0.8,0.9-0.7,2.4,0.3,3.1c0.9,0.8,2.4,0.7,3.1-0.3c0.8-0.9,0.7-2.4-0.3-3.1
			C134.8,126.2,133.5,126.4,132.7,127.3z"/>
		
			<ellipse id="XMLID_1872_" transform="matrix(0.3428 -0.9394 0.9394 0.3428 -43.7338 84.8586)" class="st3" cx="38.8" cy="73.7" rx="2.3" ry="2.3"/>
		
			<ellipse id="XMLID_1871_" transform="matrix(0.3428 -0.9394 0.9394 0.3428 -10.362 209.0005)" class="st3" cx="144.2" cy="111.9" rx="2.3" ry="2.3"/>
		
			<ellipse id="XMLID_1828_" transform="matrix(0.1741 -0.9847 0.9847 0.1741 -51.9912 104.2884)" class="st3" cx="36.2" cy="83.1" rx="2.3" ry="2.3"/>
		
			<ellipse id="XMLID_1822_" transform="matrix(0.1741 -0.9847 0.9847 0.1741 20.1682 229.0381)" class="st3" cx="146.6" cy="102.5" rx="2.3" ry="2.3"/>
		
			<ellipse id="XMLID_1807_" transform="matrix(0.9849 -0.1732 0.1732 0.9849 -17.2177 7.8139)" class="st3" cx="36.2" cy="102.6" rx="2.3" ry="2.3"/>
		
			<ellipse id="XMLID_1804_" transform="matrix(0.9849 -0.1732 0.1732 0.9849 -12.1655 26.6566)" class="st3" cx="146.7" cy="83" rx="2.3" ry="2.3"/>
		
			<ellipse id="XMLID_1803_" transform="matrix(0.9394 -0.3428 0.3428 0.9394 -36.0093 20.0854)" class="st3" cx="38.8" cy="111.9" rx="2.3" ry="2.3"/>
		
			<ellipse id="XMLID_1801_" transform="matrix(0.9394 -0.3428 0.3428 0.9394 -16.5169 53.8949)" class="st3" cx="144.2" cy="73.7" rx="2.3" ry="2.3"/>
		<path id="XMLID_1800_" class="st3" d="M47.1,127.1c-0.9,0.8-1,2.2-0.3,3.1c0.8,0.9,2.2,1,3.1,0.3c0.9-0.8,1-2.2,0.3-3.1
			C49.3,126.4,48,126.2,47.1,127.1z"/>
		<path id="XMLID_1798_" class="st3" d="M135.9,58.6c0.9-0.8,1-2.2,0.3-3.1c-0.8-0.9-2.2-1-3.1-0.3c-0.9,0.8-1,2.2-0.3,3.1
			S134.8,59.4,135.9,58.6z"/>
		<path id="XMLID_1746_" class="st3" d="M53.7,134.2c-0.8,0.9-0.7,2.4,0.3,3.1c0.9,0.8,2.4,0.7,3.1-0.3c0.8-0.9,0.7-2.4-0.3-3.1
			C55.9,133.2,54.5,133.2,53.7,134.2z"/>
		<path id="XMLID_1741_" class="st3" d="M125.8,48.5c-0.8,0.9-0.7,2.4,0.3,3.1c0.9,0.8,2.4,0.7,3.1-0.3c0.8-0.9,0.7-2.4-0.3-3.1
			C128,47.5,126.5,47.6,125.8,48.5z"/>
		
			<ellipse id="XMLID_1731_" transform="matrix(0.3428 -0.9394 0.9394 0.3428 -88.9885 163.4003)" class="st3" cx="72.3" cy="145.3" rx="2.3" ry="2.3"/>
		
			<ellipse id="XMLID_1730_" transform="matrix(0.3428 -0.9394 0.9394 0.3428 34.9737 130.3146)" class="st3" cx="110.6" cy="40.2" rx="2.3" ry="2.3"/>
		
			<ellipse id="XMLID_1729_" transform="matrix(0.1741 -0.9847 0.9847 0.1741 -78.2355 202.6157)" class="st3" cx="81.7" cy="147.9" rx="2.3" ry="2.3"/>
		
			<ellipse id="XMLID_1728_" transform="matrix(0.1741 -0.9847 0.9847 0.1741 46.4795 130.778)" class="st3" cx="101.2" cy="37.7" rx="2.3" ry="2.3"/>
	</g>
</g>
</svg>
