<?xml version="1.0" encoding="utf-8"?>
<!-- Generator: Adobe Illustrator 21.1.0, SVG Export Plug-In . SVG Version: 6.00 Build 0)  -->
<svg version="1.1" id="Layer_1" xmlns="http://www.w3.org/2000/svg" xmlns:xlink="http://www.w3.org/1999/xlink" x="0px" y="0px"
	 viewBox="0 0 30 19" style="enable-background:new 0 0 30 19;" xml:space="preserve">
<style type="text/css">
	.st0{fill:none;stroke:#F15379;stroke-width:0.7;stroke-miterlimit:10;}
	.st1{fill:none;stroke:#8F8FD1;stroke-width:0.7;stroke-miterlimit:10;}
	.st2{fill:#F15379;}
	.st3{fill:none;stroke:#F15379;stroke-miterlimit:10;}
</style>
<g>
	<g>
		<path id="Behance_9_" class="st0" d="M26.2,3.3h-6.9V1.6h6.9V3.3L26.2,3.3z M14.6,10.4c0.4,0.7,0.7,1.5,0.7,2.5s-0.3,1.9-0.8,2.7
			c-0.3,0.5-0.7,1-1.2,1.3c-0.5,0.4-1.2,0.7-1.9,0.9C10.7,18,9.8,18,9,18H1.2V0.9h8.3c2.1,0,3.6,0.6,4.5,1.8
			c0.5,0.7,0.8,1.6,0.8,2.6c0,1.1-0.3,1.9-0.8,2.5c-0.3,0.4-0.7,0.7-1.3,1C13.5,9.2,14.2,9.7,14.6,10.4z M5.1,7.7h3.6
			c0.7,0,1.4-0.1,1.8-0.4C11,7,11.2,6.5,11.2,5.8c0-0.8-0.3-1.3-0.9-1.6C9.8,4,9.2,3.9,8.3,3.9H5.1V7.7z M11.6,12.7
			c0-0.9-0.4-1.5-1.1-1.8c-0.4-0.2-1-0.3-1.7-0.3H5.1v4.6h3.6c0.7,0,1.3-0.1,1.7-0.3C11.3,14.4,11.6,13.7,11.6,12.7z M28.7,9.9
			c0.1,0.6,0.1,1.4,0.1,2.4h-9c0,1.2,0.5,2.1,1.3,2.6c0.5,0.3,1.1,0.5,1.8,0.5c0.7,0,1.3-0.2,1.8-0.6c0.3-0.2,0.5-0.5,0.7-0.8h3.3
			c-0.1,0.7-0.5,1.5-1.2,2.2c-1.1,1.2-2.7,1.8-4.6,1.8c-1.6,0-3.1-0.5-4.3-1.5c-1.3-1-1.9-2.7-1.9-4.9c0-2.1,0.6-3.8,1.7-4.9
			S21,5,22.8,5c1.1,0,2,0.2,2.9,0.6s1.6,1,2.1,1.8C28.2,8.1,28.6,8.9,28.7,9.9z M25.5,10.2c-0.1-0.9-0.3-1.5-0.9-1.9
			c-0.5-0.4-1.1-0.7-1.9-0.7s-1.5,0.2-1.9,0.7c-0.5,0.5-0.7,1.1-0.9,1.9H25.5L25.5,10.2z"/>
	</g>
</g>
<g>
	<g>
		<path id="XMLID_8_" class="st1" d="M98.8,27.3c-0.5,0.2-0.9,0.4-1.4,0.5c0.5-0.5,0.9-1.2,1.2-1.9l0,0c0.1-0.2-0.2-0.4-0.3-0.3l0,0
			c-0.7,0.4-1.4,0.7-2.2,0.9H96c-0.1,0-0.3-0.1-0.4-0.1c-0.8-0.7-1.9-1.1-3-1.1c-0.5,0-0.9,0.1-1.4,0.2c-1.4,0.4-2.6,1.6-2.9,3.1
			c-0.1,0.6-0.2,1.1-0.1,1.6c0,0.1,0,0.1,0,0.1l-0.1,0.1l0,0c-3.2-0.3-6-1.8-8-4.3l0,0c-0.1-0.1-0.3-0.1-0.4,0l0,0
			c-0.4,0.7-0.6,1.5-0.6,2.2c0,1.2,0.5,2.3,1.3,3.2c-0.4-0.1-0.7-0.2-1-0.4l0,0c-0.2-0.1-0.3,0-0.3,0.2l0,0c0,1.8,1,3.4,2.6,4.1
			h-0.1c-0.2,0-0.5,0-0.8-0.1l0,0c-0.2,0-0.3,0.1-0.3,0.3l0,0c0.5,1.6,1.9,2.8,3.5,3c-1.4,0.9-3,1.4-4.6,1.4h-0.5
			c-0.2,0-0.3,0.1-0.3,0.3s0,0.3,0.2,0.4c1.9,1.1,4,1.7,6.2,1.7c1.9,0,3.7-0.4,5.3-1.1c1.5-0.7,2.8-1.6,3.8-2.9
			c1-1.1,1.8-2.5,2.4-3.9c0.5-1.4,0.8-2.9,0.8-4.3v-0.1c0-0.2,0.1-0.4,0.3-0.6c0.7-0.6,1.3-1.2,1.8-1.9l0,0
			C99.3,27.5,99.1,27.2,98.8,27.3L98.8,27.3z"/>
	</g>
</g>
<g>
	<g>
		<ellipse id="XMLID_36_" class="st1" cx="13" cy="40.5" rx="8.5" ry="8.6"/>
		<path id="XMLID_35_" class="st1" d="M8.6,33.2c0,0,7.4,6.4,6.5,15.9"/>
		<path id="XMLID_34_" class="st1" d="M7.9,47.4c0,0,3.5-7.5,13.7-6.9"/>
		<path id="XMLID_33_" class="st1" d="M4.5,39.9c0,0,8.6,0.9,14.6-5.4"/>
	</g>
</g>
<g>
	<g>
		<path id="XMLID_37_" class="st1" d="M-15.2,37.1h-11.6c-1.5,0-2.7-1.2-2.7-2.7V22.7c0-1.5,1.2-2.7,2.7-2.7h11.6
			c1.5,0,2.7,1.2,2.7,2.7v11.7C-12.5,35.9-13.7,37.1-15.2,37.1z"/>
		<path id="XMLID_32_" class="st1" d="M-19.3,32.3h-3.3c-1.2,0-2.1-0.9-2.1-2.1v-3.4c0-1.2,0.9-2.1,2.1-2.1h3.3
			c1.2,0,2.1,0.9,2.1,2.1v3.4C-17.3,31.3-18.2,32.3-19.3,32.3z"/>
		<path id="XMLID_31_" class="st1" d="M-19.3,32.3h-3.3c-1.2,0-2.1-0.9-2.1-2.1v-3.4c0-1.2,0.9-2.1,2.1-2.1h3.3
			c1.2,0,2.1,0.9,2.1,2.1v3.4C-17.3,31.3-18.2,32.3-19.3,32.3z"/>
		<ellipse id="XMLID_30_" class="st1" cx="-15.7" cy="23.3" rx="0.8" ry="0.8"/>
	</g>
</g>
<g>
	<g id="XMLID_43_">
		<g id="XMLID_44_">
			<path id="Behance_1_" class="st2" d="M-77-18.4h-4.4v-1.1h4.4L-77-18.4L-77-18.4z M-84.4-13.9c0.3,0.4,0.4,1,0.4,1.6
				c0,0.7-0.2,1.2-0.5,1.8c-0.2,0.3-0.5,0.6-0.8,0.9c-0.4,0.3-0.8,0.5-1.2,0.6C-86.9-9-87.4-9-88-9h-5v-11h5.3
				c1.3,0,2.3,0.4,2.9,1.2c0.3,0.5,0.5,1,0.5,1.7c0,0.7-0.2,1.2-0.5,1.6c-0.2,0.2-0.5,0.4-0.8,0.6C-85.1-14.7-84.6-14.4-84.4-13.9z
				 M-90.4-15.7h2.3c0.5,0,0.9-0.1,1.2-0.3c0.3-0.2,0.4-0.5,0.4-1c0-0.5-0.2-0.9-0.6-1c-0.3-0.1-0.8-0.2-1.3-0.2h-2.1V-15.7z
				 M-86.2-12.5c0-0.6-0.2-1-0.7-1.2c-0.3-0.1-0.6-0.2-1.1-0.2h-2.4v2.9h2.3c0.5,0,0.8-0.1,1.1-0.2C-86.5-11.3-86.2-11.8-86.2-12.5z
				 M-75.3-14.3c0.1,0.4,0.1,0.9,0.1,1.6H-81c0,0.8,0.3,1.3,0.8,1.7c0.3,0.2,0.7,0.3,1.1,0.3c0.5,0,0.9-0.1,1.1-0.4
				c0.2-0.1,0.3-0.3,0.4-0.5h2.1c-0.1,0.5-0.3,0.9-0.8,1.4c-0.7,0.8-1.7,1.2-3,1.2c-1.1,0-2-0.3-2.8-1c-0.8-0.6-1.2-1.7-1.2-3.2
				c0-1.4,0.4-2.4,1.1-3.1c0.7-0.7,1.7-1.1,2.8-1.1c0.7,0,1.3,0.1,1.9,0.4c0.6,0.2,1,0.6,1.4,1.2C-75.6-15.4-75.4-14.9-75.3-14.3z
				 M-77.4-14.1c0-0.5-0.2-1-0.6-1.2c-0.3-0.3-0.7-0.4-1.2-0.4c-0.5,0-0.9,0.2-1.2,0.5c-0.3,0.3-0.5,0.7-0.6,1.2L-77.4-14.1
				L-77.4-14.1z"/>
		</g>
	</g>
	<g id="XMLID_41_">
		<path id="XMLID_42_" class="st3" d="M-51.6-18.7c-0.3,0.1-0.6,0.2-0.9,0.3c0.3-0.3,0.6-0.7,0.8-1.2l0,0c0-0.1-0.1-0.2-0.2-0.2l0,0
			c-0.4,0.3-0.9,0.5-1.4,0.6c0,0-0.1,0-0.1,0c-0.1,0-0.2,0-0.2-0.1c-0.5-0.5-1.2-0.7-1.9-0.7c-0.3,0-0.6,0-0.9,0.1
			c-0.9,0.3-1.6,1-1.9,2c-0.1,0.4-0.1,0.7-0.1,1c0,0,0,0.1,0,0.1c0,0,0,0-0.1,0c0,0,0,0,0,0c-2-0.2-3.9-1.2-5.1-2.7l0,0
			c-0.1-0.1-0.2-0.1-0.2,0l0,0c-0.3,0.4-0.4,0.9-0.4,1.4c0,0.8,0.3,1.5,0.9,2c-0.2-0.1-0.4-0.1-0.7-0.3l0,0c-0.1-0.1-0.2,0-0.2,0.1
			l0,0c0,1.1,0.7,2.2,1.7,2.6c0,0,0,0-0.1,0c-0.2,0-0.3,0-0.5,0l0,0c-0.1,0-0.2,0.1-0.2,0.2l0,0c0.3,1,1.2,1.8,2.3,1.9
			c-0.9,0.6-1.9,0.9-3,0.9l-0.3,0c-0.1,0-0.2,0.1-0.2,0.2c0,0.1,0,0.2,0.1,0.2c1.2,0.7,2.6,1.1,3.9,1.1c1.2,0,2.3-0.2,3.4-0.7
			c0.9-0.4,1.8-1.1,2.5-1.8c0.6-0.7,1.2-1.6,1.5-2.5c0.3-0.9,0.5-1.8,0.5-2.8v0c0-0.1,0.1-0.3,0.2-0.4c0.4-0.4,0.8-0.8,1.1-1.2l0,0
			C-51.3-18.6-51.4-18.8-51.6-18.7L-51.6-18.7z"/>
	</g>
	<g id="XMLID_5_">
		<g id="XMLID_6_">
			<path id="XMLID_40_" class="st3" d="M-127.3-9h-5.4c-1.5,0-2.7-1.2-2.7-2.7v-5.5c0-1.5,1.2-2.7,2.7-2.7h5.4
				c1.5,0,2.7,1.2,2.7,2.7v5.5C-124.6-10.2-125.8-9-127.3-9z"/>
			<path id="XMLID_39_" class="st3" d="M-129.7-12.1h-0.6c-1.2,0-2.1-0.9-2.1-2.1v-0.7c0-1.2,0.9-2.1,2.1-2.1h0.6
				c1.2,0,2.1,0.9,2.1,2.1v0.7C-127.7-13-128.6-12.1-129.7-12.1z"/>
			<ellipse id="XMLID_38_" class="st2" cx="-127.5" cy="-17.8" rx="0.9" ry="0.9"/>
		</g>
	</g>
	<g id="XMLID_2_">
		<g id="XMLID_7_">
			<ellipse id="XMLID_4_" class="st3" cx="-108.6" cy="-14.5" rx="5.5" ry="5.5"/>
			<path id="XMLID_3_" class="st3" d="M-111.4-19.1c0,0,4.8,4.1,4.2,10.1"/>
			<path id="XMLID_9_" class="st3" d="M-111.9-10.1c0,0,2.2-4.8,8.7-4.4"/>
			<path id="XMLID_1_" class="st3" d="M-114.1-14.9c0,0,5.5,0.6,9.4-3.5"/>
		</g>
	</g>
</g>
</svg>
