<?xml version="1.0" encoding="utf-8"?>
<!-- Generator: Adobe Illustrator 21.1.0, SVG Export Plug-In . SVG Version: 6.00 Build 0)  -->
<svg version="1.1" id="Layer_1" xmlns="http://www.w3.org/2000/svg" xmlns:xlink="http://www.w3.org/1999/xlink" x="0px" y="0px"
	 viewBox="0 0 30 19" style="enable-background:new 0 0 30 19;" xml:space="preserve">
<style type="text/css">
	.st0{fill:none;stroke:#8F8FD1;stroke-width:0.7;stroke-miterlimit:10;}
</style>
<g>
	<g>
		<path id="Behance_9_" class="st0" d="M26.2,3.3h-6.9V1.6h6.9L26.2,3.3L26.2,3.3z M14.6,10.4c0.4,0.7,0.7,1.5,0.7,2.5
			c0,1-0.3,1.9-0.8,2.7c-0.3,0.5-0.7,1-1.2,1.3c-0.5,0.4-1.2,0.7-1.9,0.9c-0.7,0.2-1.6,0.2-2.4,0.2H1.2V0.9h8.3
			c2.1,0,3.6,0.6,4.5,1.8c0.5,0.7,0.8,1.6,0.8,2.6c0,1.1-0.3,1.9-0.8,2.5c-0.3,0.4-0.7,0.7-1.3,1C13.5,9.2,14.2,9.7,14.6,10.4z
			 M5.1,7.7h3.6c0.7,0,1.4-0.1,1.8-0.4c0.5-0.3,0.7-0.8,0.7-1.5c0-0.8-0.3-1.3-0.9-1.6C9.8,4,9.2,3.9,8.3,3.9H5.1V7.7z M11.6,12.7
			c0-0.9-0.4-1.5-1.1-1.8c-0.4-0.2-1-0.3-1.7-0.3H5.1v4.6h3.6c0.7,0,1.3-0.1,1.7-0.3C11.3,14.4,11.6,13.7,11.6,12.7z M28.7,9.9
			c0.1,0.6,0.1,1.4,0.1,2.4h-9c0,1.2,0.5,2.1,1.3,2.6c0.5,0.3,1.1,0.5,1.8,0.5c0.7,0,1.3-0.2,1.8-0.6c0.3-0.2,0.5-0.5,0.7-0.8h3.3
			c-0.1,0.7-0.5,1.5-1.2,2.2c-1.1,1.2-2.7,1.8-4.6,1.8c-1.6,0-3.1-0.5-4.3-1.5c-1.3-1-1.9-2.7-1.9-4.9c0-2.1,0.6-3.8,1.7-4.9
			c1.1-1.1,2.6-1.7,4.4-1.7c1.1,0,2,0.2,2.9,0.6c0.9,0.4,1.6,1,2.1,1.8C28.2,8.1,28.6,8.9,28.7,9.9z M25.5,10.2
			c-0.1-0.9-0.3-1.5-0.9-1.9c-0.5-0.4-1.1-0.7-1.9-0.7c-0.8,0-1.5,0.2-1.9,0.7c-0.5,0.5-0.7,1.1-0.9,1.9L25.5,10.2L25.5,10.2z"/>
	</g>
</g>
<g>
	<g>
		<path id="XMLID_8_" class="st0" d="M98.8,27.3c-0.5,0.2-0.9,0.4-1.4,0.5c0.5-0.5,0.9-1.2,1.2-1.9l0,0c0.1-0.2-0.2-0.4-0.3-0.3l0,0
			c-0.7,0.4-1.4,0.7-2.2,0.9c0,0-0.1,0-0.1,0c-0.1,0-0.3-0.1-0.4-0.1c-0.8-0.7-1.9-1.1-3-1.1c-0.5,0-0.9,0.1-1.4,0.2
			c-1.4,0.4-2.6,1.6-2.9,3.1c-0.1,0.6-0.2,1.1-0.1,1.6c0,0.1,0,0.1,0,0.1c0,0-0.1,0.1-0.1,0.1c0,0,0,0,0,0c-3.2-0.3-6-1.8-8-4.3l0,0
			c-0.1-0.1-0.3-0.1-0.4,0l0,0c-0.4,0.7-0.6,1.5-0.6,2.2c0,1.2,0.5,2.3,1.3,3.2c-0.4-0.1-0.7-0.2-1-0.4l0,0c-0.2-0.1-0.3,0-0.3,0.2
			l0,0c0,1.8,1,3.4,2.6,4.1c0,0-0.1,0-0.1,0c-0.2,0-0.5,0-0.8-0.1l0,0c-0.2,0-0.3,0.1-0.3,0.3l0,0c0.5,1.6,1.9,2.8,3.5,3
			c-1.4,0.9-3,1.4-4.6,1.4l-0.5,0c-0.2,0-0.3,0.1-0.3,0.3c0,0.2,0,0.3,0.2,0.4c1.9,1.1,4,1.7,6.2,1.7c1.9,0,3.7-0.4,5.3-1.1
			c1.5-0.7,2.8-1.6,3.8-2.9c1-1.1,1.8-2.5,2.4-3.9c0.5-1.4,0.8-2.9,0.8-4.3v-0.1c0-0.2,0.1-0.4,0.3-0.6c0.7-0.6,1.3-1.2,1.8-1.9l0,0
			C99.3,27.5,99.1,27.2,98.8,27.3L98.8,27.3z"/>
	</g>
</g>
<g>
	<g>
		<ellipse id="XMLID_36_" class="st0" cx="13" cy="40.5" rx="8.5" ry="8.6"/>
		<path id="XMLID_35_" class="st0" d="M8.6,33.2c0,0,7.4,6.4,6.5,15.9"/>
		<path id="XMLID_34_" class="st0" d="M7.9,47.4c0,0,3.5-7.5,13.7-6.9"/>
		<path id="XMLID_33_" class="st0" d="M4.5,39.9c0,0,8.6,0.9,14.6-5.4"/>
	</g>
</g>
<g>
	<g>
		<path id="XMLID_37_" class="st0" d="M-15.2,37.1h-11.6c-1.5,0-2.7-1.2-2.7-2.7V22.7c0-1.5,1.2-2.7,2.7-2.7h11.6
			c1.5,0,2.7,1.2,2.7,2.7v11.7C-12.5,35.9-13.7,37.1-15.2,37.1z"/>
		<path id="XMLID_32_" class="st0" d="M-19.3,32.3h-3.3c-1.2,0-2.1-0.9-2.1-2.1v-3.4c0-1.2,0.9-2.1,2.1-2.1h3.3
			c1.2,0,2.1,0.9,2.1,2.1v3.4C-17.3,31.3-18.2,32.3-19.3,32.3z"/>
		<path id="XMLID_31_" class="st0" d="M-19.3,32.3h-3.3c-1.2,0-2.1-0.9-2.1-2.1v-3.4c0-1.2,0.9-2.1,2.1-2.1h3.3
			c1.2,0,2.1,0.9,2.1,2.1v3.4C-17.3,31.3-18.2,32.3-19.3,32.3z"/>
		<ellipse id="XMLID_30_" class="st0" cx="-15.7" cy="23.3" rx="0.8" ry="0.8"/>
	</g>
</g>
</svg>
