<?xml version="1.0" encoding="utf-8"?>
<!-- Generator: Adobe Illustrator 21.1.0, SVG Export Plug-In . SVG Version: 6.00 Build 0)  -->
<svg version="1.1" id="Layer_1" xmlns="http://www.w3.org/2000/svg" xmlns:xlink="http://www.w3.org/1999/xlink" x="0px" y="0px"
	 viewBox="0 0 20 20" style="enable-background:new 0 0 20 20;" xml:space="preserve">
<style type="text/css">
	.st0{fill:none;stroke:#F15379;stroke-width:0.7;stroke-miterlimit:10;}
	.st1{fill:none;stroke:#8F8FD1;stroke-width:0.7;stroke-miterlimit:10;}
	.st2{fill:#F15379;}
	.st3{fill:none;stroke:#F15379;stroke-miterlimit:10;}
</style>
<g>
	<g>
		<path id="Behance_9_" class="st0" d="M54.8-22.6h-6.9v-1.7h6.9V-22.6L54.8-22.6z M43.2-15.5c0.4,0.7,0.7,1.5,0.7,2.5
			s-0.3,1.9-0.8,2.7c-0.3,0.5-0.7,1-1.2,1.3c-0.5,0.4-1.2,0.7-1.9,0.9c-0.7,0.2-1.6,0.2-2.4,0.2h-7.8V-25h8.3c2.1,0,3.6,0.6,4.5,1.8
			c0.5,0.7,0.8,1.6,0.8,2.6c0,1.1-0.3,1.9-0.8,2.5c-0.3,0.4-0.7,0.7-1.3,1C42.1-16.7,42.8-16.2,43.2-15.5z M33.7-18.2h3.6
			c0.7,0,1.4-0.1,1.8-0.4c0.5-0.3,0.7-0.8,0.7-1.5c0-0.8-0.3-1.3-0.9-1.6c-0.5-0.2-1.1-0.3-2-0.3h-3.2V-18.2z M40.2-13.2
			c0-0.9-0.4-1.5-1.1-1.8c-0.4-0.2-1-0.3-1.7-0.3h-3.7v4.6h3.6c0.7,0,1.3-0.1,1.7-0.3C39.9-11.5,40.2-12.2,40.2-13.2z M57.3-16
			c0.1,0.6,0.1,1.4,0.1,2.4h-9c0,1.2,0.5,2.1,1.3,2.6c0.5,0.3,1.1,0.5,1.8,0.5c0.7,0,1.3-0.2,1.8-0.6c0.3-0.2,0.5-0.5,0.7-0.8h3.3
			c-0.1,0.7-0.5,1.5-1.2,2.2c-1.1,1.2-2.7,1.8-4.6,1.8c-1.6,0-3.1-0.5-4.3-1.5c-1.3-1-1.9-2.7-1.9-4.9c0-2.1,0.6-3.8,1.7-4.9
			c1.1-1.1,2.6-1.7,4.4-1.7c1.1,0,2,0.2,2.9,0.6c0.9,0.4,1.6,1,2.1,1.8C56.8-17.8,57.2-17,57.3-16z M54.1-15.7
			c-0.1-0.9-0.3-1.5-0.9-1.9c-0.5-0.4-1.1-0.7-1.9-0.7s-1.5,0.2-1.9,0.7c-0.5,0.5-0.7,1.1-0.9,1.9H54.1L54.1-15.7z"/>
	</g>
</g>
<g>
	<g>
		<path id="XMLID_8_" class="st1" d="M93.8,27.8c-0.5,0.2-0.9,0.4-1.4,0.5c0.5-0.5,0.9-1.2,1.2-1.9l0,0c0.1-0.2-0.2-0.4-0.3-0.3l0,0
			c-0.7,0.4-1.4,0.7-2.2,0.9H91c-0.1,0-0.3-0.1-0.4-0.1c-0.8-0.7-1.9-1.1-3-1.1c-0.5,0-0.9,0.1-1.4,0.2c-1.4,0.4-2.6,1.6-2.9,3.1
			c-0.1,0.6-0.2,1.1-0.1,1.6c0,0.1,0,0.1,0,0.1l-0.1,0.1l0,0c-3.2-0.3-6-1.8-8-4.3l0,0c-0.1-0.1-0.3-0.1-0.4,0l0,0
			c-0.4,0.7-0.6,1.5-0.6,2.2c0,1.2,0.5,2.3,1.3,3.2c-0.4-0.1-0.7-0.2-1-0.4l0,0c-0.2-0.1-0.3,0-0.3,0.2l0,0c0,1.8,1,3.4,2.6,4.1
			h-0.1c-0.2,0-0.5,0-0.8-0.1l0,0c-0.2,0-0.3,0.1-0.3,0.3l0,0c0.5,1.6,1.9,2.8,3.5,3c-1.4,0.9-3,1.4-4.6,1.4h-0.5
			c-0.2,0-0.3,0.1-0.3,0.3s0,0.3,0.2,0.4c1.9,1.1,4,1.7,6.2,1.7c1.9,0,3.7-0.4,5.3-1.1c1.5-0.7,2.8-1.6,3.8-2.9
			c1-1.1,1.8-2.5,2.4-3.9c0.5-1.4,0.8-2.9,0.8-4.3v-0.1c0-0.2,0.1-0.4,0.3-0.6c0.7-0.6,1.3-1.2,1.8-1.9l0,0
			C94.3,28,94.1,27.7,93.8,27.8L93.8,27.8z"/>
	</g>
</g>
<g>
	<g>
		<ellipse id="XMLID_36_" class="st1" cx="8" cy="41" rx="8.5" ry="8.6"/>
		<path id="XMLID_35_" class="st1" d="M3.6,33.7c0,0,7.4,6.4,6.5,15.9"/>
		<path id="XMLID_34_" class="st1" d="M2.9,47.9c0,0,3.5-7.5,13.7-6.9"/>
		<path id="XMLID_33_" class="st1" d="M-0.5,40.4c0,0,8.6,0.9,14.6-5.4"/>
	</g>
</g>
<g>
	<g>
		<path id="XMLID_37_" class="st0" d="M15.6,18.5H4c-1.5,0-2.7-1.2-2.7-2.7V4.2c0-1.5,1.2-2.7,2.7-2.7h11.6c1.5,0,2.7,1.2,2.7,2.7
			v11.7C18.2,17.4,17,18.5,15.6,18.5z"/>
		<path id="XMLID_32_" class="st0" d="M11.5,13.8H8.2c-1.2,0-2.1-0.9-2.1-2.1V8.2C6.1,7,7,6.1,8.2,6.1h3.3c1.2,0,2.1,0.9,2.1,2.1
			v3.4C13.5,12.8,12.5,13.8,11.5,13.8z"/>
		<path id="XMLID_31_" class="st0" d="M11.5,13.8H8.2c-1.2,0-2.1-0.9-2.1-2.1V8.2C6.1,7,7,6.1,8.2,6.1h3.3c1.2,0,2.1,0.9,2.1,2.1
			v3.4C13.5,12.8,12.5,13.8,11.5,13.8z"/>
		<ellipse id="XMLID_30_" class="st0" cx="15.1" cy="4.8" rx="0.8" ry="0.8"/>
	</g>
</g>
<g>
	<g id="XMLID_43_">
		<g id="XMLID_44_">
			<path id="Behance_1_" class="st2" d="M-82-17.9h-4.4V-19h4.4L-82-17.9L-82-17.9z M-89.4-13.4c0.3,0.4,0.4,1,0.4,1.6
				c0,0.7-0.2,1.2-0.5,1.8c-0.2,0.3-0.5,0.6-0.8,0.9c-0.4,0.3-0.8,0.5-1.2,0.6c-0.5,0.1-1,0.1-1.6,0.1h-5v-11h5.3
				c1.3,0,2.3,0.4,2.9,1.2c0.3,0.5,0.5,1,0.5,1.7c0,0.7-0.2,1.2-0.5,1.6c-0.2,0.2-0.5,0.4-0.8,0.6C-90.1-14.2-89.6-13.9-89.4-13.4z
				 M-95.4-15.2h2.3c0.5,0,0.9-0.1,1.2-0.3c0.3-0.2,0.4-0.5,0.4-1c0-0.5-0.2-0.9-0.6-1c-0.3-0.1-0.8-0.2-1.3-0.2h-2.1V-15.2z
				 M-91.2-12c0-0.6-0.2-1-0.7-1.2c-0.3-0.1-0.6-0.2-1.1-0.2h-2.4v2.9h2.3c0.5,0,0.8-0.1,1.1-0.2C-91.5-10.8-91.2-11.3-91.2-12z
				 M-80.3-13.8c0.1,0.4,0.1,0.9,0.1,1.6H-86c0,0.8,0.3,1.3,0.8,1.7c0.3,0.2,0.7,0.3,1.1,0.3c0.5,0,0.9-0.1,1.1-0.4
				c0.2-0.1,0.3-0.3,0.4-0.5h2.1c-0.1,0.5-0.3,0.9-0.8,1.4c-0.7,0.8-1.7,1.2-3,1.2c-1.1,0-2-0.3-2.8-1c-0.8-0.6-1.2-1.7-1.2-3.2
				c0-1.4,0.4-2.4,1.1-3.1c0.7-0.7,1.7-1.1,2.8-1.1c0.7,0,1.3,0.1,1.9,0.4c0.6,0.2,1,0.6,1.4,1.2C-80.6-14.9-80.4-14.4-80.3-13.8z
				 M-82.4-13.6c0-0.5-0.2-1-0.6-1.2c-0.3-0.3-0.7-0.4-1.2-0.4c-0.5,0-0.9,0.2-1.2,0.5c-0.3,0.3-0.5,0.7-0.6,1.2L-82.4-13.6
				L-82.4-13.6z"/>
		</g>
	</g>
	<g id="XMLID_41_">
		<path id="XMLID_42_" class="st3" d="M-56.6-18.2c-0.3,0.1-0.6,0.2-0.9,0.3c0.3-0.3,0.6-0.7,0.8-1.2l0,0c0-0.1-0.1-0.2-0.2-0.2l0,0
			c-0.4,0.3-0.9,0.5-1.4,0.6c0,0-0.1,0-0.1,0c-0.1,0-0.2,0-0.2-0.1c-0.5-0.5-1.2-0.7-1.9-0.7c-0.3,0-0.6,0-0.9,0.1
			c-0.9,0.3-1.6,1-1.9,2c-0.1,0.4-0.1,0.7-0.1,1c0,0,0,0.1,0,0.1c0,0,0,0-0.1,0c0,0,0,0,0,0c-2-0.2-3.9-1.2-5.1-2.7l0,0
			c-0.1-0.1-0.2-0.1-0.2,0l0,0c-0.3,0.4-0.4,0.9-0.4,1.4c0,0.8,0.3,1.5,0.9,2c-0.2-0.1-0.4-0.1-0.7-0.3l0,0c-0.1-0.1-0.2,0-0.2,0.1
			l0,0c0,1.1,0.7,2.2,1.7,2.6c0,0,0,0-0.1,0c-0.2,0-0.3,0-0.5,0l0,0c-0.1,0-0.2,0.1-0.2,0.2l0,0c0.3,1,1.2,1.8,2.3,1.9
			C-67-10.3-68-10-69-10l-0.3,0c-0.1,0-0.2,0.1-0.2,0.2c0,0.1,0,0.2,0.1,0.2c1.2,0.7,2.6,1.1,3.9,1.1c1.2,0,2.3-0.2,3.4-0.7
			c0.9-0.4,1.8-1.1,2.5-1.8c0.6-0.7,1.2-1.6,1.5-2.5c0.3-0.9,0.5-1.8,0.5-2.8v0c0-0.1,0.1-0.3,0.2-0.4c0.4-0.4,0.8-0.8,1.1-1.2l0,0
			C-56.3-18.1-56.4-18.3-56.6-18.2L-56.6-18.2z"/>
	</g>
	<g id="XMLID_5_">
		<g id="XMLID_6_">
			<path id="XMLID_40_" class="st3" d="M-132.3-8.5h-5.4c-1.5,0-2.7-1.2-2.7-2.7v-5.5c0-1.5,1.2-2.7,2.7-2.7h5.4
				c1.5,0,2.7,1.2,2.7,2.7v5.5C-129.6-9.7-130.8-8.5-132.3-8.5z"/>
			<path id="XMLID_39_" class="st3" d="M-134.7-11.6h-0.6c-1.2,0-2.1-0.9-2.1-2.1v-0.7c0-1.2,0.9-2.1,2.1-2.1h0.6
				c1.2,0,2.1,0.9,2.1,2.1v0.7C-132.7-12.5-133.6-11.6-134.7-11.6z"/>
			<ellipse id="XMLID_38_" class="st2" cx="-132.5" cy="-17.3" rx="0.9" ry="0.9"/>
		</g>
	</g>
	<g id="XMLID_2_">
		<g id="XMLID_7_">
			<ellipse id="XMLID_4_" class="st3" cx="-113.6" cy="-14" rx="5.5" ry="5.5"/>
			<path id="XMLID_3_" class="st3" d="M-116.4-18.6c0,0,4.8,4.1,4.2,10.1"/>
			<path id="XMLID_9_" class="st3" d="M-116.9-9.6c0,0,2.2-4.8,8.7-4.4"/>
			<path id="XMLID_1_" class="st3" d="M-119.1-14.4c0,0,5.5,0.6,9.4-3.5"/>
		</g>
	</g>
</g>
</svg>
