<?xml version="1.0" encoding="utf-8"?>
<!-- Generator: Adobe Illustrator 21.1.0, SVG Export Plug-In . SVG Version: 6.00 Build 0)  -->
<svg version="1.1" id="Layer_1" xmlns="http://www.w3.org/2000/svg" xmlns:xlink="http://www.w3.org/1999/xlink" x="0px" y="0px"
	 viewBox="0 0 64 88.5" style="enable-background:new 0 0 64 88.5;" xml:space="preserve">
<style type="text/css">
	.st0{fill:#EB1944;}
	.st1{fill:none;stroke:#EB1944;stroke-width:3;stroke-miterlimit:10;}
	.st2{fill:#FFFFFF;}
	.st3{fill:none;stroke:#FFFFFF;stroke-width:3;stroke-miterlimit:10;}
</style>
<g id="XMLID_739_">
	<g id="XMLID_740_">
		<g id="XMLID_780_">
			<path id="XMLID_782_" class="st0" d="M37.9,207.9c-2,1.3-4.3,2-6.8,2c-7.4,0-13.4-6.3-13.4-14.5c0-8,3.2-13.8,6.4-20.4
				c4.7-9.8,6.5-13.4,6.9-17.9c0,0,2.2,2.9,1.9,6.9c-0.2,2.8-1.9,7.7-4,13.1c-1.7,4.4-3.6,8.8-4.6,12.3c-1,3.6-1.1,6-0.4,9
				c0.2,1.1,0.6,2.2,1.1,3.2C28.8,208.5,37.2,208,37.9,207.9L37.9,207.9z"/>
			<path id="XMLID_781_" class="st0" d="M37.6,190c2.1,1.6,2,3.8,2,3.8c0,2.5-1.9,4.5-4.2,4.5s-4.2-2-4.2-4.5c0-0.3,0.1-0.9,0.1-0.9
				c0.7-3.7,4-10.7,5-15.3c1.1-4.9-1.9-9.6-1.9-9.6s0.7,1.7-3.7,12.4c-2,4.9-3.3,8.1-3.9,10c-0.7,2.1-0.7,3.7-0.7,4.3
				c0,5.5,4.1,9.9,9.2,9.9c5,0,9.1-4.5,9.1-9.9c0-5.4-4.3-8.8-6.9-10.5c-1.5-1-1.5-2.6-1.5-2.6l-0.7,2.3c-0.7,2.6,0.2,4.5,1.9,5.8
				C37.4,189.8,37.5,189.9,37.6,190z"/>
		</g>
		<g id="XMLID_741_">
			<path id="XMLID_774_" class="st0" d="M14.1,213.5L14.1,213.5c0.3,0,0.6,0.3,0.6,0.6v10.9c0,0.4,0.1,0.7,0.3,0.9
				c0.2,0.2,0.4,0.3,0.8,0.3c0.1,0,0.3,0,0.5-0.1c0,0,0,0,0,0c0.3-0.1,0.5,0.1,0.6,0.4l0,0c0.1,0.3-0.1,0.6-0.4,0.6
				c-0.1,0-0.2,0.1-0.3,0.1c-0.3,0.1-0.6,0.1-0.8,0.1c-0.5,0-1-0.2-1.3-0.5c-0.3-0.3-0.5-0.8-0.5-1.4v-11.4
				C13.5,213.8,13.7,213.5,14.1,213.5z"/>
			<path id="XMLID_766_" class="st0" d="M19.1,214.7v-0.6c0-0.4,0.3-0.6,0.6-0.6h0c0.3,0,0.6,0.3,0.6,0.6v0.6c0,0.4-0.3,0.6-0.6,0.6
				h0C19.3,215.4,19.1,215.1,19.1,214.7z M19.1,226.7v-8.6c0-0.4,0.3-0.6,0.6-0.6h0c0.3,0,0.6,0.3,0.6,0.6v8.6
				c0,0.4-0.3,0.6-0.6,0.6h0C19.3,227.3,19.1,227,19.1,226.7z"/>
			<path id="XMLID_764_" class="st0" d="M28,226.4c0.1,0.3,0,0.5-0.3,0.6c-0.1,0.1-0.3,0.1-0.4,0.1c-0.2,0.1-0.4,0.1-0.6,0.2
				c-0.2,0.1-0.5,0.1-0.7,0.1c-0.3,0-0.5,0-0.7-0.1c-0.2-0.1-0.4-0.2-0.6-0.3c-0.2-0.2-0.3-0.4-0.4-0.6c-0.1-0.2-0.2-0.5-0.2-0.8
				v-7.1h-0.8c-0.3,0-0.5-0.2-0.5-0.5l0,0c0-0.3,0.2-0.5,0.5-0.5h0.8v-2.7c0-0.4,0.3-0.6,0.6-0.6l0,0c0.3,0,0.6,0.3,0.6,0.6v2.7H27
				c0.3,0,0.5,0.2,0.5,0.5l0,0c0,0.3-0.2,0.5-0.5,0.5h-1.6v6.7c0,0.4,0.1,0.6,0.4,0.8c0.2,0.2,0.5,0.3,0.7,0.3
				c0.3,0,0.6-0.1,0.9-0.2c0,0,0,0,0,0C27.6,225.9,27.9,226.1,28,226.4L28,226.4z"/>
			<path id="XMLID_762_" class="st0" d="M34.7,226.4c0.1,0.3,0,0.6-0.3,0.7c-0.1,0.1-0.3,0.1-0.3,0.1c-0.2,0.1-0.4,0.1-0.6,0.2
				c-0.2,0.1-0.5,0.1-0.7,0.1c-0.3,0-0.5,0-0.7-0.1c-0.2-0.1-0.4-0.2-0.6-0.3c-0.2-0.2-0.3-0.4-0.4-0.6c-0.1-0.2-0.2-0.5-0.2-0.8
				v-7.1h-0.8c-0.3,0-0.5-0.2-0.5-0.5l0,0c0-0.3,0.2-0.5,0.5-0.5h0.8v-2.7c0-0.4,0.3-0.6,0.6-0.6h0c0.3,0,0.6,0.3,0.6,0.6v2.7h1.6
				c0.3,0,0.5,0.2,0.5,0.5l0,0c0,0.3-0.2,0.5-0.5,0.5h-1.6v6.7c0,0.4,0.1,0.6,0.4,0.8c0.2,0.2,0.5,0.3,0.7,0.3
				c0.3,0,0.6-0.1,0.9-0.2c0,0,0,0,0,0C34.3,225.9,34.6,226.1,34.7,226.4L34.7,226.4z"/>
			<path id="XMLID_760_" class="st0" d="M37.9,213.5L37.9,213.5c0.3,0,0.6,0.3,0.6,0.6v10.9c0,0.4,0.1,0.7,0.3,0.9
				c0.2,0.2,0.4,0.3,0.8,0.3c0.1,0,0.3,0,0.5-0.1c0,0,0,0,0,0c0.3-0.1,0.5,0.1,0.6,0.4l0,0c0.1,0.3-0.1,0.6-0.4,0.6
				c-0.1,0-0.2,0.1-0.3,0.1c-0.3,0.1-0.6,0.1-0.8,0.1c-0.5,0-1-0.2-1.3-0.5c-0.3-0.3-0.5-0.8-0.5-1.4v-11.4
				C37.3,213.8,37.6,213.5,37.9,213.5z"/>
			<path id="XMLID_757_" class="st0" d="M46.8,227.5c-0.7,0-1.3-0.1-1.8-0.4c-0.6-0.3-1-0.6-1.4-1.1c-0.4-0.5-0.7-1-1-1.6
				c-0.2-0.6-0.3-1.3-0.3-2c0-0.7,0.1-1.3,0.3-2c0.2-0.6,0.5-1.1,0.9-1.6c0.4-0.5,0.9-0.8,1.4-1.1c0.6-0.3,1.2-0.4,1.8-0.4
				c0.7,0,1.3,0.1,1.8,0.4c0.6,0.3,1.1,0.6,1.4,1.1c0.1,0.1,0.2,0.3,0.3,0.4c1,1.5-0.1,3.6-1.8,3.6h-5.1c0,0.5,0.1,1,0.3,1.5
				c0.2,0.4,0.4,0.8,0.7,1.2c0.3,0.3,0.7,0.6,1,0.8c0.4,0.2,0.8,0.3,1.3,0.3c0.3,0,0.6,0,0.9-0.1c0.3-0.1,0.6-0.2,0.8-0.4
				c0.2-0.2,0.5-0.3,0.7-0.6c0.1-0.1,0.2-0.3,0.3-0.4c0.1-0.2,0.4-0.3,0.6-0.2h0c0.4,0.1,0.5,0.6,0.3,0.9c-0.1,0.1-0.2,0.2-0.2,0.3
				c-0.3,0.3-0.6,0.6-0.9,0.8c-0.3,0.2-0.7,0.4-1.1,0.5C47.7,227.4,47.3,227.5,46.8,227.5z M48.5,221.9c0.9,0,1.5-1.1,1-1.9
				c-0.1-0.2-0.3-0.5-0.5-0.6c-0.3-0.3-0.6-0.6-1-0.7c-0.4-0.2-0.8-0.3-1.3-0.3c-0.4,0-0.9,0.1-1.3,0.3c-0.4,0.2-0.7,0.4-1,0.7
				c-0.3,0.3-0.5,0.7-0.7,1.1c-0.2,0.4-0.3,0.9-0.3,1.4H48.5z"/>
			<path id="XMLID_754_" class="st0" d="M4.5,245.5c-0.7,0-1.4-0.2-2-0.6c-0.6-0.4-1.1-0.9-1.4-1.5v1.3c0,0.3-0.2,0.6-0.5,0.6h0
				c-0.3,0-0.5-0.3-0.5-0.6v-12.6c0-0.4,0.3-0.6,0.6-0.6h0c0.3,0,0.6,0.3,0.6,0.6v5.4c0.4-0.7,0.9-1.2,1.5-1.6
				c0.6-0.4,1.2-0.6,2-0.6c0.6,0,1.2,0.1,1.7,0.4c0.5,0.3,0.9,0.7,1.3,1.2c0.4,0.5,0.6,1,0.8,1.6c0.2,0.6,0.3,1.2,0.3,1.9
				c0,0.7-0.1,1.3-0.3,2c-0.2,0.6-0.5,1.2-0.9,1.6c-0.4,0.5-0.8,0.8-1.4,1.1C5.6,245.3,5.1,245.5,4.5,245.5z M4.2,244.3
				c0.5,0,1-0.1,1.4-0.3c0.4-0.2,0.8-0.5,1.1-0.9c0.3-0.4,0.5-0.8,0.7-1.3c0.2-0.5,0.3-1,0.3-1.5c0-0.5-0.1-1-0.2-1.5
				c-0.2-0.5-0.4-0.9-0.7-1.3c-0.3-0.4-0.6-0.7-1-0.9c-0.4-0.2-0.8-0.3-1.3-0.3c-0.4,0-0.7,0.1-1,0.2c-0.3,0.1-0.6,0.3-0.9,0.5
				c-0.3,0.2-0.5,0.5-0.7,0.8c-0.2,0.3-0.4,0.6-0.5,0.9v3.1c0,0.3,0.2,0.7,0.4,1c0.2,0.3,0.4,0.6,0.7,0.8c0.3,0.2,0.6,0.4,0.9,0.5
				C3.6,244.3,3.9,244.3,4.2,244.3z"/>
			<path id="XMLID_752_" class="st0" d="M16.2,236c0,0.3-0.2,0.6-0.5,0.6c-0.6,0.1-1.1,0.3-1.6,0.7c-0.6,0.5-1,1.1-1.3,1.9v5.5
				c0,0.3-0.3,0.6-0.6,0.6h-0.1c-0.3,0-0.6-0.3-0.6-0.6V236c0-0.3,0.3-0.6,0.6-0.6h0c0.3,0,0.6,0.3,0.6,0.6v1.8
				c0.3-0.8,0.8-1.3,1.4-1.8c0.3-0.2,0.6-0.4,0.9-0.5c0.2,0,0.3-0.1,0.5-0.1C15.9,235.4,16.2,235.6,16.2,236L16.2,236z"/>
			<path id="XMLID_749_" class="st0" d="M24.5,243.6c-0.4,0.6-0.9,1-1.6,1.4c-0.6,0.3-1.3,0.5-2.1,0.5c-0.4,0-0.8-0.1-1.2-0.2
				c-0.4-0.2-0.7-0.4-1-0.7c-0.3-0.3-0.5-0.6-0.6-1c-0.2-0.4-0.2-0.8-0.2-1.2c0-0.4,0.1-0.8,0.3-1.2c0.2-0.4,0.4-0.7,0.8-0.9
				c0.3-0.3,0.7-0.5,1.2-0.6c0.5-0.1,1-0.2,1.5-0.2c0.5,0,0.9,0,1.4,0.1c0.5,0.1,0.9,0.2,1.3,0.4v-0.9c0-0.9-0.2-1.6-0.7-2.1
				c-0.5-0.5-1.1-0.8-1.9-0.8c-0.5,0-0.9,0.1-1.4,0.3c-0.4,0.1-0.7,0.3-1.1,0.6c-0.2,0.1-0.5,0.1-0.6-0.2l0,0
				c-0.1-0.2,0-0.5,0.2-0.6c1.1-0.7,2.1-1,3.1-1c1.1,0,2,0.3,2.7,1c0.7,0.7,1,1.7,1,2.9v4.4v1.1c0,0.3-0.2,0.6-0.5,0.6l0,0
				c-0.3,0-0.5-0.3-0.5-0.6L24.5,243.6z M21.1,244.5c0.6,0,1.2-0.1,1.7-0.4c0.5-0.3,0.9-0.6,1.2-1c0.1-0.1,0.2-0.2,0.2-0.4
				c0.1-0.1,0.1-0.3,0.1-0.4v-1.6c-0.4-0.2-0.8-0.3-1.2-0.4c-0.4-0.1-0.9-0.1-1.3-0.1c-0.8,0-1.5,0.2-2,0.6
				c-0.5,0.4-0.8,0.9-0.8,1.5c0,0.3,0.1,0.6,0.2,0.9c0.1,0.3,0.3,0.5,0.5,0.7c0.2,0.2,0.4,0.3,0.7,0.5
				C20.6,244.4,20.8,244.5,21.1,244.5z"/>
			<path id="XMLID_746_" class="st0" d="M63,243.6c-0.4,0.6-0.9,1-1.6,1.4c-0.6,0.3-1.3,0.5-2.1,0.5c-0.4,0-0.8-0.1-1.2-0.2
				c-0.4-0.2-0.7-0.4-1-0.7c-0.3-0.3-0.5-0.6-0.6-1c-0.2-0.4-0.2-0.8-0.2-1.2c0-0.4,0.1-0.8,0.3-1.2c0.2-0.4,0.4-0.7,0.8-0.9
				c0.3-0.3,0.7-0.5,1.2-0.6c0.5-0.1,1-0.2,1.5-0.2c0.5,0,0.9,0,1.4,0.1c0.5,0.1,0.9,0.2,1.3,0.4v-0.9c0-0.9-0.2-1.6-0.7-2.1
				c-0.5-0.5-1.1-0.8-1.9-0.8c-0.5,0-0.9,0.1-1.4,0.3c-0.4,0.1-0.7,0.3-1.1,0.6c-0.2,0.1-0.5,0.1-0.6-0.2l0,0
				c-0.1-0.2,0-0.5,0.2-0.6c1.1-0.7,2.1-1,3.1-1c1.1,0,2,0.3,2.7,1c0.7,0.7,1,1.7,1,2.9v4.4v1.1c0,0.3-0.2,0.6-0.5,0.6l0,0
				c-0.3,0-0.5-0.3-0.5-0.6L63,243.6z M59.6,244.5c0.6,0,1.2-0.1,1.7-0.4c0.5-0.3,0.9-0.6,1.2-1c0.1-0.1,0.2-0.2,0.2-0.4
				c0.1-0.1,0.1-0.3,0.1-0.4v-1.6c-0.4-0.2-0.8-0.3-1.2-0.4c-0.4-0.1-0.9-0.1-1.3-0.1c-0.8,0-1.5,0.2-2,0.6
				c-0.5,0.4-0.8,0.9-0.8,1.5c0,0.3,0.1,0.6,0.2,0.9c0.1,0.3,0.3,0.5,0.5,0.7c0.2,0.2,0.4,0.3,0.7,0.5
				C59,244.4,59.3,244.5,59.6,244.5z"/>
			<path id="XMLID_744_" class="st0" d="M36.1,245.3L36.1,245.3c-0.3,0-0.6-0.3-0.6-0.6v-4.9c0-1.1-0.2-2-0.5-2.5
				c-0.4-0.6-0.9-0.8-1.6-0.8c-0.3,0-0.7,0.1-1,0.2c-0.3,0.1-0.6,0.3-0.9,0.6c-0.3,0.3-0.5,0.5-0.8,0.9c-0.2,0.3-0.4,0.7-0.5,1.1
				v5.4c0,0.4-0.3,0.6-0.6,0.6l0,0c-0.3,0-0.6-0.3-0.6-0.6v-12.5c0-0.4,0.3-0.6,0.6-0.6l0,0c0.3,0,0.6,0.3,0.6,0.6v5.5
				c0.4-0.7,0.9-1.3,1.5-1.8c0.6-0.4,1.3-0.6,2.1-0.6c0.5,0,1,0.1,1.3,0.3c0.4,0.2,0.7,0.5,0.9,0.9c0.2,0.4,0.4,0.8,0.5,1.3
				c0.1,0.5,0.2,1.1,0.2,1.7v5.1C36.7,245,36.4,245.3,36.1,245.3z"/>
			<path id="XMLID_742_" class="st0" d="M53,245.3L53,245.3c-0.3,0-0.6-0.3-0.6-0.6v-4.9c0-1.1-0.2-2-0.5-2.5
				c-0.3-0.5-0.8-0.8-1.5-0.8c-0.4,0-0.7,0.1-1,0.2c-0.3,0.1-0.6,0.3-0.9,0.6c-0.3,0.3-0.5,0.6-0.7,0.9c-0.2,0.3-0.4,0.7-0.5,1.1
				v5.4c0,0.4-0.3,0.6-0.6,0.6l0,0c-0.3,0-0.6-0.3-0.6-0.6v-4.9c0-1.2-0.2-2-0.5-2.6c-0.3-0.5-0.8-0.8-1.5-0.8
				c-0.7,0-1.3,0.3-1.8,0.8c-0.5,0.5-0.9,1.2-1.2,2v5.4c0,0.4-0.3,0.6-0.6,0.6l0,0c-0.3,0-0.6-0.3-0.6-0.6V236
				c0-0.3,0.2-0.6,0.5-0.6l0,0c0.3,0,0.5,0.3,0.5,0.6v1.6c0.4-0.8,0.9-1.3,1.5-1.8c0.6-0.4,1.3-0.6,2-0.6c0.8,0,1.4,0.2,1.8,0.7
				c0.5,0.5,0.7,1.1,0.8,1.8c0.9-1.7,2-2.5,3.5-2.5c0.5,0,0.9,0.1,1.3,0.3c0.4,0.2,0.6,0.5,0.9,0.9c0.2,0.4,0.4,0.8,0.5,1.3
				c0.1,0.5,0.1,1.1,0.1,1.7v5.1C53.6,245,53.4,245.3,53,245.3z"/>
		</g>
	</g>
</g>
<g id="XMLID_735_">
	<line id="XMLID_738_" class="st1" x1="180" y1="234.7" x2="202" y2="234.7"/>
	<line id="XMLID_737_" class="st1" x1="180" y1="227.2" x2="202" y2="227.2"/>
	<line id="XMLID_736_" class="st1" x1="180" y1="219.7" x2="202" y2="219.7"/>
</g>
<g id="XMLID_5_">
	<g id="XMLID_6_">
		<g id="XMLID_37_">
			<path id="XMLID_39_" class="st2" d="M37.9,50.9c-2,1.3-4.3,2-6.8,2c-7.4,0-13.4-6.3-13.4-14.5c0-8,3.2-13.8,6.4-20.4
				C28.8,8.1,30.6,4.6,31,0c0,0,2.2,2.9,1.9,6.9c-0.2,2.8-1.9,7.7-4,13.1c-1.7,4.4-3.6,8.8-4.6,12.3c-1,3.6-1.1,6-0.4,9
				c0.2,1.1,0.6,2.2,1.1,3.2C28.8,51.5,37.2,51,37.9,50.9L37.9,50.9z"/>
			<path id="XMLID_38_" class="st2" d="M37.6,33c2.1,1.6,2,3.8,2,3.8c0,2.5-1.9,4.5-4.2,4.5s-4.2-2-4.2-4.5c0-0.3,0.1-0.9,0.1-0.9
				c0.7-3.7,4-10.7,5-15.3c1.1-4.9-1.9-9.6-1.9-9.6s0.7,1.7-3.7,12.4c-2,4.9-3.3,8.1-3.9,10c-0.7,2.1-0.7,3.7-0.7,4.3
				c0,5.5,4.1,9.9,9.2,9.9c5,0,9.1-4.5,9.1-9.9c0-5.4-4.3-8.8-6.9-10.5c-1.5-1-1.5-2.6-1.5-2.6l-0.7,2.3c-0.7,2.6,0.2,4.5,1.9,5.8
				C37.4,32.8,37.5,32.9,37.6,33z"/>
		</g>
		<g id="XMLID_7_">
			<path id="XMLID_35_" class="st2" d="M14.1,56.5L14.1,56.5c0.3,0,0.6,0.3,0.6,0.6v10.9c0,0.4,0.1,0.7,0.3,0.9
				c0.2,0.2,0.4,0.3,0.8,0.3c0.1,0,0.3,0,0.5-0.1c0,0,0,0,0,0c0.3-0.1,0.5,0.1,0.6,0.4l0,0c0.1,0.3-0.1,0.6-0.4,0.6
				c-0.1,0-0.2,0.1-0.3,0.1c-0.3,0.1-0.6,0.1-0.8,0.1c-0.5,0-1-0.2-1.3-0.5c-0.3-0.3-0.5-0.8-0.5-1.4V57.1
				C13.5,56.8,13.7,56.5,14.1,56.5z"/>
			<path id="XMLID_32_" class="st2" d="M19.1,57.7v-0.6c0-0.4,0.3-0.6,0.6-0.6h0c0.3,0,0.6,0.3,0.6,0.6v0.6c0,0.4-0.3,0.6-0.6,0.6h0
				C19.3,58.4,19.1,58.1,19.1,57.7z M19.1,69.7v-8.6c0-0.4,0.3-0.6,0.6-0.6h0c0.3,0,0.6,0.3,0.6,0.6v8.6c0,0.4-0.3,0.6-0.6,0.6h0
				C19.3,70.3,19.1,70,19.1,69.7z"/>
			<path id="XMLID_30_" class="st2" d="M28,69.4c0.1,0.3,0,0.5-0.3,0.6c-0.1,0.1-0.3,0.1-0.4,0.1c-0.2,0.1-0.4,0.1-0.6,0.2
				c-0.2,0.1-0.5,0.1-0.7,0.1c-0.3,0-0.5,0-0.7-0.1c-0.2-0.1-0.4-0.2-0.6-0.3c-0.2-0.2-0.3-0.4-0.4-0.6c-0.1-0.2-0.2-0.5-0.2-0.8
				v-7.1h-0.8c-0.3,0-0.5-0.2-0.5-0.5l0,0c0-0.3,0.2-0.5,0.5-0.5h0.8v-2.7c0-0.4,0.3-0.6,0.6-0.6l0,0c0.3,0,0.6,0.3,0.6,0.6v2.7H27
				c0.3,0,0.5,0.2,0.5,0.5l0,0c0,0.3-0.2,0.5-0.5,0.5h-1.6v6.7c0,0.4,0.1,0.6,0.4,0.8c0.2,0.2,0.5,0.3,0.7,0.3
				c0.3,0,0.6-0.1,0.9-0.2c0,0,0,0,0,0C27.6,68.9,27.9,69.1,28,69.4L28,69.4z"/>
			<path id="XMLID_28_" class="st2" d="M34.7,69.4c0.1,0.3,0,0.6-0.3,0.7c-0.1,0.1-0.3,0.1-0.3,0.1c-0.2,0.1-0.4,0.1-0.6,0.2
				c-0.2,0.1-0.5,0.1-0.7,0.1c-0.3,0-0.5,0-0.7-0.1c-0.2-0.1-0.4-0.2-0.6-0.3c-0.2-0.2-0.3-0.4-0.4-0.6c-0.1-0.2-0.2-0.5-0.2-0.8
				v-7.1h-0.8c-0.3,0-0.5-0.2-0.5-0.5l0,0c0-0.3,0.2-0.5,0.5-0.5h0.8v-2.7c0-0.4,0.3-0.6,0.6-0.6h0c0.3,0,0.6,0.3,0.6,0.6v2.7h1.6
				c0.3,0,0.5,0.2,0.5,0.5l0,0c0,0.3-0.2,0.5-0.5,0.5h-1.6v6.7c0,0.4,0.1,0.6,0.4,0.8c0.2,0.2,0.5,0.3,0.7,0.3
				c0.3,0,0.6-0.1,0.9-0.2c0,0,0,0,0,0C34.3,68.9,34.6,69.1,34.7,69.4L34.7,69.4z"/>
			<path id="XMLID_26_" class="st2" d="M37.9,56.5L37.9,56.5c0.3,0,0.6,0.3,0.6,0.6v10.9c0,0.4,0.1,0.7,0.3,0.9
				c0.2,0.2,0.4,0.3,0.8,0.3c0.1,0,0.3,0,0.5-0.1c0,0,0,0,0,0c0.3-0.1,0.5,0.1,0.6,0.4l0,0c0.1,0.3-0.1,0.6-0.4,0.6
				c-0.1,0-0.2,0.1-0.3,0.1c-0.3,0.1-0.6,0.1-0.8,0.1c-0.5,0-1-0.2-1.3-0.5c-0.3-0.3-0.5-0.8-0.5-1.4V57.1
				C37.3,56.8,37.6,56.5,37.9,56.5z"/>
			<path id="XMLID_23_" class="st2" d="M46.8,70.5c-0.7,0-1.3-0.1-1.8-0.4c-0.6-0.3-1-0.6-1.4-1.1c-0.4-0.5-0.7-1-1-1.6
				c-0.2-0.6-0.3-1.3-0.3-2c0-0.7,0.1-1.3,0.3-2c0.2-0.6,0.5-1.1,0.9-1.6c0.4-0.5,0.9-0.8,1.4-1.1c0.6-0.3,1.2-0.4,1.8-0.4
				c0.7,0,1.3,0.1,1.8,0.4c0.6,0.3,1.1,0.6,1.4,1.1c0.1,0.1,0.2,0.3,0.3,0.4c1,1.5-0.1,3.6-1.8,3.6h-5.1c0,0.5,0.1,1,0.3,1.5
				c0.2,0.4,0.4,0.8,0.7,1.2c0.3,0.3,0.7,0.6,1,0.8c0.4,0.2,0.8,0.3,1.3,0.3c0.3,0,0.6,0,0.9-0.1c0.3-0.1,0.6-0.2,0.8-0.4
				c0.2-0.2,0.5-0.3,0.7-0.6c0.1-0.1,0.2-0.3,0.3-0.4c0.1-0.2,0.4-0.3,0.6-0.2h0c0.4,0.1,0.5,0.6,0.3,0.9c-0.1,0.1-0.2,0.2-0.2,0.3
				c-0.3,0.3-0.6,0.6-0.9,0.8c-0.3,0.2-0.7,0.4-1.1,0.5C47.7,70.4,47.3,70.5,46.8,70.5z M48.5,64.9c0.9,0,1.5-1.1,1-1.9
				c-0.1-0.2-0.3-0.5-0.5-0.6c-0.3-0.3-0.6-0.6-1-0.7c-0.4-0.2-0.8-0.3-1.3-0.3c-0.4,0-0.9,0.1-1.3,0.3c-0.4,0.2-0.7,0.4-1,0.7
				c-0.3,0.3-0.5,0.7-0.7,1.1c-0.2,0.4-0.3,0.9-0.3,1.4H48.5z"/>
			<path id="XMLID_20_" class="st2" d="M4.5,88.5c-0.7,0-1.4-0.2-2-0.6c-0.6-0.4-1.1-0.9-1.4-1.5v1.3c0,0.3-0.2,0.6-0.5,0.6h0
				C0.2,88.3,0,88,0,87.7V75.1c0-0.4,0.3-0.6,0.6-0.6h0c0.3,0,0.6,0.3,0.6,0.6v5.4c0.4-0.7,0.9-1.2,1.5-1.6c0.6-0.4,1.2-0.6,2-0.6
				c0.6,0,1.2,0.1,1.7,0.4c0.5,0.3,0.9,0.7,1.3,1.2c0.4,0.5,0.6,1,0.8,1.6c0.2,0.6,0.3,1.2,0.3,1.9c0,0.7-0.1,1.3-0.3,2
				C8.2,86,7.9,86.5,7.5,87c-0.4,0.5-0.8,0.8-1.4,1.1C5.6,88.3,5.1,88.5,4.5,88.5z M4.2,87.3c0.5,0,1-0.1,1.4-0.3
				c0.4-0.2,0.8-0.5,1.1-0.9c0.3-0.4,0.5-0.8,0.7-1.3c0.2-0.5,0.3-1,0.3-1.5c0-0.5-0.1-1-0.2-1.5C7.2,81.4,7,81,6.7,80.6
				c-0.3-0.4-0.6-0.7-1-0.9c-0.4-0.2-0.8-0.3-1.3-0.3c-0.4,0-0.7,0.1-1,0.2c-0.3,0.1-0.6,0.3-0.9,0.5c-0.3,0.2-0.5,0.5-0.7,0.8
				c-0.2,0.3-0.4,0.6-0.5,0.9v3.1c0,0.3,0.2,0.7,0.4,1c0.2,0.3,0.4,0.6,0.7,0.8c0.3,0.2,0.6,0.4,0.9,0.5C3.6,87.3,3.9,87.3,4.2,87.3
				z"/>
			<path id="XMLID_18_" class="st2" d="M16.2,79c0,0.3-0.2,0.6-0.5,0.6c-0.6,0.1-1.1,0.3-1.6,0.7c-0.6,0.5-1,1.1-1.3,1.9v5.5
				c0,0.3-0.3,0.6-0.6,0.6h-0.1c-0.3,0-0.6-0.3-0.6-0.6V79c0-0.3,0.3-0.6,0.6-0.6h0c0.3,0,0.6,0.3,0.6,0.6v1.8
				c0.3-0.8,0.8-1.3,1.4-1.8c0.3-0.2,0.6-0.4,0.9-0.5c0.2,0,0.3-0.1,0.5-0.1C15.9,78.4,16.2,78.6,16.2,79L16.2,79z"/>
			<path id="XMLID_15_" class="st2" d="M24.5,86.6c-0.4,0.6-0.9,1-1.6,1.4c-0.6,0.3-1.3,0.5-2.1,0.5c-0.4,0-0.8-0.1-1.2-0.2
				s-0.7-0.4-1-0.7c-0.3-0.3-0.5-0.6-0.6-1c-0.2-0.4-0.2-0.8-0.2-1.2c0-0.4,0.1-0.8,0.3-1.2c0.2-0.4,0.4-0.7,0.8-0.9
				c0.3-0.3,0.7-0.5,1.2-0.6c0.5-0.1,1-0.2,1.5-0.2c0.5,0,0.9,0,1.4,0.1c0.5,0.1,0.9,0.2,1.3,0.4v-0.9c0-0.9-0.2-1.6-0.7-2.1
				c-0.5-0.5-1.1-0.8-1.9-0.8c-0.5,0-0.9,0.1-1.4,0.3c-0.4,0.1-0.7,0.3-1.1,0.6c-0.2,0.1-0.5,0.1-0.6-0.2l0,0
				c-0.1-0.2,0-0.5,0.2-0.6c1.1-0.7,2.1-1,3.1-1c1.1,0,2,0.3,2.7,1c0.7,0.7,1,1.7,1,2.9v4.4v1.1c0,0.3-0.2,0.6-0.5,0.6l0,0
				c-0.3,0-0.5-0.3-0.5-0.6L24.5,86.6z M21.1,87.5c0.6,0,1.2-0.1,1.7-0.4c0.5-0.3,0.9-0.6,1.2-1c0.1-0.1,0.2-0.2,0.2-0.4
				c0.1-0.1,0.1-0.3,0.1-0.4v-1.6c-0.4-0.2-0.8-0.3-1.2-0.4c-0.4-0.1-0.9-0.1-1.3-0.1c-0.8,0-1.5,0.2-2,0.6
				c-0.5,0.4-0.8,0.9-0.8,1.5c0,0.3,0.1,0.6,0.2,0.9c0.1,0.3,0.3,0.5,0.5,0.7c0.2,0.2,0.4,0.3,0.7,0.5
				C20.6,87.4,20.8,87.5,21.1,87.5z"/>
			<path id="XMLID_12_" class="st2" d="M63,86.6c-0.4,0.6-0.9,1-1.6,1.4c-0.6,0.3-1.3,0.5-2.1,0.5c-0.4,0-0.8-0.1-1.2-0.2
				s-0.7-0.4-1-0.7c-0.3-0.3-0.5-0.6-0.6-1c-0.2-0.4-0.2-0.8-0.2-1.2c0-0.4,0.1-0.8,0.3-1.2c0.2-0.4,0.4-0.7,0.8-0.9
				c0.3-0.3,0.7-0.5,1.2-0.6c0.5-0.1,1-0.2,1.5-0.2c0.5,0,0.9,0,1.4,0.1c0.5,0.1,0.9,0.2,1.3,0.4v-0.9c0-0.9-0.2-1.6-0.7-2.1
				c-0.5-0.5-1.1-0.8-1.9-0.8c-0.5,0-0.9,0.1-1.4,0.3c-0.4,0.1-0.7,0.3-1.1,0.6c-0.2,0.1-0.5,0.1-0.6-0.2l0,0
				c-0.1-0.2,0-0.5,0.2-0.6c1.1-0.7,2.1-1,3.1-1c1.1,0,2,0.3,2.7,1c0.7,0.7,1,1.7,1,2.9v4.4v1.1c0,0.3-0.2,0.6-0.5,0.6l0,0
				c-0.3,0-0.5-0.3-0.5-0.6L63,86.6z M59.6,87.5c0.6,0,1.2-0.1,1.7-0.4c0.5-0.3,0.9-0.6,1.2-1c0.1-0.1,0.2-0.2,0.2-0.4
				c0.1-0.1,0.1-0.3,0.1-0.4v-1.6c-0.4-0.2-0.8-0.3-1.2-0.4c-0.4-0.1-0.9-0.1-1.3-0.1c-0.8,0-1.5,0.2-2,0.6
				c-0.5,0.4-0.8,0.9-0.8,1.5c0,0.3,0.1,0.6,0.2,0.9c0.1,0.3,0.3,0.5,0.5,0.7c0.2,0.2,0.4,0.3,0.7,0.5C59,87.4,59.3,87.5,59.6,87.5z
				"/>
			<path id="XMLID_10_" class="st2" d="M36.1,88.3L36.1,88.3c-0.3,0-0.6-0.3-0.6-0.6v-4.9c0-1.1-0.2-2-0.5-2.5
				c-0.4-0.6-0.9-0.8-1.6-0.8c-0.3,0-0.7,0.1-1,0.2c-0.3,0.1-0.6,0.3-0.9,0.6c-0.3,0.3-0.5,0.5-0.8,0.9c-0.2,0.3-0.4,0.7-0.5,1.1
				v5.4c0,0.4-0.3,0.6-0.6,0.6l0,0c-0.3,0-0.6-0.3-0.6-0.6V75.1c0-0.4,0.3-0.6,0.6-0.6l0,0c0.3,0,0.6,0.3,0.6,0.6v5.5
				c0.4-0.7,0.9-1.3,1.5-1.8c0.6-0.4,1.3-0.6,2.1-0.6c0.5,0,1,0.1,1.3,0.3c0.4,0.2,0.7,0.5,0.9,0.9c0.2,0.4,0.4,0.8,0.5,1.3
				c0.1,0.5,0.2,1.1,0.2,1.7v5.1C36.7,88,36.4,88.3,36.1,88.3z"/>
			<path id="XMLID_8_" class="st2" d="M53,88.3L53,88.3c-0.3,0-0.6-0.3-0.6-0.6v-4.9c0-1.1-0.2-2-0.5-2.5c-0.3-0.5-0.8-0.8-1.5-0.8
				c-0.4,0-0.7,0.1-1,0.2c-0.3,0.1-0.6,0.3-0.9,0.6c-0.3,0.3-0.5,0.6-0.7,0.9c-0.2,0.3-0.4,0.7-0.5,1.1v5.4c0,0.4-0.3,0.6-0.6,0.6
				l0,0c-0.3,0-0.6-0.3-0.6-0.6v-4.9c0-1.2-0.2-2-0.5-2.6c-0.3-0.5-0.8-0.8-1.5-0.8c-0.7,0-1.3,0.3-1.8,0.8c-0.5,0.5-0.9,1.2-1.2,2
				v5.4c0,0.4-0.3,0.6-0.6,0.6l0,0c-0.3,0-0.6-0.3-0.6-0.6V79c0-0.3,0.2-0.6,0.5-0.6l0,0c0.3,0,0.5,0.3,0.5,0.6v1.6
				c0.4-0.8,0.9-1.3,1.5-1.8c0.6-0.4,1.3-0.6,2-0.6c0.8,0,1.4,0.2,1.8,0.7c0.5,0.5,0.7,1.1,0.8,1.8c0.9-1.7,2-2.5,3.5-2.5
				c0.5,0,0.9,0.1,1.3,0.3c0.4,0.2,0.6,0.5,0.9,0.9c0.2,0.4,0.4,0.8,0.5,1.3c0.1,0.5,0.1,1.1,0.1,1.7v5.1C53.6,88,53.4,88.3,53,88.3
				z"/>
		</g>
	</g>
</g>
<g id="XMLID_1_">
	<line id="XMLID_4_" class="st3" x1="180" y1="77.7" x2="202" y2="77.7"/>
	<line id="XMLID_3_" class="st3" x1="180" y1="70.2" x2="202" y2="70.2"/>
	<line id="XMLID_2_" class="st3" x1="180" y1="62.7" x2="202" y2="62.7"/>
</g>
</svg>
