<?xml version="1.0" encoding="utf-8"?>
<!-- Generator: Adobe Illustrator 21.1.0, SVG Export Plug-In . SVG Version: 6.00 Build 0)  -->
<svg version="1.1" id="Layer_1" xmlns="http://www.w3.org/2000/svg" xmlns:xlink="http://www.w3.org/1999/xlink" x="0px" y="0px"
	 viewBox="0 0 123 47" style="enable-background:new 0 0 123 47;" xml:space="preserve">
<style type="text/css">
	.st0{fill:#8F8FD1;}
	.st1{fill:#F15379;}
</style>
<g>
	<g id="Behance_1_">
		<path class="st0" d="M68.4,18.5h-8.1V0.6h8.7c2.2,0,3.8,0.7,4.7,2c0.6,0.8,0.9,1.7,0.9,2.8c0,1.1-0.3,2.1-0.9,2.8
			c-0.2,0.3-0.5,0.5-0.8,0.7c0.6,0.3,1.1,0.8,1.5,1.4c0.5,0.7,0.7,1.7,0.7,2.7c0,1.1-0.3,2.1-0.8,2.9c-0.3,0.6-0.8,1.1-1.3,1.4
			c-0.6,0.4-1.3,0.8-2.1,0.9C70.1,18.4,69.3,18.5,68.4,18.5z M61,17.8h7.4c0.8,0,1.6-0.1,2.4-0.2c0.7-0.1,1.3-0.4,1.8-0.8
			c0.4-0.3,0.8-0.8,1.1-1.3c0.5-0.7,0.7-1.6,0.7-2.6c0-0.9-0.2-1.7-0.6-2.3l0,0c-0.4-0.6-1-1.1-1.8-1.4L71.2,9l0.7-0.4
			c0.5-0.3,0.9-0.6,1.2-0.9c0.5-0.6,0.7-1.3,0.7-2.3c0-0.9-0.2-1.8-0.7-2.4c-0.8-1.1-2.2-1.7-4.2-1.7h-8V17.8z M82.3,18.4
			c-1.7,0-3.2-0.5-4.6-1.6c-1.3-1.1-2-2.8-2-5.2c0-2.2,0.6-4,1.8-5.2c1.2-1.2,2.8-1.8,4.7-1.8c1.1,0,2.1,0.2,3,0.6
			c0.9,0.4,1.7,1.1,2.3,1.9c0.5,0.8,0.9,1.7,1,2.7l0,0c0.1,0.6,0.1,1.4,0.1,2.5l0,0.3h-8.9c0.1,0.9,0.5,1.6,1.1,1.9
			c0.4,0.3,1,0.4,1.6,0.4c0.7,0,1.2-0.2,1.6-0.5c0.2-0.2,0.4-0.4,0.6-0.7l0.1-0.2h3.9l0,0.4c-0.1,0.8-0.5,1.6-1.3,2.4
			C86,17.8,84.4,18.4,82.3,18.4z M82.2,5.3c-1.7,0-3.1,0.5-4.2,1.6c-1.1,1.1-1.6,2.6-1.6,4.7c0,2.2,0.6,3.7,1.8,4.7
			c1.2,1,2.6,1.4,4.1,1.4c1.9,0,3.3-0.6,4.4-1.7c0.5-0.6,0.9-1.1,1-1.6H85c-0.2,0.3-0.4,0.6-0.6,0.8c-0.5,0.4-1.2,0.6-2,0.6
			c-0.8,0-1.4-0.2-2-0.5c-0.9-0.6-1.4-1.5-1.5-2.9l0-0.4h9c0-0.9,0-1.5-0.1-2c-0.1-0.9-0.5-1.7-0.9-2.4c-0.5-0.8-1.2-1.3-2-1.7
			C84.1,5.5,83.2,5.3,82.2,5.3z M68.2,15.5h-4v-5.3h4c0.8,0,1.4,0.1,1.9,0.3c0.8,0.4,1.3,1.1,1.3,2.2c0,1.2-0.4,2-1.3,2.5
			C69.7,15.4,69,15.5,68.2,15.5z M64.9,14.8h3.3c0.7,0,1.2-0.1,1.6-0.3c0.6-0.3,0.9-0.9,0.9-1.8c0-0.8-0.3-1.3-0.9-1.5
			C69.5,11,69,11,68.3,10.9h-3.3V14.8z M85.3,10.6H79l0.1-0.4c0.1-0.9,0.4-1.6,1-2.1c0.5-0.5,1.3-0.8,2.2-0.8c0.8,0,1.6,0.3,2.1,0.8
			c0.6,0.5,0.9,1.2,1,2.2L85.3,10.6z M79.8,9.9h4.7c-0.1-0.6-0.3-1-0.7-1.3c-0.5-0.4-1-0.6-1.7-0.6c-0.7,0-1.3,0.2-1.7,0.6
			C80.2,8.9,79.9,9.4,79.8,9.9z M68.2,8.1h-4V3.6h3.6c0.9,0,1.6,0.1,2.1,0.3c0.5,0.2,1.2,0.7,1.2,1.9c0,0.9-0.3,1.5-0.9,1.8
			C69.7,7.9,69,8.1,68.2,8.1z M64.9,7.4h3.3c0.7,0,1.2-0.1,1.6-0.4c0.4-0.2,0.5-0.6,0.5-1.2c0-0.9-0.4-1.1-0.7-1.3
			c-0.5-0.2-1.1-0.2-1.9-0.2h-2.9V7.4z M86,3.8h-7.6V1.3H86V3.8z M79,3.1h6.2V2H79V3.1z"/>
	</g>
</g>
<g>
	<g id="XMLID_14_">
		<path class="st0" d="M107.1,18.5c-2.2,0-4.4-0.6-6.3-1.7c-0.3-0.2-0.4-0.5-0.3-0.8c0.1-0.3,0.4-0.5,0.7-0.5h0.5
			c1.3,0,2.6-0.3,3.7-0.9c-1.4-0.5-2.5-1.6-3-3.1c-0.1-0.2,0-0.4,0.1-0.6c0,0,0.1-0.1,0.1-0.1c-1.1-0.9-1.8-2.3-1.8-3.8
			c0-0.2,0.1-0.4,0.3-0.5c0.1-0.1,0.3-0.1,0.4-0.1c-0.4-0.7-0.6-1.5-0.6-2.4c0-0.8,0.2-1.7,0.7-2.4c0.1-0.2,0.3-0.3,0.5-0.3
			c0.2,0,0.4,0.1,0.5,0.2c1.9,2.3,4.6,3.8,7.6,4.1c0-0.5,0-1,0.1-1.5c0.4-1.6,1.6-2.9,3.1-3.4c1.7-0.5,3.4-0.1,4.7,1
			c0,0,0.1,0.1,0.2,0.1c0.8-0.2,1.5-0.5,2.1-0.9c0.2-0.1,0.5-0.1,0.7,0c0.2,0.2,0.3,0.4,0.2,0.6c-0.1,0.4-0.3,0.7-0.5,1.1
			c0.1,0,0.2-0.1,0.3-0.1v0c0.2-0.1,0.5,0,0.7,0.2c0.2,0.2,0.2,0.5,0,0.7c-0.5,0.8-1.1,1.4-1.8,2c-0.1,0.1-0.2,0.2-0.2,0.3
			c0,1.5-0.3,3.1-0.8,4.5c-0.6,1.5-1.4,2.9-2.4,4c-1.1,1.3-2.5,2.3-4,3C110.9,18.1,109.1,18.5,107.1,18.5z M101.2,16.2
			c1.8,1,3.9,1.6,6,1.6c1.8,0,3.6-0.4,5.1-1.1c1.4-0.7,2.7-1.6,3.7-2.8c1-1.1,1.8-2.4,2.3-3.8c0.5-1.4,0.8-2.8,0.8-4.2
			c0-0.4,0.2-0.7,0.4-0.9c0.6-0.4,1-1,1.5-1.5c-0.4,0.1-0.7,0.3-1.1,0.3l-1.3,0.3l0.9-0.9c0.4-0.4,0.8-0.9,1-1.4
			c-0.6,0.3-1.3,0.6-2,0.8c-0.3,0.1-0.6,0-0.8-0.2c-1.1-0.9-2.6-1.3-4-0.8c-1.3,0.4-2.4,1.5-2.7,2.9c-0.1,0.5-0.2,1-0.1,1.5
			c0,0.1,0,0.3-0.1,0.4c-0.1,0.1-0.2,0.2-0.4,0.2c-3.2-0.3-6.1-1.8-8.2-4.3c-0.3,0.6-0.5,1.2-0.5,1.9c0,1.1,0.4,2.1,1.2,2.9l0.9,0.9
			l-1.2-0.3c-0.3-0.1-0.6-0.2-0.9-0.3c0.1,1.5,1,2.9,2.4,3.6l1.4,0.6l-1.7,0c-0.2,0-0.4,0-0.6,0c0.5,1.4,1.7,2.4,3.2,2.6l0.9,0.1
			l-0.7,0.5c-1.4,1-3.1,1.5-4.8,1.5H101.2z M102,2.1C102,2.1,102,2.1,102,2.1C102,2.1,102,2.1,102,2.1z"/>
	</g>
</g>
<g>
	<g id="XMLID_9_">
		<path class="st0" d="M38.4,18.5c-4.9,0-8.9-4-8.9-8.9c0-4.9,4-8.9,8.9-8.9s8.9,4,8.9,8.9C47.3,14.5,43.3,18.5,38.4,18.5z
			 M38.4,1.3c-4.5,0-8.2,3.7-8.2,8.2s3.7,8.2,8.2,8.2s8.2-3.7,8.2-8.2S42.9,1.3,38.4,1.3z"/>
	</g>
	<g id="XMLID_7_">
		<path class="st0" d="M40.9,18.2l-0.7-0.1c0.9-9.2-6.3-15.5-6.4-15.6L34.3,2C34.3,2.1,41.8,8.6,40.9,18.2z"/>
	</g>
	<g id="XMLID_6_">
		<path class="st0" d="M33.6,16.6L33,16.3c0-0.1,3.7-7.7,14-7.1l0,0.7C37.1,9.3,33.6,16.5,33.6,16.6z"/>
	</g>
	<g id="XMLID_5_">
		<path class="st0" d="M31,9.4c-0.7,0-1.2,0-1.2,0l0.1-0.7c0.1,0,8.5,0.8,14.3-5.3l0.5,0.5C40,8.8,33.6,9.4,31,9.4z"/>
	</g>
</g>
<g>
	<g id="XMLID_298_">
		<path class="st0" d="M15.8,18.5H4.2c-1.7,0-3.1-1.4-3.1-3.1V3.7c0-1.7,1.4-3.1,3.1-3.1h11.6c1.7,0,3.1,1.4,3.1,3.1v11.7
			C18.9,17.1,17.5,18.5,15.8,18.5z M4.2,1.3c-1.3,0-2.4,1.1-2.4,2.4v11.7c0,1.3,1.1,2.4,2.4,2.4h11.6c1.3,0,2.4-1.1,2.4-2.4V3.7
			c0-1.3-1.1-2.4-2.4-2.4H4.2z"/>
	</g>
	<g id="XMLID_296_">
		<path class="st0" d="M11.7,13.7H8.4c-1.3,0-2.4-1.1-2.4-2.4V7.9c0-1.3,1.1-2.4,2.4-2.4h3.3c1.3,0,2.4,1.1,2.4,2.4v3.4
			C14.1,12.6,13,13.7,11.7,13.7z M8.4,6.1c-1,0-1.7,0.8-1.7,1.7v3.4c0,1,0.8,1.7,1.7,1.7h3.3c1,0,1.7-0.8,1.7-1.7V7.9
			c0-1-0.8-1.7-1.7-1.7H8.4z"/>
	</g>
	<g id="XMLID_229_">
		<path class="st0" d="M11.7,13.7H8.4c-1.3,0-2.4-1.1-2.4-2.4V7.9c0-1.3,1.1-2.4,2.4-2.4h3.3c1.3,0,2.4,1.1,2.4,2.4v3.4
			C14.1,12.6,13,13.7,11.7,13.7z M8.4,6.1c-1,0-1.7,0.8-1.7,1.7v3.4c0,1,0.8,1.7,1.7,1.7h3.3c1,0,1.7-0.8,1.7-1.7V7.9
			c0-1-0.8-1.7-1.7-1.7H8.4z"/>
	</g>
	<g id="XMLID_15_">
		<path class="st0" d="M15.3,5.5c-0.6,0-1.1-0.5-1.1-1.1s0.5-1.1,1.1-1.1c0.6,0,1.1,0.5,1.1,1.1S15.9,5.5,15.3,5.5z M15.3,3.9
			c-0.2,0-0.4,0.2-0.4,0.4c0,0.2,0.2,0.4,0.4,0.4s0.4-0.2,0.4-0.4C15.7,4.1,15.5,3.9,15.3,3.9z"/>
	</g>
</g>
<g>
	<g id="Behance_2_">
		<path class="st1" d="M68.4,46.5h-8.1V28.6h8.7c2.2,0,3.8,0.7,4.7,2c0.6,0.8,0.9,1.7,0.9,2.8c0,1.1-0.3,2.1-0.9,2.8
			c-0.2,0.3-0.5,0.5-0.8,0.7c0.6,0.3,1.1,0.8,1.5,1.4c0.5,0.7,0.7,1.7,0.7,2.7c0,1.1-0.3,2.1-0.8,2.9c-0.3,0.6-0.8,1.1-1.3,1.4
			c-0.6,0.4-1.3,0.8-2.1,0.9C70.1,46.4,69.3,46.5,68.4,46.5z M61,45.8h7.4c0.8,0,1.6-0.1,2.4-0.2c0.7-0.1,1.3-0.4,1.8-0.8
			c0.4-0.3,0.8-0.8,1.1-1.3c0.5-0.7,0.7-1.6,0.7-2.6c0-0.9-0.2-1.7-0.6-2.3l0,0c-0.4-0.6-1-1.1-1.8-1.4L71.2,37l0.7-0.4
			c0.5-0.3,0.9-0.6,1.2-0.9c0.5-0.6,0.7-1.3,0.7-2.3c0-0.9-0.2-1.8-0.7-2.4c-0.8-1.1-2.2-1.7-4.2-1.7h-8V45.8z M82.3,46.4
			c-1.7,0-3.2-0.5-4.6-1.6c-1.3-1.1-2-2.8-2-5.2c0-2.2,0.6-4,1.8-5.2c1.2-1.2,2.8-1.8,4.7-1.8c1.1,0,2.1,0.2,3,0.6
			c0.9,0.4,1.7,1.1,2.3,1.9c0.5,0.8,0.9,1.7,1,2.7l0,0c0.1,0.6,0.1,1.4,0.1,2.5l0,0.3h-8.9c0.1,0.9,0.5,1.6,1.1,1.9
			c0.4,0.3,1,0.4,1.6,0.4c0.7,0,1.2-0.2,1.6-0.5c0.2-0.2,0.4-0.4,0.6-0.7l0.1-0.2h3.9l0,0.4c-0.1,0.8-0.5,1.6-1.3,2.4
			C86,45.8,84.4,46.4,82.3,46.4z M82.2,33.3c-1.7,0-3.1,0.5-4.2,1.6c-1.1,1.1-1.6,2.6-1.6,4.7c0,2.2,0.6,3.7,1.8,4.7
			c1.2,1,2.6,1.4,4.1,1.4c1.9,0,3.3-0.6,4.4-1.7c0.5-0.6,0.9-1.1,1-1.6H85c-0.2,0.3-0.4,0.6-0.6,0.8c-0.5,0.4-1.2,0.6-2,0.6
			c-0.8,0-1.4-0.2-2-0.5c-0.9-0.6-1.4-1.5-1.5-2.9l0-0.4h9c0-0.9,0-1.5-0.1-2c-0.1-0.9-0.5-1.7-0.9-2.4c-0.5-0.8-1.2-1.3-2-1.7
			C84.1,33.5,83.2,33.3,82.2,33.3z M68.2,43.5h-4v-5.3h4c0.8,0,1.4,0.1,1.9,0.3c0.8,0.4,1.3,1.1,1.3,2.2c0,1.2-0.4,2-1.3,2.5
			C69.7,43.4,69,43.5,68.2,43.5z M64.9,42.8h3.3c0.7,0,1.2-0.1,1.6-0.3c0.6-0.3,0.9-0.9,0.9-1.8c0-0.8-0.3-1.3-0.9-1.5
			C69.5,39,69,39,68.3,38.9h-3.3V42.8z M85.3,38.6H79l0.1-0.4c0.1-0.9,0.4-1.6,1-2.1c0.5-0.5,1.3-0.8,2.2-0.8c0.8,0,1.6,0.3,2.1,0.8
			c0.6,0.5,0.9,1.2,1,2.2L85.3,38.6z M79.8,37.9h4.7c-0.1-0.6-0.3-1-0.7-1.3c-0.5-0.4-1-0.6-1.7-0.6c-0.7,0-1.3,0.2-1.7,0.6
			C80.2,36.9,79.9,37.4,79.8,37.9z M68.2,36.1h-4v-4.5h3.6c0.9,0,1.6,0.1,2.1,0.3c0.5,0.2,1.2,0.7,1.2,1.9c0,0.9-0.3,1.5-0.9,1.8
			C69.7,35.9,69,36.1,68.2,36.1z M64.9,35.4h3.3c0.7,0,1.2-0.1,1.6-0.4c0.4-0.2,0.5-0.6,0.5-1.2c0-0.9-0.4-1.1-0.7-1.3
			c-0.5-0.2-1.1-0.2-1.9-0.2h-2.9V35.4z M86,31.8h-7.6v-2.4H86V31.8z M79,31.1h6.2v-1H79V31.1z"/>
	</g>
</g>
<g>
	<g id="XMLID_16_">
		<path class="st1" d="M107.1,46.5c-2.2,0-4.4-0.6-6.3-1.7c-0.3-0.2-0.4-0.5-0.3-0.8c0.1-0.3,0.4-0.5,0.7-0.5h0.5
			c1.3,0,2.6-0.3,3.7-0.9c-1.4-0.5-2.5-1.6-3-3.1c-0.1-0.2,0-0.4,0.1-0.6c0,0,0.1-0.1,0.1-0.1c-1.1-0.9-1.8-2.3-1.8-3.8
			c0-0.2,0.1-0.4,0.3-0.5c0.1-0.1,0.3-0.1,0.4-0.1c-0.4-0.7-0.6-1.5-0.6-2.4c0-0.8,0.2-1.7,0.7-2.4c0.1-0.2,0.3-0.3,0.5-0.3
			c0.2,0,0.4,0.1,0.5,0.2c1.9,2.3,4.6,3.8,7.6,4.1c0-0.5,0-1,0.1-1.5c0.4-1.6,1.6-2.9,3.1-3.4c1.7-0.5,3.4-0.1,4.7,1
			c0,0,0.1,0.1,0.2,0.1c0.8-0.2,1.5-0.5,2.1-0.9c0.2-0.1,0.5-0.1,0.7,0c0.2,0.2,0.3,0.4,0.2,0.6c-0.1,0.4-0.3,0.7-0.5,1.1
			c0.1,0,0.2-0.1,0.3-0.1v0c0.2-0.1,0.5,0,0.7,0.2c0.2,0.2,0.2,0.5,0,0.7c-0.5,0.8-1.1,1.4-1.8,2c-0.1,0.1-0.2,0.2-0.2,0.3
			c0,1.5-0.3,3.1-0.8,4.5c-0.6,1.5-1.4,2.9-2.4,4c-1.1,1.3-2.5,2.3-4,3C110.9,46.1,109.1,46.5,107.1,46.5z M101.2,44.2
			c1.8,1,3.9,1.6,6,1.6c1.8,0,3.6-0.4,5.1-1.1c1.4-0.7,2.7-1.6,3.7-2.8c1-1.1,1.8-2.4,2.3-3.8c0.5-1.4,0.8-2.8,0.8-4.2
			c0-0.4,0.2-0.7,0.4-0.9c0.6-0.4,1-1,1.5-1.5c-0.4,0.1-0.7,0.3-1.1,0.3l-1.3,0.3l0.9-0.9c0.4-0.4,0.8-0.9,1-1.4
			c-0.6,0.3-1.3,0.6-2,0.8c-0.3,0.1-0.6,0-0.8-0.2c-1.1-0.9-2.6-1.3-4-0.8c-1.3,0.4-2.4,1.5-2.7,2.9c-0.1,0.5-0.2,1-0.1,1.5
			c0,0.1,0,0.3-0.1,0.4c-0.1,0.1-0.2,0.2-0.4,0.2c-3.2-0.3-6.1-1.8-8.2-4.3c-0.3,0.6-0.5,1.2-0.5,1.9c0,1.1,0.4,2.1,1.2,2.9l0.9,0.9
			l-1.2-0.3c-0.3-0.1-0.6-0.2-0.9-0.3c0.1,1.5,1,2.9,2.4,3.6l1.4,0.6l-1.7,0c-0.2,0-0.4,0-0.6,0c0.5,1.4,1.7,2.4,3.2,2.6l0.9,0.1
			l-0.7,0.5c-1.4,1-3.1,1.5-4.8,1.5H101.2z M102,30.1C102,30.1,102,30.1,102,30.1C102,30.1,102,30.1,102,30.1z"/>
	</g>
</g>
<g>
	<g id="XMLID_13_">
		<path class="st1" d="M38.4,46.5c-4.9,0-8.9-4-8.9-8.9c0-4.9,4-8.9,8.9-8.9s8.9,4,8.9,8.9C47.3,42.5,43.3,46.5,38.4,46.5z
			 M38.4,29.3c-4.5,0-8.2,3.7-8.2,8.2s3.7,8.2,8.2,8.2s8.2-3.7,8.2-8.2S42.9,29.3,38.4,29.3z"/>
	</g>
	<g id="XMLID_12_">
		<path class="st1" d="M40.9,46.2l-0.7-0.1c0.9-9.2-6.3-15.5-6.4-15.6l0.5-0.5C34.3,30.1,41.8,36.6,40.9,46.2z"/>
	</g>
	<g id="XMLID_11_">
		<path class="st1" d="M33.6,44.6L33,44.3c0-0.1,3.7-7.7,14-7.1l0,0.7C37.1,37.3,33.6,44.5,33.6,44.6z"/>
	</g>
	<g id="XMLID_10_">
		<path class="st1" d="M31,37.4c-0.7,0-1.2,0-1.2,0l0.1-0.7c0.1,0,8.5,0.8,14.3-5.3l0.5,0.5C40,36.8,33.6,37.4,31,37.4z"/>
	</g>
</g>
<g>
	<g id="XMLID_4_">
		<path class="st1" d="M15.8,46.5H4.2c-1.7,0-3.1-1.4-3.1-3.1V31.7c0-1.7,1.4-3.1,3.1-3.1h11.6c1.7,0,3.1,1.4,3.1,3.1v11.7
			C18.9,45.1,17.5,46.5,15.8,46.5z M4.2,29.3c-1.3,0-2.4,1.1-2.4,2.4v11.7c0,1.3,1.1,2.4,2.4,2.4h11.6c1.3,0,2.4-1.1,2.4-2.4V31.7
			c0-1.3-1.1-2.4-2.4-2.4H4.2z"/>
	</g>
	<g id="XMLID_3_">
		<path class="st1" d="M11.7,41.7H8.4c-1.3,0-2.4-1.1-2.4-2.4v-3.4c0-1.3,1.1-2.4,2.4-2.4h3.3c1.3,0,2.4,1.1,2.4,2.4v3.4
			C14.1,40.6,13,41.7,11.7,41.7z M8.4,34.1c-1,0-1.7,0.8-1.7,1.7v3.4c0,1,0.8,1.7,1.7,1.7h3.3c1,0,1.7-0.8,1.7-1.7v-3.4
			c0-1-0.8-1.7-1.7-1.7H8.4z"/>
	</g>
	<g id="XMLID_2_">
		<path class="st1" d="M11.7,41.7H8.4c-1.3,0-2.4-1.1-2.4-2.4v-3.4c0-1.3,1.1-2.4,2.4-2.4h3.3c1.3,0,2.4,1.1,2.4,2.4v3.4
			C14.1,40.6,13,41.7,11.7,41.7z M8.4,34.1c-1,0-1.7,0.8-1.7,1.7v3.4c0,1,0.8,1.7,1.7,1.7h3.3c1,0,1.7-0.8,1.7-1.7v-3.4
			c0-1-0.8-1.7-1.7-1.7H8.4z"/>
	</g>
	<g id="XMLID_1_">
		<path class="st1" d="M15.3,33.5c-0.6,0-1.1-0.5-1.1-1.1c0-0.6,0.5-1.1,1.1-1.1c0.6,0,1.1,0.5,1.1,1.1
			C16.4,32.9,15.9,33.5,15.3,33.5z M15.3,31.9c-0.2,0-0.4,0.2-0.4,0.4c0,0.2,0.2,0.4,0.4,0.4s0.4-0.2,0.4-0.4
			C15.7,32.1,15.5,31.9,15.3,31.9z"/>
	</g>
</g>
</svg>
