<?xml version="1.0" encoding="utf-8"?>
<!-- Generator: Adobe Illustrator 21.1.0, SVG Export Plug-In . SVG Version: 6.00 Build 0)  -->
<svg version="1.1" id="Layer_1" xmlns="http://www.w3.org/2000/svg" xmlns:xlink="http://www.w3.org/1999/xlink" x="0px" y="0px"
	 viewBox="0 0 25 25" style="enable-background:new 0 0 25 25;" xml:space="preserve">
<style type="text/css">
	.st0{fill:none;stroke:#F15379;stroke-width:0.7;stroke-miterlimit:10;}
	.st1{fill:none;stroke:#8F8FD1;stroke-width:0.7;stroke-miterlimit:10;}
	.st2{fill:#F15379;}
	.st3{fill:none;stroke:#F15379;stroke-miterlimit:10;}
</style>
<g>
	<g>
		<path id="Behance_9_" class="st0" d="M57.3-20.1h-6.9v-1.7h6.9V-20.1L57.3-20.1z M45.7-13c0.4,0.7,0.7,1.5,0.7,2.5
			s-0.3,1.9-0.8,2.7c-0.3,0.5-0.7,1-1.2,1.3c-0.5,0.4-1.2,0.7-1.9,0.9c-0.7,0.2-1.6,0.2-2.4,0.2h-7.8v-17.1h8.3
			c2.1,0,3.6,0.6,4.5,1.8c0.5,0.7,0.8,1.6,0.8,2.6c0,1.1-0.3,1.9-0.8,2.5c-0.3,0.4-0.7,0.7-1.3,1C44.6-14.2,45.3-13.7,45.7-13z
			 M36.2-15.7h3.6c0.7,0,1.4-0.1,1.8-0.4c0.5-0.3,0.7-0.8,0.7-1.5c0-0.8-0.3-1.3-0.9-1.6c-0.5-0.2-1.1-0.3-2-0.3h-3.2V-15.7z
			 M42.7-10.7c0-0.9-0.4-1.5-1.1-1.8c-0.4-0.2-1-0.3-1.7-0.3h-3.7v4.6h3.6c0.7,0,1.3-0.1,1.7-0.3C42.4-9,42.7-9.7,42.7-10.7z
			 M59.8-13.5c0.1,0.6,0.1,1.4,0.1,2.4h-9c0,1.2,0.5,2.1,1.3,2.6C52.7-8.2,53.3-8,54-8c0.7,0,1.3-0.2,1.8-0.6
			c0.3-0.2,0.5-0.5,0.7-0.8h3.3c-0.1,0.7-0.5,1.5-1.2,2.2C57.5-6,55.9-5.4,54-5.4c-1.6,0-3.1-0.5-4.3-1.5c-1.3-1-1.9-2.7-1.9-4.9
			c0-2.1,0.6-3.8,1.7-4.9c1.1-1.1,2.6-1.7,4.4-1.7c1.1,0,2,0.2,2.9,0.6c0.9,0.4,1.6,1,2.1,1.8C59.3-15.3,59.7-14.5,59.8-13.5z
			 M56.6-13.2c-0.1-0.9-0.3-1.5-0.9-1.9c-0.5-0.4-1.1-0.7-1.9-0.7s-1.5,0.2-1.9,0.7c-0.5,0.5-0.7,1.1-0.9,1.9H56.6L56.6-13.2z"/>
	</g>
</g>
<g>
	<g>
		<path id="XMLID_8_" class="st1" d="M96.3,30.3c-0.5,0.2-0.9,0.4-1.4,0.5c0.5-0.5,0.9-1.2,1.2-1.9l0,0c0.1-0.2-0.2-0.4-0.3-0.3l0,0
			c-0.7,0.4-1.4,0.7-2.2,0.9h-0.1c-0.1,0-0.3-0.1-0.4-0.1c-0.8-0.7-1.9-1.1-3-1.1c-0.5,0-0.9,0.1-1.4,0.2c-1.4,0.4-2.6,1.6-2.9,3.1
			c-0.1,0.6-0.2,1.1-0.1,1.6c0,0.1,0,0.1,0,0.1l-0.1,0.1l0,0c-3.2-0.3-6-1.8-8-4.3l0,0c-0.1-0.1-0.3-0.1-0.4,0l0,0
			c-0.4,0.7-0.6,1.5-0.6,2.2c0,1.2,0.5,2.3,1.3,3.2c-0.4-0.1-0.7-0.2-1-0.4l0,0c-0.2-0.1-0.3,0-0.3,0.2l0,0c0,1.8,1,3.4,2.6,4.1
			h-0.1c-0.2,0-0.5,0-0.8-0.1l0,0c-0.2,0-0.3,0.1-0.3,0.3l0,0c0.5,1.6,1.9,2.8,3.5,3c-1.4,0.9-3,1.4-4.6,1.4h-0.5
			c-0.2,0-0.3,0.1-0.3,0.3s0,0.3,0.2,0.4c1.9,1.1,4,1.7,6.2,1.7c1.9,0,3.7-0.4,5.3-1.1c1.5-0.7,2.8-1.6,3.8-2.9
			c1-1.1,1.8-2.5,2.4-3.9c0.5-1.4,0.8-2.9,0.8-4.3v-0.1c0-0.2,0.1-0.4,0.3-0.6c0.7-0.6,1.3-1.2,1.8-1.9l0,0
			C96.8,30.5,96.6,30.2,96.3,30.3L96.3,30.3z"/>
	</g>
</g>
<g>
	<g>
		<ellipse id="XMLID_36_" class="st0" cx="-29.3" cy="15.1" rx="8.5" ry="8.6"/>
		<path id="XMLID_35_" class="st0" d="M-33.7,7.8c0,0,7.4,6.4,6.5,15.9"/>
		<path id="XMLID_34_" class="st0" d="M-34.4,22c0,0,3.5-7.5,13.7-6.9"/>
		<path id="XMLID_33_" class="st0" d="M-37.8,14.5c0,0,8.6,0.9,14.6-5.4"/>
	</g>
</g>
<g>
	<g>
		<path id="XMLID_37_" class="st0" d="M2.9-15.3H-8.7c-1.5,0-2.7-1.2-2.7-2.7v-11.7c0-1.5,1.2-2.7,2.7-2.7H2.9
			c1.5,0,2.7,1.2,2.7,2.7V-18C5.6-16.5,4.4-15.3,2.9-15.3z"/>
		<path id="XMLID_32_" class="st0" d="M-1.2-20.1h-3.3c-1.2,0-2.1-0.9-2.1-2.1v-3.4c0-1.2,0.9-2.1,2.1-2.1h3.3
			c1.2,0,2.1,0.9,2.1,2.1v3.4C0.8-21.1-0.1-20.1-1.2-20.1z"/>
		<path id="XMLID_31_" class="st0" d="M-1.2-20.1h-3.3c-1.2,0-2.1-0.9-2.1-2.1v-3.4c0-1.2,0.9-2.1,2.1-2.1h3.3
			c1.2,0,2.1,0.9,2.1,2.1v3.4C0.8-21.1-0.1-20.1-1.2-20.1z"/>
		<ellipse id="XMLID_30_" class="st0" cx="2.4" cy="-29.1" rx="0.8" ry="0.8"/>
	</g>
</g>
<g>
	<g id="XMLID_43_">
		<g id="XMLID_44_">
			<path id="Behance_1_" class="st2" d="M-79.5-15.4h-4.4v-1.1h4.4L-79.5-15.4L-79.5-15.4z M-86.9-10.9c0.3,0.4,0.4,1,0.4,1.6
				c0,0.7-0.2,1.2-0.5,1.8c-0.2,0.3-0.5,0.6-0.8,0.9c-0.4,0.3-0.8,0.5-1.2,0.6C-89.4-6-89.9-6-90.5-6h-5v-11h5.3
				c1.3,0,2.3,0.4,2.9,1.2c0.3,0.5,0.5,1,0.5,1.7c0,0.7-0.2,1.2-0.5,1.6c-0.2,0.2-0.5,0.4-0.8,0.6C-87.6-11.7-87.1-11.4-86.9-10.9z
				 M-92.9-12.7h2.3c0.5,0,0.9-0.1,1.2-0.3c0.3-0.2,0.4-0.5,0.4-1c0-0.5-0.2-0.9-0.6-1c-0.3-0.1-0.8-0.2-1.3-0.2h-2.1V-12.7z
				 M-88.7-9.5c0-0.6-0.2-1-0.7-1.2c-0.3-0.1-0.6-0.2-1.1-0.2h-2.4v2.9h2.3c0.5,0,0.8-0.1,1.1-0.2C-89-8.3-88.7-8.8-88.7-9.5z
				 M-77.8-11.3c0.1,0.4,0.1,0.9,0.1,1.6h-5.7c0,0.8,0.3,1.3,0.8,1.7c0.3,0.2,0.7,0.3,1.1,0.3c0.5,0,0.9-0.1,1.1-0.4
				c0.2-0.1,0.3-0.3,0.4-0.5h2.1c-0.1,0.5-0.3,0.9-0.8,1.4c-0.7,0.8-1.7,1.2-3,1.2c-1.1,0-2-0.3-2.8-1c-0.8-0.6-1.2-1.7-1.2-3.2
				c0-1.4,0.4-2.4,1.1-3.1c0.7-0.7,1.7-1.1,2.8-1.1c0.7,0,1.3,0.1,1.9,0.4c0.6,0.2,1,0.6,1.4,1.2C-78.1-12.4-77.9-11.9-77.8-11.3z
				 M-79.9-11.1c0-0.5-0.2-1-0.6-1.2c-0.3-0.3-0.7-0.4-1.2-0.4c-0.5,0-0.9,0.2-1.2,0.5c-0.3,0.3-0.5,0.7-0.6,1.2L-79.9-11.1
				L-79.9-11.1z"/>
		</g>
	</g>
	<g id="XMLID_41_">
		<path id="XMLID_42_" class="st3" d="M-54.1-15.7c-0.3,0.1-0.6,0.2-0.9,0.3c0.3-0.3,0.6-0.7,0.8-1.2l0,0c0-0.1-0.1-0.2-0.2-0.2l0,0
			c-0.4,0.3-0.9,0.5-1.4,0.6c0,0-0.1,0-0.1,0c-0.1,0-0.2,0-0.2-0.1c-0.5-0.5-1.2-0.7-1.9-0.7c-0.3,0-0.6,0-0.9,0.1
			c-0.9,0.3-1.6,1-1.9,2c-0.1,0.4-0.1,0.7-0.1,1c0,0,0,0.1,0,0.1c0,0,0,0-0.1,0c0,0,0,0,0,0c-2-0.2-3.9-1.2-5.1-2.7l0,0
			c-0.1-0.1-0.2-0.1-0.2,0l0,0c-0.3,0.4-0.4,0.9-0.4,1.4c0,0.8,0.3,1.5,0.9,2c-0.2-0.1-0.4-0.1-0.7-0.3l0,0c-0.1-0.1-0.2,0-0.2,0.1
			l0,0c0,1.1,0.7,2.2,1.7,2.6c0,0,0,0-0.1,0c-0.2,0-0.3,0-0.5,0l0,0c-0.1,0-0.2,0.1-0.2,0.2l0,0c0.3,1,1.2,1.8,2.3,1.9
			c-0.9,0.6-1.9,0.9-3,0.9l-0.3,0c-0.1,0-0.2,0.1-0.2,0.2c0,0.1,0,0.2,0.1,0.2C-65.8-6.4-64.4-6-63-6c1.2,0,2.3-0.2,3.4-0.7
			c0.9-0.4,1.8-1.1,2.5-1.8c0.6-0.7,1.2-1.6,1.5-2.5c0.3-0.9,0.5-1.8,0.5-2.8v0c0-0.1,0.1-0.3,0.2-0.4c0.4-0.4,0.8-0.8,1.1-1.2l0,0
			C-53.8-15.6-53.9-15.8-54.1-15.7L-54.1-15.7z"/>
	</g>
	<g id="XMLID_5_">
		<g id="XMLID_6_">
			<path id="XMLID_40_" class="st3" d="M-129.8-6h-5.4c-1.5,0-2.7-1.2-2.7-2.7v-5.5c0-1.5,1.2-2.7,2.7-2.7h5.4
				c1.5,0,2.7,1.2,2.7,2.7v5.5C-127.1-7.2-128.3-6-129.8-6z"/>
			<path id="XMLID_39_" class="st3" d="M-132.2-9.1h-0.6c-1.2,0-2.1-0.9-2.1-2.1v-0.7c0-1.2,0.9-2.1,2.1-2.1h0.6
				c1.2,0,2.1,0.9,2.1,2.1v0.7C-130.2-10-131.1-9.1-132.2-9.1z"/>
			<ellipse id="XMLID_38_" class="st2" cx="-130" cy="-14.8" rx="0.9" ry="0.9"/>
		</g>
	</g>
	<g id="XMLID_2_">
		<g id="XMLID_7_">
			<ellipse id="XMLID_4_" class="st3" cx="-111.1" cy="-11.5" rx="5.5" ry="5.5"/>
			<path id="XMLID_3_" class="st3" d="M-113.9-16.1c0,0,4.8,4.1,4.2,10.1"/>
			<path id="XMLID_9_" class="st3" d="M-114.4-7.1c0,0,2.2-4.8,8.7-4.4"/>
			<path id="XMLID_1_" class="st3" d="M-116.6-11.9c0,0,5.5,0.6,9.4-3.5"/>
		</g>
	</g>
</g>
<g>
	<g>
		<path id="XMLID_10_" class="st0" d="M22.3,5.9c-0.5,0.2-0.9,0.4-1.4,0.5c0.5-0.5,0.9-1.2,1.2-1.9l0,0c0.1-0.2-0.2-0.4-0.3-0.3l0,0
			c-0.7,0.4-1.4,0.7-2.2,0.9h-0.1c-0.1,0-0.3-0.1-0.4-0.1c-0.8-0.7-1.9-1.1-3-1.1c-0.5,0-0.9,0.1-1.4,0.2c-1.4,0.4-2.6,1.6-2.9,3.1
			c-0.1,0.6-0.2,1.1-0.1,1.6c0,0.1,0,0.1,0,0.1L11.6,9l0,0c-3.2-0.3-6-1.8-8-4.3l0,0c-0.1-0.1-0.3-0.1-0.4,0l0,0
			C2.8,5.4,2.6,6.2,2.6,6.9c0,1.2,0.5,2.3,1.3,3.2c-0.4-0.1-0.7-0.2-1-0.4l0,0c-0.2-0.1-0.3,0-0.3,0.2l0,0c0,1.8,1,3.4,2.6,4.1H5.1
			c-0.2,0-0.5,0-0.8-0.1l0,0C4.1,14,4,14.1,4,14.3l0,0c0.5,1.6,1.9,2.8,3.5,3c-1.4,0.9-3,1.4-4.6,1.4H2.4c-0.2,0-0.3,0.1-0.3,0.3
			s0,0.3,0.2,0.4c1.9,1.1,4,1.7,6.2,1.7c1.9,0,3.7-0.4,5.3-1.1c1.5-0.7,2.8-1.6,3.8-2.9c1-1.1,1.8-2.5,2.4-3.9
			c0.5-1.4,0.8-2.9,0.8-4.3V8.8c0-0.2,0.1-0.4,0.3-0.6c0.7-0.6,1.3-1.2,1.8-1.9l0,0C22.8,6.1,22.6,5.8,22.3,5.9L22.3,5.9z"/>
	</g>
</g>
</svg>
