<?xml version="1.0" encoding="utf-8"?>
<!-- Generator: Adobe Illustrator 21.1.0, SVG Export Plug-In . SVG Version: 6.00 Build 0)  -->
<svg version="1.1" xmlns="http://www.w3.org/2000/svg" xmlns:xlink="http://www.w3.org/1999/xlink" x="0px" y="0px"
	 viewBox="0 0 31 26" style="enable-background:new 0 0 31 26;" xml:space="preserve">
<style type="text/css">
	.st0{fill:#E83463;}
</style>
<g id="About_us">
</g>
<g id="Our_mission">
</g>
<g id="Hashworks_Logo">
</g>
<g id="Dell_Logo">
</g>
<g id="Locator_Logo">
</g>
<g id="Testimonial">
	<g>
		<path class="st0" d="M17,4.3v6.6c0,2.1,1.6,3.8,3.6,3.8h3.1c-1.1,4.1-3.3,7.8-6.3,10.6c-0.1,0.1,0,0.3,0.1,0.3c0.1,0,0.1,0,0.2,0
			c7.4-1.1,12.8-7.9,12.8-15.8V4.3c0-2.1-1.6-3.8-3.6-3.8h-6.3C18.6,0.5,17,2.2,17,4.3z"/>
		<path class="st0" d="M0.5,4.3v6.6c0,2.1,1.6,3.8,3.6,3.8h3.1c-1.1,4.1-3.3,7.8-6.3,10.6c-0.1,0.1,0,0.3,0.1,0.3c0.1,0,0.1,0,0.2,0
			C8.6,24.4,14,17.5,14,9.7V4.3c0-2.1-1.6-3.8-3.6-3.8H4.1C2.1,0.5,0.5,2.2,0.5,4.3z"/>
	</g>
</g>
</svg>
