<?xml version="1.0" encoding="utf-8"?>
<!-- Generator: Adobe Illustrator 21.1.0, SVG Export Plug-In . SVG Version: 6.00 Build 0)  -->
<svg version="1.1" id="Layer_1" xmlns="http://www.w3.org/2000/svg" xmlns:xlink="http://www.w3.org/1999/xlink" x="0px" y="0px"
	 viewBox="0 0 177.6 68.3" style="enable-background:new 0 0 177.6 68.3;" xml:space="preserve">
<style type="text/css">
	.st0{fill:#6D6E71;}
	.st1{opacity:0.5;fill:none;}
	.st2{fill-rule:evenodd;clip-rule:evenodd;fill:#6D6E71;}
	.st3{fill:none;stroke:#6D6E71;stroke-width:3.74;stroke-miterlimit:10;}
	.st4{fill:url(#XMLID_4_);}
	.st5{fill-rule:evenodd;clip-rule:evenodd;fill:#057DB7;}
	.st6{fill:none;stroke:#057DB7;stroke-width:3.74;stroke-miterlimit:10;}
	.st7{fill:#7AC4EA;}
	.st8{fill:#0A6093;}
</style>
<g>
	<g>
		<path id="XMLID_8469_" class="st0" d="M-144.3,42c2.2,2.2,2.2,5.8,0,8.1c-1.1,1.1-2.6,1.7-4.1,1.7h-2.2c-1,0-2.2,0.6-2.8,1.2
			c-0.6,0.6-1.2,1.6-1.2,2.8v1.6c0.2,1.6-0.4,3.3-1.6,4.6c-2.2,2.2-5.8,2.2-8.1,0c-2.2-2.2-2.2-5.8,0-8.1c1.3-1.3,2.9-1.8,4.6-1.6
			h1.6c1.2,0,2.2-0.6,2.8-1.2c0.6-0.6,1.2-1.7,1.2-2.8v-2.2c0-1.5,0.5-3,1.7-4.1C-150.1,39.7-146.5,39.7-144.3,42z M-166.4,43.8
			c0-1.2,0.7-2.2,1.2-2.8c0.6-0.6,1.7-1.2,2.8-1.2h1.5c1.7,0.2,3.4-0.3,4.7-1.6c2.2-2.2,2.2-5.8,0-8.1c-1.1-1.1-2.6-1.7-4.1-1.7
			h-2.1c-1.1,0-2.2-0.6-2.8-1.2c-0.6-0.6-1.2-1.6-1.2-2.8v-1.6c0.2-1.6-0.4-3.3-1.6-4.6c-2.2-2.2-5.8-2.2-8.1,0
			c-2.2,2.2-2.2,5.8,0,8.1c1.3,1.3,2.9,1.8,4.6,1.6h1.6c1.2,0,2.2,0.7,2.8,1.2c0.6,0.6,1.2,1.7,1.2,2.8v1.9c0,0.2,0,0.3,0,0.5v2
			c0,1.1-0.6,2.2-1.2,2.8c-0.6,0.6-1.6,1.2-2.8,1.2h-2.2l0,0c-1.5,0-2.9,0.6-4,1.7c-2.2,2.2-2.2,5.8,0,8.1c2.2,2.2,5.8,2.2,8.1,0
			c1.2-1.2,1.7-2.9,1.6-4.4V43.8z M-124.6,40.3L-124.6,40.3l-2.2,0c-1.1,0-2.2-0.6-2.8-1.2c-0.6-0.6-1.2-1.6-1.2-2.8v-1.7
			c0-0.4,0-0.7,0-1.1V32c0-1.2,0.7-2.2,1.2-2.8c0.6-0.6,1.7-1.2,2.8-1.2h2.2l0,0c1.5,0,2.9-0.5,4.1-1.7c2.2-2.2,2.2-5.8,0-8.1
			c-2.2-2.2-5.8-2.2-8.1,0c-1.1,1.1-1.7,2.6-1.7,4.1l0,0v2.2c0,1.1-0.6,2.2-1.2,2.8c-0.6,0.6-1.6,1.2-2.8,1.2h-1.5
			c-1.7-0.2-3.4,0.3-4.6,1.6c-2.2,2.2-2.2,5.8,0,8.1c1.3,1.3,3,1.8,4.7,1.6h1.5c1.2,0,2.2,0.7,2.8,1.2c0.6,0.6,1.2,1.7,1.2,2.8v2.1
			c0,1.5,0.5,3,1.7,4.2c2.2,2.2,5.8,2.2,8.1,0c2.2-2.2,2.2-5.8,0-8.1C-121.7,40.8-123.2,40.3-124.6,40.3z M-140.5,53.9
			c-2.2,2.2-2.2,5.8,0,8.1c2.2,2.2,5.8,2.2,8.1,0c2.2-2.2,2.2-5.8,0-8.1C-134.7,51.6-138.3,51.6-140.5,53.9z M-156.2,14.4
			c2.2-2.2,2.2-5.8,0-8.1s-5.8-2.2-8.1,0s-2.2,5.8,0,8.1C-162,16.7-158.4,16.7-156.2,14.4z M-144.3,26.3c1.3-1.3,1.8-3,1.6-4.6v-1.6
			c0-1.2,0.7-2.2,1.2-2.8c0.6-0.6,1.7-1.2,2.8-1.2h2.1c1.5,0,3-0.5,4.2-1.7c2.2-2.2,2.2-5.8,0-8.1c-2.2-2.2-5.8-2.2-8.1,0
			c-1.1,1.1-1.7,2.6-1.7,4l0,0v2.2c0,1.1-0.6,2.2-1.2,2.8c-0.6,0.6-1.6,1.2-2.8,1.2h-1.8c-1.6-0.1-3.2,0.4-4.4,1.6
			c-2.2,2.2-2.2,5.8,0,8.1C-150.2,28.5-146.6,28.5-144.3,26.3z"/>
	</g>
	<rect id="XMLID_8468_" x="-237.2" class="st1" width="177.6" height="68.3"/>
</g>
<g>
	<rect id="XMLID_8467_" class="st1" width="177.6" height="68.3"/>
	<g>
		<g>
			<g>
				<polygon class="st2" points="109,27.4 104.1,27.4 104.1,41 113.4,41 113.4,36.7 109,36.7 109,27.4 				"/>
				<path class="st2" d="M98.6,36.7v-9.2h-4.9l0,4.7l-7,4.4l-1.4-0.8l7-4.4l-3.1-2l-7,4.4L81,32.9l7-4.4l-3.1-2l-7.9,5
					c-1.1-2.9-4-4.1-7.5-4.1h-5.4V41h6.6c3.1,0,5.5-1.6,6.4-4.2l7.9,5l8.8-5.5l0,4.8h9.3v-4.4H98.6L98.6,36.7z M69.5,36.9h-0.7v-5.3
					h0.7c1.8,0,2.9,0.8,2.9,2.7C72.4,36.2,71.2,36.9,69.5,36.9L69.5,36.9z"/>
			</g>
		</g>
		<circle class="st3" cx="88.8" cy="34.2" r="31"/>
	</g>
</g>
<g>
	<rect id="XMLID_8466_" x="246" class="st1" width="177.6" height="68.3"/>
	<g>
		<g id="XMLID_8079_">
			<g>
				<g id="XMLID_669_">
					<path class="st0" d="M321,17.7l-0.7-2.6l-7.1,1.2c-0.6,1.6-1,3.2-1.2,4.9L321,17.7z"/>
				</g>
				<g id="XMLID_668_">
					<polygon class="st0" points="329.7,15.2 324,17.4 325,22.2 330.1,20.4 					"/>
				</g>
				<g id="XMLID_667_">
					<path class="st0" d="M320,14.4l-1.7-6.1c-2,2.1-3.6,4.5-4.8,7.2L320,14.4z"/>
				</g>
				<g id="XMLID_666_">
					<polygon class="st0" points="318.6,30.9 323.7,30 322.9,25.2 318,26.8 					"/>
				</g>
				<g id="XMLID_665_">
					<polygon class="st0" points="317.1,20.1 317.9,26 322.8,24.3 322.6,23.1 324.2,22.5 323.3,17.7 					"/>
				</g>
				<g id="XMLID_664_">
					<path class="st0" d="M329.8,6.7l9.5-4.9c-1.4-0.3-2.9-0.4-4.4-0.4c-1.9,0-3.7,0.2-5.5,0.7L329.8,6.7z"/>
				</g>
				<g id="XMLID_663_">
					<path class="st0" d="M318.8,38.8l-0.9-6.9l-5.1,1c0.4,2.2,1.1,4.7,2,7.4l4.4-1.6L318.8,38.8z"/>
				</g>
				<g id="XMLID_662_">
					<path class="st0" d="M350.1,7.2l-1.7,0.7l1.9,5.2l3.7-1.4C352.9,10,351.6,8.5,350.1,7.2z"/>
				</g>
				<g id="XMLID_643_">
					<g id="XMLID_661_">
						<polygon class="st0" points="353.6,17.9 350.3,18.5 348.4,22.5 353.2,23.3 						"/>
					</g>
					<g id="XMLID_660_">
						<polygon class="st0" points="347.1,23.1 343.5,22.4 341.3,27.3 345.2,27 						"/>
					</g>
					<g id="XMLID_659_">
						<polygon class="st0" points="350.4,16.5 344.9,18.5 348.4,20.5 349.8,17.8 349.7,17.8 349.8,17.8 						"/>
					</g>
					<g id="XMLID_658_">
						<polygon class="st0" points="339.2,27.5 340.4,27.4 342.7,22.3 340.2,21.8 						"/>
					</g>
					<g id="XMLID_657_">
						<polygon class="st0" points="352.9,27.2 345.4,28.4 344.1,31.1 350.5,30.2 350.2,31.1 352.6,30.6 						"/>
					</g>
					<g id="XMLID_656_">
						<path class="st0" d="M355.8,28.2l1.7,0.7c0.1-0.6,0.1-1.1,0.2-1.7c0.1-0.5,0.1-1.1,0.1-1.6L355.8,28.2z"/>
					</g>
					<g id="XMLID_655_">
						<polygon class="st0" points="352.2,36.9 348.8,38.9 348.7,38.8 348.9,43.4 351.7,43.4 						"/>
					</g>
					<g id="XMLID_654_">
						<polygon class="st0" points="349.8,32 348.5,35 348.6,35 348.7,38 352.2,35.9 352.6,31.4 						"/>
					</g>
					<g id="XMLID_653_">
						<polygon class="st0" points="353.1,24.1 348,23.2 345.9,27.5 352.9,26.4 						"/>
					</g>
					<g id="XMLID_652_">
						<polygon class="st0" points="347.8,36.7 345.1,43.4 348.1,43.4 						"/>
					</g>
					<g id="XMLID_651_">
						<polygon class="st0" points="344.8,27.9 339.1,28.4 338.5,31.8 343.1,31.2 						"/>
					</g>
					<g id="XMLID_650_">
						<polygon class="st0" points="347.5,22.3 348.1,21.2 343.9,18.9 340.5,20.1 340.3,21 						"/>
					</g>
					<g id="XMLID_649_">
						<path class="st0" d="M352.8,39l-0.3,4.5l1.1,0c0.6-1.4,1.2-2.9,1.7-4.5H352.8z"/>
					</g>
					<g id="XMLID_648_">
						<path class="st0" d="M353.6,28.1l-0.2,2.6l0.1,0.5l-0.1,0l-0.2,2.6l3.7-1.1c0.2-1,0.4-2,0.5-3L353.6,28.1z"/>
					</g>
					<g id="XMLID_647_">
						<path class="st0" d="M356.7,33.6l-3.6,1l-0.3,3.5h2.6C356,36.7,356.4,35.2,356.7,33.6z"/>
					</g>
					<g id="XMLID_646_">
						<path class="st0" d="M350.8,17.6l5.6-1.2c-0.2-0.6-0.5-1.2-0.8-1.8l-4.2,1.5L350.8,17.6z"/>
					</g>
					<g id="XMLID_645_">
						<path class="st0" d="M353.7,27.3l1.4,0.6l2.8-3.7c0-0.9-0.1-1.9-0.2-2.8l-3.5,0.3L353.7,27.3z"/>
					</g>
					<g id="XMLID_644_">
						<path class="st0" d="M354.4,17.7l-0.2,3.1l3.3-0.3c-0.2-1.1-0.5-2.2-0.8-3.3L354.4,17.7z"/>
					</g>
				</g>
				<g id="XMLID_640_">
					<g id="XMLID_642_">
						<path class="st0" d="M317,25.4l-0.7-4.9l-4.5,1.8c-0.1,0.7-0.1,1.5-0.1,2.2c0,0,0,0.2,0,0.5L317,25.4z"/>
					</g>
					<g id="XMLID_641_">
						<path class="st0" d="M317.1,26.2l-5.3-0.5c0,0,0,0.1,0,0.1c0.1,1.3,0.3,3.5,0.8,6.3l5.2-1L317.1,26.2z"/>
					</g>
				</g>
				<g id="XMLID_637_">
					<g id="XMLID_639_">
						<polygon class="st0" points="323.3,30.9 318.7,31.8 319.5,38.2 						"/>
					</g>
					<g id="XMLID_638_">
						<polygon class="st0" points="324.7,36.8 323.9,31.5 320.4,38.3 						"/>
					</g>
				</g>
				<g id="XMLID_634_">
					<g id="XMLID_636_">
						<path class="st0" d="M325.2,7.4l3.5-3l-0.2-2.2c-1.7,0.5-3.3,1.2-4.8,2L325.2,7.4z"/>
					</g>
					<g id="XMLID_635_">
						<path class="st0" d="M323,4.6c-1.4,0.9-2.8,1.9-4,3l1.2,4.1l4.4-3.8L323,4.6z"/>
					</g>
				</g>
				<g id="XMLID_631_">
					<g id="XMLID_633_">
						<path class="st0" d="M345.5,4l-4.6,2.5l3.6,2l4.8-1.9C348.2,5.6,346.9,4.7,345.5,4z"/>
					</g>
					<g id="XMLID_632_">
						<path class="st0" d="M344.6,3.5c-1.3-0.6-2.7-1.1-4.1-1.5l-3.9,2L340,6L344.6,3.5z"/>
					</g>
				</g>
				<g id="XMLID_628_">
					<g id="XMLID_630_">
						<polygon class="st0" points="334,12.6 343.5,8.9 335.7,4.6 334.5,5.2 						"/>
					</g>
					<g id="XMLID_629_">
						<polygon class="st0" points="333.5,5.7 329.8,7.6 330.4,14 333,13 						"/>
					</g>
				</g>
				<g id="XMLID_600_">
					<g id="XMLID_627_">
						<polygon class="st0" points="331.6,56.9 332,51.7 328.6,51.6 327.9,56.1 						"/>
					</g>
					<g id="XMLID_626_">
						<polygon class="st0" points="328.7,50.7 334,50.9 334.9,46.6 329.4,46.5 						"/>
					</g>
					<g id="XMLID_625_">
						<polygon class="st0" points="320.4,50.4 327.9,50.7 328.2,49 321.9,47.5 						"/>
					</g>
					<g id="XMLID_624_">
						<polygon class="st0" points="327.8,51.5 324.5,51.4 323.9,53.6 327.4,54.3 						"/>
					</g>
					<g id="XMLID_623_">
						<polygon class="st0" points="334,58.2 327.8,56.9 327.5,59.2 333,60.9 						"/>
					</g>
					<g id="XMLID_622_">
						<path class="st0" d="M319.5,50.4L319.5,50.4l1.6-3.1l-3.8-0.9C317.9,47.7,318.7,49,319.5,50.4z"/>
					</g>
					<g id="XMLID_621_">
						<polygon class="st0" points="335.7,60.7 336.5,58.8 334.8,58.4 334.3,59.9 						"/>
					</g>
					<g id="XMLID_620_">
						<path class="st0" d="M323.2,56c1,1.3,2.1,2.6,3.3,3.9l0.7-4.8l-3.6-0.7L323.2,56z"/>
					</g>
					<g id="XMLID_619_">
						<polygon class="st0" points="340.6,46.6 345,49.2 348.4,46.7 						"/>
					</g>
					<g id="XMLID_618_">
						<polygon class="st0" points="332.8,51.7 332.4,57.1 335.7,57.8 335.6,51.8 						"/>
					</g>
					<g id="XMLID_617_">
						<path class="st0" d="M334,60.7l-1.6,4.5L332,65c0.2,0.2,0.4,0.4,0.7,0.5l4.2-3.3L334,60.7z"/>
					</g>
					<g id="XMLID_616_">
						<polygon class="st0" points="347.2,51.4 342.9,48.8 341.7,51.2 						"/>
					</g>
					<g id="XMLID_615_">
						<polygon class="st0" points="334.8,51 340.8,51.2 342.2,48.4 339.1,46.6 335.7,46.6 						"/>
					</g>
					<g id="XMLID_614_">
						<path class="st0" d="M323.7,51.4l-3.7-0.1c0.8,1.3,1.7,2.6,2.7,3.9L323.7,51.4z"/>
					</g>
					<g id="XMLID_613_">
						<path class="st0" d="M321.4,46.5l3.2-6.2l-8.6,3.1c0.3,0.7,0.6,1.3,0.9,2L321.4,46.5z"/>
					</g>
					<g id="XMLID_612_">
						<polygon class="st0" points="325.1,40.1 325.1,40.1 325.1,40.1 						"/>
					</g>
					<g id="XMLID_611_">
						<polygon class="st0" points="322.2,46.7 328.3,48.2 328.5,46.5 326.1,46.4 325.3,40.8 						"/>
					</g>
					<g id="XMLID_610_">
						<path class="st0" d="M349.7,46.7l-4,3l3,1.8l0.6,0c0.9-1.5,1.9-3.1,2.7-4.7L349.7,46.7z"/>
					</g>
					<g id="XMLID_609_">
						<path class="st0" d="M332.8,61.7l-5.4-1.6l-0.1,0.6c1.3,1.4,2.8,2.8,4.4,4.1L332.8,61.7z"/>
					</g>
					<g id="XMLID_608_">
						<path class="st0" d="M341.2,59.8l-2.9,2.3l1.6,0.8c0.9-0.8,1.8-1.8,2.8-2.8L341.2,59.8z"/>
					</g>
					<g id="XMLID_607_">
						<polygon class="st0" points="341.2,56.9 338.5,51.9 336.4,51.8 336.5,57.9 340.5,58.8 						"/>
					</g>
					<g id="XMLID_606_">
						<polygon class="st0" points="337.3,59 336.4,61.1 337.5,61.7 340.2,59.6 						"/>
					</g>
					<g id="XMLID_605_">
						<path class="st0" d="M334.5,65.1l-1.2,1c0.4,0.3,0.7,0.6,1.1,0.9L334.5,65.1z"/>
					</g>
					<g id="XMLID_604_">
						<path class="st0" d="M339.3,63.5l-1.6-0.9l-2.4,1.9l0.1,0l-0.1,2.3C336,66.3,337.4,65.2,339.3,63.5z"/>
					</g>
					<g id="XMLID_603_">
						<path class="st0" d="M343.9,52.1l-0.8,2l2.6,2.4c1-1.3,2.1-2.7,3.1-4.2L343.9,52.1z"/>
					</g>
					<g id="XMLID_602_">
						<path class="st0" d="M345.2,57.2l-2.4-2.3l-1.6,4l2,0.4C343.9,58.7,344.6,58,345.2,57.2z"/>
					</g>
					<g id="XMLID_601_">
						<polygon class="st0" points="343.1,52.1 339.4,52 341.6,55.9 						"/>
					</g>
				</g>
				<g id="XMLID_597_">
					<g id="XMLID_599_">
						<polygon class="st0" points="344.2,15.2 349.5,13.3 347.6,8.2 343.1,9.9 						"/>
					</g>
					<g id="XMLID_598_">
						<polygon class="st0" points="342.3,10.2 338.1,11.9 341.8,16.1 343.5,15.5 						"/>
					</g>
				</g>
				<g id="XMLID_594_">
					<g id="XMLID_596_">
						<polygon class="st0" points="339,17.1 341,16.4 337.3,12.2 333,13.9 						"/>
					</g>
					<g id="XMLID_595_">
						<polygon class="st0" points="332,14.2 330.5,14.9 330.9,20.1 337.9,17.5 						"/>
					</g>
				</g>
				<g id="XMLID_591_">
					<g id="XMLID_593_">
						<polygon class="st0" points="327.2,15.3 323.1,10.3 320.5,12.6 320.4,12.5 321.7,17.4 323.1,16.9 323.1,16.8 323.5,16.7 
													"/>
					</g>
					<g id="XMLID_592_">
						<polygon class="st0" points="328,15 329.6,14.3 328.8,5.4 323.8,9.8 						"/>
					</g>
				</g>
			</g>
		</g>
		<polygon id="XMLID_8077_" class="st0" points="325.4,25.3 328,43.2 340.6,43.3 344.2,34.6 333.9,35.6 335.8,21.5 		"/>
	</g>
</g>
<g>
	<g>
		<linearGradient id="XMLID_4_" gradientUnits="userSpaceOnUse" x1="-168.9372" y1="220.5315" x2="-127.8711" y2="179.4654">
			<stop  offset="0" style="stop-color:#F05A44"/>
			<stop  offset="1" style="stop-color:#613E97"/>
		</linearGradient>
		<path id="XMLID_5189_" class="st4" d="M-144.2,207.7c2.2,2.2,2.2,5.8,0,8.1c-1.1,1.1-2.6,1.7-4.1,1.7h-2.2c-1,0-2.2,0.6-2.8,1.2
			c-0.6,0.6-1.2,1.6-1.2,2.8v1.6c0.2,1.6-0.4,3.3-1.6,4.6c-2.2,2.2-5.8,2.2-8.1,0c-2.2-2.2-2.2-5.8,0-8.1c1.3-1.3,2.9-1.8,4.6-1.6
			h1.6c1.2,0,2.2-0.6,2.8-1.2c0.6-0.6,1.2-1.7,1.2-2.8v-2.2c0-1.5,0.5-3,1.7-4.1C-150,205.4-146.4,205.4-144.2,207.7z M-166.3,209.5
			c0-1.2,0.7-2.2,1.2-2.8c0.6-0.6,1.7-1.2,2.8-1.2h1.5c1.7,0.2,3.4-0.3,4.7-1.6c2.2-2.2,2.2-5.8,0-8.1c-1.1-1.1-2.6-1.7-4.1-1.7
			h-2.1c-1.1,0-2.2-0.6-2.8-1.2c-0.6-0.6-1.2-1.6-1.2-2.8v-1.6c0.2-1.6-0.4-3.3-1.6-4.6c-2.2-2.2-5.8-2.2-8.1,0
			c-2.2,2.2-2.2,5.8,0,8.1c1.3,1.3,2.9,1.8,4.6,1.6h1.6c1.2,0,2.2,0.7,2.8,1.2c0.6,0.6,1.2,1.7,1.2,2.8v1.9c0,0.2,0,0.3,0,0.5v2
			c0,1.1-0.6,2.2-1.2,2.8c-0.6,0.6-1.6,1.2-2.8,1.2h-2.2l0,0c-1.5,0-2.9,0.6-4,1.7c-2.2,2.2-2.2,5.8,0,8.1c2.2,2.2,5.8,2.2,8.1,0
			c1.2-1.2,1.7-2.9,1.6-4.4V209.5z M-124.5,206L-124.5,206l-2.2,0c-1.1,0-2.2-0.6-2.8-1.2c-0.6-0.6-1.2-1.6-1.2-2.8v-1.7
			c0-0.4,0-0.7,0-1.1v-1.5c0-1.2,0.7-2.2,1.2-2.8c0.6-0.6,1.7-1.2,2.8-1.2h2.2l0,0c1.5,0,2.9-0.5,4.1-1.7c2.2-2.2,2.2-5.8,0-8.1
			c-2.2-2.2-5.8-2.2-8.1,0c-1.1,1.1-1.7,2.6-1.7,4.1l0,0v2.2c0,1.1-0.6,2.2-1.2,2.8c-0.6,0.6-1.6,1.2-2.8,1.2h-1.5
			c-1.7-0.2-3.4,0.3-4.6,1.6c-2.2,2.2-2.2,5.8,0,8.1c1.3,1.3,3,1.8,4.7,1.6h1.5c1.2,0,2.2,0.7,2.8,1.2c0.6,0.6,1.2,1.7,1.2,2.8v2.1
			c0,1.5,0.5,3,1.7,4.2c2.2,2.2,5.8,2.2,8.1,0c2.2-2.2,2.2-5.8,0-8.1C-121.6,206.5-123,206-124.5,206z M-140.4,219.5
			c-2.2,2.2-2.2,5.8,0,8.1c2.2,2.2,5.8,2.2,8.1,0c2.2-2.2,2.2-5.8,0-8.1C-134.6,217.3-138.2,217.3-140.4,219.5z M-156.1,180.1
			c2.2-2.2,2.2-5.8,0-8.1c-2.2-2.2-5.8-2.2-8.1,0c-2.2,2.2-2.2,5.8,0,8.1C-161.9,182.4-158.3,182.4-156.1,180.1z M-144.2,192
			c1.3-1.3,1.8-3,1.6-4.6v-1.6c0-1.2,0.7-2.2,1.2-2.8c0.6-0.6,1.7-1.2,2.8-1.2h2.1c1.5,0,3-0.5,4.2-1.7c2.2-2.2,2.2-5.8,0-8.1
			c-2.2-2.2-5.8-2.2-8.1,0c-1.1,1.1-1.7,2.6-1.7,4l0,0v2.2c0,1.1-0.6,2.2-1.2,2.8c-0.6,0.6-1.6,1.2-2.8,1.2h-1.8
			c-1.6-0.1-3.2,0.4-4.4,1.6c-2.2,2.2-2.2,5.8,0,8.1C-150,194.2-146.4,194.2-144.2,192z"/>
	</g>
	<rect id="XMLID_5188_" x="-237" y="165.7" class="st1" width="177.6" height="68.3"/>
</g>
<g>
	<rect id="XMLID_5184_" x="0.1" y="165.7" class="st1" width="177.6" height="68.3"/>
	<g>
		<g>
			<g>
				<polygon class="st5" points="109.1,193.1 104.2,193.1 104.2,206.7 113.5,206.7 113.5,202.3 109.1,202.3 109.1,193.1 				"/>
				<path class="st5" d="M98.8,202.3v-9.2h-4.9l0,4.7l-7,4.4l-1.4-0.8l7-4.4l-3.1-2l-7,4.4l-1.2-0.8l7-4.4l-3.1-2l-7.9,5
					c-1.1-2.9-4-4.1-7.5-4.1h-5.4v13.6h6.6c3.1,0,5.5-1.6,6.4-4.2l7.9,5l8.8-5.5l0,4.8h9.3v-4.4H98.8L98.8,202.3z M69.7,202.6H69
					v-5.3h0.7c1.8,0,2.9,0.8,2.9,2.7C72.6,201.9,71.3,202.6,69.7,202.6L69.7,202.6z"/>
			</g>
		</g>
		<circle class="st6" cx="88.9" cy="199.8" r="31"/>
	</g>
</g>
<g>
	<rect id="XMLID_5181_" x="245.1" y="165.7" class="st1" width="177.6" height="68.3"/>
	<g>
		<g id="XMLID_678_">
			<g>
				<g id="XMLID_753_">
					<path class="st7" d="M320.1,183.4l-0.7-2.6l-7.1,1.2c-0.6,1.6-1,3.2-1.2,4.9L320.1,183.4z"/>
				</g>
				<g id="XMLID_752_">
					<polygon class="st7" points="328.8,180.9 323.2,183.1 324.2,187.9 329.2,186 					"/>
				</g>
				<g id="XMLID_751_">
					<path class="st7" d="M319.2,180l-1.7-6.1c-2,2.1-3.6,4.5-4.8,7.2L319.2,180z"/>
				</g>
				<g id="XMLID_750_">
					<polygon class="st7" points="317.7,196.6 322.8,195.7 322.1,190.8 317.2,192.5 					"/>
				</g>
				<g id="XMLID_748_">
					<polygon class="st7" points="316.3,185.8 317,191.7 322,190 321.8,188.8 323.4,188.2 322.4,183.4 					"/>
				</g>
				<g id="XMLID_747_">
					<path class="st7" d="M328.9,172.4l9.5-4.9c-1.4-0.3-2.9-0.4-4.4-0.4c-1.9,0-3.7,0.2-5.5,0.7L328.9,172.4z"/>
				</g>
				<g id="XMLID_746_">
					<path class="st7" d="M317.9,204.5l-0.9-6.9l-5.1,1c0.4,2.2,1.1,4.7,2,7.4l4.4-1.6L317.9,204.5z"/>
				</g>
				<g id="XMLID_745_">
					<path class="st7" d="M349.2,172.8l-1.7,0.7l1.9,5.2l3.7-1.4C352,175.7,350.7,174.2,349.2,172.8z"/>
				</g>
				<g id="XMLID_726_">
					<g id="XMLID_744_">
						<polygon class="st7" points="352.7,183.5 349.5,184.2 347.5,188.1 352.3,189 						"/>
					</g>
					<g id="XMLID_743_">
						<polygon class="st7" points="346.3,188.8 342.6,188.1 340.5,193 344.3,192.7 						"/>
					</g>
					<g id="XMLID_742_">
						<polygon class="st7" points="349.5,182.2 344.1,184.2 347.6,186.1 348.9,183.5 348.9,183.5 348.9,183.5 						"/>
					</g>
					<g id="XMLID_741_">
						<polygon class="st7" points="338.4,193.2 339.6,193.1 341.8,188 339.3,187.5 						"/>
					</g>
					<g id="XMLID_740_">
						<polygon class="st7" points="352,192.9 344.5,194.1 343.2,196.8 349.6,195.9 349.3,196.8 351.8,196.2 						"/>
					</g>
					<g id="XMLID_739_">
						<path class="st7" d="M355,193.9l1.7,0.7c0.1-0.6,0.1-1.1,0.2-1.7c0.1-0.5,0.1-1.1,0.1-1.6L355,193.9z"/>
					</g>
					<g id="XMLID_738_">
						<polygon class="st7" points="351.3,202.5 348,204.6 347.9,204.5 348.1,209.1 350.8,209.1 						"/>
					</g>
					<g id="XMLID_737_">
						<polygon class="st7" points="348.9,197.7 347.7,200.7 347.7,200.7 347.8,203.7 351.4,201.5 351.7,197.1 						"/>
					</g>
					<g id="XMLID_736_">
						<polygon class="st7" points="352.2,189.8 347.1,188.9 345,193.2 352.1,192.1 						"/>
					</g>
					<g id="XMLID_735_">
						<polygon class="st7" points="347,202.4 344.2,209 347.3,209.1 						"/>
					</g>
					<g id="XMLID_734_">
						<polygon class="st7" points="343.9,193.6 338.2,194 337.6,197.5 342.2,196.9 						"/>
					</g>
					<g id="XMLID_733_">
						<polygon class="st7" points="346.7,188 347.2,186.9 343.1,184.6 339.6,185.8 339.5,186.7 						"/>
					</g>
					<g id="XMLID_732_">
						<path class="st7" d="M352,204.7l-0.3,4.5l1.1,0c0.6-1.4,1.2-2.9,1.7-4.5H352z"/>
					</g>
					<g id="XMLID_731_">
						<path class="st7" d="M352.8,193.8l-0.2,2.6l0.1,0.5l-0.1,0l-0.2,2.6l3.7-1.1c0.2-1,0.4-2,0.5-3L352.8,193.8z"/>
					</g>
					<g id="XMLID_730_">
						<path class="st7" d="M355.9,199.3l-3.6,1l-0.3,3.5h2.6C355.1,202.4,355.5,200.9,355.9,199.3z"/>
					</g>
					<g id="XMLID_729_">
						<path class="st7" d="M349.9,183.3l5.6-1.2c-0.2-0.6-0.5-1.2-0.8-1.8l-4.2,1.5L349.9,183.3z"/>
					</g>
					<g id="XMLID_728_">
						<path class="st7" d="M352.8,192.9l1.4,0.6l2.8-3.7c0-0.9-0.1-1.9-0.2-2.8l-3.5,0.3L352.8,192.9z"/>
					</g>
					<g id="XMLID_727_">
						<path class="st7" d="M353.5,183.4l-0.2,3.1l3.3-0.3c-0.2-1.1-0.5-2.2-0.8-3.3L353.5,183.4z"/>
					</g>
				</g>
				<g id="XMLID_723_">
					<g id="XMLID_725_">
						<path class="st7" d="M316.1,191l-0.7-4.9l-4.5,1.8c-0.1,0.7-0.1,1.5-0.1,2.2c0,0,0,0.2,0,0.5L316.1,191z"/>
					</g>
					<g id="XMLID_724_">
						<path class="st7" d="M316.2,191.9l-5.3-0.5c0,0,0,0.1,0,0.1c0.1,1.3,0.3,3.5,0.8,6.3l5.2-1L316.2,191.9z"/>
					</g>
				</g>
				<g id="XMLID_720_">
					<g id="XMLID_722_">
						<polygon class="st7" points="322.4,196.6 317.8,197.4 318.6,203.8 						"/>
					</g>
					<g id="XMLID_721_">
						<polygon class="st7" points="323.8,202.4 323,197.2 319.5,204 						"/>
					</g>
				</g>
				<g id="XMLID_717_">
					<g id="XMLID_719_">
						<path class="st7" d="M324.4,173.1l3.5-3l-0.2-2.2c-1.7,0.5-3.3,1.2-4.8,2L324.4,173.1z"/>
					</g>
					<g id="XMLID_718_">
						<path class="st7" d="M322.1,170.3c-1.4,0.9-2.8,1.9-4,3l1.2,4.1l4.4-3.8L322.1,170.3z"/>
					</g>
				</g>
				<g id="XMLID_714_">
					<g id="XMLID_716_">
						<path class="st7" d="M344.6,169.7l-4.6,2.5l3.6,2l4.8-1.9C347.3,171.3,346,170.4,344.6,169.7z"/>
					</g>
					<g id="XMLID_715_">
						<path class="st7" d="M343.7,169.2c-1.3-0.6-2.7-1.1-4.1-1.5l-3.9,2l3.5,1.9L343.7,169.2z"/>
					</g>
				</g>
				<g id="XMLID_711_">
					<g id="XMLID_713_">
						<polygon class="st7" points="333.1,178.3 342.7,174.5 334.8,170.2 333.6,170.9 						"/>
					</g>
					<g id="XMLID_712_">
						<polygon class="st7" points="332.7,171.4 329,173.3 329.5,179.7 332.1,178.7 						"/>
					</g>
				</g>
				<g id="XMLID_683_">
					<g id="XMLID_710_">
						<polygon class="st7" points="330.8,222.6 331.1,217.4 327.7,217.2 327.1,221.8 						"/>
					</g>
					<g id="XMLID_709_">
						<polygon class="st7" points="327.9,216.4 333.1,216.6 334,212.2 328.5,212.2 						"/>
					</g>
					<g id="XMLID_708_">
						<polygon class="st7" points="319.5,216.1 327,216.4 327.3,214.7 321,213.2 						"/>
					</g>
					<g id="XMLID_707_">
						<polygon class="st7" points="326.9,217.2 323.7,217.1 323,219.3 326.5,220 						"/>
					</g>
					<g id="XMLID_706_">
						<polygon class="st7" points="333.1,223.9 327,222.6 326.6,224.9 332.2,226.6 						"/>
					</g>
					<g id="XMLID_705_">
						<path class="st7" d="M318.6,216.1L318.6,216.1l1.6-3.1l-3.8-0.9C317.1,213.4,317.8,214.7,318.6,216.1z"/>
					</g>
					<g id="XMLID_704_">
						<polygon class="st7" points="334.8,226.4 335.6,224.5 333.9,224.1 333.4,225.6 						"/>
					</g>
					<g id="XMLID_703_">
						<path class="st7" d="M322.4,221.7c1,1.3,2.1,2.6,3.3,3.9l0.7-4.8l-3.6-0.7L322.4,221.7z"/>
					</g>
					<g id="XMLID_702_">
						<polygon class="st7" points="339.7,212.3 344.1,214.9 347.5,212.4 						"/>
					</g>
					<g id="XMLID_701_">
						<polygon class="st7" points="331.9,217.4 331.6,222.7 334.8,223.4 334.7,217.5 						"/>
					</g>
					<g id="XMLID_700_">
						<path class="st7" d="M333.1,226.4l-1.6,4.5l-0.4-0.1c0.2,0.2,0.4,0.4,0.7,0.5l4.2-3.3L333.1,226.4z"/>
					</g>
					<g id="XMLID_699_">
						<polygon class="st7" points="346.4,217.1 342,214.5 340.9,216.9 						"/>
					</g>
					<g id="XMLID_698_">
						<polygon class="st7" points="333.9,216.6 340,216.9 341.3,214.1 338.3,212.3 334.8,212.2 						"/>
					</g>
					<g id="XMLID_697_">
						<path class="st7" d="M322.8,217.1l-3.7-0.1c0.8,1.3,1.7,2.6,2.7,3.9L322.8,217.1z"/>
					</g>
					<g id="XMLID_696_">
						<path class="st7" d="M320.6,212.2l3.2-6.2l-8.6,3.1c0.3,0.7,0.6,1.3,0.9,2L320.6,212.2z"/>
					</g>
					<g id="XMLID_695_">
						<polygon class="st7" points="324.3,205.8 324.3,205.8 324.3,205.8 						"/>
					</g>
					<g id="XMLID_694_">
						<polygon class="st7" points="321.4,212.4 327.4,213.9 327.7,212.2 325.2,212.1 324.4,206.5 						"/>
					</g>
					<g id="XMLID_693_">
						<path class="st7" d="M348.8,212.4l-4,3l3,1.8l0.6,0c0.9-1.5,1.9-3.1,2.7-4.7L348.8,212.4z"/>
					</g>
					<g id="XMLID_692_">
						<path class="st7" d="M331.9,227.4l-5.4-1.6l-0.1,0.6c1.3,1.4,2.8,2.8,4.4,4.1L331.9,227.4z"/>
					</g>
					<g id="XMLID_691_">
						<path class="st7" d="M340.3,225.5l-2.9,2.3l1.6,0.8c0.9-0.8,1.8-1.8,2.8-2.8L340.3,225.5z"/>
					</g>
					<g id="XMLID_690_">
						<polygon class="st7" points="340.4,222.6 337.6,217.6 335.5,217.5 335.6,223.6 339.6,224.5 						"/>
					</g>
					<g id="XMLID_689_">
						<polygon class="st7" points="336.5,224.6 335.5,226.8 336.7,227.4 339.3,225.3 						"/>
					</g>
					<g id="XMLID_688_">
						<path class="st7" d="M333.7,230.8l-1.2,1c0.4,0.3,0.7,0.6,1.1,0.9L333.7,230.8z"/>
					</g>
					<g id="XMLID_687_">
						<path class="st7" d="M338.4,229.2l-1.6-0.9l-2.4,1.9l0.1,0l-0.1,2.3C335.1,232,336.6,230.9,338.4,229.2z"/>
					</g>
					<g id="XMLID_686_">
						<path class="st7" d="M343.1,217.8l-0.8,2l2.6,2.4c1-1.3,2.1-2.7,3.1-4.2L343.1,217.8z"/>
					</g>
					<g id="XMLID_685_">
						<path class="st7" d="M344.4,222.9l-2.4-2.3l-1.6,4l2,0.4C343.1,224.4,343.7,223.7,344.4,222.9z"/>
					</g>
					<g id="XMLID_684_">
						<polygon class="st7" points="342.2,217.8 338.6,217.6 340.8,221.6 						"/>
					</g>
				</g>
				<g id="XMLID_680_">
					<g id="XMLID_682_">
						<polygon class="st7" points="343.4,180.9 348.6,179 346.7,173.8 342.2,175.6 						"/>
					</g>
					<g id="XMLID_681_">
						<polygon class="st7" points="341.4,175.9 337.3,177.5 340.9,181.8 342.6,181.2 						"/>
					</g>
				</g>
				<g id="XMLID_676_">
					<g id="XMLID_679_">
						<polygon class="st7" points="338.1,182.8 340.1,182.1 336.5,177.9 332.2,179.5 						"/>
					</g>
					<g id="XMLID_677_">
						<polygon class="st7" points="331.2,179.9 329.6,180.6 330,185.8 337.1,183.2 						"/>
					</g>
				</g>
				<g id="XMLID_673_">
					<g id="XMLID_675_">
						<polygon class="st7" points="326.3,181 322.3,176 319.6,178.3 319.5,178.2 320.9,183.1 322.2,182.6 322.2,182.5 322.7,182.4 
													"/>
					</g>
					<g id="XMLID_674_">
						<polygon class="st7" points="327.1,180.7 328.7,180 328,171.1 322.9,175.5 						"/>
					</g>
				</g>
			</g>
		</g>
		<polygon id="XMLID_1_" class="st8" points="324.5,190.9 327.2,208.8 339.7,209 343.3,200.3 333,201.3 335,187.2 		"/>
	</g>
</g>
</svg>
