<?xml version="1.0" encoding="utf-8"?>
<!-- Generator: Adobe Illustrator 21.1.0, SVG Export Plug-In . SVG Version: 6.00 Build 0)  -->
<svg version="1.1" id="Layer_1" xmlns="http://www.w3.org/2000/svg" xmlns:xlink="http://www.w3.org/1999/xlink" x="0px" y="0px"
	 viewBox="0 0 130 50" style="enable-background:new 0 0 130 50;" xml:space="preserve">
<style type="text/css">
	.st0{fill:#6D6E71;}
	.st1{fill:none;}
	.st2{fill:#7AC4EA;}
	.st3{fill:#0A6093;}
	.st4{fill:url(#XMLID_164_);}
	.st5{fill:#648678;}
	.st6{fill:#5785BF;}
	.st7{fill:#E57121;}
	.st8{fill:none;stroke:#6D6E71;stroke-width:3.74;stroke-miterlimit:10;}
	.st9{fill:#057DB7;}
	.st10{fill:none;stroke:#057DB7;stroke-width:3.74;stroke-miterlimit:10;}
	.st11{fill:none;stroke:#648678;stroke-width:40;stroke-linecap:round;stroke-linejoin:round;stroke-miterlimit:10;}
	.st12{fill:none;stroke:#5785BF;stroke-width:40;stroke-linecap:round;stroke-linejoin:round;stroke-miterlimit:10;}
	.st13{fill:none;stroke:#E57121;stroke-width:40;stroke-linecap:round;stroke-linejoin:round;stroke-miterlimit:10;}
	.st14{fill:#31B6F4;}
	.st15{fill:#FFFFFF;}
	.st16{fill:#E3F1FB;}
	.st17{opacity:0.5;fill:none;}
	.st18{fill-rule:evenodd;clip-rule:evenodd;fill:#6D6E71;}
	.st19{fill:none;stroke:#6D6E71;stroke-width:2.7379;stroke-miterlimit:10;}
</style>
<g>
	<g>
		<g>
			<g>
				<g id="XMLID_84_">
					<g>
						<g id="XMLID_163_">
							<path class="st0" d="M-683-38l-0.7-2.6l-7.1,1.2c-0.6,1.6-1,3.2-1.2,4.9L-683-38z"/>
						</g>
						<g id="XMLID_162_">
							<polygon class="st0" points="-674.3,-40.5 -679.9,-38.3 -678.9,-33.5 -673.8,-35.3 							"/>
						</g>
						<g id="XMLID_161_">
							<path class="st0" d="M-683.9-41.3l-1.7-6.1c-2,2.1-3.6,4.5-4.8,7.2L-683.9-41.3z"/>
						</g>
						<g id="XMLID_160_">
							<polygon class="st0" points="-685.4,-24.7 -680.3,-25.7 -681,-30.5 -685.9,-28.8 							"/>
						</g>
						<g id="XMLID_159_">
							<polygon class="st0" points="-686.8,-35.6 -686,-29.7 -681.1,-31.3 -681.3,-32.6 -679.7,-33.2 -680.7,-38 							"/>
						</g>
						<g id="XMLID_158_">
							<path class="st0" d="M-674.2-48.9l9.5-4.9c-1.4-0.3-2.9-0.4-4.4-0.4c-1.9,0-3.7,0.2-5.5,0.7L-674.2-48.9z"/>
						</g>
						<g id="XMLID_157_">
							<path class="st0" d="M-685.2-16.9l-0.9-6.9l-5.1,1c0.4,2.2,1.1,4.7,2,7.4l4.4-1.6L-685.2-16.9z"/>
						</g>
						<g id="XMLID_156_">
							<path class="st0" d="M-653.9-48.5l-1.7,0.7l1.9,5.2l3.7-1.4C-651-45.7-652.4-47.2-653.9-48.5z"/>
						</g>
						<g id="XMLID_137_">
							<g id="XMLID_155_">
								<polygon class="st0" points="-650.4,-37.8 -653.6,-37.2 -655.6,-33.2 -650.8,-32.4 								"/>
							</g>
							<g id="XMLID_154_">
								<polygon class="st0" points="-656.8,-32.6 -660.4,-33.3 -662.6,-28.3 -658.7,-28.7 								"/>
							</g>
							<g id="XMLID_153_">
								<polygon class="st0" points="-653.5,-39.2 -659,-37.2 -655.5,-35.2 -654.2,-37.9 -654.2,-37.9 -654.2,-37.9 								"/>
							</g>
							<g id="XMLID_152_">
								<polygon class="st0" points="-664.7,-28.2 -663.5,-28.3 -661.3,-33.4 -663.7,-33.8 								"/>
							</g>
							<g id="XMLID_151_">
								<polygon class="st0" points="-651.1,-28.4 -658.5,-27.3 -659.8,-24.6 -653.4,-25.4 -653.8,-24.6 -651.3,-25.1 								"/>
							</g>
							<g id="XMLID_150_">
								<path class="st0" d="M-648.1-27.5l1.7,0.7c0.1-0.6,0.1-1.1,0.2-1.7c0.1-0.5,0.1-1.1,0.1-1.6L-648.1-27.5z"/>
							</g>
							<g id="XMLID_149_">
								<polygon class="st0" points="-651.8,-18.8 -655.1,-16.8 -655.2,-16.9 -655,-12.3 -652.3,-12.2 								"/>
							</g>
							<g id="XMLID_148_">
								<polygon class="st0" points="-654.2,-23.7 -655.4,-20.6 -655.4,-20.6 -655.2,-17.6 -651.7,-19.8 -651.4,-24.3 								"/>
							</g>
							<g id="XMLID_147_">
								<polygon class="st0" points="-650.8,-31.5 -656,-32.5 -658.1,-28.2 -651,-29.3 								"/>
							</g>
							<g id="XMLID_146_">
								<polygon class="st0" points="-656.1,-18.9 -658.8,-12.3 -655.8,-12.3 								"/>
							</g>
							<g id="XMLID_145_">
								<polygon class="st0" points="-659.2,-27.8 -664.9,-27.3 -665.5,-23.9 -660.8,-24.5 								"/>
							</g>
							<g id="XMLID_144_">
								<polygon class="st0" points="-656.4,-33.4 -655.9,-34.5 -660,-36.8 -663.4,-35.6 -663.6,-34.7 								"/>
							</g>
							<g id="XMLID_143_">
								<path class="st0" d="M-651.1-16.7l-0.3,4.5h1.1c0.6-1.4,1.2-2.9,1.7-4.5H-651.1z"/>
							</g>
							<g id="XMLID_142_">
								<path class="st0" d="M-650.3-27.6l-0.2,2.6l0.1,0.5h-0.1l-0.2,2.6l3.7-1.1c0.2-1,0.4-2,0.5-3L-650.3-27.6z"/>
							</g>
							<g id="XMLID_141_">
								<path class="st0" d="M-647.2-22.1l-3.6,1l-0.3,3.5h2.6C-647.9-19-647.5-20.5-647.2-22.1z"/>
							</g>
							<g id="XMLID_140_">
								<path class="st0" d="M-653.1-38.1l5.6-1.2c-0.2-0.6-0.5-1.2-0.8-1.8l-4.2,1.5L-653.1-38.1z"/>
							</g>
							<g id="XMLID_139_">
								<path class="st0" d="M-650.2-28.4l1.4,0.6l2.8-3.7c0-0.9-0.1-1.9-0.2-2.8l-3.5,0.3L-650.2-28.4z"/>
							</g>
							<g id="XMLID_138_">
								<path class="st0" d="M-649.5-38l-0.2,3.1l3.3-0.3c-0.2-1.1-0.5-2.2-0.8-3.3L-649.5-38z"/>
							</g>
						</g>
						<g id="XMLID_134_">
							<g id="XMLID_136_">
								<path class="st0" d="M-686.9-30.3l-0.7-4.9l-4.5,1.8c-0.1,0.7-0.1,1.5-0.1,2.2c0,0,0,0.2,0,0.5L-686.9-30.3z"/>
							</g>
							<g id="XMLID_135_">
								<path class="st0" d="M-686.8-29.5l-5.3-0.5v0.1c0.1,1.3,0.3,3.5,0.8,6.3l5.2-1L-686.8-29.5z"/>
							</g>
						</g>
						<g id="XMLID_131_">
							<g id="XMLID_133_">
								<polygon class="st0" points="-680.6,-24.8 -685.3,-23.9 -684.4,-17.5 								"/>
							</g>
							<g id="XMLID_132_">
								<polygon class="st0" points="-679.3,-18.9 -680.1,-24.2 -683.6,-17.4 								"/>
							</g>
						</g>
						<g id="XMLID_128_">
							<g id="XMLID_130_">
								<path class="st0" d="M-678.7-48.2l3.5-3l-0.2-2.2c-1.7,0.5-3.3,1.2-4.8,2L-678.7-48.2z"/>
							</g>
							<g id="XMLID_129_">
								<path class="st0" d="M-680.9-51c-1.4,0.9-2.8,1.9-4,3l1.2,4.1l4.4-3.8L-680.9-51z"/>
							</g>
						</g>
						<g id="XMLID_125_">
							<g id="XMLID_127_">
								<path class="st0" d="M-658.5-51.7l-4.6,2.5l3.6,2l4.8-1.9C-655.8-50.1-657.1-51-658.5-51.7z"/>
							</g>
							<g id="XMLID_126_">
								<path class="st0" d="M-659.4-52.1c-1.3-0.6-2.7-1.1-4.1-1.5l-3.9,2l3.5,1.9L-659.4-52.1z"/>
							</g>
						</g>
						<g id="XMLID_122_">
							<g id="XMLID_124_">
								<polygon class="st0" points="-670,-43.1 -660.4,-46.8 -668.2,-51.1 -669.4,-50.5 								"/>
							</g>
							<g id="XMLID_123_">
								<polygon class="st0" points="-670.4,-50 -674.1,-48.1 -673.6,-41.7 -670.9,-42.7 								"/>
							</g>
						</g>
						<g id="XMLID_94_">
							<g id="XMLID_121_">
								<polygon class="st0" points="-672.3,1.2 -672,-4 -675.3,-4.1 -676,0.4 								"/>
							</g>
							<g id="XMLID_120_">
								<polygon class="st0" points="-675.2,-4.9 -670,-4.7 -669.1,-9.1 -674.6,-9.2 								"/>
							</g>
							<g id="XMLID_119_">
								<polygon class="st0" points="-683.6,-5.3 -676,-5 -675.8,-6.6 -682.1,-8.2 								"/>
							</g>
							<g id="XMLID_118_">
								<polygon class="st0" points="-676.2,-4.2 -679.4,-4.3 -680,-2 -676.6,-1.4 								"/>
							</g>
							<g id="XMLID_117_">
								<polygon class="st0" points="-670,2.5 -676.1,1.2 -676.5,3.5 -670.9,5.2 								"/>
							</g>
							<g id="XMLID_116_">
								<path class="st0" d="M-684.5-5.3L-684.5-5.3l1.6-3.1l-3.8-0.9C-686-8-685.3-6.7-684.5-5.3z"/>
							</g>
							<g id="XMLID_115_">
								<polygon class="st0" points="-668.2,5 -667.4,3.1 -669.1,2.7 -669.7,4.2 								"/>
							</g>
							<g id="XMLID_114_">
								<path class="st0" d="M-680.7,0.3c1,1.3,2.1,2.6,3.3,3.9l0.7-4.8l-3.6-0.7L-680.7,0.3z"/>
							</g>
							<g id="XMLID_113_">
								<polygon class="st0" points="-663.3,-9.1 -659,-6.5 -655.6,-9 								"/>
							</g>
							<g id="XMLID_112_">
								<polygon class="st0" points="-671.1,-4 -671.5,1.4 -668.3,2.1 -668.4,-3.9 								"/>
							</g>
							<g id="XMLID_111_">
								<path class="st0" d="M-670,5l-1.6,4.5l-0.4-0.1c0.2,0.2,0.4,0.4,0.7,0.5l4.2-3.3L-670,5z"/>
							</g>
							<g id="XMLID_110_">
								<polygon class="st0" points="-656.7,-4.3 -661.1,-6.9 -662.2,-4.5 								"/>
							</g>
							<g id="XMLID_109_">
								<polygon class="st0" points="-669.1,-4.7 -663.1,-4.5 -661.8,-7.3 -664.8,-9.1 -668.2,-9.1 								"/>
							</g>
							<g id="XMLID_108_">
								<path class="st0" d="M-680.2-4.3l-3.7-0.1c0.8,1.3,1.7,2.6,2.7,3.9L-680.2-4.3z"/>
							</g>
							<g id="XMLID_107_">
								<path class="st0" d="M-682.5-9.2l3.2-6.2l-8.6,3.1c0.3,0.7,0.6,1.3,0.9,2L-682.5-9.2z"/>
							</g>
							<g id="XMLID_106_">
								<path class="st0" d="M-678.8-15.6L-678.8-15.6L-678.8-15.6z"/>
							</g>
							<g id="XMLID_105_">
								<polygon class="st0" points="-681.7,-9 -675.7,-7.5 -675.4,-9.2 -677.9,-9.2 -678.7,-14.9 								"/>
							</g>
							<g id="XMLID_104_">
								<path class="st0" d="M-654.2-9l-4,3l3,1.8h0.6c0.9-1.5,1.9-3.1,2.7-4.7L-654.2-9z"/>
							</g>
							<g id="XMLID_103_">
								<path class="st0" d="M-671.2,6l-5.4-1.6l-0.1,0.6c1.3,1.4,2.8,2.8,4.4,4.1L-671.2,6z"/>
							</g>
							<g id="XMLID_102_">
								<path class="st0" d="M-662.7,4.1l-2.9,2.3l1.6,0.8c0.9-0.8,1.8-1.8,2.8-2.8L-662.7,4.1z"/>
							</g>
							<g id="XMLID_101_">
								<polygon class="st0" points="-662.7,1.2 -665.5,-3.8 -667.5,-3.8 -667.4,2.3 -663.4,3.1 								"/>
							</g>
							<g id="XMLID_100_">
								<polygon class="st0" points="-666.6,3.3 -667.5,5.4 -666.4,6 -663.8,3.9 								"/>
							</g>
							<g id="XMLID_99_">
								<path class="st0" d="M-669.4,9.4l-1.2,1c0.4,0.3,0.7,0.6,1.1,0.9L-669.4,9.4z"/>
							</g>
							<g id="XMLID_98_">
								<path class="st0" d="M-664.7,7.8l-1.6-0.9l-2.4,1.9h0.1l-0.1,2.3C-667.9,10.6-666.5,9.5-664.7,7.8z"/>
							</g>
							<g id="XMLID_97_">
								<path class="st0" d="M-660-3.6l-0.8,2l2.6,2.4c1-1.3,2.1-2.7,3.1-4.2L-660-3.6z"/>
							</g>
							<g id="XMLID_96_">
								<path class="st0" d="M-658.7,1.5l-2.4-2.3l-1.6,4l2,0.4C-660,3-659.4,2.3-658.7,1.5z"/>
							</g>
							<g id="XMLID_95_">
								<polygon class="st0" points="-660.9,-3.6 -664.5,-3.7 -662.3,0.2 								"/>
							</g>
						</g>
						<g id="XMLID_91_">
							<g id="XMLID_93_">
								<polygon class="st0" points="-659.7,-40.4 -654.4,-42.4 -656.4,-47.5 -660.8,-45.8 								"/>
							</g>
							<g id="XMLID_92_">
								<polygon class="st0" points="-661.6,-45.5 -665.8,-43.8 -662.1,-39.6 -660.5,-40.2 								"/>
							</g>
						</g>
						<g id="XMLID_88_">
							<g id="XMLID_90_">
								<polygon class="st0" points="-665,-38.5 -663,-39.3 -666.6,-43.5 -670.9,-41.8 								"/>
							</g>
							<g id="XMLID_89_">
								<polygon class="st0" points="-671.9,-41.4 -673.5,-40.8 -673,-35.6 -666,-38.2 								"/>
							</g>
						</g>
						<g id="XMLID_85_">
							<g id="XMLID_87_">
								<polygon class="st0" points="-676.8,-40.4 -680.8,-45.4 -683.5,-43.1 -683.5,-43.1 -682.2,-38.3 -680.8,-38.8 -680.8,-38.9 
									-680.4,-39 								"/>
							</g>
							<g id="XMLID_86_">
								<polygon class="st0" points="-676,-40.7 -674.4,-41.4 -675.1,-50.2 -680.2,-45.9 								"/>
							</g>
						</g>
					</g>
				</g>
				<polygon id="XMLID_83_" class="st0" points="-678.5,-30.4 -675.9,-12.5 -663.4,-12.4 -659.7,-21.1 -670,-20 -668.1,-34.2 				
					"/>
			</g>
		</g>
		<rect x="-704.8" y="-57" class="st1" width="70" height="70"/>
	</g>
	<g>
		<g>
			<g>
				<g id="XMLID_3_">
					<g>
						<g id="XMLID_82_">
							<path class="st2" d="M-683.8,43.7l-0.7-2.6l-7.1,1.2c-0.6,1.6-1,3.2-1.2,4.9L-683.8,43.7z"/>
						</g>
						<g id="XMLID_81_">
							<polygon class="st2" points="-675.1,41.2 -680.8,43.4 -679.8,48.2 -674.7,46.4 							"/>
						</g>
						<g id="XMLID_80_">
							<path class="st2" d="M-684.8,40.4l-1.7-6.1c-2,2.1-3.6,4.5-4.8,7.2L-684.8,40.4z"/>
						</g>
						<g id="XMLID_79_">
							<polygon class="st2" points="-686.2,56.9 -681.1,56 -681.9,51.2 -686.8,52.8 							"/>
						</g>
						<g id="XMLID_78_">
							<polygon class="st2" points="-687.7,46.1 -686.9,52 -682,50.3 -682.2,49.1 -680.6,48.5 -681.5,43.7 							"/>
						</g>
						<g id="XMLID_77_">
							<path class="st2" d="M-675,32.7l9.5-4.9c-1.4-0.3-2.9-0.4-4.4-0.4c-1.9,0-3.7,0.2-5.5,0.7L-675,32.7z"/>
						</g>
						<g id="XMLID_76_">
							<path class="st2" d="M-686,64.8l-0.9-6.9l-5.1,1c0.4,2.2,1.1,4.7,2,7.4l4.4-1.6L-686,64.8z"/>
						</g>
						<g id="XMLID_75_">
							<path class="st2" d="M-654.7,33.2l-1.7,0.7l1.9,5.2l3.7-1.4C-651.9,36-653.2,34.5-654.7,33.2z"/>
						</g>
						<g id="XMLID_56_">
							<g id="XMLID_74_">
								<polygon class="st2" points="-651.2,43.9 -654.5,44.5 -656.4,48.5 -651.6,49.3 								"/>
							</g>
							<g id="XMLID_73_">
								<polygon class="st2" points="-657.7,49.1 -661.3,48.4 -663.5,53.3 -659.6,53 								"/>
							</g>
							<g id="XMLID_72_">
								<polygon class="st2" points="-654.4,42.5 -659.9,44.5 -656.4,46.5 -655,43.8 -655.1,43.8 -655,43.8 								"/>
							</g>
							<g id="XMLID_71_">
								<polygon class="st2" points="-665.6,53.5 -664.4,53.4 -662.1,48.3 -664.6,47.8 								"/>
							</g>
							<g id="XMLID_70_">
								<polygon class="st2" points="-651.9,53.2 -659.4,54.4 -660.7,57.1 -654.3,56.2 -654.6,57.1 -652.2,56.6 								"/>
							</g>
							<g id="XMLID_69_">
								<path class="st2" d="M-649,54.2l1.7,0.7c0.1-0.6,0.1-1.1,0.2-1.7c0.1-0.5,0.1-1.1,0.1-1.6L-649,54.2z"/>
							</g>
							<g id="XMLID_68_">
								<polygon class="st2" points="-652.6,62.9 -656,64.9 -656.1,64.8 -655.9,69.4 -653.1,69.4 								"/>
							</g>
							<g id="XMLID_67_">
								<polygon class="st2" points="-655,58 -656.3,61 -656.2,61 -656.1,64 -652.6,61.9 -652.2,57.4 								"/>
							</g>
							<g id="XMLID_66_">
								<polygon class="st2" points="-651.7,50.1 -656.8,49.2 -658.9,53.5 -651.9,52.4 								"/>
							</g>
							<g id="XMLID_65_">
								<polygon class="st2" points="-657,62.7 -659.7,69.4 -656.7,69.4 								"/>
							</g>
							<g id="XMLID_64_">
								<polygon class="st2" points="-660,53.9 -665.7,54.4 -666.3,57.8 -661.7,57.2 								"/>
							</g>
							<g id="XMLID_63_">
								<polygon class="st2" points="-657.3,48.3 -656.7,47.2 -660.9,44.9 -664.3,46.1 -664.5,47 								"/>
							</g>
							<g id="XMLID_62_">
								<path class="st2" d="M-652,65l-0.3,4.5h1.1c0.6-1.4,1.2-2.9,1.7-4.5H-652z"/>
							</g>
							<g id="XMLID_61_">
								<path class="st2" d="M-651.2,54.1l-0.2,2.6l0.1,0.5h-0.1l-0.2,2.6l3.7-1.1c0.2-1,0.4-2,0.5-3L-651.2,54.1z"/>
							</g>
							<g id="XMLID_60_">
								<path class="st2" d="M-648.1,59.6l-3.6,1l-0.3,3.5h2.6C-648.8,62.7-648.4,61.2-648.1,59.6z"/>
							</g>
							<g id="XMLID_59_">
								<path class="st2" d="M-654,43.6l5.6-1.2c-0.2-0.6-0.5-1.2-0.8-1.8l-4.2,1.5L-654,43.6z"/>
							</g>
							<g id="XMLID_58_">
								<path class="st2" d="M-651.1,53.3l1.4,0.6l2.8-3.7c0-0.9-0.1-1.9-0.2-2.8l-3.5,0.3L-651.1,53.3z"/>
							</g>
							<g id="XMLID_57_">
								<path class="st2" d="M-650.4,43.7l-0.2,3.1l3.3-0.3c-0.2-1.1-0.5-2.2-0.8-3.3L-650.4,43.7z"/>
							</g>
						</g>
						<g id="XMLID_53_">
							<g id="XMLID_55_">
								<path class="st2" d="M-687.8,51.4l-0.7-4.9l-4.5,1.8c-0.1,0.7-0.1,1.5-0.1,2.2c0,0,0,0.2,0,0.5L-687.8,51.4z"/>
							</g>
							<g id="XMLID_54_">
								<path class="st2" d="M-687.7,52.2l-5.3-0.5v0.1c0.1,1.3,0.3,3.5,0.8,6.3l5.2-1L-687.7,52.2z"/>
							</g>
						</g>
						<g id="XMLID_50_">
							<g id="XMLID_52_">
								<polygon class="st2" points="-681.5,56.9 -686.1,57.8 -685.3,64.2 								"/>
							</g>
							<g id="XMLID_51_">
								<polygon class="st2" points="-680.1,62.8 -680.9,57.5 -684.4,64.3 								"/>
							</g>
						</g>
						<g id="XMLID_47_">
							<g id="XMLID_49_">
								<path class="st2" d="M-679.6,33.4l3.5-3l-0.2-2.2c-1.7,0.5-3.3,1.2-4.8,2L-679.6,33.4z"/>
							</g>
							<g id="XMLID_48_">
								<path class="st2" d="M-681.8,30.6c-1.4,0.9-2.8,1.9-4,3l1.2,4.1l4.4-3.8L-681.8,30.6z"/>
							</g>
						</g>
						<g id="XMLID_44_">
							<g id="XMLID_46_">
								<path class="st2" d="M-659.3,30l-4.6,2.5l3.6,2l4.8-1.9C-656.6,31.6-657.9,30.7-659.3,30z"/>
							</g>
							<g id="XMLID_45_">
								<path class="st2" d="M-660.2,29.5c-1.3-0.6-2.7-1.1-4.1-1.5l-3.9,2l3.4,2L-660.2,29.5z"/>
							</g>
						</g>
						<g id="XMLID_41_">
							<g id="XMLID_43_">
								<polygon class="st2" points="-670.8,38.6 -661.3,34.9 -669.1,30.6 -670.3,31.2 								"/>
							</g>
							<g id="XMLID_42_">
								<polygon class="st2" points="-671.3,31.7 -675,33.6 -674.4,40 -671.8,39 								"/>
							</g>
						</g>
						<g id="XMLID_13_">
							<g id="XMLID_40_">
								<polygon class="st2" points="-673.2,82.9 -672.8,77.7 -676.2,77.6 -676.9,82.1 								"/>
							</g>
							<g id="XMLID_39_">
								<polygon class="st2" points="-676.1,76.7 -670.8,76.9 -669.9,72.6 -675.4,72.5 								"/>
							</g>
							<g id="XMLID_38_">
								<polygon class="st2" points="-684.4,76.4 -676.9,76.7 -676.6,75 -682.9,73.5 								"/>
							</g>
							<g id="XMLID_37_">
								<polygon class="st2" points="-677,77.5 -680.3,77.4 -680.9,79.6 -677.4,80.3 								"/>
							</g>
							<g id="XMLID_36_">
								<polygon class="st2" points="-670.8,84.2 -677,82.9 -677.3,85.2 -671.8,86.9 								"/>
							</g>
							<g id="XMLID_35_">
								<path class="st2" d="M-685.3,76.4L-685.3,76.4l1.6-3.1l-3.8-0.9C-686.9,73.7-686.1,75-685.3,76.4z"/>
							</g>
							<g id="XMLID_34_">
								<polygon class="st2" points="-669.1,86.7 -668.3,84.8 -670,84.4 -670.5,85.9 								"/>
							</g>
							<g id="XMLID_33_">
								<path class="st2" d="M-681.6,82c1,1.3,2.1,2.6,3.3,3.9l0.7-4.8l-3.6-0.7L-681.6,82z"/>
							</g>
							<g id="XMLID_32_">
								<polygon class="st2" points="-664.2,72.6 -659.8,75.2 -656.4,72.7 								"/>
							</g>
							<g id="XMLID_31_">
								<polygon class="st2" points="-672,77.7 -672.4,83.1 -669.1,83.8 -669.2,77.8 								"/>
							</g>
							<g id="XMLID_30_">
								<path class="st2" d="M-670.8,86.7l-1.6,4.5l-0.4-0.2c0.2,0.2,0.4,0.4,0.7,0.5l4.2-3.3L-670.8,86.7z"/>
							</g>
							<g id="XMLID_29_">
								<polygon class="st2" points="-657.6,77.4 -661.9,74.8 -663.1,77.2 								"/>
							</g>
							<g id="XMLID_28_">
								<polygon class="st2" points="-670,77 -664,77.2 -662.6,74.4 -665.7,72.6 -669.1,72.6 								"/>
							</g>
							<g id="XMLID_27_">
								<path class="st2" d="M-681.1,77.4l-3.7-0.1c0.8,1.3,1.7,2.6,2.7,3.9L-681.1,77.4z"/>
							</g>
							<g id="XMLID_26_">
								<path class="st2" d="M-683.4,72.5l3.2-6.2l-8.6,3.1c0.3,0.7,0.6,1.3,0.9,2L-683.4,72.5z"/>
							</g>
							<g id="XMLID_25_">
								<path class="st2" d="M-679.7,66.1L-679.7,66.1L-679.7,66.1z"/>
							</g>
							<g id="XMLID_24_">
								<polygon class="st2" points="-682.6,72.7 -676.5,74.2 -676.3,72.5 -678.7,72.4 -679.5,66.8 								"/>
							</g>
							<g id="XMLID_23_">
								<path class="st2" d="M-655.1,72.7l-4,3l3,1.8h0.6c0.9-1.5,1.9-3.1,2.7-4.7L-655.1,72.7z"/>
							</g>
							<g id="XMLID_22_">
								<path class="st2" d="M-672,87.7l-5.4-1.6l-0.1,0.6c1.3,1.4,2.8,2.8,4.4,4.1L-672,87.7z"/>
							</g>
							<g id="XMLID_21_">
								<path class="st2" d="M-663.6,85.8l-2.9,2.3l1.6,0.8c0.9-0.8,1.8-1.8,2.8-2.8L-663.6,85.8z"/>
							</g>
							<g id="XMLID_20_">
								<polygon class="st2" points="-663.6,82.9 -666.3,77.9 -668.4,77.8 -668.3,83.9 -664.3,84.8 								"/>
							</g>
							<g id="XMLID_19_">
								<polygon class="st2" points="-667.5,85 -668.4,87.1 -667.3,87.7 -664.6,85.6 								"/>
							</g>
							<g id="XMLID_18_">
								<path class="st2" d="M-670.3,91.1l-1.2,1c0.4,0.3,0.7,0.6,1.1,0.9L-670.3,91.1z"/>
							</g>
							<g id="XMLID_17_">
								<path class="st2" d="M-665.5,89.5l-1.6-0.9l-2.4,1.9h0.1l-0.1,2.3C-668.8,92.3-667.4,91.2-665.5,89.5z"/>
							</g>
							<g id="XMLID_16_">
								<path class="st2" d="M-660.9,78.1l-0.8,2l2.6,2.4c1-1.3,2.1-2.7,3.1-4.2L-660.9,78.1z"/>
							</g>
							<g id="XMLID_15_">
								<path class="st2" d="M-659.6,83.2l-2.4-2.3l-1.6,4l2,0.4C-660.9,84.7-660.2,84-659.6,83.2z"/>
							</g>
							<g id="XMLID_14_">
								<polygon class="st2" points="-661.7,78.1 -665.4,78 -663.2,81.9 								"/>
							</g>
						</g>
						<g id="XMLID_10_">
							<g id="XMLID_12_">
								<polygon class="st2" points="-660.6,41.2 -655.3,39.3 -657.2,34.2 -661.7,35.9 								"/>
							</g>
							<g id="XMLID_11_">
								<polygon class="st2" points="-662.5,36.2 -666.7,37.9 -663,42.1 -661.3,41.5 								"/>
							</g>
						</g>
						<g id="XMLID_7_">
							<g id="XMLID_9_">
								<polygon class="st2" points="-665.8,43.1 -663.8,42.4 -667.5,38.2 -671.8,39.9 								"/>
							</g>
							<g id="XMLID_8_">
								<polygon class="st2" points="-672.8,40.2 -674.3,40.9 -673.9,46.1 -666.9,43.5 								"/>
							</g>
						</g>
						<g id="XMLID_4_">
							<g id="XMLID_6_">
								<polygon class="st2" points="-677.6,41.3 -681.7,36.3 -684.3,38.6 -684.4,38.5 -683.1,43.4 -681.7,42.9 -681.7,42.8 
									-681.3,42.7 								"/>
							</g>
							<g id="XMLID_5_">
								<polygon class="st2" points="-676.8,41 -675.2,40.3 -676,31.4 -681,35.8 								"/>
							</g>
						</g>
					</g>
				</g>
				<polygon id="XMLID_2_" class="st3" points="-679.4,51.3 -676.8,69.2 -664.2,69.3 -660.6,60.6 -670.9,61.6 -669,47.5 				"/>
			</g>
		</g>
		<rect x="-704.8" y="25" class="st1" width="70" height="70"/>
	</g>
</g>
<g>
	<g>
		<g>
			<g>
				
					<linearGradient id="XMLID_164_" gradientUnits="userSpaceOnUse" x1="-498.8181" y1="-241.1145" x2="-457.752" y2="-282.1806" gradientTransform="matrix(1 0 0 1 0 322)">
					<stop  offset="0" style="stop-color:#F05A44"/>
					<stop  offset="1" style="stop-color:#613E97"/>
				</linearGradient>
				<path id="XMLID_5189_" class="st4" d="M-474.1,68c2.2,2.2,2.2,5.8,0,8.1c-1.1,1.1-2.6,1.7-4.1,1.7h-2.2c-1,0-2.2,0.6-2.8,1.2
					c-0.6,0.6-1.2,1.6-1.2,2.8v1.6c0.2,1.6-0.4,3.3-1.6,4.6c-2.2,2.2-5.8,2.2-8.1,0c-2.2-2.2-2.2-5.8,0-8.1c1.3-1.3,2.9-1.8,4.6-1.6
					h1.6c1.2,0,2.2-0.6,2.8-1.2c0.6-0.6,1.2-1.7,1.2-2.8v-2.2c0-1.5,0.5-3,1.7-4.1C-479.9,65.7-476.3,65.7-474.1,68z M-496.2,69.8
					c0-1.2,0.7-2.2,1.2-2.8c0.6-0.6,1.7-1.2,2.8-1.2h1.5c1.7,0.2,3.4-0.3,4.7-1.6c2.2-2.2,2.2-5.8,0-8.1c-1.1-1.1-2.6-1.7-4.1-1.7
					h-2.1c-1.1,0-2.2-0.6-2.8-1.2c-0.6-0.6-1.2-1.6-1.2-2.8v-1.6c0.2-1.6-0.4-3.3-1.6-4.6c-2.2-2.2-5.8-2.2-8.1,0
					c-2.2,2.2-2.2,5.8,0,8.1c1.3,1.3,2.9,1.8,4.6,1.6h1.6c1.2,0,2.2,0.7,2.8,1.2c0.6,0.6,1.2,1.7,1.2,2.8v1.9c0,0.2,0,0.3,0,0.5v2
					c0,1.1-0.6,2.2-1.2,2.8s-1.6,1.2-2.8,1.2h-2.2l0,0c-1.5,0-2.9,0.6-4,1.7c-2.2,2.2-2.2,5.8,0,8.1c2.2,2.2,5.8,2.2,8.1,0
					c1.2-1.2,1.7-2.9,1.6-4.4V69.8z M-454.4,66.3L-454.4,66.3h-2.2c-1.1,0-2.2-0.6-2.8-1.2s-1.2-1.6-1.2-2.8v-1.7c0-0.4,0-0.7,0-1.1
					V58c0-1.2,0.7-2.2,1.2-2.8c0.6-0.6,1.7-1.2,2.8-1.2h2.2l0,0c1.5,0,2.9-0.5,4.1-1.7c2.2-2.2,2.2-5.8,0-8.1
					c-2.2-2.2-5.8-2.2-8.1,0c-1.1,1.1-1.7,2.6-1.7,4.1l0,0v2.2c0,1.1-0.6,2.2-1.2,2.8c-0.6,0.6-1.6,1.2-2.8,1.2h-1.5
					c-1.7-0.2-3.4,0.3-4.6,1.6c-2.2,2.2-2.2,5.8,0,8.1c1.3,1.3,3,1.8,4.7,1.6h1.5c1.2,0,2.2,0.7,2.8,1.2c0.6,0.6,1.2,1.7,1.2,2.8
					v2.1c0,1.5,0.5,3,1.7,4.2c2.2,2.2,5.8,2.2,8.1,0c2.2-2.2,2.2-5.8,0-8.1C-451.5,66.8-453,66.3-454.4,66.3z M-470.3,79.9
					c-2.2,2.2-2.2,5.8,0,8.1c2.2,2.2,5.8,2.2,8.1,0c2.2-2.2,2.2-5.8,0-8.1C-464.5,77.6-468.1,77.6-470.3,79.9z M-486,40.4
					c2.2-2.2,2.2-5.8,0-8.1c-2.2-2.3-5.8-2.2-8.1,0c-2.3,2.2-2.2,5.8,0,8.1C-491.8,42.7-488.2,42.7-486,40.4z M-474.1,52.3
					c1.3-1.3,1.8-3,1.6-4.6v-1.6c0-1.2,0.7-2.2,1.2-2.8c0.6-0.6,1.7-1.2,2.8-1.2h2.1c1.5,0,3-0.5,4.2-1.7c2.2-2.2,2.2-5.8,0-8.1
					c-2.2-2.2-5.8-2.2-8.1,0c-1.1,1.1-1.7,2.6-1.7,4l0,0v2.2c0,1.1-0.6,2.2-1.2,2.8c-0.6,0.6-1.6,1.2-2.8,1.2h-1.8
					c-1.6-0.1-3.2,0.4-4.4,1.6c-2.2,2.2-2.2,5.8,0,8.1S-476.4,54.5-474.1,52.3z"/>
			</g>
		</g>
		<rect x="-513.8" y="25" class="st1" width="70" height="70"/>
	</g>
	<g>
		<g>
			<g>
				<path id="XMLID_8469_" class="st0" d="M-474.2-13.7c2.2,2.2,2.2,5.8,0,8.1c-1.1,1.1-2.6,1.7-4.1,1.7h-2.2c-1,0-2.2,0.6-2.8,1.2
					s-1.2,1.6-1.2,2.8v1.6c0.2,1.6-0.4,3.3-1.6,4.6c-2.2,2.2-5.8,2.2-8.1,0c-2.2-2.2-2.2-5.8,0-8.1c1.3-1.3,2.9-1.8,4.6-1.6h1.6
					c1.2,0,2.2-0.6,2.8-1.2s1.2-1.7,1.2-2.8v-2.2c0-1.5,0.5-3,1.7-4.1C-480.1-15.9-476.5-15.9-474.2-13.7z M-496.4-11.9
					c0-1.2,0.7-2.2,1.2-2.8c0.6-0.6,1.7-1.2,2.8-1.2h1.5c1.7,0.2,3.4-0.3,4.7-1.6c2.2-2.2,2.2-5.8,0-8.1c-1.1-1.1-2.6-1.7-4.1-1.7
					h-2.1c-1.1,0-2.2-0.6-2.8-1.2c-0.6-0.6-1.2-1.6-1.2-2.8v-1.6c0.2-1.6-0.4-3.3-1.6-4.6c-2.2-2.2-5.8-2.2-8.1,0
					c-2.2,2.2-2.2,5.8,0,8.1c1.3,1.3,2.9,1.8,4.6,1.6h1.6c1.2,0,2.2,0.7,2.8,1.2c0.6,0.6,1.2,1.7,1.2,2.8v1.9c0,0.2,0,0.3,0,0.5v2
					c0,1.1-0.6,2.2-1.2,2.8s-1.6,1.2-2.8,1.2h-2.2l0,0c-1.5,0-2.9,0.6-4,1.7c-2.2,2.2-2.2,5.8,0,8.1c2.2,2.2,5.8,2.2,8.1,0
					c1.2-1.2,1.7-2.9,1.6-4.4V-11.9z M-454.6-15.4L-454.6-15.4h-2.2c-1.1,0-2.2-0.6-2.8-1.2s-1.2-1.6-1.2-2.8v-1.7
					c0-0.4,0-0.7,0-1.1v-1.5c0-1.2,0.7-2.2,1.2-2.8c0.6-0.6,1.7-1.2,2.8-1.2h2.2l0,0c1.5,0,2.9-0.5,4.1-1.7c2.2-2.2,2.2-5.8,0-8.1
					c-2.2-2.2-5.8-2.2-8.1,0c-1.1,1.1-1.7,2.6-1.7,4.1l0,0v2.2c0,1.1-0.6,2.2-1.2,2.8c-0.6,0.6-1.6,1.2-2.8,1.2h-1.5
					c-1.7-0.2-3.4,0.3-4.6,1.6c-2.2,2.2-2.2,5.8,0,8.1c1.3,1.3,3,1.8,4.7,1.6h1.5c1.2,0,2.2,0.7,2.8,1.2c0.6,0.6,1.2,1.7,1.2,2.8
					v2.1c0,1.5,0.5,3,1.7,4.2c2.2,2.2,5.8,2.2,8.1,0c2.2-2.2,2.2-5.8,0-8.1C-451.6-14.8-453.1-15.4-454.6-15.4z M-470.5-1.8
					c-2.2,2.2-2.2,5.8,0,8.1c2.2,2.2,5.8,2.2,8.1,0c2.2-2.2,2.2-5.8,0-8.1C-464.6-4.1-468.2-4.1-470.5-1.8z M-486.1-41.2
					c2.2-2.2,2.2-5.8,0-8.1c-2.2-2.3-5.8-2.2-8.1,0c-2.2,2.2-2.2,5.8,0,8.1C-492-39-488.4-39-486.1-41.2z M-474.3-29.4
					c1.3-1.3,1.8-3,1.6-4.6v-1.6c0-1.2,0.7-2.2,1.2-2.8c0.6-0.6,1.7-1.2,2.8-1.2h2.1c1.5,0,3-0.5,4.2-1.7c2.2-2.2,2.2-5.8,0-8.1
					c-2.2-2.2-5.8-2.2-8.1,0c-1.1,1.1-1.7,2.6-1.7,4l0,0v2.2c0,1.1-0.6,2.2-1.2,2.8s-1.6,1.2-2.8,1.2h-1.8c-1.6-0.1-3.2,0.4-4.4,1.6
					c-2.2,2.2-2.2,5.8,0,8.1C-480.1-27.2-476.5-27.2-474.3-29.4z"/>
			</g>
		</g>
		<rect x="-513.8" y="-57" class="st1" width="70" height="70"/>
	</g>
</g>
<g>
	<rect x="-334.8" y="25" class="st1" width="70" height="70"/>
	<g>
		<g>
			<path class="st5" d="M-288.7,55.2c-1.6,0-3.2-0.6-4.5-1.9c-2.4-2.5-2.3-6.4,0.1-8.8l11.5-11.1c2.5-2.4,6.4-2.3,8.8,0.1
				c2.4,2.5,2.3,6.4-0.1,8.8l-11.5,11.1C-285.6,54.6-287.2,55.2-288.7,55.2z"/>
		</g>
		<g>
			<path class="st6" d="M-277.9,88.8c-1.6,0-3.1-0.6-4.3-1.8l-11.5-11.1c-2.5-2.4-2.5-6.3-0.1-8.8c2.4-2.5,6.3-2.5,8.8-0.1
				l11.5,11.1c2.5,2.4,2.5,6.3,0.1,8.8C-274.7,88.1-276.3,88.8-277.9,88.8z"/>
		</g>
		<g>
			<path class="st7" d="M-320.8,88.9c-1.5,0-3-0.5-4.2-1.6c-2.6-2.3-2.8-6.2-0.4-8.8l16.5-18.3l-16.5-18.3c-2.3-2.6-2.1-6.5,0.4-8.8
				c2.6-2.3,6.5-2.1,8.8,0.4l20.3,22.5c2.1,2.4,2.1,6,0,8.4l-20.3,22.5C-317.4,88.2-319.1,88.9-320.8,88.9z"/>
		</g>
	</g>
</g>
<g>
	<rect x="-334.8" y="-57" class="st1" width="70" height="70"/>
	<g>
		<g>
			<path class="st0" d="M-288.7-26.8c-1.6,0-3.2-0.6-4.5-1.9c-2.4-2.5-2.3-6.4,0.1-8.8l11.5-11.1c2.5-2.4,6.4-2.3,8.8,0.1
				c2.4,2.5,2.3,6.4-0.1,8.8l-11.5,11.1C-285.6-27.4-287.2-26.8-288.7-26.8z"/>
		</g>
		<g>
			<path class="st0" d="M-277.9,6.8c-1.6,0-3.1-0.6-4.3-1.8l-11.5-11.1c-2.5-2.4-2.5-6.3-0.1-8.8c2.4-2.5,6.3-2.5,8.8-0.1l11.5,11.1
				c2.5,2.4,2.5,6.3,0.1,8.8C-274.7,6.1-276.3,6.8-277.9,6.8z"/>
		</g>
		<g>
			<path class="st0" d="M-320.8,6.9c-1.5,0-3-0.5-4.2-1.6c-2.6-2.3-2.8-6.2-0.4-8.8l16.5-18.3l-16.5-18.3c-2.3-2.6-2.1-6.5,0.4-8.8
				c2.6-2.3,6.5-2.1,8.8,0.4l20.3,22.5c2.1,2.4,2.1,6,0,8.4l-20.3,22.5C-317.4,6.2-319.1,6.9-320.8,6.9z"/>
		</g>
	</g>
</g>
<g>
	<g>
		<g>
			<g>
				<g>
					<g>
						<polygon class="st0" points="-550.6,-28.7 -555.6,-28.7 -555.6,-15.2 -546.3,-15.2 -546.3,-19.5 -550.6,-19.5 						"/>
						<path class="st0" d="M-561-19.5v-9.2h-4.9v4.7l-7,4.4l-1.4-0.8l7-4.4l-3.1-2l-7,4.4l-1.2-0.8l7-4.4l-3.1-2l-7.9,5
							c-1.1-2.9-4-4.1-7.5-4.1h-5.4v13.6h6.6c3.1,0,5.5-1.6,6.4-4.2l7.9,5l8.8-5.5v4.8h9.3v-4.4L-561-19.5L-561-19.5z M-590.1-19.2
							h-0.7v-5.3h0.7c1.8,0,2.9,0.8,2.9,2.7C-587.2-20-588.5-19.2-590.1-19.2L-590.1-19.2z"/>
					</g>
				</g>
				<circle class="st8" cx="-570.8" cy="-22" r="31"/>
			</g>
		</g>
		<rect x="-605.8" y="-57" class="st1" width="70" height="70"/>
	</g>
	<g>
		<g>
			<g>
				<g>
					<g>
						<polygon class="st9" points="-550.6,53.2 -555.5,53.2 -555.5,66.8 -546.2,66.8 -546.2,62.5 -550.6,62.5 						"/>
						<path class="st9" d="M-561,62.5v-9.2h-4.9V58l-7,4.4l-1.4-0.8l7-4.4l-3.1-2l-7,4.4l-1.2-0.9l7-4.4l-3.1-2l-7.9,5
							c-1.1-2.9-4-4.1-7.5-4.1h-5.4v13.6h6.6c3.1,0,5.5-1.6,6.4-4.2l7.9,5l8.8-5.5v4.8h9.3v-4.4H-561L-561,62.5z M-590.1,62.7h-0.7
							v-5.3h0.7c1.8,0,2.9,0.8,2.9,2.7C-587.2,62-588.4,62.7-590.1,62.7L-590.1,62.7z"/>
					</g>
				</g>
				<circle class="st10" cx="-570.8" cy="60" r="31"/>
			</g>
		</g>
		<rect x="-605.8" y="25" class="st1" width="70" height="70"/>
	</g>
</g>
<g>
	<line class="st11" x1="546" y1="-361" x2="582.7" y2="-396.8"/>
	<line class="st12" x1="544" y1="-289" x2="580.7" y2="-253.3"/>
	<polyline class="st13" points="443.1,-397.3 508.2,-325.2 443.1,-253 	"/>
</g>
<g>
	<g>
		<path class="st5" d="M781-341c-5.2,0-10.4-2-14.3-6.1c-7.7-7.9-7.5-20.6,0.4-28.3l36.7-35.7c7.9-7.7,20.6-7.5,28.3,0.4
			s7.5,20.6-0.4,28.3L795-346.7C791-342.9,786-341,781-341z"/>
	</g>
	<g>
		<path class="st6" d="M815.7-233.3c-5,0-10.1-1.9-13.9-5.7l-36.7-35.7c-7.9-7.7-8.1-20.4-0.4-28.3s20.4-8.1,28.3-0.4l36.7,35.7
			c7.9,7.7,8.1,20.4,0.4,28.3C826.1-235.3,820.9-233.3,815.7-233.3z"/>
	</g>
	<g>
		<path class="st7" d="M678-233c-4.8,0-9.6-1.7-13.4-5.2c-8.2-7.4-8.8-20-1.4-28.2l53.1-58.8l-53.1-58.7c-7.4-8.2-6.8-20.8,1.4-28.2
			c8.2-7.4,20.8-6.8,28.2,1.4l65.2,72.2c6.9,7.6,6.9,19.2,0,26.8l-65.2,72.2C688.9-235.2,683.5-233,678-233z"/>
	</g>
</g>
<g>
	<rect x="-420.8" y="-57" class="st1" width="70" height="70"/>
	<g>
		<g>
			<path class="st0" d="M-374.7-26.8c-1.6,0-3.2-0.6-4.5-1.9c-2.4-2.5-2.3-6.4,0.1-8.8l11.5-11.1c2.5-2.4,6.4-2.3,8.8,0.1
				c2.4,2.4,2.3,6.4-0.1,8.8l-11.5,11.1C-371.6-27.4-373.2-26.8-374.7-26.8z"/>
		</g>
		<g>
			<path class="st0" d="M-363.9,6.8c-1.6,0-3.1-0.6-4.3-1.8l-11.5-11.1c-2.5-2.4-2.5-6.3-0.1-8.8s6.3-2.5,8.8-0.1l11.5,11.1
				c2.5,2.4,2.5,6.3,0.1,8.8C-360.7,6.1-362.3,6.8-363.9,6.8z"/>
		</g>
		<g>
			<path class="st0" d="M-406.8,6.9c-1.5,0-3-0.5-4.2-1.6c-2.6-2.3-2.8-6.2-0.4-8.8l16.5-18.3l-16.5-18.3c-2.3-2.6-2.1-6.5,0.4-8.8
				c2.6-2.3,6.5-2.1,8.8,0.4l20.3,22.5c2.1,2.4,2.1,6,0,8.4l-20.3,22.5C-403.4,6.2-405.1,6.9-406.8,6.9z"/>
		</g>
	</g>
</g>
<g>
	<rect x="-420.8" y="25" class="st1" width="70" height="70"/>
	<g>
		<g>
			<path class="st5" d="M-374.7,55.2c-1.6,0-3.2-0.6-4.5-1.9c-2.4-2.5-2.3-6.4,0.1-8.8l11.5-11.1c2.5-2.4,6.4-2.3,8.8,0.1
				c2.4,2.5,2.3,6.4-0.1,8.8l-11.5,11.1C-371.6,54.6-373.2,55.2-374.7,55.2z"/>
		</g>
		<g>
			<path class="st6" d="M-363.9,88.8c-1.6,0-3.1-0.6-4.3-1.8l-11.5-11.1c-2.5-2.4-2.5-6.3-0.1-8.8s6.3-2.5,8.8-0.1l11.5,11.1
				c2.5,2.4,2.5,6.3,0.1,8.8C-360.7,88.1-362.3,88.8-363.9,88.8z"/>
		</g>
		<g>
			<path class="st7" d="M-406.8,88.9c-1.5,0-3-0.5-4.2-1.6c-2.6-2.3-2.8-6.2-0.4-8.8l16.5-18.3l-16.5-18.3c-2.3-2.6-2.1-6.5,0.4-8.8
				c2.6-2.3,6.5-2.1,8.8,0.4l20.3,22.5c2.1,2.4,2.1,6,0,8.4l-20.3,22.5C-403.4,88.2-405.1,88.9-406.8,88.9z"/>
		</g>
	</g>
</g>
<g id="XMLID_1650_">
	<circle id="XMLID_1659_" class="st14" cx="-186.3" cy="-30.5" r="26.5"/>
	<g id="XMLID_1651_">
		<g id="XMLID_1652_">
			<path id="XMLID_1656_" class="st15" d="M-179.1-42.6l2-2c0.5-0.5,0.5-1.4,0-2l-0.1-0.1c-0.5-0.5-1.4-0.5-2,0l-2.1,2.1
				c-1.6-1.1-3.6-1.7-5.7-1.7c-5.7,0-10.4,4.7-10.4,10.4s4.7,10.4,10.4,10.4c5.7,0,10.4-4.7,10.4-10.4
				C-176.6-38.4-177.5-40.8-179.1-42.6z M-186.9-28.4c-4.1,0-7.4-3.3-7.4-7.4s3.3-7.4,7.4-7.4s7.4,3.3,7.4,7.4
				S-182.8-28.4-186.9-28.4z"/>
			<g id="XMLID_1653_">
				<g id="XMLID_1654_">
					<path id="XMLID_1655_" class="st16" d="M-176.6-11.5L-176.6-11.5c-0.8,0-1.4-0.6-1.4-1.4l0,0c0-4.2-2.7-8-6.8-8.9
						c-3.3-0.8-6.6,0.3-8.8,2.7c-0.5,0.5-1.3,0.7-1.9,0.3l0,0c-0.7-0.5-0.8-1.5-0.2-2.2c2.6-2.9,6.5-4.4,10.5-3.8
						c5.8,0.9,10,6.1,10,12l0,0C-175.2-12.1-175.8-11.5-176.6-11.5z"/>
				</g>
			</g>
		</g>
	</g>
</g>
<g>
	<rect id="XMLID_4021_" class="st17" width="130" height="50"/>
	<g>
		<rect x="41.5" y="1.5" class="st1" width="47" height="47"/>
		<g>
			<g>
				<path class="st5" d="M72.4,21.8c-1.1,0-2.1-0.4-3-1.3c-1.6-1.7-1.5-4.3,0.1-5.9l7.7-7.4c1.7-1.6,4.3-1.5,5.9,0.1
					c1.6,1.7,1.5,4.3-0.1,5.9l-7.7,7.4C74.5,21.4,73.5,21.8,72.4,21.8z"/>
			</g>
			<g>
				<path class="st6" d="M79.7,44.3c-1.1,0-2.1-0.4-2.9-1.2l-7.7-7.4c-1.7-1.6-1.7-4.2-0.1-5.9c1.6-1.7,4.2-1.7,5.9-0.1l7.7,7.4
					c1.7,1.6,1.7,4.2,0.1,5.9C81.8,43.8,80.8,44.3,79.7,44.3z"/>
			</g>
			<g>
				<path class="st7" d="M50.9,44.4c-1,0-2-0.3-2.8-1.1c-1.7-1.5-1.9-4.2-0.3-5.9l11.1-12.3L47.8,12.9c-1.5-1.7-1.4-4.4,0.3-5.9
					c1.7-1.5,4.4-1.4,5.9,0.3l13.6,15.1c1.4,1.6,1.4,4,0,5.6L54,43C53.2,43.9,52.1,44.4,50.9,44.4z"/>
			</g>
		</g>
	</g>
</g>
<g>
	<rect id="XMLID_4019_" x="130.4" class="st17" width="130" height="50"/>
	<g>
		<g>
			<g>
				<polygon class="st18" points="210.2,20.1 206.6,20.1 206.6,30 213.4,30 213.4,26.8 210.2,26.8 210.2,20.1 				"/>
				<path class="st18" d="M202.6,26.8v-6.7H199l0,3.4l-5.1,3.2l-1.1-0.6l5.1-3.2l-2.3-1.5l-5.1,3.2l-0.9-0.6l5.1-3.2l-2.3-1.4
					l-5.8,3.6c-0.8-2.1-2.9-3-5.5-3h-3.9V30h4.8c2.3,0,4.1-1.2,4.7-3.1l5.8,3.7l6.5-4.1l0,3.5h6.8v-3.2H202.6L202.6,26.8z M181.3,27
					h-0.5v-3.8h0.5c1.3,0,2.1,0.6,2.1,2C183.4,26.5,182.5,27,181.3,27L181.3,27z"/>
			</g>
		</g>
		<circle class="st19" cx="195.4" cy="25" r="22.7"/>
	</g>
</g>
<g>
	<rect id="XMLID_4017_" x="260.7" class="st17" width="130" height="50"/>
	<g>
		<g id="XMLID_384_">
			<g>
				<g id="XMLID_801_">
					<path class="st0" d="M315.6,13l-0.5-1.9l-5.2,0.9c-0.4,1.1-0.7,2.3-0.9,3.6L315.6,13z"/>
				</g>
				<g id="XMLID_800_">
					<polygon class="st0" points="322,11.1 317.9,12.7 318.6,16.3 322.3,14.9 					"/>
				</g>
				<g id="XMLID_799_">
					<path class="st0" d="M314.9,10.5l-1.2-4.4c-1.5,1.5-2.7,3.3-3.5,5.2L314.9,10.5z"/>
				</g>
				<g id="XMLID_798_">
					<polygon class="st0" points="313.8,22.7 317.6,21.9 317,18.4 313.4,19.7 					"/>
				</g>
				<g id="XMLID_797_">
					<polygon class="st0" points="312.8,14.7 313.4,19 317,17.8 316.8,16.9 318,16.5 317.3,13 					"/>
				</g>
				<g id="XMLID_796_">
					<path class="st0" d="M322,4.9l6.9-3.6c-1.1-0.2-2.1-0.3-3.2-0.3c-1.4,0-2.7,0.2-4,0.5L322,4.9z"/>
				</g>
				<g id="XMLID_795_">
					<path class="st0" d="M314,28.4l-0.7-5l-3.7,0.7c0.3,1.6,0.8,3.4,1.5,5.4l3.2-1.1L314,28.4z"/>
				</g>
				<g id="XMLID_794_">
					<path class="st0" d="M336.9,5.2l-1.3,0.5l1.4,3.8l2.7-1C339,7.3,338,6.2,336.9,5.2z"/>
				</g>
				<g id="XMLID_775_">
					<g id="XMLID_793_">
						<polygon class="st0" points="339.5,13.1 337.1,13.6 335.7,16.4 339.2,17.1 						"/>
					</g>
					<g id="XMLID_792_">
						<polygon class="st0" points="334.8,16.9 332.1,16.4 330.5,20 333.3,19.8 						"/>
					</g>
					<g id="XMLID_791_">
						<polygon class="st0" points="337.1,12.1 333.2,13.5 335.7,15 336.7,13.1 336.7,13 336.7,13 						"/>
					</g>
					<g id="XMLID_790_">
						<polygon class="st0" points="329,20.1 329.8,20.1 331.5,16.3 329.7,16 						"/>
					</g>
					<g id="XMLID_789_">
						<polygon class="st0" points="339,19.9 333.5,20.8 332.5,22.7 337.2,22.1 337,22.8 338.8,22.4 						"/>
					</g>
					<g id="XMLID_788_">
						<path class="st0" d="M341.1,20.6l1.2,0.5c0-0.4,0.1-0.8,0.1-1.2c0-0.4,0.1-0.8,0.1-1.2L341.1,20.6z"/>
					</g>
					<g id="XMLID_787_">
						<polygon class="st0" points="338.4,27 336,28.5 335.9,28.4 336.1,31.8 338.1,31.8 						"/>
					</g>
					<g id="XMLID_786_">
						<polygon class="st0" points="336.7,23.4 335.8,25.7 335.8,25.7 335.9,27.8 338.5,26.3 338.7,23 						"/>
					</g>
					<g id="XMLID_785_">
						<polygon class="st0" points="339.1,17.7 335.4,17 333.8,20.1 339,19.3 						"/>
					</g>
					<g id="XMLID_784_">
						<polygon class="st0" points="335.3,26.9 333.3,31.7 335.5,31.8 						"/>
					</g>
					<g id="XMLID_783_">
						<polygon class="st0" points="333,20.4 328.9,20.8 328.4,23.3 331.8,22.8 						"/>
					</g>
					<g id="XMLID_782_">
						<polygon class="st0" points="335,16.3 335.4,15.5 332.4,13.8 329.9,14.7 329.8,15.4 						"/>
					</g>
					<g id="XMLID_781_">
						<path class="st0" d="M338.9,28.5l-0.2,3.3l0.8,0c0.4-1,0.9-2.1,1.2-3.3H338.9z"/>
					</g>
					<g id="XMLID_780_">
						<path class="st0" d="M339.5,20.6l-0.1,1.9l0.1,0.3l-0.1,0l-0.1,1.9l2.7-0.8c0.1-0.7,0.3-1.4,0.4-2.2L339.5,20.6z"/>
					</g>
					<g id="XMLID_779_">
						<path class="st0" d="M341.8,24.6l-2.6,0.8l-0.2,2.6h1.9C341.2,26.9,341.5,25.8,341.8,24.6z"/>
					</g>
					<g id="XMLID_778_">
						<path class="st0" d="M337.4,12.9l4.1-0.8c-0.2-0.5-0.4-0.9-0.6-1.3l-3,1.1L337.4,12.9z"/>
					</g>
					<g id="XMLID_777_">
						<path class="st0" d="M339.6,20l1,0.4l2-2.7c0-0.7-0.1-1.4-0.1-2.1l-2.6,0.2L339.6,20z"/>
					</g>
					<g id="XMLID_776_">
						<path class="st0" d="M340.1,12.9l-0.2,2.3l2.4-0.2c-0.1-0.8-0.3-1.6-0.6-2.4L340.1,12.9z"/>
					</g>
				</g>
				<g id="XMLID_772_">
					<g id="XMLID_774_">
						<path class="st0" d="M312.7,18.6l-0.5-3.6l-3.3,1.3c-0.1,0.5-0.1,1.1-0.1,1.6c0,0,0,0.1,0,0.3L312.7,18.6z"/>
					</g>
					<g id="XMLID_773_">
						<path class="st0" d="M312.8,19.2l-3.9-0.4c0,0,0,0,0,0.1c0.1,1,0.2,2.6,0.6,4.6l3.8-0.7L312.8,19.2z"/>
					</g>
				</g>
				<g id="XMLID_769_">
					<g id="XMLID_771_">
						<polygon class="st0" points="317.3,22.6 313.9,23.2 314.5,27.9 						"/>
					</g>
					<g id="XMLID_770_">
						<polygon class="st0" points="318.3,26.9 317.7,23.1 315.2,28 						"/>
					</g>
				</g>
				<g id="XMLID_766_">
					<g id="XMLID_768_">
						<path class="st0" d="M318.7,5.4l2.6-2.2l-0.1-1.6c-1.2,0.4-2.4,0.8-3.5,1.5L318.7,5.4z"/>
					</g>
					<g id="XMLID_767_">
						<path class="st0" d="M317.1,3.4c-1,0.6-2,1.4-2.9,2.2l0.8,3l3.2-2.8L317.1,3.4z"/>
					</g>
				</g>
				<g id="XMLID_763_">
					<g id="XMLID_765_">
						<path class="st0" d="M333.5,2.9l-3.3,1.8l2.7,1.5l3.5-1.4C335.5,4.1,334.6,3.5,333.5,2.9z"/>
					</g>
					<g id="XMLID_764_">
						<path class="st0" d="M332.9,2.6c-1-0.4-2-0.8-3-1.1L327,3l2.5,1.4L332.9,2.6z"/>
					</g>
				</g>
				<g id="XMLID_760_">
					<g id="XMLID_762_">
						<polygon class="st0" points="325.1,9.2 332.1,6.5 326.4,3.3 325.5,3.8 						"/>
					</g>
					<g id="XMLID_761_">
						<polygon class="st0" points="324.8,4.2 322.1,5.6 322.5,10.3 324.4,9.5 						"/>
					</g>
				</g>
				<g id="XMLID_732_">
					<g id="XMLID_759_">
						<polygon class="st0" points="323.4,41.6 323.7,37.8 321.2,37.7 320.7,41.1 						"/>
					</g>
					<g id="XMLID_758_">
						<polygon class="st0" points="321.3,37.1 325.1,37.3 325.8,34.1 321.7,34 						"/>
					</g>
					<g id="XMLID_757_">
						<polygon class="st0" points="315.2,36.9 320.7,37.1 320.9,35.9 316.3,34.8 						"/>
					</g>
					<g id="XMLID_756_">
						<polygon class="st0" points="320.6,37.7 318.2,37.6 317.8,39.3 320.3,39.7 						"/>
					</g>
					<g id="XMLID_755_">
						<polygon class="st0" points="325.1,42.6 320.6,41.7 320.4,43.4 324.4,44.6 						"/>
					</g>
					<g id="XMLID_754_">
						<path class="st0" d="M314.5,36.9L314.5,36.9l1.2-2.3l-2.8-0.7C313.4,34.9,313.9,35.9,314.5,36.9z"/>
					</g>
					<g id="XMLID_753_">
						<polygon class="st0" points="326.4,44.4 327,43 325.7,42.8 325.3,43.9 						"/>
					</g>
					<g id="XMLID_752_">
						<path class="st0" d="M317.3,41c0.7,1,1.5,1.9,2.4,2.8l0.5-3.5l-2.6-0.5L317.3,41z"/>
					</g>
					<g id="XMLID_751_">
						<polygon class="st0" points="330,34.1 333.2,36 335.6,34.2 						"/>
					</g>
					<g id="XMLID_750_">
						<polygon class="st0" points="324.3,37.9 324,41.8 326.4,42.3 326.3,37.9 						"/>
					</g>
					<g id="XMLID_749_">
						<path class="st0" d="M325.1,44.4l-1.2,3.3l-0.3-0.1c0.2,0.1,0.3,0.3,0.5,0.4l3.1-2.4L325.1,44.4z"/>
					</g>
					<g id="XMLID_748_">
						<polygon class="st0" points="334.8,37.6 331.6,35.7 330.8,37.5 						"/>
					</g>
					<g id="XMLID_747_">
						<polygon class="st0" points="325.7,37.3 330.1,37.5 331.1,35.4 328.9,34.1 326.4,34.1 						"/>
					</g>
					<g id="XMLID_746_">
						<path class="st0" d="M317.6,37.6l-2.7-0.1c0.6,1,1.2,1.9,2,2.9L317.6,37.6z"/>
					</g>
					<g id="XMLID_745_">
						<path class="st0" d="M315.9,34.1l2.3-4.5l-6.3,2.3c0.2,0.5,0.4,1,0.6,1.5L315.9,34.1z"/>
					</g>
					<g id="XMLID_744_">
						<polygon class="st0" points="318.7,29.4 318.7,29.4 318.7,29.4 						"/>
					</g>
					<g id="XMLID_743_">
						<polygon class="st0" points="316.5,34.2 320.9,35.3 321.1,34 319.3,34 318.7,29.9 						"/>
					</g>
					<g id="XMLID_742_">
						<path class="st0" d="M336.6,34.2l-2.9,2.2l2.2,1.3l0.4,0c0.7-1.1,1.4-2.2,2-3.5L336.6,34.2z"/>
					</g>
					<g id="XMLID_741_">
						<path class="st0" d="M324.2,45.2l-4-1.2l-0.1,0.5c1,1,2.1,2,3.2,3L324.2,45.2z"/>
					</g>
					<g id="XMLID_740_">
						<path class="st0" d="M330.4,43.8l-2.1,1.7l1.2,0.6c0.6-0.6,1.3-1.3,2-2.1L330.4,43.8z"/>
					</g>
					<g id="XMLID_739_">
						<polygon class="st0" points="330.4,41.7 328.4,38 326.9,38 327,42.4 329.9,43 						"/>
					</g>
					<g id="XMLID_738_">
						<polygon class="st0" points="327.6,43.2 326.9,44.7 327.7,45.1 329.7,43.6 						"/>
					</g>
					<g id="XMLID_737_">
						<path class="st0" d="M325.5,47.7l-0.9,0.7c0.3,0.2,0.5,0.4,0.8,0.6L325.5,47.7z"/>
					</g>
					<g id="XMLID_736_">
						<path class="st0" d="M329,46.5l-1.2-0.6l-1.7,1.4l0.1,0l-0.1,1.7C326.6,48.6,327.7,47.7,329,46.5z"/>
					</g>
					<g id="XMLID_735_">
						<path class="st0" d="M332.4,38.2l-0.6,1.4l1.9,1.8c0.8-1,1.5-2,2.3-3.1L332.4,38.2z"/>
					</g>
					<g id="XMLID_734_">
						<path class="st0" d="M333.4,41.9l-1.7-1.6l-1.1,3l1.5,0.3C332.4,43,332.9,42.4,333.4,41.9z"/>
					</g>
					<g id="XMLID_733_">
						<polygon class="st0" points="331.8,38.1 329.1,38 330.7,40.9 						"/>
					</g>
				</g>
				<g id="XMLID_729_">
					<g id="XMLID_731_">
						<polygon class="st0" points="332.6,11.2 336.5,9.8 335.1,6 331.8,7.3 						"/>
					</g>
					<g id="XMLID_730_">
						<polygon class="st0" points="331.2,7.5 328.2,8.7 330.9,11.8 332.1,11.4 						"/>
					</g>
				</g>
				<g id="XMLID_726_">
					<g id="XMLID_728_">
						<polygon class="st0" points="328.8,12.6 330.2,12 327.6,8.9 324.4,10.1 						"/>
					</g>
					<g id="XMLID_727_">
						<polygon class="st0" points="323.7,10.4 322.5,10.9 322.9,14.7 328,12.8 						"/>
					</g>
				</g>
				<g id="XMLID_723_">
					<g id="XMLID_725_">
						<polygon class="st0" points="320.1,11.2 317.2,7.6 315.2,9.2 315.2,9.2 316.2,12.7 317.2,12.4 317.2,12.3 317.5,12.2 						
							"/>
					</g>
					<g id="XMLID_724_">
						<polygon class="st0" points="320.7,11 321.9,10.5 321.3,4 317.6,7.2 						"/>
					</g>
				</g>
			</g>
		</g>
		<polygon id="XMLID_265_" class="st0" points="318.8,18.5 320.8,31.6 329.9,31.7 332.6,25.3 325.1,26.1 326.5,15.7 		"/>
	</g>
</g>
</svg>
