<?xml version="1.0" encoding="utf-8"?>
<!-- Generator: Adobe Illustrator 21.1.0, SVG Export Plug-In . SVG Version: 6.00 Build 0)  -->
<svg version="1.1" id="Layer_1" xmlns="http://www.w3.org/2000/svg" xmlns:xlink="http://www.w3.org/1999/xlink" x="0px" y="0px"
	 viewBox="0 0 177.6 68.3" style="enable-background:new 0 0 177.6 68.3;" xml:space="preserve">
<style type="text/css">
	.st0{fill:#6D6E71;}
	.st1{opacity:0.5;fill:none;}
	.st2{fill-rule:evenodd;clip-rule:evenodd;fill:#6D6E71;}
	.st3{fill:none;stroke:#6D6E71;stroke-width:3.74;stroke-miterlimit:10;}
</style>
<g>
	<g>
		<path id="XMLID_8469_" class="st0" d="M92.8,42c2.2,2.2,2.2,5.8,0,8.1c-1.1,1.1-2.6,1.7-4.1,1.7h-2.2c-1,0-2.2,0.6-2.8,1.2
			c-0.6,0.6-1.2,1.6-1.2,2.8v1.6c0.2,1.6-0.4,3.3-1.6,4.6c-2.2,2.2-5.8,2.2-8.1,0s-2.2-5.8,0-8.1c1.3-1.3,2.9-1.8,4.6-1.6h1.6
			c1.2,0,2.2-0.6,2.8-1.2c0.6-0.6,1.2-1.7,1.2-2.8v-2.2c0-1.5,0.5-3,1.7-4.1C87,39.7,90.6,39.7,92.8,42z M70.7,43.8
			c0-1.2,0.7-2.2,1.2-2.8c0.6-0.6,1.7-1.2,2.8-1.2h1.5c1.7,0.2,3.4-0.3,4.7-1.6c2.2-2.2,2.2-5.8,0-8.1c-1.1-1.1-2.6-1.7-4.1-1.7
			h-2.1c-1.1,0-2.2-0.6-2.8-1.2c-0.6-0.6-1.2-1.6-1.2-2.8v-1.6c0.2-1.6-0.4-3.3-1.6-4.6c-2.2-2.2-5.8-2.2-8.1,0
			c-2.2,2.2-2.2,5.8,0,8.1c1.3,1.3,2.9,1.8,4.6,1.6h1.6c1.2,0,2.2,0.7,2.8,1.2c0.6,0.6,1.2,1.7,1.2,2.8v1.9c0,0.2,0,0.3,0,0.5v2
			c0,1.1-0.6,2.2-1.2,2.8c-0.6,0.6-1.6,1.2-2.8,1.2H65l0,0c-1.5,0-2.9,0.6-4,1.7c-2.2,2.2-2.2,5.8,0,8.1c2.2,2.2,5.8,2.2,8.1,0
			c1.2-1.2,1.7-2.9,1.6-4.4V43.8z M112.5,40.3L112.5,40.3l-2.2,0c-1.1,0-2.2-0.6-2.8-1.2c-0.6-0.6-1.2-1.6-1.2-2.8v-1.7
			c0-0.4,0-0.7,0-1.1V32c0-1.2,0.7-2.2,1.2-2.8c0.6-0.6,1.7-1.2,2.8-1.2h2.2l0,0c1.5,0,2.9-0.5,4.1-1.7c2.2-2.2,2.2-5.8,0-8.1
			c-2.2-2.2-5.8-2.2-8.1,0c-1.1,1.1-1.7,2.6-1.7,4.1l0,0v2.2c0,1.1-0.6,2.2-1.2,2.8c-0.6,0.6-1.6,1.2-2.8,1.2h-1.5
			c-1.7-0.2-3.4,0.3-4.6,1.6c-2.2,2.2-2.2,5.8,0,8.1c1.3,1.3,3,1.8,4.7,1.6h1.5c1.2,0,2.2,0.7,2.8,1.2c0.6,0.6,1.2,1.7,1.2,2.8v2.1
			c0,1.5,0.5,3,1.7,4.2c2.2,2.2,5.8,2.2,8.1,0c2.2-2.2,2.2-5.8,0-8.1C115.4,40.8,114,40.3,112.5,40.3z M96.6,53.9
			c-2.2,2.2-2.2,5.8,0,8.1c2.2,2.2,5.8,2.2,8.1,0c2.2-2.2,2.2-5.8,0-8.1C102.5,51.6,98.8,51.6,96.6,53.9z M80.9,14.4
			c2.2-2.2,2.2-5.8,0-8.1c-2.2-2.2-5.8-2.2-8.1,0s-2.2,5.8,0,8.1C75.1,16.7,78.7,16.7,80.9,14.4z M92.8,26.3c1.3-1.3,1.8-3,1.6-4.6
			v-1.6c0-1.2,0.7-2.2,1.2-2.8c0.6-0.6,1.7-1.2,2.8-1.2h2.1c1.5,0,3-0.5,4.2-1.7c2.2-2.2,2.2-5.8,0-8.1c-2.2-2.2-5.8-2.2-8.1,0
			c-1.1,1.1-1.7,2.6-1.7,4l0,0v2.2c0,1.1-0.6,2.2-1.2,2.8c-0.6,0.6-1.6,1.2-2.8,1.2h-1.8c-1.6-0.1-3.2,0.4-4.4,1.6
			c-2.2,2.2-2.2,5.8,0,8.1C87,28.5,90.6,28.5,92.8,26.3z"/>
	</g>
	<rect id="XMLID_8468_" class="st1" width="177.6" height="68.3"/>
</g>
<g>
	<rect id="XMLID_8467_" x="237.2" class="st1" width="177.6" height="68.3"/>
	<g>
		<g>
			<g>
				<polygon class="st2" points="346.2,27.4 341.2,27.4 341.2,41 350.5,41 350.5,36.7 346.2,36.7 346.2,27.4 				"/>
				<path class="st2" d="M335.8,36.7v-9.2h-4.9l0,4.7l-7,4.4l-1.4-0.8l7-4.4l-3.1-2l-7,4.4l-1.2-0.8l7-4.4l-3.1-2l-7.9,5
					c-1.1-2.9-4-4.1-7.5-4.1h-5.4V41h6.6c3.1,0,5.5-1.6,6.4-4.2l7.9,5l8.8-5.5l0,4.8h9.3v-4.4H335.8L335.8,36.7z M306.7,36.9H306
					v-5.3h0.7c1.8,0,2.9,0.8,2.9,2.7C309.6,36.2,308.3,36.9,306.7,36.9L306.7,36.9z"/>
			</g>
		</g>
		<circle class="st3" cx="325.9" cy="34.2" r="31"/>
	</g>
</g>
<g>
	<rect id="XMLID_8466_" x="483.2" class="st1" width="177.6" height="68.3"/>
	<g>
		<g id="XMLID_8079_">
			<g>
				<g id="XMLID_669_">
					<path class="st0" d="M558.1,17.7l-0.7-2.6l-7.1,1.2c-0.6,1.6-1,3.2-1.2,4.9L558.1,17.7z"/>
				</g>
				<g id="XMLID_668_">
					<polygon class="st0" points="566.8,15.2 561.2,17.4 562.2,22.2 567.3,20.4 					"/>
				</g>
				<g id="XMLID_667_">
					<path class="st0" d="M557.2,14.4l-1.7-6.1c-2,2.1-3.6,4.5-4.8,7.2L557.2,14.4z"/>
				</g>
				<g id="XMLID_666_">
					<polygon class="st0" points="555.7,30.9 560.8,30 560.1,25.2 555.2,26.8 					"/>
				</g>
				<g id="XMLID_665_">
					<polygon class="st0" points="554.3,20.1 555.1,26 560,24.3 559.8,23.1 561.4,22.5 560.4,17.7 					"/>
				</g>
				<g id="XMLID_664_">
					<path class="st0" d="M566.9,6.7l9.5-4.9c-1.4-0.3-2.9-0.4-4.4-0.4c-1.9,0-3.7,0.2-5.5,0.7L566.9,6.7z"/>
				</g>
				<g id="XMLID_663_">
					<path class="st0" d="M555.9,38.8l-0.9-6.9l-5.1,1c0.4,2.2,1.1,4.7,2,7.4l4.4-1.6L555.9,38.8z"/>
				</g>
				<g id="XMLID_662_">
					<path class="st0" d="M587.2,7.2l-1.7,0.7l1.9,5.2l3.7-1.4C590.1,10,588.7,8.5,587.2,7.2z"/>
				</g>
				<g id="XMLID_643_">
					<g id="XMLID_661_">
						<polygon class="st0" points="590.7,17.9 587.5,18.5 585.5,22.5 590.3,23.3 						"/>
					</g>
					<g id="XMLID_660_">
						<polygon class="st0" points="584.3,23.1 580.6,22.4 578.5,27.3 582.3,27 						"/>
					</g>
					<g id="XMLID_659_">
						<polygon class="st0" points="587.5,16.5 582.1,18.5 585.6,20.5 586.9,17.8 586.9,17.8 586.9,17.8 						"/>
					</g>
					<g id="XMLID_658_">
						<polygon class="st0" points="576.4,27.5 577.6,27.4 579.8,22.3 577.4,21.8 						"/>
					</g>
					<g id="XMLID_657_">
						<polygon class="st0" points="590,27.2 582.6,28.4 581.2,31.1 587.7,30.2 587.3,31.1 589.8,30.6 						"/>
					</g>
					<g id="XMLID_656_">
						<path class="st0" d="M593,28.2l1.7,0.7c0.1-0.6,0.1-1.1,0.2-1.7c0.1-0.5,0.1-1.1,0.1-1.6L593,28.2z"/>
					</g>
					<g id="XMLID_655_">
						<polygon class="st0" points="589.3,36.9 586,38.9 585.9,38.8 586.1,43.4 588.8,43.4 						"/>
					</g>
					<g id="XMLID_654_">
						<polygon class="st0" points="586.9,32 585.7,35 585.7,35 585.9,38 589.4,35.9 589.7,31.4 						"/>
					</g>
					<g id="XMLID_653_">
						<polygon class="st0" points="590.3,24.1 585.1,23.2 583,27.5 590.1,26.4 						"/>
					</g>
					<g id="XMLID_652_">
						<polygon class="st0" points="585,36.7 582.3,43.4 585.3,43.4 						"/>
					</g>
					<g id="XMLID_651_">
						<polygon class="st0" points="581.9,27.9 576.2,28.4 575.6,31.8 580.3,31.2 						"/>
					</g>
					<g id="XMLID_650_">
						<polygon class="st0" points="584.7,22.3 585.2,21.2 581.1,18.9 577.7,20.1 577.5,21 						"/>
					</g>
					<g id="XMLID_649_">
						<path class="st0" d="M590,39l-0.3,4.5l1.1,0c0.6-1.4,1.2-2.9,1.7-4.5H590z"/>
					</g>
					<g id="XMLID_648_">
						<path class="st0" d="M590.8,28.1l-0.2,2.6l0.1,0.5l-0.1,0l-0.2,2.6l3.7-1.1c0.2-1,0.4-2,0.5-3L590.8,28.1z"/>
					</g>
					<g id="XMLID_647_">
						<path class="st0" d="M593.9,33.6l-3.6,1l-0.3,3.5h2.6C593.1,36.7,593.5,35.2,593.9,33.6z"/>
					</g>
					<g id="XMLID_646_">
						<path class="st0" d="M587.9,17.6l5.6-1.2c-0.2-0.6-0.5-1.2-0.8-1.8l-4.2,1.5L587.9,17.6z"/>
					</g>
					<g id="XMLID_645_">
						<path class="st0" d="M590.9,27.3l1.4,0.6l2.8-3.7c0-0.9-0.1-1.9-0.2-2.8l-3.5,0.3L590.9,27.3z"/>
					</g>
					<g id="XMLID_644_">
						<path class="st0" d="M591.6,17.7l-0.2,3.1l3.3-0.3c-0.2-1.1-0.5-2.2-0.8-3.3L591.6,17.7z"/>
					</g>
				</g>
				<g id="XMLID_640_">
					<g id="XMLID_642_">
						<path class="st0" d="M554.1,25.4l-0.7-4.9l-4.5,1.8c-0.1,0.7-0.1,1.5-0.1,2.2c0,0,0,0.2,0,0.5L554.1,25.4z"/>
					</g>
					<g id="XMLID_641_">
						<path class="st0" d="M554.3,26.2l-5.3-0.5c0,0,0,0.1,0,0.1c0.1,1.3,0.3,3.5,0.8,6.3l5.2-1L554.3,26.2z"/>
					</g>
				</g>
				<g id="XMLID_637_">
					<g id="XMLID_639_">
						<polygon class="st0" points="560.4,30.9 555.8,31.8 556.7,38.2 						"/>
					</g>
					<g id="XMLID_638_">
						<polygon class="st0" points="561.8,36.8 561,31.5 557.5,38.3 						"/>
					</g>
				</g>
				<g id="XMLID_634_">
					<g id="XMLID_636_">
						<path class="st0" d="M562.4,7.4l3.5-3l-0.2-2.2c-1.7,0.5-3.3,1.2-4.8,2L562.4,7.4z"/>
					</g>
					<g id="XMLID_635_">
						<path class="st0" d="M560.1,4.6c-1.4,0.9-2.8,1.9-4,3l1.2,4.1l4.4-3.8L560.1,4.6z"/>
					</g>
				</g>
				<g id="XMLID_631_">
					<g id="XMLID_633_">
						<path class="st0" d="M582.6,4L578,6.5l3.6,2l4.8-1.9C585.3,5.6,584,4.7,582.6,4z"/>
					</g>
					<g id="XMLID_632_">
						<path class="st0" d="M581.7,3.5c-1.3-0.6-2.7-1.1-4.1-1.5l-3.9,2l3.5,1.9L581.7,3.5z"/>
					</g>
				</g>
				<g id="XMLID_628_">
					<g id="XMLID_630_">
						<polygon class="st0" points="571.1,12.6 580.7,8.9 572.9,4.6 571.6,5.2 						"/>
					</g>
					<g id="XMLID_629_">
						<polygon class="st0" points="570.7,5.7 567,7.6 567.5,14 570.2,13 						"/>
					</g>
				</g>
				<g id="XMLID_600_">
					<g id="XMLID_627_">
						<polygon class="st0" points="568.8,56.9 569.1,51.7 565.8,51.6 565.1,56.1 						"/>
					</g>
					<g id="XMLID_626_">
						<polygon class="st0" points="565.9,50.7 571.1,50.9 572,46.6 566.5,46.5 						"/>
					</g>
					<g id="XMLID_625_">
						<polygon class="st0" points="557.5,50.4 565.1,50.7 565.3,49 559,47.5 						"/>
					</g>
					<g id="XMLID_624_">
						<polygon class="st0" points="564.9,51.5 561.7,51.4 561.1,53.6 564.5,54.3 						"/>
					</g>
					<g id="XMLID_623_">
						<polygon class="st0" points="571.1,58.2 565,56.9 564.6,59.2 570.2,60.9 						"/>
					</g>
					<g id="XMLID_622_">
						<path class="st0" d="M556.6,50.4L556.6,50.4l1.6-3.1l-3.8-0.9C555.1,47.7,555.8,49,556.6,50.4z"/>
					</g>
					<g id="XMLID_621_">
						<polygon class="st0" points="572.8,60.7 573.7,58.8 571.9,58.4 571.4,59.9 						"/>
					</g>
					<g id="XMLID_620_">
						<path class="st0" d="M560.4,56c1,1.3,2.1,2.6,3.3,3.9l0.7-4.8l-3.6-0.7L560.4,56z"/>
					</g>
					<g id="XMLID_619_">
						<polygon class="st0" points="577.8,46.6 582.1,49.2 585.5,46.7 						"/>
					</g>
					<g id="XMLID_618_">
						<polygon class="st0" points="569.9,51.7 569.6,57.1 572.8,57.8 572.7,51.8 						"/>
					</g>
					<g id="XMLID_617_">
						<path class="st0" d="M571.1,60.7l-1.6,4.5l-0.4-0.1c0.2,0.2,0.4,0.4,0.7,0.5l4.2-3.3L571.1,60.7z"/>
					</g>
					<g id="XMLID_616_">
						<polygon class="st0" points="584.4,51.4 580,48.8 578.9,51.2 						"/>
					</g>
					<g id="XMLID_615_">
						<polygon class="st0" points="572,51 578,51.2 579.3,48.4 576.3,46.6 572.9,46.6 						"/>
					</g>
					<g id="XMLID_614_">
						<path class="st0" d="M560.8,51.4l-3.7-0.1c0.8,1.3,1.7,2.6,2.7,3.9L560.8,51.4z"/>
					</g>
					<g id="XMLID_613_">
						<path class="st0" d="M558.6,46.5l3.2-6.2l-8.6,3.1c0.3,0.7,0.6,1.3,0.9,2L558.6,46.5z"/>
					</g>
					<g id="XMLID_612_">
						<polygon class="st0" points="562.3,40.1 562.3,40.1 562.3,40.1 						"/>
					</g>
					<g id="XMLID_611_">
						<polygon class="st0" points="559.4,46.7 565.4,48.2 565.7,46.5 563.2,46.4 562.4,40.8 						"/>
					</g>
					<g id="XMLID_610_">
						<path class="st0" d="M586.9,46.7l-4,3l3,1.8l0.6,0c0.9-1.5,1.9-3.1,2.7-4.7L586.9,46.7z"/>
					</g>
					<g id="XMLID_609_">
						<path class="st0" d="M569.9,61.7l-5.4-1.6l-0.1,0.6c1.3,1.4,2.8,2.8,4.4,4.1L569.9,61.7z"/>
					</g>
					<g id="XMLID_608_">
						<path class="st0" d="M578.4,59.8l-2.9,2.3l1.6,0.8c0.9-0.8,1.8-1.8,2.8-2.8L578.4,59.8z"/>
					</g>
					<g id="XMLID_607_">
						<polygon class="st0" points="578.4,56.9 575.6,51.9 573.5,51.8 573.6,57.9 577.7,58.8 						"/>
					</g>
					<g id="XMLID_606_">
						<polygon class="st0" points="574.5,59 573.6,61.1 574.7,61.7 577.3,59.6 						"/>
					</g>
					<g id="XMLID_605_">
						<path class="st0" d="M571.7,65.1l-1.2,1c0.4,0.3,0.7,0.6,1.1,0.9L571.7,65.1z"/>
					</g>
					<g id="XMLID_604_">
						<path class="st0" d="M576.4,63.5l-1.6-0.9l-2.4,1.9l0.1,0l-0.1,2.3C573.1,66.3,574.6,65.2,576.4,63.5z"/>
					</g>
					<g id="XMLID_603_">
						<path class="st0" d="M581.1,52.1l-0.8,2l2.6,2.4c1-1.3,2.1-2.7,3.1-4.2L581.1,52.1z"/>
					</g>
					<g id="XMLID_602_">
						<path class="st0" d="M582.4,57.2l-2.4-2.3l-1.6,4l2,0.4C581.1,58.7,581.7,58,582.4,57.2z"/>
					</g>
					<g id="XMLID_601_">
						<polygon class="st0" points="580.2,52.1 576.6,52 578.8,55.9 						"/>
					</g>
				</g>
				<g id="XMLID_597_">
					<g id="XMLID_599_">
						<polygon class="st0" points="581.4,15.2 586.6,13.3 584.7,8.2 580.2,9.9 						"/>
					</g>
					<g id="XMLID_598_">
						<polygon class="st0" points="579.5,10.2 575.3,11.9 579,16.1 580.6,15.5 						"/>
					</g>
				</g>
				<g id="XMLID_594_">
					<g id="XMLID_596_">
						<polygon class="st0" points="576.1,17.1 578.1,16.4 574.5,12.2 570.2,13.9 						"/>
					</g>
					<g id="XMLID_595_">
						<polygon class="st0" points="569.2,14.2 567.6,14.9 568.1,20.1 575.1,17.5 						"/>
					</g>
				</g>
				<g id="XMLID_591_">
					<g id="XMLID_593_">
						<polygon class="st0" points="564.3,15.3 560.3,10.3 557.6,12.6 557.5,12.5 558.9,17.4 560.3,16.9 560.2,16.8 560.7,16.7 
													"/>
					</g>
					<g id="XMLID_592_">
						<polygon class="st0" points="565.1,15 566.7,14.3 566,5.4 560.9,9.8 						"/>
					</g>
				</g>
			</g>
		</g>
		<polygon id="XMLID_8077_" class="st0" points="562.6,25.3 565.2,43.2 577.7,43.3 581.3,34.6 571,35.6 573,21.5 		"/>
	</g>
</g>
</svg>
