<?xml version="1.0" encoding="utf-8"?>
<!-- Generator: Adobe Illustrator 21.1.0, SVG Export Plug-In . SVG Version: 6.00 Build 0)  -->
<svg version="1.1" id="Layer_1" xmlns="http://www.w3.org/2000/svg" xmlns:xlink="http://www.w3.org/1999/xlink" x="0px" y="0px"
	 viewBox="0 0 177.6 68.3" style="enable-background:new 0 0 177.6 68.3;" xml:space="preserve">
<style type="text/css">
	.st0{fill:#6D6E71;}
	.st1{opacity:0.5;fill:none;}
	.st2{fill-rule:evenodd;clip-rule:evenodd;fill:#6D6E71;}
	.st3{fill:none;stroke:#6D6E71;stroke-width:3.74;stroke-miterlimit:10;}
	.st4{fill:url(#XMLID_4_);}
	.st5{fill-rule:evenodd;clip-rule:evenodd;fill:#057DB7;}
	.st6{fill:none;stroke:#057DB7;stroke-width:3.74;stroke-miterlimit:10;}
	.st7{fill:#7AC4EA;}
	.st8{fill:#0A6093;}
</style>
<g>
	<g>
		<path id="XMLID_8469_" class="st0" d="M92.7-123.7c2.2,2.2,2.2,5.8,0,8.1c-1.1,1.1-2.6,1.7-4.1,1.7h-2.2c-1,0-2.2,0.6-2.8,1.2
			c-0.6,0.6-1.2,1.6-1.2,2.8v1.6c0.2,1.6-0.4,3.3-1.6,4.6c-2.2,2.2-5.8,2.2-8.1,0s-2.2-5.8,0-8.1c1.3-1.3,2.9-1.8,4.6-1.6H79
			c1.2,0,2.2-0.6,2.8-1.2c0.6-0.6,1.2-1.7,1.2-2.8v-2.2c0-1.5,0.5-3,1.7-4.1C86.9-125.9,90.5-125.9,92.7-123.7z M70.6-121.9
			c0-1.2,0.7-2.2,1.2-2.8c0.6-0.6,1.7-1.2,2.8-1.2h1.5c1.7,0.2,3.4-0.3,4.7-1.6c2.2-2.2,2.2-5.8,0-8.1c-1.1-1.1-2.6-1.7-4.1-1.7
			h-2.1c-1.1,0-2.2-0.6-2.8-1.2c-0.6-0.6-1.2-1.6-1.2-2.8v-1.6c0.2-1.6-0.4-3.3-1.6-4.6c-2.2-2.2-5.8-2.2-8.1,0
			c-2.2,2.2-2.2,5.8,0,8.1c1.3,1.3,2.9,1.8,4.6,1.6h1.6c1.2,0,2.2,0.7,2.8,1.2c0.6,0.6,1.2,1.7,1.2,2.8v1.9c0,0.2,0,0.3,0,0.5v2
			c0,1.1-0.6,2.2-1.2,2.8c-0.6,0.6-1.6,1.2-2.8,1.2h-2.2l0,0c-1.5,0-2.9,0.6-4,1.7c-2.2,2.2-2.2,5.8,0,8.1c2.2,2.2,5.8,2.2,8.1,0
			c1.2-1.2,1.7-2.9,1.6-4.4V-121.9z M112.4-125.4L112.4-125.4l-2.2,0c-1.1,0-2.2-0.6-2.8-1.2c-0.6-0.6-1.2-1.6-1.2-2.8v-1.7
			c0-0.4,0-0.7,0-1.1v-1.5c0-1.2,0.7-2.2,1.2-2.8c0.6-0.6,1.7-1.2,2.8-1.2h2.2l0,0c1.5,0,2.9-0.5,4.1-1.7c2.2-2.2,2.2-5.8,0-8.1
			c-2.2-2.2-5.8-2.2-8.1,0c-1.1,1.1-1.7,2.6-1.7,4.1l0,0v2.2c0,1.1-0.6,2.2-1.2,2.8c-0.6,0.6-1.6,1.2-2.8,1.2h-1.5
			c-1.7-0.2-3.4,0.3-4.6,1.6c-2.2,2.2-2.2,5.8,0,8.1c1.3,1.3,3,1.8,4.7,1.6h1.5c1.2,0,2.2,0.7,2.8,1.2c0.6,0.6,1.2,1.7,1.2,2.8v2.1
			c0,1.5,0.5,3,1.7,4.2c2.2,2.2,5.8,2.2,8.1,0c2.2-2.2,2.2-5.8,0-8.1C115.3-124.8,113.8-125.4,112.4-125.4z M96.5-111.8
			c-2.2,2.2-2.2,5.8,0,8.1c2.2,2.2,5.8,2.2,8.1,0c2.2-2.2,2.2-5.8,0-8.1C102.3-114.1,98.7-114.1,96.5-111.8z M80.8-151.2
			c2.2-2.2,2.2-5.8,0-8.1c-2.2-2.2-5.8-2.2-8.1,0c-2.2,2.2-2.2,5.8,0,8.1C75-149,78.6-149,80.8-151.2z M92.7-139.4
			c1.3-1.3,1.8-3,1.6-4.6v-1.6c0-1.2,0.7-2.2,1.2-2.8c0.6-0.6,1.7-1.2,2.8-1.2h2.1c1.5,0,3-0.5,4.2-1.7c2.2-2.2,2.2-5.8,0-8.1
			c-2.2-2.2-5.8-2.2-8.1,0c-1.1,1.1-1.7,2.6-1.7,4l0,0v2.2c0,1.1-0.6,2.2-1.2,2.8c-0.6,0.6-1.6,1.2-2.8,1.2H89
			c-1.6-0.1-3.2,0.4-4.4,1.6c-2.2,2.2-2.2,5.8,0,8.1C86.8-137.2,90.4-137.2,92.7-139.4z"/>
	</g>
	<rect id="XMLID_8468_" x="-0.1" y="-165.7" class="st1" width="177.6" height="68.3"/>
</g>
<g>
	<rect id="XMLID_8467_" x="237" y="-165.7" class="st1" width="177.6" height="68.3"/>
	<g>
		<g>
			<g>
				<polygon class="st2" points="346,-138.2 341.1,-138.2 341.1,-124.7 350.4,-124.7 350.4,-129 346,-129 346,-138.2 				"/>
				<path class="st2" d="M335.7-129v-9.2h-4.9l0,4.7l-7,4.4l-1.4-0.8l7-4.4l-3.1-2l-7,4.4l-1.2-0.8l7-4.4l-3.1-2l-7.9,5
					c-1.1-2.9-4-4.1-7.5-4.1H301v13.6h6.6c3.1,0,5.5-1.6,6.4-4.2l7.9,5l8.8-5.5l0,4.8h9.3v-4.4H335.7L335.7-129z M306.5-128.7h-0.7
					v-5.3h0.7c1.8,0,2.9,0.8,2.9,2.7C309.4-129.5,308.2-128.7,306.5-128.7L306.5-128.7z"/>
			</g>
		</g>
		<circle class="st3" cx="325.8" cy="-131.5" r="31"/>
	</g>
</g>
<g>
	<rect id="XMLID_8466_" x="483" y="-165.7" class="st1" width="177.6" height="68.3"/>
	<g>
		<g id="XMLID_8079_">
			<g>
				<g id="XMLID_669_">
					<path class="st0" d="M558-148l-0.7-2.6l-7.1,1.2c-0.6,1.6-1,3.2-1.2,4.9L558-148z"/>
				</g>
				<g id="XMLID_668_">
					<polygon class="st0" points="566.7,-150.5 561.1,-148.3 562,-143.5 567.1,-145.3 					"/>
				</g>
				<g id="XMLID_667_">
					<path class="st0" d="M557.1-151.3l-1.7-6.1c-2,2.1-3.6,4.5-4.8,7.2L557.1-151.3z"/>
				</g>
				<g id="XMLID_666_">
					<polygon class="st0" points="555.6,-134.7 560.7,-135.7 560,-140.5 555,-138.8 					"/>
				</g>
				<g id="XMLID_665_">
					<polygon class="st0" points="554.1,-145.6 554.9,-139.7 559.8,-141.3 559.7,-142.6 561.3,-143.2 560.3,-148 					"/>
				</g>
				<g id="XMLID_664_">
					<path class="st0" d="M566.8-158.9l9.5-4.9c-1.4-0.3-2.9-0.4-4.4-0.4c-1.9,0-3.7,0.2-5.5,0.7L566.8-158.9z"/>
				</g>
				<g id="XMLID_663_">
					<path class="st0" d="M555.8-126.9l-0.9-6.9l-5.1,1c0.4,2.2,1.1,4.7,2,7.4l4.4-1.6L555.8-126.9z"/>
				</g>
				<g id="XMLID_662_">
					<path class="st0" d="M587.1-158.5l-1.7,0.7l1.9,5.2l3.7-1.4C589.9-155.7,588.6-157.2,587.1-158.5z"/>
				</g>
				<g id="XMLID_643_">
					<g id="XMLID_661_">
						<polygon class="st0" points="590.6,-147.8 587.3,-147.2 585.4,-143.2 590.2,-142.4 						"/>
					</g>
					<g id="XMLID_660_">
						<polygon class="st0" points="584.2,-142.6 580.5,-143.3 578.4,-138.3 582.2,-138.7 						"/>
					</g>
					<g id="XMLID_659_">
						<polygon class="st0" points="587.4,-149.2 582,-147.2 585.5,-145.2 586.8,-147.9 586.8,-147.9 586.8,-147.9 						"/>
					</g>
					<g id="XMLID_658_">
						<polygon class="st0" points="576.2,-138.2 577.4,-138.3 579.7,-143.4 577.2,-143.8 						"/>
					</g>
					<g id="XMLID_657_">
						<polygon class="st0" points="589.9,-138.4 582.4,-137.3 581.1,-134.6 587.5,-135.4 587.2,-134.6 589.7,-135.1 						"/>
					</g>
					<g id="XMLID_656_">
						<path class="st0" d="M592.9-137.5l1.7,0.7c0.1-0.6,0.1-1.1,0.2-1.7c0.1-0.5,0.1-1.1,0.1-1.6L592.9-137.5z"/>
					</g>
					<g id="XMLID_655_">
						<polygon class="st0" points="589.2,-128.8 585.8,-126.8 585.8,-126.9 586,-122.3 588.7,-122.2 						"/>
					</g>
					<g id="XMLID_654_">
						<polygon class="st0" points="586.8,-133.7 585.5,-130.6 585.6,-130.6 585.7,-127.6 589.3,-129.8 589.6,-134.3 						"/>
					</g>
					<g id="XMLID_653_">
						<polygon class="st0" points="590.1,-141.5 585,-142.5 582.9,-138.2 590,-139.3 						"/>
					</g>
					<g id="XMLID_652_">
						<polygon class="st0" points="584.8,-128.9 582.1,-122.3 585.1,-122.3 						"/>
					</g>
					<g id="XMLID_651_">
						<polygon class="st0" points="581.8,-137.8 576.1,-137.3 575.5,-133.9 580.1,-134.5 						"/>
					</g>
					<g id="XMLID_650_">
						<polygon class="st0" points="584.5,-143.4 585.1,-144.5 580.9,-146.8 577.5,-145.6 577.4,-144.7 						"/>
					</g>
					<g id="XMLID_649_">
						<path class="st0" d="M589.9-126.7l-0.3,4.5l1.1,0c0.6-1.4,1.2-2.9,1.7-4.5H589.9z"/>
					</g>
					<g id="XMLID_648_">
						<path class="st0" d="M590.7-137.6l-0.2,2.6l0.1,0.5l-0.1,0l-0.2,2.6l3.7-1.1c0.2-1,0.4-2,0.5-3L590.7-137.6z"/>
					</g>
					<g id="XMLID_647_">
						<path class="st0" d="M593.7-132.1l-3.6,1l-0.3,3.5h2.6C593-129,593.4-130.5,593.7-132.1z"/>
					</g>
					<g id="XMLID_646_">
						<path class="st0" d="M587.8-148.1l5.6-1.2c-0.2-0.6-0.5-1.2-0.8-1.8l-4.2,1.5L587.8-148.1z"/>
					</g>
					<g id="XMLID_645_">
						<path class="st0" d="M590.7-138.4l1.4,0.6l2.8-3.7c0-0.9-0.1-1.9-0.2-2.8l-3.5,0.3L590.7-138.4z"/>
					</g>
					<g id="XMLID_644_">
						<path class="st0" d="M591.4-148l-0.2,3.1l3.3-0.3c-0.2-1.1-0.5-2.2-0.8-3.3L591.4-148z"/>
					</g>
				</g>
				<g id="XMLID_640_">
					<g id="XMLID_642_">
						<path class="st0" d="M554-140.3l-0.7-4.9l-4.5,1.8c-0.1,0.7-0.1,1.5-0.1,2.2c0,0,0,0.2,0,0.5L554-140.3z"/>
					</g>
					<g id="XMLID_641_">
						<path class="st0" d="M554.1-139.5l-5.3-0.5c0,0,0,0.1,0,0.1c0.1,1.3,0.3,3.5,0.8,6.3l5.2-1L554.1-139.5z"/>
					</g>
				</g>
				<g id="XMLID_637_">
					<g id="XMLID_639_">
						<polygon class="st0" points="560.3,-134.8 555.7,-133.9 556.5,-127.5 						"/>
					</g>
					<g id="XMLID_638_">
						<polygon class="st0" points="561.7,-128.9 560.9,-134.2 557.4,-127.4 						"/>
					</g>
				</g>
				<g id="XMLID_634_">
					<g id="XMLID_636_">
						<path class="st0" d="M562.2-158.2l3.5-3l-0.2-2.2c-1.7,0.5-3.3,1.2-4.8,2L562.2-158.2z"/>
					</g>
					<g id="XMLID_635_">
						<path class="st0" d="M560-161c-1.4,0.9-2.8,1.9-4,3l1.2,4.1l4.4-3.8L560-161z"/>
					</g>
				</g>
				<g id="XMLID_631_">
					<g id="XMLID_633_">
						<path class="st0" d="M582.5-161.7l-4.6,2.5l3.6,2l4.8-1.9C585.2-160.1,583.9-161,582.5-161.7z"/>
					</g>
					<g id="XMLID_632_">
						<path class="st0" d="M581.6-162.1c-1.3-0.6-2.7-1.1-4.1-1.5l-3.9,2l3.5,1.9L581.6-162.1z"/>
					</g>
				</g>
				<g id="XMLID_628_">
					<g id="XMLID_630_">
						<polygon class="st0" points="571,-153.1 580.6,-156.8 572.7,-161.1 571.5,-160.5 						"/>
					</g>
					<g id="XMLID_629_">
						<polygon class="st0" points="570.6,-160 566.8,-158.1 567.4,-151.7 570,-152.7 						"/>
					</g>
				</g>
				<g id="XMLID_600_">
					<g id="XMLID_627_">
						<polygon class="st0" points="568.6,-108.8 569,-114 565.6,-114.1 565,-109.6 						"/>
					</g>
					<g id="XMLID_626_">
						<polygon class="st0" points="565.7,-114.9 571,-114.7 571.9,-119.1 566.4,-119.2 						"/>
					</g>
					<g id="XMLID_625_">
						<polygon class="st0" points="557.4,-115.3 564.9,-115 565.2,-116.6 558.9,-118.2 						"/>
					</g>
					<g id="XMLID_624_">
						<polygon class="st0" points="564.8,-114.2 561.6,-114.3 560.9,-112 564.4,-111.4 						"/>
					</g>
					<g id="XMLID_623_">
						<polygon class="st0" points="571,-107.5 564.8,-108.8 564.5,-106.5 570,-104.8 						"/>
					</g>
					<g id="XMLID_622_">
						<path class="st0" d="M556.5-115.3L556.5-115.3l1.6-3.1l-3.8-0.9C554.9-118,555.7-116.7,556.5-115.3z"/>
					</g>
					<g id="XMLID_621_">
						<polygon class="st0" points="572.7,-105 573.5,-106.9 571.8,-107.3 571.3,-105.8 						"/>
					</g>
					<g id="XMLID_620_">
						<path class="st0" d="M560.3-109.7c1,1.3,2.1,2.6,3.3,3.9l0.7-4.8l-3.6-0.7L560.3-109.7z"/>
					</g>
					<g id="XMLID_619_">
						<polygon class="st0" points="577.6,-119.1 582,-116.5 585.4,-119 						"/>
					</g>
					<g id="XMLID_618_">
						<polygon class="st0" points="569.8,-114 569.5,-108.6 572.7,-107.9 572.6,-113.9 						"/>
					</g>
					<g id="XMLID_617_">
						<path class="st0" d="M571-105l-1.6,4.5l-0.4-0.1c0.2,0.2,0.4,0.4,0.7,0.5l4.2-3.3L571-105z"/>
					</g>
					<g id="XMLID_616_">
						<polygon class="st0" points="584.2,-114.3 579.9,-116.9 578.7,-114.5 						"/>
					</g>
					<g id="XMLID_615_">
						<polygon class="st0" points="571.8,-114.7 577.8,-114.5 579.2,-117.3 576.2,-119.1 572.7,-119.1 						"/>
					</g>
					<g id="XMLID_614_">
						<path class="st0" d="M560.7-114.3l-3.7-0.1c0.8,1.3,1.7,2.6,2.7,3.9L560.7-114.3z"/>
					</g>
					<g id="XMLID_613_">
						<path class="st0" d="M558.4-119.2l3.2-6.2l-8.6,3.1c0.3,0.7,0.6,1.3,0.9,2L558.4-119.2z"/>
					</g>
					<g id="XMLID_612_">
						<polygon class="st0" points="562.2,-125.6 562.2,-125.6 562.2,-125.6 						"/>
					</g>
					<g id="XMLID_611_">
						<polygon class="st0" points="559.3,-119 565.3,-117.5 565.5,-119.2 563.1,-119.2 562.3,-124.9 						"/>
					</g>
					<g id="XMLID_610_">
						<path class="st0" d="M586.7-119l-4,3l3,1.8l0.6,0c0.9-1.5,1.9-3.1,2.7-4.7L586.7-119z"/>
					</g>
					<g id="XMLID_609_">
						<path class="st0" d="M569.8-104l-5.4-1.6l-0.1,0.6c1.3,1.4,2.8,2.8,4.4,4.1L569.8-104z"/>
					</g>
					<g id="XMLID_608_">
						<path class="st0" d="M578.2-105.9l-2.9,2.3l1.6,0.8c0.9-0.8,1.8-1.8,2.8-2.8L578.2-105.9z"/>
					</g>
					<g id="XMLID_607_">
						<polygon class="st0" points="578.3,-108.8 575.5,-113.8 573.4,-113.8 573.5,-107.7 577.5,-106.9 						"/>
					</g>
					<g id="XMLID_606_">
						<polygon class="st0" points="574.3,-106.7 573.4,-104.6 574.6,-104 577.2,-106.1 						"/>
					</g>
					<g id="XMLID_605_">
						<path class="st0" d="M571.5-100.6l-1.2,1c0.4,0.3,0.7,0.6,1.1,0.9L571.5-100.6z"/>
					</g>
					<g id="XMLID_604_">
						<path class="st0" d="M576.3-102.2l-1.6-0.9l-2.4,1.9l0.1,0l-0.1,2.3C573-99.4,574.4-100.5,576.3-102.2z"/>
					</g>
					<g id="XMLID_603_">
						<path class="st0" d="M581-113.6l-0.8,2l2.6,2.4c1-1.3,2.1-2.7,3.1-4.2L581-113.6z"/>
					</g>
					<g id="XMLID_602_">
						<path class="st0" d="M582.2-108.5l-2.4-2.3l-1.6,4l2,0.4C581-107,581.6-107.7,582.2-108.5z"/>
					</g>
					<g id="XMLID_601_">
						<polygon class="st0" points="580.1,-113.6 576.5,-113.7 578.6,-109.8 						"/>
					</g>
				</g>
				<g id="XMLID_597_">
					<g id="XMLID_599_">
						<polygon class="st0" points="581.3,-150.4 586.5,-152.4 584.6,-157.5 580.1,-155.8 						"/>
					</g>
					<g id="XMLID_598_">
						<polygon class="st0" points="579.3,-155.5 575.1,-153.8 578.8,-149.6 580.5,-150.2 						"/>
					</g>
				</g>
				<g id="XMLID_594_">
					<g id="XMLID_596_">
						<polygon class="st0" points="576,-148.5 578,-149.3 574.3,-153.5 570,-151.8 						"/>
					</g>
					<g id="XMLID_595_">
						<polygon class="st0" points="569.1,-151.4 567.5,-150.8 567.9,-145.6 575,-148.2 						"/>
					</g>
				</g>
				<g id="XMLID_591_">
					<g id="XMLID_593_">
						<polygon class="st0" points="564.2,-150.4 560.2,-155.4 557.5,-153.1 557.4,-153.1 558.8,-148.3 560.1,-148.8 560.1,-148.9 
							560.6,-149 						"/>
					</g>
					<g id="XMLID_592_">
						<polygon class="st0" points="565,-150.7 566.6,-151.4 565.8,-160.2 560.8,-155.9 						"/>
					</g>
				</g>
			</g>
		</g>
		<polygon id="XMLID_8077_" class="st0" points="562.4,-140.4 565.1,-122.5 577.6,-122.4 581.2,-131.1 570.9,-130 572.8,-144.2 		
			"/>
	</g>
</g>
<g>
	<g>
		<linearGradient id="XMLID_4_" gradientUnits="userSpaceOnUse" x1="68.0808" y1="54.8499" x2="109.1469" y2="13.7838">
			<stop  offset="0" style="stop-color:#F05A44"/>
			<stop  offset="1" style="stop-color:#613E97"/>
		</linearGradient>
		<path id="XMLID_5189_" class="st4" d="M92.8,42c2.2,2.2,2.2,5.8,0,8.1c-1.1,1.1-2.6,1.7-4.1,1.7h-2.2c-1,0-2.2,0.6-2.8,1.2
			c-0.6,0.6-1.2,1.6-1.2,2.8v1.6c0.2,1.6-0.4,3.3-1.6,4.6c-2.2,2.2-5.8,2.2-8.1,0s-2.2-5.8,0-8.1c1.3-1.3,2.9-1.8,4.6-1.6h1.6
			c1.2,0,2.2-0.6,2.8-1.2c0.6-0.6,1.2-1.7,1.2-2.8v-2.2c0-1.5,0.5-3,1.7-4.1C87,39.7,90.6,39.7,92.8,42z M70.7,43.8
			c0-1.2,0.7-2.2,1.2-2.8c0.6-0.6,1.7-1.2,2.8-1.2h1.5c1.7,0.2,3.4-0.3,4.7-1.6c2.2-2.2,2.2-5.8,0-8.1c-1.1-1.1-2.6-1.7-4.1-1.7
			h-2.1c-1.1,0-2.2-0.6-2.8-1.2c-0.6-0.6-1.2-1.6-1.2-2.8v-1.6c0.2-1.6-0.4-3.3-1.6-4.6c-2.2-2.2-5.8-2.2-8.1,0
			c-2.2,2.2-2.2,5.8,0,8.1c1.3,1.3,2.9,1.8,4.6,1.6h1.6c1.2,0,2.2,0.7,2.8,1.2c0.6,0.6,1.2,1.7,1.2,2.8v1.9c0,0.2,0,0.3,0,0.5v2
			c0,1.1-0.6,2.2-1.2,2.8c-0.6,0.6-1.6,1.2-2.8,1.2H65l0,0c-1.5,0-2.9,0.6-4,1.7c-2.2,2.2-2.2,5.8,0,8.1c2.2,2.2,5.8,2.2,8.1,0
			c1.2-1.2,1.7-2.9,1.6-4.4V43.8z M112.5,40.3L112.5,40.3l-2.2,0c-1.1,0-2.2-0.6-2.8-1.2c-0.6-0.6-1.2-1.6-1.2-2.8v-1.7
			c0-0.4,0-0.7,0-1.1V32c0-1.2,0.7-2.2,1.2-2.8c0.6-0.6,1.7-1.2,2.8-1.2h2.2l0,0c1.5,0,2.9-0.5,4.1-1.7c2.2-2.2,2.2-5.8,0-8.1
			c-2.2-2.2-5.8-2.2-8.1,0c-1.1,1.1-1.7,2.6-1.7,4.1l0,0v2.2c0,1.1-0.6,2.2-1.2,2.8c-0.6,0.6-1.6,1.2-2.8,1.2h-1.5
			c-1.7-0.2-3.4,0.3-4.6,1.6c-2.2,2.2-2.2,5.8,0,8.1c1.3,1.3,3,1.8,4.7,1.6h1.5c1.2,0,2.2,0.7,2.8,1.2c0.6,0.6,1.2,1.7,1.2,2.8v2.1
			c0,1.5,0.5,3,1.7,4.2c2.2,2.2,5.8,2.2,8.1,0c2.2-2.2,2.2-5.8,0-8.1C115.4,40.8,114,40.3,112.5,40.3z M96.6,53.9
			c-2.2,2.2-2.2,5.8,0,8.1c2.2,2.2,5.8,2.2,8.1,0c2.2-2.2,2.2-5.8,0-8.1C102.5,51.6,98.8,51.6,96.6,53.9z M80.9,14.4
			c2.2-2.2,2.2-5.8,0-8.1c-2.2-2.2-5.8-2.2-8.1,0s-2.2,5.8,0,8.1C75.1,16.7,78.7,16.7,80.9,14.4z M92.8,26.3c1.3-1.3,1.8-3,1.6-4.6
			v-1.6c0-1.2,0.7-2.2,1.2-2.8c0.6-0.6,1.7-1.2,2.8-1.2h2.1c1.5,0,3-0.5,4.2-1.7c2.2-2.2,2.2-5.8,0-8.1c-2.2-2.2-5.8-2.2-8.1,0
			c-1.1,1.1-1.7,2.6-1.7,4l0,0v2.2c0,1.1-0.6,2.2-1.2,2.8c-0.6,0.6-1.6,1.2-2.8,1.2h-1.8c-1.6-0.1-3.2,0.4-4.4,1.6
			c-2.2,2.2-2.2,5.8,0,8.1C87,28.5,90.6,28.5,92.8,26.3z"/>
	</g>
	<rect id="XMLID_5188_" class="st1" width="177.6" height="68.3"/>
</g>
<g>
	<rect id="XMLID_5184_" x="237.2" class="st1" width="177.6" height="68.3"/>
	<g>
		<g>
			<g>
				<polygon class="st5" points="346.2,27.4 341.2,27.4 341.2,41 350.5,41 350.5,36.7 346.2,36.7 346.2,27.4 				"/>
				<path class="st5" d="M335.8,36.7v-9.2h-4.9l0,4.7l-7,4.4l-1.4-0.8l7-4.4l-3.1-2l-7,4.4l-1.2-0.8l7-4.4l-3.1-2l-7.9,5
					c-1.1-2.9-4-4.1-7.5-4.1h-5.4V41h6.6c3.1,0,5.5-1.6,6.4-4.2l7.9,5l8.8-5.5l0,4.8h9.3v-4.4H335.8L335.8,36.7z M306.7,36.9H306
					v-5.3h0.7c1.8,0,2.9,0.8,2.9,2.7C309.6,36.2,308.3,36.9,306.7,36.9L306.7,36.9z"/>
			</g>
		</g>
		<circle class="st6" cx="325.9" cy="34.2" r="31"/>
	</g>
</g>
<g>
	<rect id="XMLID_5181_" x="482.2" class="st1" width="177.6" height="68.3"/>
	<g>
		<g id="XMLID_678_">
			<g>
				<g id="XMLID_753_">
					<path class="st7" d="M557.1,17.7l-0.7-2.6l-7.1,1.2c-0.6,1.6-1,3.2-1.2,4.9L557.1,17.7z"/>
				</g>
				<g id="XMLID_752_">
					<polygon class="st7" points="565.8,15.2 560.2,17.4 561.2,22.2 566.3,20.4 					"/>
				</g>
				<g id="XMLID_751_">
					<path class="st7" d="M556.2,14.4l-1.7-6.1c-2,2.1-3.6,4.5-4.8,7.2L556.2,14.4z"/>
				</g>
				<g id="XMLID_750_">
					<polygon class="st7" points="554.7,30.9 559.8,30 559.1,25.2 554.2,26.8 					"/>
				</g>
				<g id="XMLID_748_">
					<polygon class="st7" points="553.3,20.1 554.1,26 559,24.3 558.8,23.1 560.4,22.5 559.4,17.7 					"/>
				</g>
				<g id="XMLID_747_">
					<path class="st7" d="M565.9,6.7l9.5-4.9c-1.4-0.3-2.9-0.4-4.4-0.4c-1.9,0-3.7,0.2-5.5,0.7L565.9,6.7z"/>
				</g>
				<g id="XMLID_746_">
					<path class="st7" d="M554.9,38.8l-0.9-6.9l-5.1,1c0.4,2.2,1.1,4.7,2,7.4l4.4-1.6L554.9,38.8z"/>
				</g>
				<g id="XMLID_745_">
					<path class="st7" d="M586.2,7.2l-1.7,0.7l1.9,5.2l3.7-1.4C589.1,10,587.7,8.5,586.2,7.2z"/>
				</g>
				<g id="XMLID_726_">
					<g id="XMLID_744_">
						<polygon class="st7" points="589.7,17.9 586.5,18.5 584.5,22.5 589.3,23.3 						"/>
					</g>
					<g id="XMLID_743_">
						<polygon class="st7" points="583.3,23.1 579.6,22.4 577.5,27.3 581.3,27 						"/>
					</g>
					<g id="XMLID_742_">
						<polygon class="st7" points="586.5,16.5 581.1,18.5 584.6,20.5 585.9,17.8 585.9,17.8 585.9,17.8 						"/>
					</g>
					<g id="XMLID_741_">
						<polygon class="st7" points="575.4,27.5 576.6,27.4 578.8,22.3 576.4,21.8 						"/>
					</g>
					<g id="XMLID_740_">
						<polygon class="st7" points="589,27.2 581.6,28.4 580.2,31.1 586.7,30.2 586.3,31.1 588.8,30.6 						"/>
					</g>
					<g id="XMLID_739_">
						<path class="st7" d="M592,28.2l1.7,0.7c0.1-0.6,0.1-1.1,0.2-1.7c0.1-0.5,0.1-1.1,0.1-1.6L592,28.2z"/>
					</g>
					<g id="XMLID_738_">
						<polygon class="st7" points="588.3,36.9 585,38.9 584.9,38.8 585.1,43.4 587.8,43.4 						"/>
					</g>
					<g id="XMLID_737_">
						<polygon class="st7" points="585.9,32 584.7,35 584.7,35 584.9,38 588.4,35.9 588.7,31.4 						"/>
					</g>
					<g id="XMLID_736_">
						<polygon class="st7" points="589.3,24.1 584.1,23.2 582,27.5 589.1,26.4 						"/>
					</g>
					<g id="XMLID_735_">
						<polygon class="st7" points="584,36.7 581.3,43.4 584.3,43.4 						"/>
					</g>
					<g id="XMLID_734_">
						<polygon class="st7" points="580.9,27.9 575.2,28.4 574.6,31.8 579.3,31.2 						"/>
					</g>
					<g id="XMLID_733_">
						<polygon class="st7" points="583.7,22.3 584.2,21.2 580.1,18.9 576.7,20.1 576.5,21 						"/>
					</g>
					<g id="XMLID_732_">
						<path class="st7" d="M589,39l-0.3,4.5l1.1,0c0.6-1.4,1.2-2.9,1.7-4.5H589z"/>
					</g>
					<g id="XMLID_731_">
						<path class="st7" d="M589.8,28.1l-0.2,2.6l0.1,0.5l-0.1,0l-0.2,2.6l3.7-1.1c0.2-1,0.4-2,0.5-3L589.8,28.1z"/>
					</g>
					<g id="XMLID_730_">
						<path class="st7" d="M592.9,33.6l-3.6,1l-0.3,3.5h2.6C592.1,36.7,592.5,35.2,592.9,33.6z"/>
					</g>
					<g id="XMLID_729_">
						<path class="st7" d="M586.9,17.6l5.6-1.2c-0.2-0.6-0.5-1.2-0.8-1.8l-4.2,1.5L586.9,17.6z"/>
					</g>
					<g id="XMLID_728_">
						<path class="st7" d="M589.9,27.3l1.4,0.6l2.8-3.7c0-0.9-0.1-1.9-0.2-2.8l-3.5,0.3L589.9,27.3z"/>
					</g>
					<g id="XMLID_727_">
						<path class="st7" d="M590.6,17.7l-0.2,3.1l3.3-0.3c-0.2-1.1-0.5-2.2-0.8-3.3L590.6,17.7z"/>
					</g>
				</g>
				<g id="XMLID_723_">
					<g id="XMLID_725_">
						<path class="st7" d="M553.1,25.4l-0.7-4.9l-4.5,1.8c-0.1,0.7-0.1,1.5-0.1,2.2c0,0,0,0.2,0,0.5L553.1,25.4z"/>
					</g>
					<g id="XMLID_724_">
						<path class="st7" d="M553.3,26.2l-5.3-0.5c0,0,0,0.1,0,0.1c0.1,1.3,0.3,3.5,0.8,6.3l5.2-1L553.3,26.2z"/>
					</g>
				</g>
				<g id="XMLID_720_">
					<g id="XMLID_722_">
						<polygon class="st7" points="559.4,30.9 554.8,31.8 555.7,38.2 						"/>
					</g>
					<g id="XMLID_721_">
						<polygon class="st7" points="560.8,36.8 560,31.5 556.5,38.3 						"/>
					</g>
				</g>
				<g id="XMLID_717_">
					<g id="XMLID_719_">
						<path class="st7" d="M561.4,7.4l3.5-3l-0.2-2.2c-1.7,0.5-3.3,1.2-4.8,2L561.4,7.4z"/>
					</g>
					<g id="XMLID_718_">
						<path class="st7" d="M559.1,4.6c-1.4,0.9-2.8,1.9-4,3l1.2,4.1l4.4-3.8L559.1,4.6z"/>
					</g>
				</g>
				<g id="XMLID_714_">
					<g id="XMLID_716_">
						<path class="st7" d="M581.6,4L577,6.5l3.6,2l4.8-1.9C584.3,5.6,583,4.7,581.6,4z"/>
					</g>
					<g id="XMLID_715_">
						<path class="st7" d="M580.7,3.5c-1.3-0.6-2.7-1.1-4.1-1.5l-3.9,2l3.5,1.9L580.7,3.5z"/>
					</g>
				</g>
				<g id="XMLID_711_">
					<g id="XMLID_713_">
						<polygon class="st7" points="570.1,12.6 579.7,8.9 571.9,4.6 570.6,5.2 						"/>
					</g>
					<g id="XMLID_712_">
						<polygon class="st7" points="569.7,5.7 566,7.6 566.5,14 569.2,13 						"/>
					</g>
				</g>
				<g id="XMLID_683_">
					<g id="XMLID_710_">
						<polygon class="st7" points="567.8,56.9 568.1,51.7 564.8,51.6 564.1,56.1 						"/>
					</g>
					<g id="XMLID_709_">
						<polygon class="st7" points="564.9,50.7 570.1,50.9 571,46.6 565.5,46.5 						"/>
					</g>
					<g id="XMLID_708_">
						<polygon class="st7" points="556.5,50.4 564.1,50.7 564.3,49 558,47.5 						"/>
					</g>
					<g id="XMLID_707_">
						<polygon class="st7" points="563.9,51.5 560.7,51.4 560.1,53.6 563.5,54.3 						"/>
					</g>
					<g id="XMLID_706_">
						<polygon class="st7" points="570.1,58.2 564,56.9 563.6,59.2 569.2,60.9 						"/>
					</g>
					<g id="XMLID_705_">
						<path class="st7" d="M555.6,50.4L555.6,50.4l1.6-3.1l-3.8-0.9C554.1,47.7,554.8,49,555.6,50.4z"/>
					</g>
					<g id="XMLID_704_">
						<polygon class="st7" points="571.8,60.7 572.7,58.8 570.9,58.4 570.4,59.9 						"/>
					</g>
					<g id="XMLID_703_">
						<path class="st7" d="M559.4,56c1,1.3,2.1,2.6,3.3,3.9l0.7-4.8l-3.6-0.7L559.4,56z"/>
					</g>
					<g id="XMLID_702_">
						<polygon class="st7" points="576.8,46.6 581.1,49.2 584.5,46.7 						"/>
					</g>
					<g id="XMLID_701_">
						<polygon class="st7" points="568.9,51.7 568.6,57.1 571.8,57.8 571.7,51.8 						"/>
					</g>
					<g id="XMLID_700_">
						<path class="st7" d="M570.1,60.7l-1.6,4.5l-0.4-0.1c0.2,0.2,0.4,0.4,0.7,0.5l4.2-3.3L570.1,60.7z"/>
					</g>
					<g id="XMLID_699_">
						<polygon class="st7" points="583.4,51.4 579,48.8 577.9,51.2 						"/>
					</g>
					<g id="XMLID_698_">
						<polygon class="st7" points="571,51 577,51.2 578.3,48.4 575.3,46.6 571.9,46.6 						"/>
					</g>
					<g id="XMLID_697_">
						<path class="st7" d="M559.8,51.4l-3.7-0.1c0.8,1.3,1.7,2.6,2.7,3.9L559.8,51.4z"/>
					</g>
					<g id="XMLID_696_">
						<path class="st7" d="M557.6,46.5l3.2-6.2l-8.6,3.1c0.3,0.7,0.6,1.3,0.9,2L557.6,46.5z"/>
					</g>
					<g id="XMLID_695_">
						<polygon class="st7" points="561.3,40.1 561.3,40.1 561.3,40.1 						"/>
					</g>
					<g id="XMLID_694_">
						<polygon class="st7" points="558.4,46.7 564.4,48.2 564.7,46.5 562.2,46.4 561.4,40.8 						"/>
					</g>
					<g id="XMLID_693_">
						<path class="st7" d="M585.9,46.7l-4,3l3,1.8l0.6,0c0.9-1.5,1.9-3.1,2.7-4.7L585.9,46.7z"/>
					</g>
					<g id="XMLID_692_">
						<path class="st7" d="M568.9,61.7l-5.4-1.6l-0.1,0.6c1.3,1.4,2.8,2.8,4.4,4.1L568.9,61.7z"/>
					</g>
					<g id="XMLID_691_">
						<path class="st7" d="M577.4,59.8l-2.9,2.3l1.6,0.8c0.9-0.8,1.8-1.8,2.8-2.8L577.4,59.8z"/>
					</g>
					<g id="XMLID_690_">
						<polygon class="st7" points="577.4,56.9 574.6,51.9 572.5,51.8 572.6,57.9 576.7,58.8 						"/>
					</g>
					<g id="XMLID_689_">
						<polygon class="st7" points="573.5,59 572.6,61.1 573.7,61.7 576.3,59.6 						"/>
					</g>
					<g id="XMLID_688_">
						<path class="st7" d="M570.7,65.1l-1.2,1c0.4,0.3,0.7,0.6,1.1,0.9L570.7,65.1z"/>
					</g>
					<g id="XMLID_687_">
						<path class="st7" d="M575.4,63.5l-1.6-0.9l-2.4,1.9l0.1,0l-0.1,2.3C572.1,66.3,573.6,65.2,575.4,63.5z"/>
					</g>
					<g id="XMLID_686_">
						<path class="st7" d="M580.1,52.1l-0.8,2l2.6,2.4c1-1.3,2.1-2.7,3.1-4.2L580.1,52.1z"/>
					</g>
					<g id="XMLID_685_">
						<path class="st7" d="M581.4,57.2l-2.4-2.3l-1.6,4l2,0.4C580.1,58.7,580.7,58,581.4,57.2z"/>
					</g>
					<g id="XMLID_684_">
						<polygon class="st7" points="579.2,52.1 575.6,52 577.8,55.9 						"/>
					</g>
				</g>
				<g id="XMLID_680_">
					<g id="XMLID_682_">
						<polygon class="st7" points="580.4,15.2 585.6,13.3 583.7,8.2 579.2,9.9 						"/>
					</g>
					<g id="XMLID_681_">
						<polygon class="st7" points="578.5,10.2 574.3,11.9 578,16.1 579.6,15.5 						"/>
					</g>
				</g>
				<g id="XMLID_676_">
					<g id="XMLID_679_">
						<polygon class="st7" points="575.1,17.1 577.1,16.4 573.5,12.2 569.2,13.9 						"/>
					</g>
					<g id="XMLID_677_">
						<polygon class="st7" points="568.2,14.2 566.6,14.9 567.1,20.1 574.1,17.5 						"/>
					</g>
				</g>
				<g id="XMLID_673_">
					<g id="XMLID_675_">
						<polygon class="st7" points="563.3,15.3 559.3,10.3 556.6,12.6 556.5,12.5 557.9,17.4 559.3,16.9 559.2,16.8 559.7,16.7 
													"/>
					</g>
					<g id="XMLID_674_">
						<polygon class="st7" points="564.1,15 565.7,14.3 565,5.4 559.9,9.8 						"/>
					</g>
				</g>
			</g>
		</g>
		<polygon id="XMLID_1_" class="st8" points="561.6,25.3 564.2,43.2 576.7,43.3 580.3,34.6 570,35.6 572,21.5 		"/>
	</g>
</g>
</svg>
