<?xml version="1.0" encoding="utf-8"?>
<!-- Generator: Adobe Illustrator 21.1.0, SVG Export Plug-In . SVG Version: 6.00 Build 0)  -->
<svg version="1.1" id="Layer_1" xmlns="http://www.w3.org/2000/svg" xmlns:xlink="http://www.w3.org/1999/xlink" x="0px" y="0px"
	 viewBox="0 0 177.6 68.3" style="enable-background:new 0 0 177.6 68.3;" xml:space="preserve">
<style type="text/css">
	.st0{fill:#6D6E71;}
	.st1{opacity:0.5;fill:none;}
	.st2{fill-rule:evenodd;clip-rule:evenodd;fill:#6D6E71;}
	.st3{fill:none;stroke:#6D6E71;stroke-width:3.74;stroke-miterlimit:10;}
	.st4{fill:url(#XMLID_4_);}
	.st5{fill-rule:evenodd;clip-rule:evenodd;fill:#057DB7;}
	.st6{fill:none;stroke:#057DB7;stroke-width:3.74;stroke-miterlimit:10;}
	.st7{fill:#7AC4EA;}
	.st8{fill:#0A6093;}
</style>
<g>
	<g>
		<path id="XMLID_8469_" class="st0" d="M-389.4-123.7c2.2,2.2,2.2,5.8,0,8.1c-1.1,1.1-2.6,1.7-4.1,1.7h-2.2c-1,0-2.2,0.6-2.8,1.2
			c-0.6,0.6-1.2,1.6-1.2,2.8v1.6c0.2,1.6-0.4,3.3-1.6,4.6c-2.2,2.2-5.8,2.2-8.1,0s-2.2-5.8,0-8.1c1.3-1.3,2.9-1.8,4.6-1.6h1.6
			c1.2,0,2.2-0.6,2.8-1.2c0.6-0.6,1.2-1.7,1.2-2.8v-2.2c0-1.5,0.5-3,1.7-4.1C-395.3-125.9-391.7-125.9-389.4-123.7z M-411.6-121.9
			c0-1.2,0.7-2.2,1.2-2.8c0.6-0.6,1.7-1.2,2.8-1.2h1.5c1.7,0.2,3.4-0.3,4.7-1.6c2.2-2.2,2.2-5.8,0-8.1c-1.1-1.1-2.6-1.7-4.1-1.7
			h-2.1c-1.1,0-2.2-0.6-2.8-1.2c-0.6-0.6-1.2-1.6-1.2-2.8v-1.6c0.2-1.6-0.4-3.3-1.6-4.6c-2.2-2.2-5.8-2.2-8.1,0
			c-2.2,2.2-2.2,5.8,0,8.1c1.3,1.3,2.9,1.8,4.6,1.6h1.6c1.2,0,2.2,0.7,2.8,1.2c0.6,0.6,1.2,1.7,1.2,2.8v1.9c0,0.2,0,0.3,0,0.5v2
			c0,1.1-0.6,2.2-1.2,2.8c-0.6,0.6-1.6,1.2-2.8,1.2h-2.2l0,0c-1.5,0-2.9,0.6-4,1.7c-2.2,2.2-2.2,5.8,0,8.1c2.2,2.2,5.8,2.2,8.1,0
			c1.2-1.2,1.7-2.9,1.6-4.4V-121.9z M-369.8-125.4L-369.8-125.4l-2.2,0c-1.1,0-2.2-0.6-2.8-1.2c-0.6-0.6-1.2-1.6-1.2-2.8v-1.7
			c0-0.4,0-0.7,0-1.1v-1.5c0-1.2,0.7-2.2,1.2-2.8c0.6-0.6,1.7-1.2,2.8-1.2h2.2l0,0c1.5,0,2.9-0.5,4.1-1.7c2.2-2.2,2.2-5.8,0-8.1
			c-2.2-2.2-5.8-2.2-8.1,0c-1.1,1.1-1.7,2.6-1.7,4.1l0,0v2.2c0,1.1-0.6,2.2-1.2,2.8c-0.6,0.6-1.6,1.2-2.8,1.2h-1.5
			c-1.7-0.2-3.4,0.3-4.6,1.6c-2.2,2.2-2.2,5.8,0,8.1c1.3,1.3,3,1.8,4.7,1.6h1.5c1.2,0,2.2,0.7,2.8,1.2c0.6,0.6,1.2,1.7,1.2,2.8v2.1
			c0,1.5,0.5,3,1.7,4.2c2.2,2.2,5.8,2.2,8.1,0c2.2-2.2,2.2-5.8,0-8.1C-366.9-124.8-368.3-125.4-369.8-125.4z M-385.7-111.8
			c-2.2,2.2-2.2,5.8,0,8.1c2.2,2.2,5.8,2.2,8.1,0c2.2-2.2,2.2-5.8,0-8.1C-379.8-114.1-383.5-114.1-385.7-111.8z M-401.3-151.2
			c2.2-2.2,2.2-5.8,0-8.1c-2.2-2.2-5.8-2.2-8.1,0s-2.2,5.8,0,8.1C-407.2-149-403.6-149-401.3-151.2z M-389.5-139.4
			c1.3-1.3,1.8-3,1.6-4.6v-1.6c0-1.2,0.7-2.2,1.2-2.8c0.6-0.6,1.7-1.2,2.8-1.2h2.1c1.5,0,3-0.5,4.2-1.7c2.2-2.2,2.2-5.8,0-8.1
			c-2.2-2.2-5.8-2.2-8.1,0c-1.1,1.1-1.7,2.6-1.7,4l0,0v2.2c0,1.1-0.6,2.2-1.2,2.8c-0.6,0.6-1.6,1.2-2.8,1.2h-1.8
			c-1.6-0.1-3.2,0.4-4.4,1.6c-2.2,2.2-2.2,5.8,0,8.1C-395.3-137.2-391.7-137.2-389.5-139.4z"/>
	</g>
	<rect id="XMLID_8468_" x="-482.3" y="-165.7" class="st1" width="177.6" height="68.3"/>
</g>
<g>
	<rect id="XMLID_8467_" x="-245.1" y="-165.7" class="st1" width="177.6" height="68.3"/>
	<g>
		<g>
			<g>
				<polygon class="st2" points="-136.1,-138.2 -141.1,-138.2 -141.1,-124.7 -131.8,-124.7 -131.8,-129 -136.1,-129 -136.1,-138.2 
									"/>
				<path class="st2" d="M-146.5-129v-9.2h-4.9l0,4.7l-7,4.4l-1.4-0.8l7-4.4l-3.1-2l-7,4.4l-1.2-0.8l7-4.4l-3.1-2l-7.9,5
					c-1.1-2.9-4-4.1-7.5-4.1h-5.4v13.6h6.6c3.1,0,5.5-1.6,6.4-4.2l7.9,5l8.8-5.5l0,4.8h9.3v-4.4H-146.5L-146.5-129z M-175.6-128.7
					h-0.7v-5.3h0.7c1.8,0,2.9,0.8,2.9,2.7C-172.7-129.5-174-128.7-175.6-128.7L-175.6-128.7z"/>
			</g>
		</g>
		<circle class="st3" cx="-156.3" cy="-131.5" r="31"/>
	</g>
</g>
<g>
	<rect id="XMLID_8466_" x="0.9" y="-165.7" class="st1" width="177.6" height="68.3"/>
	<g>
		<g id="XMLID_8079_">
			<g>
				<g id="XMLID_669_">
					<path class="st0" d="M75.8-148l-0.7-2.6l-7.1,1.2c-0.6,1.6-1,3.2-1.2,4.9L75.8-148z"/>
				</g>
				<g id="XMLID_668_">
					<polygon class="st0" points="84.5,-150.5 78.9,-148.3 79.9,-143.5 85,-145.3 					"/>
				</g>
				<g id="XMLID_667_">
					<path class="st0" d="M74.9-151.3l-1.7-6.1c-2,2.1-3.6,4.5-4.8,7.2L74.9-151.3z"/>
				</g>
				<g id="XMLID_666_">
					<polygon class="st0" points="73.4,-134.7 78.5,-135.7 77.8,-140.5 72.9,-138.8 					"/>
				</g>
				<g id="XMLID_665_">
					<polygon class="st0" points="72,-145.6 72.8,-139.7 77.7,-141.3 77.5,-142.6 79.1,-143.2 78.1,-148 					"/>
				</g>
				<g id="XMLID_664_">
					<path class="st0" d="M84.6-158.9l9.5-4.9c-1.4-0.3-2.9-0.4-4.4-0.4c-1.9,0-3.7,0.2-5.5,0.7L84.6-158.9z"/>
				</g>
				<g id="XMLID_663_">
					<path class="st0" d="M73.6-126.9l-0.9-6.9l-5.1,1c0.4,2.2,1.1,4.7,2,7.4L74-127L73.6-126.9z"/>
				</g>
				<g id="XMLID_662_">
					<path class="st0" d="M104.9-158.5l-1.7,0.7l1.9,5.2l3.7-1.4C107.8-155.7,106.4-157.2,104.9-158.5z"/>
				</g>
				<g id="XMLID_643_">
					<g id="XMLID_661_">
						<polygon class="st0" points="108.4,-147.8 105.2,-147.2 103.2,-143.2 108,-142.4 						"/>
					</g>
					<g id="XMLID_660_">
						<polygon class="st0" points="102,-142.6 98.3,-143.3 96.2,-138.3 100.1,-138.7 						"/>
					</g>
					<g id="XMLID_659_">
						<polygon class="st0" points="105.3,-149.2 99.8,-147.2 103.3,-145.2 104.6,-147.9 104.6,-147.9 104.6,-147.9 						"/>
					</g>
					<g id="XMLID_658_">
						<polygon class="st0" points="94.1,-138.2 95.3,-138.3 97.5,-143.4 95.1,-143.8 						"/>
					</g>
					<g id="XMLID_657_">
						<polygon class="st0" points="107.7,-138.4 100.3,-137.3 98.9,-134.6 105.4,-135.4 105,-134.6 107.5,-135.1 						"/>
					</g>
					<g id="XMLID_656_">
						<path class="st0" d="M110.7-137.5l1.7,0.7c0.1-0.6,0.1-1.1,0.2-1.7c0.1-0.5,0.1-1.1,0.1-1.6L110.7-137.5z"/>
					</g>
					<g id="XMLID_655_">
						<polygon class="st0" points="107,-128.8 103.7,-126.8 103.6,-126.9 103.8,-122.3 106.5,-122.2 						"/>
					</g>
					<g id="XMLID_654_">
						<polygon class="st0" points="104.6,-133.7 103.4,-130.6 103.4,-130.6 103.6,-127.6 107.1,-129.8 107.4,-134.3 						"/>
					</g>
					<g id="XMLID_653_">
						<polygon class="st0" points="108,-141.5 102.8,-142.5 100.7,-138.2 107.8,-139.3 						"/>
					</g>
					<g id="XMLID_652_">
						<polygon class="st0" points="102.7,-128.9 100,-122.3 103,-122.3 						"/>
					</g>
					<g id="XMLID_651_">
						<polygon class="st0" points="99.6,-137.8 93.9,-137.3 93.3,-133.9 98,-134.5 						"/>
					</g>
					<g id="XMLID_650_">
						<polygon class="st0" points="102.4,-143.4 102.9,-144.5 98.8,-146.8 95.4,-145.6 95.2,-144.7 						"/>
					</g>
					<g id="XMLID_649_">
						<path class="st0" d="M107.7-126.7l-0.3,4.5l1.1,0c0.6-1.4,1.2-2.9,1.7-4.5H107.7z"/>
					</g>
					<g id="XMLID_648_">
						<path class="st0" d="M108.5-137.6l-0.2,2.6l0.1,0.5l-0.1,0l-0.2,2.6l3.7-1.1c0.2-1,0.4-2,0.5-3L108.5-137.6z"/>
					</g>
					<g id="XMLID_647_">
						<path class="st0" d="M111.6-132.1l-3.6,1l-0.3,3.5h2.6C110.9-129,111.2-130.5,111.6-132.1z"/>
					</g>
					<g id="XMLID_646_">
						<path class="st0" d="M105.6-148.1l5.6-1.2c-0.2-0.6-0.5-1.2-0.8-1.8l-4.2,1.5L105.6-148.1z"/>
					</g>
					<g id="XMLID_645_">
						<path class="st0" d="M108.6-138.4l1.4,0.6l2.8-3.7c0-0.9-0.1-1.9-0.2-2.8l-3.5,0.3L108.6-138.4z"/>
					</g>
					<g id="XMLID_644_">
						<path class="st0" d="M109.3-148l-0.2,3.1l3.3-0.3c-0.2-1.1-0.5-2.2-0.8-3.3L109.3-148z"/>
					</g>
				</g>
				<g id="XMLID_640_">
					<g id="XMLID_642_">
						<path class="st0" d="M71.9-140.3l-0.7-4.9l-4.5,1.8c-0.1,0.7-0.1,1.5-0.1,2.2c0,0,0,0.2,0,0.5L71.9-140.3z"/>
					</g>
					<g id="XMLID_641_">
						<path class="st0" d="M72-139.5l-5.3-0.5c0,0,0,0.1,0,0.1c0.1,1.3,0.3,3.5,0.8,6.3l5.2-1L72-139.5z"/>
					</g>
				</g>
				<g id="XMLID_637_">
					<g id="XMLID_639_">
						<polygon class="st0" points="78.2,-134.8 73.5,-133.9 74.4,-127.5 						"/>
					</g>
					<g id="XMLID_638_">
						<polygon class="st0" points="79.5,-128.9 78.7,-134.2 75.2,-127.4 						"/>
					</g>
				</g>
				<g id="XMLID_634_">
					<g id="XMLID_636_">
						<path class="st0" d="M80.1-158.2l3.5-3l-0.2-2.2c-1.7,0.5-3.3,1.2-4.8,2L80.1-158.2z"/>
					</g>
					<g id="XMLID_635_">
						<path class="st0" d="M77.8-161c-1.4,0.9-2.8,1.9-4,3l1.2,4.1l4.4-3.8L77.8-161z"/>
					</g>
				</g>
				<g id="XMLID_631_">
					<g id="XMLID_633_">
						<path class="st0" d="M100.3-161.7l-4.6,2.5l3.6,2l4.8-1.9C103-160.1,101.7-161,100.3-161.7z"/>
					</g>
					<g id="XMLID_632_">
						<path class="st0" d="M99.4-162.1c-1.3-0.6-2.7-1.1-4.1-1.5l-3.9,2l3.5,1.9L99.4-162.1z"/>
					</g>
				</g>
				<g id="XMLID_628_">
					<g id="XMLID_630_">
						<polygon class="st0" points="88.8,-153.1 98.4,-156.8 90.6,-161.1 89.4,-160.5 						"/>
					</g>
					<g id="XMLID_629_">
						<polygon class="st0" points="88.4,-160 84.7,-158.1 85.2,-151.7 87.9,-152.7 						"/>
					</g>
				</g>
				<g id="XMLID_600_">
					<g id="XMLID_627_">
						<polygon class="st0" points="86.5,-108.8 86.8,-114 83.5,-114.1 82.8,-109.6 						"/>
					</g>
					<g id="XMLID_626_">
						<polygon class="st0" points="83.6,-114.9 88.8,-114.7 89.7,-119.1 84.2,-119.2 						"/>
					</g>
					<g id="XMLID_625_">
						<polygon class="st0" points="75.2,-115.3 82.8,-115 83,-116.6 76.7,-118.2 						"/>
					</g>
					<g id="XMLID_624_">
						<polygon class="st0" points="82.6,-114.2 79.4,-114.3 78.8,-112 82.2,-111.4 						"/>
					</g>
					<g id="XMLID_623_">
						<polygon class="st0" points="88.8,-107.5 82.7,-108.8 82.3,-106.5 87.9,-104.8 						"/>
					</g>
					<g id="XMLID_622_">
						<path class="st0" d="M74.3-115.3L74.3-115.3l1.6-3.1l-3.8-0.9C72.8-118,73.5-116.7,74.3-115.3z"/>
					</g>
					<g id="XMLID_621_">
						<polygon class="st0" points="90.5,-105 91.4,-106.9 89.6,-107.3 89.1,-105.8 						"/>
					</g>
					<g id="XMLID_620_">
						<path class="st0" d="M78.1-109.7c1,1.3,2.1,2.6,3.3,3.9l0.7-4.8l-3.6-0.7L78.1-109.7z"/>
					</g>
					<g id="XMLID_619_">
						<polygon class="st0" points="95.5,-119.1 99.8,-116.5 103.2,-119 						"/>
					</g>
					<g id="XMLID_618_">
						<polygon class="st0" points="87.6,-114 87.3,-108.6 90.5,-107.9 90.4,-113.9 						"/>
					</g>
					<g id="XMLID_617_">
						<path class="st0" d="M88.8-105l-1.6,4.5l-0.4-0.1c0.2,0.2,0.4,0.4,0.7,0.5l4.2-3.3L88.8-105z"/>
					</g>
					<g id="XMLID_616_">
						<polygon class="st0" points="102.1,-114.3 97.7,-116.9 96.6,-114.5 						"/>
					</g>
					<g id="XMLID_615_">
						<polygon class="st0" points="89.7,-114.7 95.7,-114.5 97,-117.3 94,-119.1 90.6,-119.1 						"/>
					</g>
					<g id="XMLID_614_">
						<path class="st0" d="M78.6-114.3l-3.7-0.1c0.8,1.3,1.7,2.6,2.7,3.9L78.6-114.3z"/>
					</g>
					<g id="XMLID_613_">
						<path class="st0" d="M76.3-119.2l3.2-6.2l-8.6,3.1c0.3,0.7,0.6,1.3,0.9,2L76.3-119.2z"/>
					</g>
					<g id="XMLID_612_">
						<polygon class="st0" points="80,-125.6 80,-125.6 80,-125.6 						"/>
					</g>
					<g id="XMLID_611_">
						<polygon class="st0" points="77.1,-119 83.1,-117.5 83.4,-119.2 80.9,-119.2 80.1,-124.9 						"/>
					</g>
					<g id="XMLID_610_">
						<path class="st0" d="M104.6-119l-4,3l3,1.8l0.6,0c0.9-1.5,1.9-3.1,2.7-4.7L104.6-119z"/>
					</g>
					<g id="XMLID_609_">
						<path class="st0" d="M87.6-104l-5.4-1.6l-0.1,0.6c1.3,1.4,2.8,2.8,4.4,4.1L87.6-104z"/>
					</g>
					<g id="XMLID_608_">
						<path class="st0" d="M96.1-105.9l-2.9,2.3l1.6,0.8c0.9-0.8,1.8-1.8,2.8-2.8L96.1-105.9z"/>
					</g>
					<g id="XMLID_607_">
						<polygon class="st0" points="96.1,-108.8 93.3,-113.8 91.3,-113.8 91.4,-107.7 95.4,-106.9 						"/>
					</g>
					<g id="XMLID_606_">
						<polygon class="st0" points="92.2,-106.7 91.3,-104.6 92.4,-104 95,-106.1 						"/>
					</g>
					<g id="XMLID_605_">
						<path class="st0" d="M89.4-100.6l-1.2,1c0.4,0.3,0.7,0.6,1.1,0.9L89.4-100.6z"/>
					</g>
					<g id="XMLID_604_">
						<path class="st0" d="M94.1-102.2l-1.6-0.9l-2.4,1.9l0.1,0l-0.1,2.3C90.8-99.4,92.3-100.5,94.1-102.2z"/>
					</g>
					<g id="XMLID_603_">
						<path class="st0" d="M98.8-113.6l-0.8,2l2.6,2.4c1-1.3,2.1-2.7,3.1-4.2L98.8-113.6z"/>
					</g>
					<g id="XMLID_602_">
						<path class="st0" d="M100.1-108.5l-2.4-2.3l-1.6,4l2,0.4C98.8-107,99.4-107.7,100.1-108.5z"/>
					</g>
					<g id="XMLID_601_">
						<polygon class="st0" points="97.9,-113.6 94.3,-113.7 96.5,-109.8 						"/>
					</g>
				</g>
				<g id="XMLID_597_">
					<g id="XMLID_599_">
						<polygon class="st0" points="99.1,-150.4 104.4,-152.4 102.4,-157.5 97.9,-155.8 						"/>
					</g>
					<g id="XMLID_598_">
						<polygon class="st0" points="97.2,-155.5 93,-153.8 96.7,-149.6 98.3,-150.2 						"/>
					</g>
				</g>
				<g id="XMLID_594_">
					<g id="XMLID_596_">
						<polygon class="st0" points="93.8,-148.5 95.8,-149.3 92.2,-153.5 87.9,-151.8 						"/>
					</g>
					<g id="XMLID_595_">
						<polygon class="st0" points="86.9,-151.4 85.3,-150.8 85.8,-145.6 92.8,-148.2 						"/>
					</g>
				</g>
				<g id="XMLID_591_">
					<g id="XMLID_593_">
						<polygon class="st0" points="82,-150.4 78,-155.4 75.3,-153.1 75.2,-153.1 76.6,-148.3 78,-148.8 77.9,-148.9 78.4,-149 
													"/>
					</g>
					<g id="XMLID_592_">
						<polygon class="st0" points="82.8,-150.7 84.4,-151.4 83.7,-160.2 78.6,-155.9 						"/>
					</g>
				</g>
			</g>
		</g>
		<polygon id="XMLID_8077_" class="st0" points="80.3,-140.4 82.9,-122.5 95.4,-122.4 99.1,-131.1 88.7,-130 90.7,-144.2 		"/>
	</g>
</g>
<g>
	<g>
		<linearGradient id="XMLID_4_" gradientUnits="userSpaceOnUse" x1="-414.0786" y1="54.8499" x2="-373.0125" y2="13.7838">
			<stop  offset="0" style="stop-color:#F05A44"/>
			<stop  offset="1" style="stop-color:#613E97"/>
		</linearGradient>
		<path id="XMLID_5189_" class="st4" d="M-389.3,42c2.2,2.2,2.2,5.8,0,8.1c-1.1,1.1-2.6,1.7-4.1,1.7h-2.2c-1,0-2.2,0.6-2.8,1.2
			c-0.6,0.6-1.2,1.6-1.2,2.8v1.6c0.2,1.6-0.4,3.3-1.6,4.6c-2.2,2.2-5.8,2.2-8.1,0s-2.2-5.8,0-8.1c1.3-1.3,2.9-1.8,4.6-1.6h1.6
			c1.2,0,2.2-0.6,2.8-1.2c0.6-0.6,1.2-1.7,1.2-2.8v-2.2c0-1.5,0.5-3,1.7-4.1C-395.2,39.7-391.5,39.7-389.3,42z M-411.4,43.8
			c0-1.2,0.7-2.2,1.2-2.8c0.6-0.6,1.7-1.2,2.8-1.2h1.5c1.7,0.2,3.4-0.3,4.7-1.6c2.2-2.2,2.2-5.8,0-8.1c-1.1-1.1-2.6-1.7-4.1-1.7
			h-2.1c-1.1,0-2.2-0.6-2.8-1.2c-0.6-0.6-1.2-1.6-1.2-2.8v-1.6c0.2-1.6-0.4-3.3-1.6-4.6c-2.2-2.2-5.8-2.2-8.1,0
			c-2.2,2.2-2.2,5.8,0,8.1c1.3,1.3,2.9,1.8,4.6,1.6h1.6c1.2,0,2.2,0.7,2.8,1.2c0.6,0.6,1.2,1.7,1.2,2.8v1.9c0,0.2,0,0.3,0,0.5v2
			c0,1.1-0.6,2.2-1.2,2.8c-0.6,0.6-1.6,1.2-2.8,1.2h-2.2l0,0c-1.5,0-2.9,0.6-4,1.7c-2.2,2.2-2.2,5.8,0,8.1c2.2,2.2,5.8,2.2,8.1,0
			c1.2-1.2,1.7-2.9,1.6-4.4V43.8z M-369.6,40.3L-369.6,40.3l-2.2,0c-1.1,0-2.2-0.6-2.8-1.2c-0.6-0.6-1.2-1.6-1.2-2.8v-1.7
			c0-0.4,0-0.7,0-1.1V32c0-1.2,0.7-2.2,1.2-2.8c0.6-0.6,1.7-1.2,2.8-1.2h2.2l0,0c1.5,0,2.9-0.5,4.1-1.7c2.2-2.2,2.2-5.8,0-8.1
			c-2.2-2.2-5.8-2.2-8.1,0c-1.1,1.1-1.7,2.6-1.7,4.1l0,0v2.2c0,1.1-0.6,2.2-1.2,2.8c-0.6,0.6-1.6,1.2-2.8,1.2h-1.5
			c-1.7-0.2-3.4,0.3-4.6,1.6c-2.2,2.2-2.2,5.8,0,8.1c1.3,1.3,3,1.8,4.7,1.6h1.5c1.2,0,2.2,0.7,2.8,1.2c0.6,0.6,1.2,1.7,1.2,2.8v2.1
			c0,1.5,0.5,3,1.7,4.2c2.2,2.2,5.8,2.2,8.1,0c2.2-2.2,2.2-5.8,0-8.1C-366.7,40.8-368.2,40.3-369.6,40.3z M-385.5,53.9
			c-2.2,2.2-2.2,5.8,0,8.1c2.2,2.2,5.8,2.2,8.1,0c2.2-2.2,2.2-5.8,0-8.1C-379.7,51.6-383.3,51.6-385.5,53.9z M-401.2,14.4
			c2.2-2.2,2.2-5.8,0-8.1c-2.2-2.2-5.8-2.2-8.1,0c-2.2,2.2-2.2,5.8,0,8.1C-407.1,16.7-403.4,16.7-401.2,14.4z M-389.3,26.3
			c1.3-1.3,1.8-3,1.6-4.6v-1.6c0-1.2,0.7-2.2,1.2-2.8c0.6-0.6,1.7-1.2,2.8-1.2h2.1c1.5,0,3-0.5,4.2-1.7c2.2-2.2,2.2-5.8,0-8.1
			c-2.2-2.2-5.8-2.2-8.1,0c-1.1,1.1-1.7,2.6-1.7,4l0,0v2.2c0,1.1-0.6,2.2-1.2,2.8c-0.6,0.6-1.6,1.2-2.8,1.2h-1.8
			c-1.6-0.1-3.2,0.4-4.4,1.6c-2.2,2.2-2.2,5.8,0,8.1C-395.2,28.5-391.6,28.5-389.3,26.3z"/>
	</g>
	<rect id="XMLID_5188_" x="-482.2" class="st1" width="177.6" height="68.3"/>
</g>
<g>
	<rect id="XMLID_5184_" x="-245" class="st1" width="177.6" height="68.3"/>
	<g>
		<g>
			<g>
				<polygon class="st5" points="-136,27.4 -140.9,27.4 -140.9,41 -131.6,41 -131.6,36.7 -136,36.7 -136,27.4 				"/>
				<path class="st5" d="M-146.4,36.7v-9.2h-4.9l0,4.7l-7,4.4l-1.4-0.8l7-4.4l-3.1-2l-7,4.4l-1.2-0.8l7-4.4l-3.1-2l-7.9,5
					c-1.1-2.9-4-4.1-7.5-4.1h-5.4V41h6.6c3.1,0,5.5-1.6,6.4-4.2l7.9,5l8.8-5.5l0,4.8h9.3v-4.4H-146.4L-146.4,36.7z M-175.5,36.9
					h-0.7v-5.3h0.7c1.8,0,2.9,0.8,2.9,2.7C-172.6,36.2-173.8,36.9-175.5,36.9L-175.5,36.9z"/>
			</g>
		</g>
		<circle class="st6" cx="-156.2" cy="34.2" r="31"/>
	</g>
</g>
<g>
	<rect id="XMLID_5181_" class="st1" width="177.6" height="68.3"/>
	<g>
		<g id="XMLID_678_">
			<g>
				<g id="XMLID_753_">
					<path class="st7" d="M75,17.7l-0.7-2.6l-7.1,1.2c-0.6,1.6-1,3.2-1.2,4.9L75,17.7z"/>
				</g>
				<g id="XMLID_752_">
					<polygon class="st7" points="83.7,15.2 78,17.4 79,22.2 84.1,20.4 					"/>
				</g>
				<g id="XMLID_751_">
					<path class="st7" d="M74,14.4l-1.7-6.1c-2,2.1-3.6,4.5-4.8,7.2L74,14.4z"/>
				</g>
				<g id="XMLID_750_">
					<polygon class="st7" points="72.6,30.9 77.6,30 76.9,25.2 72,26.8 					"/>
				</g>
				<g id="XMLID_748_">
					<polygon class="st7" points="71.1,20.1 71.9,26 76.8,24.3 76.6,23.1 78.2,22.5 77.3,17.7 					"/>
				</g>
				<g id="XMLID_747_">
					<path class="st7" d="M83.7,6.7l9.5-4.9c-1.4-0.3-2.9-0.4-4.4-0.4c-1.9,0-3.7,0.2-5.5,0.7L83.7,6.7z"/>
				</g>
				<g id="XMLID_746_">
					<path class="st7" d="M72.8,38.8l-0.9-6.9l-5.1,1c0.4,2.2,1.1,4.7,2,7.4l4.4-1.6L72.8,38.8z"/>
				</g>
				<g id="XMLID_745_">
					<path class="st7" d="M104.1,7.2l-1.7,0.7l1.9,5.2l3.7-1.4C106.9,10,105.6,8.5,104.1,7.2z"/>
				</g>
				<g id="XMLID_726_">
					<g id="XMLID_744_">
						<polygon class="st7" points="107.6,17.9 104.3,18.5 102.4,22.5 107.2,23.3 						"/>
					</g>
					<g id="XMLID_743_">
						<polygon class="st7" points="101.1,23.1 97.5,22.4 95.3,27.3 99.2,27 						"/>
					</g>
					<g id="XMLID_742_">
						<polygon class="st7" points="104.4,16.5 98.9,18.5 102.4,20.5 103.7,17.8 103.7,17.8 103.8,17.8 						"/>
					</g>
					<g id="XMLID_741_">
						<polygon class="st7" points="93.2,27.5 94.4,27.4 96.7,22.3 94.2,21.8 						"/>
					</g>
					<g id="XMLID_740_">
						<polygon class="st7" points="106.9,27.2 99.4,28.4 98.1,31.1 104.5,30.2 104.1,31.1 106.6,30.6 						"/>
					</g>
					<g id="XMLID_739_">
						<path class="st7" d="M109.8,28.2l1.7,0.7c0.1-0.6,0.1-1.1,0.2-1.7c0.1-0.5,0.1-1.1,0.1-1.6L109.8,28.2z"/>
					</g>
					<g id="XMLID_738_">
						<polygon class="st7" points="106.2,36.9 102.8,38.9 102.7,38.8 102.9,43.4 105.7,43.4 						"/>
					</g>
					<g id="XMLID_737_">
						<polygon class="st7" points="103.8,32 102.5,35 102.6,35 102.7,38 106.2,35.9 106.6,31.4 						"/>
					</g>
					<g id="XMLID_736_">
						<polygon class="st7" points="107.1,24.1 102,23.2 99.8,27.5 106.9,26.4 						"/>
					</g>
					<g id="XMLID_735_">
						<polygon class="st7" points="101.8,36.7 99.1,43.4 102.1,43.4 						"/>
					</g>
					<g id="XMLID_734_">
						<polygon class="st7" points="98.8,27.9 93.1,28.4 92.5,31.8 97.1,31.2 						"/>
					</g>
					<g id="XMLID_733_">
						<polygon class="st7" points="101.5,22.3 102.1,21.2 97.9,18.9 94.5,20.1 94.3,21 						"/>
					</g>
					<g id="XMLID_732_">
						<path class="st7" d="M106.8,39l-0.3,4.5l1.1,0c0.6-1.4,1.2-2.9,1.7-4.5H106.8z"/>
					</g>
					<g id="XMLID_731_">
						<path class="st7" d="M107.6,28.1l-0.2,2.6l0.1,0.5l-0.1,0l-0.2,2.6l3.7-1.1c0.2-1,0.4-2,0.5-3L107.6,28.1z"/>
					</g>
					<g id="XMLID_730_">
						<path class="st7" d="M110.7,33.6l-3.6,1l-0.3,3.5h2.6C110,36.7,110.4,35.2,110.7,33.6z"/>
					</g>
					<g id="XMLID_729_">
						<path class="st7" d="M104.8,17.6l5.6-1.2c-0.2-0.6-0.5-1.2-0.8-1.8l-4.2,1.5L104.8,17.6z"/>
					</g>
					<g id="XMLID_728_">
						<path class="st7" d="M107.7,27.3l1.4,0.6l2.8-3.7c0-0.9-0.1-1.9-0.2-2.8l-3.5,0.3L107.7,27.3z"/>
					</g>
					<g id="XMLID_727_">
						<path class="st7" d="M108.4,17.7l-0.2,3.1l3.3-0.3c-0.2-1.1-0.5-2.2-0.8-3.3L108.4,17.7z"/>
					</g>
				</g>
				<g id="XMLID_723_">
					<g id="XMLID_725_">
						<path class="st7" d="M71,25.4l-0.7-4.9l-4.5,1.8c-0.1,0.7-0.1,1.5-0.1,2.2c0,0,0,0.2,0,0.5L71,25.4z"/>
					</g>
					<g id="XMLID_724_">
						<path class="st7" d="M71.1,26.2l-5.3-0.5c0,0,0,0.1,0,0.1c0.1,1.3,0.3,3.5,0.8,6.3l5.2-1L71.1,26.2z"/>
					</g>
				</g>
				<g id="XMLID_720_">
					<g id="XMLID_722_">
						<polygon class="st7" points="77.3,30.9 72.7,31.8 73.5,38.2 						"/>
					</g>
					<g id="XMLID_721_">
						<polygon class="st7" points="78.6,36.8 77.9,31.5 74.4,38.3 						"/>
					</g>
				</g>
				<g id="XMLID_717_">
					<g id="XMLID_719_">
						<path class="st7" d="M79.2,7.4l3.5-3l-0.2-2.2c-1.7,0.5-3.3,1.2-4.8,2L79.2,7.4z"/>
					</g>
					<g id="XMLID_718_">
						<path class="st7" d="M77,4.6c-1.4,0.9-2.8,1.9-4,3l1.2,4.1L78.6,8L77,4.6z"/>
					</g>
				</g>
				<g id="XMLID_714_">
					<g id="XMLID_716_">
						<path class="st7" d="M99.5,4l-4.6,2.5l3.6,2l4.8-1.9C102.2,5.6,100.8,4.7,99.5,4z"/>
					</g>
					<g id="XMLID_715_">
						<path class="st7" d="M98.6,3.5c-1.3-0.6-2.7-1.1-4.1-1.5l-3.9,2L94,6L98.6,3.5z"/>
					</g>
				</g>
				<g id="XMLID_711_">
					<g id="XMLID_713_">
						<polygon class="st7" points="88,12.6 97.5,8.9 89.7,4.6 88.5,5.2 						"/>
					</g>
					<g id="XMLID_712_">
						<polygon class="st7" points="87.5,5.7 83.8,7.6 84.4,14 87,13 						"/>
					</g>
				</g>
				<g id="XMLID_683_">
					<g id="XMLID_710_">
						<polygon class="st7" points="85.6,56.9 86,51.7 82.6,51.6 81.9,56.1 						"/>
					</g>
					<g id="XMLID_709_">
						<polygon class="st7" points="82.7,50.7 88,50.9 88.9,46.6 83.4,46.5 						"/>
					</g>
					<g id="XMLID_708_">
						<polygon class="st7" points="74.4,50.4 81.9,50.7 82.1,49 75.9,47.5 						"/>
					</g>
					<g id="XMLID_707_">
						<polygon class="st7" points="81.8,51.5 78.5,51.4 77.9,53.6 81.4,54.3 						"/>
					</g>
					<g id="XMLID_706_">
						<polygon class="st7" points="88,58.2 81.8,56.9 81.5,59.2 87,60.9 						"/>
					</g>
					<g id="XMLID_705_">
						<path class="st7" d="M73.5,50.4L73.5,50.4l1.6-3.1l-3.8-0.9C71.9,47.7,72.6,49,73.5,50.4z"/>
					</g>
					<g id="XMLID_704_">
						<polygon class="st7" points="89.7,60.7 90.5,58.8 88.8,58.4 88.2,59.9 						"/>
					</g>
					<g id="XMLID_703_">
						<path class="st7" d="M77.2,56c1,1.3,2.1,2.6,3.3,3.9l0.7-4.8l-3.6-0.7L77.2,56z"/>
					</g>
					<g id="XMLID_702_">
						<polygon class="st7" points="94.6,46.6 99,49.2 102.3,46.7 						"/>
					</g>
					<g id="XMLID_701_">
						<polygon class="st7" points="86.8,51.7 86.4,57.1 89.7,57.8 89.6,51.8 						"/>
					</g>
					<g id="XMLID_700_">
						<path class="st7" d="M88,60.7l-1.6,4.5L86,65c0.2,0.2,0.4,0.4,0.7,0.5l4.2-3.3L88,60.7z"/>
					</g>
					<g id="XMLID_699_">
						<polygon class="st7" points="101.2,51.4 96.9,48.8 95.7,51.2 						"/>
					</g>
					<g id="XMLID_698_">
						<polygon class="st7" points="88.8,51 94.8,51.2 96.2,48.4 93.1,46.6 89.7,46.6 						"/>
					</g>
					<g id="XMLID_697_">
						<path class="st7" d="M77.7,51.4L74,51.2c0.8,1.3,1.7,2.6,2.7,3.9L77.7,51.4z"/>
					</g>
					<g id="XMLID_696_">
						<path class="st7" d="M75.4,46.5l3.2-6.2L70,43.4c0.3,0.7,0.6,1.3,0.9,2L75.4,46.5z"/>
					</g>
					<g id="XMLID_695_">
						<polygon class="st7" points="79.1,40.1 79.1,40.1 79.1,40.1 						"/>
					</g>
					<g id="XMLID_694_">
						<polygon class="st7" points="76.2,46.7 82.3,48.2 82.5,46.5 80.1,46.4 79.2,40.8 						"/>
					</g>
					<g id="XMLID_693_">
						<path class="st7" d="M103.7,46.7l-4,3l3,1.8l0.6,0c0.9-1.5,1.9-3.1,2.7-4.7L103.7,46.7z"/>
					</g>
					<g id="XMLID_692_">
						<path class="st7" d="M86.7,61.7L81.3,60l-0.1,0.6c1.3,1.4,2.8,2.8,4.4,4.1L86.7,61.7z"/>
					</g>
					<g id="XMLID_691_">
						<path class="st7" d="M95.2,59.8l-2.9,2.3l1.6,0.8c0.9-0.8,1.8-1.8,2.8-2.8L95.2,59.8z"/>
					</g>
					<g id="XMLID_690_">
						<polygon class="st7" points="95.2,56.9 92.5,51.9 90.4,51.8 90.5,57.9 94.5,58.8 						"/>
					</g>
					<g id="XMLID_689_">
						<polygon class="st7" points="91.3,59 90.4,61.1 91.5,61.7 94.2,59.6 						"/>
					</g>
					<g id="XMLID_688_">
						<path class="st7" d="M88.5,65.1l-1.2,1c0.4,0.3,0.7,0.6,1.1,0.9L88.5,65.1z"/>
					</g>
					<g id="XMLID_687_">
						<path class="st7" d="M93.3,63.5l-1.6-0.9l-2.4,1.9l0.1,0l-0.1,2.3C90,66.3,91.4,65.2,93.3,63.5z"/>
					</g>
					<g id="XMLID_686_">
						<path class="st7" d="M97.9,52.1l-0.8,2l2.6,2.4c1-1.3,2.1-2.7,3.1-4.2L97.9,52.1z"/>
					</g>
					<g id="XMLID_685_">
						<path class="st7" d="M99.2,57.2l-2.4-2.3l-1.6,4l2,0.4C97.9,58.7,98.6,58,99.2,57.2z"/>
					</g>
					<g id="XMLID_684_">
						<polygon class="st7" points="97.1,52.1 93.4,52 95.6,55.9 						"/>
					</g>
				</g>
				<g id="XMLID_680_">
					<g id="XMLID_682_">
						<polygon class="st7" points="98.2,15.2 103.5,13.3 101.6,8.2 97.1,9.9 						"/>
					</g>
					<g id="XMLID_681_">
						<polygon class="st7" points="96.3,10.2 92.1,11.9 95.8,16.1 97.4,15.5 						"/>
					</g>
				</g>
				<g id="XMLID_676_">
					<g id="XMLID_679_">
						<polygon class="st7" points="93,17.1 95,16.4 91.3,12.2 87,13.9 						"/>
					</g>
					<g id="XMLID_677_">
						<polygon class="st7" points="86,14.2 84.4,14.9 84.9,20.1 91.9,17.5 						"/>
					</g>
				</g>
				<g id="XMLID_673_">
					<g id="XMLID_675_">
						<polygon class="st7" points="81.1,15.3 77.1,10.3 74.4,12.6 74.4,12.5 75.7,17.4 77.1,16.9 77.1,16.8 77.5,16.7 						"/>
					</g>
					<g id="XMLID_674_">
						<polygon class="st7" points="81.9,15 83.6,14.3 82.8,5.4 77.8,9.8 						"/>
					</g>
				</g>
			</g>
		</g>
		<polygon id="XMLID_1_" class="st8" points="79.4,25.3 82,43.2 94.5,43.3 98.2,34.6 87.9,35.6 89.8,21.5 		"/>
	</g>
</g>
</svg>
