<?xml version="1.0" encoding="utf-8"?>
<!-- Generator: Adobe Illustrator 21.1.0, SVG Export Plug-In . SVG Version: 6.00 Build 0)  -->
<svg version="1.1" id="Layer_1" xmlns="http://www.w3.org/2000/svg" xmlns:xlink="http://www.w3.org/1999/xlink" x="0px" y="0px"
	 viewBox="0 0 177.6 68.3" style="enable-background:new 0 0 177.6 68.3;" xml:space="preserve">
<style type="text/css">
	.st0{fill:#6D6E71;}
	.st1{opacity:0.5;fill:none;}
	.st2{fill-rule:evenodd;clip-rule:evenodd;fill:#6D6E71;}
	.st3{fill:none;stroke:#6D6E71;stroke-width:3.74;stroke-miterlimit:10;}
	.st4{fill:url(#XMLID_4_);}
	.st5{fill-rule:evenodd;clip-rule:evenodd;fill:#057DB7;}
	.st6{fill:none;stroke:#057DB7;stroke-width:3.74;stroke-miterlimit:10;}
	.st7{fill:#7AC4EA;}
	.st8{fill:#0A6093;}
</style>
<g>
	<g>
		<path id="XMLID_8469_" class="st0" d="M-390.3,42c2.2,2.2,2.2,5.8,0,8.1c-1.1,1.1-2.6,1.7-4.1,1.7h-2.2c-1,0-2.2,0.6-2.8,1.2
			c-0.6,0.6-1.2,1.6-1.2,2.8v1.6c0.2,1.6-0.4,3.3-1.6,4.6c-2.2,2.2-5.8,2.2-8.1,0s-2.2-5.8,0-8.1c1.3-1.3,2.9-1.8,4.6-1.6h1.6
			c1.2,0,2.2-0.6,2.8-1.2c0.6-0.6,1.2-1.7,1.2-2.8v-2.2c0-1.5,0.5-3,1.7-4.1C-396.2,39.7-392.5,39.7-390.3,42z M-412.4,43.8
			c0-1.2,0.7-2.2,1.2-2.8c0.6-0.6,1.7-1.2,2.8-1.2h1.5c1.7,0.2,3.4-0.3,4.7-1.6c2.2-2.2,2.2-5.8,0-8.1c-1.1-1.1-2.6-1.7-4.1-1.7
			h-2.1c-1.1,0-2.2-0.6-2.8-1.2c-0.6-0.6-1.2-1.6-1.2-2.8v-1.6c0.2-1.6-0.4-3.3-1.6-4.6c-2.2-2.2-5.8-2.2-8.1,0
			c-2.2,2.2-2.2,5.8,0,8.1c1.3,1.3,2.9,1.8,4.6,1.6h1.6c1.2,0,2.2,0.7,2.8,1.2c0.6,0.6,1.2,1.7,1.2,2.8v1.9c0,0.2,0,0.3,0,0.5v2
			c0,1.1-0.6,2.2-1.2,2.8c-0.6,0.6-1.6,1.2-2.8,1.2h-2.2l0,0c-1.5,0-2.9,0.6-4,1.7c-2.2,2.2-2.2,5.8,0,8.1c2.2,2.2,5.8,2.2,8.1,0
			c1.2-1.2,1.7-2.9,1.6-4.4V43.8z M-370.6,40.3L-370.6,40.3l-2.2,0c-1.1,0-2.2-0.6-2.8-1.2c-0.6-0.6-1.2-1.6-1.2-2.8v-1.7
			c0-0.4,0-0.7,0-1.1V32c0-1.2,0.7-2.2,1.2-2.8c0.6-0.6,1.7-1.2,2.8-1.2h2.2l0,0c1.5,0,2.9-0.5,4.1-1.7c2.2-2.2,2.2-5.8,0-8.1
			c-2.2-2.2-5.8-2.2-8.1,0c-1.1,1.1-1.7,2.6-1.7,4.1l0,0v2.2c0,1.1-0.6,2.2-1.2,2.8c-0.6,0.6-1.6,1.2-2.8,1.2h-1.5
			c-1.7-0.2-3.4,0.3-4.6,1.6c-2.2,2.2-2.2,5.8,0,8.1c1.3,1.3,3,1.8,4.7,1.6h1.5c1.2,0,2.2,0.7,2.8,1.2c0.6,0.6,1.2,1.7,1.2,2.8v2.1
			c0,1.5,0.5,3,1.7,4.2c2.2,2.2,5.8,2.2,8.1,0c2.2-2.2,2.2-5.8,0-8.1C-367.7,40.8-369.2,40.3-370.6,40.3z M-386.5,53.9
			c-2.2,2.2-2.2,5.8,0,8.1c2.2,2.2,5.8,2.2,8.1,0c2.2-2.2,2.2-5.8,0-8.1C-380.7,51.6-384.3,51.6-386.5,53.9z M-402.2,14.4
			c2.2-2.2,2.2-5.8,0-8.1c-2.2-2.2-5.8-2.2-8.1,0c-2.2,2.2-2.2,5.8,0,8.1C-408.1,16.7-404.4,16.7-402.2,14.4z M-390.3,26.3
			c1.3-1.3,1.8-3,1.6-4.6v-1.6c0-1.2,0.7-2.2,1.2-2.8c0.6-0.6,1.7-1.2,2.8-1.2h2.1c1.5,0,3-0.5,4.2-1.7c2.2-2.2,2.2-5.8,0-8.1
			c-2.2-2.2-5.8-2.2-8.1,0c-1.1,1.1-1.7,2.6-1.7,4l0,0v2.2c0,1.1-0.6,2.2-1.2,2.8c-0.6,0.6-1.6,1.2-2.8,1.2h-1.8
			c-1.6-0.1-3.2,0.4-4.4,1.6c-2.2,2.2-2.2,5.8,0,8.1C-396.2,28.5-392.6,28.5-390.3,26.3z"/>
	</g>
	<rect id="XMLID_8468_" x="-483.2" class="st1" width="177.6" height="68.3"/>
</g>
<g>
	<rect id="XMLID_8467_" x="-246" class="st1" width="177.6" height="68.3"/>
	<g>
		<g>
			<g>
				<polygon class="st2" points="-137,27.4 -141.9,27.4 -141.9,41 -132.6,41 -132.6,36.7 -137,36.7 -137,27.4 				"/>
				<path class="st2" d="M-147.4,36.7v-9.2h-4.9l0,4.7l-7,4.4l-1.4-0.8l7-4.4l-3.1-2l-7,4.4l-1.2-0.8l7-4.4l-3.1-2l-7.9,5
					c-1.1-2.9-4-4.1-7.5-4.1h-5.4V41h6.6c3.1,0,5.5-1.6,6.4-4.2l7.9,5l8.8-5.5l0,4.8h9.3v-4.4H-147.4L-147.4,36.7z M-176.5,36.9
					h-0.7v-5.3h0.7c1.8,0,2.9,0.8,2.9,2.7C-173.6,36.2-174.8,36.9-176.5,36.9L-176.5,36.9z"/>
			</g>
		</g>
		<circle class="st3" cx="-157.2" cy="34.2" r="31"/>
	</g>
</g>
<g>
	<rect id="XMLID_8466_" class="st1" width="177.6" height="68.3"/>
	<g>
		<g id="XMLID_8079_">
			<g>
				<g id="XMLID_669_">
					<path class="st0" d="M75,17.7l-0.7-2.6l-7.1,1.2c-0.6,1.6-1,3.2-1.2,4.9L75,17.7z"/>
				</g>
				<g id="XMLID_668_">
					<polygon class="st0" points="83.7,15.2 78,17.4 79,22.2 84.1,20.4 					"/>
				</g>
				<g id="XMLID_667_">
					<path class="st0" d="M74,14.4l-1.7-6.1c-2,2.1-3.6,4.5-4.8,7.2L74,14.4z"/>
				</g>
				<g id="XMLID_666_">
					<polygon class="st0" points="72.6,30.9 77.6,30 76.9,25.2 72,26.8 					"/>
				</g>
				<g id="XMLID_665_">
					<polygon class="st0" points="71.1,20.1 71.9,26 76.8,24.3 76.6,23.1 78.2,22.5 77.3,17.7 					"/>
				</g>
				<g id="XMLID_664_">
					<path class="st0" d="M83.7,6.7l9.5-4.9c-1.4-0.3-2.9-0.4-4.4-0.4c-1.9,0-3.7,0.2-5.5,0.7L83.7,6.7z"/>
				</g>
				<g id="XMLID_663_">
					<path class="st0" d="M72.8,38.8l-0.9-6.9l-5.1,1c0.4,2.2,1.1,4.7,2,7.4l4.4-1.6L72.8,38.8z"/>
				</g>
				<g id="XMLID_662_">
					<path class="st0" d="M104.1,7.2l-1.7,0.7l1.9,5.2l3.7-1.4C106.9,10,105.6,8.5,104.1,7.2z"/>
				</g>
				<g id="XMLID_643_">
					<g id="XMLID_661_">
						<polygon class="st0" points="107.6,17.9 104.3,18.5 102.4,22.5 107.2,23.3 						"/>
					</g>
					<g id="XMLID_660_">
						<polygon class="st0" points="101.1,23.1 97.5,22.4 95.3,27.3 99.2,27 						"/>
					</g>
					<g id="XMLID_659_">
						<polygon class="st0" points="104.4,16.5 98.9,18.5 102.4,20.5 103.7,17.8 103.7,17.8 103.8,17.8 						"/>
					</g>
					<g id="XMLID_658_">
						<polygon class="st0" points="93.2,27.5 94.4,27.4 96.7,22.3 94.2,21.8 						"/>
					</g>
					<g id="XMLID_657_">
						<polygon class="st0" points="106.9,27.2 99.4,28.4 98.1,31.1 104.5,30.2 104.1,31.1 106.6,30.6 						"/>
					</g>
					<g id="XMLID_656_">
						<path class="st0" d="M109.8,28.2l1.7,0.7c0.1-0.6,0.1-1.1,0.2-1.7c0.1-0.5,0.1-1.1,0.1-1.6L109.8,28.2z"/>
					</g>
					<g id="XMLID_655_">
						<polygon class="st0" points="106.2,36.9 102.8,38.9 102.7,38.8 102.9,43.4 105.7,43.4 						"/>
					</g>
					<g id="XMLID_654_">
						<polygon class="st0" points="103.8,32 102.5,35 102.6,35 102.7,38 106.2,35.9 106.6,31.4 						"/>
					</g>
					<g id="XMLID_653_">
						<polygon class="st0" points="107.1,24.1 102,23.2 99.8,27.5 106.9,26.4 						"/>
					</g>
					<g id="XMLID_652_">
						<polygon class="st0" points="101.8,36.7 99.1,43.4 102.1,43.4 						"/>
					</g>
					<g id="XMLID_651_">
						<polygon class="st0" points="98.8,27.9 93.1,28.4 92.5,31.8 97.1,31.2 						"/>
					</g>
					<g id="XMLID_650_">
						<polygon class="st0" points="101.5,22.3 102.1,21.2 97.9,18.9 94.5,20.1 94.3,21 						"/>
					</g>
					<g id="XMLID_649_">
						<path class="st0" d="M106.8,39l-0.3,4.5l1.1,0c0.6-1.4,1.2-2.9,1.7-4.5H106.8z"/>
					</g>
					<g id="XMLID_648_">
						<path class="st0" d="M107.6,28.1l-0.2,2.6l0.1,0.5l-0.1,0l-0.2,2.6l3.7-1.1c0.2-1,0.4-2,0.5-3L107.6,28.1z"/>
					</g>
					<g id="XMLID_647_">
						<path class="st0" d="M110.7,33.6l-3.6,1l-0.3,3.5h2.6C110,36.7,110.4,35.2,110.7,33.6z"/>
					</g>
					<g id="XMLID_646_">
						<path class="st0" d="M104.8,17.6l5.6-1.2c-0.2-0.6-0.5-1.2-0.8-1.8l-4.2,1.5L104.8,17.6z"/>
					</g>
					<g id="XMLID_645_">
						<path class="st0" d="M107.7,27.3l1.4,0.6l2.8-3.7c0-0.9-0.1-1.9-0.2-2.8l-3.5,0.3L107.7,27.3z"/>
					</g>
					<g id="XMLID_644_">
						<path class="st0" d="M108.4,17.7l-0.2,3.1l3.3-0.3c-0.2-1.1-0.5-2.2-0.8-3.3L108.4,17.7z"/>
					</g>
				</g>
				<g id="XMLID_640_">
					<g id="XMLID_642_">
						<path class="st0" d="M71,25.4l-0.7-4.9l-4.5,1.8c-0.1,0.7-0.1,1.5-0.1,2.2c0,0,0,0.2,0,0.5L71,25.4z"/>
					</g>
					<g id="XMLID_641_">
						<path class="st0" d="M71.1,26.2l-5.3-0.5c0,0,0,0.1,0,0.1c0.1,1.3,0.3,3.5,0.8,6.3l5.2-1L71.1,26.2z"/>
					</g>
				</g>
				<g id="XMLID_637_">
					<g id="XMLID_639_">
						<polygon class="st0" points="77.3,30.9 72.7,31.8 73.5,38.2 						"/>
					</g>
					<g id="XMLID_638_">
						<polygon class="st0" points="78.6,36.8 77.9,31.5 74.4,38.3 						"/>
					</g>
				</g>
				<g id="XMLID_634_">
					<g id="XMLID_636_">
						<path class="st0" d="M79.2,7.4l3.5-3l-0.2-2.2c-1.7,0.5-3.3,1.2-4.8,2L79.2,7.4z"/>
					</g>
					<g id="XMLID_635_">
						<path class="st0" d="M77,4.6c-1.4,0.9-2.8,1.9-4,3l1.2,4.1L78.6,8L77,4.6z"/>
					</g>
				</g>
				<g id="XMLID_631_">
					<g id="XMLID_633_">
						<path class="st0" d="M99.5,4l-4.6,2.5l3.6,2l4.8-1.9C102.2,5.6,100.8,4.7,99.5,4z"/>
					</g>
					<g id="XMLID_632_">
						<path class="st0" d="M98.6,3.5c-1.3-0.6-2.7-1.1-4.1-1.5l-3.9,2L94,6L98.6,3.5z"/>
					</g>
				</g>
				<g id="XMLID_628_">
					<g id="XMLID_630_">
						<polygon class="st0" points="88,12.6 97.5,8.9 89.7,4.6 88.5,5.2 						"/>
					</g>
					<g id="XMLID_629_">
						<polygon class="st0" points="87.5,5.7 83.8,7.6 84.4,14 87,13 						"/>
					</g>
				</g>
				<g id="XMLID_600_">
					<g id="XMLID_627_">
						<polygon class="st0" points="85.6,56.9 86,51.7 82.6,51.6 81.9,56.1 						"/>
					</g>
					<g id="XMLID_626_">
						<polygon class="st0" points="82.7,50.7 88,50.9 88.9,46.6 83.4,46.5 						"/>
					</g>
					<g id="XMLID_625_">
						<polygon class="st0" points="74.4,50.4 81.9,50.7 82.1,49 75.9,47.5 						"/>
					</g>
					<g id="XMLID_624_">
						<polygon class="st0" points="81.8,51.5 78.5,51.4 77.9,53.6 81.4,54.3 						"/>
					</g>
					<g id="XMLID_623_">
						<polygon class="st0" points="88,58.2 81.8,56.9 81.5,59.2 87,60.9 						"/>
					</g>
					<g id="XMLID_622_">
						<path class="st0" d="M73.5,50.4L73.5,50.4l1.6-3.1l-3.8-0.9C71.9,47.7,72.6,49,73.5,50.4z"/>
					</g>
					<g id="XMLID_621_">
						<polygon class="st0" points="89.7,60.7 90.5,58.8 88.8,58.4 88.2,59.9 						"/>
					</g>
					<g id="XMLID_620_">
						<path class="st0" d="M77.2,56c1,1.3,2.1,2.6,3.3,3.9l0.7-4.8l-3.6-0.7L77.2,56z"/>
					</g>
					<g id="XMLID_619_">
						<polygon class="st0" points="94.6,46.6 99,49.2 102.3,46.7 						"/>
					</g>
					<g id="XMLID_618_">
						<polygon class="st0" points="86.8,51.7 86.4,57.1 89.7,57.8 89.6,51.8 						"/>
					</g>
					<g id="XMLID_617_">
						<path class="st0" d="M88,60.7l-1.6,4.5L86,65c0.2,0.2,0.4,0.4,0.7,0.5l4.2-3.3L88,60.7z"/>
					</g>
					<g id="XMLID_616_">
						<polygon class="st0" points="101.2,51.4 96.9,48.8 95.7,51.2 						"/>
					</g>
					<g id="XMLID_615_">
						<polygon class="st0" points="88.8,51 94.8,51.2 96.2,48.4 93.1,46.6 89.7,46.6 						"/>
					</g>
					<g id="XMLID_614_">
						<path class="st0" d="M77.7,51.4L74,51.2c0.8,1.3,1.7,2.6,2.7,3.9L77.7,51.4z"/>
					</g>
					<g id="XMLID_613_">
						<path class="st0" d="M75.4,46.5l3.2-6.2L70,43.4c0.3,0.7,0.6,1.3,0.9,2L75.4,46.5z"/>
					</g>
					<g id="XMLID_612_">
						<polygon class="st0" points="79.1,40.1 79.1,40.1 79.1,40.1 						"/>
					</g>
					<g id="XMLID_611_">
						<polygon class="st0" points="76.2,46.7 82.3,48.2 82.5,46.5 80.1,46.4 79.2,40.8 						"/>
					</g>
					<g id="XMLID_610_">
						<path class="st0" d="M103.7,46.7l-4,3l3,1.8l0.6,0c0.9-1.5,1.9-3.1,2.7-4.7L103.7,46.7z"/>
					</g>
					<g id="XMLID_609_">
						<path class="st0" d="M86.7,61.7L81.3,60l-0.1,0.6c1.3,1.4,2.8,2.8,4.4,4.1L86.7,61.7z"/>
					</g>
					<g id="XMLID_608_">
						<path class="st0" d="M95.2,59.8l-2.9,2.3l1.6,0.8c0.9-0.8,1.8-1.8,2.8-2.8L95.2,59.8z"/>
					</g>
					<g id="XMLID_607_">
						<polygon class="st0" points="95.2,56.9 92.5,51.9 90.4,51.8 90.5,57.9 94.5,58.8 						"/>
					</g>
					<g id="XMLID_606_">
						<polygon class="st0" points="91.3,59 90.4,61.1 91.5,61.7 94.2,59.6 						"/>
					</g>
					<g id="XMLID_605_">
						<path class="st0" d="M88.5,65.1l-1.2,1c0.4,0.3,0.7,0.6,1.1,0.9L88.5,65.1z"/>
					</g>
					<g id="XMLID_604_">
						<path class="st0" d="M93.3,63.5l-1.6-0.9l-2.4,1.9l0.1,0l-0.1,2.3C90,66.3,91.4,65.2,93.3,63.5z"/>
					</g>
					<g id="XMLID_603_">
						<path class="st0" d="M97.9,52.1l-0.8,2l2.6,2.4c1-1.3,2.1-2.7,3.1-4.2L97.9,52.1z"/>
					</g>
					<g id="XMLID_602_">
						<path class="st0" d="M99.2,57.2l-2.4-2.3l-1.6,4l2,0.4C97.9,58.7,98.6,58,99.2,57.2z"/>
					</g>
					<g id="XMLID_601_">
						<polygon class="st0" points="97.1,52.1 93.4,52 95.6,55.9 						"/>
					</g>
				</g>
				<g id="XMLID_597_">
					<g id="XMLID_599_">
						<polygon class="st0" points="98.2,15.2 103.5,13.3 101.6,8.2 97.1,9.9 						"/>
					</g>
					<g id="XMLID_598_">
						<polygon class="st0" points="96.3,10.2 92.1,11.9 95.8,16.1 97.4,15.5 						"/>
					</g>
				</g>
				<g id="XMLID_594_">
					<g id="XMLID_596_">
						<polygon class="st0" points="93,17.1 95,16.4 91.3,12.2 87,13.9 						"/>
					</g>
					<g id="XMLID_595_">
						<polygon class="st0" points="86,14.2 84.4,14.9 84.9,20.1 91.9,17.5 						"/>
					</g>
				</g>
				<g id="XMLID_591_">
					<g id="XMLID_593_">
						<polygon class="st0" points="81.1,15.3 77.1,10.3 74.4,12.6 74.4,12.5 75.7,17.4 77.1,16.9 77.1,16.8 77.5,16.7 						"/>
					</g>
					<g id="XMLID_592_">
						<polygon class="st0" points="81.9,15 83.6,14.3 82.8,5.4 77.8,9.8 						"/>
					</g>
				</g>
			</g>
		</g>
		<polygon id="XMLID_8077_" class="st0" points="79.4,25.3 82,43.2 94.5,43.3 98.2,34.6 87.9,35.6 89.8,21.5 		"/>
	</g>
</g>
<g>
	<g>
		<linearGradient id="XMLID_4_" gradientUnits="userSpaceOnUse" x1="-414.9437" y1="220.5315" x2="-373.8776" y2="179.4654">
			<stop  offset="0" style="stop-color:#F05A44"/>
			<stop  offset="1" style="stop-color:#613E97"/>
		</linearGradient>
		<path id="XMLID_5189_" class="st4" d="M-390.2,207.7c2.2,2.2,2.2,5.8,0,8.1c-1.1,1.1-2.6,1.7-4.1,1.7h-2.2c-1,0-2.2,0.6-2.8,1.2
			c-0.6,0.6-1.2,1.6-1.2,2.8v1.6c0.2,1.6-0.4,3.3-1.6,4.6c-2.2,2.2-5.8,2.2-8.1,0c-2.2-2.2-2.2-5.8,0-8.1c1.3-1.3,2.9-1.8,4.6-1.6
			h1.6c1.2,0,2.2-0.6,2.8-1.2c0.6-0.6,1.2-1.7,1.2-2.8v-2.2c0-1.5,0.5-3,1.7-4.1C-396,205.4-392.4,205.4-390.2,207.7z M-412.3,209.5
			c0-1.2,0.7-2.2,1.2-2.8c0.6-0.6,1.7-1.2,2.8-1.2h1.5c1.7,0.2,3.4-0.3,4.7-1.6c2.2-2.2,2.2-5.8,0-8.1c-1.1-1.1-2.6-1.7-4.1-1.7
			h-2.1c-1.1,0-2.2-0.6-2.8-1.2c-0.6-0.6-1.2-1.6-1.2-2.8v-1.6c0.2-1.6-0.4-3.3-1.6-4.6c-2.2-2.2-5.8-2.2-8.1,0
			c-2.2,2.2-2.2,5.8,0,8.1c1.3,1.3,2.9,1.8,4.6,1.6h1.6c1.2,0,2.2,0.7,2.8,1.2c0.6,0.6,1.2,1.7,1.2,2.8v1.9c0,0.2,0,0.3,0,0.5v2
			c0,1.1-0.6,2.2-1.2,2.8c-0.6,0.6-1.6,1.2-2.8,1.2h-2.2l0,0c-1.5,0-2.9,0.6-4,1.7c-2.2,2.2-2.2,5.8,0,8.1c2.2,2.2,5.8,2.2,8.1,0
			c1.2-1.2,1.7-2.9,1.6-4.4V209.5z M-370.5,206L-370.5,206l-2.2,0c-1.1,0-2.2-0.6-2.8-1.2c-0.6-0.6-1.2-1.6-1.2-2.8v-1.7
			c0-0.4,0-0.7,0-1.1v-1.5c0-1.2,0.7-2.2,1.2-2.8c0.6-0.6,1.7-1.2,2.8-1.2h2.2l0,0c1.5,0,2.9-0.5,4.1-1.7c2.2-2.2,2.2-5.8,0-8.1
			c-2.2-2.2-5.8-2.2-8.1,0c-1.1,1.1-1.7,2.6-1.7,4.1l0,0v2.2c0,1.1-0.6,2.2-1.2,2.8c-0.6,0.6-1.6,1.2-2.8,1.2h-1.5
			c-1.7-0.2-3.4,0.3-4.6,1.6c-2.2,2.2-2.2,5.8,0,8.1c1.3,1.3,3,1.8,4.7,1.6h1.5c1.2,0,2.2,0.7,2.8,1.2c0.6,0.6,1.2,1.7,1.2,2.8v2.1
			c0,1.5,0.5,3,1.7,4.2c2.2,2.2,5.8,2.2,8.1,0c2.2-2.2,2.2-5.8,0-8.1C-367.6,206.5-369,206-370.5,206z M-386.4,219.5
			c-2.2,2.2-2.2,5.8,0,8.1c2.2,2.2,5.8,2.2,8.1,0c2.2-2.2,2.2-5.8,0-8.1C-380.6,217.3-384.2,217.3-386.4,219.5z M-402.1,180.1
			c2.2-2.2,2.2-5.8,0-8.1c-2.2-2.2-5.8-2.2-8.1,0c-2.2,2.2-2.2,5.8,0,8.1C-407.9,182.4-404.3,182.4-402.1,180.1z M-390.2,192
			c1.3-1.3,1.8-3,1.6-4.6v-1.6c0-1.2,0.7-2.2,1.2-2.8c0.6-0.6,1.7-1.2,2.8-1.2h2.1c1.5,0,3-0.5,4.2-1.7c2.2-2.2,2.2-5.8,0-8.1
			c-2.2-2.2-5.8-2.2-8.1,0c-1.1,1.1-1.7,2.6-1.7,4l0,0v2.2c0,1.1-0.6,2.2-1.2,2.8c-0.6,0.6-1.6,1.2-2.8,1.2h-1.8
			c-1.6-0.1-3.2,0.4-4.4,1.6c-2.2,2.2-2.2,5.8,0,8.1C-396.1,194.2-392.4,194.2-390.2,192z"/>
	</g>
	<rect id="XMLID_5188_" x="-483" y="165.7" class="st1" width="177.6" height="68.3"/>
</g>
<g>
	<rect id="XMLID_5184_" x="-245.9" y="165.7" class="st1" width="177.6" height="68.3"/>
	<g>
		<g>
			<g>
				<polygon class="st5" points="-136.9,193.1 -141.8,193.1 -141.8,206.7 -132.5,206.7 -132.5,202.3 -136.9,202.3 -136.9,193.1 				
					"/>
				<path class="st5" d="M-147.2,202.3v-9.2h-4.9l0,4.7l-7,4.4l-1.4-0.8l7-4.4l-3.1-2l-7,4.4l-1.2-0.8l7-4.4l-3.1-2l-7.9,5
					c-1.1-2.9-4-4.1-7.5-4.1h-5.4v13.6h6.6c3.1,0,5.5-1.6,6.4-4.2l7.9,5l8.8-5.5l0,4.8h9.3v-4.4H-147.2L-147.2,202.3z M-176.3,202.6
					h-0.7v-5.3h0.7c1.8,0,2.9,0.8,2.9,2.7C-173.4,201.9-174.7,202.6-176.3,202.6L-176.3,202.6z"/>
			</g>
		</g>
		<circle class="st6" cx="-157.1" cy="199.8" r="31"/>
	</g>
</g>
<g>
	<rect id="XMLID_5181_" x="-0.9" y="165.7" class="st1" width="177.6" height="68.3"/>
	<g>
		<g id="XMLID_678_">
			<g>
				<g id="XMLID_753_">
					<path class="st7" d="M74.1,183.4l-0.7-2.6l-7.1,1.2c-0.6,1.6-1,3.2-1.2,4.9L74.1,183.4z"/>
				</g>
				<g id="XMLID_752_">
					<polygon class="st7" points="82.8,180.9 77.2,183.1 78.2,187.9 83.2,186 					"/>
				</g>
				<g id="XMLID_751_">
					<path class="st7" d="M73.2,180l-1.7-6.1c-2,2.1-3.6,4.5-4.8,7.2L73.2,180z"/>
				</g>
				<g id="XMLID_750_">
					<polygon class="st7" points="71.7,196.6 76.8,195.7 76.1,190.8 71.1,192.5 					"/>
				</g>
				<g id="XMLID_748_">
					<polygon class="st7" points="70.3,185.8 71,191.7 76,190 75.8,188.8 77.4,188.2 76.4,183.4 					"/>
				</g>
				<g id="XMLID_747_">
					<path class="st7" d="M82.9,172.4l9.5-4.9c-1.4-0.3-2.9-0.4-4.4-0.4c-1.9,0-3.7,0.2-5.5,0.7L82.9,172.4z"/>
				</g>
				<g id="XMLID_746_">
					<path class="st7" d="M71.9,204.5l-0.9-6.9l-5.1,1c0.4,2.2,1.1,4.7,2,7.4l4.4-1.6L71.9,204.5z"/>
				</g>
				<g id="XMLID_745_">
					<path class="st7" d="M103.2,172.8l-1.7,0.7l1.9,5.2l3.7-1.4C106,175.7,104.7,174.2,103.2,172.8z"/>
				</g>
				<g id="XMLID_726_">
					<g id="XMLID_744_">
						<polygon class="st7" points="106.7,183.5 103.5,184.2 101.5,188.1 106.3,189 						"/>
					</g>
					<g id="XMLID_743_">
						<polygon class="st7" points="100.3,188.8 96.6,188.1 94.5,193 98.3,192.7 						"/>
					</g>
					<g id="XMLID_742_">
						<polygon class="st7" points="103.5,182.2 98.1,184.2 101.6,186.1 102.9,183.5 102.9,183.5 102.9,183.5 						"/>
					</g>
					<g id="XMLID_741_">
						<polygon class="st7" points="92.3,193.2 93.5,193.1 95.8,188 93.3,187.5 						"/>
					</g>
					<g id="XMLID_740_">
						<polygon class="st7" points="106,192.9 98.5,194.1 97.2,196.8 103.6,195.9 103.3,196.8 105.8,196.2 						"/>
					</g>
					<g id="XMLID_739_">
						<path class="st7" d="M109,193.9l1.7,0.7c0.1-0.6,0.1-1.1,0.2-1.7c0.1-0.5,0.1-1.1,0.1-1.6L109,193.9z"/>
					</g>
					<g id="XMLID_738_">
						<polygon class="st7" points="105.3,202.5 101.9,204.6 101.9,204.5 102.1,209.1 104.8,209.1 						"/>
					</g>
					<g id="XMLID_737_">
						<polygon class="st7" points="102.9,197.7 101.6,200.7 101.7,200.7 101.8,203.7 105.4,201.5 105.7,197.1 						"/>
					</g>
					<g id="XMLID_736_">
						<polygon class="st7" points="106.2,189.8 101.1,188.9 99,193.2 106.1,192.1 						"/>
					</g>
					<g id="XMLID_735_">
						<polygon class="st7" points="101,202.4 98.2,209 101.3,209.1 						"/>
					</g>
					<g id="XMLID_734_">
						<polygon class="st7" points="97.9,193.6 92.2,194 91.6,197.5 96.2,196.9 						"/>
					</g>
					<g id="XMLID_733_">
						<polygon class="st7" points="100.7,188 101.2,186.9 97,184.6 93.6,185.8 93.5,186.7 						"/>
					</g>
					<g id="XMLID_732_">
						<path class="st7" d="M106,204.7l-0.3,4.5l1.1,0c0.6-1.4,1.2-2.9,1.7-4.5H106z"/>
					</g>
					<g id="XMLID_731_">
						<path class="st7" d="M106.8,193.8l-0.2,2.6l0.1,0.5l-0.1,0l-0.2,2.6l3.7-1.1c0.2-1,0.4-2,0.5-3L106.8,193.8z"/>
					</g>
					<g id="XMLID_730_">
						<path class="st7" d="M109.9,199.3l-3.6,1l-0.3,3.5h2.6C109.1,202.4,109.5,200.9,109.9,199.3z"/>
					</g>
					<g id="XMLID_729_">
						<path class="st7" d="M103.9,183.3l5.6-1.2c-0.2-0.6-0.5-1.2-0.8-1.8l-4.2,1.5L103.9,183.3z"/>
					</g>
					<g id="XMLID_728_">
						<path class="st7" d="M106.8,192.9l1.4,0.6l2.8-3.7c0-0.9-0.1-1.9-0.2-2.8l-3.5,0.3L106.8,192.9z"/>
					</g>
					<g id="XMLID_727_">
						<path class="st7" d="M107.5,183.4l-0.2,3.1l3.3-0.3c-0.2-1.1-0.5-2.2-0.8-3.3L107.5,183.4z"/>
					</g>
				</g>
				<g id="XMLID_723_">
					<g id="XMLID_725_">
						<path class="st7" d="M70.1,191l-0.7-4.9l-4.5,1.8c-0.1,0.7-0.1,1.5-0.1,2.2c0,0,0,0.2,0,0.5L70.1,191z"/>
					</g>
					<g id="XMLID_724_">
						<path class="st7" d="M70.2,191.9l-5.3-0.5c0,0,0,0.1,0,0.1c0.1,1.3,0.3,3.5,0.8,6.3l5.2-1L70.2,191.9z"/>
					</g>
				</g>
				<g id="XMLID_720_">
					<g id="XMLID_722_">
						<polygon class="st7" points="76.4,196.6 71.8,197.4 72.6,203.8 						"/>
					</g>
					<g id="XMLID_721_">
						<polygon class="st7" points="77.8,202.4 77,197.2 73.5,204 						"/>
					</g>
				</g>
				<g id="XMLID_717_">
					<g id="XMLID_719_">
						<path class="st7" d="M78.3,173.1l3.5-3l-0.2-2.2c-1.7,0.5-3.3,1.2-4.8,2L78.3,173.1z"/>
					</g>
					<g id="XMLID_718_">
						<path class="st7" d="M76.1,170.3c-1.4,0.9-2.8,1.9-4,3l1.2,4.1l4.4-3.8L76.1,170.3z"/>
					</g>
				</g>
				<g id="XMLID_714_">
					<g id="XMLID_716_">
						<path class="st7" d="M98.6,169.7l-4.6,2.5l3.6,2l4.8-1.9C101.3,171.3,100,170.4,98.6,169.7z"/>
					</g>
					<g id="XMLID_715_">
						<path class="st7" d="M97.7,169.2c-1.3-0.6-2.7-1.1-4.1-1.5l-3.9,2l3.5,1.9L97.7,169.2z"/>
					</g>
				</g>
				<g id="XMLID_711_">
					<g id="XMLID_713_">
						<polygon class="st7" points="87.1,178.3 96.7,174.5 88.8,170.2 87.6,170.9 						"/>
					</g>
					<g id="XMLID_712_">
						<polygon class="st7" points="86.7,171.4 83,173.3 83.5,179.7 86.1,178.7 						"/>
					</g>
				</g>
				<g id="XMLID_683_">
					<g id="XMLID_710_">
						<polygon class="st7" points="84.8,222.6 85.1,217.4 81.7,217.2 81.1,221.8 						"/>
					</g>
					<g id="XMLID_709_">
						<polygon class="st7" points="81.9,216.4 87.1,216.6 88,212.2 82.5,212.2 						"/>
					</g>
					<g id="XMLID_708_">
						<polygon class="st7" points="73.5,216.1 81,216.4 81.3,214.7 75,213.2 						"/>
					</g>
					<g id="XMLID_707_">
						<polygon class="st7" points="80.9,217.2 77.7,217.1 77,219.3 80.5,220 						"/>
					</g>
					<g id="XMLID_706_">
						<polygon class="st7" points="87.1,223.9 80.9,222.6 80.6,224.9 86.2,226.6 						"/>
					</g>
					<g id="XMLID_705_">
						<path class="st7" d="M72.6,216.1L72.6,216.1l1.6-3.1l-3.8-0.9C71.1,213.4,71.8,214.7,72.6,216.1z"/>
					</g>
					<g id="XMLID_704_">
						<polygon class="st7" points="88.8,226.4 89.6,224.5 87.9,224.1 87.4,225.6 						"/>
					</g>
					<g id="XMLID_703_">
						<path class="st7" d="M76.4,221.7c1,1.3,2.1,2.6,3.3,3.9l0.7-4.8l-3.6-0.7L76.4,221.7z"/>
					</g>
					<g id="XMLID_702_">
						<polygon class="st7" points="93.7,212.3 98.1,214.9 101.5,212.4 						"/>
					</g>
					<g id="XMLID_701_">
						<polygon class="st7" points="85.9,217.4 85.6,222.7 88.8,223.4 88.7,217.5 						"/>
					</g>
					<g id="XMLID_700_">
						<path class="st7" d="M87.1,226.4l-1.6,4.5l-0.4-0.1c0.2,0.2,0.4,0.4,0.7,0.5l4.2-3.3L87.1,226.4z"/>
					</g>
					<g id="XMLID_699_">
						<polygon class="st7" points="100.4,217.1 96,214.5 94.8,216.9 						"/>
					</g>
					<g id="XMLID_698_">
						<polygon class="st7" points="87.9,216.6 94,216.9 95.3,214.1 92.3,212.3 88.8,212.2 						"/>
					</g>
					<g id="XMLID_697_">
						<path class="st7" d="M76.8,217.1l-3.7-0.1c0.8,1.3,1.7,2.6,2.7,3.9L76.8,217.1z"/>
					</g>
					<g id="XMLID_696_">
						<path class="st7" d="M74.6,212.2l3.2-6.2l-8.6,3.1c0.3,0.7,0.6,1.3,0.9,2L74.6,212.2z"/>
					</g>
					<g id="XMLID_695_">
						<polygon class="st7" points="78.3,205.8 78.3,205.8 78.3,205.8 						"/>
					</g>
					<g id="XMLID_694_">
						<polygon class="st7" points="75.4,212.4 81.4,213.9 81.7,212.2 79.2,212.1 78.4,206.5 						"/>
					</g>
					<g id="XMLID_693_">
						<path class="st7" d="M102.8,212.4l-4,3l3,1.8l0.6,0c0.9-1.5,1.9-3.1,2.7-4.7L102.8,212.4z"/>
					</g>
					<g id="XMLID_692_">
						<path class="st7" d="M85.9,227.4l-5.4-1.6l-0.1,0.6c1.3,1.4,2.8,2.8,4.4,4.1L85.9,227.4z"/>
					</g>
					<g id="XMLID_691_">
						<path class="st7" d="M94.3,225.5l-2.9,2.3l1.6,0.8c0.9-0.8,1.8-1.8,2.8-2.8L94.3,225.5z"/>
					</g>
					<g id="XMLID_690_">
						<polygon class="st7" points="94.4,222.6 91.6,217.6 89.5,217.5 89.6,223.6 93.6,224.5 						"/>
					</g>
					<g id="XMLID_689_">
						<polygon class="st7" points="90.4,224.6 89.5,226.8 90.7,227.4 93.3,225.3 						"/>
					</g>
					<g id="XMLID_688_">
						<path class="st7" d="M87.6,230.8l-1.2,1c0.4,0.3,0.7,0.6,1.1,0.9L87.6,230.8z"/>
					</g>
					<g id="XMLID_687_">
						<path class="st7" d="M92.4,229.2l-1.6-0.9l-2.4,1.9l0.1,0l-0.1,2.3C89.1,232,90.6,230.9,92.4,229.2z"/>
					</g>
					<g id="XMLID_686_">
						<path class="st7" d="M97.1,217.8l-0.8,2l2.6,2.4c1-1.3,2.1-2.7,3.1-4.2L97.1,217.8z"/>
					</g>
					<g id="XMLID_685_">
						<path class="st7" d="M98.3,222.9l-2.4-2.3l-1.6,4l2,0.4C97.1,224.4,97.7,223.7,98.3,222.9z"/>
					</g>
					<g id="XMLID_684_">
						<polygon class="st7" points="96.2,217.8 92.6,217.6 94.7,221.6 						"/>
					</g>
				</g>
				<g id="XMLID_680_">
					<g id="XMLID_682_">
						<polygon class="st7" points="97.4,180.9 102.6,179 100.7,173.8 96.2,175.6 						"/>
					</g>
					<g id="XMLID_681_">
						<polygon class="st7" points="95.4,175.9 91.3,177.5 94.9,181.8 96.6,181.2 						"/>
					</g>
				</g>
				<g id="XMLID_676_">
					<g id="XMLID_679_">
						<polygon class="st7" points="92.1,182.8 94.1,182.1 90.4,177.9 86.2,179.5 						"/>
					</g>
					<g id="XMLID_677_">
						<polygon class="st7" points="85.2,179.9 83.6,180.6 84,185.8 91.1,183.2 						"/>
					</g>
				</g>
				<g id="XMLID_673_">
					<g id="XMLID_675_">
						<polygon class="st7" points="80.3,181 76.3,176 73.6,178.3 73.5,178.2 74.9,183.1 76.2,182.6 76.2,182.5 76.7,182.4 						"/>
					</g>
					<g id="XMLID_674_">
						<polygon class="st7" points="81.1,180.7 82.7,180 81.9,171.1 76.9,175.5 						"/>
					</g>
				</g>
			</g>
		</g>
		<polygon id="XMLID_1_" class="st8" points="78.5,190.9 81.2,208.8 93.7,209 97.3,200.3 87,201.3 89,187.2 		"/>
	</g>
</g>
</svg>
