<?xml version="1.0" encoding="utf-8"?>
<!-- Generator: Adobe Illustrator 21.0.2, SVG Export Plug-In . SVG Version: 6.00 Build 0)  -->
<svg version="1.1" id="Branding" xmlns="http://www.w3.org/2000/svg" xmlns:xlink="http://www.w3.org/1999/xlink" x="0px" y="0px"
	 viewBox="0 0 210 209.6" style="enable-background:new 0 0 210 209.6;" xml:space="preserve">
<style type="text/css">
	.st0{fill:#FFF0CD;}
	.st1{fill:#FFFFE6;}
	.st2{fill:none;stroke:#F49782;stroke-width:3;stroke-linecap:round;stroke-linejoin:round;stroke-miterlimit:10;}
	.st3{fill:#F49782;}
	.st4{fill-rule:evenodd;clip-rule:evenodd;fill:#F49782;}
</style>
<g id="XMLID_2351_">
	<path id="XMLID_2428_" class="st0" d="M129.3,176.4c-0.3,9.4-7.3,13.6-14,16.9c-7,3.4-14.2,5.9-14.5,15.4c0.3-9-6.9-12.7-13.5-16.7
		c-6.1-3.7-12.5-7.5-12.5-16.1c0-0.4-0.3-1.4,0-1.2C100.2,186.5,129.3,176.4,129.3,176.4z"/>
	<path id="XMLID_2426_" class="st0" d="M80.5,33.6c-0.4,0.2,0-0.8,0.1-1.2c0.6-8.5,7.2-11.9,13.6-15.2c6.8-3.5,14.2-6.6,14.6-15.7
		c-0.4,9.5,6.7,12.5,13.4,16.4c6.5,3.7,13.2,8.4,12.8,17.8C135,35.7,106.6,23.6,80.5,33.6z"/>
	<path id="XMLID_2424_" class="st0" d="M136.6,36.9c-0.4-0.2,0.6-0.6,0.9-0.8c6.5-5.6,13.6-3.3,20.4-1.1c7.2,2.3,14.8,5.4,21.4-0.7
		c-7,6.4-4.1,13.6-2.2,21c1.9,7.2,3.3,15.3-3.6,21.6C173.5,76.9,162.1,48.3,136.6,36.9z"/>
	<path id="XMLID_2422_" class="st0" d="M175.7,79.3c-0.2-0.4,0.8,0,1.2,0c8.6,0.5,12,7.1,15.4,13.4c3.6,6.7,6.9,14.1,15.9,14.4
		c-9.5-0.2-12.4,6.9-16.2,13.6c-3.7,6.5-8.3,13.3-17.7,13C174.3,133.7,186.1,105.2,175.7,79.3z"/>
	<path id="XMLID_2420_" class="st0" d="M172.3,137.1c0.2-0.4,0.6,0.6,0.9,0.9c5.9,6.3,3.9,13.4,1.9,20.3c-2,7.3-4.8,15,1.6,21.3
		c-6.7-6.7-13.7-3.6-21.2-1.3c-7.2,2.2-15.1,3.9-21.8-2.7C133.8,175.6,162,163,172.3,137.1z"/>
	<path id="XMLID_2418_" class="st0" d="M35.6,77.3c-6.9-6.4-5.5-14.4-3.6-21.6c2-7.5,4.8-14.6-2.2-21c6.7,6.1,14.2,3.1,21.4,0.7
		c6.8-2.2,13.9-4.5,20.4,1.1c0.3,0.3,1.3,0.7,0.9,0.8C47,48.7,35.6,77.3,35.6,77.3z"/>
	<path id="XMLID_2416_" class="st0" d="M34.9,134.1c-9.4,0.2-14-6.5-17.7-13c-3.8-6.8-6.7-13.9-16.2-13.6
		c9.1-0.2,12.3-7.6,15.9-14.4c3.4-6.3,6.8-12.9,15.4-13.4c0.4,0,1.4-0.4,1.2,0C23.1,105.6,34.9,134.1,34.9,134.1z"/>
	<path id="XMLID_2414_" class="st0" d="M73.6,171.7c-6.7,6.7-14.7,4.9-21.8,2.7c-7.4-2.3-14.4-5.4-21.2,1.3c6.4-6.4,3.7-14,1.6-21.3
		c-1.9-6.9-3.9-14,1.9-20.3c0.3-0.3,0.7-1.3,0.9-0.9C45.4,159.2,73.6,171.7,73.6,171.7z"/>
	<path id="XMLID_2413_" class="st1" d="M98.8,161.3c-32.3,0-58.6-26.2-58.6-58.5s26.2-58.5,58.6-58.5c0,0-39.9,17.9-37.6,59.8
		C63.5,146.8,98.8,161.3,98.8,161.3z"/>
	<path id="XMLID_2412_" class="st2" d="M192.2,90.6c-3.7-6.5-7.5-13.3-17-13l-2-2.9c6.7-6.7,5-14.6,2.7-21.8
		c-2.3-7.4-5.4-14.4,1.3-21.1c-6.4,6.4-14.1,3.7-21.4,1.6c-7.2-2-14.7-4.1-21.2,2.8l0.2,0.2c-1.4-0.6-2.7-1.7-2.7-1.7
		c0-9.4-6.9-13.8-13.5-17.3c-6.9-3.6-14-6.4-14-15.9c0,9-7.4,12.5-14,16.2c-6.5,3.7-13.3,7.5-13,16.9c0,0-1.3,1-2.6,1.6l0.1-0.1
		c-6.5-6.9-14-4.8-21.2-2.8c-7.3,2-15,4.8-21.4-1.6c6.7,6.7,3.6,13.7,1.3,21.1C31.7,60,30,68,36.6,74.6c-0.7,1.5-1.9,3-1.9,3
		c-9.5-0.3-13.3,6.5-17,13c-3.7,6.6-7.2,14-16.3,14c9.5,0,12.3,7.2,15.9,14c3.5,6.6,7.9,13.5,17.4,13.5c0,0,1.2,1.5,1.9,3
		c-6.8,6.5-4.7,13.9-2.7,21.1c2,7.3,4.8,15-1.6,21.4c6.7-6.7,13.7-3.6,21.2-1.3c7.2,2.2,15.1,3.9,21.8-2.7l-0.1-0.1
		c1.3,0.6,2.5,1.6,2.5,1.6c-0.3,9.5,6.5,13.3,13,16.9c6.6,3.7,14,7.2,14,16.2c0-9.5,7.2-12.2,14-15.9c6.6-3.5,13.5-7.9,13.5-17.3
		c0,0,1.5-1.2,3-1.9c6.6,6.5,14.6,4.8,21.7,2.6c7.4-2.3,14.5-5.4,21.2,1.3c-6.4-6.4-3.7-14-1.6-21.4c2-7.2,4.1-14.7-2.8-21.2
		l1.5-2.4c9.4,0,13.9-6.8,17.4-13.5c3.6-6.9,6.4-14,15.9-14C199.4,104.6,195.9,97.2,192.2,90.6z"/>
	<path id="XMLID_2410_" class="st2" d="M175.2,77.6c9.5-0.3,13.3,6.5,17,13c3.7,6.6,7.2,14,16.3,14c-9.5,0-12.3,7.2-15.9,14
		c-3.5,6.6-7.9,13.5-17.4,13.5"/>
	<path id="XMLID_2408_" class="st2" d="M34.7,132c-9.4,0-13.9-6.8-17.4-13.5c-3.6-6.9-6.4-14-15.9-14c9.1,0,12.5-7.3,16.3-14
		c3.7-6.5,7.5-13.3,17-13"/>
	<path id="XMLID_2406_" class="st2" d="M77.7,34.7c-0.3-9.5,6.5-13.3,13-16.9c6.6-3.7,14-7.2,14-16.2c0,9.5,7.2,12.2,14,15.9
		c6.6,3.5,13.5,7.9,13.5,17.3"/>
	<path id="XMLID_2404_" class="st2" d="M132.3,175c0,9.4-6.9,13.8-13.5,17.3c-6.9,3.6-14,6.4-14,15.9c0-9-7.4-12.5-14-16.2
		c-6.5-3.7-13.3-7.5-13-16.9"/>
	<path id="XMLID_2402_" class="st2" d="M134.7,36.2c6.5-6.9,14-4.8,21.2-2.8c7.3,2,15,4.8,21.4-1.6c-6.7,6.7-3.6,13.7-1.3,21.1
		c2.2,7.1,3.9,15.1-2.7,21.8"/>
	<path id="XMLID_2400_" class="st2" d="M75.3,173.5c-6.7,6.7-14.7,5-21.8,2.7c-7.4-2.3-14.5-5.4-21.2,1.3c6.4-6.4,3.7-14,1.6-21.4
		c-2-7.2-4.1-14.7,2.8-21.2"/>
	<path id="XMLID_2398_" class="st2" d="M36.7,74.7C30,68,31.7,60,33.9,52.9c2.3-7.4,5.4-14.4-1.3-21.1c6.4,6.4,14.1,3.7,21.4,1.6
		c7.2-2,14.7-4.1,21.2,2.8"/>
	<path id="XMLID_2396_" class="st2" d="M173.7,134.5c6.9,6.5,4.8,14,2.8,21.2c-2,7.3-4.8,15,1.6,21.4c-6.7-6.7-13.7-3.6-21.2-1.3
		c-7.2,2.2-15.1,3.9-21.8-2.7"/>
	<path id="XMLID_2392_" class="st3" d="M119.6,84.4H88.2l2.2,4.1h20.5v4.6c0,0-10.9-1.9-15,3.4c-3.2,4.1-2.1,14.8,2.9,18.1
		s10.8,1.6,10.8,1.6c0.5,0,1,0,1.4,0v4.7c0,2.4,1.9,4.3,4.3,4.3l0,0V120v-12.4v-0.4V96.2c0-0.1,0-0.2,0-0.3v-7.5h6.6L119.6,84.4z
		 M110.7,97.8v13l-9.6-11.9C104.7,96.5,110.7,97.8,110.7,97.8z M98.5,105.7c-0.3-2.4,0.2-4.1,1-5.3l9.3,11.8
		C105.6,113,99.4,113.5,98.5,105.7z"/>
	<path id="XMLID_2355_" class="st4" d="M105,37.5l0.6,1.7l1.8,0.1l-1.4,1.1l0.5,1.7l-1.5-1l-1.5,1l0.5-1.7l-1.4-1.1l1.8-0.1
		L105,37.5L105,37.5z M116.7,38.6l0.3,1.7l1.7,0.4l-1.6,0.8l0.2,1.8l-1.3-1.2l-1.6,0.7l0.8-1.6l-1.2-1.3l1.8,0.3L116.7,38.6
		L116.7,38.6z M128,41.6l0,1.8l1.7,0.7l-1.7,0.5l-0.1,1.8l-1-1.4l-1.7,0.4l1-1.4l-0.9-1.5l1.7,0.5L128,41.6L128,41.6z M138.7,46.5
		l-0.3,1.7l1.5,1l-1.7,0.2l-0.4,1.7l-0.8-1.6l-1.8,0.1l1.3-1.2l-0.7-1.7l1.6,0.8L138.7,46.5L138.7,46.5z M148.3,53.3l-0.6,1.7
		l1.3,1.2l-1.8-0.1l-0.7,1.6L146,56l-1.8-0.2l1.5-1l-0.4-1.7l1.4,1.1L148.3,53.3L148.3,53.3z M156.6,61.6l-0.9,1.5l1.1,1.4l-1.7-0.4
		l-1,1.5l-0.2-1.8l-1.7-0.5l1.6-0.7l-0.1-1.8l1.2,1.3L156.6,61.6L156.6,61.6z M163.4,71.2l-1.1,1.4l0.8,1.6l-1.6-0.7l-1.2,1.3
		l0.1-1.8l-1.6-0.8l1.7-0.4l0.3-1.8l0.9,1.5L163.4,71.2L163.4,71.2z M168.3,81.8l-1.4,1.1l0.5,1.7l-1.5-0.9l-1.4,1L165,83l-1.4-1.1
		l1.8-0.1l0.6-1.7l0.7,1.6L168.3,81.8L168.3,81.8z M171.4,93.1l-1.5,0.9l0.2,1.8l-1.3-1.2l-1.6,0.8l0.7-1.6l-1.2-1.3l1.8,0.2
		l0.8-1.6l0.4,1.7L171.4,93.1L171.4,93.1z M172.4,104.8l-1.7,0.6l-0.1,1.8l-1.1-1.4l-1.7,0.5l1-1.5l-1-1.5l1.7,0.5l1.1-1.4l0.1,1.8
		L172.4,104.8L172.4,104.8z M171.4,116.5l-1.7,0.3l-0.4,1.7l-0.8-1.6l-1.8,0.2l1.2-1.3l-0.7-1.6l1.6,0.8l1.3-1.2l-0.2,1.7
		L171.4,116.5L171.4,116.5z M168.3,127.8l-1.8,0l-0.7,1.7l-0.5-1.7l-1.8-0.1l1.4-1l-0.4-1.7l1.4,1l1.5-0.9l-0.6,1.7L168.3,127.8
		L168.3,127.8z M163.4,138.5l-1.7-0.3l-1,1.5l-0.2-1.7l-1.7-0.4l1.6-0.8l-0.1-1.8l1.2,1.3l1.7-0.7l-0.8,1.6L163.4,138.5L163.4,138.5
		z M156.6,148.1l-1.7-0.6l-1.2,1.3l0.1-1.8l-1.6-0.7l1.7-0.5l0.2-1.8l1,1.5l1.8-0.4l-1.1,1.4L156.6,148.1L156.6,148.1z M148.3,156.4
		l-1.5-0.9l-1.4,1.1l0.4-1.7l-1.5-1l1.8-0.2l0.5-1.7l0.7,1.6l1.8-0.1l-1.3,1.2L148.3,156.4L148.3,156.4z M138.7,163.1l-1.4-1.1
		l-1.6,0.8l0.7-1.6l-1.3-1.2l1.8,0.1l0.8-1.6l0.4,1.7l1.8,0.3l-1.5,0.9L138.7,163.1L138.7,163.1z M128,168.1l-1.1-1.4l-1.7,0.5
		l0.9-1.5l-1-1.4l1.7,0.4l1.1-1.4l0.1,1.8l1.7,0.6l-1.6,0.7L128,168.1L128,168.1z M116.7,171.1l-0.9-1.5l-1.8,0.2l1.2-1.3l-0.8-1.6
		l1.6,0.7l1.3-1.2l-0.2,1.8l1.6,0.8l-1.7,0.4L116.7,171.1L116.7,171.1z M105,172.1l-0.6-1.7l-1.8-0.1l1.4-1.1l-0.5-1.7l1.5,1l1.5-1
		l-0.5,1.7l1.4,1.1l-1.8,0.1L105,172.1L105,172.1z M93.3,171.1l-0.3-1.7l-1.7-0.4l1.6-0.8l-0.2-1.8l1.3,1.2l1.6-0.7l-0.8,1.6
		l1.2,1.3l-1.8-0.3L93.3,171.1L93.3,171.1z M81.9,168.1v-1.8l-1.7-0.7l1.7-0.5l0.1-1.8l1,1.4l1.7-0.4l-1,1.4l0.9,1.5l-1.7-0.6
		L81.9,168.1L81.9,168.1z M71.3,163.1l0.3-1.7l-1.5-1l1.7-0.2l0.4-1.7l0.8,1.6l1.8-0.1l-1.3,1.2l0.7,1.7l-1.6-0.8L71.3,163.1
		L71.3,163.1z M61.7,156.4l0.6-1.7l-1.3-1.2l1.8,0.1l0.7-1.6l0.5,1.7l1.8,0.2l-1.5,1l0.4,1.8l-1.4-1.1L61.7,156.4L61.7,156.4z
		 M53.3,148.1l0.9-1.5l-1.1-1.4l1.7,0.4l1-1.5l0.2,1.8l1.7,0.5l-1.6,0.7l0,1.8l-1.2-1.3L53.3,148.1L53.3,148.1z M46.6,138.5l1.1-1.4
		l-0.8-1.6l1.6,0.7l1.2-1.3l-0.1,1.8l1.6,0.8l-1.7,0.4l-0.3,1.8l-0.9-1.5L46.6,138.5L46.6,138.5z M41.6,127.8l1.4-1.1l-0.5-1.7
		l1.5,0.9l1.5-1l-0.4,1.7l1.4,1.1l-1.8,0.1l-0.6,1.7l-0.7-1.6L41.6,127.8L41.6,127.8z M38.6,116.5l1.5-0.9l-0.2-1.8l1.3,1.2l1.6-0.8
		l-0.7,1.6l1.2,1.3l-1.8-0.2l-0.8,1.6l-0.4-1.7L38.6,116.5L38.6,116.5z M37.6,104.8l1.7-0.6l0.1-1.8l1.1,1.4l1.7-0.5l-1,1.5l1,1.5
		l-1.7-0.5l-1.1,1.4l-0.1-1.8L37.6,104.8L37.6,104.8z M38.6,93.1l1.7-0.3l0.4-1.7l0.8,1.6l1.8-0.2l-1.2,1.3l0.7,1.6l-1.6-0.8
		l-1.3,1.2l0.2-1.7L38.6,93.1L38.6,93.1z M41.6,81.8l1.8,0l0.7-1.7l0.5,1.7l1.8,0.1L45,83l0.4,1.7l-1.4-1l-1.5,0.9L43,83L41.6,81.8
		L41.6,81.8z M46.6,71.2l1.7,0.3l1-1.5l0.2,1.8l1.7,0.4l-1.6,0.8l0.1,1.8l-1.2-1.3l-1.7,0.7l0.8-1.6L46.6,71.2L46.6,71.2z
		 M53.3,61.6l1.7,0.6l1.2-1.3l-0.1,1.8l1.6,0.7l-1.7,0.5l-0.2,1.8l-1-1.5l-1.8,0.4l1.1-1.4L53.3,61.6L53.3,61.6z M61.7,53.3l1.5,0.9
		l1.4-1.1l-0.4,1.7l1.5,1L64,56l-0.5,1.7l-0.7-1.6l-1.8,0.1l1.3-1.2L61.7,53.3L61.7,53.3z M71.3,46.5l1.4,1.1l1.6-0.8l-0.7,1.6
		l1.3,1.3l-1.8-0.1l-0.8,1.6l-0.4-1.7l-1.8-0.3l1.5-0.9L71.3,46.5L71.3,46.5z M81.9,41.6l1.1,1.4l1.7-0.5l-0.9,1.5l1,1.4l-1.7-0.4
		l-1.1,1.4L82,44.6L80.3,44l1.6-0.7L81.9,41.6L81.9,41.6z M93.3,38.6l0.9,1.5l1.8-0.2l-1.2,1.3l0.8,1.6L93.9,42l-1.3,1.2l0.2-1.8
		l-1.6-0.8l1.7-0.4L93.3,38.6z"/>
	<ellipse id="XMLID_2354_" class="st2" cx="105" cy="104.8" rx="53.3" ry="28.3"/>
	<ellipse id="XMLID_2353_" class="st2" cx="105" cy="104.8" rx="55.3" ry="55.3"/>
	<ellipse id="XMLID_2352_" class="st2" cx="105" cy="104.8" rx="74.3" ry="74.4"/>
</g>
</svg>
