<?xml version="1.0" encoding="utf-8"?>
<!-- Generator: Adobe Illustrator 21.0.2, SVG Export Plug-In . SVG Version: 6.00 Build 0)  -->
<svg version="1.1" id="Layer_1" xmlns="http://www.w3.org/2000/svg" xmlns:xlink="http://www.w3.org/1999/xlink" x="0px" y="0px"
	 viewBox="0 0 210 209.4" style="enable-background:new 0 0 210 209.4;" xml:space="preserve">
<style type="text/css">
	.st0{fill:#FFF0CD;}
	.st1{fill:#FFFFE6;}
	.st2{fill:none;stroke:#F49782;stroke-width:3;stroke-linecap:round;stroke-linejoin:round;stroke-miterlimit:10;}
	.st3{fill:#F49782;}
</style>
<g id="XMLID_1726_">
	<path id="XMLID_2264_" class="st0" d="M131,175c-0.3,8.8-6.8,12.7-13.1,15.8c-6.5,3.2-13.3,5.5-13.6,14.4
		c0.3-8.5-6.5-11.9-12.6-15.6c-5.7-3.5-11.7-7-11.7-15.1c0-0.4-0.3-1.3,0-1.2C103.7,184.5,131,175,131,175z"/>
	<path id="XMLID_2262_" class="st0" d="M82.1,32.7c-0.4,0.1,0-0.8,0-1.2c0.6-8,6.8-11.1,12.8-14.2c6.3-3.2,13.3-6.2,13.7-14.7
		c-0.3,8.8,6.3,11.7,12.6,15.3c6.1,3.5,12.3,7.9,12,16.7C133.1,34.7,106.5,23.4,82.1,32.7z"/>
	<path id="XMLID_2217_" class="st0" d="M134.6,35.8c-0.4-0.2,0.6-0.5,0.9-0.8c6.1-5.2,12.7-3.1,19.1-1c6.8,2.2,13.8,5,20.1-0.7
		c-6.5,6-3.9,12.7-2,19.7c1.8,6.8,3.1,14.3-3.4,20.2C169.2,73.2,158.5,46.4,134.6,35.8z"/>
	<path id="XMLID_2215_" class="st0" d="M176,77.8c-0.1-0.4,0.8,0,1.2,0c8,0.5,11.3,6.6,14.4,12.5c3.3,6.3,6.4,13.2,14.9,13.4
		c-8.9-0.2-11.6,6.4-15.2,12.7c-3.4,6.1-7.7,12.4-16.6,12.2C174.7,128.7,185.7,102.1,176,77.8z"/>
	<path id="XMLID_2213_" class="st0" d="M174.5,134.3c0.1-0.4,0.6,0.5,0.8,0.8c5.5,5.9,3.6,12.5,1.8,19c-1.9,6.8-4.5,14,1.5,20
		c-6.3-6.2-12.9-3.3-19.8-1.2c-6.7,2.1-14.2,3.7-20.4-2.5C138.4,170.3,164.8,158.5,174.5,134.3z"/>
	<path id="XMLID_2211_" class="st0" d="M40.1,73.6c-6.5-6-5.2-13.5-3.4-20.2c1.9-7,4.5-13.7-2-19.7c6.2,5.7,13.3,2.9,20.1,0.7
		c6.4-2.1,13-4.2,19.1,1c0.3,0.2,1.2,0.6,0.9,0.8C50.8,46.8,40.1,73.6,40.1,73.6z"/>
	<path id="XMLID_2209_" class="st0" d="M34.5,131.5c-8.8,0.2-13.1-6.1-16.6-12.2c-3.5-6.3-6.3-13-15.2-12.7
		c8.5-0.2,11.6-7.1,14.9-13.4c3.1-5.9,6.4-12,14.4-12.5c0.4,0,1.3-0.4,1.2,0C23.5,104.8,34.5,131.5,34.5,131.5z"/>
	<path id="XMLID_2207_" class="st0" d="M74,173.9c-6.3,6.2-13.7,4.6-20.4,2.5c-6.9-2.2-13.5-5.1-19.8,1.2c6-6,3.4-13.1,1.5-20
		c-1.8-6.4-3.7-13.1,1.8-19c0.3-0.3,0.7-1.2,0.8-0.8C47.6,162.1,74,173.9,74,173.9z"/>
	<path id="XMLID_2206_" class="st1" d="M98.9,152.1c-30.3,0-54.8-24.5-54.8-54.7s24.5-54.7,54.8-54.7c0,0-37.3,16.7-35.2,55.9
		C66,138.6,98.9,152.1,98.9,152.1z"/>
	<ellipse id="XMLID_2198_" class="st2" cx="105.6" cy="106.3" rx="54.2" ry="54.2"/>
	<ellipse id="XMLID_2197_" class="st2" cx="105" cy="104.7" rx="74.4" ry="74.4"/>
	<g id="XMLID_2179_">
		<path id="XMLID_2195_" class="st2" d="M175.3,77.5c9.5-0.3,13.3,6.5,17,13c3.7,6.6,7.2,13.9,16.3,13.9c-9.5,0-12.3,7.2-15.9,14
			c-3.5,6.6-7.9,13.4-17.4,13.4"/>
		<path id="XMLID_2193_" class="st2" d="M34.7,131.9c-9.4,0-13.9-6.8-17.4-13.4c-3.6-6.8-6.4-14-15.9-14c9.1,0,12.5-7.3,16.3-13.9
			c3.7-6.5,7.5-13.3,17-13"/>
		<path id="XMLID_2191_" class="st2" d="M77.7,34.6c-0.3-9.5,6.5-13.3,13-16.9c6.6-3.7,14-7.2,14-16.2c0,9.5,7.2,12.2,14,15.8
			c6.6,3.5,13.5,7.9,13.5,17.3"/>
		<path id="XMLID_2189_" class="st2" d="M132.3,174.8c0,9.4-6.9,13.8-13.5,17.3c-6.9,3.6-14,6.4-14,15.8c0-9-7.4-12.5-14-16.2
			c-6.5-3.7-13.3-7.5-13-16.9"/>
		<path id="XMLID_2187_" class="st2" d="M134.7,36.1c6.5-6.9,14-4.8,21.2-2.8c7.3,2,15,4.8,21.4-1.6c-6.7,6.7-3.6,13.7-1.3,21.1
			c2.2,7.1,3.9,15.1-2.7,21.8"/>
		<path id="XMLID_2185_" class="st2" d="M75.3,173.3c-6.7,6.7-14.7,4.9-21.8,2.7c-7.4-2.3-14.5-5.4-21.2,1.3
			c6.4-6.4,3.7-14,1.6-21.3c-2-7.2-4.1-14.7,2.8-21.2"/>
		<path id="XMLID_2183_" class="st2" d="M36.7,74.6c-6.7-6.7-5-14.6-2.7-21.8c2.3-7.4,5.4-14.4-1.3-21.1c6.4,6.4,14.1,3.7,21.4,1.6
			c7.2-2,14.7-4.1,21.2,2.8"/>
		<path id="XMLID_2180_" class="st2" d="M173.7,134.3c6.9,6.5,4.8,13.9,2.8,21.2c-2,7.3-4.8,14.9,1.6,21.3
			c-6.7-6.7-13.7-3.6-21.2-1.3c-7.2,2.2-15.1,3.9-21.8-2.7"/>
	</g>
	<path id="XMLID_2167_" class="st3" d="M116.9,88.8H91.3l1.8,3.3h16.7v3.8c0,0-8.9-1.5-12.3,2.8c-2.6,3.4-1.7,12.3,2.3,14.7
		c4,2.7,8.5,0.7,8.5,0.7c0.4,0,0.8,0,1.1,0l0.3,4.4c0,1.9,1.6,3.5,3.5,3.5v-4.3v-10.1v-0.3v-8.9c0-0.1,0-0.2,0-0.3v-6.1h5.4
		L116.9,88.8z M109.2,110.5c0,0-9.3,2.9-10-5.7c0.4-7.7,10-5.2,10-5.2V110.5z"/>
	<polygon id="XMLID_2166_" class="st2" points="105,158.8 58.9,79.7 151.1,79.7 	"/>
	<ellipse id="XMLID_2165_" class="st2" cx="104.9" cy="106" rx="26.3" ry="26.2"/>
	<g id="XMLID_1727_">
		<path id="XMLID_2162_" class="st3" d="M105.6,37.3c-2.8,0-5,2.2-5,5c0,2.8,2.3,5,5,5c2.8,0,5-2.2,5-5
			C110.6,39.5,108.3,37.3,105.6,37.3z M105.6,44.9c-1.4,0-2.6-1.2-2.6-2.6c0-1.4,1.2-2.6,2.6-2.6c1.4,0,2.6,1.2,2.6,2.6
			C108.1,43.7,107,44.9,105.6,44.9z"/>
		<path id="XMLID_2159_" class="st3" d="M105.6,166.1c-2.8,0-5,2.2-5,5s2.3,5,5,5c2.8,0,5-2.2,5-5S108.3,166.1,105.6,166.1z
			 M105.6,173.7c-1.4,0-2.6-1.2-2.6-2.6c0-1.4,1.2-2.6,2.6-2.6c1.4,0,2.6,1.2,2.6,2.6C108.1,172.6,107,173.7,105.6,173.7z"/>
		<path id="XMLID_2153_" class="st3" d="M70.7,46.6c-2.4,1.4-3.2,4.5-1.8,6.9c1.4,2.4,4.5,3.2,6.9,1.8c2.4-1.4,3.2-4.5,1.8-6.9
			C76.2,46,73.2,45.2,70.7,46.6z M74.6,53.1c-1.2,0.7-2.8,0.3-3.5-0.9c-0.7-1.2-0.3-2.8,0.9-3.5c1.2-0.7,2.8-0.3,3.5,0.9
			C76.2,50.9,75.8,52.4,74.6,53.1z"/>
		<path id="XMLID_2146_" class="st3" d="M135.3,158.2c-2.4,1.4-3.2,4.5-1.8,6.9c1.4,2.4,4.5,3.2,6.9,1.8c2.4-1.4,3.2-4.5,1.8-6.9
			C140.8,157.6,137.7,156.8,135.3,158.2z M139.1,164.7c-1.2,0.7-2.8,0.3-3.5-0.9c-0.7-1.2-0.3-2.8,0.9-3.5c1.2-0.7,2.8-0.3,3.5,0.9
			C140.8,162.5,140.4,164,139.1,164.7z"/>
		<path id="XMLID_2134_" class="st3" d="M47.1,78.9c2.4,1.4,5.5,0.6,6.9-1.8c1.4-2.4,0.6-5.5-1.8-6.9c-2.4-1.4-5.5-0.6-6.9,1.8
			C43.9,74.4,44.7,77.5,47.1,78.9z M47.4,73.2c0.7-1.2,2.3-1.7,3.5-0.9c1.2,0.7,1.7,2.3,0.9,3.5s-2.3,1.7-3.5,0.9
			C47.1,76,46.7,74.4,47.4,73.2z"/>
		<path id="XMLID_2126_" class="st3" d="M164,134.6c-2.4-1.4-5.5-0.6-6.9,1.8c-1.4,2.4-0.6,5.5,1.8,6.9c2.4,1.4,5.5,0.6,6.9-1.8
			C167.3,139,166.4,136,164,134.6z M163.7,140.2c-0.7,1.2-2.3,1.7-3.5,0.9c-1.2-0.7-1.7-2.3-0.9-3.5c0.7-1.2,2.3-1.7,3.5-0.9
			C164,137.4,164.4,139,163.7,140.2z"/>
		<path id="XMLID_2117_" class="st3" d="M46,106.7c0-2.8-2.3-5-5-5c-2.8,0-5,2.2-5,5c0,2.8,2.3,5,5,5C43.7,111.7,46,109.5,46,106.7z
			 M38.4,106.7c0-1.4,1.2-2.6,2.6-2.6s2.6,1.2,2.6,2.6c0,1.4-1.2,2.6-2.6,2.6S38.4,108.1,38.4,106.7z"/>
		<path id="XMLID_2108_" class="st3" d="M170.2,101.7c-2.8,0-5,2.2-5,5c0,2.8,2.3,5,5,5c2.8,0,5-2.2,5-5
			C175.2,103.9,172.9,101.7,170.2,101.7z M170.2,109.3c-1.4,0-2.6-1.2-2.6-2.6c0-1.4,1.2-2.6,2.6-2.6c1.4,0,2.6,1.2,2.6,2.6
			C172.7,108.1,171.6,109.3,170.2,109.3z"/>
		<path id="XMLID_2102_" class="st3" d="M54,136.4c-1.4-2.4-4.5-3.2-6.9-1.8c-2.4,1.4-3.2,4.5-1.8,6.9c1.4,2.4,4.5,3.2,6.9,1.8
			C54.5,141.9,55.4,138.8,54,136.4z M50.9,141.2c-1.2,0.7-2.8,0.3-3.5-0.9c-0.7-1.2-0.3-2.8,0.9-3.5c1.2-0.7,2.8-0.3,3.5,0.9
			C52.6,138.9,52.1,140.4,50.9,141.2z"/>
		<path id="XMLID_2089_" class="st3" d="M157.1,77c1.4,2.4,4.5,3.2,6.9,1.8c2.4-1.4,3.2-4.5,1.8-6.9c-1.4-2.4-4.5-3.2-6.9-1.8
			C156.6,71.5,155.7,74.6,157.1,77z M160.2,72.3c1.2-0.7,2.8-0.3,3.5,0.9c0.7,1.2,0.3,2.8-0.9,3.5c-1.2,0.7-2.8,0.3-3.5-0.9
			C158.6,74.6,159,73,160.2,72.3z"/>
		<path id="XMLID_2080_" class="st3" d="M75.8,158.2c-2.4-1.4-5.5-0.6-6.9,1.8c-1.4,2.4-0.6,5.5,1.8,6.9c2.4,1.4,5.5,0.6,6.9-1.8
			C79,162.6,78.2,159.5,75.8,158.2z M75.5,163.8c-0.7,1.2-2.3,1.7-3.5,0.9c-1.2-0.7-1.7-2.3-0.9-3.5c0.7-1.2,2.3-1.7,3.5-0.9
			C75.8,161,76.2,162.6,75.5,163.8z"/>
		<path id="XMLID_1990_" class="st3" d="M140.4,46.6c-2.4-1.4-5.5-0.6-6.9,1.8c-1.4,2.4-0.6,5.5,1.8,6.9c2.4,1.4,5.5,0.6,6.9-1.8
			C143.6,51,142.8,48,140.4,46.6z M140.1,52.2c-0.7,1.2-2.3,1.7-3.5,0.9c-1.2-0.7-1.7-2.3-0.9-3.5c0.7-1.2,2.3-1.7,3.5-0.9
			C140.4,49.4,140.8,51,140.1,52.2z"/>
		
			<ellipse id="XMLID_1989_" transform="matrix(0.9847 -0.1741 0.1741 0.9847 -6.092 17.0855)" class="st3" cx="94.3" cy="43.3" rx="2.6" ry="2.6"/>
		
			<ellipse id="XMLID_1954_" transform="matrix(0.9847 -0.1741 0.1741 0.9847 -27.8417 22.9291)" class="st3" cx="116.8" cy="170.2" rx="2.6" ry="2.6"/>
		
			<ellipse id="XMLID_1928_" transform="matrix(0.9394 -0.3428 0.3428 0.9394 -10.7711 31.4103)" class="st3" cx="83.5" cy="46.2" rx="2.6" ry="2.6"/>
		
			<ellipse id="XMLID_1911_" transform="matrix(0.9394 -0.3428 0.3428 0.9394 -49.6014 53.8939)" class="st3" cx="127.7" cy="167.3" rx="2.6" ry="2.6"/>
		<path id="XMLID_1910_" class="st3" d="M62.4,55.4c-1.1,0.9-1.2,2.5-0.3,3.6c0.9,1.1,2.5,1.2,3.6,0.3c1.1-0.9,1.2-2.5,0.3-3.6
			C65.1,54.6,63.5,54.5,62.4,55.4z"/>
		<path id="XMLID_1909_" class="st3" d="M145.4,154.1c-1.1,0.9-1.2,2.5-0.3,3.6c0.9,1.1,2.5,1.2,3.6,0.3c1.1-0.9,1.2-2.5,0.3-3.6
			C148.1,153.3,146.5,153.2,145.4,154.1z"/>
		<path id="XMLID_1908_" class="st3" d="M54.1,63.6c-0.9,1.1-0.8,2.7,0.3,3.6c1.1,0.9,2.7,0.8,3.6-0.3s0.8-2.7-0.3-3.6
			C56.6,62.4,55,62.6,54.1,63.6z"/>
		<path id="XMLID_1890_" class="st3" d="M153.1,146.5c-0.9,1.1-0.8,2.7,0.3,3.6c1.1,0.9,2.7,0.8,3.6-0.3c0.9-1.1,0.8-2.7-0.3-3.6
			C155.6,145.2,154,145.4,153.1,146.5z"/>
		
			<ellipse id="XMLID_1872_" transform="matrix(0.3428 -0.9394 0.9394 0.3428 -50.0677 97.7928)" class="st3" cx="44.9" cy="84.7" rx="2.6" ry="2.6"/>
		
			<ellipse id="XMLID_1871_" transform="matrix(0.3428 -0.9394 0.9394 0.3428 -11.685 240.7997)" class="st3" cx="166.3" cy="128.8" rx="2.6" ry="2.6"/>
		
			<ellipse id="XMLID_1828_" transform="matrix(0.1741 -0.9847 0.9847 0.1741 -59.4263 120.2019)" class="st3" cx="41.9" cy="95.5" rx="2.6" ry="2.6"/>
		
			<ellipse id="XMLID_1822_" transform="matrix(0.1741 -0.9847 0.9847 0.1741 23.6195 263.9685)" class="st3" cx="169.2" cy="117.9" rx="2.6" ry="2.6"/>
		
			<ellipse id="XMLID_1807_" transform="matrix(0.9849 -0.1732 0.1732 0.9849 -19.7881 9.0476)" class="st3" cx="41.9" cy="117.9" rx="2.6" ry="2.6"/>
		
			<ellipse id="XMLID_1804_" transform="matrix(0.9849 -0.1732 0.1732 0.9849 -13.9886 30.7444)" class="st3" cx="169.2" cy="95.5" rx="2.6" ry="2.6"/>
		
			<ellipse id="XMLID_1803_" transform="matrix(0.9394 -0.3428 0.3428 0.9394 -41.4186 23.1798)" class="st3" cx="44.9" cy="128.8" rx="2.6" ry="2.6"/>
		
			<ellipse id="XMLID_1801_" transform="matrix(0.9394 -0.3428 0.3428 0.9394 -18.9547 62.1261)" class="st3" cx="166.3" cy="84.7" rx="2.6" ry="2.6"/>
		<path id="XMLID_1800_" class="st3" d="M54.4,146.2c-1.1,0.9-1.2,2.5-0.3,3.6c0.9,1.1,2.5,1.2,3.6,0.3c1.1-0.9,1.2-2.5,0.3-3.6
			C57.1,145.4,55.5,145.2,54.4,146.2z"/>
		<path id="XMLID_1798_" class="st3" d="M156.7,67.3c1.1-0.9,1.2-2.5,0.3-3.6c-0.9-1.1-2.5-1.2-3.6-0.3c-1.1,0.9-1.2,2.5-0.3,3.6
			C154,68,155.6,68.2,156.7,67.3z"/>
		<path id="XMLID_1746_" class="st3" d="M62.1,154.4c-0.9,1.1-0.8,2.7,0.3,3.6c1.1,0.9,2.7,0.8,3.6-0.3c0.9-1.1,0.8-2.7-0.3-3.6
			C64.6,153.2,63,153.3,62.1,154.4z"/>
		<path id="XMLID_1741_" class="st3" d="M145.1,55.7c-0.9,1.1-0.8,2.7,0.3,3.6c1.1,0.9,2.7,0.8,3.6-0.3c0.9-1.1,0.8-2.7-0.3-3.6
			C147.6,54.5,146,54.6,145.1,55.7z"/>
		
			<ellipse id="XMLID_1731_" transform="matrix(0.3428 -0.9394 0.9394 0.3428 -102.2689 188.331)" class="st3" cx="83.5" cy="167.3" rx="2.6" ry="2.6"/>
		
			<ellipse id="XMLID_1730_" transform="matrix(0.3428 -0.9394 0.9394 0.3428 40.5169 150.2635)" class="st3" cx="127.7" cy="46.2" rx="2.6" ry="2.6"/>
		
			<ellipse id="XMLID_1729_" transform="matrix(0.1741 -0.9847 0.9847 0.1741 -89.6476 233.4414)" class="st3" cx="94.3" cy="170.2" rx="2.6" ry="2.6"/>
		
			<ellipse id="XMLID_1728_" transform="matrix(0.1741 -0.9847 0.9847 0.1741 53.8396 150.728)" class="st3" cx="116.8" cy="43.3" rx="2.6" ry="2.6"/>
	</g>
</g>
</svg>
