<?xml version="1.0" encoding="utf-8"?>
<!-- Generator: Adobe Illustrator 21.1.0, SVG Export Plug-In . SVG Version: 6.00 Build 0)  -->
<svg version="1.1" id="Layer_1" xmlns="http://www.w3.org/2000/svg" xmlns:xlink="http://www.w3.org/1999/xlink" x="0px" y="0px"
	 viewBox="0 0 182 182" style="enable-background:new 0 0 182 182;" xml:space="preserve">
<style type="text/css">
	.st0{fill:#FFF0CD;}
	.st1{fill:#FFFFE6;}
	.st2{fill:none;stroke:#F49782;stroke-width:3;stroke-linecap:round;stroke-linejoin:round;stroke-miterlimit:10;}
	.st3{fill:#F49782;}
	
		.st4{fill:none;stroke:#F49782;stroke-width:3;stroke-linecap:round;stroke-linejoin:round;stroke-miterlimit:10;stroke-dasharray:0.25,10;}
</style>
<g id="XMLID_2443_">
	<path id="XMLID_2484_" class="st0" d="M114.2,154.1c-0.3,7.8-6,11.3-11.6,14c-5.7,2.8-11.7,4.9-12,12.8c0.3-7.5-5.7-10.5-11.1-13.8
		c-5.1-3.1-10.3-6.3-10.4-13.4c0-0.3-0.3-1.2,0-1C90.1,162.5,114.2,154.1,114.2,154.1z"/>
	<path id="XMLID_2482_" class="st0" d="M71.1,28.3c-0.3,0.1,0-0.7,0-1c0.5-7.1,6-9.9,11.2-12.6c5.6-2.9,11.7-5.6,12-13
		c-0.3,7.7,5.6,10.3,11.1,13.5c5.4,3.1,10.9,6.9,10.6,14.7C116.2,30,92.7,20,71.1,28.3z"/>
	<path id="XMLID_2480_" class="st0" d="M117.5,31c-0.3-0.2,0.5-0.5,0.8-0.7c5.4-4.6,11.2-2.7,16.9-0.9c6,2,12.3,4.5,17.7-0.6
		c-5.7,5.2-3.4,11.2-1.7,17.4c1.6,6,2.7,12.6-3,17.9C148.1,64.1,138.6,40.4,117.5,31z"/>
	<path id="XMLID_2478_" class="st0" d="M154,68c-0.2-0.3,0.7,0,1,0c7.1,0.4,9.9,5.8,12.8,11.1c2.9,5.6,5.7,11.7,13.2,11.9
		c-7.8-0.2-10.3,5.7-13.5,11.2c-3,5.4-6.9,11-14.7,10.8C152.8,113.2,162.6,89.6,154,68z"/>
	<path id="XMLID_2476_" class="st0" d="M152.7,118.1c0.2-0.3,0.5,0.5,0.8,0.8c4.9,5.2,3.2,11.1,1.6,16.8c-1.7,6.1-3.9,12.3,1.4,17.6
		c-5.6-5.6-11.4-2.9-17.5-1c-5.9,1.7-12.5,3.3-18.1-2.2C120.9,150,144.2,139.6,152.7,118.1z"/>
	<path id="XMLID_2474_" class="st0" d="M33.8,64.4c-5.7-5.4-4.6-11.9-3-17.9c1.6-6.2,3.9-12.1-1.7-17.4c5.5,5.1,11.7,2.6,17.7,0.6
		c5.7-1.7,11.5-3.7,16.9,0.9c0.3,0.3,1.1,0.5,0.8,0.7C43.4,40.7,33.8,64.4,33.8,64.4z"/>
	<path id="XMLID_2472_" class="st0" d="M29.1,115.7c-7.8,0.2-11.6-5.4-14.7-10.8C11.3,99.3,8.8,93.4,1,93.6
		c7.5-0.2,10.2-6.3,13.2-11.9c2.8-5.2,5.7-10.7,12.8-11.1c0.3,0,1.2-0.3,1,0C19.3,92,29.1,115.7,29.1,115.7z"/>
	<path id="XMLID_2470_" class="st0" d="M64,153.2c-5.5,5.5-12.2,4.1-18.1,2.2c-6.2-1.9-11.9-4.5-17.5,1c5.2-5.2,3.1-11.6,1.4-17.6
		c-1.6-5.7-3.3-11.6,1.6-16.8c0.3-0.3,0.6-1,0.8-0.8C40.5,142.8,64,153.2,64,153.2z"/>
	<path id="XMLID_2469_" class="st1" d="M85.9,133.8c-26.7,0-48.4-21.7-48.4-48.4s21.6-48.4,48.4-48.4c0,0-33,14.8-31.1,49.4
		C56.8,121.9,85.9,133.8,85.9,133.8z"/>
	<g id="XMLID_2444_">
		<path id="XMLID_2468_" class="st2" d="M165.5,76.9c-3.2-5.6-6.3-11.3-14.4-11.1l-1.7-2.5c5.7-5.7,4.2-12.3,2.3-18.5
			c-2-6.3-4.6-12.3,1.1-17.9c-5.4,5.4-11.9,3.1-18.2,1.4c-6.2-1.7-12.5-3.5-18,2.4l0.2,0.2c-1.2-0.5-2.3-1.5-2.3-1.5
			c0-8-5.8-11.7-11.5-14.7c-5.8-3.1-11.9-5.4-11.9-13.5c0,7.7-6.3,10.6-11.9,13.8c-5.6,3.1-11.3,6.3-11.1,14.4c0,0-1.1,0.9-2.1,1.4
			l0.1-0.1c-5.5-5.8-11.9-4.1-18-2.4c-6.3,1.7-12.7,4-18.2-1.4c5.7,5.7,3.1,11.7,1.1,17.9C29,50.9,27.6,57.6,33,63.2
			c-0.6,1.3-1.6,2.6-1.6,2.6C23.2,65.5,20,71.2,17,76.9c-3.2,5.7-6.1,11.8-13.8,11.8c8.1,0,10.4,6.1,13.5,11.9
			c3,5.7,6.8,11.4,14.7,11.4c0,0,1,1.3,1.6,2.6c-5.7,5.5-4,11.8-2.3,17.9c1.7,6.2,4,12.7-1.4,18.2c5.7-5.7,11.7-3.1,18-1.1
			c6.1,1.9,12.9,3.3,18.5-2.3l-0.1-0.1c1.1,0.4,2.1,1.3,2.1,1.3c-0.3,8.1,5.5,11.2,11.1,14.4c5.9,3.1,12,6,12,13.7
			c0-8.1,6.1-10.4,11.9-13.5c5.7-3,11.5-6.7,11.5-14.7c0,0,1.3-1,2.6-1.6c5.7,5.6,12.3,4.1,18.4,2.2c6.3-2,12.3-4.5,18,1.1
			c-5.4-5.4-3.1-11.9-1.4-18.2c1.7-6.2,3.5-12.5-2.4-18l1.3-2.1c8,0,11.7-5.8,14.7-11.4c3.1-5.8,5.4-11.9,13.5-11.9
			C171.5,88.7,168.5,82.4,165.5,76.9z"/>
		<path id="XMLID_2466_" class="st2" d="M122.7,113c0,3,0.5,5.9,1.5,8.7c-2.7-0.9-5.7-1.5-8.7-1.5c-10.6,0-19.9,6.3-24.2,15.2
			c-4.4-9-13.5-15.2-24.2-15.2c-3,0-5.9,0.5-8.7,1.5c0.9-2.7,1.5-5.7,1.5-8.7c0-10.6-6.3-19.8-15.2-24.2c9-4.4,15.2-13.5,15.2-24.2
			c0-3-0.5-5.9-1.5-8.7c2.7,0.9,5.7,1.5,8.7,1.5c10.6,0,19.9-6.3,24.2-15.2c4.4,9,13.5,15.2,24.2,15.2c3,0,5.9-0.5,8.7-1.5
			c-0.9,2.7-1.5,5.7-1.5,8.7c0,10.6,6.3,19.8,15.2,24.2C128.9,93.2,122.7,102.5,122.7,113z"/>
		<g id="XMLID_2449_">
			<path id="XMLID_2464_" class="st2" d="M151.1,65.8c8.1-0.3,11.3,5.5,14.4,11.1c3.2,5.7,6.1,11.8,13.8,11.8
				c-8.1,0-10.4,6.1-13.5,11.9c-3,5.7-6.8,11.4-14.7,11.4"/>
			<path id="XMLID_2462_" class="st2" d="M31.8,112c-8,0-11.7-5.8-14.7-11.4C14,94.8,11.7,88.6,3.6,88.6c7.7,0,10.6-6.3,13.8-11.8
				c3.2-5.6,6.3-11.3,14.4-11.1"/>
			<path id="XMLID_2460_" class="st2" d="M68.2,29.4c-0.3-8.1,5.5-11.2,11.1-14.4c5.6-3.2,11.9-6.1,11.9-13.8
				c0,8.1,6.1,10.4,11.9,13.5c5.7,3,11.5,6.7,11.5,14.7"/>
			<path id="XMLID_2458_" class="st2" d="M114.5,148.4c0,8-5.8,11.7-11.5,14.7c-5.8,3.1-11.9,5.4-11.9,13.5
				c0-7.7-6.3-10.6-11.9-13.8c-5.6-3.1-11.3-6.3-11.1-14.4"/>
			<path id="XMLID_2456_" class="st2" d="M116.6,30.7c5.5-5.8,11.9-4.1,18-2.4c6.3,1.7,12.7,4,18.2-1.4c-5.7,5.7-3.1,11.7-1.1,17.9
				c1.9,6.1,3.3,12.9-2.3,18.5"/>
			<path id="XMLID_2454_" class="st2" d="M66.1,147.2c-5.7,5.7-12.3,4.2-18.5,2.3c-6.3-2-12.3-4.5-18,1.1c5.4-5.4,3.1-11.9,1.4-18.2
				c-1.7-6.2-3.5-12.5,2.4-18"/>
			<path id="XMLID_2452_" class="st2" d="M33.3,63.3c-5.7-5.7-4.2-12.3-2.3-18.5c2-6.3,4.6-12.3-1.1-17.9c5.4,5.4,11.9,3.1,18.2,1.4
				c6.2-1.7,12.5-3.5,18,2.4"/>
			<path id="XMLID_2450_" class="st2" d="M149.7,114.1c5.9,5.5,4.1,11.8,2.4,18c-1.7,6.2-4,12.7,1.4,18.2c-5.7-5.7-11.7-3.1-18-1.1
				c-6.1,1.9-12.9,3.3-18.5-2.3"/>
		</g>
		<path id="XMLID_2448_" class="st3" d="M102.5,69.2C102.6,69.2,102.6,69.2,102.5,69.2c0.8,1.5,1.5,2.5,2.1,3.9h-8.9v7.7
			c-0.3,0-0.4,0-0.6,0c-3.4,0-6.8,0-10.2,0c-1.1,0-1.9,1-2.1,1.7c-0.1,0.8-0.1,1.5,0.4,2.1c0.4,0.6,0.9,0.9,1.6,0.9
			c0.9,0.1,1.9-0.1,2.8-0.3c1.1-0.2,2.1-0.3,3.3-0.4c1.7-0.2,3.3,0.3,4.7,1.2c1.5,1,2.4,2.6,2.7,4.4c0.2,1.5,0,3-0.6,4.4
			c-0.3,0.8-0.8,1.5-1.4,2.1c-0.6,0.5-1.1,1.2-1.7,1.6c-0.9,0.7-2,1.1-3.1,1.4c-0.9,0.2-1.6,0.2-2.5,0.3c-0.1,0-0.3,0.1-0.4,0.1
			c1.5,2.3,2.8,4.6,4.2,6.9c-0.3,0.3-0.7,0.4-1,0.7c-1.1,0.8-2.7,0.4-3.3-0.8l0,0c-1.1-2.1-2.3-4.1-3.4-6.2
			c-0.2-0.3-0.3-0.6-0.4-0.9c-0.1-0.3-0.3-0.3-0.4-0.3c-1.5-0.3-2.7-1.4-3.9-2.4c-0.3-0.3-0.6-0.7-0.9-1c-0.1-0.1-0.1-0.3,0-0.3
			c0.8-0.9,1.6-1.7,2.5-2.6c0.7,0.9,1.4,1.5,2.2,2.1s1.7,0.8,2.8,1c0.8,0.1,1.5,0,2.4-0.1c0.8-0.1,1.5-0.3,2.2-0.4
			c1.6-0.4,2.8-1.5,3.3-3.2c0.3-1.4,0.2-2.7-1.1-3.7c-0.7-0.5-1.5-0.8-2.3-0.6c-1.2,0.2-2.5,0.4-3.7,0.6c-1.7,0.3-3.6,0.2-5.2-0.8
			c-1.6-0.9-2.6-2.2-2.9-3.9c-0.3-1.7-0.2-3.5,0.9-5.1c0.7-1.1,1.7-1.7,2.9-2.1c0.3-0.1,1-0.2,1.4-0.2c2.3,0,4.6,0,6.9,0
			c0.2,0,0.3,0,0.4,0c0-1.4,0-2.7,0-4H80.2c0-0.3-2.1-3.9-2.1-3.9S102.4,69.2,102.5,69.2z"/>
		<ellipse id="XMLID_2447_" class="st2" cx="91.4" cy="89" rx="63.1" ry="63.2"/>
		<ellipse id="XMLID_2446_" class="st2" cx="91.4" cy="89" rx="51.6" ry="51.7"/>
		<ellipse id="XMLID_2445_" class="st4" cx="91.4" cy="89" rx="57.5" ry="57.6"/>
	</g>
</g>
</svg>
