<?xml version="1.0" encoding="utf-8"?>
<!-- Generator: Adobe Illustrator 21.0.2, SVG Export Plug-In . SVG Version: 6.00 Build 0)  -->
<svg version="1.1" id="Layer_1" xmlns="http://www.w3.org/2000/svg" xmlns:xlink="http://www.w3.org/1999/xlink" x="0px" y="0px"
	 viewBox="0 0 380 365" style="enable-background:new 0 0 380 365;" xml:space="preserve">
<style type="text/css">
	.st0{opacity:0.52;fill:#604768;enable-background:new    ;}
	.st1{fill:url(#SVGID_1_);}
	.st2{fill:url(#SVGID_2_);}
	.st3{fill:#FEFEFE;}
	.st4{fill:#FE92A0;}
	.st5{fill:#FE94A1;}
	.st6{fill:#FEB9C2;}
	.st7{fill:#FEDEE2;}
	.st8{fill:url(#SVGID_3_);}
	.st9{fill:#ED6279;}
	.st10{opacity:0.37;fill:#ED6279;enable-background:new    ;}
	.st11{fill:url(#SVGID_4_);}
	.st12{fill:#FEDADF;}
	.st13{fill:#FE93A0;}
	.st14{fill:url(#SVGID_5_);}
	.st15{fill:#FEDCE0;}
	.st16{fill:#FEB9C1;}
	.st17{fill:#FE94A0;}
	.st18{fill:#FEB8C1;}
	.st19{fill:#FEDDE1;}
	.st20{fill:none;stroke:#ED6279;stroke-width:1.2865;stroke-miterlimit:10;}
	.st21{fill:#FF8083;}
	.st22{fill:#FF8C83;}
	.st23{fill:#FF7583;}
	.st24{fill:#FF9183;}
	.st25{fill:#FFA68E;}
	.st26{fill:#9B5532;}
	.st27{fill:none;stroke:#B73B55;stroke-width:1.2865;stroke-miterlimit:10;}
	.st28{fill:none;stroke:#B73B55;stroke-width:1.2865;stroke-linecap:round;stroke-miterlimit:10;}
	.st29{fill:#489ABF;}
	.st30{fill:#0C80A8;}
	.st31{fill:none;stroke:#0C80A8;stroke-width:1.2865;stroke-miterlimit:10;}
	.st32{fill:#773D24;}
	.st33{fill:#69BBD1;}
	.st34{fill:#5A3E74;}
	.st35{fill:#483060;}
	.st36{fill:none;stroke:#483060;stroke-width:1.2865;stroke-miterlimit:10;}
	.st37{fill:#6B5284;}
</style>
<g>
	<path id="XMLID_1109_" class="st0" d="M149.2,250.8c0,0-93.3,34.9-68.3,57.9c0,0,8.6,8,25,10.5c0,0,17.4,24.4,63.9,20.1
		c0,0,25.3-3.3,38.6-17c6.3-6.5,6.7-4.5,15.3-7.4c7.8-2.6,24.1-8.4,31.8-20.1C272.4,269.2,189.9,249.1,149.2,250.8z"/>
	<g>
		<linearGradient id="SVGID_1_" gradientUnits="userSpaceOnUse" x1="207.56" y1="275.0565" x2="251.691" y2="275.0565">
			<stop  offset="0" style="stop-color:#FF7B83"/>
			<stop  offset="1" style="stop-color:#FF9F83"/>
		</linearGradient>
		<path class="st1" d="M207.6,294.6c0-16.2,0-32.3,0-48.5c1.4-0.2,2.7,0.2,4,0.5c2,0.4,3.9,0.9,5.9,0.9c0.7,0,1.3,0.2,1.6,0.9
			c1.9,3.5,5.1,5.5,8.6,7c5.2,2.2,10.7,3.2,16.3,3.7c1.9,0.2,3.7,0.3,5.6,0.5c0.9,0.1,1.2,0.5,1.2,1.4c1.6,9.1,0.8,17.7,0,26.6
			c0,2.3-0.9,4.3-2.1,6.2c-3.7,5.8-8.7,10-15.7,10.3c-4.4,0.2-9.2-0.6-13.6-1.2c-3.3-0.5-6.3-1.7-9-3.7
			C208.8,298,207.8,296.5,207.6,294.6z"/>
	</g>
	<g>
		<linearGradient id="SVGID_2_" gradientUnits="userSpaceOnUse" x1="184.0313" y1="319.8008" x2="151.4766" y2="256.6644">
			<stop  offset="0" style="stop-color:#FF7B83"/>
			<stop  offset="1" style="stop-color:#FF9F83"/>
		</linearGradient>
		<path class="st2" d="M211.2,270c0.5,0,1,0,1.4,0c0.5,0.2,0.7,0.7,0.8,1.2c0.3,1.5,0.4,2.9,0.5,4.4c0.2,5.9,1.4,11.9-0.1,17.6
			c-0.8,2.8-2.9,7.5-4.8,11.8c-1.5,3.5-2.6,7-5,10c-3.1,3.9-6.7,7.6-11,10c-5.1,2.8-10.3,4.7-16.1,5.5c-2.5,0.4-5,1.4-7.5,1.5
			c-0.4,0-0.8,0-1.2,0c-0.4,0-0.8,0-1.2,0c-1.1,0.1-2.2-0.1-3.3,0.1c-0.3,0-0.6,0-1,0c-1-0.2-1.9-0.2-2.9,0c-0.6,0-1.1,0-1.7,0
			c-1.9-0.3-3.9-1.2-5.8-1.4c-3.8-0.4-7.5-1.4-11.1-2.9c-4.2-1.7-7.1-5.1-10.3-8.3c-3.3-3.3-5.8-7.3-7.5-11.7
			c-1.4-3.7-2-7.4-2.1-11.3c0-0.2,0-0.3-0.1-0.4c0-0.2,0-0.5,0-0.7c0.3-0.5,0.1-0.9,0.1-1.4c-0.1-0.4,0.1-0.8-0.1-1.2
			c0-1,0-2.1,0-3.1c0.2-0.7,0.2-1.4,0-2.2c0-0.4-1,1.2-1,0.8c0.3-2,0.3-4,0.5-5.9c0.2-1.8,0.3-2.8,2.9-3.1
			c8.4-0.9,16.8-1.9,25.1-2.7c7.7-0.8,15.5-1.7,23.2-2.5c6.8-0.7,13.7-1.5,20.5-2.3c6.1-0.7,12.2-1.4,18.4-1.6
			C211,270.1,211.1,270,211.2,270z"/>
		<path class="st3" d="M211.2,270c-1.4,0.6-2.9,0.5-4.3,0.7c-15.3,1.7-30.5,3.4-45.8,5c-12.8,1.4-25.5,2.8-38.3,4.2
			c-0.9,0.1-1.3,0.4-1.5,1.3c-0.4,2-0.7,4.1-0.9,6.2c0,0.3,0.1,0.7-0.3,0.9c0-5.8,0-11.5,0-17.3c0-0.8,0.2-1,1-1
			C151.2,270,181.2,270,211.2,270z"/>
		<path class="st4" d="M163.7,332.1c1.1-0.5,2.3-0.1,3.4-0.2c0.2,0.1,0.1,0.2,0,0.2C165.9,332.1,164.8,332.1,163.7,332.1z"/>
		<path class="st5" d="M159.8,332.1c1-0.4,1.9-0.4,2.9,0C161.8,332.1,160.8,332.1,159.8,332.1z"/>
		<path class="st5" d="M120.2,289.4c0.4,0.7,0.4,1.4,0,2.2C120.2,290.8,120.2,290.1,120.2,289.4z"/>
		<path class="st6" d="M167,332.1c0-0.1,0-0.1,0-0.2c0.4,0,0.8,0,1.2,0c0.2,0.1,0.2,0.2,0,0.2C167.8,332.1,167.4,332.1,167,332.1z"
			/>
		<path class="st7" d="M168.2,332.1c0-0.1,0-0.1,0-0.2c0.4,0,0.8,0,1.2,0c0,0.1,0,0.1,0,0.2C169,332.1,168.6,332.1,168.2,332.1z"/>
	</g>
	<linearGradient id="SVGID_3_" gradientUnits="userSpaceOnUse" x1="59.4477" y1="246.0779" x2="197.4419" y2="160.0816">
		<stop  offset="0" style="stop-color:#FF7B83"/>
		<stop  offset="1" style="stop-color:#FF9F83"/>
	</linearGradient>
	<path class="st8" d="M157.2,296.1c-0.6,0-1.1,0-1.7,0c-1.3-0.3-2.5-0.1-3.8-0.1c-0.6,0-1.1,0-1.7,0c-0.5,0-0.9,0-1.4,0
		c-7.6,0-15-1-22.1-3.5c-8.1-2.8-15.3-7-21.3-13.2c-4.7-4.9-8.1-10.6-10.5-17c-1.9-5-2.9-10.2-3.4-15.5c-0.3-3.4-0.1-6.9-0.2-10.3
		c0-1.7,0-2.6-1.6-2.9c-1.4-0.2-2.8,0.7-4.1,0.2c-3.7-1.4-6.3-3.9-6.1-8.5c0-1.8,0-3.6,0-5.4c0-7.2-0.1-14.3,0-21.5
		c0.2-15.5,0-31,0.1-46.5c0.1-7.9,0-15.8,0.1-23.7c0-4.1,1.2-8,2.8-11.7c3.7-8.8,9.9-15.6,17.2-21.5c7.2-5.8,15.3-10,23.8-13.4
		c11.2-4.6,22.9-7.5,34.8-9.6c4-0.7,8-0.9,12-1c1.7,0,3.4-0.2,5.1-0.1c0.6,0,1.1,0,1.7,0c0.5,0,1.1,0,1.6,0c0.7-0.1,1.3,0.1,2-0.1
		c2.8,0,5.6,0,8.4,0c0.9,0.3,1.8,0.1,2.6,0.1c0.5,0,1,0,1.4,0c0.5,0,1.1,0,1.6,0c11.4,0,22.7,2.5,33.8,4.9
		c5.6,1.2,11.1,2.7,16.5,4.5c8,2.7,15.4,5.6,22.8,9.6c6.5,3.5,12.2,7.4,18,12c5.4,4.2,9.4,8,13,14c2.6,4.4,4.3,8,4,13
		c-0.3,5-2.6,9.5-6,13c-5.5,5.7-11.4,8.3-19,10c-5,1.1-10.2,2.7-15.3,2.6c-3.4-0.1-6.8-0.7-10.1-1c-4-0.4-7.9-0.9-11.9-1.4
		c-3.3-0.4-6.5-1.1-9.8-0.9c-3.1,0.1-6.2,0.5-9.1,2c-3,1.5-4.1,3.9-3.4,7.2c0.8,3.5,2.5,6.5,4.9,9.1c2.5,2.7,3.7,5.8,4.1,9.4
		c0.3,2.7,0,5.3-0.4,8c-0.2,1.1-0.2,2.3,0,3.5c0.3,1.9,0.2,3.8,0.2,5.7c0,10,0,19.9,0,29.9c0,3.2-0.1,6.4,0.2,9.6
		c0.5,4.5-0.7,8.7-1.7,13c-1.1,4.6-2.5,9.1-4.4,13.4c-2,4.6-4.5,8.8-8,12.6c-3.1,3.3-6.5,6.4-10.3,8.9c-5.9,3.8-12.2,6.4-18.9,8.4
		c-5.8,1.7-11.8,3-17.8,3.7c-2.7,0.3-5.3,0.3-8,0.5C157.8,296,157.5,295.9,157.2,296.1z"/>
	<path id="XMLID_1066_" class="st9" d="M211.7,284.3c0,0,3.4-2.8,7.2-6.7c6.3-6.4,15.1-9.4,23.9-8.5c3,0.3,5.9,0.1,8.3-1.1v-11.1
		L220,246.8l-11.7,24L211.7,284.3z"/>
	<path id="XMLID_1064_" class="st9" d="M120.8,289.7c0,0,50,18.9,89.4-13.7l1.7-2l-0.4,4.2c0,0-23.4,32.8-81.9,29.7
		c0,0-5.3-0.4-7.6-3.8C122,304.3,120.3,297.3,120.8,289.7z"/>
	<path id="XMLID_1063_" class="st10" d="M97.2,191.8c0,0,16.6,14,28.9,18.3c0,0-25.8-11.1-34.5,5.2C91.7,215.4,91.7,206,97.2,191.8z
		"/>
	<path id="XMLID_1062_" class="st9" d="M85.4,180.1c0,0-3.7,45.8,5.2,51.5c0,0-1.1-25.4,6.6-39.9C97.2,191.8,90.2,187.4,85.4,180.1z
		"/>
	<g>
		<linearGradient id="SVGID_4_" gradientUnits="userSpaceOnUse" x1="294.9827" y1="184.751" x2="172" y2="189.1962">
			<stop  offset="0" style="stop-color:#FF7B83"/>
			<stop  offset="1" style="stop-color:#FF9F83"/>
		</linearGradient>
		<path class="st11" d="M246.7,261.6c-0.6,0-1.1,0-1.7,0c-2-0.3-5-1.2-6.9-1.5c-4-0.5-7.5-3.3-11.1-5.1c-1.8-0.9-2.4-0.8-4-2
			c-2.3-1.8-3.6-2.5-4.2-5.4c-1.9-10.3-3.8-20.7-5.4-31c-1.4-8.5-2.7-17-3.8-25.5c-0.6-5-1.2-10.1-1.8-15.1
			c-0.3-3.1-0.5-6.3-0.6-9.4c-0.2-5.4-0.3-10.7-0.2-16.1c0-2.3-0.1-4.7,0.5-7c1.1-4.5,3.1-8.6,6-12.3c2.8-3.5,6.2-6,10.1-8.1
			c6.1-3.3,12.4-6.2,19-8.3c5.8-1.8,11.6-3.2,17.6-3.9c3.8-0.4,7.7-0.5,11.6-0.4c1.4,0,2.9,0,4.3,0c4.3,0.1,8.7-0.1,13,0.8
			c6.3,1.3,9,2.8,11.9,8.7c0.9,2,2,5.9,2,8c0,18.2,0.1,36.8,0,55c0,6.4,0.2,12.6,0,19c-0.1,2.8,0,3.2,0,6c0,1.1-0.3,3.2-1,4
			c-2,2.4-4.7,4.2-8,4.2c-1.2,0-1.4,0.3-1.4,1.5c0,6.9-1.7,15-4.6,21.3c-2.4,5.1-5.8,8.2-10,12c-5.2,4.7-10.2,7.9-16.9,9.5
			c-2.9,0.7-5.8,0.7-8.6,1.1c-1.4,0-2.9,0-4.3,0C247.7,261.4,247.2,261.4,246.7,261.6z"/>
		<path class="st12" d="M276.2,110.4c0,0.1,0,0.1,0,0.2c-1.5,0-3.1,0-4.6,0c0-0.1,0-0.1,0-0.2C273.2,110.4,274.7,110.4,276.2,110.4z
			"/>
		<path class="st13" d="M246.7,261.6c0.5-0.3,1-0.3,1.4,0C247.7,261.6,247.2,261.6,246.7,261.6z"/>
	</g>
	<g>
		
			<radialGradient id="SVGID_5_" cx="185.2244" cy="136.6104" r="110.3562" gradientTransform="matrix(0.9787 -0.2055 0.1084 0.5163 -10.8577 104.1369)" gradientUnits="userSpaceOnUse">
			<stop  offset="0" style="stop-color:#FF9F83"/>
			<stop  offset="1" style="stop-color:#FF7B83"/>
		</radialGradient>
		<path class="st14" d="M79.4,141.6c0-0.2,0-0.5,0-0.7c0.2-0.5,0.2-1,0-1.4c0-0.8,0-1.6,0-2.4c0.2-0.8,0.2-1.6,0-2.4
			c0-0.4,0-0.8,0-1.2c0.3-1.8,0.4-3.6,0.2-5.5c-0.4-4.2,0.6-8.1,2.4-11.8c3.2-6.9,7.8-12.7,13.4-17.8c4.6-4.1,9.7-7.6,15.1-10.5
			c7.1-3.9,14.6-7,22.3-9.4c8.7-2.7,17.5-4.8,26.5-6.2c3.5-0.5,7-0.6,10.5-0.7c1.8-0.1,3.6-0.2,5.4-0.1c0.9,0,1.8,0,2.7,0
			c1-0.1,2.1,0.1,3.1-0.1c2.3,0,4.6,0,7,0c0.7,0.3,1.5,0.1,2.2,0.1c0.7,0,1.4,0,2.1,0c0.7,0,1.4,0,2,0c9.1,0.1,18.2,0.9,27.1,2.6
			c8.5,1.6,16.9,3.7,25,6.5c4.8,1.7,9.5,3.7,14.2,5.8c7.5,3.4,14.4,7.7,21.3,12.3c4.1,2.7,7.9,5.8,11.2,9.3c3.8,4,7.1,8.2,9,13.4
			c0.7,2,0.7,4,0.8,6c0,0.9,0,1.9,0,2.8c0.2,4.5-1.7,8.3-4.5,11.7c-4.9,5.8-11.3,9.1-18.4,11.1c-6.2,1.7-12.5,2.5-19,2.2
			c-3.1-0.1-6.3-0.7-9.4-1c-4.5-0.5-9-1-13.6-1.6c-2.7-0.3-5.3-0.9-8-0.7c-2.7,0.2-5.4,0.5-8,1.5c-3.7,1.4-5.2,4.2-4.4,8.1
			c0.5,2.5,1.7,4.6,3.1,6.7c1.2,1.7,2.8,3,3.8,4.8c2,3.5,2.3,7.3,2.1,11.3c-0.1,3-1.7,5-3.6,6.9c-4.9,5.1-10.9,8.6-17.5,11
			c-3.5,1.2-7,2.1-10.7,2.7c-1.6,0.2-3.3,0.3-4.9,0.3c-5,0.1-10,0.1-15,0c-9.4-0.2-18.6-2-27.7-4.5c-5-1.3-9.9-2.9-14.7-4.8
			c-7.9-3.1-15.6-6.7-22.8-11.2c-6.3-3.9-12.1-8.3-17-13.7c-6-6.5-10.4-14-12.7-22.7c-0.4-1.6-0.4-3.2-0.5-4.7
			C79.6,142.7,79.7,142.1,79.4,141.6z"/>
		<path class="st5" d="M181,71.2c-1,0.5-2.1,0.2-3.1,0.2c-0.2-0.1-0.2-0.2,0-0.2C178.9,71.2,179.9,71.2,181,71.2z"/>
		<path class="st15" d="M302.9,127.1c0.1,0,0.1,0,0.2,0c0,1,0,2.1,0,3.1c-0.1,0-0.1,0-0.2,0C302.9,129.2,302.9,128.2,302.9,127.1z"
			/>
		<path class="st16" d="M177.8,71.2c0,0.1,0,0.2,0,0.2c-1,0-1.9,0-2.9,0c0-0.1,0-0.1,0-0.2C175.9,71.2,176.9,71.2,177.8,71.2z"/>
		<path class="st17" d="M79.4,134.6c0.4,0.8,0.4,1.6,0,2.4C79.4,136.2,79.4,135.4,79.4,134.6z"/>
		<path class="st17" d="M190.1,71.5c-0.7,0-1.5,0.2-2.2-0.2c0.7,0,1.4,0,2.2,0C190.2,71.3,190.3,71.4,190.1,71.5z"/>
		<path class="st18" d="M190.1,71.5c0-0.1,0-0.1,0-0.2c0.7,0,1.4,0,2.2,0c0.2,0.1,0.2,0.1,0,0.2C191.5,71.5,190.8,71.5,190.1,71.5z"
			/>
		<path class="st19" d="M192.3,71.5c0-0.1,0-0.1,0-0.2c0.7,0,1.4,0,2.2,0c0,0.1,0,0.1,0,0.2C193.7,71.5,193,71.5,192.3,71.5z"/>
		<path class="st6" d="M79.4,139.4c0.3,0.5,0.4,1,0,1.4C79.4,140.4,79.4,139.9,79.4,139.4z"/>
	</g>
	<path id="XMLID_1010_" class="st20" d="M85.1,179.4c0,0,8.2,14.2,42.1,30.9"/>
	<path id="XMLID_1008_" class="st20" d="M286.8,167.5c0,0-16.4,7.7-39.1,3.6"/>
	<path id="XMLID_1004_" class="st10" d="M258,153.7c0,0-42.1-9.4-41.6,5.6c0,0,2.3,7.5,5.7,10.4c0,0,5.2,5,3.6,13.3l-0.4,58.2
		c0,0-3.5,11.9-1.3,12.8l18,6.6c0,0-9-37.3-8.4-58.3C234.4,173,241.4,159.3,258,153.7z"/>
	<path id="XMLID_1003_" class="st21" d="M91,233.9c0,0-1.3-29.1,8.8-39.1l-2.9-2.3C96.9,192.5,89.4,199.4,91,233.9z"/>
	<path id="XMLID_1002_" class="st22" d="M96.3,214c0,0-3.7,13.8-2.8,34.8c0,0,2.2,24.7,29.2,39.2c0,0-36-20.4-19.1-73.6
		C103.7,214.4,101.6,211.9,96.3,214z"/>
	<path id="XMLID_1000_" class="st9" d="M224.9,188.2c0,0,3.1,46.8-1.9,64.8c-6.2,22.4-21.4,35.9-58,42c0,0,40.6-8.6,46.9-50.4
		l0.7-44.9C212.6,199.7,221,196.2,224.9,188.2z"/>
	<path id="XMLID_999_" class="st20" d="M292.2,216.2c-1.8-0.3-4-1.1-6.4-2.6l-3-25.4c0,0-0.6-16-9.7-16.7"/>
	<path id="XMLID_998_" class="st10" d="M285.9,167.8v45.8c0,0-2.2-38.4-37.2-41.9C248.6,171.7,272.8,175.1,285.9,167.8z"/>
	<path id="XMLID_997_" class="st22" d="M277.6,179.1c0,0,4.9,11.4,5.5,35.1C283.1,214.2,277.6,186.8,277.6,179.1z"/>
	<path id="XMLID_996_" class="st22" d="M290.8,217.5c0,0,1.2,33.5-36.3,41.5c0,0,30.2-12,31.7-43.1L290.8,217.5z"/>
	<g id="XMLID_993_">
		<ellipse id="XMLID_995_" class="st23" cx="180.5" cy="135.8" rx="27.6" ry="17.2"/>
		<path id="XMLID_994_" class="st9" d="M180.5,123.9c13.8,0,25.2,6.3,27.2,14.5c0.2-0.9,0.4-1.7,0.4-2.6c0-9.5-12.4-17.2-27.6-17.2
			c-15.2,0-27.6,7.7-27.6,17.2c0,0.9,0.1,1.8,0.4,2.6C155.3,130.2,166.7,123.9,180.5,123.9z"/>
	</g>
	<path id="XMLID_992_" class="st24" d="M302.3,135.4v74.5c0,0-2.2,8.6-12.9,4.9c0,0,8.3-2.8,8.3-12.6s0-60,0-60
		S301.7,138.5,302.3,135.4"/>
	<path id="XMLID_991_" class="st25" d="M153.3,138.5c0,0,1.6,13.5,26.7,14.8c18.2,0.9,27.2-9.9,27.8-14.8c0,0-4.7,13.4-28.1,13.4
		C159.1,151.9,153.3,138.5,153.3,138.5z"/>
	<g id="XMLID_986_">
		<g id="XMLID_988_">
			<ellipse id="XMLID_990_" class="st23" cx="138.2" cy="170.1" rx="16.8" ry="10.4"/>
			<path id="XMLID_989_" class="st9" d="M138.2,162.9c8.4,0,15.4,3.8,16.6,8.9c0.1-0.5,0.2-1.1,0.2-1.6c0-5.8-7.5-10.4-16.8-10.4
				s-16.8,4.7-16.8,10.4c0,0.5,0.1,1.1,0.2,1.6C122.8,166.7,129.8,162.9,138.2,162.9z"/>
		</g>
		<path id="XMLID_987_" class="st25" d="M121.6,171.7c0,0,2.3,9,17.5,8.9c0,0,13.2-0.3,15.7-8.9c0,0-3,7.5-15.7,8
			C139.1,179.7,126,180.2,121.6,171.7z"/>
	</g>
	<g id="XMLID_981_">
		<g id="XMLID_983_">
			<ellipse id="XMLID_985_" class="st23" cx="120.3" cy="139.2" rx="16.8" ry="10.4"/>
			<path id="XMLID_984_" class="st9" d="M120.3,131.9c8.4,0,15.4,3.8,16.6,8.9c0.1-0.5,0.2-1.1,0.2-1.6c0-5.8-7.5-10.4-16.8-10.4
				s-16.8,4.7-16.8,10.4c0,0.5,0.1,1.1,0.2,1.6C105,135.8,111.9,131.9,120.3,131.9z"/>
		</g>
		<path id="XMLID_982_" class="st25" d="M103.7,140.8c0,0,2.3,9,17.5,8.9c0,0,13.2-0.3,15.7-8.9c0,0-3,7.5-15.7,8
			C121.2,148.7,108.1,149.2,103.7,140.8z"/>
	</g>
	<g id="XMLID_976_">
		<g id="XMLID_978_">
			<ellipse id="XMLID_980_" class="st23" cx="126.1" cy="108.8" rx="16.8" ry="10.4"/>
			<path id="XMLID_979_" class="st9" d="M126.1,101.6c8.4,0,15.4,3.8,16.6,8.9c0.1-0.5,0.2-1.1,0.2-1.6c0-5.8-7.5-10.4-16.8-10.4
				s-16.8,4.7-16.8,10.4c0,0.5,0.1,1.1,0.2,1.6C110.7,105.4,117.7,101.6,126.1,101.6z"/>
		</g>
		<path id="XMLID_977_" class="st25" d="M109.5,110.4c0,0,2.3,9,17.5,8.9c0,0,13.2-0.3,15.7-8.9c0,0-3,7.5-15.7,8
			C127,118.4,113.9,118.8,109.5,110.4z"/>
	</g>
	<g id="XMLID_971_">
		<g id="XMLID_973_">
			<ellipse id="XMLID_975_" class="st23" cx="161.8" cy="93.2" rx="16.8" ry="10.4"/>
			<path id="XMLID_974_" class="st9" d="M161.8,86c8.4,0,15.4,3.8,16.6,8.9c0.1-0.5,0.2-1.1,0.2-1.6c0-5.8-7.5-10.4-16.8-10.4
				S145,87.6,145,93.3c0,0.5,0.1,1.1,0.2,1.6C146.4,89.8,153.4,86,161.8,86z"/>
		</g>
		<path id="XMLID_972_" class="st25" d="M145.2,94.8c0,0,2.3,9,17.5,8.9c0,0,13.2-0.3,15.7-8.9c0,0-3,7.5-15.7,8
			C162.7,102.8,149.6,103.3,145.2,94.8z"/>
	</g>
	<g id="XMLID_966_">
		<g id="XMLID_968_">
			<ellipse id="XMLID_970_" class="st23" cx="202.4" cy="95.1" rx="16.8" ry="10.4"/>
			<path id="XMLID_969_" class="st9" d="M202.4,87.8c8.4,0,15.4,3.8,16.6,8.9c0.1-0.5,0.2-1.1,0.2-1.6c0-5.8-7.5-10.4-16.8-10.4
				s-16.8,4.7-16.8,10.4c0,0.5,0.1,1.1,0.2,1.6C187,91.7,194,87.8,202.4,87.8z"/>
		</g>
		<path id="XMLID_967_" class="st25" d="M185.8,96.7c0,0,2.3,9,17.5,8.9c0,0,13.2-0.3,15.7-8.9c0,0-3,7.5-15.7,8
			C203.3,104.6,190.2,105.1,185.8,96.7z"/>
	</g>
	<g id="XMLID_961_">
		<g id="XMLID_963_">
			<ellipse id="XMLID_965_" class="st23" cx="243.6" cy="106.8" rx="16.8" ry="10.4"/>
			<path id="XMLID_964_" class="st9" d="M243.6,99.5c8.4,0,15.4,3.8,16.6,8.9c0.1-0.5,0.2-1.1,0.2-1.6c0-5.8-7.5-10.4-16.8-10.4
				s-16.8,4.7-16.8,10.4c0,0.5,0.1,1.1,0.2,1.6C228.3,103.3,235.2,99.5,243.6,99.5z"/>
		</g>
		<path id="XMLID_962_" class="st25" d="M227,108.4c0,0,2.3,9,17.5,8.9c0,0,13.2-0.3,15.7-8.9c0,0-3,7.5-15.7,8
			C244.5,116.3,231.4,116.8,227,108.4z"/>
	</g>
	<g id="XMLID_956_">
		<g id="XMLID_958_">
			<ellipse id="XMLID_960_" class="st23" cx="263.1" cy="133" rx="16.8" ry="10.4"/>
			<path id="XMLID_959_" class="st9" d="M263.1,125.8c8.4,0,15.4,3.8,16.6,8.9c0.1-0.5,0.2-1.1,0.2-1.6c0-5.8-7.5-10.4-16.8-10.4
				c-9.3,0-16.8,4.7-16.8,10.4c0,0.5,0.1,1.1,0.2,1.6C247.8,129.6,254.7,125.8,263.1,125.8z"/>
		</g>
		<path id="XMLID_957_" class="st25" d="M246.5,134.6c0,0,2.3,9,17.5,8.9c0,0,13.2-0.3,15.7-8.9c0,0-3,7.5-15.7,8
			C264,142.6,250.9,143.1,246.5,134.6z"/>
	</g>
	<path id="XMLID_936_" class="st26" d="M194.7,66.4c0,0-2.8-5.2-3.3-9c-0.7-5.9-0.4-11.9,4.3-18.2c3.5-4.7,13.5-10.6,22-7.5
		c0,0-10,5.8-6,16.3s-4.5,19.5-4.5,19.5S202.9,69.9,194.7,66.4z"/>
	<path id="XMLID_1012_" class="st27" d="M120.8,289.7l0.2,7.9c0,0,0,37.2,48.1,34.1c0,0,41.3-0.5,42.7-40.9V274
		c0,0,13.8-14.7,13.8-41c0-15.9-0.1-46.5-0.1-46.5"/>
	<path id="XMLID_3_" class="st28" d="M211.7,274.2c-17.3,20.9-58,21.7-58,21.7C86,295.8,91,239.1,91,239.1V234
		c-12.9,0.3-12.3-9.4-12.3-9.4l0.8-95.4c0,0-1.9-42.3,76.9-56.6c0,0,69.1-12.2,122.4,24.1c0,0,31.4,18.5,22.5,38.8
		c0,0-6.2,18.2-39.1,18.5c0,0-22.2-2.5-29.2-3.4c0,0-13.2-1-15.7,5.5c-0.6,1.6-1.3,6.8,4.9,13.8c0,0,5.8,4.9,3.5,16.4l-0.2,0.2
		c-13,27-71,15-71,15c-81-20-75-64-75-64"/>
	<path id="XMLID_1009_" class="st28" d="M302.5,132l0.7,76.3c0,1.8-0.6,3.6-1.9,5c-1.7,1.8-4.8,3.2-8.8,3.2"/>
	<path id="XMLID_1007_" class="st27" d="M292.6,216.3c0,0,3.9,41.5-43,45.4c0,0-14.5-0.9-26.6-8.8"/>
	<path id="XMLID_1006_" class="st27" d="M251.4,261.9v19.6c0,0,2.3,21-21.8,22.7c-5.1,0.4-12.6-1.5-19.1-4.7"/>
	<g id="XMLID_948_">
		<path id="XMLID_955_" class="st29" d="M171.6,64.2c-1.5,1.2-1.8,3.2-1.7,5.4l3.5,67.9c0.1,2.5,2.3,4.5,4.8,4.4h1.4
			c2.4-0.1,4.4-2,4.5-4.5l2.8-67.9c0.1-2-1.1-5-2.2-6.4"/>
		<path id="XMLID_954_" class="st30" d="M184.9,63.5c1.2,1.5,2.1,4.1,2.1,6.1l-2.8,67.9c-0.1,2.4-2.1,4.4-4.5,4.5h-1.4
			c-2.5,0.1-4.7-1.9-4.8-4.4L170,69.7c-0.1-2.2,0.1-3.6,1.4-5.2c0,0,5.6,2.2,11,0.2c0,0-7.1,0.9-4,6.1c0,0-4.3-1.7-4.2,6.4
			s1,59.2,1.9,61.5c0.9,2.4,5,2.3,5.7-1.2s3.9-67.6,3.9-67.6S186.1,67.3,184.9,63.5z"/>
		<g id="XMLID_951_">
			<path id="XMLID_953_" class="st26" d="M187.1,58.2c-0.9,6.2-5.2,8.2-9.7,8.2s-7.9-2.6-9.1-8.5c0,0-6.8-23.8-5.9-27.7
				c0,0,13.3-10.2,31.2-1.2L187.1,58.2z"/>
			<path id="XMLID_952_" class="st31" d="M186.3,67.9c-7.4,5.1-16,1.1-16,1.1"/>
		</g>
		<path id="XMLID_950_" class="st32" d="M162.4,30.2c0,0,0.5,9.4,3.6,18.5c0,0,2,14.6,7.2,16.8c0,0,7.5,3.5,11.8-2.3
			c0,0,1.8-1.7,2.6-7.7l5.9-26.5c0,0-6.2,29.1-9.1,31.4c-2.9,2.3,0-33.1,0-33.1s-2,34.8-4.8,35.1c-3.1,0.3-4.3-35.7-4.3-35.7
			s1.2,33.4-0.5,34.8c-1.7,1.4-6.5-32.9-6.5-32.9s4.8,33.7,2.8,32C169.2,58.9,162.4,30.2,162.4,30.2z"/>
		<path id="XMLID_949_" class="st33" d="M184.9,70.9l-3.1,65.6c0,0,0.3,3.8-3.5,3.6c0,0,1.1-0.5,1.7-5.7c0.6-5.2,2.9-63.2,2.9-63.2
			L184.9,70.9z"/>
	</g>
	<g id="XMLID_937_">
		<path id="XMLID_947_" class="st34" d="M194.9,66.2c-1.7,1-2.2,2.9-2.4,5.2l-5.6,67.8c-0.2,2.5,1.6,4.8,4.2,5l1.4,0.1
			c2.4,0.3,4.7-1.4,5.1-3.8l11.8-67c0.3-2-0.5-5.1-1.3-6.7"/>
		<path id="XMLID_946_" class="st35" d="M208.2,67.3c1,1.7,1.6,4.3,1.2,6.3l-11.8,67c-0.4,2.4-2.6,4.1-5.1,3.8l-1.4-0.1
			c-2.5-0.3-4.4-2.5-4.2-5l5.6-67.8c0.2-2.2,0.6-3.6,2.1-5c0,0,5.2,2.9,10.9,1.6c0,0-7.1,0-4.8,5.5c0,0-4-2.3-5,5.7
			s-6.8,58.8-6.2,61.3s4.7,2.9,5.9-0.5s12.8-66.5,12.8-66.5S208.9,71.2,208.2,67.3z"/>
		<g id="XMLID_943_">
			<path id="XMLID_945_" class="st36" d="M193.1,70.7c0,0,8,5.2,16,1.1"/>
		</g>
		<path id="XMLID_940_" class="st37" d="M207.3,74.6l-11.8,64.7c0,0-0.2,3.8-4,3.1c0,0,1.1-0.3,2.4-5.4c1.3-5.1,11.3-62.3,11.3-62.3
			L207.3,74.6z"/>
	</g>
	<path id="XMLID_935_" class="st32" d="M194.7,66.4c0,0-12.2-21.5,8.3-32.9c0,0,6.6-4.5,14.8-1.8c0,0-16.6-1.5-20.5,11.5
		s0.3,20.2,0.3,20.2s-5.1-21.1,12.5-28.5c0,0-12.5,6.6-9.5,28.5c0,0-2.3-20,11.4-28.2l3.4-1.8c0,0-13.1,4.8-12.5,21.8l0.6,9.7
		c0,0,3.1-4,3.1-11.1s0.5-13.8,7.1-18.3c0,0-6,3.7-5.1,17.2c0,0,0.3,9.8-2.2,12.8c0,0,7.2-5.8,4.8-18.9c0,0,5.2,10.2-3.8,20.9
		C207.3,67.5,202.3,70.2,194.7,66.4z"/>
</g>
</svg>
