<?xml version="1.0" encoding="utf-8"?>
<!-- Generator: Adobe Illustrator 21.1.0, SVG Export Plug-In . SVG Version: 6.00 Build 0)  -->
<svg version="1.1" id="Layer_1" xmlns="http://www.w3.org/2000/svg" xmlns:xlink="http://www.w3.org/1999/xlink" x="0px" y="0px"
	 viewBox="0 0 182 182" style="enable-background:new 0 0 182 182;" xml:space="preserve">
<style type="text/css">
	.st0{fill:#FFF0CD;}
	.st1{fill:#FFFFE6;}
	.st2{fill:none;stroke:#F49782;stroke-width:3;stroke-linecap:round;stroke-linejoin:round;stroke-miterlimit:10;}
	.st3{fill:#F49782;}
</style>
<g id="XMLID_3318_">
	<path id="XMLID_3549_" class="st0" d="M111.9,152.8c-0.3,7.6-5.9,11-11.3,13.7c-5.6,2.8-11.5,4.7-11.8,12.4
		c0.3-7.4-5.6-10.3-10.9-13.5c-4.9-3-10.2-6.2-10.2-13c0-0.3-0.3-1.1,0-1C88.4,161,111.9,152.8,111.9,152.8z"/>
	<path id="XMLID_3536_" class="st0" d="M69.7,29.8c-0.3,0.1,0-0.7,0-1c0.5-6.9,5.9-9.5,11.1-12.3c5.4-2.8,11.5-5.3,11.8-12.7
		c-0.3,7.6,5.4,10.2,10.9,13.2c5.2,3,10.7,6.9,10.4,14.5C113.7,31.5,90.8,21.6,69.7,29.8z"/>
	<path id="XMLID_3534_" class="st0" d="M119.9,33c-0.3-0.2,0.5-0.4,0.8-0.7c5.2-4.5,11-2.7,16.5-0.8c5.9,2,11.9,4.3,17.4-0.6
		c-5.6,5.2-3.4,11-1.7,17c1.5,5.9,2.7,12.3-3,17.5C149.8,65.5,140.5,42.3,119.9,33z"/>
	<path id="XMLID_3532_" class="st0" d="M150.8,68.8c-0.1-0.3,0.7,0,1,0c6.9,0.4,9.8,5.8,12.4,10.8c2.9,5.4,5.5,11.4,12.8,11.6
		c-7.7-0.2-10.1,5.5-13.1,11c-3,5.2-6.7,10.7-14.4,10.6C149.8,112.7,159.3,89.6,150.8,68.8z"/>
	<path id="XMLID_3530_" class="st0" d="M149.6,117.5c0.1-0.3,0.5,0.4,0.7,0.7c4.7,5.1,3.1,10.8,1.5,16.4c-1.6,5.9-3.9,12.1,1.3,17.3
		c-5.4-5.4-11.2-2.9-17.1-1c-5.8,1.8-12.3,3.2-17.7-2.2C118.5,148.8,141.3,138.5,149.6,117.5z"/>
	<path id="XMLID_3528_" class="st0" d="M33.3,65c-5.6-5.2-4.5-11.7-3-17.5c1.6-6.1,3.9-11.8-1.7-17c5.3,4.9,11.5,2.5,17.4,0.6
		c5.5-1.8,11.2-3.6,16.5,0.8c0.3,0.2,1,0.5,0.8,0.7C42.6,41.9,33.3,65,33.3,65z"/>
	<path id="XMLID_3526_" class="st0" d="M28.5,115.2c-7.6,0.2-11.3-5.2-14.4-10.6c-3-5.4-5.4-11.2-13.1-11
		c7.4-0.2,10.1-6.3,12.8-11.6c2.7-5.1,5.5-10.4,12.4-10.8c0.3,0,1.1-0.3,1,0C19,92.1,28.5,115.2,28.5,115.2z"/>
	<path id="XMLID_3524_" class="st0" d="M62.6,151.8c-5.4,5.3-11.8,4-17.7,2.2c-6-2-11.7-4.4-17.1,1c5.2-5.2,3-11.3,1.3-17.3
		c-1.5-5.5-3.2-11.3,1.5-16.4c0.3-0.3,0.6-1,0.7-0.7C39.8,141.7,62.6,151.8,62.6,151.8z"/>
	<path id="XMLID_3523_" class="st1" d="M84.3,132.9c-26.2,0-47.4-21.2-47.4-47.3s21.3-47.3,47.4-47.3c0,0-32.2,14.5-30.4,48.4
		C55.7,121.2,84.3,132.9,84.3,132.9z"/>
	<g id="XMLID_3396_">
		<path id="XMLID_3522_" class="st2" d="M166.6,78.7c-3.2-5.6-6.5-11.5-14.7-11.2l-1.7-2.5c5.8-5.8,4.3-12.6,2.4-18.9
			c-2-6.4-4.6-12.4,1.1-18.3c-5.5,5.5-12.2,3.2-18.5,1.3c-6.3-1.7-12.7-3.6-18.4,2.5l0.2,0.2c-1.2-0.5-2.4-1.4-2.4-1.4
			c0-8.1-6-11.9-11.7-15c-6-3.1-12.1-5.5-12.1-13.7c0,7.8-6.4,10.8-12.1,14c-5.6,3.2-11.5,6.5-11.2,14.7c0,0-1.1,0.8-2.3,1.3
			l0.1-0.1c-5.6-6-12.1-4.1-18.4-2.5c-6.3,1.7-12.9,4.1-18.5-1.3c5.8,5.8,3.1,11.8,1.1,18.3c-2,6.2-3.4,12.9,2.4,18.8
			c-0.6,1.3-1.6,2.6-1.6,2.6c-8.2-0.3-11.5,5.6-14.7,11.2c-3.2,5.8-6.3,12-14.1,12c8.2,0,10.7,6.3,13.8,12.1
			c3,5.8,6.9,11.6,15.1,11.6c0,0,1,1.3,1.6,2.6c-5.9,5.6-4.1,12-2.4,18.2c1.7,6.3,4.1,12.8-1.3,18.4c5.8-5.8,11.8-3.1,18.4-1.1
			c6.3,2,13,3.4,18.9-2.4l-0.1-0.1c1.1,0.5,2.2,1.3,2.2,1.3c-0.3,8.2,5.6,11.5,11.2,14.6c5.8,3.2,12.1,6.3,12.1,14
			c0-8.2,6.3-10.6,12.1-13.7c5.8-3,11.7-6.9,11.7-15c0,0,1.3-1,2.6-1.6c5.8,5.6,12.6,4.1,18.8,2.3c6.4-2,12.5-4.6,18.4,1.1
			c-5.5-5.5-3.2-12.1-1.3-18.4c1.7-6.3,3.6-12.7-2.5-18.4l1.3-2.1c8.1,0,12-5.9,15.1-11.6c3.1-5.9,5.5-12.1,13.8-12.1
			C172.8,90.7,169.8,84.5,166.6,78.7z"/>
		<ellipse id="XMLID_3521_" class="st2" cx="91.2" cy="91.1" rx="64.4" ry="64.4"/>
		<g id="XMLID_3500_">
			<path id="XMLID_3519_" class="st2" d="M151.9,67.5c8.2-0.3,11.5,5.6,14.7,11.2c3.2,5.8,6.3,12,14.1,12c-8.2,0-10.7,6.3-13.8,12.1
				c-3,5.8-6.9,11.6-15.1,11.6"/>
			<path id="XMLID_3517_" class="st2" d="M30.4,114.6c-8.1,0-12-5.9-15.1-11.6c-3.1-5.9-5.5-12.1-13.8-12.1c7.9,0,10.8-6.3,14.1-12
				c3.2-5.6,6.5-11.5,14.7-11.2"/>
			<path id="XMLID_3515_" class="st2" d="M67.5,30.5c-0.3-8.2,5.6-11.5,11.2-14.6c5.8-3.2,12.1-6.3,12.1-14
				c0,8.2,6.3,10.6,12.1,13.7c5.8,3,11.7,6.9,11.7,15"/>
			<path id="XMLID_3513_" class="st2" d="M114.7,151.5c0,8.1-6,11.9-11.7,15c-6,3.1-12.1,5.5-12.1,13.7c0-7.8-6.4-10.8-12.1-14
				c-5.6-3.2-11.5-6.5-11.2-14.6"/>
			<path id="XMLID_3511_" class="st2" d="M116.8,31.7c5.6-6,12.1-4.1,18.4-2.5c6.3,1.7,12.9,4.1,18.5-1.3
				c-5.8,5.8-3.1,11.8-1.1,18.3c2,6.2,3.4,13-2.4,18.9"/>
			<path id="XMLID_3507_" class="st2" d="M65.4,150.4c-5.8,5.8-12.7,4.2-18.9,2.4c-6.4-2-12.5-4.6-18.4,1.1
				c5.5-5.5,3.2-12.1,1.3-18.4c-1.7-6.3-3.6-12.7,2.5-18.4"/>
			<path id="XMLID_3504_" class="st2" d="M32,65c-5.8-5.8-4.3-12.6-2.4-18.9c2-6.4,4.6-12.4-1.1-18.3c5.5,5.5,12.2,3.2,18.5,1.3
				c6.3-1.7,12.7-3.6,18.4,2.5"/>
			<path id="XMLID_3502_" class="st2" d="M150.6,116.6c6,5.6,4.1,12,2.5,18.4c-1.7,6.3-4.1,12.8,1.3,18.4
				c-5.8-5.8-11.8-3.1-18.4-1.1c-6.3,2-13,3.4-18.9-2.4"/>
		</g>
		<g id="XMLID_3493_">
			<path id="XMLID_3494_" class="st3" d="M100.9,92.9v14l0,0c-2.3-1.3-3.6-3.7-3.6-6.4v-5.8c-1.8,0.8-3.4,1.3-4.6,1.3
				c-1.4,0-3.2-0.8-5.2-2.5c-2.3-1.8-3.4-3.6-3.4-5.3v-9.7h-5.6l-1.8-3.4h27.2l1.8,3.4h-4.7v10.6V92.9z M97.2,90.5V78.6h-9.5v9.9
				c0,3.1,1,4.6,3.2,4.6C93,93,95.1,92.3,97.2,90.5z"/>
		</g>
		<g id="XMLID_3408_">
			<polygon id="XMLID_3490_" class="st3" points="91.2,32 87.9,37.8 94.4,37.8 			"/>
			<polygon id="XMLID_3489_" class="st3" points="91.2,150.1 94.4,144.3 87.9,144.3 			"/>
			<polygon id="XMLID_3488_" class="st3" points="80.8,32.8 78.5,39.2 85.1,38 			"/>
			<polygon id="XMLID_3487_" class="st3" points="101.4,149.3 103.7,142.9 97.1,144.1 			"/>
			<polygon id="XMLID_3485_" class="st3" points="70.8,35.5 69.7,42.1 76,39.8 			"/>
			<polygon id="XMLID_3483_" class="st3" points="111.4,146.6 112.5,140 106.2,142.2 			"/>
			<polygon id="XMLID_3482_" class="st3" points="61.6,39.8 61.6,46.6 67.3,43.2 			"/>
			<polygon id="XMLID_3481_" class="st3" points="120.7,142.2 120.7,135.5 115,138.9 			"/>
			<polygon id="XMLID_3480_" class="st3" points="54.2,52.3 59.3,48 53.1,45.8 			"/>
			<polygon id="XMLID_3479_" class="st3" points="128,129.7 122.9,134 129.2,136.2 			"/>
			<polygon id="XMLID_3477_" class="st3" points="48,59.3 52.3,54.2 45.7,53.1 			"/>
			<polygon id="XMLID_3476_" class="st3" points="134.3,122.8 130,127.9 136.5,129 			"/>
			<polygon id="XMLID_3475_" class="st3" points="46.5,61.5 39.8,61.5 43.1,67.2 			"/>
			<polygon id="XMLID_3474_" class="st3" points="139.1,114.9 135.7,120.5 142.5,120.5 			"/>
			<polygon id="XMLID_3473_" class="st3" points="39.7,76 42.1,69.7 35.4,70.8 			"/>
			<polygon id="XMLID_3471_" class="st3" points="142.5,106 140.2,112.4 146.8,111.3 			"/>
			<polygon id="XMLID_3470_" class="st3" points="38,85.1 39.1,78.5 32.7,80.8 			"/>
			<polygon id="XMLID_3469_" class="st3" points="144.3,97 143.2,103.6 149.5,101.3 			"/>
			<polygon id="XMLID_3468_" class="st3" points="37.7,94.4 37.7,87.7 31.9,91.1 			"/>
			<polygon id="XMLID_3467_" class="st3" points="144.5,87.7 144.5,94.4 150.3,91.1 			"/>
			<polygon id="XMLID_3465_" class="st3" points="38,97 32.7,101.3 39.1,103.6 			"/>
			<polygon id="XMLID_3464_" class="st3" points="149.5,80.8 143.2,78.5 144.3,85.1 			"/>
			<polygon id="XMLID_3463_" class="st3" points="39.7,106 35.4,111.3 42.1,112.4 			"/>
			<polygon id="XMLID_3462_" class="st3" points="142.5,76 146.8,70.8 140.2,69.7 			"/>
			<polygon id="XMLID_3461_" class="st3" points="43.1,114.9 39.8,120.5 46.5,120.5 			"/>
			<polygon id="XMLID_3459_" class="st3" points="139.1,67.2 142.5,61.5 135.7,61.5 			"/>
			<polygon id="XMLID_3458_" class="st3" points="45.7,129 52.3,127.9 48,122.8 			"/>
			<polygon id="XMLID_3456_" class="st3" points="136.5,53.1 130,54.2 134.3,59.3 			"/>
			<polygon id="XMLID_3455_" class="st3" points="53.1,136.2 59.3,134 54.2,129.7 			"/>
			<polygon id="XMLID_3453_" class="st3" points="129.2,45.8 122.9,48 128,52.3 			"/>
			<polygon id="XMLID_3452_" class="st3" points="61.6,142.2 67.3,138.9 61.6,135.5 			"/>
			<polygon id="XMLID_3451_" class="st3" points="120.7,39.8 115,43.2 120.7,46.6 			"/>
			<polygon id="XMLID_3450_" class="st3" points="69.7,140 70.8,146.6 76,142.2 			"/>
			<polygon id="XMLID_3449_" class="st3" points="112.5,42.1 111.4,35.5 106.2,39.8 			"/>
			<polygon id="XMLID_3448_" class="st3" points="78.5,142.9 80.8,149.3 85.1,144.1 			"/>
			<polygon id="XMLID_3447_" class="st3" points="103.7,39.2 101.4,32.8 97.1,38 			"/>
			<path id="XMLID_3435_" class="st3" d="M91.2,142.6c28.5,0,51.8-23.1,51.8-51.5s-23.3-51.5-51.8-51.5S39.4,62.6,39.4,91.1
				S62.6,142.6,91.2,142.6z M91.2,41.3c27.5,0,49.9,22.3,49.9,49.7s-22.4,49.7-49.9,49.7s-49.9-22.3-49.9-49.7S63.6,41.3,91.2,41.3z
				"/>
			<path id="XMLID_3409_" class="st3" d="M91.2,139.7c27,0,48.9-21.9,48.9-48.7s-22-48.7-48.9-48.7S42.3,64.3,42.3,91.1
				S64.3,139.7,91.2,139.7z M91.2,43.3c26.4,0,47.8,21.4,47.8,47.7c0,26.3-21.5,47.7-47.8,47.7s-47.8-21.4-47.8-47.7
				C43.3,64.8,64.8,43.3,91.2,43.3z"/>
		</g>
		<polygon id="XMLID_3401_" class="st2" points="91.2,138.8 50,66.7 132.2,66.7 		"/>
	</g>
</g>
</svg>
