<svg xmlns="http://www.w3.org/2000/svg" viewBox="0 0 80 75"><switch><g><g fill="#1A1746" stroke="#FFC600" stroke-miterlimit="10"><path d="M13.1 10.6l8.3-4.9h.1c1.2-.7 2.9-.6 4.8.6l35.8 20.8c3.5 2 6.3 6.5 6.3 10l-.1 24.1c0 1.5-.5 2.6-1.4 3.2l-8.4 5 .1-26.3c0-3.7-2-7.2-5.2-9.1L13.1 10.6z"/><path d="M17.9 47.9l11.7 6.8.1 8.1c0 .7.9 1.7 1.4 1.5L42.3 62l11.4 6.6c3.5 2 6.4.8 6.4-2.7l.1-23.9c0-3.5-2.8-8-6.3-10L18 11.1c-3.5-2-6.4-.8-6.4 2.7l-.1 24.1c.1 3.5 2.9 8 6.4 10z"/><path d="M26.2 35.1c0-1.6-1.3-3.7-2.9-4.6-1.6-.9-2.9-.4-2.9 1.2s1.3 3.7 2.9 4.6c1.6 1 2.9.4 2.9-1.2zm11.9 7c0-1.6-1.3-3.7-2.9-4.6s-2.9-.4-2.9 1.2 1.3 3.7 2.9 4.6 2.9.4 2.9-1.2zm11.8 6.8c0-1.6-1.3-3.7-2.9-4.6s-2.9-.4-2.9 1.2 1.3 3.7 2.9 4.6c1.6 1 2.9.4 2.9-1.2z"/></g></g></switch></svg>