<svg xmlns="http://www.w3.org/2000/svg" viewBox="0 0 40 40"><switch><g><path fill="#0D0D35" d="M6.3 18.3c-1.2-2.1 0-7.3 6-10.8s11.2-1.6 12.1 0c.9 1.6 4.9 6.4 4.9 6.4S25 19 20.4 21.7 9.3 25.4 9.3 25.4l-3-7.1z"/><path fill="#1A1746" stroke="#FFC600" stroke-miterlimit="10" d="M24.9 8c3.2 4.9 6 2.8 9.2 8.7 1.9 3.6.7 11.2-7.4 15.9s-14.7 2.2-17-1.7c-3.4-5.8-.4-7.3-3.2-12.1l.3-.2s.7 1.4 2.4 2c1.6.6 5.8 0 9.4-2.2s7.3-6 6.5-9.2l-.6-1 .4-.2z"/><path fill="#1A1746" stroke="#FFC600" stroke-miterlimit="10" d="M18.8 18.7c-5.3 3.1-11.2 3-13.1-.2s1-8.3 6.3-11.4 11.2-3 13.1.2c1.8 3.2-1 8.3-6.3 11.4zM12.4 7.9c-4.9 2.8-7.6 7.4-6 10.2s6.9 2.7 11.8-.1 7.6-7.4 6-10.2-6.9-2.8-11.8.1z"/></g></switch></svg>