<?xml version="1.0" encoding="utf-8"?>
<!-- Generator: Adobe Illustrator 21.1.0, SVG Export Plug-In . SVG Version: 6.00 Build 0)  -->
<svg version="1.1" id="Layer_1" xmlns="http://www.w3.org/2000/svg" xmlns:xlink="http://www.w3.org/1999/xlink" x="0px" y="0px"
	 viewBox="0 0 542 327" style="enable-background:new 0 0 542 327;" xml:space="preserve">
<style type="text/css">
	.st0{clip-path:url(#SVGID_2_);}
	.st1{fill:#371C5A;}
	.st2{fill:#603C96;}
	.st3{fill:url(#XMLID_2_);}
</style>
<g>
	<defs>
		<rect id="SVGID_1_" x="0" y="0" width="542" height="327"/>
	</defs>
	<clipPath id="SVGID_2_">
		<use xlink:href="#SVGID_1_"  style="overflow:visible;"/>
	</clipPath>
	<g id="XMLID_2355_" class="st0">
		<rect id="XMLID_2388_" x="-8.4" y="-11.3" class="st1" width="558.9" height="344.8"/>
		<g id="XMLID_2356_">
			<g id="XMLID_2365_">
				<g id="XMLID_2366_">
					<path id="XMLID_2386_" class="st2" d="M178.8,175.4h-2.9c-2.5,0-4.6-2-4.6-4.5v-8.7h-12.2v8.7c0,2.5-2.1,4.5-4.6,4.5h-2.9
						c-0.5,0-0.9-0.4-0.9-0.9v-29.9c0-0.5,0.4-0.9,0.9-0.9h2.9c2.5,0,4.6,2,4.6,4.5v7.8h12.2v-7.8c0-2.5,2.1-4.5,4.6-4.5h2.9
						c0.5,0,0.9,0.4,0.9,0.9v29.9C179.7,175,179.3,175.4,178.8,175.4z"/>
					<path id="XMLID_2383_" class="st2" d="M218.5,175.4h-4.4c-1.9,0-3.6-1.2-4.3-2.9l-1-2.6h-11.7l-1.1,2.7
						c-0.7,1.7-2.4,2.8-4.3,2.8h-4.4c-0.7,0-1.1-0.7-0.9-1.3l11.8-29.9c0.1-0.4,0.5-0.6,0.9-0.6h7.9c0.4,0,0.7,0.2,0.9,0.6
						l11.5,29.9C219.6,174.8,219.2,175.4,218.5,175.4z M206.5,163.6l-3.5-10.1l-3.6,10.1H206.5z"/>
					<path id="XMLID_2381_" class="st2" d="M248.6,164.9c0,5.4-2.4,8.9-7.2,10.5c-1.7,0.6-3.5,0.9-5.4,0.9c-3.8,0-7.3-1-10.6-3.1
						c-0.4-0.3-0.5-0.8-0.3-1.2l0.8-1.5c1.1-2.1,3.8-3,6-1.9c1.3,0.6,2.6,0.9,3.9,0.9c1.1,0,2-0.3,2.8-0.8c0.9-0.6,1.3-1.4,1.3-2.4
						c0-0.9-0.5-1.7-1.5-2.3c-0.7-0.5-2-0.9-3.7-1.4c-2.1-0.6-3.4-1-4-1.3c-0.9-0.4-1.6-0.8-2.2-1.3c-1.7-1.4-2.6-3.5-2.6-6.3
						c0-2.9,0.9-5.4,2.7-7.3c2.1-2.3,4.9-3.4,8.4-3.4c3.2,0,6.4,0.7,9.4,2.2c0.5,0.2,0.7,0.8,0.4,1.3l-0.8,1.6
						c-1,1.9-3.3,2.8-5.5,2.2c-0.7-0.2-1.5-0.3-2.2-0.3c-0.9,0-1.7,0.2-2.4,0.7c-0.8,0.5-1.2,1.2-1.2,2.1c0,0.8,0.5,1.6,1.6,2.2
						c0.5,0.3,1.9,0.8,4.3,1.4c3,0.9,5.1,2.1,6.4,3.6C248.1,161.1,248.6,162.8,248.6,164.9z"/>
					<path id="XMLID_2379_" class="st2" d="M284.6,175.4h-2.9c-2.5,0-4.6-2-4.6-4.5v-8.7h-12.2v8.7c0,2.5-2.1,4.5-4.6,4.5h-2.9
						c-0.5,0-0.9-0.4-0.9-0.9v-29.9c0-0.5,0.4-0.9,0.9-0.9h2.9c2.5,0,4.6,2,4.6,4.5v7.8H277v-7.8c0-2.5,2.1-4.5,4.6-4.5h2.9
						c0.5,0,0.9,0.4,0.9,0.9v29.9C285.5,175,285.1,175.4,284.6,175.4z"/>
					<path id="XMLID_2377_" class="st2" d="M340.4,144.9l-9.8,29.9c-0.1,0.4-0.5,0.6-0.9,0.6h-4.6c-2,0-3.8-1.3-4.4-3.1l-4.9-15.3
						l-5.2,15.3c-0.6,1.8-2.4,3.1-4.4,3.1h-4.6c-0.4,0-0.8-0.3-0.9-0.7l-9.1-29.9c-0.2-0.6,0.3-1.2,0.9-1.2h4c2.1,0,3.9,1.4,4.4,3.3
						l4.7,17.2l5.8-17.4c0.6-1.8,2.4-3.1,4.4-3.1l0,0c2,0,3.8,1.3,4.4,3.2l5.4,17.3l5.2-17.3c0.6-1.9,2.4-3.2,4.4-3.2h4.1
						C340.2,143.7,340.6,144.3,340.4,144.9z"/>
					<path id="XMLID_2374_" class="st2" d="M381.2,159.7c0,4.3-1.5,8.1-4.4,11.3c-3.4,3.7-7.9,5.6-13.6,5.6
						c-5.7,0-10.2-1.9-13.6-5.6c-2.9-3.3-4.4-7-4.4-11.3c0-2,0.4-4,1.2-6.1c0.8-2.1,1.9-3.8,3.2-5.3c3.4-3.7,7.9-5.6,13.6-5.6
						c5.7,0,10.3,1.9,13.6,5.6C379.8,151.6,381.2,155.3,381.2,159.7z M372.5,159.7c0-2.2-0.7-4.2-2.2-5.8c-1.9-2.1-4.2-3.1-7-3.1
						c-1.9,0-3.7,0.5-5.3,1.6c-1.6,1.1-2.7,2.5-3.4,4.3c-0.4,1-0.6,2-0.6,3.1c0,2.1,0.7,4.1,2.2,5.8c1.8,2.1,4.2,3.1,7,3.1
						c2.9,0,5.2-1,7-3.1C371.7,163.8,372.5,161.9,372.5,159.7z"/>
					<path id="XMLID_2371_" class="st2" d="M414.1,175.4h-6.1c-1.6,0-3-0.8-3.9-2l-6.7-10.1v7.7c0,2.5-2.1,4.5-4.6,4.5H390
						c-0.5,0-0.9-0.4-0.9-0.9v-29.9c0-0.5,0.4-0.9,0.9-0.9h12.2c3.8,0,6.7,1.1,8.5,3.4c1.5,1.8,2.2,3.9,2.2,6.4c0,2.8-0.9,5-2.6,6.7
						c-1.1,1.1-2.6,1.8-4.5,2.2l9.1,11.5C415.4,174.6,414.9,175.4,414.1,175.4z M404.2,153.9c0-1.1-0.4-2.1-1.3-2.9
						c-0.8-0.7-2.1-1.1-3.8-1.1h-1.6v7.9h1.6c1.8,0,3.1-0.4,3.8-1.1C403.8,156,404.2,155,404.2,153.9z"/>
					<path id="XMLID_2369_" class="st2" d="M450.4,175.4h-6.7c-1.4,0-2.7-0.6-3.6-1.7l-9.6-12v9.3c0,2.5-2.1,4.5-4.6,4.5H423
						c-0.5,0-0.9-0.4-0.9-0.9v-29.9c0-0.5,0.4-0.9,0.9-0.9h2.9c2.5,0,4.6,2,4.6,4.5v8.6l8.9-11.3c0.9-1.1,2.2-1.7,3.6-1.7h6.1
						c0.8,0,1.2,0.9,0.7,1.5l-11.6,13.5l12.8,15.2C451.7,174.5,451.2,175.4,450.4,175.4z"/>
					<path id="XMLID_2367_" class="st2" d="M481.2,164.9c0,5.4-2.4,8.9-7.2,10.5c-1.7,0.6-3.5,0.9-5.4,0.9c-3.8,0-7.3-1-10.6-3.1
						c-0.4-0.3-0.5-0.8-0.3-1.2l0.8-1.5c1.1-2.1,3.8-3,6-1.9c1.3,0.6,2.6,0.9,3.9,0.9c1.1,0,2-0.3,2.8-0.8c0.9-0.6,1.3-1.4,1.3-2.4
						c0-0.9-0.5-1.7-1.5-2.3c-0.7-0.5-2-0.9-3.7-1.4c-2.1-0.6-3.4-1-4-1.3c-0.9-0.4-1.6-0.8-2.2-1.3c-1.7-1.4-2.6-3.5-2.6-6.3
						c0-2.9,0.9-5.4,2.7-7.3c2.1-2.3,4.9-3.4,8.4-3.4c3.2,0,6.3,0.7,9.4,2.2c0.5,0.2,0.7,0.8,0.4,1.3l-0.8,1.6
						c-1,1.9-3.3,2.8-5.5,2.2c-0.7-0.2-1.5-0.3-2.2-0.3c-0.9,0-1.7,0.2-2.4,0.7c-0.8,0.5-1.2,1.2-1.2,2.1c0,0.8,0.5,1.6,1.6,2.2
						c0.5,0.3,1.9,0.8,4.3,1.4c3,0.9,5.1,2.1,6.4,3.6C480.6,161.1,481.2,162.8,481.2,164.9z"/>
				</g>
			</g>
			<linearGradient id="XMLID_2_" gradientUnits="userSpaceOnUse" x1="67.8901" y1="191.3706" x2="126.7082" y2="132.5526">
				<stop  offset="0.1344" style="stop-color:#F05844"/>
				<stop  offset="1" style="stop-color:#603D97"/>
			</linearGradient>
			<path id="XMLID_2357_" class="st3" d="M103.3,170.7c2.8,2.8,2.8,7.2,0,10c-1.4,1.4-3.3,2.1-5.2,2.1h-2.7c-1.3,0-2.7,0.7-3.5,1.5
				c-0.7,0.7-1.5,2-1.5,3.4v2c0.2,2-0.5,4.1-2.1,5.7c-2.8,2.8-7.4,2.8-10.2,0c-2.8-2.8-2.8-7.2,0-10c1.6-1.6,3.7-2.2,5.8-2h2
				c1.6,0,2.8-0.8,3.5-1.5c0.8-0.7,1.5-2,1.5-3.4v-2.7c0-1.8,0.7-3.7,2.1-5.1C95.9,168,100.5,168,103.3,170.7z M75.3,173
				c0-1.5,0.8-2.7,1.5-3.4c0.8-0.8,2.2-1.5,3.5-1.5h2c2.1,0.2,4.3-0.4,5.9-2c2.8-2.8,2.8-7.2,0-10c-1.4-1.4-3.4-2.1-5.2-2.1h-2.6
				c-1.4-0.1-2.8-0.7-3.5-1.5c-0.8-0.7-1.5-1.9-1.5-3.4v-2c0.2-2-0.5-4.1-2.1-5.7c-2.8-2.8-7.4-2.8-10.2,0c-2.8,2.8-2.8,7.2,0,10
				c1.6,1.6,3.7,2.2,5.8,2h2c1.5,0,2.8,0.8,3.5,1.5c0.8,0.8,1.5,2.2,1.5,3.4v2.4c0,0.2,0,0.4,0,0.6v2.4c-0.1,1.4-0.8,2.7-1.5,3.4
				c-0.8,0.7-2,1.5-3.5,1.5H68l0,0c-1.8,0-3.7,0.7-5.1,2.1c-2.8,2.8-2.8,7.2,0,10c2.8,2.8,7.4,2.8,10.2,0c1.5-1.5,2.2-3.5,2.1-5.5
				V173z M128.3,168.7L128.3,168.7l-2.8,0c-1.4-0.1-2.8-0.7-3.5-1.5c-0.8-0.7-1.5-1.9-1.5-3.4v-2c0-0.5,0-0.9,0-1.4v-1.9
				c0-1.5,0.8-2.7,1.5-3.4c0.8-0.8,2.2-1.5,3.5-1.5h2.8l0,0c1.9,0,3.7-0.7,5.2-2.1c2.8-2.8,2.8-7.2,0-10c-2.8-2.8-7.4-2.8-10.2,0
				c-1.4,1.4-2.1,3.2-2.1,5l0,0v2.7c-0.1,1.4-0.8,2.7-1.5,3.4c-0.8,0.7-2,1.5-3.5,1.5h-2c-2.1-0.2-4.3,0.4-5.9,2
				c-2.8,2.8-2.8,7.2,0,10c1.6,1.6,3.8,2.2,5.9,2h1.9c1.5,0,2.8,0.8,3.5,1.5c0.8,0.8,1.5,2.2,1.5,3.4v2.5c-0.1,1.9,0.6,3.8,2.1,5.2
				c2.8,2.8,7.4,2.8,10.2,0c2.8-2.8,2.8-7.2,0-10C132,169.3,130.2,168.7,128.3,168.7z M108.1,185.5c-2.8,2.8-2.8,7.2,0,10
				c2.8,2.8,7.4,2.8,10.2,0c2.8-2.8,2.8-7.2,0-10C115.5,182.7,110.9,182.7,108.1,185.5z M88.2,136.7c2.8-2.8,2.8-7.2,0-10
				c-2.8-2.8-7.4-2.8-10.2,0c-2.8,2.8-2.8,7.2,0,10C80.8,139.4,85.4,139.4,88.2,136.7z M103.3,151.3c1.6-1.6,2.3-3.7,2-5.7v-2
				c0-1.5,0.8-2.7,1.5-3.4c0.8-0.8,2.2-1.5,3.5-1.5h2.6c1.9,0.1,3.9-0.6,5.3-2.1c2.8-2.8,2.8-7.2,0-10c-2.8-2.8-7.4-2.8-10.2,0
				c-1.4,1.4-2.1,3.2-2.1,5l0,0v2.7c-0.1,1.4-0.8,2.7-1.5,3.4c-0.8,0.7-2,1.5-3.5,1.5h-2.3c-2-0.1-4.1,0.5-5.6,2
				c-2.8,2.8-2.8,7.2,0,10C95.9,154.1,100.5,154.1,103.3,151.3z"/>
		</g>
	</g>
</g>
</svg>
